# Blender 4.5.3 LTS
# www.blender.org
mtllib strawberry.mtl
o strawberry
v -0.016480 0.086841 -0.045187
v 0.005876 0.065510 -0.055388
v 0.001411 0.074748 -0.051964
v 0.001032 0.091425 -0.039793
v -0.032865 0.080884 -0.042213
v -0.027740 0.069109 -0.053870
v -0.007665 0.070260 -0.055922
v -0.003177 0.062201 -0.058437
v 0.018008 0.088533 -0.024231
v 0.003517 0.096616 -0.023349
v -0.044406 0.068731 -0.025460
v -0.025690 0.046419 -0.056579
v -0.007052 0.042549 -0.059636
v 0.009605 0.038266 -0.054498
v 0.024528 0.071118 -0.041081
v 0.024781 0.047842 -0.045578
v -0.032273 0.086372 -0.020617
v -0.039907 0.058140 -0.046996
v 0.029326 0.071552 -0.015414
v -0.014103 0.096403 -0.022306
v -0.047064 0.047711 -0.021139
v -0.036002 0.033428 -0.035906
v 0.023769 0.032723 -0.030362
v 0.033447 0.055749 -0.027731
v -0.026697 0.019400 -0.019767
v -0.012310 0.027022 -0.049123
v 0.005297 0.020674 -0.035343
v -0.003967 0.074126 -0.053386
v -0.022247 0.078466 -0.050985
v 0.005344 0.070860 -0.053019
v -0.008143 0.091098 -0.042338
v -0.033334 0.084913 -0.033531
v -0.028287 0.058063 -0.056192
v -0.018897 0.058761 -0.057316
v -0.014658 0.053085 -0.058774
v 0.003108 0.049540 -0.058140
v 0.010107 0.050803 -0.055585
v 0.016637 0.067967 -0.048753
v 0.013374 0.081787 -0.041753
v 0.010632 0.094098 -0.023261
v -0.016864 0.093412 -0.034422
v -0.039313 0.076450 -0.036618
v -0.034215 0.063877 -0.052474
v 0.017801 0.054360 -0.051226
v -0.039582 0.078605 -0.023106
v -0.043423 0.064424 -0.038932
v 0.030605 0.051462 -0.037405
v 0.024750 0.081793 -0.020819
v -0.004427 0.097713 -0.023225
v -0.023970 0.092505 -0.021739
v 0.031286 0.063587 -0.035283
v -0.024918 0.087449 -0.005025
v -0.047260 0.057828 -0.024388
v -0.030785 0.025091 -0.029479
v 0.026388 0.035551 -0.014789
v 0.032100 0.049639 -0.015409
v 0.033342 0.064091 -0.022602
v 0.020325 0.078999 -0.005353
v -0.043317 0.040250 -0.028280
v 0.014747 0.025157 -0.034269
v 0.017001 0.024033 -0.016471
v -0.020006 0.014725 -0.012674
v -0.011775 0.017615 -0.027869
v -0.002435 0.022643 -0.043189
v -0.019894 0.021429 -0.034744
v 0.030707 0.044222 -0.028121
v -0.025051 0.029127 -0.044361
v -0.039289 0.044960 -0.042700
v 0.025882 0.040014 -0.039805
v -0.015345 0.043535 -0.059174
v -0.036979 0.071269 -0.045948
v 0.011006 0.091161 -0.032548
v 0.000418 0.040713 -0.058650
v -0.006599 0.082979 -0.048656
v -0.025674 0.085028 -0.043632
v -0.013126 0.078305 -0.051970
v 0.001777 0.096616 -0.030967
v 0.000035 0.084243 -0.046566
v -0.030163 0.076266 -0.049097
v -0.020219 0.069047 -0.055395
v -0.007120 0.065499 -0.057837
v -0.005749 0.049473 -0.059824
v 0.002189 0.062233 -0.057470
v 0.006080 0.078498 -0.047877
v 0.022010 0.081557 -0.033063
v -0.008253 0.096513 -0.032792
v -0.025488 0.088940 -0.034074
v -0.008875 0.035962 -0.057624
v 0.018596 0.042177 -0.050221
v -0.034596 0.050956 -0.052595
v -0.020428 0.035613 -0.054609
v -0.000269 0.031547 -0.054432
v 0.025820 0.058555 -0.044849
v 0.029432 0.073089 -0.030120
v 0.015150 0.088537 -0.012263
v -0.044679 0.052284 -0.035644
v 0.008335 0.028042 -0.047201
v 0.018153 0.033580 -0.044034
v -0.004552 0.093489 -0.009363
v 0.005287 0.093644 -0.013256
v -0.015206 0.092517 -0.007292
v -0.031674 0.038576 -0.048292
v -0.045813 0.060987 -0.005217
v -0.046380 0.039455 -0.010306
v -0.040591 0.031067 -0.018891
v -0.035627 0.023827 -0.010788
v 0.030131 0.056643 -0.006875
v -0.003102 0.015113 -0.021223
v 0.006847 0.017309 -0.019103
v -0.018582 0.075744 -0.053113
v -0.004798 0.086956 -0.045897
v -0.022858 0.061387 -0.056699
v -0.000004 0.046635 -0.059236
v 0.008001 0.094795 -0.029503
v -0.022769 0.091943 -0.030623
v -0.032952 0.057192 -0.054587
v -0.015244 0.038023 -0.057834
v -0.004334 0.097826 -0.029630
v -0.038864 0.076401 -0.010313
v 0.029943 0.057940 -0.039617
v 0.020565 0.083969 -0.012738
v -0.001492 0.095479 -0.015206
v -0.024923 0.024890 -0.037740
v 0.001926 0.027261 -0.049887
v -0.044019 0.036362 -0.019144
v -0.035956 0.026237 -0.019997
v 0.013214 0.021526 -0.023849
v 0.020856 0.028323 -0.010078
v -0.006010 0.017997 -0.031307
v -0.007973 0.078965 -0.051300
v -0.025766 0.080665 -0.048377
v -0.028006 0.087045 -0.037194
v -0.034065 0.070860 -0.049628
v -0.014299 0.058455 -0.058066
v -0.012555 0.048854 -0.059637
v 0.005310 0.053691 -0.057295
v 0.011800 0.076508 -0.046680
v 0.003669 0.078703 -0.048882
v 0.015564 0.085390 -0.036087
v -0.011341 0.094299 -0.036933
v -0.038049 0.080708 -0.031717
v -0.040141 0.071120 -0.041342
v 0.015651 0.048544 -0.052977
v 0.020588 0.059897 -0.048952
v 0.026396 0.078878 -0.028666
v -0.002366 0.035734 -0.057510
v 0.021301 0.037787 -0.045109
v 0.010899 0.092507 -0.015517
v -0.045778 0.058283 -0.034213
v -0.035717 0.044498 -0.048313
v -0.025960 0.033894 -0.049562
v 0.014338 0.028815 -0.042697
v 0.029812 0.044898 -0.035306
v 0.032091 0.067733 -0.029980
v -0.021998 0.091619 -0.011650
v -0.042734 0.045607 -0.036127
v 0.030533 0.043055 -0.019210
v -0.047585 0.056592 -0.011736
v 0.032721 0.057324 -0.014888
v -0.016817 0.017436 -0.025836
v 0.000409 0.014112 -0.013393
v -0.035510 0.078587 -0.004787
v -0.040572 0.071154 -0.004787
v -0.033758 0.080503 -0.004787
v -0.040840 0.070575 -0.004787
v 0.011317 0.086747 -0.004787
v 0.019506 0.079341 -0.004787
v -0.000658 0.090459 -0.004787
v 0.006037 0.089226 -0.004787
v -0.010816 0.091988 -0.004787
v -0.007069 0.092128 -0.004787
v -0.015362 0.091393 -0.004787
v -0.024751 0.087419 -0.004787
v -0.025008 0.087302 -0.004787
v 0.026608 0.067058 -0.004787
v 0.020310 0.078540 -0.004787
v -0.042789 0.031257 -0.004787
v -0.044831 0.035053 -0.004787
v -0.040060 0.028036 -0.004787
v -0.035466 0.022396 -0.004787
v -0.029398 0.017915 -0.004787
v 0.010940 0.019492 -0.004787
v 0.007978 0.017499 -0.004787
v 0.026400 0.039064 -0.004787
v 0.019587 0.027775 -0.004787
v -0.023057 0.014487 -0.004787
v -0.014825 0.012541 -0.004787
v -0.010478 0.012159 -0.004787
v -0.012174 0.012349 -0.004787
v -0.045786 0.060799 -0.004787
v -0.045642 0.061196 -0.004787
v 0.028104 0.043331 -0.004787
v -0.047642 0.050297 -0.004787
v -0.047638 0.050135 -0.004787
v -0.046930 0.042055 -0.004787
v 0.028953 0.051584 -0.004787
v 0.029431 0.056415 -0.004787
v -0.000960 0.013198 -0.004787
vn -0.1890 0.7253 -0.6620
vn -0.0248 0.5172 -0.8555
vn -0.1077 0.4473 -0.8879
vn -0.2033 0.5310 -0.8226
vn -0.0460 0.3530 -0.9345
vn -0.1247 0.2844 -0.9505
vn -0.3148 0.3245 -0.8919
vn 0.2663 0.7510 -0.6042
vn 0.2766 0.5766 -0.7687
vn 0.1072 0.6218 -0.7758
vn -0.0200 0.7674 -0.6408
vn 0.2192 0.5021 -0.8365
vn 0.0640 0.5587 -0.8269
vn -0.1338 0.1422 -0.9808
vn -0.2780 0.0732 -0.9578
vn -0.1458 0.1218 -0.9818
vn -0.3860 -0.1967 -0.9013
vn 0.0062 -0.1558 -0.9878
vn 0.0462 0.0437 -0.9980
vn 0.2306 -0.0187 -0.9729
vn 0.2373 -0.2134 -0.9477
vn 0.0526 0.1018 -0.9934
vn 0.2914 -0.0023 -0.9566
vn 0.4318 -0.3536 -0.8298
vn 0.2378 0.9669 0.0926
vn 0.4830 0.8755 0.0159
vn 0.4302 0.8619 -0.2683
vn 0.2334 0.9228 -0.3066
vn 0.6509 0.7553 -0.0760
vn 0.5118 0.7499 -0.4192
vn -0.4444 0.8545 -0.2691
vn -0.4743 0.8486 -0.2342
vn -0.3521 0.8724 -0.3389
vn -0.6464 0.7591 0.0768
vn -0.4861 0.8735 0.0254
vn -0.2356 0.9699 0.0614
vn -0.8342 0.0078 -0.5514
vn -0.5993 0.2129 -0.7717
vn -0.5369 0.0349 -0.8430
vn -0.6491 -0.1844 -0.7381
vn -0.1727 -0.7824 -0.5983
vn -0.3577 -0.5313 -0.7679
vn -0.2041 -0.4186 -0.8849
vn -0.0722 -0.4853 -0.8713
vn -0.1951 -0.1376 -0.9711
vn -0.0995 0.9455 -0.3099
vn 0.0111 0.9789 -0.2039
vn -0.0042 0.9934 0.1147
vn -0.5939 0.3043 0.7448
vn -0.5014 0.4131 0.7603
vn -0.8227 0.5421 0.1711
vn 0.6821 0.4200 -0.5986
vn 0.9023 0.1952 -0.3845
vn 0.8690 0.0647 -0.4906
vn 0.7201 0.1162 -0.6841
vn 0.9914 -0.0753 -0.1067
vn 0.9142 -0.1332 -0.3827
vn 0.7484 -0.1399 -0.6483
vn 0.8863 0.3920 0.2466
vn 0.7916 0.6054 0.0833
vn 0.7023 0.6414 0.3089
vn 0.7089 0.5601 0.4287
vn 0.5590 0.7627 0.3253
vn 0.3522 0.3816 0.8546
vn 0.2993 0.4767 0.8266
vn 0.0642 0.9364 0.3450
vn 0.0655 0.9484 0.3103
vn 0.1795 0.5366 0.8245
vn 0.2567 0.9030 0.3446
vn 0.1051 0.5322 0.8401
vn -0.1602 0.5615 0.8118
vn -0.0341 0.6104 0.7913
vn -0.2066 0.9279 0.3103
vn 0.0390 0.6213 0.7826
vn -0.2228 0.5162 0.8270
vn -0.4860 0.8209 0.2999
vn -0.3471 0.5228 0.7786
vn -0.2690 -0.8850 -0.3801
vn -0.4521 -0.7875 -0.4188
vn -0.4638 -0.7260 -0.5078
vn -0.4686 -0.8517 -0.2345
vn -0.5777 -0.7546 -0.3112
vn -0.7157 -0.5819 -0.3862
vn 0.4067 -0.7089 -0.5763
vn 0.2025 -0.7530 -0.6261
vn 0.1576 -0.6245 -0.7650
vn 0.2898 -0.8990 -0.3283
vn 0.0406 -0.8865 -0.4610
vn -0.7193 -0.1238 0.6836
vn -0.6742 -0.3283 0.6615
vn -0.6289 -0.4379 0.6424
vn -0.5721 -0.4877 0.6594
vn -0.5317 -0.5770 0.6200
vn -0.4126 -0.6635 0.6241
vn -0.2892 -0.7296 0.6197
vn -0.0934 -0.7807 0.6179
vn -0.0687 -0.7856 0.6149
vn -0.0299 -0.7923 0.6094
vn 0.1840 -0.7454 0.6407
vn 0.3640 -0.6337 0.6826
vn 0.4336 -0.5778 0.6915
vn 0.5294 -0.4465 0.7214
vn 0.6000 -0.2888 0.7461
vn 0.6342 -0.1907 0.7493
vn 0.5890 -0.0602 0.8059
vn 0.6200 0.0439 0.7834
vn 0.5557 0.2083 0.8049
vn 0.4663 0.3162 0.8262
vn -0.4553 0.4708 0.7557
vn -0.6016 0.2910 0.7439
vn -0.6074 0.2806 0.7432
vn -0.6451 0.1587 0.7474
vn -0.7219 0.0194 0.6917
vn -0.7226 -0.0445 0.6898
vn -0.9525 -0.2974 -0.0651
vn -0.8838 -0.4281 -0.1889
vn -0.7868 -0.5853 -0.1960
vn -0.9795 -0.1563 -0.1273
vn -0.8779 -0.3934 -0.2731
vn -0.6716 -0.7096 -0.2131
vn -0.6723 -0.7235 -0.1569
vn 0.5687 -0.7751 -0.2753
vn 0.5588 -0.8167 -0.1443
vn 0.4149 -0.9005 -0.1300
vn 0.7730 -0.6118 -0.1675
vn 0.6748 -0.7376 -0.0237
vn 0.8574 -0.5108 0.0631
vn 0.7750 -0.6266 0.0823
vn -0.2595 -0.9442 -0.2030
vn 0.0739 -0.9709 -0.2280
vn -0.0400 -0.9419 -0.3336
vn -0.1054 -0.9454 -0.3084
vn 0.0771 0.5253 -0.8474
vn 0.1245 0.4876 -0.8642
vn -0.6181 0.6247 -0.4771
vn -0.3576 0.7738 -0.5228
vn -0.3483 0.6085 -0.7130
vn -0.4849 0.5009 -0.7169
vn -0.4178 0.8568 -0.3023
vn -0.6087 0.7699 -0.1916
vn -0.6169 0.3738 -0.6926
vn -0.7464 0.3736 -0.5507
vn -0.1598 0.0974 -0.9823
vn -0.1587 0.1723 -0.9722
vn -0.1486 0.2146 -0.9653
vn -0.1172 0.0484 -0.9919
vn 0.4209 0.2484 -0.8724
vn 0.4094 0.0133 -0.9123
vn 0.3170 0.0558 -0.9468
vn 0.3005 0.0972 -0.9488
vn 0.4967 0.3518 -0.7934
vn 0.4209 0.4983 -0.7580
vn 0.4697 0.5892 -0.6575
vn 0.4041 0.5261 -0.7483
vn 0.3649 0.5191 -0.7729
vn 0.4642 0.4595 -0.7572
vn 0.5529 0.6724 -0.4921
vn 0.6737 0.6266 -0.3917
vn -0.1673 0.8853 -0.4339
vn -0.8274 0.4864 -0.2807
vn -0.7889 0.5993 -0.1359
vn -0.9346 0.3535 -0.0391
vn -0.8299 0.5557 0.0492
vn -0.8385 0.3635 -0.4060
vn -0.9171 0.1998 -0.3451
vn 0.5092 -0.0230 -0.8604
vn 0.5985 -0.2673 -0.7552
vn 0.5381 0.0773 -0.8393
vn 0.5684 0.1703 -0.8050
vn 0.8617 0.4596 -0.2149
vn 0.8108 0.5545 -0.1876
vn 0.1021 -0.4607 -0.8816
vn 0.6219 -0.5982 -0.5054
vn 0.6819 -0.4857 -0.5469
vn 0.8062 -0.4431 -0.3920
vn 0.4492 0.8550 0.2590
vn -0.9405 0.3162 0.1249
vn -0.9912 0.1006 -0.0856
vn -0.9662 0.0564 -0.2516
vn -0.9328 -0.1458 -0.3297
vn -0.7168 -0.3668 -0.5930
vn -0.8210 -0.3418 -0.4574
vn -0.6252 -0.4959 -0.6026
vn -0.5021 -0.5965 -0.6261
vn 0.5543 -0.6920 -0.4625
vn 0.9022 -0.3268 -0.2814
vn 0.9275 -0.3605 -0.0987
vn 0.9301 0.3164 -0.1864
vn 0.9782 0.1966 0.0664
vn -0.4330 0.8682 0.2425
vn -0.8791 -0.3157 -0.3571
vn 0.9258 -0.3766 0.0326
vn 0.9710 -0.1887 0.1470
vn -0.9902 0.1361 0.0301
vn 0.9456 0.0732 0.3170
vn 0.9746 0.0496 0.2185
vn -0.1902 -0.9385 -0.2880
vn 0.2550 -0.9610 -0.1074
vt 0.697668 0.424408
vt 0.728205 0.514658
vt 0.706741 0.503446
vt 0.686811 0.470269
vt 0.735474 0.565906
vt 0.701258 0.528167
vt 0.666678 0.501347
vt 0.702659 0.345303
vt 0.752884 0.465623
vt 0.741885 0.462188
vt 0.708999 0.397057
vt 0.780189 0.550395
vt 0.751970 0.506231
vt 0.678302 0.513305
vt 0.709249 0.536388
vt 0.677173 0.553609
vt 0.650428 0.544896
vt 0.678203 0.579795
vt 0.621215 0.594053
vt 0.648632 0.686182
vt 0.675041 0.679044
vt 0.670747 0.712448
vt 0.649760 0.726022
vt 0.725183 0.655789
vt 0.684783 0.719838
vt 0.658534 0.784108
vt 0.617467 0.218285
vt 0.580490 0.158773
vt 0.594592 0.146262
vt 0.607526 0.160708
vt 0.604012 0.191954
vt 0.602613 0.129922
vt 0.625000 0.125000
vt 0.662918 0.390330
vt 0.598052 0.361537
vt 0.589281 0.339456
vt 0.618629 0.343729
vt 0.562074 0.359967
vt 0.559739 0.315190
vt 0.574760 0.283032
vt 0.622590 0.495268
vt 0.642815 0.500978
vt 0.630855 0.529940
vt 0.605861 0.544049
vt 0.575442 0.689166
vt 0.595913 0.640473
vt 0.617876 0.657124
vt 0.621109 0.688844
vt 0.637414 0.647240
vt 0.709903 0.381209
vt 0.648896 0.336454
vt 0.634255 0.297621
vt 0.667319 0.306437
vt 0.588479 0.247788
vt 0.500864 0.379443
vt 0.508130 0.347894
vt 0.515288 0.370196
vt 0.685814 0.717035
vt 0.624340 0.818701
vt 0.617153 0.837050
vt 0.651050 0.785374
vt 0.551206 0.962362
vt 0.577044 0.918669
vt 0.617021 0.862443
vt 0.571722 0.125378
vt 0.577059 0.149936
vt 0.548231 0.116768
vt 0.529454 0.103537
vt 0.548713 0.139363
vt 0.528151 0.106665
vt 0.529965 0.146630
vt 0.537370 0.216353
vt 0.554883 0.210511
vt 0.530763 0.167677
vt 0.552771 0.179743
vt 0.527289 0.195391
vt 0.522814 0.255530
vt 0.524299 0.236968
vt 0.528531 0.256962
vt 0.525700 0.221978
vt 0.517183 0.295355
vt 0.517618 0.296264
vt 0.517028 0.296486
vt 0.531719 0.670523
vt 0.536765 0.646363
vt 0.555605 0.637988
vt 0.495484 0.646837
vt 0.516496 0.623651
vt 0.534674 0.588529
vt 0.587172 0.777938
vt 0.587809 0.749381
vt 0.609838 0.736839
vt 0.542651 0.771224
vt 0.560491 0.734677
vt 0.560492 0.734677
vt 0.476556 0.501449
vt 0.471867 0.533703
vt 0.469758 0.551148
vt 0.468378 0.569106
vt 0.465443 0.602013
vt 0.463847 0.635282
vt 0.462963 0.669960
vt 0.443561 0.723845
vt 0.439089 0.738886
vt 0.440736 0.744850
vt 0.469685 0.775559
vt 0.478438 0.816995
vt 0.480670 0.830377
vt 0.490414 0.876875
vt 0.499046 0.932976
vt 0.507597 0.791881
vt 0.519805 0.029305
vt 0.523830 0.037400
vt 0.535056 0.088209
vt 0.528032 0.102314
vt 0.512692 0.340827
vt 0.500412 0.381618
vt 0.491565 0.422655
vt 0.491097 0.424496
vt 0.482145 0.466839
vt 0.482029 0.467466
vt 0.484963 0.521201
vt 0.499739 0.547306
vt 0.496870 0.571759
vt 0.511668 0.502369
vt 0.521113 0.543457
vt 0.497002 0.599361
vt 0.478145 0.600896
vt 0.546060 0.812348
vt 0.519633 0.814776
vt 0.505822 0.792195
vt 0.545087 0.860818
vt 0.508281 0.841681
vt 0.515481 0.898944
vt 0.500734 0.872705
vt 0.479291 0.683822
vt 0.503387 0.749255
vt 0.527772 0.729079
vt 0.517398 0.710063
vt 0.753117 0.536580
vt 0.769292 0.575924
vt 0.609508 0.383979
vt 0.658270 0.412415
vt 0.661829 0.440016
vt 0.638854 0.441652
vt 0.638855 0.441652
vt 0.601104 0.369574
vt 0.576374 0.363837
vt 0.630919 0.379570
vt 0.605664 0.372586
vt 0.622676 0.454613
vt 0.602420 0.441255
vt 0.634824 0.492757
vt 0.670278 0.628116
vt 0.688146 0.607878
vt 0.726265 0.615534
vt 0.661293 0.649697
vt 0.758238 0.695681
vt 0.699818 0.742173
vt 0.704802 0.716430
vt 0.737647 0.680422
vt 0.684782 0.719838
vt 0.709889 0.563492
vt 0.734064 0.629587
vt 0.725026 0.538948
vt 0.708677 0.464204
vt 0.738135 0.539282
vt 0.721879 0.423749
vt 0.758646 0.550381
vt 0.759107 0.481353
vt 0.784494 0.646736
vt 0.810750 0.597791
vt 0.667445 0.344246
vt 0.635729 0.268100
vt 0.641093 0.339650
vt 0.598648 0.120404
vt 0.572296 0.115808
vt 0.700379 0.401506
vt 0.657188 0.362283
vt 0.572260 0.410160
vt 0.562777 0.388364
vt 0.574143 0.365554
vt 0.537606 0.427669
vt 0.542122 0.386475
vt 0.581216 0.436788
vt 0.569460 0.461357
vt 0.645810 0.818449
vt 0.628196 0.839848
vt 0.614750 0.839119
vt 0.650221 0.848234
vt 0.624302 0.864783
vt 0.599018 0.887868
vt 0.680560 0.785329
vt 0.686164 0.748157
vt 0.727856 0.685361
vt 0.634648 0.314092
vt 0.615256 0.253922
vt 0.645057 0.349169
vt 0.627277 0.720476
vt 0.587813 0.825105
vt 0.592565 0.844629
vt 0.575136 0.872618
vt 0.557071 0.156553
vt 0.492124 0.424414
vt 0.525912 0.468304
vt 0.550241 0.479333
vt 0.551760 0.503459
vt 0.579171 0.559843
vt 0.564146 0.544814
vt 0.573670 0.591853
vt 0.573933 0.624105
vt 0.574864 0.805926
vt 0.574510 0.919630
vt 0.564572 0.901082
vt 0.548934 0.944623
vt 0.546441 0.910138
vt 0.546440 0.910138
vt 0.588242 0.156346
vt 0.583184 0.171923
vt 0.581372 0.341419
vt 0.582996 0.418379
vt 0.578125 0.187500
vt 0.577937 0.433956
vt 0.577750 0.680412
vt 0.534043 0.288777
vt 0.545230 0.531280
vt 0.527888 0.920576
vt 0.520752 0.949681
vt 0.500314 0.948735
vt 0.500030 0.453312
vt 0.514358 0.245315
vt 0.509987 0.546240
vt 0.512962 0.522956
vt 0.516635 0.360851
vt 0.512263 0.661776
vt 0.508604 0.641428
vt 0.518911 0.476388
vt 0.529321 0.037809
vt 0.511716 0.690318
vt 0.489505 0.770502
vt 0.478145 0.600897
s 1
usemtl StrawberryMaterial
f 1/1/1 76/2/2 110/3/3 29/4/4
f 7/5/5 80/6/6 110/3/3 76/2/2
f 6/7/7 29/4/4 110/3/3 80/6/6
f 4/8/8 78/9/9 111/10/10 31/11/11
f 3/12/12 74/13/13 111/10/10 78/9/9
f 1/1/1 31/11/11 111/10/10 74/13/13
f 6/14/7 80/15/6 112/16/14 33/17/15
f 7/5/5 34/18/16 112/16/14 80/15/6
f 12/19/17 33/17/15 112/16/14 34/18/16
f 13/20/18 82/21/19 113/22/20 73/23/21
f 8/24/22 36/25/23 113/22/20 82/21/19
f 14/26/24 73/23/21 113/22/20 36/25/23
f 10/27/25 40/28/26 114/29/27 77/30/28
f 9/31/29 72/32/30 114/29/27 40/28/26
f 4/33/8 77/30/28 114/29/27 72/32/30
f 1/34/1 87/35/31 115/36/32 41/37/33
f 17/38/34 50/39/35 115/36/32 87/35/31
f 20/40/36 41/37/33 115/36/32 50/39/35
f 18/41/37 43/42/38 116/43/39 90/44/40
f 6/14/7 33/17/15 116/43/39 43/42/38
f 12/19/17 90/44/40 116/43/39 33/17/15
f 26/45/41 91/46/42 117/47/43 88/48/44
f 12/19/17 70/49/45 117/47/43 91/46/42
f 13/20/18 88/48/44 117/47/43 70/49/45
f 4/50/8 86/51/46 118/52/47 77/53/28
f 20/40/36 49/54/48 118/52/47 86/51/46
f 10/27/25 77/53/28 118/52/47 49/54/48
f 163/55/49 162/56/50 119/57/51
f 15/58/52 51/59/53 120/60/54 93/61/55
f 24/62/56 47/63/57 120/60/54 51/59/53
f 16/64/58 93/61/55 120/60/54 47/63/57
f 19/65/59 48/66/60 121/67/61 58/68/62
f 9/31/29 95/69/63 121/67/61 48/66/60
f 167/70/64 58/68/62 121/67/61 95/69/63 166/71/65
f 20/40/36 99/72/66 122/73/67 49/54/48
f 169/74/68 100/75/69 122/73/67 99/72/66 168/76/70
f 10/27/25 49/54/48 122/73/67 100/75/69
f 172/77/71 170/78/72 101/79/73
f 168/76/70 99/72/66 171/80/74
f 173/81/75 52/82/76 174/83/77
f 26/45/41 65/84/78 123/85/79 67/86/80
f 25/87/81 54/88/82 123/85/79 65/84/78
f 22/89/83 67/86/80 123/85/79 54/88/82
f 14/26/24 97/90/84 124/91/85 92/92/86
f 27/93/87 64/94/88 124/91/85 97/90/84
f 26/45/41 92/92/86 124/91/85 64/95/88
f 195/96/89 178/97/90 177/98/91 179/99/92 180/100/93 181/101/94 186/102/95 187/103/96 189/104/97 188/105/98 198/106/99 183/107/100 182/108/101 185/109/102 184/110/103 192/111/104 196/112/105 197/113/106 175/114/107 176/115/108 167/70/64 166/71/65 169/74/68 168/76/70 171/80/74 170/78/72 172/77/71 173/81/75 174/83/77 164/116/109 162/56/50 163/55/49 165/117/110 191/118/111 190/119/112 193/120/113 194/121/114
f 167/70/64 176/115/108 58/68/62
f 178/97/90 104/122/115 125/123/116 105/124/117 177/98/91
f 21/125/118 59/126/119 125/123/116 104/122/115
f 22/89/83 105/124/117 125/123/116 59/126/119
f 22/89/83 54/88/82 126/127/120 105/124/117
f 25/87/81 106/128/121 126/127/120 54/88/82
f 177/98/91 105/124/117 126/127/120 106/128/121 179/99/92
f 179/99/92 106/128/121 180/100/93
f 27/93/87 60/129/122 127/130/123 109/131/124
f 23/132/125 61/133/126 127/130/123 60/129/122
f 183/107/100 109/131/124 127/130/123 61/133/126 182/108/101
f 23/132/125 55/134/127 128/135/128 61/133/126
f 184/110/103 185/109/102 128/135/128 55/134/127
f 182/108/101 61/133/126 128/135/128 185/109/102
f 187/103/96 186/102/95 62/136/129
f 27/93/87 108/137/130 129/138/131 64/95/88
f 189/104/97 63/139/132 129/138/131 108/137/130 188/105/98
f 26/45/41 64/94/88 129/138/131 63/139/132
f 1/1/1 74/13/13 130/140/133 76/2/2
f 3/12/12 28/141/134 130/140/133 74/13/13
f 7/5/5 76/2/2 130/140/133 28/141/134
f 5/142/135 75/143/136 131/144/137 79/145/138
f 1/1/1 29/4/4 131/144/137 75/143/136
f 6/7/7 79/146/138 131/144/137 29/4/4
f 17/38/34 87/35/31 132/147/139 32/148/140
f 1/34/1 75/149/136 132/147/139 87/35/31
f 5/150/135 32/148/140 132/147/139 75/149/136
f 5/142/135 79/145/138 133/151/141 71/152/142
f 6/7/7 43/153/38 133/151/141 79/146/138
f 18/41/37 71/152/142 133/151/141 43/153/38
f 8/24/22 35/154/143 134/155/144 81/156/145
f 12/19/17 34/18/16 134/155/144 35/154/143
f 7/5/5 81/156/145 134/155/144 34/18/16
f 12/19/17 35/154/143 135/157/146 70/49/45
f 8/24/22 82/21/19 135/157/146 35/154/143
f 13/20/18 70/49/45 135/157/146 82/21/19
f 2/158/147 37/159/148 136/160/149 83/161/150
f 14/26/24 36/162/23 136/160/149 37/159/148
f 8/24/22 83/161/150 136/160/149 36/162/23
f 15/163/52 38/164/151 137/165/152 39/166/153
f 2/158/147 84/167/154 137/165/152 38/164/151
f 4/168/8 39/166/153 137/165/152 84/167/154
f 4/168/8 84/167/154 138/169/155 78/170/9
f 2/158/147 30/171/156 138/169/155 84/167/154
f 3/172/12 78/170/9 138/169/155 30/171/156
f 15/163/52 39/173/153 139/174/157 85/175/158
f 4/33/8 72/176/30 139/174/157 39/173/153
f 9/177/29 85/175/158 139/174/157 72/176/30
f 4/50/8 31/178/11 140/179/159 86/51/46
f 1/34/1 41/37/33 140/179/159 31/178/11
f 20/40/36 86/51/46 140/179/159 41/37/33
f 5/142/135 42/180/160 141/181/161 32/182/140
f 11/183/162 45/184/163 141/181/161 42/180/160
f 17/38/34 32/182/140 141/181/161 45/184/163
f 11/183/162 42/180/160 142/185/164 46/186/165
f 5/142/135 71/152/142 142/185/164 42/180/160
f 18/41/37 46/186/165 142/185/164 71/152/142
f 14/26/24 37/187/148 143/188/166 89/189/167
f 2/190/147 44/191/168 143/188/166 37/187/148
f 16/192/58 89/189/167 143/188/166 44/191/168
f 16/64/58 44/193/168 144/194/169 93/61/55
f 2/158/147 38/195/151 144/194/169 44/193/168
f 15/58/52 93/61/55 144/194/169 38/195/151
f 19/65/59 94/196/170 145/197/171 48/66/60
f 15/163/52 85/198/158 145/197/171 94/196/170
f 9/31/29 48/66/60 145/197/171 85/198/158
f 13/20/18 73/23/21 146/199/172 88/48/44
f 14/26/24 92/92/86 146/199/172 73/23/21
f 26/45/41 88/48/44 146/199/172 92/92/86
f 23/132/125 98/200/173 147/201/174 69/202/175
f 14/26/24 89/189/167 147/201/174 98/200/173
f 16/192/58 69/202/175 147/201/174 89/189/167
f 166/71/65 95/69/63 148/203/176 100/75/69 169/74/68
f 9/31/29 40/28/26 148/203/176 95/69/63
f 10/27/25 100/75/69 148/203/176 40/28/26
f 190/119/112 191/118/111 103/204/177
f 21/125/118 53/205/178 149/206/179 96/207/180
f 11/183/162 46/186/165 149/206/179 53/205/178
f 18/41/37 96/207/180 149/206/179 46/186/165
f 18/41/37 90/44/40 150/208/181 68/209/182
f 12/19/17 102/210/183 150/208/181 90/44/40
f 22/89/83 68/209/182 150/208/181 102/210/183
f 26/45/41 67/86/80 151/211/184 91/46/42
f 22/89/83 102/210/183 151/211/184 67/86/80
f 12/19/17 91/46/42 151/211/184 102/210/183
f 27/93/87 97/90/84 152/212/185 60/129/122
f 14/26/24 98/200/173 152/212/185 97/90/84
f 23/132/125 60/129/122 152/212/185 98/200/173
f 16/192/58 47/213/57 153/214/186 69/202/175
f 24/215/56 66/216/187 153/214/186 47/213/57
f 23/132/125 69/202/175 153/214/186 66/217/187
f 15/218/52 94/219/170 154/220/188 51/221/53
f 19/222/59 57/223/189 154/220/188 94/219/170
f 24/224/56 51/221/53 154/220/188 57/223/189
f 20/40/36 50/39/35 155/225/190 101/79/73
f 17/38/34 52/82/76 155/225/190 50/39/35
f 172/77/71 101/79/73 155/225/190 52/82/76 173/81/75
f 18/41/37 68/209/182 156/226/191 96/207/180
f 22/89/83 59/126/119 156/226/191 68/209/182
f 21/125/118 96/207/180 156/226/191 59/126/119
f 184/110/103 55/134/127 157/227/192 56/228/193 192/229/104
f 23/132/125 66/216/187 157/227/192 55/134/127
f 24/215/56 56/228/193 157/227/192 66/216/187
f 190/119/112 103/204/177 158/230/194 193/120/113
f 11/183/162 53/205/178 158/230/194 103/204/177
f 178/97/90 195/96/89 104/122/115
f 19/231/59 107/232/195 159/233/196 57/234/189
f 192/111/104 56/235/193 159/233/196 107/232/195 196/236/105
f 24/237/56 57/234/189 159/233/196 56/235/193
f 196/112/105 107/238/195 197/113/106
f 26/45/41 63/139/132 160/239/197 65/84/78
f 187/103/96 62/136/129 160/239/197 63/139/132 189/104/97
f 25/87/81 65/84/78 160/239/197 62/136/129
f 27/93/87 109/131/124 161/240/198 108/137/130
f 183/107/100 198/106/99 161/240/198 109/131/124
f 188/105/98 108/137/130 161/240/198 198/106/99
f 21/125/118 104/122/115 195/96/89 194/121/114
f 21/125/118 194/121/114 193/120/113 158/230/194 53/205/178
f 25/87/81 62/136/129 186/102/95 181/101/94
f 25/87/81 181/101/94 180/100/93 106/241/121
f 19/65/59 58/68/62 176/115/108 175/114/107
f 19/65/59 175/114/107 197/113/106 107/238/195
f 20/40/36 101/79/73 170/78/72 171/80/74 99/72/66
f 11/183/162 103/204/177 191/118/111 165/117/110
f 17/38/34 164/116/109 174/83/77 52/82/76
f 11/183/162 165/117/110 163/55/49 119/57/51 45/184/163
f 17/38/34 45/184/163 119/57/51 162/56/50 164/116/109
