# Blender 4.5.3 LTS
# www.blender.org
mtllib strawberry.mtl
o strawberry.002
v 0.006814 0.084645 0.010126
v 0.026406 0.040650 0.005858
v -0.016130 0.085880 0.013632
v -0.033239 0.070704 0.023726
v -0.044412 0.051233 0.023283
v -0.040907 0.031510 0.037370
v -0.012242 0.011452 0.005276
v 0.017253 0.052752 0.029721
v -0.015260 0.065269 0.043583
v -0.027896 0.049815 0.052207
v -0.030997 0.033496 0.054566
v -0.043518 0.031320 0.006026
v 0.008369 0.017565 0.006301
v 0.001135 0.056631 0.045387
v -0.032574 0.017684 0.025333
v 0.011212 0.028334 0.034686
v 0.000495 0.034495 0.052866
v -0.013380 0.039246 0.059843
v -0.022535 0.020184 0.052304
v -0.017264 0.012035 0.036820
v -0.003872 0.016740 0.041036
v -0.039847 0.061827 0.023869
v -0.047643 0.050158 0.001498
v -0.030092 0.017533 0.005196
v -0.014890 0.077309 0.028985
v -0.038204 0.041662 0.042982
v 0.010211 0.021818 0.022976
v 0.018691 0.032950 0.022075
v 0.023469 0.046795 0.018635
v -0.024504 0.068491 0.037194
v -0.022366 0.056468 0.050923
v -0.038587 0.024646 0.032842
v -0.005530 0.048011 0.054562
v -0.007192 0.012210 0.025393
v 0.015186 0.038913 0.034601
v 0.009469 0.043175 0.044062
v -0.006378 0.036364 0.057907
v -0.022321 0.033826 0.060056
v -0.020614 0.043978 0.058817
v -0.015355 0.010768 0.025696
v -0.011249 0.012980 0.039917
v -0.012166 0.017807 0.049523
v -0.001887 0.024551 0.049826
v -0.010440 0.026183 0.055242
v -0.033718 0.024902 0.046213
v -0.046273 0.041462 0.014763
v -0.024528 0.079273 0.020386
v -0.004641 0.075625 0.029397
v -0.040744 0.070625 0.001902
v -0.033992 0.079576 0.003845
v -0.005803 0.086709 0.013408
v 0.014329 0.069099 0.020744
v 0.018285 0.027212 0.006777
v 0.024393 0.063394 0.010007
v 0.004203 0.069655 0.031191
v -0.036243 0.050960 0.041314
v -0.043810 0.040490 0.031991
v -0.006300 0.061539 0.045280
v -0.031152 0.060017 0.041047
v -0.029333 0.040726 0.055267
v -0.036977 0.032422 0.047121
v -0.043970 0.032287 0.023612
v -0.039263 0.023875 0.015878
v -0.001739 0.012678 0.006240
v 0.009299 0.056112 0.038747
v -0.013984 0.051747 0.054643
v -0.024160 0.013341 0.032845
v -0.023307 0.012916 0.015819
v 0.001743 0.015556 0.025106
v 0.006724 0.031214 0.045429
v 0.001989 0.045807 0.051008
v -0.017240 0.028531 0.058712
v -0.029619 0.018031 0.040742
v -0.027557 0.026287 0.055693
v -0.019745 0.014335 0.044812
v 0.004253 0.021812 0.039491
v -0.007964 0.091644 0.002972
v -0.027936 0.082538 0.009095
v 0.020067 0.071243 0.010351
v -0.007779 0.080308 0.024446
v -0.035356 0.021418 0.005449
v 0.015889 0.026686 0.017424
v -0.021484 0.075179 0.029979
v -0.024526 0.014373 0.005142
v -0.041484 0.026779 0.024553
v -0.018821 0.050451 0.055926
v -0.021239 0.011830 0.024839
v -0.002625 0.012902 0.019416
v 0.010647 0.037700 0.042253
v -0.023660 0.038863 0.059605
v -0.032999 0.027171 0.050743
v -0.034448 0.022397 0.040491
v 0.003232 0.025628 0.046232
v -0.011362 0.029926 0.058016
v -0.014245 0.014508 0.046057
v -0.042652 0.064847 0.008858
v -0.047268 0.043649 0.004729
v 0.026740 0.055539 0.009368
v 0.009638 0.065550 0.030371
v -0.002246 0.069726 0.035338
v -0.036134 0.057853 0.036315
v -0.034977 0.044159 0.047122
v -0.040345 0.038634 0.040990
v -0.045366 0.038656 0.023561
v -0.008752 0.053534 0.052488
v -0.026236 0.061773 0.044109
v 0.005381 0.018978 0.029842
v 0.019618 0.039308 0.025963
v -0.024899 0.014764 0.040330
v 0.007332 0.048260 0.045395
v -0.002927 0.043247 0.055447
v -0.022276 0.028625 0.059017
v -0.010776 0.011509 0.030676
v -0.008353 0.022625 0.052207
v -0.035510 0.078587 0.001344
v -0.040572 0.071154 0.001344
v -0.033758 0.080503 0.001344
v -0.040840 0.070575 0.001344
v 0.011317 0.086747 0.001344
v 0.019506 0.079341 0.001344
v -0.000658 0.090459 0.001344
v 0.006037 0.089226 0.001344
v -0.010816 0.091988 0.001344
v -0.007069 0.092128 0.001344
v -0.015362 0.091393 0.001344
v -0.024751 0.087419 0.001344
v -0.025008 0.087302 0.001344
v 0.026608 0.067058 0.001344
v 0.020310 0.078540 0.001344
v -0.042789 0.031257 0.001344
v -0.044831 0.035053 0.001344
v -0.040060 0.028036 0.001344
v -0.035466 0.022396 0.001344
v -0.029398 0.017915 0.001344
v 0.010940 0.019492 0.001344
v 0.007978 0.017499 0.001344
v 0.026400 0.039064 0.001344
v 0.019587 0.027775 0.001344
v -0.023057 0.014487 0.001344
v -0.014825 0.012541 0.001344
v -0.010478 0.012159 0.001344
v -0.012174 0.012349 0.001344
v -0.045786 0.060799 0.001344
v -0.045642 0.061196 0.001344
v 0.028104 0.043331 0.001344
v -0.047642 0.050297 0.001344
v -0.047638 0.050135 0.001344
v -0.046930 0.042055 0.001344
v 0.028953 0.051584 0.001344
v 0.029431 0.056415 0.001344
v -0.000960 0.013198 0.001344
vn -0.5292 0.5945 -0.6054
vn -0.6415 0.4802 -0.5983
vn -0.6943 0.6683 0.2670
vn -0.6784 0.3317 -0.6555
vn -0.8444 0.4979 0.1976
vn -0.6802 0.4214 -0.5997
vn 0.1285 0.8319 -0.5399
vn -0.0737 0.8391 -0.5390
vn 0.0534 0.9267 0.3720
vn -0.6605 0.6457 0.3830
vn -0.4357 0.7936 0.4248
vn -0.5169 0.7865 0.3380
vn -0.4000 0.7317 -0.5520
vn 0.7788 0.3274 -0.5350
vn 0.6749 0.5534 -0.4882
vn 0.7283 0.5060 0.4622
vn 0.8493 0.3229 0.4176
vn 0.8335 0.2267 0.5039
vn 0.6759 0.5303 0.5118
vn -0.0083 0.7203 0.6936
vn 0.2423 0.7586 0.6049
vn 0.1165 0.8287 0.5474
vn -0.0773 0.8150 0.5744
vn 0.4247 0.7675 0.4801
vn 0.1147 0.8769 0.4667
vn -0.2150 0.8774 0.4290
vn -0.3525 -0.5516 -0.7559
vn -0.5462 -0.8287 -0.1222
vn -0.6751 -0.7272 -0.1241
vn -0.4756 -0.4828 -0.7353
vn -0.5966 -0.8017 0.0368
vn -0.7587 -0.6502 -0.0390
vn 0.5682 -0.8214 0.0503
vn 0.7767 -0.6161 0.1312
vn 0.7755 -0.6065 0.1753
vn 0.7043 -0.6844 0.1887
vn 0.9240 -0.3096 0.2245
vn 0.8618 -0.4205 0.2835
vn 0.8078 -0.4648 0.3626
vn -0.3777 0.7298 0.5699
vn -0.3310 0.7795 0.5318
vn -0.3819 -0.9163 -0.1210
vn -0.3505 -0.9347 -0.0589
vn -0.2279 -0.6448 -0.7296
vn 0.6173 -0.4718 -0.6296
vn 0.4842 -0.5620 -0.6706
vn 0.3526 -0.6193 -0.7015
vn 0.2150 -0.6881 -0.6930
vn 0.0230 -0.6768 -0.7358
vn -0.0575 -0.6236 -0.7796
vn -0.1223 -0.6606 -0.7407
vn -0.5110 -0.4202 -0.7499
vn -0.5650 -0.3905 -0.7268
vn -0.6815 -0.2469 -0.6889
vn -0.7121 -0.1581 -0.6841
vn -0.6965 -0.0411 -0.7164
vn -0.7537 0.0918 -0.6508
vn -0.7534 0.2300 -0.6161
vn -0.7211 0.3090 -0.6200
vn -0.3341 0.7582 -0.5599
vn -0.1994 0.8314 -0.5187
vn 0.2022 0.8249 -0.5279
vn 0.2497 0.8257 -0.5057
vn 0.4974 0.7116 -0.4962
vn 0.6045 0.6186 -0.5019
vn 0.8341 0.0768 -0.5463
vn 0.7983 -0.0747 -0.5976
vn 0.7988 -0.1552 -0.5812
vn 0.6884 -0.3532 -0.6335
vn -0.9075 -0.2948 0.2993
vn -0.9400 -0.3289 0.0907
vn -0.8363 -0.5422 0.0812
vn -0.7927 -0.5820 0.1812
vn -0.8841 -0.4637 -0.0585
vn 0.1519 0.1239 0.9806
vn 0.1117 0.5180 0.8481
vn -0.0958 0.4958 0.8632
vn -0.1663 0.3421 0.9248
vn -0.2640 0.6023 0.7533
vn -0.5605 0.4256 0.7105
vn -0.3055 -0.9522 0.0044
vn -0.3873 -0.9168 0.0969
vn -0.0371 -0.9950 -0.0925
vn -0.0292 -0.9993 0.0227
vn -0.1013 -0.9807 0.1670
vn 0.4576 -0.8088 0.3693
vn 0.2677 -0.9595 0.0878
vn 0.3002 -0.9516 0.0664
vn 0.4819 -0.8620 0.1572
vn 0.2799 -0.9599 -0.0156
vn 0.6186 -0.1829 0.7641
vn 0.7568 -0.2988 0.5813
vn 0.8258 -0.1350 0.5476
vn 0.7793 0.0629 0.6235
vn 0.8750 -0.1414 0.4631
vn -0.6862 -0.0393 0.7263
vn -0.2277 -0.0631 0.9717
vn -0.3462 0.1545 0.9254
vn -0.6430 0.2066 0.7374
vn -0.2318 -0.7227 0.6512
vn -0.4843 -0.4725 0.7363
vn -0.7120 -0.4435 0.5445
vn -0.7090 -0.5775 0.4048
vn -0.8470 -0.1280 0.5160
vn -0.5727 -0.7653 0.2938
vn -0.7131 -0.6358 0.2953
vn 0.6482 -0.6622 0.3760
vn 0.6463 -0.5131 0.5649
vn 0.5140 -0.5330 0.6721
vn 0.4182 -0.0884 0.9041
vn 0.2920 -0.3763 0.8793
vn 0.2963 -0.5157 0.8039
vn 0.1029 -0.4232 0.9002
vn 0.2203 -0.7282 0.6491
vn 0.1243 -0.8710 0.4753
vn 0.2418 -0.9318 0.2707
vn -0.2093 -0.8857 0.4145
vn -0.8561 0.4666 0.2223
vn -0.8233 0.4647 0.3258
vn -0.9975 0.0440 0.0546
vn -0.9402 0.2255 0.2551
vn -0.9917 -0.1191 0.0481
vn -0.9922 -0.0976 0.0780
vn 0.9317 0.0889 0.3523
vn 0.9257 -0.0331 0.3767
vn 0.6390 0.5298 0.5577
vn 0.6753 0.4155 0.6093
vn 0.4764 0.6521 0.5897
vn 0.4801 0.5187 0.7074
vn 0.3102 0.6952 0.6485
vn 0.2663 0.6410 0.7198
vn -0.7777 0.4435 0.4455
vn -0.6368 0.5465 0.5439
vn -0.7993 0.3375 0.4972
vn -0.8386 0.2185 0.4990
vn -0.7888 0.2411 0.5654
vn -0.8895 0.0962 0.4466
vn -0.9514 0.0554 0.3030
vn -0.9880 -0.0967 0.1204
vn 0.2320 0.5468 0.8045
vn 0.3398 0.4089 0.8470
vn -0.4146 0.6540 0.6328
vn 0.6338 -0.7367 0.2358
vn 0.8994 -0.1708 0.4023
vn -0.4267 -0.8669 0.2576
vn 0.6875 0.2677 0.6750
vn 0.6040 0.2405 0.7598
vn 0.4875 0.2008 0.8497
vn -0.1943 -0.3571 0.9137
vn 0.2339 -0.9648 0.1202
vn 0.3408 -0.5756 0.7433
vt 0.512692 0.340827
vt 0.508130 0.347894
vt 0.504891 0.337803
vt 0.500412 0.381618
vt 0.499409 0.380376
vt 0.500864 0.379443
vt 0.525700 0.221978
vt 0.524299 0.236968
vt 0.521550 0.223979
vt 0.461404 0.326079
vt 0.475928 0.280977
vt 0.497837 0.303713
vt 0.517028 0.296486
vt 0.535056 0.088209
vt 0.528032 0.102314
vt 0.505412 0.082868
vt 0.505169 0.057912
vt 0.454991 0.047784
vt 0.481919 0.094799
vt 0.393243 0.259674
vt 0.460610 0.189535
vt 0.473079 0.206879
vt 0.459305 0.234709
vt 0.507943 0.155166
vt 0.498776 0.206845
vt 0.494773 0.248506
vt 0.463847 0.635282
vt 0.455713 0.632311
vt 0.456756 0.602777
vt 0.465443 0.602013
vt 0.410412 0.617695
vt 0.436114 0.574521
vt 0.468957 0.825581
vt 0.479818 0.881156
vt 0.459256 0.893058
vt 0.440959 0.874509
vt 0.491630 0.948333
vt 0.454872 0.925818
vt 0.420724 0.942394
vt 0.435195 0.278076
vt 0.456032 0.261673
vt 0.455101 0.663285
vt 0.430115 0.675239
vt 0.462963 0.669960
vt 0.490414 0.876875
vt 0.480670 0.830377
vt 0.478438 0.816995
vt 0.469685 0.775559
vt 0.440736 0.744850
vt 0.439089 0.738886
vt 0.443561 0.723845
vt 0.468378 0.569106
vt 0.469758 0.551148
vt 0.471867 0.533703
vt 0.476556 0.501449
vt 0.482029 0.467466
vt 0.482145 0.466839
vt 0.491097 0.424496
vt 0.491565 0.422654
vt 0.517183 0.295355
vt 0.522814 0.255530
vt 0.527289 0.195391
vt 0.530763 0.167677
vt 0.529965 0.146630
vt 0.528151 0.106665
vt 0.523830 0.037400
vt 0.519805 0.029305
vt 0.507597 0.791881
vt 0.499046 0.932976
vt 0.349404 0.501458
vt 0.419860 0.513709
vt 0.416624 0.544840
vt 0.391497 0.556415
vt 0.460759 0.544307
vt 0.331627 0.239471
vt 0.366197 0.235288
vt 0.346153 0.267168
vt 0.311659 0.287419
vt 0.358708 0.280369
vt 0.303671 0.328559
vt 0.408734 0.696470
vt 0.386276 0.682322
vt 0.425750 0.743796
vt 0.406644 0.741209
vt 0.367227 0.748728
vt 0.386275 0.682322
vt 0.345806 0.830348
vt 0.408093 0.788657
vt 0.428822 0.794434
vt 0.419337 0.825698
vt 0.458411 0.778435
vt 0.290317 0.850798
vt 0.346424 0.883916
vt 0.359410 0.913511
vt 0.330322 0.908359
vt 0.413394 0.958880
vt 0.406236 0.989598
vt 0.289126 0.523313
vt 0.235557 0.587047
vt 0.231083 0.546373
vt 0.260313 0.495762
vt 0.182053 0.626080
vt 0.206272 0.544109
vt 0.240313 0.445037
vt 0.309514 0.698431
vt 0.290946 0.599387
vt 0.322380 0.564812
vt 0.343080 0.576951
vt 0.328183 0.515173
vt 0.362153 0.633744
vt 0.366400 0.585005
vt 0.384075 0.868879
vt 0.344284 0.861027
vt 0.307647 0.831709
vt 0.201244 0.717081
vt 0.177339 0.679696
vt 0.219055 0.676514
vt 0.246334 0.698395
vt 0.237712 0.652333
vt 0.237712 0.652334
vt 0.288835 0.750165
vt 0.298839 0.710871
vt 0.321198 0.722448
vt 0.327130 0.751568
vt 0.339513 0.704510
vt 0.481809 0.391934
vt 0.451827 0.373010
vt 0.481750 0.467138
vt 0.438755 0.428682
vt 0.471400 0.489336
vt 0.450443 0.483477
vt 0.502732 0.035829
vt 0.475921 0.026596
vt 0.460676 0.102932
vt 0.438039 0.078168
vt 0.459729 0.134115
vt 0.423473 0.114070
vt 0.448584 0.165725
vt 0.417496 0.178258
vt 0.423772 0.359974
vt 0.417629 0.328889
vt 0.399644 0.388816
vt 0.365630 0.352548
vt 0.367409 0.461607
vt 0.365730 0.430137
vt 0.312604 0.497612
vt 0.329571 0.436266
vt 0.331841 0.507592
vt 0.368582 0.478426
vt 0.402171 0.468385
vt 0.427015 0.483025
vt 0.385806 0.196601
vt 0.371560 0.180175
vt 0.415809 0.295533
vt 0.392629 0.286694
vt 0.416590 0.857683
vt 0.449019 0.944342
vt 0.428340 0.949630
vt 0.463497 0.956266
vt 0.436126 0.971098
vt 0.428340 0.949629
vt 0.361546 0.673756
vt 0.407604 0.011320
vt 0.415539 0.062695
vt 0.407798 0.163340
vt 0.399961 0.187975
vt 0.407895 0.239350
vt 0.392318 0.364630
vt 0.369564 0.181310
vt 0.377148 0.242416
vt 0.315654 0.248550
vt 0.353986 0.306590
vt 0.253100 0.618197
vt 0.395296 0.792076
vt 0.408303 0.769592
vt 0.364815 0.823017
vt 0.408093 0.788656
vt 0.368744 0.809736
vt 0.273920 0.724814
vt 0.258113 0.753064
vt 0.321311 0.730747
vt 0.333779 0.789916
vt 0.499236 0.010926
vt 0.505615 0.847165
vt 0.508604 0.641428
vt 0.500314 0.948735
s 1
usemtl StrawberryMaterial
f 117/1/1 115/2/2 50/3/3
f 118/4/4 49/5/5 116/6/6
f 124/7/7 123/8/8 77/9/9
f 4/10/10 47/11/11 78/12/12 50/3/3
f 117/1/1 50/3/3 78/12/12 127/13/13
f 128/14/14 129/15/15 79/16/16 54/17/17
f 8/18/18 54/17/17 79/16/16 52/19/19
f 9/20/20 48/21/21 80/22/22 25/23/23
f 1/24/24 51/25/25 80/22/22 48/21/21
f 3/26/26 25/23/23 80/22/22 51/25/25
f 134/27/27 24/28/28 81/29/29 133/30/30
f 15/31/31 63/32/32 81/29/29 24/28/28
f 13/33/33 53/34/34 82/35/35 27/36/36
f 2/37/37 28/38/38 82/35/35 53/34/34
f 16/39/39 27/36/36 82/35/35 28/38/38
f 4/10/10 30/40/40 83/41/41 47/11/11
f 9/20/20 25/23/23 83/41/41 30/40/40
f 3/26/26 47/11/11 83/41/41 25/23/23
f 15/31/31 24/28/28 84/42/42 68/43/43
f 134/27/27 139/44/44 84/42/42 24/28/28
f 138/45/45 135/46/46 136/47/47 151/48/48 141/49/49 142/50/50 140/51/51 139/44/44 134/27/27 133/30/30 132/52/52 130/53/53 131/54/54 148/55/55 147/56/56 146/57/57 143/58/58 144/59/59 118/4/4 116/6/6 115/2/2 117/1/1 127/13/13 126/60/60 125/61/61 123/8/8 124/7/7 121/62/62 122/63/63 119/64/64 120/65/65 129/15/15 128/14/14 150/66/66 149/67/67 145/68/68 137/69/69
f 6/70/70 62/71/71 85/72/72 32/73/73
f 12/74/74 63/32/32 85/72/72 62/71/71
f 15/31/31 32/73/73 85/72/72 63/32/32
f 18/75/75 66/76/76 86/77/77 39/78/78
f 9/20/20 31/79/79 86/77/77 66/76/76
f 10/80/80 39/78/78 86/77/77 31/79/79
f 15/31/31 68/43/43 87/81/81 67/82/82
f 7/83/83 40/84/84 87/81/81 68/43/43
f 20/85/85 67/86/82 87/81/81 40/84/84
f 21/87/86 34/88/87 88/89/88 69/90/89
f 7/83/83 64/91/90 88/89/88 34/88/87
f 13/33/33 69/90/89 88/89/88 64/91/90
f 17/92/91 70/93/92 89/94/93 36/95/94
f 16/39/39 35/96/95 89/94/93 70/93/92
f 8/97/18 36/95/94 89/94/93 35/96/95
f 11/98/96 38/99/97 90/100/98 60/101/99
f 18/102/75 39/103/78 90/100/98 38/99/97
f 10/104/80 60/101/99 90/100/98 39/103/78
f 19/105/100 74/106/101 91/107/102 45/108/103
f 11/98/96 61/109/104 91/107/102 74/106/101
f 6/70/70 45/108/103 91/107/102 61/109/104
f 15/31/31 73/110/105 92/111/106 32/73/73
f 19/105/100 45/108/103 92/111/106 73/110/105
f 6/70/70 32/73/73 92/111/106 45/108/103
f 21/87/86 76/112/107 93/113/108 43/114/109
f 16/39/39 70/93/92 93/113/108 76/112/107
f 17/92/91 43/114/109 93/113/108 70/93/92
f 17/115/91 37/116/110 94/117/111 44/118/112
f 18/102/75 72/119/113 94/117/111 37/116/110
f 19/105/100 44/118/112 94/117/111 72/120/113
f 21/121/86 42/122/114 95/123/115 41/124/116
f 19/105/100 75/125/117 95/123/115 42/122/114
f 20/85/85 41/124/116 95/123/115 75/125/117
f 4/10/10 49/5/5 96/126/118 22/127/119
f 118/4/4 144/59/59 96/126/118 49/5/5
f 147/56/56 23/128/120 146/57/57
f 5/129/121 23/128/120 97/130/122 46/131/123
f 147/56/56 148/55/55 97/130/122 23/128/120
f 128/14/14 54/17/17 98/132/124 150/66/66
f 8/18/18 29/133/125 98/132/124 54/17/17
f 8/18/18 52/19/19 99/134/126 65/135/127
f 1/24/24 55/136/128 99/134/126 52/19/19
f 14/137/129 65/135/127 99/134/126 55/136/128
f 1/24/24 48/21/21 100/138/130 55/136/128
f 9/20/20 58/139/131 100/138/130 48/21/21
f 14/137/129 55/136/128 100/138/130 58/139/131
f 4/10/10 22/127/119 101/140/132 59/141/133
f 5/129/121 56/142/134 101/140/132 22/127/119
f 10/143/80 59/141/133 101/140/132 56/142/134
f 5/129/121 26/144/135 102/145/136 56/142/134
f 11/146/96 60/147/99 102/145/136 26/144/135
f 10/143/80 56/142/134 102/145/136 60/147/99
f 6/70/70 61/148/104 103/149/137 57/150/138
f 11/146/96 26/144/135 103/149/137 61/148/104
f 5/129/121 57/150/138 103/149/137 26/144/135
f 6/70/70 57/150/138 104/151/139 62/71/71
f 5/129/121 46/131/123 104/151/139 57/150/138
f 12/74/74 62/71/71 104/151/139 46/131/123
f 9/20/20 66/76/76 105/152/140 58/139/131
f 18/75/75 33/153/141 105/152/140 66/76/76
f 14/137/129 58/139/131 105/152/140 33/153/141
f 9/20/20 30/40/40 106/154/142 31/155/79
f 4/10/10 59/141/133 106/154/142 30/40/40
f 10/143/80 31/155/79 106/154/142 59/141/133
f 13/33/33 27/36/36 107/156/143 69/90/89
f 16/39/39 76/112/107 107/156/143 27/36/36
f 21/87/86 69/90/89 107/156/143 76/112/107
f 16/39/39 28/38/38 108/157/144 35/158/95
f 2/37/37 29/159/125 108/157/144 28/38/38
f 8/160/18 35/161/95 108/157/144 29/159/125
f 20/85/85 75/125/117 109/162/145 67/86/82
f 19/105/100 73/110/105 109/162/145 75/125/117
f 15/31/31 67/86/82 109/162/145 73/110/105
f 8/163/18 65/164/127 110/165/146 36/166/94
f 14/137/129 71/167/147 110/165/146 65/164/127
f 17/168/91 36/166/94 110/165/146 71/167/147
f 14/137/129 33/169/141 111/170/148 71/167/147
f 18/171/75 37/172/110 111/170/148 33/169/141
f 17/168/91 71/167/147 111/170/148 37/172/110
f 18/102/75 38/99/97 112/173/149 72/119/113
f 11/98/96 74/106/101 112/173/149 38/99/97
f 19/105/100 72/119/113 112/173/149 74/106/101
f 7/83/83 34/88/87 113/174/150 40/175/84
f 21/87/86 41/176/116 113/174/150 34/177/87
f 20/178/85 40/175/84 113/174/150 41/176/116
f 17/115/91 44/118/112 114/179/151 43/180/109
f 19/105/100 42/181/114 114/179/151 44/118/112
f 21/182/86 43/180/109 114/179/151 42/181/114
f 2/183/37 149/67/67 150/66/66 98/132/124 29/133/125
f 2/184/37 145/68/68 149/185/67
f 5/129/121 22/127/119 96/126/118 144/59/59 143/58/58
f 5/129/121 143/58/58 146/57/57 23/128/120
f 7/83/83 142/50/50 141/49/49
f 7/83/83 141/49/49 151/48/48 64/91/90
f 7/83/83 140/51/51 142/50/50
f 7/83/83 68/43/43 84/42/42 139/44/44 140/51/51
f 2/37/37 53/34/34 138/45/45 137/69/69
f 2/37/37 137/69/69 145/186/68
f 13/33/33 64/91/90 151/48/48 136/47/47
f 13/33/33 136/47/47 135/46/46
f 13/33/33 135/46/46 138/45/45 53/34/34
f 12/74/74 132/52/52 133/30/30 81/29/29 63/32/32
f 12/74/74 46/131/123 97/130/122 148/55/55 131/54/54
f 12/74/74 131/54/54 130/53/53
f 12/74/74 130/53/53 132/52/52
f 3/26/26 126/60/60 127/13/13 78/12/12 47/11/11
f 3/26/26 125/61/61 126/60/60
f 3/26/26 51/25/25 77/9/9 123/8/8 125/61/61
f 1/24/24 122/63/63 121/62/62
f 1/24/24 121/62/62 124/7/7 77/9/9 51/25/25
f 1/24/24 52/19/19 79/16/16 129/15/15 120/65/65
f 1/24/24 120/65/65 119/64/64
f 1/24/24 119/64/64 122/63/63
f 4/10/10 50/3/3 115/2/2 116/6/6 49/5/5
