# Blender 4.5.3 LTS
# www.blender.org
mtllib apple.mtl
o Apple
v -0.025016 0.020288 -0.041924
v -0.007925 0.011320 -0.010272
v -0.022710 0.011156 -0.016425
v 0.005722 0.025318 0.012214
v 0.017544 0.040043 0.009828
v 0.018627 0.093617 -0.032405
v 0.002486 0.044261 0.038141
v 0.011015 0.057774 0.037437
v -0.004705 0.076667 -0.057431
v -0.026991 0.061374 -0.063844
v 0.027687 0.064536 -0.005766
v 0.026007 0.062985 0.011057
v 0.026512 0.083826 0.008854
v 0.007117 0.091291 0.041236
v -0.026939 0.091280 0.056191
v -0.025862 0.098329 -0.056270
v 0.020660 0.100137 0.001777
v -0.028003 0.100642 0.050557
v -0.009241 0.112898 0.023109
v -0.025947 0.112530 0.019926
v 0.003469 0.105301 0.031468
v -0.011407 0.064930 0.054530
v -0.012233 0.040683 -0.051424
v -0.016200 0.044178 0.049122
v -0.026423 0.010571 -0.028102
v 0.002543 0.030619 -0.031620
v -0.024326 0.012380 0.022661
v 0.004961 0.062425 -0.051044
v 0.024532 0.060536 -0.018080
v 0.000244 0.100049 -0.046680
v -0.010905 0.112426 -0.032256
v -0.029009 0.039554 -0.055083
v -0.023174 0.012816 -0.001730
v 0.013757 0.034484 -0.013761
v -0.026848 0.010535 0.012369
v 0.024392 0.078157 0.022524
v 0.010197 0.077994 0.043215
v -0.027684 0.060527 0.057436
v 0.020589 0.097397 0.015712
v -0.004480 0.094293 0.047481
v 0.006397 0.106416 -0.032115
v -0.006830 0.113375 -0.006742
v -0.031630 0.015589 -0.036606
v -0.000294 0.016195 -0.014760
v -0.012874 0.013219 0.017757
v 0.017972 0.070767 -0.038870
v 0.019578 0.058901 0.025312
v 0.018448 0.074795 0.033770
v -0.022398 0.087996 -0.061552
v -0.012113 0.063943 -0.060803
v 0.027374 0.082610 -0.018222
v -0.003377 0.083978 0.050466
v -0.030691 0.079098 0.060338
v -0.008847 0.109321 -0.039213
v -0.027116 0.107183 -0.047621
v -0.008781 0.105278 0.040046
v 0.000646 0.015633 -0.004763
v 0.001995 0.039290 -0.039761
v -0.014185 0.025545 0.034604
v 0.013607 0.041759 0.021903
v 0.014176 0.084126 -0.043719
v 0.024551 0.075572 -0.028767
v 0.018485 0.089086 0.029348
v 0.000964 0.060281 0.046718
v 0.006883 0.110828 -0.015850
v -0.031585 0.108540 -0.006177
v -0.016173 0.019321 -0.037442
v -0.003169 0.027978 0.028842
v 0.018467 0.059546 -0.032043
v 0.025223 0.092600 -0.012558
v 0.008463 0.108712 0.014987
v 0.022723 0.050328 -0.004837
v -0.022568 0.075362 -0.064028
v 0.002441 0.091223 -0.050266
v 0.016716 0.104349 -0.013129
v -0.030911 0.108877 0.000213
v -0.031715 0.011019 -0.025423
v -0.031735 0.011457 -0.018853
v -0.031804 0.015833 -0.005886
v -0.031814 0.016113 -0.003129
v -0.031966 0.022269 0.036167
v -0.031975 0.023131 0.037150
v -0.032121 0.037611 0.048017
v -0.032148 0.040307 0.050054
v -0.031830 0.011815 0.016606
v -0.031808 0.011565 0.008815
v -0.031799 0.012948 0.001215
v -0.031891 0.042609 -0.056293
v -0.031860 0.038208 -0.054246
v -0.032215 0.047691 0.053013
v -0.032451 0.108181 -0.045203
v -0.032426 0.106237 -0.048868
v -0.032323 0.096460 -0.057849
v -0.032356 0.099680 -0.055325
v -0.032679 0.109030 0.040099
v -0.032659 0.104690 0.046031
v -0.032645 0.112504 0.016237
v -0.032605 0.110295 0.007602
v -0.032661 0.112496 0.022461
v -0.032647 0.112492 0.016712
v -0.031774 0.024554 -0.044992
v -0.031848 0.012684 0.020930
v -0.032017 0.060517 -0.063473
v -0.032052 0.065108 -0.064379
v -0.032340 0.061566 0.057818
v -0.032369 0.064917 0.058375
v -0.032175 0.079950 -0.063503
v -0.032121 0.073763 -0.064711
v -0.032261 0.089872 -0.061406
v -0.032507 0.081651 0.059415
v -0.032590 0.093134 0.055432
v -0.032485 0.078627 0.060383
v -0.032631 0.099405 0.051614
v -0.032557 0.108540 -0.005538
v -0.032549 0.107417 -0.004945
v -0.032542 0.110787 -0.018450
v -0.032530 0.112561 -0.028301
v -0.032511 0.112119 -0.034399
v -0.032533 0.112589 -0.027540
v -0.032556 0.107198 -0.001523
v -0.032683 0.110582 0.036618
v -0.032673 0.112616 0.026483
v -0.032572 0.108796 -0.000335
vn -0.6500 -0.6191 -0.4408
vn 0.1304 -0.6783 -0.7231
vn 0.0548 -0.9567 -0.2859
vn 0.3803 -0.4567 -0.8042
vn 0.6348 -0.4632 -0.6184
vn 0.3884 -0.7137 -0.5829
vn 0.2633 -0.9608 -0.0867
vn 0.6698 -0.5519 -0.4968
vn 0.6019 -0.7500 -0.2742
vn 0.8392 -0.5033 -0.2060
vn -0.2042 -0.9715 -0.1203
vn -0.0813 -0.9895 0.1196
vn -0.0417 -0.9986 0.0323
vn 0.3608 -0.8718 0.3313
vn 0.0807 -0.9017 0.4248
vn -0.6347 -0.4694 0.6138
vn 0.3342 -0.6503 0.6823
vn 0.3016 -0.4465 0.8424
vn -0.6133 -0.4025 0.6796
vn -0.7297 -0.6761 0.1017
vn -0.7244 -0.6846 -0.0813
vn -0.7057 -0.6628 -0.2504
vn 0.8221 -0.3507 -0.4484
vn 0.9205 -0.0279 -0.3897
vn 0.7975 -0.1437 -0.5859
vn 0.7110 0.1865 -0.6780
vn 0.6156 -0.2221 -0.7561
vn 0.5567 -0.6227 0.5499
vn 0.5794 -0.4594 0.6732
vn 0.7088 -0.2953 0.6407
vn 0.6483 0.0527 0.7596
vn 0.5313 -0.2442 0.8112
vn 0.9387 0.0570 0.3399
vn 0.8569 -0.2842 0.4300
vn 0.9606 -0.1995 0.1935
vn 0.8214 -0.0325 0.5695
vn 0.8596 -0.4807 0.1733
vn 0.7676 -0.4722 0.4334
vn 0.9171 -0.3918 -0.0730
vn 0.1289 -0.2464 0.9605
vn -0.6543 -0.2830 0.7013
vn 0.3543 -0.1745 -0.9187
vn 0.1156 -0.2331 -0.9656
vn 0.1873 0.0828 -0.9788
vn 0.1969 0.3312 -0.9228
vn 0.4513 0.0995 -0.8868
vn 0.4308 0.5970 -0.6767
vn 0.4988 0.3294 -0.8017
vn 0.0899 -0.4591 -0.8838
vn 0.9745 0.1331 -0.1804
vn 0.7819 0.4458 -0.4358
vn 0.9083 0.4073 -0.0955
vn 0.9857 -0.1659 -0.0312
vn 0.9016 -0.3447 -0.2611
vn 0.9757 0.1768 0.1295
vn 0.8110 0.5256 0.2569
vn 0.7886 0.6112 0.0675
vn 0.3987 0.4629 0.7917
vn 0.4245 0.1676 0.8898
vn 0.6062 0.4093 0.6819
vn 0.3587 -0.1421 0.9226
vn 0.1625 0.3829 0.9094
vn 0.2364 0.8507 -0.4695
vn 0.1436 0.9647 -0.2206
vn 0.3920 0.9143 -0.1020
vn 0.5029 0.7787 -0.3752
vn 0.0777 0.8289 -0.5540
vn 0.1403 0.5982 -0.7889
vn -0.6699 0.3903 -0.6316
vn -0.6849 0.4821 -0.5464
vn 0.4824 0.8575 0.1786
vn 0.1570 0.9676 0.1979
vn 0.4902 0.7385 0.4630
vn 0.6872 0.7173 -0.1149
vn 0.0442 0.9990 0.0045
vn -0.1654 0.9679 -0.1893
vn -0.0299 0.9979 -0.0577
vn -0.6618 0.5920 0.4600
vn 0.1194 0.6594 0.7422
vn 0.2790 0.7670 0.5778
vn -0.6364 0.6687 0.3845
vn -0.6501 0.7502 -0.1208
vn -0.6905 0.7088 -0.1442
vn -0.7110 0.7030 -0.0151
vn -0.7119 0.7022 0.0088
vn 0.6295 -0.7753 0.0515
vn 0.6935 -0.6593 0.2904
vn -0.7830 -0.6075 -0.1334
vn -0.6923 -0.2169 -0.6883
vn -0.7058 -0.2759 -0.6524
vn 0.7930 0.3607 0.4910
vn -0.6788 -0.1775 0.7126
vn -0.6845 -0.1149 0.7199
vn -0.6562 0.2668 -0.7059
vn -0.6927 0.1354 -0.7084
vn 0.1216 0.1067 0.9868
vn -0.4620 0.6541 0.5989
vn -0.8803 0.4524 0.1425
vn -0.1182 0.9741 0.1928
vn -0.7681 0.6283 0.1233
vn -0.7042 0.7097 0.0190
vn -0.7071 0.7061 -0.0394
vn -0.6739 0.4456 0.5894
vn -0.5777 0.6607 -0.4792
vn -0.6849 0.7255 0.0676
vn -0.6485 0.7162 0.2577
vn -0.8887 0.4475 -0.0997
vn -0.6772 0.7175 -0.1630
vn -0.6764 0.3258 0.6606
vn -0.7154 0.2213 0.6627
vn -0.6558 0.0297 0.7543
vn -0.6590 0.0436 -0.7509
vn -0.6728 -0.0677 -0.7367
vn -0.6954 0.6608 -0.2823
vn -0.6741 0.5771 -0.4610
vn -0.6901 -0.3761 -0.6183
vn -0.6930 -0.4337 -0.5759
vn -0.7049 -0.7060 -0.0681
vn -0.7050 -0.6988 0.1210
vn -0.7994 -0.5943 0.0882
vn -0.7087 -0.6622 0.2434
vn -0.6328 -0.5959 0.4945
vn -0.6096 -0.5420 0.5785
vt 0.492835 0.191142
vt 0.462235 0.238391
vt 0.456738 0.141527
vt 0.431905 0.352537
vt 0.378321 0.351201
vt 0.421811 0.221988
vt 0.297641 0.132577
vt 0.360032 0.292069
vt 0.310829 0.199650
vt 0.283778 0.311024
vt 0.236203 0.053507
vt 0.382029 0.088004
vt 0.075828 0.087707
vt 0.129007 0.158382
vt 0.058344 0.145574
vt 0.023894 0.336185
vt 0.071857 0.254461
vt 0.051964 0.370861
vt 0.021573 0.352926
vt 1.015155 0.099583
vt 0.980268 0.060886
vt 1.049520 0.075833
vt 0.958811 0.034317
vt 1.053357 0.028408
vt 0.334738 0.464316
vt 0.316822 0.553113
vt 0.346171 0.523645
vt 0.363463 0.596650
vt 0.394871 0.480285
vt 0.123753 0.269577
vt 0.116599 0.371987
vt 0.131610 0.456527
vt 0.123276 0.562089
vt 0.096258 0.469638
vt 0.188594 0.564470
vt 0.170323 0.461778
vt 0.213654 0.484266
vt 0.153858 0.538524
vt 0.213568 0.353848
vt 0.173128 0.353449
vt 0.254741 0.392356
vt 0.018067 0.468168
vt 0.016799 0.395476
vt 0.441866 0.490665
vt 0.481928 0.473585
vt 0.471025 0.550327
vt 0.470503 0.622703
vt 0.422867 0.556089
vt 0.396115 0.690925
vt 0.396209 0.633521
vt 0.485059 0.345457
vt 0.289116 0.584046
vt 0.329817 0.648274
vt 0.277318 0.643010
vt 0.257365 0.497497
vt 0.290779 0.467169
vt 0.223937 0.594264
vt 0.199632 0.665414
vt 0.238011 0.694073
vt 0.085129 0.653321
vt 0.083588 0.591925
vt 0.120814 0.636037
vt 0.063371 0.488692
vt 0.023197 0.634249
vt 0.402386 0.765942
vt 0.396101 0.814271
vt 0.299278 0.777194
vt 0.350554 0.730757
vt 0.478845 0.754919
vt 0.477338 0.687641
vt 0.496243 0.674003
vt 0.496506 0.695226
vt 0.185401 0.749773
vt 0.125976 0.809970
vt 0.129717 0.724413
vt 0.281938 0.720372
vt 0.279994 0.865308
vt 0.134615 0.974439
vt 0.069427 0.888282
vt 0.023613 0.738336
vt 0.022423 0.702546
vt 0.084295 0.730675
vt 0.037143 0.774102
vt 0.961230 0.886838
vt 1.006739 0.885076
vt 0.883089 0.935451
vt 0.985759 0.864601
vt 0.968488 0.875604
vt 0.255936 0.190025
vt 0.192193 0.249588
vt 0.600315 0.017218
vt 0.495269 0.468288
vt 0.493075 0.363225
vt 0.162709 0.621525
vt 0.995866 0.480523
vt 1.004481 0.477874
vt 0.995996 0.499525
vt 0.497984 0.632025
vt 0.493526 0.578252
vt 0.013778 0.576873
vt 0.470676 0.974687
vt 0.532447 0.979496
vt 0.412549 0.974631
vt 0.461981 0.924893
vt 0.494693 0.884955
vt 0.497490 0.883095
vt 1.000952 0.688661
vt 1.012252 0.698564
vt 1.001269 0.730566
vt 1.113254 0.979172
vt 1.034683 0.978168
vt 0.082153 0.838148
vt 0.045889 0.790235
vt 0.902582 0.983269
vt 0.492459 0.804508
vt 0.500174 0.979464
vt 0.398820 0.980999
vt 1.007218 0.643821
vt 0.996083 0.651618
vt 0.999565 0.575191
vt 0.996023 0.588467
vt 0.996243 0.572087
vt 0.493461 0.542782
vt 0.493636 0.494918
vt 0.063973 0.880011
vt 0.500402 0.763651
vt 0.495042 0.745421
vt 0.495057 0.338492
vt 0.489041 0.263069
vt 0.498968 0.124469
vt 0.477319 0.092713
vt 0.470924 0.028245
vt 0.033741 0.138423
vt 0.025727 0.215787
vt 0.024723 0.222409
vt 0.999161 0.405040
vt 1.049026 0.116416
vt 1.008832 0.117894
vt 0.441859 0.022085
s 1
usemtl Material.002
f 43/1/1 1/2/2 25/3/3
f 23/4/4 58/5/5 67/6/6
f 67/6/6 1/2/2 23/4/4
f 25/3/3 1/2/2 67/6/6
f 67/6/6 2/7/7 25/3/3
f 67/6/6 26/8/8 44/9/9
f 34/10/10 44/9/9 26/8/8
f 2/7/7 33/11/11 3/12/12
f 35/13/13 45/14/14 27/15/15
f 35/13/13 2/7/7 45/14/14
f 35/13/13 33/11/11 2/7/7
f 83/16/16 59/17/17 24/18/18 84/19/19
f 85/20/20 86/21/21 35/22/13
f 87/23/22 33/24/11 35/22/13 86/21/21
f 58/5/5 69/25/23 26/8/8
f 62/26/24 46/27/25 61/28/26
f 61/28/26 46/27/25 28/29/27
f 58/5/5 23/4/4 28/29/27
f 59/17/17 68/30/28 7/31/29
f 8/32/30 37/33/31 64/34/32
f 36/35/33 47/36/34 12/37/35
f 37/33/31 8/32/30 48/38/36
f 47/36/34 5/39/37 12/37/35
f 60/40/38 5/39/37 47/36/34
f 72/41/39 5/39/37 34/10/10
f 84/19/19 24/18/18 38/42/40 90/43/41
f 50/44/42 10/45/43 73/46/44
f 73/46/44 49/47/45 9/48/46
f 9/48/46 61/28/26 28/29/27
f 30/49/47 74/50/48 49/47/45
f 23/4/4 32/51/49 10/45/43
f 51/52/50 6/53/51 70/54/52
f 11/55/53 29/56/54 62/26/24
f 62/26/24 51/52/50 11/55/53
f 13/57/55 11/55/53 51/52/50
f 39/58/56 70/54/52 17/59/57
f 13/57/55 39/58/56 36/35/33
f 36/35/33 12/37/35 13/57/55
f 40/60/58 52/61/59 14/62/60
f 37/33/31 52/61/59 22/63/61
f 15/64/62 52/61/59 40/60/58
f 38/42/40 24/18/18 22/63/61
f 54/65/63 31/66/64 65/67/65
f 41/68/66 6/53/51 30/49/47
f 55/69/67 30/49/47 16/70/68
f 93/71/69 94/72/70 16/70/68
f 71/73/71 19/74/72 21/75/73
f 71/73/71 21/75/73 39/58/56
f 75/76/74 65/67/65 71/73/71
f 19/74/72 65/67/65 42/77/75
f 42/77/75 65/67/65 31/66/64
f 76/78/76 20/79/77 42/77/75
f 20/79/77 19/74/72 42/77/75
f 65/67/65 75/76/74 41/68/66
f 96/80/78 18/81/79 56/82/80 95/83/81
f 56/82/80 40/60/58 21/75/73
f 18/81/79 40/60/58 56/82/80
f 97/84/82 20/85/77 98/86/83
f 99/87/84 20/85/77 100/88/85
f 23/4/4 1/2/2 32/51/49
f 26/8/8 67/6/6 58/5/5
f 2/7/7 67/6/6 44/9/9
f 57/89/86 2/7/7 44/9/9
f 34/10/10 57/89/86 44/9/9
f 3/12/12 25/3/3 2/7/7
f 60/40/38 4/90/87 5/39/37
f 68/30/28 4/90/87 60/40/38
f 4/90/87 57/89/86 5/39/37
f 57/89/86 34/10/10 5/39/37
f 4/90/87 45/14/14 57/89/86
f 4/90/87 68/30/28 45/14/14
f 45/14/14 68/30/28 59/17/17
f 45/14/14 59/17/17 27/15/15
f 2/7/7 57/89/86 45/14/14
f 80/91/88 33/24/11 87/23/22
f 103/92/89 10/45/43 32/51/49 88/93/90
f 69/25/23 29/56/54 72/41/39
f 69/25/23 72/41/39 34/10/10
f 26/8/8 69/25/23 34/10/10
f 58/5/5 28/29/27 69/25/23
f 28/29/27 46/27/25 69/25/23
f 69/25/23 62/26/24 29/56/54
f 62/26/24 61/28/26 6/53/51
f 46/27/25 62/26/24 69/25/23
f 64/34/32 7/31/29 8/32/30
f 24/18/18 7/31/29 64/34/32
f 24/18/18 59/17/17 7/31/29
f 8/32/30 7/31/29 60/40/38
f 47/36/34 8/32/30 60/40/38
f 7/31/29 68/30/28 60/40/38
f 8/32/30 47/36/34 48/38/36
f 63/94/91 37/33/31 48/38/36
f 48/38/36 36/35/33 63/94/91
f 36/35/33 48/38/36 47/36/34
f 105/95/92 38/96/40 106/97/93
f 16/70/68 30/49/47 49/47/45
f 109/98/94 49/47/45 107/99/95
f 93/71/69 16/70/68 49/47/45 109/98/94
f 73/46/44 9/48/46 50/44/42
f 49/47/45 74/50/48 9/48/46
f 28/29/27 50/44/42 9/48/46
f 74/50/48 30/49/47 61/28/26
f 61/28/26 30/49/47 6/53/51
f 74/50/48 61/28/26 9/48/46
f 10/45/43 50/44/42 23/4/4
f 50/44/42 28/29/27 23/4/4
f 6/53/51 51/52/50 62/26/24
f 70/54/52 39/58/56 13/57/55
f 70/54/52 13/57/55 51/52/50
f 12/37/35 11/55/53 13/57/55
f 36/35/33 39/58/56 63/94/91
f 11/55/53 12/37/35 72/41/39
f 72/41/39 12/37/35 5/39/37
f 29/56/54 11/55/53 72/41/39
f 40/60/58 18/81/79 15/64/62
f 37/33/31 14/62/60 52/61/59
f 14/62/60 37/33/31 63/94/91
f 22/63/61 52/61/59 53/100/96
f 53/100/96 52/61/59 15/64/62
f 22/63/61 53/100/96 38/42/40
f 24/18/18 64/34/32 22/63/61
f 64/34/32 37/33/31 22/63/61
f 114/101/97 115/102/98 66/103/99
f 116/104/100 114/101/97 66/103/99
f 54/65/63 65/67/65 41/68/66
f 54/65/63 41/68/66 30/49/47
f 30/49/47 55/69/67 54/65/63
f 54/65/63 55/69/67 31/66/64
f 119/105/101 42/77/75 31/66/64 117/106/102
f 39/58/56 17/59/57 71/73/71
f 39/58/56 21/75/73 63/94/91
f 71/73/71 17/59/57 75/76/74
f 71/73/71 65/67/65 19/74/72
f 76/78/76 42/77/75 66/103/99
f 6/53/51 41/68/66 75/76/74
f 75/76/74 70/54/52 6/53/51
f 75/76/74 17/59/57 70/54/52
f 113/107/103 18/108/79 96/109/78
f 98/86/83 20/85/77 76/110/76 123/111/104
f 19/74/72 56/82/80 21/75/73
f 21/75/73 14/62/60 63/94/91
f 21/75/73 40/60/58 14/62/60
f 100/88/85 20/85/77 97/84/82
f 19/74/72 122/112/105 121/113/106
f 76/110/76 120/114/107 123/111/104
f 31/66/64 118/115/108 117/106/102
f 66/103/99 42/77/75 119/105/101 116/104/100
f 66/103/99 115/116/98 120/117/107 76/78/76
f 15/118/62 18/108/79 113/107/103 111/119/109
f 53/120/96 15/118/62 111/119/109 110/121/110
f 53/120/96 110/121/110 112/122/111
f 49/47/45 73/46/44 108/123/112 107/99/95
f 53/120/96 112/122/111 106/97/93 38/96/40
f 10/45/43 104/124/113 108/123/112 73/46/44
f 10/45/43 103/92/89 104/124/113
f 20/79/77 99/125/84 122/112/105 19/74/72
f 19/74/72 121/113/106 95/83/81 56/82/80
f 120/114/107 115/102/98 114/101/97 116/104/100 119/105/101 117/106/102 118/115/108 91/126/114 92/127/115 94/72/70 93/71/69 109/98/94 107/99/95 108/123/112 104/124/113 103/92/89 88/93/90 89/128/116 101/129/117 43/1/1 77/130/118 78/131/119 79/132/120 80/91/88 87/23/22 86/21/21 85/20/20 102/133/121 81/134/122 82/135/123 83/16/16 84/19/19 90/136/41 105/95/92 106/97/93 112/122/111 110/121/110 111/119/109 113/107/103 96/80/78 95/83/81 121/113/106 122/112/105 99/87/84 100/88/85 97/84/82 98/86/83 123/111/104
f 16/70/68 94/72/70 92/127/115 55/69/67
f 55/69/67 92/127/115 91/126/114
f 55/69/67 91/126/114 118/115/108 31/66/64
f 38/96/40 105/95/92 90/136/41
f 32/51/49 1/2/2 101/129/117 89/128/116
f 32/51/49 89/128/116 88/93/90
f 27/137/15 102/138/121 85/20/20 35/22/13
f 59/17/17 83/16/16 82/135/123
f 27/15/15 59/17/17 82/135/123 81/134/122
f 27/15/15 81/134/122 102/133/121
f 33/11/11 80/139/88 79/132/120 3/12/12
f 3/12/12 79/132/120 78/131/119
f 3/12/12 78/131/119 77/130/118 25/3/3
f 25/3/3 77/130/118 43/1/1
f 1/2/2 43/1/1 101/129/117
