# Blender 4.5.3 LTS
# www.blender.org
mtllib cucumber.mtl
o cucumber.001
v -0.048105 0.077074 0.139479
v -0.045464 0.035449 0.132499
v -0.051505 0.042318 0.133333
v -0.057382 0.047422 0.133789
v -0.055759 0.052720 0.133488
v -0.003635 0.070109 0.147010
v -0.044965 0.052270 0.159116
v -0.018044 0.058801 0.171247
v -0.030405 0.065790 0.173035
v -0.027326 0.059517 0.173228
v -0.061976 0.048506 0.082747
v -0.054326 0.069446 0.096914
v 0.003411 0.045470 0.059919
v -0.049288 0.029904 0.089379
v -0.038548 0.025076 0.105453
v -0.057916 0.054109 0.006031
v -0.048788 0.068772 0.023822
v -0.008355 0.074392 0.003839
v -0.006336 0.022778 0.003271
v -0.022485 0.014884 0.007302
v -0.058665 0.051102 0.038464
v -0.061498 0.060535 0.053496
v -0.045300 0.078525 0.070270
v -0.044017 0.077635 0.051999
v -0.030504 0.080407 0.068399
v -0.022352 0.081026 0.082779
v 0.006069 0.039237 0.041130
v -0.010006 0.022885 0.062439
v -0.015925 0.018345 0.037751
v -0.027997 0.015706 0.069046
v -0.033284 0.017792 0.060145
v -0.054337 0.025545 0.058924
v -0.045199 0.082155 0.136128
v -0.032917 0.087778 0.138445
v -0.025080 0.088477 0.135971
v -0.012449 0.082775 0.133255
v 0.001432 0.055825 0.127564
v -0.003088 0.048297 0.142046
v -0.007732 0.034806 0.124552
v -0.014783 0.029775 0.126043
v -0.049989 0.038215 0.139933
v -0.028245 0.082990 0.156508
v -0.012888 0.080383 0.151547
v -0.004493 0.064664 0.155571
v -0.015935 0.043036 0.159536
v -0.027572 0.038486 0.155586
v -0.046278 0.044532 0.156391
v -0.024118 0.064854 0.173154
v -0.036125 0.061048 0.171683
v -0.034035 0.050854 0.167697
v -0.013992 0.072023 0.165366
v -0.029996 0.070368 0.172181
v -0.040413 0.077640 0.159226
v -0.028852 0.080866 0.030507
v -0.021840 0.078868 0.029693
v -0.008729 0.071921 0.029363
v -0.002589 0.064627 0.020911
v 0.006871 0.060148 0.042576
v -0.008420 0.018269 0.031809
v -0.048984 0.073394 0.012155
v -0.057567 0.061399 0.089975
v -0.052573 0.068547 0.074843
v -0.038789 0.081013 0.103743
v -0.034744 0.083578 0.085589
v 0.000304 0.034588 0.095925
v -0.021399 0.021334 0.106323
v -0.059087 0.039889 0.104350
v -0.057626 0.043905 0.086889
v -0.056865 0.055814 0.082484
v -0.053721 0.064268 0.141821
v -0.056456 0.067721 0.123812
v -0.028557 0.088395 0.118297
v 0.000346 0.065218 0.118544
v -0.028341 0.026224 0.122217
v -0.040011 0.037548 0.148960
v -0.018049 0.083794 0.097179
v -0.060992 0.055484 0.117354
v -0.003247 0.069827 0.001927
v -0.034939 0.076497 0.017512
v -0.016499 0.079373 0.015241
v 0.004770 0.056532 0.017188
v -0.057447 0.040190 0.005240
v -0.051254 0.077787 0.073523
v -0.013567 0.077433 0.067701
v -0.004880 0.076102 0.146279
v 0.001769 0.060283 0.069364
v 0.002945 0.051836 0.043039
v -0.061600 0.047035 0.039177
v -0.033871 0.081583 0.053417
v 0.000229 0.036211 0.070241
v -0.002682 0.030521 0.064138
v -0.047546 0.023469 0.042910
v -0.052253 0.028751 0.031351
v -0.047589 0.079111 0.106634
v -0.047646 0.055444 0.159821
v -0.052767 0.065829 0.040142
v -0.011401 0.074951 0.016625
v -0.057644 0.040889 0.001786
v -0.058129 0.053573 0.001337
v -0.050865 0.026514 0.002283
v -0.054136 0.031157 0.002124
v -0.043162 0.019978 0.002500
v -0.048532 0.023778 0.002376
v -0.022925 0.014031 0.002674
v -0.023282 0.014884 0.002644
v -0.013934 0.018672 0.002493
v -0.021200 0.015389 0.002623
v -0.010129 0.018602 0.002488
v -0.006494 0.022673 0.002337
v -0.000583 0.031705 0.002006
v -0.006145 0.023044 0.002324
v 0.001432 0.060397 0.000985
v 0.005309 0.055894 0.001138
v -0.001877 0.064057 0.000861
v -0.003089 0.069302 0.000678
v -0.032560 0.076916 0.000462
v -0.030398 0.078197 0.000413
v -0.028777 0.080466 0.000329
v -0.041909 0.073890 0.000586
v -0.037074 0.076662 0.000479
v -0.047362 0.071205 0.000692
v -0.047683 0.072408 0.000650
v -0.056797 0.056303 0.001238
v -0.052390 0.065479 0.000904
v -0.003376 0.069920 0.000656
v -0.003200 0.069859 0.000658
v -0.006373 0.022797 0.002333
v -0.006359 0.022686 0.002337
v -0.058431 0.054285 0.001312
v -0.058020 0.054627 0.001299
v 0.003202 0.051696 0.001290
v 0.003050 0.040704 0.001680
v -0.022470 0.015106 0.002635
v -0.057295 0.039489 0.001835
v -0.057872 0.040359 0.001805
v -0.050645 0.066888 0.000851
v -0.043578 0.073570 0.000601
v -0.042734 0.073743 0.000593
v -0.031540 0.016092 0.002617
v -0.037674 0.017543 0.002577
v 0.002766 0.038274 0.001767
v 0.000429 0.033587 0.001938
v 0.003586 0.038644 0.001752
v 0.003112 0.039375 0.001727
v 0.005029 0.054237 0.001197
v -0.008580 0.074983 0.000486
v -0.013411 0.078788 0.000360
v -0.020444 0.080090 0.000327
v -0.020620 0.080094 0.000327
v -0.008350 0.074331 0.000509
vn -0.8297 0.5432 0.1287
vn -0.6570 0.7539 -0.0070
vn -0.8066 0.5904 -0.0291
vn 0.8170 0.5661 0.1098
vn 0.9469 0.2454 0.2077
vn 0.9579 0.2856 0.0292
vn 0.9938 -0.0295 0.1068
vn 0.4777 -0.8452 0.2396
vn 0.0084 -0.8852 0.4652
vn -0.1344 -0.9564 0.2591
vn -0.7354 -0.6426 0.2151
vn -0.5031 -0.8509 0.1514
vn -0.4010 -0.8887 0.2224
vn -0.8394 -0.4922 0.2307
vn -0.9739 -0.1450 0.1745
vn -0.9809 -0.0150 0.1939
vn -0.9450 -0.3191 0.0720
vn -0.6238 0.6547 0.4269
vn -0.3377 0.9392 0.0628
vn -0.5983 0.7998 0.0492
vn 0.0143 0.9113 0.4116
vn 0.2414 0.9694 0.0439
vn 0.4638 0.8440 0.2694
vn 0.5708 0.8211 0.0046
vn 0.9353 0.0632 0.3482
vn 0.8828 -0.3768 0.2806
vn 0.4978 -0.7212 0.4818
vn 0.6482 -0.7323 0.2086
vn -0.7965 -0.4268 0.4284
vn -0.3360 -0.8695 0.3621
vn -0.8292 -0.2438 0.5030
vn -0.9511 0.2172 0.2194
vn 0.5906 0.4856 0.6445
vn -0.2348 0.5327 0.8131
vn 0.6025 -0.1950 0.7739
vn -0.2557 -0.5955 0.7616
vn -0.3102 0.1923 0.9310
vn -0.5727 -0.0323 0.8191
vn 0.3152 0.1918 0.9294
vn 0.0132 -0.3427 0.9393
vn -0.6987 -0.4305 0.5714
vn -0.9621 -0.2717 0.0216
vn -0.9928 0.1140 -0.0377
vn -0.9802 0.1981 -0.0029
vn -0.5660 -0.4962 -0.6584
vn -0.8770 -0.4800 -0.0218
vn -0.6231 -0.3355 -0.7065
vn -0.3592 -0.6217 -0.6960
vn -0.4686 -0.8827 0.0361
vn -0.5081 -0.5186 -0.6876
vn -0.4962 0.5122 -0.7010
vn -0.0998 0.9947 -0.0233
vn -0.2920 0.7322 -0.6153
vn -0.1989 0.6988 -0.6871
vn -0.3564 0.9318 -0.0692
vn -0.2326 0.7346 -0.6374
vn -0.6561 -0.7536 0.0412
vn -0.9578 -0.2869 0.0174
vn -0.3670 -0.9277 0.0689
vn -0.3718 -0.9139 0.1630
vn 0.2275 -0.9554 0.1884
vn -0.1592 -0.9827 0.0945
vn 0.1661 -0.9834 0.0730
vn 0.9949 -0.0964 0.0288
vn 0.9559 0.2916 0.0346
vn 0.9502 0.3110 0.0184
vn 0.7125 0.7012 -0.0280
vn 0.7146 0.6993 0.0152
vn 0.6459 0.7620 0.0462
vn -0.1960 0.9777 -0.0759
vn 0.2327 0.9701 -0.0692
vn -0.1004 0.9928 -0.0656
vn -0.5201 0.8511 -0.0714
vn -0.6814 0.7179 -0.1426
vn -0.6798 0.7284 -0.0858
vn -0.4019 0.9121 -0.0806
vn -0.9642 0.2644 -0.0199
vn -0.7168 0.6961 -0.0404
vn 0.7860 -0.6102 0.0990
vn 0.8157 -0.5737 0.0740
vn 0.5395 -0.8329 0.1233
vn 0.9980 0.0542 0.0325
vn -0.4333 0.9000 -0.0472
vn -0.9656 0.2508 0.0692
vn -0.9963 -0.0483 0.0715
vn -0.9882 -0.1506 0.0264
vn -0.9882 0.1339 0.0743
vn -0.9799 0.1990 0.0136
vn -0.7666 -0.1939 -0.6122
vn -0.7807 0.2122 -0.5878
vn -0.5784 0.4865 -0.6548
vn -0.6254 -0.3994 -0.6704
vn -0.8133 -0.0072 -0.5818
vn -0.5354 0.4765 -0.6973
vn -0.8374 0.5459 -0.0274
vn -0.5050 0.4712 -0.7232
vn -0.0428 0.9990 -0.0117
vn 0.3335 0.9395 -0.0777
vn 0.2626 0.9649 -0.0001
vn 0.7265 0.6864 -0.0314
vn 0.9504 0.3036 -0.0674
vn 0.4955 -0.8671 0.0513
vn 0.8059 -0.5919 -0.0137
vn -0.0780 -0.7534 -0.6529
vn -0.2505 -0.6858 -0.6834
vn -0.9954 0.0723 -0.0626
vn -0.0119 0.9967 -0.0809
vn 0.8553 0.5174 0.0271
vn 0.6943 0.7174 0.0576
vn 0.3274 -0.6814 -0.6546
vn 0.0933 -0.7784 -0.6208
vn 0.5079 -0.5574 -0.6568
vn 0.9318 -0.3620 0.0281
vn 0.6155 -0.3818 -0.6895
vn 0.0557 0.6848 -0.7266
vn 0.0891 0.6585 -0.7473
vn -0.2288 0.7108 -0.6652
vn -0.6298 0.3582 -0.6892
vn -0.8713 0.4847 -0.0767
vn -0.1517 0.6914 -0.7064
vn 0.9668 -0.2555 0.0069
vn -0.0706 0.9914 -0.1105
vn 0.6869 0.1335 -0.7144
vn 0.5852 0.5345 -0.6098
vn 0.5745 -0.4388 -0.6909
vn 0.6997 -0.2737 -0.6600
vn -0.6395 0.3264 -0.6960
vn -0.7361 0.0425 -0.6755
vn -0.0372 -0.8966 -0.4412
vn 0.4571 -0.6029 -0.6539
vn 0.1555 -0.9875 0.0259
vn 0.5966 0.4491 -0.6651
vn 0.6675 0.3823 -0.6390
vn 0.4071 -0.7045 -0.5814
vn 0.2686 -0.6758 -0.6864
vn -0.4368 -0.7084 -0.5545
vn -0.8164 0.1006 -0.5687
vn -0.0969 0.6278 -0.7723
vn 0.3506 0.7320 -0.5842
vn 0.3822 0.6616 -0.6451
vn 0.6986 0.3591 -0.6189
vn 0.5719 0.4819 -0.6639
vn 0.8095 0.2048 -0.5503
vn 0.7549 -0.3081 -0.5790
vn 0.7514 -0.2173 -0.6230
vn 0.7237 0.0491 -0.6884
vn 0.7076 0.1635 -0.6874
vn 0.7980 -0.2551 -0.5460
vn 0.6333 -0.3744 -0.6773
vn 0.6666 -0.5683 -0.4824
vt 0.485731 0.121176
vt 0.498933 0.155577
vt 0.455271 0.172382
vt 0.900474 0.479301
vt 0.882804 0.496982
vt 0.854363 0.473377
vt 0.290422 0.551330
vt 0.292798 0.579628
vt 0.247531 0.554361
vt 0.141664 0.593125
vt 0.137876 0.653916
vt 0.091156 0.628070
vt 0.730497 0.136582
vt 0.705981 0.180482
vt 0.714069 0.135866
vt 0.748698 0.142745
vt 0.378753 0.051006
vt 0.394869 0.062796
vt 0.352971 0.066324
vt 0.515944 0.089302
vt 0.567467 0.131512
vt 0.512678 0.131298
vt 0.574612 0.095276
vt 0.605051 0.130125
vt 0.985923 0.486506
vt 0.940016 0.481405
vt 0.996627 0.442628
vt 0.938330 0.451729
vt 0.272568 0.599051
vt 0.214124 0.581878
vt 0.173962 0.621436
vt 0.171601 0.579317
vt 0.739382 0.112441
vt 0.703094 0.108922
vt 0.433448 0.036342
vt 0.441355 0.086761
vt 0.926798 0.521381
vt 0.967073 0.538583
vt 0.287234 0.615740
vt 0.270799 0.647705
vt 0.227466 0.649456
vt 0.727233 0.057741
vt 0.689900 0.071883
vt 0.529002 0.014814
vt 0.491285 0.014401
vt 0.538760 0.034167
vt 0.955833 0.565540
vt 0.239012 0.683949
vt 0.213784 0.690285
vt 0.760757 0.014472
vt 0.767179 0.041114
vt 0.744248 0.015367
vt 0.760260 0.094952
vt 0.184068 0.691780
vt 0.320286 0.186606
vt 0.375960 0.169162
vt 0.382663 0.221885
vt 0.704936 0.274171
vt 0.718841 0.245552
vt 0.727749 0.286440
vt 0.659657 0.258473
vt 0.685844 0.220466
vt 0.687857 0.267988
vt 0.571771 0.289000
vt 0.585162 0.254344
vt 0.583421 0.295940
vt 0.512162 0.279432
vt 0.549134 0.263316
vt 0.538006 0.285220
vt 0.718211 0.212109
vt 0.765181 0.183358
vt 0.765136 0.240970
vt 0.629354 0.184245
vt 0.666145 0.148876
vt 0.105291 0.590763
vt 0.066471 0.574043
vt 0.098017 0.524741
vt 0.257410 0.460964
vt 0.286591 0.494601
vt 0.296846 0.453001
vt 0.929057 0.387737
vt 0.889295 0.350385
vt 0.916063 0.330858
vt 0.561112 0.188292
vt 0.586553 0.205818
vt 0.561559 0.226934
vt 0.511472 0.230895
vt 0.440590 0.207881
vt 0.484217 0.186059
vt 0.505543 0.197863
vt 0.406948 0.175000
vt 0.448940 0.146927
vt 0.182393 0.543732
vt 0.162942 0.522897
vt 0.131120 0.537449
vt 0.225377 0.495365
vt 0.826752 0.427616
vt 0.535615 0.164568
vt 0.442834 0.116334
vt 0.417728 0.138128
vt 0.365221 0.115916
vt 0.394659 0.094613
vt 0.396500 0.131127
vt 0.378691 0.226749
vt 0.381739 0.228774
vt 0.383974 0.229469
vt 0.753296 0.303129
vt 0.755265 0.300288
vt 0.755526 0.303478
vt 0.437749 0.259510
vt 0.468259 0.238464
vt 0.450911 0.263737
vt 0.610763 0.257515
vt 0.967445 0.407848
vt 0.943205 0.320552
vt 0.847948 0.352499
vt 0.805281 0.399868
vt 0.799329 0.371247
vt 0.279111 0.420770
vt 0.120853 0.510577
vt 0.130982 0.474652
vt 0.620275 0.230550
vt 0.636656 0.251584
vt 0.353846 0.158321
vt 0.591675 0.152059
vt 0.992257 0.422813
vt 0.658957 0.115191
vt 0.780268 0.151110
vt 0.112079 0.665577
vt 0.780034 0.105638
vt 0.865390 0.310276
vt 0.896231 0.310449
vt 0.544741 0.011903
vt 0.536517 0.000158
vt 0.110563 0.483443
vt 0.098486 0.487647
vt 0.200620 0.443779
vt 0.188030 0.517156
vt 0.175156 0.453343
vt 0.969489 0.296817
vt 0.972470 0.329048
vt 0.968458 0.297090
vt 0.610263 0.298131
vt 0.349848 0.097609
vt 0.559711 0.286549
vt 0.483912 0.275225
vt 0.478233 0.258061
vt 0.503816 0.277953
vt 0.037167 0.580294
vt 0.055624 0.615203
vt 0.207797 0.483516
vt 0.605900 0.188465
vt 0.982316 0.385806
vt 0.862424 0.310480
vt 0.865098 0.308736
vt 0.132040 0.473208
vt 0.130781 0.473714
vt 0.393184 0.234244
vt 0.482986 0.274692
vt 0.058390 0.501420
vt 0.061310 0.499339
vt 0.061372 0.504592
vt 0.899050 0.304807
vt 0.896300 0.306802
vt 0.130100 0.474050
vt 0.066001 0.498204
vt 0.057164 0.500271
vt 0.027218 0.511339
vt 0.322243 0.193041
vt 0.508155 0.279441
vt 0.929763 0.299680
vt 0.866212 0.308835
vt 0.837599 0.328767
vt 0.816250 0.339530
vt 0.796915 0.350056
vt 0.261946 0.401535
vt 0.249816 0.407539
vt 0.211189 0.439253
vt 0.204985 0.442417
vt 0.203102 0.443343
vt 0.166901 0.457359
vt 0.130679 0.474034
vt 0.320218 0.191794
vt 0.985963 0.359267
vt 0.271679 0.399661
s 1
usemtl Material.003
f 1/1/1 94/2/2 62/3/3
f 85/4/4 6/5/5 73/6/6
f 73/7/6 6/8/5 37/9/7
f 40/10/8 46/11/9 74/12/10
f 41/13/11 14/14/12 2/15/13
f 41/13/11 3/16/14 14/14/12
f 4/17/15 5/18/16 67/19/17
f 53/20/18 34/21/19 33/22/20
f 42/23/21 35/24/22 34/21/19
f 42/25/21 43/26/23 35/27/22
f 43/26/23 36/28/24 35/27/22
f 44/29/25 37/9/7 6/8/5
f 38/30/26 37/9/7 44/29/25
f 45/31/27 40/10/8 39/32/28
f 46/11/9 40/10/8 45/31/27
f 47/33/29 2/15/13 75/34/30
f 95/35/31 5/18/16 4/17/15
f 53/20/18 70/36/32 95/35/31
f 51/37/33 43/26/23 52/38/34
f 51/37/33 85/4/4 43/26/23
f 51/37/33 6/5/5 85/4/4
f 44/29/25 6/39/5 51/40/33
f 45/31/27 38/30/26 8/41/35
f 50/42/36 75/34/30 46/43/9
f 9/44/37 53/20/18 49/45/38
f 52/46/34 53/20/18 9/44/37
f 48/47/39 51/37/33 52/38/34
f 48/48/39 10/49/40 8/41/35
f 9/50/37 49/51/38 10/52/40
f 49/51/38 7/53/41 50/42/36
f 50/54/36 46/11/9 45/31/27
f 49/45/38 53/20/18 95/35/31
f 82/55/42 21/56/43 16/57/44
f 100/58/45 93/59/46 101/60/47
f 102/61/48 92/62/49 103/63/50
f 117/64/51 54/65/52 118/66/53
f 119/67/54 79/68/55 120/69/56
f 32/70/57 67/71/17 68/72/58
f 92/62/49 14/14/12 32/70/57
f 31/73/59 15/74/60 92/62/49
f 66/75/61 30/76/62 29/77/63
f 73/7/6 87/78/64 86/79/65
f 86/79/65 87/78/64 58/80/66
f 84/81/67 56/82/68 97/83/69
f 64/84/70 25/85/71 89/86/72
f 24/87/73 64/84/70 89/86/72
f 96/88/74 83/89/75 23/90/76
f 22/91/77 12/92/78 62/3/3
f 65/93/79 39/32/28 91/94/80
f 91/94/80 39/32/28 28/95/81
f 73/7/6 37/9/7 87/78/64
f 87/78/64 37/9/7 13/96/82
f 85/4/4 73/6/6 86/97/65
f 84/81/67 36/28/24 85/4/4
f 23/90/76 63/98/83 64/84/70
f 34/21/19 64/84/70 63/98/83
f 94/2/2 23/90/76 83/89/75
f 71/99/84 12/92/78 61/100/85
f 11/101/86 77/102/87 69/103/88
f 99/104/89 16/57/44 129/105/90
f 129/105/90 16/57/44 130/106/91
f 134/107/92 82/108/42 135/109/93
f 22/91/77 62/3/3 96/88/74
f 124/110/94 96/88/74 17/111/95 136/112/96
f 96/88/74 23/90/76 17/111/95
f 17/111/95 23/90/76 24/87/73
f 89/86/72 54/65/52 79/68/55
f 25/85/71 55/113/97 54/65/52
f 76/114/98 97/83/69 80/115/99
f 85/4/4 57/116/100 56/82/68
f 86/97/65 58/117/66 57/116/100
f 58/117/66 81/118/101 57/116/100
f 58/80/66 87/78/64 81/119/101
f 91/94/80 59/120/102 19/121/103
f 28/95/81 29/77/63 59/120/102
f 139/122/104 31/73/59 140/123/105
f 93/59/46 68/72/58 82/108/42
f 82/55/42 88/124/106 21/56/43
f 3/16/14 41/13/11 47/33/29 7/53/41
f 70/36/32 1/1/1 71/99/84
f 71/99/84 1/1/1 12/92/78
f 1/1/1 33/22/20 94/2/2
f 94/2/2 33/22/20 63/98/83
f 34/21/19 35/24/22 72/125/107
f 76/114/98 72/126/107 36/28/24
f 72/126/107 35/27/22 36/28/24
f 40/10/8 74/12/10 66/75/61
f 74/127/10 75/34/30 15/74/60
f 75/34/30 2/15/13 15/74/60
f 67/71/17 3/16/14 4/128/15
f 5/18/16 70/36/32 77/102/87
f 70/36/32 53/20/18 1/1/1
f 53/20/18 33/22/20 1/1/1
f 53/20/18 42/23/21 34/21/19
f 43/26/23 85/4/4 36/28/24
f 45/31/27 39/32/28 38/30/26
f 46/11/9 75/129/30 74/12/10
f 47/33/29 41/13/11 2/15/13
f 3/16/14 7/53/41 95/130/31 4/128/15
f 78/131/108 18/132/109 56/82/68 57/116/100
f 95/35/31 70/36/32 5/18/16
f 42/25/21 52/38/34 43/26/23
f 44/29/25 8/41/35 38/30/26
f 50/42/36 47/33/29 75/34/30
f 50/42/36 7/53/41 47/33/29
f 10/52/40 49/51/38 50/42/36
f 9/44/37 48/133/39 52/46/34
f 9/44/37 10/134/40 48/133/39
f 49/51/38 95/130/31 7/53/41
f 10/49/40 50/54/36 45/31/27
f 8/41/35 10/49/40 45/31/27
f 48/48/39 8/41/35 44/29/25
f 51/40/33 48/48/39 44/29/25
f 53/20/18 52/46/34 42/23/21
f 101/60/47 93/59/46 82/108/42 134/107/92
f 103/63/50 92/62/49 93/59/46 100/58/45
f 108/135/110 59/120/102 29/77/63 106/136/111
f 141/137/112 90/138/113 142/139/114
f 18/132/109 97/83/69 56/82/68
f 149/140/115 55/141/97 80/115/99 148/142/116
f 149/143/115 118/66/53 54/65/52 55/113/97
f 11/101/86 88/124/106 82/55/42 68/144/58
f 120/69/56 79/68/55 116/145/117
f 122/146/118 60/147/119 137/148/120
f 16/57/44 22/91/77 96/88/74
f 61/100/85 22/91/77 21/56/43 69/103/88
f 93/59/46 32/70/57 68/72/58
f 92/62/49 15/74/60 14/14/12
f 30/76/62 74/12/10 31/149/59
f 74/12/10 15/150/60 31/149/59
f 28/95/81 66/75/61 29/77/63
f 90/138/113 65/93/79 91/94/80
f 13/96/82 90/138/113 27/151/121
f 57/116/100 85/4/4 86/97/65
f 76/114/98 84/81/67 97/83/69
f 24/87/73 23/90/76 64/84/70
f 96/88/74 62/3/3 83/89/75
f 69/103/88 21/56/43 88/124/106 11/101/86
f 22/91/77 61/100/85 12/92/78
f 77/102/87 11/101/86 68/144/58 5/18/16
f 65/93/79 90/138/113 13/96/82 37/9/7
f 67/19/17 5/18/16 68/144/58
f 32/70/57 14/14/12 67/71/17
f 14/14/12 3/16/14 67/71/17
f 15/74/60 2/15/13 14/14/12
f 66/75/61 74/12/10 30/76/62
f 28/95/81 40/10/8 66/75/61
f 28/95/81 39/32/28 40/10/8
f 65/93/79 38/30/26 39/32/28
f 72/125/107 26/152/122 25/85/71 64/84/70
f 65/93/79 37/9/7 38/30/26
f 76/114/98 36/28/24 84/81/67
f 26/153/122 72/126/107 76/114/98
f 34/21/19 72/125/107 64/84/70
f 61/100/85 69/103/88 70/36/32 71/99/84
f 33/22/20 34/21/19 63/98/83
f 83/89/75 62/3/3 94/2/2
f 94/2/2 63/98/83 23/90/76
f 12/92/78 1/1/1 62/3/3
f 115/154/123 126/155/124 78/131/108
f 77/102/87 70/36/32 69/103/88
f 111/156/125 19/121/103 127/157/126
f 130/106/91 16/57/44 123/158/127
f 136/112/96 17/111/95 121/159/128
f 104/160/129 133/161/130 20/162/131
f 146/163/132 18/132/109 150/164/133
f 109/165/134 108/135/110 106/136/111 107/166/135 133/161/130 104/160/129 105/167/136 139/168/104 140/123/105 102/61/48 103/63/50 100/58/45 101/60/47 134/107/92 135/109/93 98/169/137 99/104/89 129/105/90 130/106/91 123/158/127 124/110/94 136/112/96 121/159/128 122/146/118 137/148/120 138/170/138 119/67/54 120/69/56 116/145/117 117/64/51 118/66/53 149/143/115 148/142/116 147/171/139 146/163/132 150/164/133 125/172/140 126/155/124 115/154/123 114/173/141 112/174/142 113/175/143 145/176/144 131/177/145 132/178/146 144/179/147 143/180/148 141/137/112 142/139/114 110/181/149 111/156/125 127/157/126 128/182/150
f 145/176/144 87/78/64 131/177/145
f 76/114/98 80/115/99 55/141/97 26/153/122
f 135/183/93 82/55/42 98/169/137
f 16/57/44 21/56/43 22/91/77
f 60/147/119 17/111/95 24/87/73
f 138/170/138 24/87/73 79/68/55 119/67/54
f 79/68/55 24/87/73 89/86/72
f 89/86/72 25/85/71 54/65/52
f 25/184/71 26/153/122 55/141/97
f 84/81/67 85/4/4 56/82/68
f 91/94/80 28/95/81 59/120/102
f 29/77/63 30/76/62 20/162/131
f 20/162/131 30/76/62 31/149/59
f 140/123/105 31/73/59 92/62/49 102/61/48
f 92/62/49 32/70/57 93/59/46
f 80/115/99 147/171/139 148/142/116
f 18/132/109 146/163/132 147/171/139 80/115/99 97/83/69
f 13/96/82 27/151/121 143/180/148 144/179/147
f 27/151/121 90/138/113 141/137/112 143/180/148
f 60/147/119 24/87/73 138/170/138 137/148/120
f 87/78/64 13/96/82 144/179/147 132/178/146
f 87/78/64 132/178/146 131/177/145
f 19/121/103 128/182/150 127/157/126
f 78/131/108 126/155/124 125/172/140
f 18/132/109 78/131/108 125/172/140 150/164/133
f 16/57/44 96/88/74 124/110/94 123/158/127
f 17/111/95 60/147/119 122/146/118 121/159/128
f 79/68/55 54/65/52 117/64/51 116/145/117
f 57/116/100 114/173/141 115/154/123 78/131/108
f 81/119/101 87/78/64 145/176/144 113/185/143
f 81/118/101 113/175/143 112/174/142
f 57/116/100 81/118/101 112/174/142 114/173/141
f 91/94/80 19/121/103 111/156/125 110/181/149
f 90/138/113 91/94/80 110/181/149 142/139/114
f 19/121/103 109/165/134 128/182/150
f 59/120/102 108/135/110 109/165/134 19/121/103
f 20/162/131 133/161/130 107/166/135
f 29/77/63 20/162/131 107/166/135 106/136/111
f 20/162/131 31/149/59 139/168/104 105/167/136
f 20/162/131 105/167/136 104/160/129
f 82/55/42 16/57/44 99/104/89 98/169/137
