# Blender 4.5.3 LTS
# www.blender.org
mtllib cucumber.mtl
o cucumber
v -0.048105 0.077074 0.136796
v -0.045464 0.035449 0.129816
v -0.051505 0.042318 0.130650
v -0.057382 0.047422 0.131106
v -0.055759 0.052720 0.130805
v -0.003635 0.070109 0.144327
v -0.044965 0.052270 0.156433
v -0.018044 0.058801 0.168564
v -0.030405 0.065790 0.170352
v -0.027326 0.059517 0.170545
v -0.061976 0.048506 0.080064
v -0.054326 0.069446 0.094231
v 0.003411 0.045470 0.057236
v -0.049288 0.029904 0.086696
v -0.038548 0.025076 0.102770
v -0.057916 0.054109 0.003348
v -0.048788 0.068772 0.021139
v -0.008355 0.074392 0.001156
v -0.006336 0.022778 0.000588
v -0.022485 0.014884 0.004619
v -0.058665 0.051102 0.035781
v -0.061498 0.060535 0.050813
v -0.045300 0.078525 0.067587
v -0.044017 0.077635 0.049316
v -0.030504 0.080407 0.065716
v -0.022352 0.081026 0.080096
v 0.006069 0.039237 0.038447
v -0.010006 0.022885 0.059756
v -0.015925 0.018345 0.035068
v -0.027997 0.015706 0.066363
v -0.033284 0.017792 0.057462
v -0.054337 0.025545 0.056241
v -0.045199 0.082155 0.133445
v -0.032917 0.087778 0.135762
v -0.025080 0.088477 0.133288
v -0.012449 0.082775 0.130572
v 0.001432 0.055825 0.124881
v -0.003088 0.048297 0.139363
v -0.007732 0.034806 0.121869
v -0.014783 0.029775 0.123360
v -0.049989 0.038215 0.137250
v -0.028245 0.082990 0.153825
v -0.012888 0.080383 0.148864
v -0.004493 0.064664 0.152888
v -0.015935 0.043036 0.156853
v -0.027572 0.038486 0.152903
v -0.046278 0.044532 0.153708
v -0.024118 0.064854 0.170471
v -0.036125 0.061048 0.169000
v -0.034035 0.050854 0.165014
v -0.013992 0.072023 0.162683
v -0.029996 0.070368 0.169498
v -0.040413 0.077640 0.156543
v -0.028852 0.080866 0.027824
v -0.021840 0.078868 0.027010
v -0.008729 0.071921 0.026680
v -0.002589 0.064627 0.018228
v 0.006871 0.060148 0.039893
v -0.008420 0.018269 0.029126
v -0.048984 0.073394 0.009472
v -0.057567 0.061399 0.087292
v -0.052573 0.068547 0.072160
v -0.038789 0.081013 0.101060
v -0.034744 0.083578 0.082906
v 0.000304 0.034588 0.093242
v -0.021399 0.021334 0.103640
v -0.059087 0.039889 0.101667
v -0.057626 0.043905 0.084206
v -0.056865 0.055814 0.079801
v -0.053721 0.064268 0.139138
v -0.056456 0.067721 0.121129
v -0.028557 0.088395 0.115614
v 0.000346 0.065218 0.115861
v -0.028341 0.026224 0.119534
v -0.040011 0.037548 0.146277
v -0.018049 0.083794 0.094496
v -0.060992 0.055484 0.114671
v -0.034939 0.076497 0.014829
v -0.016499 0.079373 0.012558
v 0.004770 0.056532 0.014505
v -0.057447 0.040190 0.002557
v -0.051254 0.077787 0.070840
v -0.013567 0.077433 0.065018
v -0.004880 0.076102 0.143596
v 0.001769 0.060283 0.066681
v 0.002945 0.051836 0.040356
v -0.061600 0.047035 0.036494
v -0.033871 0.081583 0.050734
v 0.000229 0.036211 0.067558
v -0.002682 0.030521 0.061455
v -0.047546 0.023469 0.040227
v -0.052253 0.028751 0.028668
v -0.047589 0.079111 0.103951
v -0.047646 0.055444 0.157138
v -0.052767 0.065829 0.037459
v -0.011401 0.074951 0.013942
v -0.057582 0.040669 0.000192
v -0.058059 0.053748 0.000192
v -0.050893 0.026560 0.000192
v -0.054087 0.031095 0.000192
v -0.043203 0.020010 0.000192
v -0.048520 0.023775 0.000192
v -0.022905 0.014068 0.000192
v -0.023243 0.014884 0.000192
v -0.013955 0.018668 0.000192
v -0.021269 0.015362 0.000192
v -0.010106 0.018598 0.000192
v -0.006403 0.022734 0.000192
v -0.000612 0.031689 0.000192
v -0.006256 0.022889 0.000192
v 0.001822 0.059947 0.000192
v 0.005250 0.055963 0.000192
v -0.003214 0.069567 0.000192
v -0.001948 0.064115 0.000192
v -0.032897 0.076857 0.000192
v -0.030271 0.078415 0.000192
v -0.028783 0.080500 0.000192
v -0.040966 0.074243 0.000192
v -0.036774 0.076639 0.000192
v -0.047497 0.070976 0.000192
v -0.047935 0.072599 0.000192
v -0.057179 0.055554 0.000192
v -0.052409 0.065496 0.000192
v -0.006352 0.022786 0.000192
v -0.006346 0.022739 0.000192
v -0.058261 0.054227 0.000192
v -0.057985 0.054454 0.000192
v 0.003192 0.051701 0.000192
v 0.003046 0.041025 0.000192
v -0.022471 0.015094 0.000192
v -0.057342 0.039703 0.000192
v -0.057740 0.040306 0.000192
v -0.050482 0.067054 0.000192
v -0.044642 0.073535 0.000192
v -0.042791 0.073915 0.000192
v -0.031548 0.016099 0.000192
v -0.037652 0.017544 0.000192
v -0.005779 0.072090 0.000192
v 0.002725 0.038241 0.000192
v 0.000426 0.033623 0.000192
v 0.003657 0.038661 0.000192
v 0.003118 0.039495 0.000192
v 0.004946 0.054141 0.000192
v -0.008420 0.074562 0.000192
v -0.013933 0.078887 0.000192
v -0.019770 0.079968 0.000192
v -0.020726 0.079988 0.000192
v -0.008353 0.074374 0.000192
vn -0.8297 0.5432 0.1287
vn -0.6570 0.7539 -0.0070
vn -0.8066 0.5904 -0.0291
vn 0.8170 0.5661 0.1098
vn 0.9469 0.2454 0.2077
vn 0.9579 0.2856 0.0292
vn 0.9938 -0.0295 0.1068
vn 0.4777 -0.8452 0.2396
vn 0.0084 -0.8852 0.4652
vn -0.1344 -0.9564 0.2591
vn -0.7354 -0.6426 0.2151
vn -0.5031 -0.8509 0.1514
vn -0.4010 -0.8887 0.2224
vn -0.8394 -0.4922 0.2307
vn -0.9739 -0.1450 0.1745
vn -0.9809 -0.0150 0.1939
vn -0.9450 -0.3191 0.0720
vn -0.6238 0.6547 0.4269
vn -0.3377 0.9392 0.0628
vn -0.5983 0.7998 0.0492
vn 0.0143 0.9113 0.4116
vn 0.2414 0.9694 0.0439
vn 0.4638 0.8440 0.2694
vn 0.5708 0.8211 0.0046
vn 0.9353 0.0632 0.3482
vn 0.8828 -0.3768 0.2806
vn 0.4978 -0.7212 0.4817
vn 0.6482 -0.7323 0.2086
vn -0.7965 -0.4268 0.4284
vn -0.3360 -0.8695 0.3621
vn -0.8292 -0.2438 0.5030
vn -0.9511 0.2172 0.2194
vn 0.5906 0.4856 0.6445
vn -0.2348 0.5327 0.8131
vn 0.6025 -0.1950 0.7739
vn -0.2557 -0.5955 0.7616
vn -0.3102 0.1923 0.9310
vn -0.5727 -0.0323 0.8191
vn 0.3152 0.1918 0.9294
vn 0.0132 -0.3427 0.9393
vn -0.6987 -0.4305 0.5714
vn -0.9621 -0.2717 0.0216
vn -0.9928 0.1140 -0.0377
vn -0.9802 0.1981 -0.0029
vn -0.5719 -0.4772 -0.6673
vn -0.8770 -0.4800 -0.0218
vn -0.6266 -0.3145 -0.7130
vn -0.3618 -0.6070 -0.7076
vn -0.4686 -0.8827 0.0361
vn -0.5123 -0.5018 -0.6970
vn -0.4867 0.5297 -0.6946
vn -0.0974 0.9950 -0.0232
vn -0.2887 0.7466 -0.5993
vn -0.1924 0.7095 -0.6779
vn -0.3564 0.9318 -0.0692
vn -0.2291 0.7468 -0.6244
vn -0.6561 -0.7536 0.0412
vn -0.9578 -0.2869 0.0174
vn -0.3670 -0.9277 0.0689
vn -0.3718 -0.9139 0.1630
vn 0.2275 -0.9554 0.1884
vn -0.1592 -0.9827 0.0945
vn 0.1661 -0.9834 0.0730
vn 0.9949 -0.0964 0.0288
vn 0.9559 0.2916 0.0346
vn 0.9502 0.3110 0.0184
vn 0.7125 0.7012 -0.0280
vn 0.7147 0.6992 0.0151
vn 0.6462 0.7617 0.0466
vn -0.1960 0.9777 -0.0759
vn 0.2327 0.9701 -0.0692
vn -0.1004 0.9928 -0.0656
vn -0.5201 0.8511 -0.0714
vn -0.6814 0.7179 -0.1426
vn -0.6798 0.7284 -0.0858
vn -0.4019 0.9121 -0.0806
vn -0.9642 0.2644 -0.0199
vn -0.7168 0.6961 -0.0404
vn 0.7860 -0.6102 0.0990
vn 0.8157 -0.5737 0.0740
vn 0.5395 -0.8329 0.1233
vn 0.9980 0.0542 0.0325
vn -0.4333 0.9000 -0.0472
vn -0.9656 0.2508 0.0692
vn -0.9963 -0.0483 0.0715
vn -0.9882 -0.1506 0.0264
vn -0.9882 0.1339 0.0743
vn -0.9799 0.1990 0.0136
vn -0.7702 -0.1668 -0.6156
vn -0.7799 0.2245 -0.5842
vn -0.5684 0.5063 -0.6485
vn 0.5769 -0.4250 -0.6975
vn 0.7372 -0.2093 -0.6424
vn 0.6651 -0.5616 -0.4922
vn 0.3991 -0.6943 -0.5988
vn 0.3342 -0.7323 -0.5933
vn 0.1783 -0.6950 -0.6965
vn 0.2731 -0.6620 -0.6980
vn 0.4985 -0.5727 -0.6507
vn -0.0212 -0.8757 -0.4825
vn -0.4500 -0.6968 -0.5586
vn -0.1709 -0.7467 -0.6428
vn -0.2273 -0.7212 -0.6544
vn -0.6814 -0.3819 -0.6244
vn -0.8448 -0.1008 -0.5255
vn -0.8136 0.1269 -0.5674
vn -0.6496 0.3681 -0.6652
vn -0.5838 0.4071 -0.7025
vn -0.5500 0.5311 -0.6446
vn -0.7896 0.1428 -0.5968
vn -0.7240 0.3236 -0.6092
vn -0.1647 0.6231 -0.7646
vn -0.0936 0.6420 -0.7610
vn -0.2364 0.6937 -0.6804
vn 0.0379 0.7244 -0.6883
vn 0.0486 0.7841 -0.6187
vn 0.3490 0.7436 -0.5703
vn 0.6024 0.5057 -0.6175
vn 0.5857 0.4250 -0.6901
vn 0.5558 0.5014 -0.6631
vn 0.7180 0.3709 -0.5890
vn 0.6911 0.3812 -0.6141
vn 0.5669 0.4999 -0.6548
vn 0.8094 0.2171 -0.5457
vn 0.7580 -0.2915 -0.5835
vn 0.7579 -0.1916 -0.6236
vn 0.7239 0.0738 -0.6860
vn 0.7022 0.1891 -0.6864
vn 0.7970 -0.2500 -0.5498
vn 0.5524 -0.5356 -0.6388
vn 0.6530 -0.3002 -0.6953
vn 0.6393 -0.3532 -0.6831
vn -0.8374 0.5459 -0.0274
vn -0.0400 0.9991 -0.0117
vn 0.3335 0.9395 -0.0777
vn 0.2630 0.9648 0.0003
vn 0.7267 0.6862 -0.0316
vn 0.9504 0.3036 -0.0674
vn 0.4955 -0.8671 0.0513
vn 0.8059 -0.5919 -0.0137
vn -0.9954 0.0723 -0.0626
vn -0.0119 0.9967 -0.0809
vn 0.6950 0.7167 0.0581
vn 0.9318 -0.3620 0.0281
vn -0.8713 0.4847 -0.0767
vn 0.9668 -0.2555 0.0069
vn -0.0706 0.9914 -0.1105
vn 0.1555 -0.9875 0.0259
vt 0.485731 0.121176
vt 0.498933 0.155577
vt 0.455271 0.172382
vt 0.900474 0.479301
vt 0.882804 0.496982
vt 0.854363 0.473377
vt 0.290422 0.551330
vt 0.292798 0.579628
vt 0.247531 0.554361
vt 0.141664 0.593125
vt 0.137876 0.653916
vt 0.091156 0.628070
vt 0.730497 0.136582
vt 0.705981 0.180482
vt 0.714069 0.135866
vt 0.748698 0.142745
vt 0.378753 0.051006
vt 0.394869 0.062796
vt 0.352971 0.066324
vt 0.515944 0.089302
vt 0.567467 0.131512
vt 0.512678 0.131298
vt 0.574612 0.095276
vt 0.605051 0.130125
vt 0.985923 0.486506
vt 0.940016 0.481405
vt 0.996627 0.442628
vt 0.938330 0.451729
vt 0.272568 0.599051
vt 0.214124 0.581878
vt 0.173962 0.621436
vt 0.171601 0.579317
vt 0.739382 0.112441
vt 0.703094 0.108922
vt 0.433448 0.036342
vt 0.441355 0.086761
vt 0.926798 0.521381
vt 0.967073 0.538583
vt 0.287234 0.615740
vt 0.270799 0.647705
vt 0.227466 0.649456
vt 0.727233 0.057741
vt 0.689900 0.071883
vt 0.529002 0.014814
vt 0.491285 0.014401
vt 0.538760 0.034167
vt 0.955833 0.565540
vt 0.239012 0.683949
vt 0.213784 0.690285
vt 0.760757 0.014472
vt 0.767179 0.041114
vt 0.744248 0.015367
vt 0.760260 0.094952
vt 0.184068 0.691780
vt 0.320286 0.186606
vt 0.375960 0.169162
vt 0.382663 0.221885
vt 0.705220 0.273588
vt 0.718841 0.245552
vt 0.727520 0.285390
vt 0.659900 0.258121
vt 0.685844 0.220466
vt 0.687832 0.267402
vt 0.572866 0.286164
vt 0.585162 0.254344
vt 0.583568 0.292431
vt 0.517161 0.277253
vt 0.549134 0.263316
vt 0.539571 0.282139
vt 0.718211 0.212109
vt 0.765181 0.183358
vt 0.765136 0.240970
vt 0.629354 0.184245
vt 0.666145 0.148876
vt 0.105291 0.590763
vt 0.066471 0.574043
vt 0.098017 0.524741
vt 0.257410 0.460964
vt 0.286591 0.494601
vt 0.296846 0.453001
vt 0.929057 0.387737
vt 0.889295 0.350385
vt 0.916063 0.330858
vt 0.561112 0.188292
vt 0.586553 0.205818
vt 0.561559 0.226934
vt 0.511472 0.230895
vt 0.440590 0.207881
vt 0.484217 0.186059
vt 0.505543 0.197863
vt 0.406948 0.175000
vt 0.448940 0.146927
vt 0.182393 0.543732
vt 0.162942 0.522897
vt 0.131120 0.537449
vt 0.225377 0.495365
vt 0.826752 0.427616
vt 0.535615 0.164568
vt 0.442834 0.116334
vt 0.417728 0.138128
vt 0.365221 0.115916
vt 0.394659 0.094613
vt 0.396500 0.131127
vt 0.379992 0.225156
vt 0.382045 0.226493
vt 0.383537 0.226944
vt 0.131424 0.474048
vt 0.130897 0.474256
vt 0.130854 0.474390
vt 0.130608 0.474396
vt 0.110698 0.483801
vt 0.098481 0.488049
vt 0.065751 0.498548
vt 0.061314 0.499609
vt 0.058520 0.501558
vt 0.057372 0.500485
vt 0.027263 0.511649
vt 0.636618 0.251235
vt 0.753898 0.302261
vt 0.755445 0.302484
vt 0.321626 0.191012
vt 0.389590 0.230022
vt 0.437892 0.256917
vt 0.452439 0.261510
vt 0.481596 0.271273
vt 0.482813 0.271905
vt 0.498781 0.274038
vt 0.508303 0.277286
vt 0.558214 0.283261
vt 0.610306 0.294607
vt 0.964144 0.301098
vt 0.932034 0.303207
vt 0.897042 0.308826
vt 0.896251 0.309393
vt 0.880678 0.310362
vt 0.864519 0.312384
vt 0.838638 0.331150
vt 0.814276 0.343230
vt 0.797177 0.352349
vt 0.261764 0.403918
vt 0.250104 0.409567
vt 0.212524 0.439880
vt 0.205387 0.443461
vt 0.203236 0.444488
vt 0.200416 0.444966
vt 0.175333 0.454218
vt 0.166846 0.458275
vt 0.755265 0.300288
vt 0.468259 0.238464
vt 0.610763 0.257515
vt 0.967445 0.407848
vt 0.943205 0.320552
vt 0.847948 0.352499
vt 0.805281 0.399868
vt 0.799329 0.371247
vt 0.279111 0.420770
vt 0.120853 0.510577
vt 0.130982 0.474652
vt 0.620316 0.230343
vt 0.353846 0.158321
vt 0.591675 0.152059
vt 0.992257 0.422813
vt 0.658957 0.115191
vt 0.780268 0.151110
vt 0.112079 0.665577
vt 0.780034 0.105638
vt 0.896231 0.310449
vt 0.544741 0.011903
vt 0.536517 0.000158
vt 0.188030 0.517156
vt 0.969748 0.299613
vt 0.972470 0.329048
vt 0.349848 0.097609
vt 0.478233 0.258061
vt 0.037167 0.580294
vt 0.055624 0.615203
vt 0.207797 0.483516
vt 0.605900 0.188465
vt 0.982316 0.385806
vt 0.061372 0.504592
vt 0.320239 0.190178
vt 0.985963 0.359267
vt 0.272483 0.401946
s 1
usemtl Material.003
f 1/1/1 93/2/2 62/3/3
f 84/4/4 6/5/5 73/6/6
f 73/7/6 6/8/5 37/9/7
f 40/10/8 46/11/9 74/12/10
f 41/13/11 14/14/12 2/15/13
f 41/13/11 3/16/14 14/14/12
f 4/17/15 5/18/16 67/19/17
f 53/20/18 34/21/19 33/22/20
f 42/23/21 35/24/22 34/21/19
f 42/25/21 43/26/23 35/27/22
f 43/26/23 36/28/24 35/27/22
f 44/29/25 37/9/7 6/8/5
f 38/30/26 37/9/7 44/29/25
f 45/31/27 40/10/8 39/32/28
f 46/11/9 40/10/8 45/31/27
f 47/33/29 2/15/13 75/34/30
f 94/35/31 5/18/16 4/17/15
f 53/20/18 70/36/32 94/35/31
f 51/37/33 43/26/23 52/38/34
f 51/37/33 84/4/4 43/26/23
f 51/37/33 6/5/5 84/4/4
f 44/29/25 6/39/5 51/40/33
f 45/31/27 38/30/26 8/41/35
f 50/42/36 75/34/30 46/43/9
f 9/44/37 53/20/18 49/45/38
f 52/46/34 53/20/18 9/44/37
f 48/47/39 51/37/33 52/38/34
f 48/48/39 10/49/40 8/41/35
f 9/50/37 49/51/38 10/52/40
f 49/51/38 7/53/41 50/42/36
f 50/54/36 46/11/9 45/31/27
f 49/45/38 53/20/18 94/35/31
f 81/55/42 21/56/43 16/57/44
f 99/58/45 92/59/46 100/60/47
f 101/61/48 91/62/49 102/63/50
f 116/64/51 54/65/52 117/66/53
f 118/67/54 78/68/55 119/69/56
f 32/70/57 67/71/17 68/72/58
f 91/62/49 14/14/12 32/70/57
f 31/73/59 15/74/60 91/62/49
f 66/75/61 30/76/62 29/77/63
f 73/7/6 86/78/64 85/79/65
f 85/79/65 86/78/64 58/80/66
f 83/81/67 56/82/68 96/83/69
f 64/84/70 25/85/71 88/86/72
f 24/87/73 64/84/70 88/86/72
f 95/88/74 82/89/75 23/90/76
f 22/91/77 12/92/78 62/3/3
f 65/93/79 39/32/28 90/94/80
f 90/94/80 39/32/28 28/95/81
f 73/7/6 37/9/7 86/78/64
f 86/78/64 37/9/7 13/96/82
f 84/4/4 73/6/6 85/97/65
f 83/81/67 36/28/24 84/4/4
f 23/90/76 63/98/83 64/84/70
f 34/21/19 64/84/70 63/98/83
f 93/2/2 23/90/76 82/89/75
f 71/99/84 12/92/78 61/100/85
f 11/101/86 77/102/87 69/103/88
f 98/104/89 16/57/44 126/105/90
f 126/105/90 16/57/44 127/106/91
f 110/107/92 124/108/93 125/109/94 108/110/95 107/111/96 105/112/97 106/113/98 130/114/99 103/115/100 104/116/101 136/117/102 137/118/103 101/61/48 102/63/50 99/58/45 100/60/47 131/119/104 132/120/105 97/121/106 98/104/89 126/105/90 127/106/91 122/122/107 123/123/108 133/124/109 120/125/110 121/126/111 134/127/112 135/128/113 118/67/54 119/69/56 115/129/114 116/64/51 117/66/53 147/130/115 146/131/116 145/132/117 144/133/118 148/134/119 138/135/120 113/136/121 114/137/122 111/138/123 112/139/124 143/140/125 128/141/126 129/142/127 142/143/128 141/144/129 139/145/130 140/146/131 109/147/132
f 131/119/104 81/148/42 132/120/105
f 22/91/77 62/3/3 95/88/74
f 123/123/108 95/88/74 17/149/133 133/124/109
f 95/88/74 23/90/76 17/149/133
f 17/149/133 23/90/76 24/87/73
f 88/86/72 54/65/52 78/68/55
f 25/85/71 55/150/134 54/65/52
f 76/151/135 96/83/69 79/152/136
f 84/4/4 57/153/137 56/82/68
f 85/97/65 58/154/66 57/153/137
f 58/154/66 80/155/138 57/153/137
f 58/80/66 86/78/64 80/156/138
f 90/94/80 59/157/139 19/158/140
f 28/95/81 29/77/63 59/157/139
f 136/159/102 31/73/59 137/118/103
f 92/59/46 68/72/58 81/148/42
f 81/55/42 87/160/141 21/56/43
f 3/16/14 41/13/11 47/33/29 7/53/41
f 70/36/32 1/1/1 71/99/84
f 71/99/84 1/1/1 12/92/78
f 1/1/1 33/22/20 93/2/2
f 93/2/2 33/22/20 63/98/83
f 34/21/19 35/24/22 72/161/142
f 76/151/135 72/162/142 36/28/24
f 72/162/142 35/27/22 36/28/24
f 40/10/8 74/12/10 66/75/61
f 74/163/10 75/34/30 15/74/60
f 75/34/30 2/15/13 15/74/60
f 67/71/17 3/16/14 4/164/15
f 5/18/16 70/36/32 77/102/87
f 70/36/32 53/20/18 1/1/1
f 53/20/18 33/22/20 1/1/1
f 53/20/18 42/23/21 34/21/19
f 43/26/23 84/4/4 36/28/24
f 45/31/27 39/32/28 38/30/26
f 46/11/9 75/165/30 74/12/10
f 47/33/29 41/13/11 2/15/13
f 3/16/14 7/53/41 94/166/31 4/164/15
f 138/135/120 18/167/143 56/82/68 57/153/137 113/136/121
f 94/35/31 70/36/32 5/18/16
f 42/25/21 52/38/34 43/26/23
f 44/29/25 8/41/35 38/30/26
f 50/42/36 47/33/29 75/34/30
f 50/42/36 7/53/41 47/33/29
f 10/52/40 49/51/38 50/42/36
f 9/44/37 48/168/39 52/46/34
f 9/44/37 10/169/40 48/168/39
f 49/51/38 94/166/31 7/53/41
f 10/49/40 50/54/36 45/31/27
f 8/41/35 10/49/40 45/31/27
f 48/48/39 8/41/35 44/29/25
f 51/40/33 48/48/39 44/29/25
f 53/20/18 52/46/34 42/23/21
f 100/60/47 92/59/46 81/148/42 131/119/104
f 102/63/50 91/62/49 92/59/46 99/58/45
f 107/111/96 59/157/139 29/77/63 105/112/97
f 139/145/130 89/170/144 140/146/131
f 18/167/143 96/83/69 56/82/68
f 147/171/115 55/172/134 79/152/136 146/131/116
f 147/130/115 117/66/53 54/65/52 55/150/134
f 11/101/86 87/160/141 81/55/42 68/173/58
f 119/69/56 78/68/55 115/129/114
f 121/126/111 60/174/145 134/127/112
f 16/57/44 22/91/77 95/88/74
f 61/100/85 22/91/77 21/56/43 69/103/88
f 92/59/46 32/70/57 68/72/58
f 91/62/49 15/74/60 14/14/12
f 30/76/62 74/12/10 31/175/59
f 74/12/10 15/176/60 31/175/59
f 28/95/81 66/75/61 29/77/63
f 89/170/144 65/93/79 90/94/80
f 13/96/82 89/170/144 27/177/146
f 57/153/137 84/4/4 85/97/65
f 76/151/135 83/81/67 96/83/69
f 24/87/73 23/90/76 64/84/70
f 95/88/74 62/3/3 82/89/75
f 69/103/88 21/56/43 87/160/141 11/101/86
f 22/91/77 61/100/85 12/92/78
f 77/102/87 11/101/86 68/173/58 5/18/16
f 65/93/79 89/170/144 13/96/82 37/9/7
f 67/19/17 5/18/16 68/173/58
f 32/70/57 14/14/12 67/71/17
f 14/14/12 3/16/14 67/71/17
f 15/74/60 2/15/13 14/14/12
f 66/75/61 74/12/10 30/76/62
f 28/95/81 40/10/8 66/75/61
f 28/95/81 39/32/28 40/10/8
f 65/93/79 38/30/26 39/32/28
f 72/161/142 26/178/147 25/85/71 64/84/70
f 65/93/79 37/9/7 38/30/26
f 76/151/135 36/28/24 83/81/67
f 26/179/147 72/162/142 76/151/135
f 34/21/19 72/161/142 64/84/70
f 61/100/85 69/103/88 70/36/32 71/99/84
f 33/22/20 34/21/19 63/98/83
f 82/89/75 62/3/3 93/2/2
f 93/2/2 63/98/83 23/90/76
f 12/92/78 1/1/1 62/3/3
f 77/102/87 70/36/32 69/103/88
f 110/107/92 19/158/140 124/108/93
f 127/106/91 16/57/44 122/122/107
f 133/124/109 17/149/133 120/125/110
f 103/115/100 130/114/99 20/180/148
f 144/133/118 18/167/143 148/134/119
f 143/140/125 86/78/64 128/141/126
f 76/151/135 79/152/136 55/172/134 26/179/147
f 132/181/105 81/55/42 97/121/106
f 16/57/44 21/56/43 22/91/77
f 60/174/145 17/149/133 24/87/73
f 135/128/113 24/87/73 78/68/55 118/67/54
f 78/68/55 24/87/73 88/86/72
f 88/86/72 25/85/71 54/65/52
f 25/182/71 26/179/147 55/172/134
f 83/81/67 84/4/4 56/82/68
f 90/94/80 28/95/81 59/157/139
f 29/77/63 30/76/62 20/180/148
f 20/180/148 30/76/62 31/175/59
f 137/118/103 31/73/59 91/62/49 101/61/48
f 91/62/49 32/70/57 92/59/46
f 79/152/136 145/132/117 146/131/116
f 18/167/143 144/133/118 145/132/117 79/152/136 96/83/69
f 13/96/82 27/177/146 141/144/129 142/143/128
f 27/177/146 89/170/144 139/145/130 141/144/129
f 18/167/143 138/135/120 148/134/119
f 60/174/145 24/87/73 135/128/113 134/127/112
f 86/78/64 13/96/82 142/143/128 129/142/127
f 86/78/64 129/142/127 128/141/126
f 19/158/140 125/109/94 124/108/93
f 16/57/44 95/88/74 123/123/108 122/122/107
f 17/149/133 60/174/145 121/126/111 120/125/110
f 78/68/55 54/65/52 116/64/51 115/129/114
f 57/153/137 114/137/122 113/136/121
f 80/156/138 86/78/64 143/140/125 112/183/124
f 80/155/138 112/139/124 111/138/123
f 57/153/137 80/155/138 111/138/123 114/137/122
f 90/94/80 19/158/140 110/107/92 109/147/132
f 89/170/144 90/94/80 109/147/132 140/146/131
f 19/158/140 108/110/95 125/109/94
f 59/157/139 107/111/96 108/110/95 19/158/140
f 20/180/148 130/114/99 106/113/98
f 29/77/63 20/180/148 106/113/98 105/112/97
f 20/180/148 31/175/59 136/117/102 104/116/101
f 20/180/148 104/116/101 103/115/100
f 81/55/42 16/57/44 98/104/89 97/121/106
o cucumber.002
v -0.059367 0.057974 -0.082595
v 0.005782 0.056265 -0.110820
v -0.007132 0.102347 -0.121574
v -0.004171 0.095471 -0.118213
v 0.002188 0.088381 -0.113924
v 0.005382 0.067665 -0.120263
v -0.055994 0.082287 -0.128336
v -0.014929 0.044912 -0.129573
v -0.059766 0.072170 -0.112359
v -0.050693 0.083665 -0.088492
v -0.042606 0.083134 -0.077597
v -0.039154 0.086487 -0.074561
v -0.027116 0.082748 -0.065006
v -0.003337 0.074793 -0.073676
v 0.002784 0.071019 -0.080527
v 0.003843 0.051908 -0.097358
v -0.002550 0.034329 -0.084163
v -0.058019 0.043842 -0.088874
v -0.057607 0.050225 -0.108945
v -0.048061 0.095434 -0.132703
v -0.011207 0.089831 -0.142473
v -0.015969 0.078677 -0.147255
v -0.032617 0.070707 -0.148144
v -0.045648 0.072632 -0.142644
v -0.037618 0.104992 -0.128798
v -0.061187 0.080753 -0.115327
v 0.006880 0.057975 -0.088821
v -0.005558 0.045575 -0.120645
v -0.034723 0.034948 -0.117017
v -0.045942 0.042727 -0.121211
v -0.057732 0.043054 -0.070378
v -0.056986 0.064215 -0.123480
v -0.032401 0.050137 -0.135678
v -0.029572 0.107024 -0.113017
v -0.017286 0.106247 -0.118679
v -0.051221 0.095057 -0.122790
v -0.039767 0.105519 -0.117660
v -0.000488 0.091179 -0.125167
v 0.002573 0.075011 -0.130396
v -0.051745 0.091688 -0.108150
v -0.056159 0.084578 -0.114642
v -0.054110 0.076864 -0.088051
v 0.003124 0.066131 -0.085093
v 0.003826 0.059864 -0.072457
v 0.002138 0.042087 -0.077089
v -0.058606 0.065392 -0.089473
v -0.016685 0.085879 -0.075679
v -0.015574 0.027437 -0.096266
v -0.035485 0.022322 -0.083107
v -0.042863 0.079358 -0.060779
v -0.053254 0.071046 -0.066847
v -0.024129 0.108461 -0.126241
v -0.035649 0.097122 -0.144106
v -0.033251 0.091968 -0.147841
v -0.006646 0.084478 -0.075407
v -0.013104 0.103684 -0.131361
v -0.032741 0.100388 -0.103541
v -0.048030 0.029288 -0.083415
v -0.008820 0.024019 -0.062354
v -0.061252 0.064310 -0.073945
v -0.030054 0.099644 -0.143806
v -0.001086 0.033377 -0.060017
v -0.008064 0.024691 -0.060017
v -0.008728 0.023973 -0.060017
v -0.008659 0.023439 -0.060017
v -0.032639 0.018239 -0.060017
v -0.037418 0.020194 -0.060017
v -0.044497 0.024101 -0.060017
v -0.053548 0.033655 -0.060017
v -0.057041 0.038826 -0.060017
v -0.057294 0.040635 -0.060017
v -0.058512 0.045170 -0.060017
v -0.059676 0.053103 -0.060017
v -0.022259 0.017976 -0.060017
v -0.022334 0.017969 -0.060017
v 0.003630 0.054534 -0.060017
v 0.003570 0.051584 -0.060017
v -0.001931 0.072294 -0.060017
v -0.000346 0.071126 -0.060017
v -0.036877 0.083883 -0.060017
v -0.029854 0.082532 -0.060017
v -0.061026 0.056791 -0.060017
v -0.059091 0.042763 -0.060017
v -0.009081 0.023613 -0.060017
v -0.021723 0.018200 -0.060017
v 0.001507 0.038269 -0.060017
v 0.003116 0.048771 -0.060017
v 0.005683 0.060786 -0.060017
v 0.000908 0.065156 -0.060017
v 0.001744 0.062501 -0.060017
v -0.006197 0.074013 -0.060017
v -0.015969 0.083326 -0.060017
v -0.022058 0.082151 -0.060017
v -0.027311 0.082437 -0.060017
v -0.059838 0.061607 -0.060017
v -0.058867 0.064573 -0.060017
v -0.051899 0.071109 -0.060017
v -0.053097 0.070189 -0.060017
v -0.042796 0.079311 -0.060017
v -0.042997 0.079258 -0.060017
v -0.042327 0.079553 -0.060017
v -0.024749 0.081917 -0.060017
v 0.002372 0.041191 -0.060017
v -0.048626 0.026858 -0.060017
v -0.000416 0.070162 -0.060017
v -0.007636 0.077771 -0.060017
v -0.011536 0.078268 -0.060017
v -0.059206 0.059772 -0.060017
v -0.043220 0.078909 -0.060017
vn 0.5575 0.4414 0.7031
vn 0.4580 0.3932 0.7973
vn 0.2919 0.5260 0.7988
vn 0.2785 0.7448 0.6064
vn -0.0403 0.6402 0.7672
vn 0.0445 0.6567 0.7528
vn 0.1297 0.6957 0.7065
vn 0.1114 0.6938 0.7115
vn -0.1751 0.7339 0.6563
vn -0.3719 0.5524 0.7460
vn -0.2065 0.6765 0.7069
vn -0.4883 0.5341 0.6901
vn -0.5080 0.5423 0.6692
vn -0.4065 0.5637 0.7190
vn -0.4204 0.5063 0.7530
vn -0.5826 0.3960 0.7097
vn -0.7513 -0.0274 0.6594
vn -0.7756 0.0912 0.6246
vn -0.7585 0.0343 0.6508
vn -0.7557 -0.1442 0.6388
vn -0.7975 -0.0045 0.6032
vn -0.8148 -0.1661 0.5554
vn -0.7489 -0.2715 0.6045
vn -0.7232 -0.2303 0.6511
vn -0.6210 -0.4392 0.6492
vn -0.5346 -0.5771 0.6174
vn -0.3951 -0.6299 0.6686
vn -0.3280 -0.6668 0.6692
vn -0.2228 -0.8018 0.5545
vn -0.0179 -0.8046 0.5935
vn 0.2034 -0.8130 0.5456
vn 0.2494 -0.7348 0.6308
vn -0.0299 -0.8445 0.5348
vn 0.3647 -0.7611 0.5364
vn 0.7606 -0.2684 0.5911
vn 0.5682 -0.4546 0.6859
vn 0.6131 -0.4132 0.6733
vn 0.6826 -0.2791 0.6754
vn 0.7065 -0.1294 0.6958
vn 0.6857 -0.0935 0.7218
vn 0.6966 -0.1002 0.7105
vn 0.7212 -0.1146 0.6832
vn 0.7992 0.3484 0.4899
vn 0.5933 0.4202 0.6866
vn 0.6124 0.1115 0.7826
vn 0.6895 0.0124 0.7242
vn 0.7057 0.2593 0.6594
vn 0.3917 0.5937 0.7029
vn 0.6339 -0.7638 -0.1217
vn 0.7918 -0.5924 -0.1488
vn -0.2689 -0.9391 -0.2139
vn -0.9736 -0.2151 -0.0759
vn -0.9919 -0.1230 -0.0305
vn -0.9517 -0.2646 -0.1554
vn 0.3667 -0.8871 -0.2802
vn 0.9546 -0.2916 -0.0614
vn 0.9063 -0.4207 -0.0398
vn 0.9808 0.1922 0.0319
vn 0.9654 0.2397 0.1023
vn 0.7345 0.6483 0.2004
vn 0.0796 0.9779 0.1935
vn -0.4899 0.8228 0.2881
vn -0.9290 0.3669 0.0486
vn -0.9607 0.2770 -0.0180
vn -0.7449 0.6564 0.1196
vn -0.9931 -0.1091 -0.0425
vn -0.9340 0.3556 -0.0352
vn -0.8463 0.4741 0.2428
vn -0.8226 0.5675 0.0349
vn -0.7434 0.6088 0.2770
vn -0.7943 0.5785 0.1854
vn -0.5324 0.8091 0.2489
vn -0.4835 0.8753 0.0105
vn 0.9939 -0.0113 -0.1093
vn 0.9120 0.4099 0.0147
vn 0.9830 0.1674 0.0749
vn 0.9769 -0.1640 -0.1367
vn 0.7275 -0.5810 -0.3649
vn 0.3632 -0.7038 -0.6105
vn -0.6760 -0.1388 -0.7237
vn -0.9282 -0.1981 -0.3150
vn -0.8769 0.3868 -0.2853
vn 0.8283 0.5322 -0.1753
vn -0.3227 0.9220 -0.2138
vn -0.1158 0.9757 0.1863
vn 0.0754 0.9881 -0.1344
vn -0.8020 0.5937 -0.0659
vn 0.4150 0.8727 -0.2572
vn 0.3338 0.9384 0.0894
vn 0.6984 0.7139 -0.0515
vn 0.6209 0.3950 -0.6771
vn 0.9511 0.1093 -0.2888
vn 0.4343 -0.0936 -0.8959
vn -0.1336 -0.3025 -0.9438
vn -0.1725 -0.6310 -0.7564
vn -0.7009 0.6374 -0.3202
vn -0.2047 -0.8744 -0.4398
vn -0.6090 -0.6684 -0.4270
vn -0.0694 0.8929 0.4449
vn 0.1991 0.9322 0.3023
vn 0.9935 -0.0940 0.0647
vn -0.9865 -0.1276 -0.1025
vn -0.2583 0.2816 -0.9241
vn -0.4648 0.6404 -0.6114
vn -0.0498 0.8008 -0.5969
vn -0.6139 0.7843 0.0896
vn 0.6989 0.6689 0.2531
vn 0.7986 0.5587 0.2237
vn -0.5995 -0.7756 -0.1974
vt 0.888405 0.236792
vt 0.901587 0.227005
vt 0.916649 0.226231
vt 0.942331 0.208975
vt 0.972765 0.222975
vt 0.600760 0.372120
vt 0.590475 0.375072
vt 0.578578 0.375131
vt 0.551471 0.382294
vt 0.513038 0.362553
vt 0.510320 0.361606
vt 0.509460 0.361667
vt 0.507579 0.360712
vt 0.452654 0.346251
vt 0.444290 0.345226
vt 0.411012 0.330509
vt 0.399524 0.323784
vt 0.394479 0.319088
vt 0.377731 0.311156
vt 0.361602 0.301064
vt 0.327105 0.282068
vt 0.317953 0.276253
vt 0.750671 0.377471
vt 0.749403 0.372958
vt 0.724499 0.359702
vt 0.689971 0.342583
vt 0.668572 0.335698
vt 0.004702 0.420400
vt 0.014629 0.429879
vt 0.060293 0.431775
vt 0.060607 0.431761
vt 0.062865 0.431123
vt 0.116013 0.415066
vt 0.117513 0.415626
vt 0.118010 0.414098
vt 0.121673 0.412654
vt 0.162063 0.391947
vt 0.184215 0.376489
vt 0.196043 0.368899
vt 0.226892 0.343033
vt 0.236195 0.333967
vt 0.247698 0.322470
vt 0.806427 0.267889
vt 0.822636 0.262934
vt 0.831204 0.252694
vt 0.848689 0.238914
vt 0.850996 0.237757
vt 0.860368 0.235504
vt 0.117510 0.411763
vt 0.155764 0.363915
vt 0.007936 0.390530
vt 0.761559 0.416502
vt 0.318689 0.307128
vt 0.317273 0.289800
vt 0.363923 0.370413
vt 0.092004 0.361959
vt 0.194002 0.346732
vt 0.213684 0.293883
vt 0.260561 0.288764
vt 0.843741 0.210906
vt 0.876176 0.212659
vt 0.591618 0.381900
vt 0.549888 0.412492
vt 0.407829 0.372117
vt 0.401941 0.346819
vt 0.445684 0.355808
vt 0.381404 0.340614
vt 0.443974 0.433456
vt 0.455170 0.398537
vt 0.461239 0.442234
vt 0.485385 0.417353
vt 0.486110 0.457656
vt 0.525682 0.402719
vt 0.529597 0.505297
vt 0.851090 0.159484
vt 0.883419 0.126317
vt 0.830492 0.210762
vt 0.246210 0.207248
vt 0.265660 0.251739
vt 0.227831 0.261314
vt 0.160790 0.280182
vt 0.105906 0.256178
vt 0.757717 0.600445
vt 0.782074 0.536145
vt 0.787151 0.594032
vt 0.267121 0.117171
vt 0.271771 0.148587
vt 0.526859 0.517769
vt 0.560091 0.520876
vt 0.565982 0.544404
vt 0.449729 0.453709
vt 0.487910 0.475243
vt 0.951334 0.073690
vt 0.971323 0.076358
vt 0.935473 0.087916
vt 0.219657 0.070901
vt 0.243509 0.161211
vt 0.173803 0.104236
vt 0.114678 0.116475
vt 0.056370 0.212656
vt 0.447956 0.490244
vt 0.488027 0.489872
vt 0.671337 0.524885
vt 0.649880 0.432518
vt 0.709070 0.460497
vt 0.026345 0.299494
vt 0.592278 0.509796
vt 0.552715 0.482384
vt 0.999497 0.113107
vt 0.947209 0.181889
vt 0.241972 0.274003
vt 0.637132 0.358510
vt 0.419845 0.413407
vt 0.267399 0.302016
vt 0.812215 0.254164
vt 0.733843 0.686991
vt 0.757848 0.670933
vt 0.893346 0.108346
vt 0.507711 0.532332
vt 0.714091 0.644083
vt 0.526829 0.548009
vt 0.135676 0.025774
vt 0.510014 0.362624
vt 0.908256 0.184632
vt 0.917418 0.105828
vt 0.764119 0.466998
vt 0.690403 0.373954
vt 0.403691 0.420875
vt 0.987829 0.057799
vt 0.992666 0.069859
vt 0.916686 0.068504
vt 0.978357 0.022676
vt 0.946388 0.035053
vt 0.151837 0.003737
vt 0.486151 0.533997
vt 0.986349 0.202077
vt 0.981400 0.219870
vt 0.312541 0.279447
vt 0.755469 0.394647
vt 0.638562 0.327235
s 1
usemtl Material.003
f 239/184/149 254/185/150 255/186/151 240/187/152 241/188/153 250/189/154 242/190/155 229/191/156 228/192/157 249/193/158 247/194/159 248/195/160 257/196/161 245/197/162 246/198/163 244/199/164 243/200/165 256/201/166 230/202/167 221/203/168 220/204/169 231/205/170 219/206/171 218/207/172 217/208/173 252/209/174 216/210/175 215/211/176 214/212/177 223/213/178 222/214/179 233/215/180 232/216/181 213/217/182 212/218/183 211/219/184 210/220/185 234/221/186 251/222/187 235/223/188 225/224/189 224/225/190 236/226/191 238/227/192 237/228/193 253/229/194 227/230/195 226/231/196
f 211/219/184 207/232/197 165/233/198 210/220/185
f 212/218/183 213/217/182 207/232/197
f 214/212/177 215/211/176 197/234/199
f 217/208/173 218/207/172 166/235/200
f 166/236/200 179/237/201 167/238/202
f 223/213/178 197/234/199 196/239/203 222/214/179
f 193/240/204 165/233/198 164/241/205
f 225/224/189 164/241/205 192/242/206 224/225/190
f 227/230/195 163/243/207 162/244/208 226/231/196
f 229/191/156 161/245/209 160/246/210 228/192/157
f 194/247/211 208/248/212 199/249/213
f 221/203/168 230/202/167 149/250/214
f 174/251/215 190/252/216 189/253/217
f 189/253/217 158/254/218 188/255/219
f 159/256/220 160/246/210 185/257/221
f 154/258/222 153/259/223 191/260/224
f 154/261/222 191/262/224 150/263/225
f 176/264/226 150/263/225 164/241/205
f 176/264/226 164/241/205 165/233/198
f 156/265/227 176/264/226 196/239/203
f 172/266/228 180/267/229 155/268/230
f 186/269/231 153/270/223 154/261/222
f 173/271/232 182/272/233 200/273/234
f 185/257/221 182/272/233 173/271/232
f 155/274/230 189/253/217 184/275/235
f 204/276/236 183/277/237 151/278/238
f 169/279/239 186/269/231 187/280/240
f 170/281/241 187/280/240 156/265/227
f 171/282/242 156/265/227 181/283/243
f 172/284/228 155/274/230 168/285/244
f 181/286/243 177/287/245 178/288/246
f 181/283/243 156/265/227 177/289/245
f 187/280/240 154/261/222 176/264/226
f 183/290/237 205/291/247 161/245/209
f 183/277/237 161/292/209 195/293/248
f 188/255/219 159/256/220 185/257/221
f 149/250/214 208/248/212 194/247/211
f 194/247/211 199/249/213 190/252/216
f 160/246/210 161/245/209 205/291/247
f 175/294/249 150/263/225 191/262/224
f 165/233/198 196/239/203 176/264/226
f 177/287/245 197/295/199 178/288/246
f 167/238/202 179/237/201 157/296/250
f 232/216/181 233/215/180 207/232/197
f 210/220/185 165/233/198 193/240/204 234/221/186
f 235/223/188 193/240/204 164/241/205 225/224/189
f 236/297/191 224/225/190 192/242/206
f 238/227/192 192/298/206 191/260/224 237/228/193
f 239/184/149 226/231/196 162/244/208
f 240/187/152 195/293/248 241/188/153
f 229/191/156 242/190/155 161/245/209
f 243/200/165 244/199/164 208/248/212
f 202/299/251 172/266/228 201/300/252
f 204/276/236 151/278/238 186/301/231
f 201/302/252 168/285/244 173/271/232
f 171/303/242 172/266/228 202/299/251
f 201/302/252 173/271/232 209/304/253
f 202/305/251 169/279/239 170/281/241
f 228/192/157 160/246/210 159/256/220 198/306/254 249/193/158
f 235/223/188 251/222/187 193/240/204
f 251/222/187 234/221/186 193/240/204
f 211/219/184 212/218/183 207/232/197
f 165/233/198 207/232/197 196/239/203
f 192/242/206 164/241/205 175/294/249
f 191/262/224 192/242/206 175/294/249
f 253/229/194 191/260/224 163/243/207 227/230/195
f 239/184/149 162/244/208 203/307/255 254/185/150
f 158/254/218 198/306/254 159/256/220
f 190/252/216 199/249/213 198/306/254
f 158/254/218 190/252/216 198/306/254
f 162/244/208 163/243/207 153/259/223 152/308/256
f 157/296/250 149/250/214 194/247/211
f 157/296/250 194/247/211 174/251/215
f 188/255/219 158/254/218 159/256/220
f 185/257/221 160/246/210 205/291/247
f 151/278/238 183/277/237 195/293/248
f 152/308/256 151/278/238 195/293/248
f 166/235/200 167/309/202 178/288/246 206/310/257
f 191/260/224 153/259/223 163/243/207
f 177/289/245 156/265/227 196/239/203
f 157/296/250 174/251/215 155/274/230 180/311/229
f 185/257/221 173/271/232 168/285/244 184/275/235
f 172/266/228 178/288/246 180/267/229
f 172/266/228 181/286/243 178/288/246
f 156/265/227 187/280/240 176/264/226
f 187/280/240 186/269/231 154/261/222
f 186/301/231 152/308/256 153/259/223
f 183/277/237 200/312/234 182/313/233
f 185/257/221 205/291/247 182/272/233
f 184/275/235 188/255/219 185/257/221
f 155/274/230 174/251/215 189/253/217
f 168/285/244 155/274/230 184/275/235
f 204/276/236 200/312/234 183/277/237
f 186/301/231 151/278/238 152/308/256
f 170/281/241 169/279/239 187/280/240
f 171/282/242 170/281/241 156/265/227
f 171/303/242 181/286/243 172/266/228
f 180/311/229 167/238/202 157/296/250
f 180/267/229 178/288/246 167/309/202
f 176/264/226 154/261/222 150/263/225
f 183/290/237 182/272/233 205/291/247
f 184/275/235 189/253/217 188/255/219
f 174/251/215 194/247/211 190/252/216
f 189/253/217 190/252/216 158/254/218
f 195/293/248 203/307/255 152/308/256
f 203/307/255 162/244/208 152/308/256
f 175/294/249 164/241/205 150/263/225
f 196/239/203 197/234/199 177/289/245
f 178/288/246 197/295/199 206/310/257
f 157/296/250 179/237/201 149/250/214
f 223/213/178 214/212/177 197/234/199
f 253/229/194 237/228/193 191/260/224
f 238/227/192 236/226/191 192/298/206
f 240/187/152 255/186/151 195/293/248
f 201/302/252 172/284/228 168/285/244
f 169/314/239 204/276/236 186/301/231
f 204/276/236 209/315/253 200/312/234
f 209/304/253 173/271/232 200/273/234
f 202/305/251 170/281/241 171/282/242
f 169/316/239 209/315/253 204/276/236
f 202/305/251 209/317/253 169/279/239
f 202/318/251 201/302/252 209/304/253
f 195/293/248 255/186/151 254/185/150 203/307/255
f 198/306/254 257/196/161 248/195/160
f 198/306/254 248/195/160 247/194/159
f 198/306/254 247/194/159 249/193/158
f 199/249/213 246/198/163 245/197/162
f 199/249/213 245/197/162 257/196/161 198/306/254
f 208/248/212 244/199/164 246/198/163 199/249/213
f 208/248/212 149/250/214 256/201/166 243/200/165
f 161/245/209 242/190/155 250/189/154
f 161/319/209 250/320/154 241/188/153 195/293/248
f 149/250/214 230/202/167 256/201/166
f 207/232/197 233/215/180 222/214/179 196/239/203
f 179/237/201 220/204/169 221/203/168 149/250/214
f 179/237/201 231/205/170 220/204/169
f 179/237/201 219/321/171 231/205/170
f 166/235/200 218/207/172 219/206/171 179/322/201
f 206/310/257 252/209/174 217/208/173 166/235/200
f 206/310/257 216/210/175 252/209/174
f 197/295/199 215/323/176 216/210/175 206/310/257
f 207/232/197 213/217/182 232/216/181
o cucumber.003
v -0.059158 0.060306 -0.053313
v -0.049316 0.071230 -0.046995
v -0.046450 0.076691 -0.040367
v -0.014963 0.079739 -0.038011
v -0.008274 0.073446 -0.050095
v -0.001292 0.071159 -0.053815
v 0.003519 0.051523 -0.052990
v -0.046973 0.071870 -0.008311
v -0.039292 0.076833 -0.019892
v -0.028723 0.080182 -0.023815
v -0.009769 0.078099 -0.019870
v -0.001394 0.063671 -0.015420
v 0.005880 0.055217 -0.018565
v 0.003070 0.038521 -0.009112
v -0.012061 0.018979 -0.033347
v -0.024140 0.011674 -0.012807
v -0.030298 0.014881 -0.041023
v -0.039943 0.017414 -0.029854
v -0.056012 0.033554 -0.029684
v -0.059935 0.049028 -0.041125
v -0.042687 0.073599 -0.003987
v -0.052204 0.065306 -0.021114
v -0.062558 0.055698 -0.039175
v -0.018673 0.077087 -0.022501
v 0.000525 0.032330 -0.033461
v -0.007343 0.018694 -0.040901
v -0.026500 0.012157 -0.044022
v -0.062230 0.042091 -0.036083
v -0.035318 0.082101 -0.050062
v 0.007916 0.061896 -0.045055
v -0.023187 0.081368 -0.056726
v -0.000027 0.064745 -0.049431
v -0.049321 0.024026 -0.032740
v -0.030978 0.077195 -0.013563
v -0.000900 0.033256 -0.056949
v -0.007072 0.025574 -0.056949
v -0.008607 0.023912 -0.056949
v -0.008448 0.022677 -0.056949
v -0.023065 0.016868 -0.056949
v -0.023537 0.017468 -0.056949
v -0.032261 0.017697 -0.056949
v -0.037675 0.019911 -0.056949
v -0.044034 0.023421 -0.056949
v -0.053072 0.032572 -0.056949
v -0.056937 0.038293 -0.056949
v -0.057164 0.039919 -0.056949
v -0.058743 0.045796 -0.056949
v -0.059718 0.052442 -0.056949
v 0.003581 0.053219 -0.056949
v 0.003548 0.051557 -0.056949
v -0.001615 0.071732 -0.056949
v -0.000814 0.071143 -0.056949
v -0.036396 0.083334 -0.056949
v -0.031538 0.082399 -0.056949
v -0.061252 0.056630 -0.056949
v -0.022287 0.017809 -0.056949
v -0.021136 0.018065 -0.056949
v -0.059493 0.042677 -0.056949
v -0.009424 0.023080 -0.056949
v 0.001393 0.037583 -0.056949
v 0.003292 0.049973 -0.056949
v 0.006141 0.061014 -0.056949
v 0.000637 0.065037 -0.056949
v 0.001231 0.063151 -0.056949
v -0.006839 0.073838 -0.056949
v -0.015829 0.082826 -0.056949
v -0.023110 0.081421 -0.056949
v -0.027430 0.082246 -0.056949
v -0.059527 0.061012 -0.056949
v -0.058341 0.064630 -0.056949
v -0.051291 0.071138 -0.056949
v -0.053027 0.069804 -0.056949
v -0.042529 0.079121 -0.056949
v -0.043536 0.078858 -0.056949
v -0.040167 0.080338 -0.056949
v -0.023293 0.081405 -0.056949
v 0.002414 0.041030 -0.056949
v -0.048704 0.026540 -0.056949
v -0.000849 0.070655 -0.056949
v -0.007833 0.076433 -0.056949
v -0.010527 0.076777 -0.056949
v -0.059184 0.060016 -0.056949
v -0.044656 0.077100 -0.056949
v -0.058219 0.053347 -0.003318
v -0.050724 0.026287 -0.003352
v -0.048606 0.023802 -0.003361
v -0.023254 0.013393 -0.003477
v -0.023870 0.014883 -0.003474
v -0.007034 0.022315 -0.003550
v -0.005501 0.023941 -0.003557
v -0.002892 0.068646 -0.003569
v -0.032391 0.076946 -0.003435
v -0.030458 0.078093 -0.003444
v -0.047278 0.071350 -0.003367
v -0.056358 0.057164 -0.003326
v -0.003533 0.070033 -0.003566
v -0.003143 0.069898 -0.003568
v -0.006437 0.022370 -0.003553
v -0.058643 0.054358 -0.003316
v -0.020623 0.080131 -0.003488
v -0.020541 0.080032 -0.003489
v -0.050768 0.066763 -0.003351
v -0.042702 0.073644 -0.003388
v 0.003098 0.039099 -0.003596
v -0.020813 0.080120 -0.003488
v -0.006499 0.022860 -0.003553
v -0.057782 0.041379 -0.003320
v -0.054315 0.031385 -0.003335
v -0.042814 0.019701 -0.003388
v -0.013746 0.018703 -0.003520
v -0.020259 0.015759 -0.003490
v -0.010324 0.018640 -0.003535
v -0.000485 0.031760 -0.003580
v 0.001043 0.060848 -0.003587
v 0.005378 0.055812 -0.003607
v -0.001815 0.064008 -0.003574
v -0.028774 0.080452 -0.003451
v -0.042441 0.073691 -0.003389
v -0.037226 0.076674 -0.003413
v -0.047532 0.072294 -0.003366
v -0.052375 0.065465 -0.003344
v -0.058062 0.054838 -0.003318
v 0.003215 0.051689 -0.003597
v 0.003056 0.040006 -0.003596
v -0.022459 0.015269 -0.003480
v -0.057185 0.038980 -0.003322
v -0.058174 0.040479 -0.003318
v -0.042968 0.073590 -0.003387
v -0.031438 0.015992 -0.003439
v -0.037926 0.017528 -0.003410
v 0.002866 0.038355 -0.003595
v 0.000437 0.033478 -0.003584
v 0.003418 0.038604 -0.003598
v 0.005135 0.054359 -0.003606
v -0.008671 0.075220 -0.003543
v -0.013162 0.078741 -0.003522
v -0.008348 0.074305 -0.003544
vn 0.0932 -0.7451 0.6604
vn 0.3246 -0.7708 0.5482
vn 0.2954 -0.7335 0.6121
vn 0.5554 -0.6030 0.5727
vn 0.7458 -0.2651 0.6111
vn 0.5714 -0.4510 0.6856
vn 0.6093 -0.3516 0.7107
vn 0.6233 -0.3118 0.7172
vn 0.5395 -0.5279 0.6559
vn 0.7863 -0.2345 0.5717
vn 0.7256 0.2451 0.6430
vn 0.6933 0.0165 0.7205
vn 0.6990 -0.2344 0.6756
vn 0.6847 -0.3681 0.6291
vn 0.7961 0.1650 0.5822
vn 0.5716 0.4766 0.6679
vn 0.6985 0.3319 0.6340
vn 0.7090 0.1506 0.6889
vn 0.6141 0.5081 0.6039
vn 0.4163 0.5952 0.6873
vn 0.5924 0.3810 0.7099
vn 0.6618 0.4217 0.6199
vn 0.2519 0.7566 0.6035
vn 0.4073 0.6395 0.6520
vn 0.3755 0.6876 0.6214
vn 0.0429 0.7148 0.6980
vn -0.3015 0.7237 0.6208
vn -0.5251 0.5751 0.6273
vn -0.1898 0.7515 0.6319
vn -0.1753 0.7325 0.6578
vn -0.2956 0.6414 0.7080
vn -0.1551 0.6806 0.7161
vn -0.1845 0.6832 0.7066
vn -0.7583 0.4729 0.4488
vn -0.8064 0.2205 0.5487
vn -0.5076 0.5203 0.6868
vn -0.5658 0.4804 0.6702
vn -0.5848 0.3942 0.7090
vn -0.5169 0.4889 0.7027
vn -0.6959 0.2365 0.6781
vn -0.7080 -0.1959 0.6785
vn -0.7265 0.1348 0.6739
vn -0.7499 -0.0404 0.6604
vn -0.6576 -0.2974 0.6922
vn -0.6759 -0.3233 0.6623
vn -0.5533 -0.4529 0.6991
vn -0.4805 -0.5569 0.6775
vn -0.3649 -0.6101 0.7033
vn -0.2348 -0.6722 0.7021
vn -0.0966 -0.7616 0.6408
vn -0.5274 -0.5808 0.6201
vn -0.0551 -0.8555 0.5148
vn 0.4433 -0.6907 0.5713
vn 0.1839 -0.7464 0.6396
vn -0.9962 -0.0874 -0.0058
vn -0.3692 -0.9266 -0.0706
vn -0.0808 -0.9915 0.1020
vn 0.2193 -0.9750 -0.0367
vn 0.8681 -0.4955 -0.0280
vn 0.9968 -0.0738 0.0317
vn 0.8683 0.4932 0.0537
vn -0.5026 0.8638 0.0340
vn -0.6825 0.7308 -0.0060
vn -0.8037 0.5929 0.0507
vn 0.2984 0.9544 -0.0038
vn 0.2984 0.9504 0.0874
vn 0.0362 0.9926 0.1162
vn 0.7739 0.6265 0.0927
vn 0.6211 0.7814 0.0603
vn 0.9120 0.4091 -0.0295
vn 0.8346 0.5498 0.0332
vn 0.9773 -0.2114 -0.0169
vn -0.3299 -0.5938 -0.7339
vn -0.4118 -0.9110 -0.0214
vn -0.3865 -0.5770 -0.7195
vn -0.6985 -0.1774 -0.6933
vn -0.8311 -0.5549 0.0367
vn -0.6359 -0.3204 -0.7022
vn -0.7240 0.0302 -0.6891
vn -0.7045 -0.1660 -0.6900
vn -0.7648 0.6404 0.0706
vn -0.6934 0.7204 0.0157
vn -0.3101 0.9422 0.1267
vn -0.2344 0.9681 0.0887
vn 0.6289 0.7774 -0.0153
vn 0.9753 -0.2208 -0.0047
vn 0.0414 0.7701 -0.6366
vn -0.1402 0.7982 -0.5859
vn 0.2944 0.8086 -0.5094
vn 0.4729 0.7515 -0.4599
vn 0.4186 0.6990 -0.5798
vn 0.5663 0.6690 -0.4813
vn 0.3616 0.7155 -0.5977
vn 0.7118 0.4335 -0.5526
vn 0.7936 0.1237 -0.5958
vn 0.7023 0.2781 -0.6553
vn 0.4734 0.5869 -0.6568
vn 0.7252 0.3330 -0.6026
vn 0.6975 -0.0967 -0.7100
vn 0.7468 -0.0243 -0.6646
vn 0.6838 -0.0750 -0.7258
vn 0.6859 -0.1284 -0.7163
vn 0.6461 -0.2534 -0.7199
vn 0.6112 -0.3698 -0.6997
vn 0.4893 -0.4646 -0.7380
vn 0.7107 -0.2080 -0.6720
vn 0.5324 -0.4892 -0.6908
vn 0.0019 -0.6562 -0.7546
vn 0.2266 -0.7146 -0.6619
vn 0.4590 -0.5969 -0.6580
vn 0.0682 -0.7373 -0.6721
vn -0.3209 -0.5861 -0.7440
vn -0.0833 -0.6618 -0.7451
vn -0.4908 -0.5404 -0.6834
vn -0.5300 -0.4395 -0.7252
vn -0.7411 -0.1783 -0.6473
vn -0.7237 0.1172 -0.6801
vn -0.7577 0.0992 -0.6451
vn -0.8055 0.0061 -0.5925
vn -0.6880 0.3945 -0.6091
vn -0.4704 0.5463 -0.6930
vn -0.4987 0.5307 -0.6853
vn -0.6161 0.3697 -0.6955
vn -0.3927 0.5933 -0.7027
vn -0.3237 0.6673 -0.6708
vn -0.4355 0.6164 -0.6561
vn -0.2432 0.8460 -0.4745
vn 0.0622 0.7823 -0.6198
vn 0.0631 0.7710 -0.6338
vn -0.3421 0.9387 0.0425
vn -0.9854 -0.1700 -0.0000
vn -0.2573 0.9585 0.1226
vn 0.5303 -0.7893 -0.3094
vn -0.7021 -0.7097 -0.0577
vn -0.8971 0.4369 0.0658
vn 0.1654 -0.9694 -0.1811
vn -0.9871 0.1600 0.0009
vt 0.098531 0.484144
vt 0.109390 0.480352
vt 0.127073 0.471983
vt 0.129640 0.471915
vt 0.130096 0.470515
vt 0.135609 0.468337
vt 0.167086 0.454297
vt 0.174621 0.450691
vt 0.201113 0.440908
vt 0.202784 0.440622
vt 0.204060 0.440015
vt 0.208291 0.437892
vt 0.249415 0.404718
vt 0.262176 0.398525
vt 0.270724 0.396950
vt 0.818223 0.335833
vt 0.836695 0.326693
vt 0.858712 0.310735
vt 0.864743 0.306863
vt 0.867207 0.307089
vt 0.896328 0.305302
vt 0.900182 0.302542
vt 0.928679 0.297997
vt 0.969038 0.295672
vt 0.969521 0.295517
vt 0.609505 0.299635
vt 0.583358 0.297453
vt 0.571249 0.290351
vt 0.560463 0.288203
vt 0.537216 0.286775
vt 0.509339 0.280663
vt 0.508072 0.280666
vt 0.506704 0.280199
vt 0.484569 0.277213
vt 0.483862 0.276847
vt 0.449764 0.265409
vt 0.437636 0.261570
vt 0.397310 0.239091
vt 0.384510 0.232569
vt 0.381359 0.231613
vt 0.377023 0.228792
vt 0.323615 0.197552
vt 0.320170 0.195478
vt 0.751866 0.305193
vt 0.728595 0.290324
vt 0.703525 0.277077
vt 0.688008 0.271568
vt 0.657580 0.261487
vt 0.637075 0.255448
vt 0.619743 0.233265
vt 0.054060 0.497084
vt 0.056156 0.499044
vt 0.061265 0.495476
vt 0.069394 0.493522
vt 0.345033 0.267969
vt 0.020135 0.462248
vt 0.050145 0.492649
vt 0.098928 0.452764
vt 0.168990 0.422778
vt 0.796605 0.347334
vt 0.794356 0.327585
vt 0.830580 0.312671
vt 0.566746 0.302004
vt 0.487010 0.284590
vt 0.436349 0.284951
vt 0.955627 0.278139
vt 0.935477 0.247034
vt 0.978135 0.231609
vt 0.853190 0.245877
vt 0.897288 0.254324
vt 0.799465 0.284397
vt 0.831505 0.270397
vt 0.263798 0.377278
vt 0.240431 0.341511
vt 0.275624 0.317956
vt 0.638752 0.323080
vt 0.640429 0.286380
vt 0.665710 0.330682
vt 0.748111 0.368328
vt 0.736625 0.327185
vt 0.749251 0.372385
vt 0.330016 0.279778
vt 0.358912 0.295689
vt 0.465944 0.328030
vt 0.495157 0.336975
vt 0.526449 0.307966
vt 0.552555 0.361624
vt 0.913912 0.275068
vt 0.202127 0.434996
vt 0.606382 0.366106
vt 0.977771 0.231023
vt 0.941375 0.214281
vt 0.910663 0.234918
vt 0.900258 0.235452
vt 0.891151 0.242213
vt 0.856817 0.240635
vt 0.852081 0.241774
vt 0.850915 0.242358
vt 0.831291 0.257825
vt 0.825207 0.265097
vt 0.269086 0.305285
vt 0.244525 0.330783
vt 0.238044 0.337261
vt 0.232803 0.342369
vt 0.196409 0.372882
vt 0.182456 0.381837
vt 0.162863 0.395509
vt 0.127140 0.413823
vt 0.118667 0.417163
vt 0.117518 0.420699
vt 0.114048 0.419403
vt 0.064810 0.434278
vt 0.060559 0.435294
vt 0.056267 0.437734
vt 0.054177 0.436712
vt 0.015518 0.435107
vt 0.689914 0.338470
vt 0.720559 0.353663
vt 0.311140 0.276382
vt 0.318154 0.272241
vt 0.377232 0.307153
vt 0.396255 0.316163
vt 0.398992 0.318710
vt 0.413010 0.326916
vt 0.443664 0.340473
vt 0.455785 0.341959
vt 0.497770 0.353012
vt 0.507227 0.357812
vt 0.511553 0.357504
vt 0.525216 0.362267
vt 0.551805 0.375924
vt 0.570558 0.370969
vt 0.589773 0.370873
vt 0.508033 0.281232
vt 0.026635 0.507297
vt 0.319524 0.244958
vt 0.582183 0.325521
vt 0.606791 0.365668
vt 0.117541 0.447232
vt 0.689467 0.306011
vt 0.298688 0.249138
vt 0.978356 0.230813
vt 0.398361 0.312696
vt 0.037740 0.462911
vt 0.374340 0.283963
vt 0.804999 0.271274
vt 0.000478 0.459421
vt 0.004273 0.424369
vt 0.613812 0.263517
vt 0.755712 0.305743
vt 0.758206 0.336166
vt 0.610217 0.299618
s 1
usemtl Material.003
f 367/324/258 369/325/259 346/326/260 355/327/261 363/328/262 347/329/263 370/330/264 389/331/265 388/332/266 390/333/267 361/334/268 381/335/269 380/336/270 391/337/271 372/338/272 371/339/273 373/340/274 348/341/275 354/342/276 353/343/277 394/344/278 392/345/279 393/346/280 358/347/281 357/348/282 362/349/283 374/350/284 350/351/285 349/352/286 376/353/287 375/354/288 360/355/289 385/356/290 377/357/291 351/358/292 359/359/293 378/360/294 352/361/295 379/362/296 356/363/297 341/364/298 364/365/299 384/366/300 383/367/301 365/368/302 342/369/303 343/370/304 366/371/305 387/372/306 386/373/307 345/374/308 344/375/309 382/376/310 368/377/311
f 364/365/299 341/364/298 277/378/312
f 345/374/308 274/379/313 273/380/314 344/375/309
f 367/324/258 368/377/311 272/381/315
f 369/325/259 272/381/315 346/326/260
f 370/330/264 347/329/263 282/382/316
f 372/383/272 270/384/317 269/385/318 371/339/273
f 373/340/274 269/385/318 348/341/275
f 349/352/286 350/351/285 291/386/319
f 351/358/292 377/357/291 265/387/320
f 352/361/295 378/360/294 279/388/321
f 281/389/322 261/390/323 288/391/324
f 354/342/276 263/392/325 262/393/326 353/343/277
f 269/385/318 287/394/327 289/395/328
f 270/396/317 264/397/329 287/398/327
f 299/399/330 275/400/331 300/401/332
f 302/402/333 276/403/334 303/404/335
f 304/405/336 277/378/312 305/406/337
f 259/407/338 265/387/320 260/408/339
f 266/409/340 291/386/319 286/410/341
f 358/347/281 281/389/322 288/391/324 357/348/282
f 281/389/322 268/411/342 261/390/323
f 269/385/318 270/384/317 287/394/327
f 381/335/269 271/412/343 264/397/329 380/336/270
f 333/413/344 324/414/345 323/415/346 338/416/347 337/417/348 322/418/349 308/419/350 309/420/351 336/421/352 320/422/353 321/423/354 319/424/355 306/425/356 307/426/357 318/427/358 334/428/359 317/429/360 292/430/361 293/431/362 294/432/363 295/433/364 316/434/365 314/435/366 313/436/367 296/437/368 297/438/369 298/439/370 299/399/330 300/401/332 335/440/371 301/441/372 302/402/333 303/442/335 315/443/373 304/405/336 305/406/337 312/444/374 339/445/375 326/446/376 327/447/377 329/448/378 328/449/379 340/450/380 331/451/381 330/452/382 332/453/383 310/454/384 311/455/385 325/456/386
f 385/356/290 360/355/289 278/457/387
f 345/374/308 386/458/307 274/379/313
f 315/443/373 285/459/388 277/378/312 304/405/336
f 389/331/265 370/330/264 282/382/316
f 390/333/267 388/332/266 271/412/343
f 381/335/269 361/334/268 271/412/343
f 361/334/268 390/333/267 271/412/343
f 372/338/272 391/337/271 270/396/317
f 373/340/274 371/339/273 269/385/318
f 392/345/279 268/411/342 393/346/280
f 393/346/280 268/411/342 281/389/322 358/347/281
f 329/448/378 279/388/321 259/407/338 328/449/379
f 331/451/381 260/408/339 266/409/340 330/452/382
f 330/452/382 266/409/340 286/410/341 332/453/383
f 286/410/341 291/386/319 267/460/389
f 325/456/386 267/460/389 288/461/324 333/413/344
f 261/390/323 268/411/342 262/393/326
f 295/433/364 283/462/390 272/381/315 316/434/365
f 300/401/332 275/400/331 290/463/391 335/440/371
f 303/442/335 276/464/334 285/459/388 315/443/373
f 338/416/347 262/393/326 337/417/348
f 333/465/344 288/391/324 324/414/345
f 266/409/340 260/408/339 265/387/320 278/457/387
f 326/446/376 339/445/375 258/466/392
f 259/407/338 279/388/321 265/387/320
f 394/344/278 353/343/277 262/393/326
f 346/326/260 272/381/315 283/462/390 355/327/261
f 284/467/393 273/380/314 274/379/313
f 335/440/371 290/463/391 301/441/372
f 297/438/369 274/379/313 298/439/370
f 328/449/379 259/407/338 340/450/380
f 340/450/380 259/407/338 260/408/339 331/451/381
f 327/447/377 279/388/321 329/448/378
f 312/444/374 280/468/394 258/466/392 339/445/375
f 258/466/392 279/388/321 327/447/377 326/446/376
f 261/390/323 323/415/346 324/414/345 288/391/324
f 261/390/323 262/393/326 338/416/347 323/415/346
f 262/393/326 322/418/349 337/417/348
f 289/395/328 321/423/354 320/422/353
f 263/392/325 289/395/328 320/422/353 336/421/352
f 289/395/328 287/394/327 319/469/355 321/423/354
f 264/397/329 271/412/343 334/428/359 318/427/358
f 271/412/343 282/382/316 317/429/360 334/428/359
f 272/381/315 314/435/366 316/434/365
f 382/376/310 313/436/367 314/435/366 272/381/315 368/377/311
f 286/410/341 267/460/389 325/456/386 311/455/385
f 286/410/341 311/455/385 310/454/384
f 286/410/341 310/454/384 332/453/383
f 263/392/325 336/421/352 309/420/351
f 263/392/325 309/420/351 308/419/350
f 262/393/326 263/392/325 308/419/350 322/418/349
f 264/397/329 318/427/358 307/426/357
f 264/397/329 307/426/357 306/425/356
f 287/398/327 264/397/329 306/425/356 319/424/355
f 277/378/312 280/468/394 312/444/374 305/406/337
f 290/463/391 276/403/334 302/402/333 301/441/372
f 274/379/313 275/470/331 299/471/330 298/439/370
f 284/467/393 274/379/313 297/438/369 296/437/368
f 355/327/261 283/462/390 295/433/364 294/432/363 363/328/262
f 282/382/316 293/431/362 292/430/361
f 282/382/316 292/430/361 317/429/360
f 362/349/283 267/460/389 374/350/284
f 268/411/342 392/345/279 394/344/278 262/393/326
f 271/412/343 388/332/266 389/331/265 282/382/316
f 274/472/313 386/373/307 387/372/306 275/400/331
f 276/403/334 383/367/301 384/473/300 285/474/388
f 270/396/317 391/337/271 380/336/270 264/397/329
f 265/387/320 377/357/291 385/356/290 278/457/387
f 278/457/387 375/354/288 376/353/287 266/409/340
f 272/381/315 369/325/259 367/324/258
f 275/400/331 387/372/306 366/371/305
f 276/403/334 365/368/302 383/367/301
f 285/459/388 384/366/300 364/365/299 277/378/312
f 278/457/387 360/355/289 375/354/288
f 279/388/321 378/360/294 359/359/293
f 267/460/389 362/349/283 357/475/282 288/461/324
f 280/468/394 356/363/297 379/362/296 258/466/392
f 258/466/392 379/362/296 352/361/295 279/388/321
f 279/388/321 359/359/293 351/358/292 265/387/320
f 291/386/319 350/351/285 374/350/284 267/460/389
f 266/409/340 376/353/287 349/352/286 291/386/319
f 289/395/328 263/392/325 354/342/276 348/341/275 269/385/318
f 282/382/316 347/329/263 363/328/262 294/432/363 293/431/362
f 284/467/393 296/437/368 313/436/367 382/376/310 344/375/309 273/380/314
f 275/400/331 366/371/305 343/370/304 290/463/391
f 290/463/391 342/369/303 365/368/302 276/403/334
f 290/463/391 343/370/304 342/369/303
f 277/378/312 341/364/298 356/363/297 280/468/394
