# Blender 4.5.3 LTS
# www.blender.org
mtllib melon.mtl
o melon.002
v 0.000521 0.179527 0.023238
v -0.100702 0.135953 0.075544
v -0.103459 0.098282 0.091234
v -0.048401 0.173064 0.075600
v -0.003243 0.106948 0.113459
v 0.026706 0.157069 0.014095
v -0.088011 0.164927 0.055973
v -0.128397 0.108285 0.021015
v -0.112961 0.068537 0.065087
v -0.046039 0.028234 0.079923
v -0.072278 0.112688 0.115873
v 0.002317 0.051814 0.093484
v -0.013751 0.156044 0.093534
v -0.058581 0.133583 0.112235
v -0.025699 0.074040 0.119709
v -0.039867 0.106788 0.120109
v -0.038629 0.106843 0.117256
v -0.126983 0.081444 0.019025
v -0.091766 0.116964 0.100486
v 0.010734 0.137236 0.091657
v -0.038787 0.107053 0.123915
v -0.106318 0.154361 0.036130
v -0.121298 0.094543 0.055906
v -0.003564 0.027345 0.064536
v 0.041521 0.083138 0.051697
v 0.040763 0.124662 0.046321
v -0.050549 0.189206 0.017942
v -0.036451 0.010074 0.035452
v -0.013466 0.036315 0.086898
v 0.026917 0.058812 0.068048
v -0.002771 0.164447 0.074828
v -0.087394 0.092159 0.107620
v -0.070174 0.073853 0.114179
v 0.025989 0.121588 0.082593
v -0.042430 0.083493 0.121938
v -0.041253 0.127189 0.117034
v -0.042907 0.102729 0.117786
v -0.042044 0.105876 0.117443
v -0.039529 0.108417 0.123037
v 0.003580 0.018771 0.025032
v 0.047672 0.082687 0.015397
v 0.047123 0.110530 0.025900
v 0.023465 0.151040 0.055050
v -0.020025 0.187052 0.015387
v -0.113032 0.118011 0.069043
v -0.064483 0.018812 0.048542
v 0.025711 0.080840 0.086429
v -0.028422 0.177434 0.066258
v -0.080859 0.139132 0.096933
v -0.081167 0.048779 0.088132
v -0.050230 0.049093 0.105280
v -0.004102 0.072955 0.111168
v 0.002402 0.097744 0.111886
v -0.018068 0.101652 0.119880
v -0.041187 0.107589 0.123581
v -0.040446 0.105531 0.124027
v -0.123441 0.128799 0.021259
v -0.088870 0.023292 0.014686
v -0.092405 0.036890 0.051931
v -0.113872 0.050654 0.024608
v 0.033166 0.048237 0.033371
v -0.067466 0.178664 0.050298
v -0.098524 0.071570 0.090020
v -0.064843 0.156726 0.091102
v -0.020173 0.133989 0.112419
v -0.062205 0.081982 0.119584
v -0.061921 0.097010 0.120283
v -0.038703 0.150717 0.104142
v -0.042287 0.113390 0.117922
v -0.037082 0.102896 0.117658
v -0.039670 0.100583 0.117757
v -0.086446 0.177054 0.012595
v -0.034596 0.061637 0.115847
v -0.125036 0.118384 0.004856
v -0.122856 0.133444 0.004856
v -0.128090 0.105780 0.004856
v -0.127196 0.088544 0.004856
v -0.126039 0.080881 0.004856
v -0.124052 0.072821 0.004856
v -0.107397 0.043704 0.004856
v -0.117323 0.056698 0.004856
v 0.045339 0.117301 0.004856
v 0.047716 0.105467 0.004856
v -0.000214 0.177890 0.004856
v 0.010124 0.170707 0.004856
v -0.095067 0.170356 0.004856
v -0.102983 0.162960 0.004856
v -0.118745 0.140376 0.004856
v -0.014427 0.010622 0.004856
v 0.003567 0.018752 0.004856
v 0.014808 0.027272 0.004856
v 0.031376 0.148038 0.004856
v 0.042400 0.124822 0.004856
v -0.059131 0.186036 0.004856
v -0.083896 0.177735 0.004856
v -0.090300 0.024940 0.004856
v -0.070730 0.013776 0.004856
v 0.045869 0.077590 0.004856
v 0.047884 0.088645 0.004856
v 0.026033 0.157278 0.004856
v -0.044413 0.188310 0.004856
v -0.022750 0.186848 0.004856
v -0.061488 0.009812 0.004856
v -0.057545 0.008934 0.004856
v -0.019968 0.009172 0.004856
v 0.027643 0.039640 0.004856
v 0.037678 0.057488 0.004856
vn -0.7053 -0.0611 -0.7063
vn -0.9736 -0.2125 0.0834
vn -0.9894 0.1071 0.0977
vn -0.7240 0.0573 -0.6874
vn -0.6833 -0.1366 -0.7172
vn -0.6846 -0.2471 -0.6858
vn 0.3311 0.6123 -0.7180
vn 0.4825 0.8700 0.1010
vn 0.4360 0.5474 -0.7143
vn -0.5680 0.5105 -0.6456
vn -0.7743 0.5928 0.2217
vn -0.5057 0.8604 0.0629
vn -0.4953 0.5666 -0.6585
vn -0.9306 0.3384 0.1394
vn -0.8752 0.2673 0.4031
vn -0.7159 0.2799 -0.6397
vn -0.6346 0.3977 -0.6627
vn -0.6477 -0.3507 -0.6764
vn -0.8261 -0.5501 0.1228
vn -0.8434 -0.3839 0.3759
vn -0.9487 -0.0285 0.3150
vn 0.2257 -0.7318 -0.6431
vn 0.3735 -0.6282 -0.6826
vn 0.4915 -0.8567 0.1567
vn 0.8198 -0.5460 0.1725
vn 0.4169 -0.8267 0.3778
vn 0.4935 -0.5509 -0.6731
vn -0.2959 0.6507 -0.6993
vn -0.1173 0.9904 0.0727
vn -0.1890 0.6795 -0.7090
vn -0.5823 0.7277 0.3624
vn -0.3116 0.9029 0.2960
vn -0.1244 0.8657 0.4849
vn -0.7430 0.4825 0.4639
vn -0.5403 0.5286 0.6547
vn -0.3508 0.7079 0.6131
vn -0.8114 0.0101 0.5845
vn -0.6741 0.2729 0.6864
vn -0.7150 -0.3659 0.5957
vn -0.5068 -0.6568 0.5584
vn -0.6132 -0.7218 0.3210
vn -0.3267 -0.8924 0.3113
vn 0.7777 -0.4848 0.4000
vn 0.9444 -0.1358 0.2993
vn 0.8079 -0.1704 0.5642
vn 0.9244 0.2900 0.2477
vn 0.7425 0.6017 0.2945
vn 0.8194 0.2334 0.5236
vn 0.4699 0.7677 0.4358
vn 0.6240 0.4517 0.6377
vn -0.3909 0.2056 0.8972
vn -0.2483 0.4558 0.8548
vn -0.4154 -0.3722 0.8300
vn -0.6112 -0.0860 0.7868
vn -0.1627 -0.6676 0.7265
vn -0.1054 -0.8564 0.5054
vn 0.2629 -0.7691 0.5826
vn 0.0608 -0.5099 0.8581
vn 0.4722 -0.3282 0.8181
vn 0.5284 -0.5653 0.6334
vn 0.5717 0.0111 0.8204
vn 0.4665 0.2141 0.8582
vn 0.3072 0.6900 0.6554
vn 0.2693 0.4150 0.8691
vn -0.0084 0.6567 0.7541
vn 0.1356 0.9160 0.3776
vn 0.1967 0.0764 0.9775
vn 0.1978 -0.2598 0.9452
vn -0.0237 -0.0649 0.9976
vn -0.2631 -0.1898 0.9459
vn -0.1988 0.0496 0.9788
vn -0.0126 0.2972 0.9547
vn 0.1086 0.2623 0.9589
vn -0.2344 -0.0849 0.9684
vn -0.0026 -0.0934 0.9956
vn 0.0257 0.0155 0.9995
vn 0.7706 -0.4405 -0.4606
vn -0.1899 -0.4510 0.8721
vn -0.6624 0.5461 0.5128
vn -0.1298 0.4106 0.9025
vn 0.3143 0.9288 -0.1965
vn 0.7135 0.2007 0.6713
vn 0.2857 0.9555 0.0739
vn 0.6890 -0.2243 -0.6892
vn 0.7227 -0.0391 -0.6900
vn 0.9809 -0.1847 0.0606
vn 0.7838 0.6193 0.0455
vn 0.5551 0.4714 -0.6853
vn -0.0086 0.7045 -0.7096
vn -0.5794 -0.8104 0.0862
vn -0.1148 -0.7673 -0.6309
vn 0.0303 -0.9733 0.2276
vn -0.2351 -0.7473 -0.6215
vn 0.1299 -0.7611 -0.6355
vn 0.5795 -0.4780 -0.6601
vn 0.6554 -0.3052 -0.6909
vn 0.9824 0.1530 0.1070
vn 0.6460 0.3219 -0.6922
vn 0.1429 0.7021 -0.6976
vn 0.2217 0.9740 0.0469
vn -0.3119 -0.6956 -0.6472
vn -0.4666 -0.5578 -0.6864
vn 0.6683 0.2886 -0.6856
vn 0.7264 0.0655 -0.6842
vn 0.6976 0.2182 -0.6825
vn -0.5390 -0.4614 -0.7047
vn -0.6889 0.1452 -0.7101
vt 0.687395 0.690958
vt 0.677157 0.718082
vt 0.642837 0.693118
vt 0.667038 0.673144
vt 0.696746 0.701192
vt 0.707399 0.712955
vt 0.447888 0.446821
vt 0.423752 0.469391
vt 0.432191 0.430312
vt 0.588053 0.591906
vt 0.558184 0.644737
vt 0.550705 0.571920
vt 0.574394 0.576833
vt 0.615731 0.661568
vt 0.558953 0.736926
vt 0.630008 0.634549
vt 0.619624 0.624926
vt 0.729655 0.733471
vt 0.712430 0.763603
vt 0.638669 0.804473
vt 0.611468 0.749748
vt 0.180474 0.178410
vt 0.206668 0.204777
vt 0.180226 0.231309
vt 0.225684 0.293405
vt 0.130562 0.278299
vt 0.223824 0.224034
vt 0.557382 0.558959
vt 0.497847 0.532480
vt 0.525656 0.527135
vt 0.504746 0.641664
vt 0.481715 0.600376
vt 0.417999 0.617988
vt 0.516120 0.713654
vt 0.451724 0.724674
vt 0.424373 0.679628
vt 0.557046 0.816323
vt 0.480291 0.771752
vt 0.599713 0.852553
vt 0.649600 0.889156
vt 0.709434 0.839553
vt 0.753309 0.883593
vt 0.187309 0.349158
vt 0.244962 0.365144
vt 0.177206 0.406777
vt 0.308796 0.416996
vt 0.339488 0.467790
vt 0.255670 0.475477
vt 0.348079 0.535007
vt 0.279823 0.530112
vt 0.424604 0.794145
vt 0.390535 0.744344
vt 0.531404 0.797821
vt 0.581028 0.922769
vt 0.544750 0.876837
vt 0.641021 0.957534
vt 0.713011 0.940541
vt 0.029678 0.343613
vt 0.093045 0.325919
vt 0.030723 0.385238
vt 0.054712 0.279005
vt 0.091935 0.412756
vt 0.116368 0.365901
vt 0.189725 0.446950
vt 0.121442 0.449741
vt 0.203631 0.504082
vt 0.198590 0.562586
vt 0.317504 0.578738
vt 0.254911 0.602049
vt 0.312315 0.632639
vt 0.399886 0.567451
vt 0.366848 0.699100
vt 0.192410 0.600961
vt 0.093479 0.472730
vt 0.056717 0.468484
vt 0.043918 0.416541
vt 0.019891 0.433814
vt 0.558094 0.987455
vt 0.557110 0.944315
vt 0.597888 0.983048
vt 0.526578 0.946897
vt 0.397782 0.814646
vt 0.358485 0.761450
vt 0.249464 0.643866
vt 0.026455 0.477307
vt 0.012357 0.459716
vt 0.014704 0.474718
vt 0.369795 0.817596
vt 0.356235 0.799205
vt 0.330577 0.838618
vt 0.208301 0.951589
vt 0.246626 0.827742
vt 0.158598 0.832367
vt 0.106387 0.972508
vt 0.083652 0.848641
vt 0.067799 0.901873
vt 0.349267 0.970179
vt 0.414346 0.921818
vt 0.440425 0.848686
vt 0.070433 0.979166
vt 0.301011 0.299757
vt 0.315377 0.314324
vt 0.295689 0.320780
vt 0.392484 0.418980
vt 0.405835 0.407295
vt 0.506259 0.508510
vt 0.772269 0.802884
vt 0.831093 0.839021
vt 0.791932 0.911079
vt 0.828767 0.832817
vt 0.110989 0.199107
vt 0.172712 0.171725
vt 0.247629 0.246192
vt 0.272620 0.270296
vt 0.315080 0.366561
vt 0.393159 0.393957
vt 0.478982 0.480837
vt 0.462564 0.490338
vt 0.472281 0.817883
vt 0.051653 0.772747
vt 0.066421 0.741946
vt 0.092653 0.754468
vt 0.581852 0.989643
vt 0.522661 0.907452
vt 0.015893 0.478105
vt 0.511916 0.987594
vt 0.353288 0.813046
vt 0.351387 0.811119
vt 0.203747 0.643578
vt 0.222069 0.647302
vt 0.185903 0.642442
vt 0.083908 0.783801
vt 0.036226 0.848438
vt 0.409696 0.979253
vt 0.147217 0.138821
vt 0.815092 0.818505
vt 0.782217 0.787632
vt 0.363612 0.361528
vt 0.334803 0.333919
vt 0.352651 0.349293
vt 0.750023 0.752284
vt 0.650577 0.653537
s 1
usemtl melon_color
f 77/1/1 18/2/2 8/3/3 76/4/4
f 78/5/5 79/6/6 18/2/2
f 84/7/7 1/8/8 85/9/9
f 87/10/10 22/11/11 72/12/12 86/13/13
f 22/11/11 57/14/14 45/15/15
f 8/3/3 45/15/15 57/14/14
f 75/16/16 57/14/14 22/11/11 88/17/17
f 81/18/18 60/19/19 18/2/2 79/6/6
f 18/2/2 60/19/19 9/20/20
f 18/2/2 9/20/20 23/21/21
f 89/22/22 90/23/23 40/24/24
f 61/25/25 24/26/26 40/24/24
f 91/27/27 40/24/24 90/23/23
f 95/28/28 72/12/12 27/29/29 94/30/30
f 72/12/12 7/31/31 62/32/32
f 4/33/33 27/29/29 62/32/32
f 22/11/11 2/34/34 7/31/31
f 7/31/31 49/35/35 64/36/36
f 3/37/37 45/15/15 23/21/21
f 19/38/38 2/34/34 45/15/15
f 9/20/20 63/39/39 3/37/37
f 50/40/40 59/41/41 46/42/42
f 50/40/40 63/39/39 9/20/20
f 60/19/19 59/41/41 9/20/20
f 24/26/26 61/25/25 30/43/43
f 25/44/44 47/45/45 30/43/43
f 26/46/46 43/47/47 34/48/48
f 31/49/49 20/50/50 43/47/47
f 34/48/48 43/47/47 20/50/50
f 64/36/36 4/33/33 62/32/32
f 2/34/34 19/38/38 49/35/35
f 11/51/51 49/35/35 19/38/38
f 11/51/51 14/52/52 49/35/35
f 45/15/15 3/53/37 19/38/38
f 63/39/39 33/54/53 32/55/54
f 51/56/55 50/40/40 10/57/56
f 51/58/55 29/59/57 73/60/58
f 10/61/56 29/59/57 51/58/55
f 47/45/45 52/62/59 12/63/60
f 73/60/58 12/63/60 52/62/59
f 34/64/48 53/65/61 47/45/45
f 20/50/50 53/66/61 34/48/48
f 20/50/50 5/67/62 53/66/61
f 13/68/63 65/69/64 20/50/50
f 65/69/64 5/67/62 20/50/50
f 4/33/33 68/70/65 48/71/66
f 68/70/65 65/69/64 13/68/63
f 14/52/52 64/36/36 49/35/35
f 68/72/65 4/33/33 64/36/36
f 65/69/64 54/73/67 5/67/62
f 5/74/62 54/75/67 53/65/61
f 53/65/61 15/76/68 52/62/59
f 54/75/67 35/77/69 15/76/68
f 35/78/69 66/79/70 73/80/58
f 51/56/55 73/80/58 33/54/53
f 66/79/70 35/78/69 67/81/71
f 66/79/70 32/55/54 33/54/53
f 11/51/51 67/82/71 36/83/72
f 36/83/72 68/72/65 14/52/52
f 65/69/64 36/84/72 54/73/67
f 54/75/67 17/85/73 35/77/69
f 37/86/74 35/77/69 71/87/75
f 67/82/71 37/88/74 69/89/76
f 70/90/77 56/91/78 71/92/75
f 37/93/74 56/91/78 55/94/79
f 55/94/79 38/95/80 37/93/74
f 38/95/80 55/94/79 16/96/81
f 21/97/82 70/90/77 16/98/81
f 16/98/81 70/90/77 17/99/73
f 16/96/81 55/94/79 39/100/83
f 86/13/13 72/12/12 95/28/28
f 77/1/1 78/5/5 18/2/2
f 98/101/84 99/102/85 41/103/86
f 85/9/9 1/8/8 6/104/87 100/105/88
f 101/106/89 94/30/30 27/29/29
f 87/10/10 88/17/17 22/11/11
f 72/12/12 22/11/11 7/31/31
f 8/3/3 23/21/21 45/15/15
f 18/2/2 23/21/21 8/3/3
f 60/19/19 58/107/90 59/41/41
f 104/108/91 28/109/92 46/42/42 103/110/93
f 46/42/42 59/41/41 58/107/90
f 40/24/24 24/26/26 28/111/92
f 89/22/22 40/24/24 28/111/92 105/112/94
f 106/113/95 107/114/96 61/25/25
f 106/113/95 61/25/25 40/24/24 91/27/27
f 42/115/97 25/44/44 41/103/86
f 61/25/25 41/103/86 25/44/44
f 100/105/88 6/104/87 92/116/98
f 102/117/99 44/118/100 1/8/8 84/7/7
f 1/8/8 43/47/47 6/104/87
f 6/104/87 43/47/47 26/46/46
f 48/71/66 1/8/8 44/118/100
f 27/29/29 48/71/66 44/118/100
f 72/12/12 62/32/32 27/29/29
f 4/33/33 48/71/66 27/29/29
f 22/11/11 45/15/15 2/34/34
f 7/31/31 2/34/34 49/35/35
f 9/20/20 3/37/37 23/21/21
f 50/40/40 9/20/20 59/41/41
f 10/57/56 46/42/42 28/109/92
f 10/57/56 50/40/40 46/42/42
f 10/61/56 24/26/26 29/59/57
f 24/26/26 10/61/56 28/111/92
f 30/43/43 47/45/45 12/63/60
f 12/63/60 24/26/26 30/43/43
f 24/26/26 12/63/60 29/59/57
f 30/43/43 61/25/25 25/44/44
f 47/45/45 26/46/46 34/48/48
f 25/44/44 42/115/97 26/46/46
f 26/46/46 47/45/45 25/44/44
f 43/47/47 1/8/8 31/49/49
f 48/71/66 13/68/63 31/49/49
f 48/71/66 31/49/49 1/8/8
f 62/32/32 7/31/31 64/36/36
f 32/119/54 11/51/51 19/38/38
f 32/119/54 19/38/38 3/53/37
f 3/37/37 63/39/39 32/55/54
f 33/54/53 50/40/40 51/56/55
f 33/54/53 63/39/39 50/40/40
f 73/60/58 29/59/57 12/63/60
f 47/45/45 53/65/61 52/62/59
f 31/49/49 13/68/63 20/50/50
f 48/71/66 68/70/65 13/68/63
f 64/36/36 14/52/52 68/72/65
f 21/120/82 39/121/83 55/122/79
f 53/65/61 54/75/67 15/76/68
f 15/76/68 73/60/58 52/62/59
f 15/123/68 35/78/69 73/80/58
f 33/54/53 73/80/58 66/79/70
f 66/79/70 11/124/51 32/55/54
f 66/79/70 67/81/71 11/124/51
f 11/51/51 36/83/72 14/52/52
f 68/70/65 36/84/72 65/69/64
f 70/125/77 35/77/69 17/85/73
f 35/77/69 70/125/77 71/87/75
f 67/81/71 35/78/69 37/126/74
f 37/88/74 38/127/80 69/89/76
f 67/82/71 69/89/76 36/83/72
f 38/127/80 17/128/73 69/89/76
f 69/129/76 54/73/67 36/130/72
f 54/73/67 69/129/76 17/131/73
f 21/120/82 55/122/79 56/132/78
f 37/93/74 71/92/75 56/91/78
f 38/95/80 16/96/81 17/133/73
f 70/90/77 21/97/82 56/91/78
f 39/134/83 21/97/82 16/98/81
f 28/111/92 104/135/91 105/112/94
f 27/29/29 44/118/100 102/117/99 101/106/89
f 61/25/25 107/114/96 98/101/84 41/103/86
f 46/42/42 58/107/90 97/136/101 103/110/93
f 58/107/90 96/137/102 97/136/101
f 6/104/87 26/46/46 93/138/103 92/116/98
f 41/103/86 99/102/85 83/139/104 42/115/97
f 42/115/97 83/139/104 82/140/105
f 26/46/46 42/115/97 82/140/105 93/138/103
f 60/19/19 81/18/18 80/141/106
f 58/107/90 60/19/19 80/141/106 96/137/102
f 74/142/107 75/16/16 88/17/17 87/10/10 86/13/13 95/28/28 94/30/30 101/106/89 102/117/99 84/7/7 85/9/9 100/105/88 92/116/98 93/138/103 82/140/105 83/139/104 99/102/85 98/101/84 107/114/96 106/113/95 91/27/27 90/23/23 89/22/22 105/112/94 104/135/91 103/110/93 97/136/101 96/137/102 80/141/106 81/18/18 79/6/6 78/5/5 77/1/1 76/4/4
f 57/14/14 75/16/16 74/142/107
f 8/3/3 57/14/14 74/142/107 76/4/4
