# Blender 4.5.3 LTS
# www.blender.org
mtllib melon.mtl
o melon
v -0.122517 0.136132 -0.010559
v -0.038352 0.147859 -0.103921
v -0.108802 0.104670 -0.080518
v -0.118446 0.115911 -0.056861
v -0.077514 0.033015 -0.072434
v -0.013942 0.028247 -0.074908
v 0.005371 0.033373 -0.061068
v -0.030453 0.186270 -0.030839
v -0.107920 0.149172 -0.043461
v -0.120404 0.062092 -0.018698
v -0.095555 0.030994 -0.037188
v 0.024329 0.034481 -0.018177
v -0.060806 0.050882 -0.102090
v -0.090528 0.128826 -0.092564
v -0.027409 0.167777 -0.079829
v -0.102292 0.164743 -0.007553
v 0.041614 0.065560 -0.025948
v -0.041031 0.031271 -0.086655
v -0.060674 0.071520 -0.112951
v -0.003610 0.109330 -0.110932
v -0.027247 0.128820 -0.112879
v -0.098100 0.078072 -0.090936
v -0.102747 0.055340 -0.067601
v 0.006695 0.051577 -0.084258
v 0.037028 0.092387 -0.063933
v 0.011517 0.150227 -0.074323
v -0.075613 0.179948 -0.026199
v 0.003556 0.018735 -0.019031
v 0.043334 0.124913 -0.024724
v -0.081550 0.155627 -0.076525
v -0.075871 0.096087 -0.111222
v -0.027880 0.079594 -0.116075
v -0.115704 0.079545 -0.062666
v -0.061799 0.016334 -0.048078
v 0.023474 0.060987 -0.069622
v -0.050396 0.174860 -0.065421
v -0.123865 0.079584 -0.033712
v -0.061131 0.008740 -0.006269
v -0.027180 0.012384 -0.039723
v 0.024086 0.157882 -0.027795
v -0.021219 0.105992 -0.116027
v -0.042316 0.109556 -0.117512
v -0.090933 0.106337 -0.100058
v -0.057361 0.155479 -0.092064
v -0.008276 0.134225 -0.105462
v -0.004841 0.153824 -0.087864
v -0.072370 0.130739 -0.104372
v -0.004733 0.087844 -0.110980
v -0.105684 0.130586 -0.072922
v 0.028234 0.118749 -0.077466
v 0.036478 0.128349 -0.051896
v -0.127591 0.101707 -0.027333
v -0.017882 0.009058 -0.004939
v 0.048305 0.100444 -0.021942
v -0.001876 0.174188 -0.042631
v -0.043750 0.084960 -0.117270
v -0.011914 0.058419 -0.104884
v -0.037028 0.053532 -0.107618
v -0.078668 0.056205 -0.096891
v 0.011213 0.126316 -0.095416
v -0.058393 0.096198 -0.116236
v -0.052244 0.125001 -0.113225
v 0.017353 0.093740 -0.096443
v -0.125007 0.118578 -0.000763
v -0.122867 0.133358 -0.000765
v -0.128096 0.105827 -0.000759
v -0.127191 0.088390 -0.000760
v -0.126060 0.080893 -0.000761
v -0.124115 0.073007 -0.000764
v -0.107491 0.043805 -0.000782
v -0.117271 0.056607 -0.000771
v 0.045349 0.117262 -0.000947
v 0.047713 0.105495 -0.000950
v -0.000207 0.177905 -0.000898
v 0.010041 0.170783 -0.000909
v -0.094763 0.170592 -0.000795
v -0.103014 0.162882 -0.000786
v -0.118627 0.140510 -0.000770
v -0.014261 0.010697 -0.000883
v 0.003567 0.018752 -0.000902
v 0.014722 0.027207 -0.000914
v 0.031307 0.148171 -0.000932
v 0.042395 0.124821 -0.000944
v -0.058978 0.186093 -0.000834
v -0.083982 0.177712 -0.000807
v -0.090261 0.024895 -0.000800
v -0.071186 0.014015 -0.000821
v 0.045890 0.077648 -0.000948
v 0.047882 0.088578 -0.000950
v 0.026043 0.157275 -0.000926
v -0.044515 0.188324 -0.000850
v -0.022699 0.186851 -0.000874
v -0.061504 0.009860 -0.000831
v -0.057385 0.008942 -0.000836
v -0.020071 0.009178 -0.000876
v 0.027670 0.039682 -0.000928
v 0.037657 0.057446 -0.000939
vn -0.1898 0.3082 -0.9322
vn -0.4473 -0.0113 -0.8943
vn -0.4078 0.4140 -0.8138
vn -0.6387 0.1127 -0.7611
vn -0.0468 0.1136 -0.9924
vn -0.2120 0.0484 -0.9761
vn -0.2666 -0.2902 -0.9191
vn 0.0489 -0.5344 -0.8438
vn 0.1358 -0.1964 -0.9711
vn 0.3831 -0.4786 -0.7901
vn 0.4324 -0.1566 -0.8880
vn 0.1238 0.3364 -0.9336
vn 0.3808 0.4415 -0.8124
vn 0.4389 0.1232 -0.8900
vn 0.1788 0.0655 -0.9817
vn -0.0130 0.6132 -0.7898
vn -0.7539 0.5940 -0.2806
vn -0.3873 0.9001 -0.1995
vn -0.5085 0.7034 -0.4966
vn -0.9248 0.1952 -0.3266
vn -0.7732 0.4162 -0.4785
vn -0.7615 -0.5022 -0.4099
vn -0.9019 -0.2220 -0.3705
vn -0.7128 -0.2427 -0.6581
vn -0.9541 -0.2301 -0.1918
vn -0.9888 0.0349 -0.1453
vn 0.5908 -0.7245 -0.3551
vn 0.6171 -0.5300 -0.5816
vn 0.7907 -0.4318 -0.4339
vn 0.3126 -0.8159 -0.4865
vn 0.9179 -0.3602 -0.1666
vn 0.9171 -0.1001 -0.3858
vn 0.7236 -0.1026 -0.6825
vn 0.8873 0.3527 -0.2972
vn 0.9914 0.0167 -0.1296
vn 0.4222 0.6875 -0.5908
vn 0.4507 0.8574 -0.2483
vn 0.6527 0.6208 -0.4343
vn 0.7344 0.6619 -0.1500
vn 0.1033 0.9764 -0.1896
vn 0.1436 0.8457 -0.5139
vn -0.1652 0.9007 -0.4018
vn -0.2611 0.7102 -0.6538
vn -0.9199 0.3886 -0.0528
vn -0.7034 0.7086 -0.0554
vn -0.6949 0.2194 0.6848
vn -0.7113 0.1249 0.6917
vn -0.6279 -0.3867 0.6755
vn -0.8956 -0.4338 -0.0981
vn -0.6547 -0.7323 -0.1876
vn -0.5638 -0.4596 0.6862
vn 0.1353 -0.9598 -0.2458
vn -0.2469 -0.9688 -0.0196
vn -0.2413 -0.9277 -0.2849
vn 0.4835 -0.8647 -0.1362
vn 0.2078 -0.9780 -0.0167
vn 0.7426 -0.6592 -0.1182
vn 0.7225 0.0858 0.6860
vn 0.9374 0.3327 -0.1023
vn 0.6992 0.1915 0.6888
vn 0.6364 0.3516 0.6866
vn 0.6444 0.2784 0.7123
vn -0.0201 -0.8101 -0.5859
vn -0.2608 -0.5970 -0.7587
vn -0.4515 -0.7583 -0.4702
vn -0.5196 -0.4857 -0.7029
vn -0.8343 0.0711 -0.5467
vn -0.6232 0.4007 -0.6716
vn 0.8353 0.2421 -0.4936
vn 0.6571 0.3360 -0.6748
vn -0.7440 0.0798 0.6634
vn -0.7227 -0.1423 0.6764
vn -0.7007 -0.2099 0.6819
vn -0.4580 -0.5984 0.6574
vn -0.3523 -0.6428 0.6802
vn -0.2084 -0.6313 0.7470
vn -0.0438 -0.7015 0.7114
vn 0.0657 -0.7028 0.7083
vn 0.2653 -0.6593 0.7036
vn 0.3740 -0.6277 0.6828
vn 0.4503 -0.5506 0.7029
vn 0.5923 -0.4280 0.6826
vn 0.6462 -0.3225 0.6917
vn 0.7208 -0.1859 0.6677
vn 0.7381 -0.0860 0.6692
vn 0.5833 0.4809 0.6546
vn 0.4420 0.5977 0.6688
vn 0.3584 0.6748 0.6451
vn 0.1829 0.7416 0.6454
vn -0.0551 0.7621 0.6452
vn -0.1545 0.7437 0.6505
vn -0.3497 0.6730 0.6517
vn -0.4309 0.6087 0.6662
vn -0.5337 0.4466 0.7181
vn -0.5708 0.3784 0.7287
vn -0.7272 -0.0843 0.6812
vn -0.0323 -0.1255 -0.9916
vt 0.765708 0.381962
vt 0.815175 0.454724
vt 0.751091 0.430954
vt 0.795402 0.490057
vt 0.806573 0.398666
vt 0.827078 0.420690
vt 0.946309 0.579134
vt 0.899686 0.537646
vt 0.932890 0.527916
vt 0.981637 0.632122
vt 0.990065 0.588087
vt 0.386802 0.076647
vt 0.430166 0.037520
vt 0.456316 0.088445
vt 0.629087 0.245738
vt 0.581712 0.258830
vt 0.567051 0.200320
vt 0.603763 0.192333
vt 0.705566 0.372894
vt 0.734859 0.354300
vt 0.771360 0.351959
vt 0.778762 0.359376
vt 0.660137 0.552545
vt 0.579065 0.516870
vt 0.676139 0.470343
vt 0.725106 0.584857
vt 0.721923 0.529680
vt 0.832585 0.657892
vt 0.786848 0.622379
vt 0.846688 0.591038
vt 0.741879 0.662279
vt 0.706375 0.640677
vt 0.302743 0.141723
vt 0.362070 0.128936
vt 0.363193 0.178721
vt 0.304476 0.091331
vt 0.313573 0.250133
vt 0.406969 0.231600
vt 0.445804 0.156980
vt 0.443259 0.297510
vt 0.354367 0.301539
vt 0.562707 0.315054
vt 0.502463 0.395786
vt 0.512388 0.318451
vt 0.444461 0.373491
vt 0.525398 0.453975
vt 0.589610 0.369052
vt 0.604482 0.432122
vt 0.679829 0.412091
vt 0.638270 0.618914
vt 0.594247 0.580950
vt 0.629745 0.635048
vt 0.649928 0.653687
vt 0.729396 0.733925
vt 0.745030 0.706576
vt 0.818771 0.731585
vt 0.749478 0.752448
vt 0.917710 0.796924
vt 0.837751 0.826771
vt 0.887837 0.762840
vt 0.230210 0.181154
vt 0.180522 0.168260
vt 0.216944 0.106808
vt 0.153376 0.128572
vt 0.260796 0.217864
vt 0.334692 0.334102
vt 0.394886 0.329882
vt 0.352435 0.349392
vt 0.393149 0.394325
vt 0.363449 0.361693
vt 0.063987 0.627160
vt 0.121231 0.587378
vt 0.104544 0.636530
vt 0.319729 0.035374
vt 0.369031 0.026746
vt 0.944766 0.705757
vt 0.939444 0.635834
vt 0.885453 0.694064
vt 0.899620 0.625054
vt 0.778071 0.551380
vt 0.746312 0.480997
vt 0.637542 0.375301
vt 0.635513 0.306805
vt 0.470383 0.255209
vt 0.524295 0.253636
vt 0.480635 0.066864
vt 0.478050 0.103845
vt 0.290076 0.047726
vt 0.666575 0.673526
vt 0.696322 0.701558
vt 0.706749 0.713065
vt 0.781946 0.788047
vt 0.814015 0.818112
vt 0.828358 0.833092
vt 0.146942 0.139278
vt 0.172325 0.171896
vt 0.180472 0.178896
vt 0.206450 0.204995
vt 0.223492 0.224089
vt 0.247521 0.246424
vt 0.272407 0.270401
vt 0.300950 0.299996
vt 0.315157 0.314396
vt 0.405631 0.407474
vt 0.432118 0.430650
vt 0.447665 0.447029
vt 0.478679 0.481012
vt 0.506119 0.508909
vt 0.525159 0.527231
vt 0.557157 0.559396
vt 0.573560 0.576660
vt 0.587784 0.592381
vt 0.619037 0.625116
vt 0.687173 0.691547
vt 0.053495 0.582739
vt 0.076943 0.545426
vt 0.058472 0.541992
vt 0.027575 0.599137
vt 0.029004 0.578191
vt 0.073381 0.649456
vt 0.140494 0.610742
vt 0.794202 0.569485
vt 0.844437 0.543417
vt 0.505756 0.202008
vt 0.830796 0.839568
s 1
usemtl melon_color
f 62/1/1 31/2/2 47/3/3
f 43/4/4 47/3/3 31/2/2
f 31/2/2 42/5/5 61/6/6
f 19/7/7 31/8/2 61/9/6
f 58/10/8 19/7/7 32/11/9
f 57/12/10 32/13/9 48/14/11
f 21/15/12 45/16/13 20/17/14
f 20/17/14 41/18/15 21/15/12
f 2/19/16 21/20/12 62/1/1
f 21/21/12 42/22/5 62/1/1
f 9/23/17 27/24/18 30/25/19
f 4/26/20 9/23/17 49/27/21
f 23/28/22 33/29/23 22/30/24
f 33/29/23 37/31/25 52/32/26
f 7/33/27 24/34/28 35/35/29
f 24/34/28 7/33/27 6/36/30
f 17/37/31 35/35/29 25/38/32
f 25/38/32 35/35/29 63/39/33
f 25/38/32 51/40/34 54/41/35
f 46/42/36 55/43/37 26/44/38
f 51/40/34 26/44/38 40/45/39
f 8/46/40 15/47/41 36/48/42
f 55/43/37 15/47/41 8/46/40
f 15/47/41 55/43/37 46/42/36
f 36/48/42 44/49/43 30/25/19
f 1/50/44 16/51/45 9/23/17
f 65/52/46 1/50/44 52/32/26 64/53/47
f 1/50/44 9/23/17 4/26/20
f 71/54/48 10/55/49 11/56/50 70/57/51
f 39/58/52 38/59/53 34/60/54
f 7/33/27 28/61/55 6/36/30
f 28/61/55 53/62/56 39/63/52
f 38/64/53 39/63/52 53/62/56
f 12/65/57 28/61/55 7/33/27
f 54/41/35 17/37/31 25/38/32
f 73/66/58 54/41/35 29/67/59 72/68/60
f 82/69/61 83/70/62 29/67/59
f 83/70/62 72/68/60 29/67/59
f 32/71/9 42/72/5 41/73/15
f 63/39/33 57/12/10 48/14/11
f 35/35/29 24/34/28 63/39/33
f 57/12/10 6/36/30 18/74/63
f 57/12/10 18/74/63 58/75/8
f 18/76/63 13/77/64 58/10/8
f 13/77/64 18/76/63 5/78/65
f 59/79/66 23/28/22 22/30/24
f 59/79/66 22/30/24 31/8/2
f 3/80/67 14/81/68 43/4/4
f 14/81/68 3/80/67 49/27/21
f 47/3/3 43/4/4 14/81/68
f 30/25/19 14/81/68 49/27/21
f 30/25/19 47/3/3 14/81/68
f 47/3/3 44/49/43 2/19/16
f 47/3/3 30/25/19 44/49/43
f 44/49/43 36/48/42 15/82/41
f 15/47/41 46/42/36 2/83/16
f 50/84/69 60/85/70 26/44/38
f 46/42/36 26/44/38 60/85/70
f 46/42/36 60/85/70 45/16/13
f 60/85/70 20/17/14 45/16/13
f 62/1/1 42/5/5 31/2/2
f 19/7/7 59/79/66 31/8/2
f 59/79/66 19/7/7 13/77/64
f 58/10/8 13/77/64 19/7/7
f 57/12/10 58/75/8 32/13/9
f 41/86/15 20/87/14 48/14/11
f 20/87/14 63/39/33 48/14/11
f 45/16/13 21/15/12 2/83/16
f 62/1/1 47/3/3 2/19/16
f 9/23/17 30/25/19 49/27/21
f 4/26/20 49/27/21 3/80/67
f 4/26/20 33/29/23 52/32/26
f 4/26/20 3/80/67 33/29/23
f 10/55/49 33/29/23 23/28/22
f 33/29/23 3/80/67 22/30/24
f 10/55/49 23/28/22 11/56/50
f 59/79/66 5/78/65 23/28/22
f 5/78/65 11/56/50 23/28/22
f 34/60/54 5/78/65 18/76/63
f 18/76/63 39/58/52 34/60/54
f 11/56/50 5/78/65 34/60/54
f 39/63/52 18/88/63 6/36/30
f 12/65/57 7/33/27 35/35/29
f 25/38/32 50/84/69 51/40/34
f 40/45/39 26/44/38 55/43/37
f 51/40/34 50/84/69 26/44/38
f 27/24/18 36/48/42 30/25/19
f 27/24/18 9/23/17 16/51/45
f 52/32/26 1/50/44 4/26/20
f 66/89/71 64/53/47 52/32/26
f 37/31/25 33/29/23 10/55/49
f 68/90/72 69/91/73 71/54/48 70/57/51 86/92/74 87/93/75 93/94/76 94/95/77 95/96/78 79/97/79 80/98/80 81/99/81 96/100/82 97/101/83 88/102/84 89/103/85 73/66/58 72/68/60 83/70/62 82/69/61 90/104/86 75/105/87 74/106/88 92/107/89 91/108/90 84/109/91 85/110/92 76/111/93 77/112/94 78/113/95 65/52/46 64/53/47 66/89/71 67/114/96
f 86/92/74 70/57/51 11/56/50
f 86/92/74 11/56/50 38/59/53 87/93/75
f 34/60/54 38/59/53 11/56/50
f 6/36/30 28/61/55 39/63/52
f 12/65/57 35/35/29 17/37/31
f 51/40/34 40/45/39 29/67/59
f 54/41/35 51/40/34 29/67/59
f 91/108/90 92/107/89 8/46/40
f 8/46/40 36/48/42 27/24/18
f 93/94/76 87/93/75 38/59/53
f 94/95/77 38/64/53 53/62/56 95/96/78
f 89/103/85 54/41/35 73/66/58
f 97/101/83 17/37/31 88/102/84
f 42/72/5 56/115/97 61/116/6
f 19/117/7 61/116/6 56/115/97
f 32/118/9 19/119/7 56/115/97
f 41/73/15 48/120/11 32/71/9
f 32/71/9 56/115/97 42/72/5
f 41/73/15 42/72/5 21/121/12
f 63/39/33 24/34/28 57/12/10
f 6/36/30 57/12/10 24/34/28
f 59/79/66 13/77/64 5/78/65
f 3/122/67 43/123/4 22/30/24
f 31/8/2 22/30/24 43/123/4
f 2/19/16 44/49/43 15/82/41
f 2/83/16 46/42/36 45/16/13
f 60/85/70 50/84/69 63/124/33
f 50/84/69 25/38/32 63/124/33
f 60/85/70 63/124/33 20/17/14
f 12/65/57 17/37/31 97/101/83 96/100/82
f 38/59/53 94/125/77 93/94/76
f 17/37/31 54/41/35 89/103/85 88/102/84
f 27/24/18 85/110/92 84/109/91
f 8/46/40 27/24/18 84/109/91 91/108/90
f 40/45/39 90/104/86 82/69/61 29/67/59
f 12/65/57 96/100/82 81/99/81
f 12/65/57 81/99/81 80/98/80 28/61/55
f 53/62/56 28/61/55 80/98/80 79/97/79
f 53/62/56 79/97/79 95/96/78
f 16/51/45 1/50/44 78/113/95 77/112/94
f 16/51/45 77/112/94 76/111/93
f 16/51/45 76/111/93 85/110/92 27/24/18
f 40/45/39 75/105/87 90/104/86
f 55/43/37 74/106/88 75/105/87 40/45/39
f 8/46/40 92/107/89 74/106/88 55/43/37
f 10/55/49 71/54/48 69/91/73
f 37/31/25 10/55/49 69/91/73 68/90/72
f 52/32/26 37/31/25 68/90/72 67/114/96
f 52/32/26 67/114/96 66/89/71
f 1/50/44 65/52/46 78/113/95
