# generated
mtllib cherry.mtl
o fruit_half
v -0.102158 -0.578289 4.759046
v -0.103683 -0.618150 4.757883
v -0.100447 -0.656495 4.753017
v -0.092079 -0.692133 4.744946
v -0.079343 -0.724329 4.733019
v -0.063623 -0.751748 4.717306
v -0.044030 -0.772653 4.701673
v -0.019090 -0.785720 4.689853
v 0.009271 -0.790442 4.679949
v 0.038194 -0.786662 4.668593
v 0.065784 -0.774561 4.654497
v 0.091572 -0.754534 4.639406
v 0.115505 -0.727170 4.625822
v 0.136228 -0.693669 4.613898
v 0.152484 -0.655486 4.603441
v 0.163728 -0.614388 4.594808
v 0.170391 -0.572143 4.591372
v 0.173044 -0.530238 4.595491
v 0.170642 -0.489913 4.604610
v 0.162378 -0.452602 4.615212
v 0.148416 -0.420029 4.626857
v 0.129705 -0.393668 4.639720
v 0.107381 -0.374710 4.653724
v 0.081583 -0.363501 4.666518
v 0.052883 -0.360259 4.676555
v 0.023110 -0.365308 4.685298
v -0.005023 -0.378907 4.696262
v -0.029532 -0.400825 4.711483
v -0.051295 -0.429344 4.727328
v -0.070641 -0.462447 4.740020
v -0.085981 -0.498975 4.749451
v -0.096397 -0.538139 4.755990
v -0.096397 -0.538139 4.755990
v 0.052952 -0.586609 4.997167
v 0.054302 -0.620131 4.996652
v 0.060394 -0.652536 4.994092
v 0.071322 -0.682818 4.989948
v 0.086530 -0.710080 4.983637
v 0.104810 -0.733263 4.974925
v 0.125812 -0.750887 4.966910
v 0.149691 -0.761711 4.962715
v 0.175393 -0.765383 4.960478
v 0.201544 -0.761903 4.957021
v 0.226976 -0.751485 4.950981
v 0.250866 -0.734438 4.943621
v 0.272521 -0.711220 4.936889
v 0.290875 -0.682870 4.930673
v 0.305136 -0.650639 4.924595
v 0.314407 -0.616035 4.918984
v 0.318491 -0.580484 4.916528
v 0.317223 -0.545204 4.919224
v 0.310504 -0.511295 4.924941
v 0.298464 -0.480011 4.930893
v 0.281940 -0.452762 4.936710
v 0.261643 -0.430761 4.942774
v 0.238574 -0.414984 4.949253
v 0.213603 -0.405734 4.954324
v 0.187698 -0.403203 4.956865
v 0.161856 -0.407648 4.958355
v 0.137111 -0.419237 4.962060
v 0.114424 -0.437740 4.969934
v 0.094134 -0.461756 4.978923
v 0.076968 -0.489626 4.985949
v 0.064129 -0.520319 4.991189
v 0.056151 -0.552988 4.995126
v 0.056151 -0.552988 4.995126
v -0.347598 -0.559119 4.525308
v -0.351334 -0.612671 4.523734
v -0.348578 -0.664191 4.516503
v -0.338739 -0.712137 4.504337
v -0.322914 -0.755023 4.486419
v -0.302876 -0.791136 4.462778
v -0.277217 -0.818493 4.439137
v -0.243885 -0.835518 4.421193
v -0.205505 -0.841414 4.406188
v -0.165875 -0.836903 4.388805
v -0.127588 -0.821133 4.367321
v -0.091259 -0.794546 4.344390
v -0.057000 -0.758031 4.323816
v -0.026719 -0.713150 4.305805
v -0.002190 -0.661812 4.290023
v 0.015432 -0.606399 4.277096
v 0.026745 -0.549464 4.272058
v 0.032289 -0.493128 4.278505
v 0.030666 -0.438940 4.292480
v 0.020589 -0.388685 4.308674
v 0.002526 -0.344690 4.326289
v -0.022305 -0.308988 4.345629
v -0.052401 -0.283224 4.366616
v -0.087487 -0.267771 4.385717
v -0.126751 -0.262875 4.400654
v -0.167788 -0.269083 4.413739
v -0.206936 -0.287461 4.430188
v -0.241447 -0.317921 4.453017
v -0.272354 -0.357317 4.476861
v -0.300054 -0.402700 4.496023
v -0.322423 -0.452407 4.510372
v -0.338160 -0.505113 4.520484
v -0.338160 -0.505113 4.520484
v 0.085998 -0.416548 4.460507
v 0.069417 -0.376969 4.475719
v -0.172448 -0.803498 4.571937
v -0.142517 -0.818975 4.556752
v 0.046955 -0.344880 4.492386
v -0.108229 -0.825120 4.544083
v 0.019956 -0.321754 4.510470
v -0.073066 -0.820932 4.529522
v -0.011348 -0.307955 4.526832
v -0.039276 -0.806540 4.511258
v -0.046238 -0.303720 4.539444
v -0.007407 -0.782447 4.491596
v -0.082564 -0.309514 4.550387
v 0.022457 -0.749427 4.473908
v -0.117117 -0.325785 4.564452
v 0.048656 -0.708902 4.458336
v -0.147457 -0.352545 4.584331
v 0.069635 -0.662607 4.444583
v -0.238849 -0.569925 4.646606
v -0.241465 -0.618186 4.645143
v -0.174434 -0.388053 4.604970
v 0.084411 -0.612691 4.433210
v -0.238301 -0.664607 4.638804
v -0.198504 -0.428964 4.621491
v 0.093593 -0.561406 4.428712
v -0.228857 -0.707788 4.628251
v -0.217786 -0.473771 4.633821
v 0.097733 -0.510633 4.434303
v -0.214127 -0.746401 4.612744
v -0.231135 -0.521266 4.642502
v -0.231135 -0.521266 4.642502
v 0.095587 -0.461799 4.446471
v -0.195718 -0.778921 4.592269
v -0.469736 -0.534751 4.276661
v -0.469736 -0.534751 4.276661
v -0.475277 -0.676166 4.263809
v -0.443916 -0.798629 4.219794
v -0.443916 -0.798629 4.219794
v -0.383635 -0.884487 4.150661
v -0.383635 -0.884487 4.150661
v -0.285785 -0.916274 4.100974
v -0.176702 -0.890130 4.043858
v -0.074941 -0.806039 3.981997
v 0.006624 -0.677069 3.935389
v 0.052578 -0.526000 3.911976
v 0.061325 -0.376925 3.942653
v 0.024532 -0.249468 3.991869
v -0.050543 -0.166118 4.049656
v -0.153152 -0.138107 4.098317
v -0.265020 -0.169834 4.140954
v -0.358487 -0.263466 4.207417
v -0.431088 -0.391211 4.255339
v -0.347598 -0.559119 4.525308
v -0.347598 -0.559119 4.525308
v -0.348578 -0.664191 4.516503
v -0.322914 -0.755023 4.486419
v -0.322914 -0.755023 4.486419
v -0.277217 -0.818493 4.439137
v -0.277217 -0.818493 4.439137
v -0.205505 -0.841414 4.406188
v -0.127588 -0.821133 4.367321
v -0.057000 -0.758031 4.323816
v -0.002190 -0.661812 4.290023
v 0.026745 -0.549464 4.272058
v 0.030666 -0.438940 4.292480
v 0.002526 -0.344690 4.326289
v -0.052401 -0.283224 4.366616
v -0.126751 -0.262875 4.400654
v -0.206936 -0.287461 4.430188
v -0.272354 -0.357317 4.476861
v -0.322423 -0.452407 4.510372
v 0.044659 -0.337424 4.132889
v -0.297769 -0.891156 4.274815
v -0.008493 -0.238303 4.180447
v -0.200002 -0.893384 4.232004
v -0.090261 -0.186971 4.231593
v -0.105058 -0.841203 4.174783
v -0.191252 -0.188378 4.267392
v -0.021592 -0.740409 4.125958
v -0.284724 -0.248534 4.317605
v -0.427332 -0.614232 4.408123
v 0.034388 -0.607952 4.090476
v -0.359672 -0.353702 4.372503
v -0.413570 -0.737683 4.383090
v 0.057997 -0.467254 4.093507
v -0.409010 -0.480769 4.403893
v -0.409010 -0.480769 4.403893
v -0.370541 -0.835789 4.329270
v -0.370541 -0.835789 4.329270
v -0.370541 -0.835789 4.329270
v -0.370541 -0.835789 4.329270
v -2.803238 -0.285826 3.370327
v -2.762699 -0.784490 3.462526
v -2.632891 -1.243304 3.487503
v -2.448872 -1.640787 3.437576
v -2.212000 -1.947504 3.311666
v -1.951571 -2.179967 3.137665
v -1.671015 -2.349126 2.932960
v -1.368536 -2.465360 2.715214
v -1.038257 -2.495660 2.492505
v 2.110911 0.833741 2.492779
v 1.876102 1.265572 2.492123
v 1.517308 1.542041 2.433884
v -0.611583 1.944641 2.442486
v -1.038458 1.840127 2.511355
v -1.447471 1.672037 2.602612
v -1.828174 1.433933 2.719945
v -2.167746 1.116654 2.862937
v -2.439715 0.710899 3.024341
v -2.658309 0.235432 3.198328
v -1.834482 -2.230756 2.455285
v -2.882082 -0.229098 2.737573
v -2.887230 -0.726174 2.844582
v -2.773772 -1.175016 2.893412
v -2.601558 -1.562344 2.873558
v -2.372529 -1.856657 2.780189
v -2.748855 0.280699 2.576482
v -2.114595 -2.075729 2.634629
v -2.459450 -0.370585 4.254028
v -2.422699 -0.863065 4.351925
v -2.278936 -1.321680 4.366774
v -2.073307 -1.711246 4.284258
v -1.823539 -2.003894 4.116302
v -1.561679 -2.222827 3.902594
v -1.289502 -2.379129 3.669704
v -1.001361 -2.474732 3.437670
v -0.692951 -2.511721 3.226045
v -0.365285 -2.503808 3.056251
v -0.365285 -2.503808 3.056251
v -0.007595 -2.469951 2.941504
v 0.447248 -2.364640 2.862951
v 0.944662 -2.177204 2.850520
v 1.418946 -1.865283 2.896650
v 1.766300 -1.420716 2.991074
v 1.978567 -0.895209 3.110943
v 2.071990 -0.346942 3.190284
v 2.035700 0.186648 3.331069
v 1.920629 0.696642 3.382473
v 1.711226 1.113052 3.373929
v 1.388396 1.382265 3.319919
v 1.033218 1.552508 3.247806
v 0.657232 1.666345 3.206731
v 0.267418 1.737503 3.204939
v -0.134009 1.770349 3.241661
v -0.134009 1.770349 3.241661
v -0.543183 1.751880 3.309983
v -0.938616 1.662622 3.402637
v -1.315248 1.505911 3.523610
v -1.665595 1.282282 3.669082
v -1.975408 0.983286 3.829353
v -2.208293 0.590560 3.988503
v -2.370895 0.124608 4.132613
v -1.181914 -2.514953 3.106385
v -1.480014 -2.401387 3.335427
v 1.075221 1.649833 2.846080
v 1.470511 1.483449 2.921345
v -0.858263 -2.547001 2.882289
v 0.677013 1.767432 2.802185
v -0.511635 -2.526473 2.696132
v -0.511635 -2.526473 2.696132
v 0.268703 1.850325 2.802149
v -0.114177 -2.478911 2.562604
v -0.150718 1.900069 2.840324
v -0.150718 1.900069 2.840324
v 0.373948 -2.377423 2.475957
v -0.579638 1.888377 2.904415
v 0.897142 -2.202655 2.470087
v -0.994537 1.783426 2.984855
v 1.434579 -1.892842 2.525547
v -1.388777 1.612601 3.091263
v 1.821027 -1.425895 2.603676
v -2.593431 -0.831085 3.968031
v -2.627906 -0.332318 3.882857
v -1.753850 1.374097 3.224533
v 2.068285 -0.873241 2.709776
v -2.455583 -1.292450 3.975705
v -2.073980 1.056859 3.382078
v 2.200342 -0.306038 2.843349
v -2.261102 -1.689533 3.898186
v -2.324685 0.652603 3.553912
v 2.161059 0.249036 2.927326
v -2.019895 -1.997145 3.749090
v -2.515690 0.178731 3.725390
v 2.031144 0.776303 3.000135
v -1.757987 -2.230273 3.555367
v 1.817366 1.213421 3.003245
v -2.215681 -0.415385 4.632855
v -2.208297 -0.888859 4.688272
v -2.080736 -1.331688 4.674033
v -1.864956 -1.703314 4.596876
v -1.615911 -1.972083 4.418666
v -1.363390 -2.166429 4.190970
v -1.104703 -2.302596 3.952023
v -0.834903 -2.383949 3.725295
v -0.549369 -2.420491 3.529394
v -0.246205 -2.420671 3.380842
v -0.246205 -2.420671 3.380842
v 0.077779 -2.396971 3.289234
v 0.483841 -2.301554 3.236780
v 0.946663 -2.109843 3.233347
v 1.362716 -1.815005 3.298817
v 1.675076 -1.401815 3.394816
v 1.866751 -0.912355 3.470424
v 1.941687 -0.384246 3.562449
v 1.895759 0.131935 3.682603
v 1.779385 0.605316 3.757395
v 1.569304 0.988463 3.744718
v 1.287637 1.249466 3.674811
v 0.963691 1.414839 3.601002
v 0.615626 1.516685 3.556403
v 0.254240 1.575727 3.551903
v -0.117457 1.596164 3.587675
v -0.117457 1.596164 3.587675
v -0.496483 1.574408 3.662307
v -0.864013 1.496507 3.766450
v -1.216865 1.358289 3.901813
v -1.549501 1.159017 4.060271
v -1.846293 0.887190 4.219061
v -2.063732 0.518286 4.350575
v -2.182220 0.064098 4.499925
v -1.957404 -0.452621 4.866519
v -1.940047 -0.905293 4.936321
v -1.804232 -1.317772 4.920010
v -1.608315 -1.658150 4.825358
v -1.388259 -1.899683 4.643801
v -1.162342 -2.064965 4.410056
v -0.932117 -2.182945 4.175093
v -0.689980 -2.254918 3.959917
v -0.433863 -2.289786 3.784051
v -0.161635 -2.292584 3.660072
v -0.161635 -2.292584 3.660072
v 0.128422 -2.272170 3.592699
v 0.488844 -2.182678 3.563324
v 0.892308 -2.009455 3.576752
v 1.281843 -1.759968 3.659168
v 1.593185 -1.361495 3.814167
v 1.745291 -0.898967 3.925434
v 1.771063 -0.415457 3.967597
v 1.753889 0.073371 4.106162
v 1.647112 0.524013 4.133376
v 1.427667 0.883324 4.054169
v 1.155596 1.093969 3.960578
v 0.864679 1.242388 3.887225
v 0.553512 1.334428 3.839001
v 0.230030 1.385457 3.830297
v -0.102313 1.399482 3.864692
v -0.102313 1.399482 3.864692
v -0.440778 1.375377 3.943872
v -0.770622 1.303489 4.059650
v -1.087821 1.181257 4.208057
v -1.388734 1.009118 4.378123
v -1.649493 0.761634 4.537527
v -1.833713 0.418906 4.668333
v -1.934666 -0.002743 4.783464
v -1.105883 -0.535691 4.964191
v -1.104819 -0.822835 4.979908
v -1.089060 -1.107360 4.962304
v -0.994979 -1.358828 4.901140
v -0.892677 -1.571190 4.778495
v -0.768117 -1.727321 4.614079
v -0.626465 -1.840238 4.439311
v -0.462892 -1.909039 4.281665
v -0.281111 -1.945520 4.161925
v -0.085643 -1.950198 4.086839
v -0.085643 -1.950198 4.086839
v 0.119234 -1.911626 4.068021
v 0.351180 -1.791316 4.114541
v 0.586286 -1.597640 4.132076
v 0.792348 -1.369143 4.177557
v 0.956236 -1.106339 4.206004
v 1.052123 -0.822441 4.231951
v 1.119225 -0.512247 4.265787
v 1.108071 -0.200440 4.300933
v 1.054316 0.085561 4.335939
v 0.937288 0.340720 4.345279
v 0.786168 0.563655 4.315609
v 0.607963 0.754134 4.286853
v 0.399501 0.892250 4.220391
v 0.170601 0.955182 4.205740
v -0.064921 0.962905 4.235052
v -0.064921 0.962905 4.235052
v -0.299326 0.930620 4.303583
v -0.524795 0.852699 4.408978
v -0.725998 0.723500 4.538069
v -0.898023 0.546886 4.672561
v -1.021961 0.312411 4.791268
v -1.099013 0.048038 4.865265
v -1.102643 -0.247950 4.925068
v -0.345642 -2.129086 3.995526
v -0.566455 -2.094247 4.146082
v 0.474352 1.121842 4.061627
v 0.732165 1.010401 4.116191
v -0.109778 -2.132706 3.896990
v -0.109778 -2.132706 3.896990
v 0.198269 1.177084 4.048466
v 0.138729 -2.103776 3.856346
v -0.086859 1.188419 4.080185
v -0.086859 1.188419 4.080185
v 0.434117 -2.000400 3.862418
v -0.374993 1.161341 4.157840
v 0.750496 -1.813712 3.903087
v -0.654486 1.088947 4.275545
v 1.056102 -1.586971 4.021803
v -0.917497 0.969736 4.423965
v 1.338514 -1.251534 4.118017
v -1.587296 -0.881846 5.019207
v -1.611142 -0.490461 4.978278
v -1.161714 0.804056 4.586473
v 1.486269 -0.869622 4.159368
v -1.472350 -1.239578 4.997402
v -1.363674 0.567625 4.722832
v 1.531041 -0.452129 4.247411
v -1.309157 -1.540963 4.918106
v -1.505908 0.261756 4.822726
v 1.510117 -0.032643 4.293096
v -1.136510 -1.766584 4.765569
v -1.587845 -0.102462 4.910624
v 1.402225 0.335423 4.347835
v -0.958345 -1.916689 4.553499
v 1.182227 0.630357 4.297776
v -0.770709 -2.025247 4.338374
v 0.962621 0.834901 4.186372
v -0.987723 -0.543842 4.917130
v -0.977094 -0.794954 4.927458
v -0.929099 -1.031146 4.905375
v -0.837215 -1.226679 4.827485
v -0.746254 -1.395852 4.713854
v -0.647648 -1.538839 4.587319
v -0.528640 -1.642315 4.454607
v -0.391575 -1.702732 4.338268
v -0.245318 -1.738011 4.249159
v -0.089574 -1.751629 4.183717
v -0.089574 -1.751629 4.183717
v 0.079105 -1.729698 4.155221
v 0.279237 -1.651203 4.175895
v 0.468166 -1.468769 4.181737
v 0.639203 -1.271942 4.195205
v 0.756197 -1.041771 4.201634
v 0.842132 -0.796264 4.223064
v 0.912654 -0.530499 4.255551
v 0.910945 -0.267886 4.266138
v 0.869859 -0.018994 4.291039
v 0.794931 0.212339 4.317600
v 0.669793 0.407028 4.315208
v 0.528086 0.590891 4.304989
v 0.335654 0.685345 4.267518
v 0.142350 0.726344 4.271406
v -0.047470 0.721346 4.305638
v -0.047470 0.721346 4.305638
v -0.234612 0.687879 4.360880
v -0.418338 0.620822 4.441722
v -0.583748 0.502784 4.543275
v -0.719035 0.340031 4.650441
v -0.833128 0.150245 4.757162
v -0.923196 -0.058712 4.837938
v -0.971649 -0.294279 4.886786
v -0.771879 -0.551705 4.729059
v -0.768612 -0.735557 4.732851
v -0.748670 -0.913056 4.718517
v -0.693331 -1.065313 4.663086
v -0.633086 -1.194020 4.570263
v -0.567686 -1.298706 4.454244
v -0.475343 -1.377025 4.346409
v -0.369180 -1.421511 4.260976
v -0.259000 -1.454662 4.203838
v -0.144395 -1.481309 4.154242
v -0.144395 -1.481309 4.154242
v -0.025166 -1.461864 4.118018
v 0.094065 -1.382809 4.124529
v 0.251250 -1.252065 4.141593
v 0.385413 -1.106523 4.115541
v 0.488243 -0.933695 4.091636
v 0.556304 -0.742456 4.068998
v 0.670672 -0.558329 4.056387
v 0.618607 -0.338278 4.096229
v 0.607088 -0.150035 4.141043
v 0.554108 0.019772 4.178412
v 0.458349 0.164814 4.207990
v 0.341934 0.303512 4.187690
v 0.213550 0.405317 4.185550
v 0.074616 0.439293 4.209961
v -0.065803 0.419268 4.241346
v -0.065803 0.419268 4.241346
v -0.204325 0.388309 4.279915
v -0.343287 0.340723 4.345883
v -0.471385 0.249481 4.435036
v -0.567121 0.124077 4.538054
v -0.648402 -0.024516 4.625249
v -0.716285 -0.192253 4.683868
v -0.755402 -0.369178 4.714640
v -0.469736 -0.534751 4.276661
v -0.476962 -0.606809 4.274343
v -0.475279 -0.676174 4.263831
v -0.463813 -0.740830 4.246109
v -0.443956 -0.798797 4.220068
v -0.417958 -0.847758 4.185791
v -0.383673 -0.885041 4.151240
v -0.338382 -0.908444 4.124292
v -0.285699 -0.916869 4.101411
v -0.230619 -0.911367 4.075378
v -0.230619 -0.911367 4.075378
v -0.176599 -0.890412 4.044037
v -0.124587 -0.854873 4.011149
v -0.074929 -0.806049 3.982014
v -0.030335 -0.745949 3.956948
v 0.006624 -0.677069 3.935389
v 0.034161 -0.602604 3.918092
v 0.052584 -0.526001 3.911983
v 0.062202 -0.450085 3.922028
v 0.061325 -0.376925 3.942653
v 0.048568 -0.308992 3.966332
v 0.024545 -0.249462 3.991884
v -0.009109 -0.201038 4.019763
v -0.050366 -0.165873 4.049847
v -0.098690 -0.144548 4.077229
v -0.152917 -0.137586 4.098755
v -0.152917 -0.137586 4.098755
v -0.209886 -0.145598 4.117682
v -0.264939 -0.169375 4.141510
v -0.314119 -0.210321 4.173912
v -0.358497 -0.263342 4.207678
v -0.398439 -0.324378 4.234894
v -0.431090 -0.391207 4.255361
v -0.454708 -0.462092 4.269801
v -0.201267 -0.528191 4.097633
v -0.201267 -0.528191 4.097633
v 0.068918 -0.584164 5.040000
v 0.072468 -0.553922 5.040000
v 0.338555 -0.489088 5.040000
v 0.349106 -0.512655 5.040000
v 0.151619 -0.746492 5.040000
v 0.131323 -0.731893 5.040000
v 0.320185 -0.461213 5.040000
v 0.334273 -0.482124 5.040000
v 0.176993 -0.757823 5.040000
v 0.155844 -0.748973 5.040000
v 0.297913 -0.438267 5.040000
v 0.315207 -0.455493 5.040000
v 0.203333 -0.762323 5.040000
v 0.181487 -0.759365 5.040000
v 0.272645 -0.421287 5.040000
v 0.292529 -0.433940 5.040000
v 0.230386 -0.759814 5.040000
v 0.207959 -0.762739 5.040000
v 0.245838 -0.410833 5.040000
v 0.267174 -0.418415 5.040000
v 0.257580 -0.750518 5.040000
v 0.235234 -0.759034 5.040000
v 0.218958 -0.407174 5.040000
v 0.240576 -0.409309 5.040000
v 0.283800 -0.734843 5.040000
v 0.262700 -0.748441 5.040000
v 0.192633 -0.410450 5.040000
v 0.214031 -0.406890 5.040000
v 0.307738 -0.713258 5.040000
v 0.288981 -0.731335 5.040000
v 0.166751 -0.420734 5.040000
v 0.188031 -0.411362 5.040000
v 0.328298 -0.686640 5.040000
v 0.312561 -0.708258 5.040000
v 0.141370 -0.437924 5.040000
v 0.162505 -0.422734 5.040000
v 0.344780 -0.656148 5.040000
v 0.332440 -0.680258 5.040000
v 0.070281 -0.617372 5.040000
v 0.068893 -0.587195 5.040000
v 0.117723 -0.460966 5.040000
v 0.137669 -0.440709 5.040000
v 0.356293 -0.623160 5.040000
v 0.347977 -0.648579 5.040000
v 0.077124 -0.649414 5.040000
v 0.070802 -0.620405 5.040000
v 0.097741 -0.488215 5.040000
v 0.114818 -0.464101 5.040000
v 0.361875 -0.588904 5.040000
v 0.358266 -0.614715 5.040000
v 0.089340 -0.679310 5.040000
v 0.078233 -0.652488 5.040000
v 0.082715 -0.518474 5.040000
v 0.095702 -0.491430 5.040000
v 0.360510 -0.554365 5.040000
v 0.362127 -0.580057 5.040000
v 0.106578 -0.706144 5.040000
v 0.091131 -0.682406 5.040000
v 0.073062 -0.550819 5.040000
v 0.081459 -0.521660 5.040000
v 0.352379 -0.520629 5.040000
v 0.358799 -0.545706 5.040000
v 0.127791 -0.728919 5.040000
v 0.109190 -0.709234 5.040000
v 0.068893 -0.587195 5.040000
v 0.068918 -0.584164 5.040000
v 0.334273 -0.482124 5.040000
v 0.338555 -0.489088 5.040000
v 0.155844 -0.748973 5.040000
v 0.151619 -0.746492 5.040000
v 0.315207 -0.455493 5.040000
v 0.320185 -0.461213 5.040000
v 0.181487 -0.759365 5.040000
v 0.176993 -0.757823 5.040000
v 0.292529 -0.433940 5.040000
v 0.297913 -0.438267 5.040000
v 0.207959 -0.762739 5.040000
v 0.203333 -0.762323 5.040000
v 0.267174 -0.418415 5.040000
v 0.272645 -0.421287 5.040000
v 0.235234 -0.759034 5.040000
v 0.230386 -0.759814 5.040000
v 0.240576 -0.409309 5.040000
v 0.245838 -0.410833 5.040000
v 0.262700 -0.748441 5.040000
v 0.257580 -0.750518 5.040000
v 0.214031 -0.406890 5.040000
v 0.218958 -0.407174 5.040000
v 0.288981 -0.731335 5.040000
v 0.283800 -0.734843 5.040000
v 0.188031 -0.411362 5.040000
v 0.192633 -0.410450 5.040000
v 0.312561 -0.708258 5.040000
v 0.307738 -0.713258 5.040000
v 0.162505 -0.422734 5.040000
v 0.166751 -0.420734 5.040000
v 0.332440 -0.680258 5.040000
v 0.328298 -0.686640 5.040000
v 0.137669 -0.440709 5.040000
v 0.141370 -0.437924 5.040000
v 0.347977 -0.648579 5.040000
v 0.344780 -0.656148 5.040000
v 0.070802 -0.620405 5.040000
v 0.070281 -0.617372 5.040000
v 0.114818 -0.464101 5.040000
v 0.117723 -0.460966 5.040000
v 0.358266 -0.614715 5.040000
v 0.356293 -0.623160 5.040000
v 0.078233 -0.652488 5.040000
v 0.077124 -0.649414 5.040000
v 0.095702 -0.491430 5.040000
v 0.097741 -0.488215 5.040000
v 0.362127 -0.580057 5.040000
v 0.361875 -0.588904 5.040000
v 0.091131 -0.682406 5.040000
v 0.089340 -0.679310 5.040000
v 0.081459 -0.521660 5.040000
v 0.082715 -0.518474 5.040000
v 0.358799 -0.545706 5.040000
v 0.360510 -0.554365 5.040000
v 0.109190 -0.709234 5.040000
v 0.106578 -0.706144 5.040000
v 0.072468 -0.553922 5.040000
v 0.073062 -0.550819 5.040000
v 0.349106 -0.512655 5.040000
v 0.352379 -0.520629 5.040000
v 0.131323 -0.731893 5.040000
v 0.127791 -0.728919 5.040000
v -2.867599 -0.209179 2.433031
v -2.867627 -0.440694 2.433031
v -2.895761 -0.681462 2.433031
v -2.853898 -0.846588 2.433031
v -2.810531 -1.108981 2.433031
v -2.754844 -1.233997 2.433031
v -2.654824 -1.482676 2.433031
v -2.567259 -1.596067 2.433031
v -2.425837 -1.781230 2.433031
v -2.268236 -1.922194 2.433031
v -2.748457 0.281359 2.433031
v -2.831708 -0.037809 2.433031
v -2.149276 -2.020902 2.433031
v -1.855795 -2.213245 2.433031
v 1.877941 1.267858 2.433031
v 1.517924 1.541626 2.433031
v 2.115326 0.838230 2.433031
v 1.903871 1.226987 2.433031
v -2.511361 0.743046 2.433031
v -2.515686 0.734638 2.433031
v -2.515686 0.734638 2.433031
v -2.534114 0.702467 2.433031
v -2.209793 1.133495 2.433031
v -2.269306 1.050887 2.433031
v -1.850301 1.439357 2.433031
v -1.986113 1.317500 2.433031
v -1.458673 1.671476 2.433031
v -1.676552 1.537708 2.433031
v -1.043608 1.837884 2.433031
v -1.342494 1.714947 2.433031
v -0.612236 1.944104 2.433031
v -0.984299 1.850644 2.433031
v -1.470019 -2.384555 2.433031
v -1.164114 -2.454681 2.433031
v -1.800283 -2.242532 2.433031
v -1.470019 -2.384555 2.433031
v 2.248987 0.316322 2.433031
v 2.248524 0.318210 2.433031
v 2.249037 0.316093 2.433031
v 2.248987 0.316322 2.433031
v 2.238407 -0.267756 2.433031
v 2.233434 -0.178867 2.433031
v 2.092417 -0.855607 2.433031
v 2.140053 -0.664764 2.433031
v 1.820279 -1.413218 2.433031
v 1.949318 -1.120135 2.433031
v 1.423059 -1.885807 2.433031
v 1.681526 -1.561359 2.433031
v 0.889556 -2.199653 2.433031
v 1.317266 -1.944120 2.433031
v 0.362338 -2.372358 2.433031
v 0.840479 -2.213754 2.433031
v -0.210235 1.946644 2.433031
v -0.538938 1.945948 2.433031
v -0.170576 1.947039 2.433031
v -0.210235 1.946644 2.433031
v -0.160298 -2.459196 2.433031
v 0.289324 -2.382691 2.433031
v 0.255530 1.889778 2.433031
v 0.185278 1.898764 2.433031
v -0.627243 -2.490232 2.433031
v -0.398836 -2.475626 2.433031
v 0.670742 1.804949 2.433031
v 0.595649 1.820193 2.433031
v -0.927145 -2.488335 2.433031
v -0.627243 -2.490232 2.433031
v 1.090646 1.697562 2.433031
v 1.042135 1.711214 2.433031
v 1.510313 1.544699 2.433031
v 1.090646 1.697562 2.433031
v -1.838788 -2.223403 2.433031
v -1.800283 -2.242532 2.433031
v -2.867627 -0.440694 2.433031
v -2.895761 -0.681462 2.433031
v -2.853898 -0.846588 2.433031
v -2.810531 -1.108981 2.433031
v -2.754844 -1.233997 2.433031
v -2.654824 -1.482676 2.433031
v -2.567259 -1.596067 2.433031
v -2.425837 -1.781230 2.433031
v -2.534114 0.702467 2.433031
v -2.706589 0.361314 2.433031
v -2.706589 0.361314 2.433031
v -2.748457 0.281359 2.433031
v -2.268236 -1.922194 2.433031
v -2.149276 -2.020902 2.433031
v -2.831708 -0.037809 2.433031
v -2.867599 -0.209179 2.433031
v -1.855795 -2.213245 2.433031
v -1.838788 -2.223403 2.433031
v 1.517924 1.541626 2.433031
v 1.517304 1.542049 2.433031
v 1.903871 1.226987 2.433031
v 1.877941 1.267858 2.433031
v 2.248524 0.318210 2.433031
v 2.127200 0.790754 2.433031
v 2.127200 0.790754 2.433031
v 2.115326 0.838230 2.433031
v -2.269306 1.050887 2.433031
v -2.511361 0.743046 2.433031
v -1.986113 1.317500 2.433031
v -2.209793 1.133495 2.433031
v -1.676552 1.537708 2.433031
v -1.850301 1.439357 2.433031
v -1.342494 1.714947 2.433031
v -1.458673 1.671476 2.433031
v -0.984299 1.850644 2.433031
v -1.043608 1.837884 2.433031
v -0.538938 1.945948 2.433031
v -0.604615 1.944246 2.433031
v -0.604615 1.944246 2.433031
v -0.612236 1.944104 2.433031
v -1.061094 -2.477414 2.433031
v -0.927145 -2.488335 2.433031
v -1.164114 -2.454681 2.433031
v -1.061094 -2.477414 2.433031
v 1.517304 1.542049 2.433031
v 1.510313 1.544699 2.433031
v 2.233434 -0.178867 2.433031
v 2.249037 0.316093 2.433031
v 2.140053 -0.664764 2.433031
v 2.238407 -0.267756 2.433031
v 1.949318 -1.120135 2.433031
v 2.092417 -0.855607 2.433031
v 1.681526 -1.561359 2.433031
v 1.820279 -1.413218 2.433031
v 1.317266 -1.944120 2.433031
v 1.423059 -1.885807 2.433031
v 0.840479 -2.213754 2.433031
v 0.889556 -2.199653 2.433031
v 0.289324 -2.382691 2.433031
v 0.362338 -2.372358 2.433031
v 0.185278 1.898764 2.433031
v -0.170576 1.947039 2.433031
v -0.398836 -2.475626 2.433031
v -0.160298 -2.459196 2.433031
v 0.595649 1.820193 2.433031
v 0.255530 1.889778 2.433031
v 1.042135 1.711214 2.433031
v 0.670742 1.804949 2.433031
v -2.149276 -2.020902 2.433031
v -1.676552 1.537708 2.433031
v 1.042135 1.711214 2.433031
v -2.853898 -0.846588 2.433031
v 2.249037 0.316093 2.433031
v -1.164114 -2.454681 2.433031
v -2.754844 -1.233997 2.433031
v -0.604615 1.944246 2.433031
v -0.612236 1.944104 2.433031
v -1.850301 1.439357 2.433031
v 2.233434 -0.178867 2.433031
v -2.831708 -0.037809 2.433031
v 1.681526 -1.561359 2.433031
v -2.867599 -0.209179 2.433031
v 2.092417 -0.855607 2.433031
v -0.984299 1.850644 2.433031
v -1.342494 1.714947 2.433031
v 1.317266 -1.944120 2.433031
v 0.595649 1.820193 2.433031
v -1.855795 -2.213245 2.433031
v 0.362338 -2.372358 2.433031
v -2.810531 -1.108981 2.433031
v 2.140053 -0.664764 2.433031
v -1.061094 -2.477414 2.433031
v -2.515686 0.734638 2.433031
v 2.127200 0.790754 2.433031
v -2.867627 -0.440694 2.433031
v 2.115326 0.838230 2.433031
v -2.268236 -1.922194 2.433031
v -0.627243 -2.490232 2.433031
v -2.895761 -0.681462 2.433031
v 1.423059 -1.885807 2.433031
v 1.949318 -1.120135 2.433031
v 0.185278 1.898764 2.433031
v 1.090646 1.697562 2.433031
v 0.255530 1.889778 2.433031
v -2.209793 1.133495 2.433031
v -0.538938 1.945948 2.433031
v -1.838788 -2.223403 2.433031
v -2.269306 1.050887 2.433031
v -2.511361 0.743046 2.433031
v 1.820279 -1.413218 2.433031
v -0.160298 -2.459196 2.433031
v -2.534114 0.702467 2.433031
v -1.800283 -2.242532 2.433031
v -2.654824 -1.482676 2.433031
v -0.398836 -2.475626 2.433031
v -2.425837 -1.781230 2.433031
v 1.903871 1.226987 2.433031
v -1.986113 1.317500 2.433031
v 2.248524 0.318210 2.433031
v 0.670742 1.804949 2.433031
v 2.248987 0.316322 2.433031
v -2.567259 -1.596067 2.433031
v -1.470019 -2.384555 2.433031
v -0.170576 1.947039 2.433031
v -1.043608 1.837884 2.433031
v 1.517304 1.542049 2.433031
v 2.238407 -0.267756 2.433031
v -1.458673 1.671476 2.433031
v 1.877941 1.267858 2.433031
v -2.706589 0.361314 2.433031
v 0.889556 -2.199653 2.433031
v 1.510313 1.544699 2.433031
v -0.927145 -2.488335 2.433031
v -0.210235 1.946644 2.433031
v 0.840479 -2.213754 2.433031
v -2.748457 0.281359 2.433031
v 1.517924 1.541626 2.433031
v 0.289324 -2.382691 2.433031
vt 0.520436 0.512564
vt 0.519672 0.514814
vt 0.518866 0.517125
vt 0.518112 0.519542
vt 0.517333 0.522052
vt 0.516495 0.524595
vt 0.515859 0.527120
vt 0.515742 0.529651
vt 0.515908 0.532174
vt 0.516023 0.534694
vt 0.515913 0.537227
vt 0.515667 0.539778
vt 0.515448 0.542357
vt 0.515219 0.544952
vt 0.514926 0.547550
vt 0.514583 0.550132
vt 0.514433 0.552681
vt 0.514666 0.555222
vt 0.515094 0.557790
vt 0.515474 0.560373
vt 0.515790 0.562953
vt 0.516097 0.565515
vt 0.516432 0.568043
vt 0.516638 0.570554
vt 0.516608 0.573058
vt 0.516518 0.575561
vt 0.516740 0.578043
vt 0.517481 0.580489
vt 0.518408 0.582933
vt 0.519293 0.585328
vt 0.520159 0.587612
vt 0.521200 0.510383
vt 0.521036 0.589780
vt 0.541442 0.517908
vt 0.541116 0.519882
vt 0.540824 0.521902
vt 0.540597 0.523995
vt 0.540382 0.526173
vt 0.540131 0.528403
vt 0.540057 0.530592
vt 0.540384 0.532678
vt 0.540933 0.534701
vt 0.541417 0.536751
vt 0.541694 0.538881
vt 0.541828 0.541074
vt 0.541937 0.543301
vt 0.541981 0.545552
vt 0.541911 0.547821
vt 0.541731 0.550067
vt 0.541639 0.552271
vt 0.541783 0.554470
vt 0.542015 0.556709
vt 0.542138 0.558969
vt 0.542146 0.561212
vt 0.542088 0.563430
vt 0.542001 0.565612
vt 0.541756 0.567733
vt 0.541277 0.569780
vt 0.540713 0.571798
vt 0.540393 0.573869
vt 0.540506 0.576025
vt 0.540799 0.578214
vt 0.541052 0.580353
vt 0.541312 0.582404
vt 0.541770 0.515957
vt 0.541640 0.584388
vt 0.498650 0.503008
vt 0.497446 0.505830
vt 0.496282 0.508699
vt 0.495207 0.511674
vt 0.494123 0.514751
vt 0.492962 0.517865
vt 0.492093 0.520973
vt 0.491894 0.524075
vt 0.492089 0.527164
vt 0.492223 0.530267
vt 0.492068 0.533423
vt 0.491734 0.536640
vt 0.491428 0.539917
vt 0.491100 0.543234
vt 0.490681 0.546570
vt 0.490188 0.549889
vt 0.489980 0.553165
vt 0.490310 0.556429
vt 0.490916 0.559729
vt 0.491450 0.563052
vt 0.491896 0.566363
vt 0.492324 0.569638
vt 0.492785 0.572854
vt 0.493073 0.576018
vt 0.493078 0.579143
vt 0.493029 0.582259
vt 0.493381 0.585368
vt 0.494412 0.588449
vt 0.495744 0.591520
vt 0.497001 0.594558
vt 0.498247 0.597493
vt 0.499577 0.600320
vt 0.499819 0.500184
vt 0.502959 0.562065
vt 0.503344 0.565111
vt 0.503307 0.523396
vt 0.503159 0.526199
vt 0.503707 0.568118
vt 0.503373 0.529003
vt 0.504092 0.571065
vt 0.503533 0.531838
vt 0.504312 0.573950
vt 0.503431 0.534738
vt 0.504278 0.576780
vt 0.503161 0.537706
vt 0.504202 0.579581
vt 0.502911 0.540731
vt 0.504489 0.582369
vt 0.502636 0.543796
vt 0.505387 0.585130
vt 0.502274 0.546877
vt 0.509073 0.507382
vt 0.507979 0.509856
vt 0.506567 0.587873
vt 0.501841 0.549937
vt 0.506956 0.512392
vt 0.507676 0.590573
vt 0.501653 0.552955
vt 0.506021 0.515036
vt 0.508794 0.593169
vt 0.501947 0.555962
vt 0.505083 0.517789
vt 0.510153 0.504879
vt 0.510025 0.595658
vt 0.502487 0.559003
vt 0.504059 0.520589
vt 0.467701 0.641621
vt 0.622975 0.620260
vt 0.622669 0.611321
vt 0.225235 0.611444
vt 0.622975 0.601958
vt 0.468482 0.540314
vt 0.225235 0.602058
vt 0.461540 0.546085
vt 0.454831 0.552246
vt 0.448082 0.558875
vt 0.442310 0.566653
vt 0.438193 0.575301
vt 0.438053 0.584879
vt 0.439785 0.594413
vt 0.442912 0.603349
vt 0.446231 0.611849
vt 0.449999 0.620097
vt 0.456402 0.627210
vt 0.462465 0.634367
vt 0.602476 0.621901
vt 0.485266 0.629429
vt 0.602366 0.615283
vt 0.231034 0.615112
vt 0.602492 0.608398
vt 0.485266 0.555471
vt 0.225556 0.610868
vt 0.479985 0.559619
vt 0.474982 0.564137
vt 0.470034 0.569025
vt 0.465829 0.574739
vt 0.462846 0.581061
vt 0.462716 0.588048
vt 0.463948 0.595031
vt 0.466206 0.601598
vt 0.468659 0.607856
vt 0.471479 0.613906
vt 0.476280 0.619112
vt 0.480929 0.624344
vt 0.450430 0.590691
vt 0.473505 0.549835
vt 0.452605 0.598819
vt 0.467668 0.555239
vt 0.455746 0.606297
vt 0.461532 0.560582
vt 0.458596 0.613642
vt 0.455981 0.566917
vt 0.463270 0.620235
vt 0.612436 0.617319
vt 0.451349 0.574101
vt 0.469157 0.626391
vt 0.612477 0.609257
vt 0.449457 0.582202
vt 0.613072 0.625312
vt 0.474461 0.632730
vt 0.215414 0.611068
vt 0.613074 0.600641
vt 0.231034 0.602058
vt 0.480784 0.545827
vt 0.228657 0.257502
vt 0.229066 0.280514
vt 0.229124 0.304045
vt 0.229092 0.328094
vt 0.228972 0.353116
vt 0.228300 0.380072
vt 0.226729 0.410187
vt 0.223890 0.444921
vt 0.220664 0.486677
vt 0.713859 0.281125
vt 0.704491 0.305076
vt 0.695313 0.331287
vt 0.227785 0.051894
vt 0.229847 0.093056
vt 0.230763 0.127505
vt 0.230844 0.157446
vt 0.230429 0.184529
vt 0.229980 0.209939
vt 0.229472 0.234236
vt 0.263190 0.411317
vt 0.256431 0.257896
vt 0.256317 0.281524
vt 0.256719 0.305297
vt 0.257494 0.329466
vt 0.258987 0.354524
vt 0.257375 0.234052
vt 0.260909 0.381411
vt 0.188646 0.257525
vt 0.187503 0.278580
vt 0.185419 0.299983
vt 0.182914 0.321866
vt 0.179491 0.344897
vt 0.174480 0.369829
vt 0.167037 0.397357
vt 0.155570 0.429179
vt 0.138797 0.465471
vt 0.712111 0.000444
vt 0.114443 0.507644
vt 0.713741 0.048449
vt 0.712853 0.087888
vt 0.710397 0.120605
vt 0.707019 0.148199
vt 0.702127 0.172683
vt 0.696005 0.196375
vt 0.690855 0.219406
vt 0.681146 0.240608
vt 0.672086 0.262334
vt 0.661892 0.283475
vt 0.649216 0.305489
vt 0.633644 0.329994
vt 0.614257 0.357410
vt 0.589994 0.388020
vt 0.122313 0.027482
vt 0.559327 0.422545
vt 0.145668 0.071185
vt 0.160876 0.108292
vt 0.170466 0.139259
vt 0.176851 0.166617
vt 0.181211 0.191329
vt 0.184410 0.214310
vt 0.187050 0.236326
vt 0.187335 0.438641
vt 0.194659 0.405100
vt 0.656676 0.345657
vt 0.669531 0.317973
vt 0.176364 0.479451
vt 0.640485 0.376802
vt 0.159912 0.528228
vt 0.760345 0.000161
vt 0.620057 0.411879
vt 0.752785 0.049357
vt 0.169625 0.007389
vt 0.594421 0.451786
vt 0.744807 0.089799
vt 0.183679 0.058784
vt 0.736731 0.123386
vt 0.192626 0.098550
vt 0.728927 0.151674
vt 0.198385 0.131888
vt 0.722688 0.177153
vt 0.206010 0.279519
vt 0.206160 0.257443
vt 0.201854 0.160945
vt 0.715865 0.202005
vt 0.205213 0.302160
vt 0.203822 0.187183
vt 0.708016 0.225297
vt 0.204193 0.325424
vt 0.205008 0.211738
vt 0.699846 0.248102
vt 0.202491 0.349701
vt 0.205925 0.235095
vt 0.690158 0.270942
vt 0.199509 0.375908
vt 0.679939 0.293322
vt 0.168421 0.257832
vt 0.169300 0.277629
vt 0.168121 0.297665
vt 0.163914 0.317695
vt 0.158719 0.339148
vt 0.151922 0.362408
vt 0.142137 0.387985
vt 0.127856 0.416301
vt 0.107536 0.447589
vt 0.669311 0.008605
vt 0.079152 0.482021
vt 0.678919 0.052523
vt 0.683753 0.089256
vt 0.685163 0.119826
vt 0.684126 0.145884
vt 0.681401 0.169030
vt 0.678501 0.191464
vt 0.673248 0.213562
vt 0.664573 0.234256
vt 0.654129 0.253418
vt 0.643470 0.272631
vt 0.630370 0.292638
vt 0.613715 0.314169
vt 0.592515 0.337689
vt 0.566048 0.363042
vt 0.532486 0.390586
vt 0.085404 0.053485
vt 0.113759 0.088870
vt 0.132914 0.120557
vt 0.145748 0.148669
vt 0.154569 0.173745
vt 0.161216 0.196476
vt 0.166508 0.217309
vt 0.168531 0.237846
vt 0.152213 0.258216
vt 0.152159 0.276767
vt 0.150153 0.295337
vt 0.145857 0.313721
vt 0.139774 0.332903
vt 0.131488 0.354348
vt 0.120102 0.377598
vt 0.104481 0.402199
vt 0.082884 0.428285
vt 0.633402 0.021771
vt 0.053826 0.455061
vt 0.648787 0.060287
vt 0.657486 0.092363
vt 0.662093 0.119938
vt 0.663833 0.144239
vt 0.660887 0.166758
vt 0.657272 0.186649
vt 0.653165 0.207123
vt 0.644938 0.226070
vt 0.636850 0.243895
vt 0.627069 0.262984
vt 0.613149 0.280642
vt 0.596069 0.298985
vt 0.574770 0.318389
vt 0.547603 0.338825
vt 0.513852 0.359107
vt 0.058727 0.080912
vt 0.088220 0.108178
vt 0.108987 0.134339
vt 0.123869 0.159120
vt 0.134583 0.181743
vt 0.142386 0.201703
vt 0.148017 0.220613
vt 0.151140 0.239553
vt 0.106812 0.259916
vt 0.107368 0.274382
vt 0.108362 0.289363
vt 0.105751 0.304447
vt 0.101171 0.320321
vt 0.093083 0.337011
vt 0.081925 0.354628
vt 0.066775 0.372083
vt 0.047458 0.388594
vt 0.581347 0.056786
vt 0.023246 0.403057
vt 0.597341 0.080359
vt 0.605667 0.104545
vt 0.609949 0.125180
vt 0.611951 0.143914
vt 0.612538 0.161255
vt 0.610941 0.177438
vt 0.608585 0.193702
vt 0.602025 0.208614
vt 0.595028 0.222857
vt 0.585759 0.236693
vt 0.575082 0.250855
vt 0.562091 0.265333
vt 0.544868 0.280763
vt 0.522689 0.292830
vt 0.026347 0.133666
vt 0.495485 0.300621
vt 0.050684 0.148022
vt 0.069916 0.164595
vt 0.084269 0.182000
vt 0.094796 0.198725
vt 0.101300 0.214800
vt 0.105517 0.230053
vt 0.105972 0.245357
vt 0.063200 0.408491
vt 0.084354 0.387372
vt 0.558832 0.299374
vt 0.578216 0.282656
vt 0.036040 0.428297
vt 0.604446 0.039051
vt 0.533599 0.315203
vt 0.621494 0.069710
vt 0.501707 0.328816
vt 0.039711 0.108004
vt 0.630790 0.097180
vt 0.067555 0.128103
vt 0.634974 0.121349
vt 0.088270 0.149288
vt 0.636830 0.143157
vt 0.103586 0.170194
vt 0.638796 0.163950
vt 0.134586 0.275830
vt 0.134911 0.258752
vt 0.115157 0.189552
vt 0.638099 0.182546
vt 0.132338 0.293000
vt 0.123581 0.207098
vt 0.633365 0.201020
vt 0.127659 0.309879
vt 0.129795 0.224249
vt 0.627152 0.218838
vt 0.121109 0.327054
vt 0.133372 0.241600
vt 0.617783 0.234273
vt 0.112066 0.345926
vt 0.605073 0.249713
vt 0.100243 0.366316
vt 0.592916 0.265942
vt 0.098432 0.260340
vt 0.098189 0.273745
vt 0.095932 0.287168
vt 0.091257 0.300429
vt 0.085056 0.314274
vt 0.077297 0.328807
vt 0.066267 0.343477
vt 0.051787 0.357099
vt 0.035076 0.369605
vt 0.563696 0.072730
vt 0.015218 0.380989
vt 0.580081 0.089668
vt 0.591988 0.108574
vt 0.595840 0.127247
vt 0.598705 0.143952
vt 0.598193 0.159694
vt 0.596846 0.174931
vt 0.594425 0.189687
vt 0.588910 0.203458
vt 0.582371 0.216929
vt 0.575033 0.230224
vt 0.564713 0.242537
vt 0.552995 0.255867
vt 0.535069 0.265950
vt 0.514689 0.273049
vt 0.017190 0.156746
vt 0.492235 0.276090
vt 0.037211 0.166865
vt 0.054837 0.178919
vt 0.068634 0.192782
vt 0.078666 0.206962
vt 0.086770 0.220535
vt 0.093059 0.233577
vt 0.096784 0.246934
vt 0.076304 0.261573
vt 0.076437 0.272745
vt 0.075017 0.283961
vt 0.071509 0.295177
vt 0.065578 0.306315
vt 0.057357 0.317276
vt 0.046802 0.327632
vt 0.034565 0.336286
vt 0.022088 0.344536
vt 0.542800 0.093162
vt 0.008159 0.352525
vt 0.555228 0.103500
vt 0.563796 0.117196
vt 0.570615 0.131863
vt 0.574478 0.145678
vt 0.575143 0.158639
vt 0.573245 0.171023
vt 0.570084 0.183052
vt 0.566868 0.195010
vt 0.562472 0.206507
vt 0.555708 0.217153
vt 0.546019 0.226982
vt 0.533679 0.236198
vt 0.520498 0.244007
vt 0.505674 0.247623
vt 0.489980 0.246469
vt 0.008331 0.185462
vt 0.022737 0.191876
vt 0.036922 0.198678
vt 0.049499 0.207700
vt 0.059580 0.217787
vt 0.067183 0.228368
vt 0.072211 0.239299
vt 0.075056 0.250414
vt 0.029746 0.264910
vt 0.029735 0.269930
vt 0.028836 0.274950
vt 0.027033 0.279910
vt 0.024290 0.284727
vt 0.020678 0.289224
vt 0.016433 0.293083
vt 0.011630 0.296102
vt 0.006170 0.298204
vt 0.000166 0.299123
vt 0.512266 0.136853
vt 0.517005 0.140709
vt 0.520746 0.145410
vt 0.523476 0.150560
vt 0.525162 0.155943
vt 0.525957 0.161354
vt 0.525887 0.166641
vt 0.525037 0.171608
vt 0.523468 0.176383
vt 0.521080 0.181054
vt 0.517898 0.185414
vt 0.513986 0.189339
vt 0.509303 0.192598
vt 0.503958 0.195019
vt 0.498130 0.196306
vt 0.000362 0.235634
vt 0.492088 0.196279
vt 0.006294 0.236770
vt 0.011702 0.238962
vt 0.016671 0.242119
vt 0.021081 0.246037
vt 0.024638 0.250420
vt 0.027248 0.255088
vt 0.028944 0.259941
vt 0.000161 0.267428
vt 0.497999 0.165049
vt 0.545305 0.518062
vt 0.545764 0.516320
vt 0.551794 0.558202
vt 0.552093 0.556495
vt 0.546543 0.530650
vt 0.546000 0.528781
vt 0.551340 0.560420
vt 0.551725 0.558695
vt 0.547213 0.532719
vt 0.546631 0.530977
vt 0.550793 0.562627
vt 0.551253 0.560888
vt 0.547932 0.534713
vt 0.547317 0.533045
vt 0.550172 0.564811
vt 0.550694 0.563065
vt 0.548690 0.536718
vt 0.548045 0.535038
vt 0.549508 0.566939
vt 0.550067 0.565218
vt 0.549465 0.538785
vt 0.548812 0.537060
vt 0.548830 0.568980
vt 0.549402 0.567313
vt 0.550212 0.540905
vt 0.549593 0.539162
vt 0.548154 0.570977
vt 0.548721 0.569329
vt 0.550885 0.543052
vt 0.550342 0.541321
vt 0.547505 0.573032
vt 0.548040 0.571315
vt 0.551457 0.545217
vt 0.551010 0.543502
vt 0.546900 0.575216
vt 0.547398 0.573370
vt 0.551913 0.547392
vt 0.551568 0.545696
vt 0.545030 0.520024
vt 0.545282 0.518243
vt 0.546369 0.577472
vt 0.546812 0.575543
vt 0.552231 0.549545
vt 0.552003 0.547897
vt 0.544966 0.522033
vt 0.545021 0.520209
vt 0.545966 0.579681
vt 0.546298 0.577767
vt 0.552388 0.551668
vt 0.552299 0.550069
vt 0.545102 0.524113
vt 0.544971 0.522232
vt 0.545726 0.581790
vt 0.545913 0.579937
vt 0.552351 0.553799
vt 0.552418 0.552196
vt 0.545434 0.526272
vt 0.545124 0.524334
vt 0.545667 0.583817
vt 0.545690 0.582012
vt 0.552139 0.555981
vt 0.552337 0.554322
vt 0.545934 0.528480
vt 0.545476 0.526529
vt 0.545282 0.518243
vt 0.545305 0.518062
vt 0.551725 0.558695
vt 0.551794 0.558202
vt 0.546631 0.530977
vt 0.546543 0.530650
vt 0.551253 0.560888
vt 0.551340 0.560420
vt 0.547317 0.533045
vt 0.547213 0.532719
vt 0.550694 0.563065
vt 0.550793 0.562627
vt 0.548045 0.535038
vt 0.547932 0.534713
vt 0.550067 0.565218
vt 0.550172 0.564811
vt 0.548812 0.537060
vt 0.548690 0.536718
vt 0.549402 0.567313
vt 0.549508 0.566939
vt 0.549593 0.539162
vt 0.549465 0.538785
vt 0.548721 0.569329
vt 0.548830 0.568980
vt 0.550342 0.541321
vt 0.550212 0.540905
vt 0.548040 0.571315
vt 0.548154 0.570977
vt 0.551010 0.543502
vt 0.550885 0.543052
vt 0.547398 0.573370
vt 0.547505 0.573032
vt 0.551568 0.545696
vt 0.551457 0.545217
vt 0.546812 0.575543
vt 0.546900 0.575216
vt 0.552003 0.547897
vt 0.551913 0.547392
vt 0.545021 0.520209
vt 0.545030 0.520024
vt 0.546298 0.577767
vt 0.546369 0.577472
vt 0.552299 0.550069
vt 0.552231 0.549545
vt 0.544971 0.522232
vt 0.544966 0.522033
vt 0.545913 0.579937
vt 0.545966 0.579681
vt 0.552418 0.552196
vt 0.552388 0.551668
vt 0.545124 0.524334
vt 0.545102 0.524113
vt 0.545690 0.582012
vt 0.545726 0.581790
vt 0.552337 0.554322
vt 0.552351 0.553799
vt 0.545476 0.526529
vt 0.545434 0.526272
vt 0.545646 0.584015
vt 0.545667 0.583817
vt 0.552093 0.556495
vt 0.552139 0.555981
vt 0.546000 0.528781
vt 0.545934 0.528480
vt 0.270144 0.258280
vt 0.272366 0.269506
vt 0.274204 0.281905
vt 0.275143 0.290772
vt 0.277490 0.305382
vt 0.277451 0.313125
vt 0.278797 0.329174
vt 0.277695 0.338327
vt 0.277688 0.353834
vt 0.274359 0.369115
vt 0.264011 0.234299
vt 0.268092 0.249423
vt 0.273397 0.380574
vt 0.265065 0.409501
vt 0.707600 0.306286
vt 0.695378 0.331264
vt 0.716786 0.282276
vt 0.708323 0.303829
vt 0.258168 0.209546
vt 0.258308 0.209983
vt 0.258308 0.209983
vt 0.258707 0.211726
vt 0.252775 0.184193
vt 0.254417 0.189422
vt 0.247705 0.157259
vt 0.250799 0.167714
vt 0.242330 0.127489
vt 0.246865 0.144276
vt 0.236237 0.093152
vt 0.242259 0.118042
vt 0.228730 0.051932
vt 0.236441 0.087653
vt 0.249867 0.445371
vt 0.232180 0.476233
vt 0.263497 0.415207
vt 0.249867 0.445371
vt 0.722955 0.257619
vt 0.722932 0.257708
vt 0.722958 0.257608
vt 0.722955 0.257619
vt 0.727422 0.232136
vt 0.726759 0.235958
vt 0.730014 0.206259
vt 0.729676 0.214661
vt 0.732085 0.179819
vt 0.731572 0.193680
vt 0.734603 0.153042
vt 0.733612 0.171315
vt 0.739390 0.123951
vt 0.736282 0.147637
vt 0.748488 0.090524
vt 0.740671 0.121036
vt 0.222223 0.005542
vt 0.227509 0.043327
vt 0.220203 0.000918
vt 0.222223 0.005542
vt 0.766512 0.052010
vt 0.751647 0.085511
vt 0.650479 0.429168
vt 0.646725 0.436129
vt 0.795362 0.007206
vt 0.782677 0.030050
vt 0.666754 0.391478
vt 0.662996 0.397929
vt 0.219112 0.503416
vt 0.197268 0.536103
vt 0.681854 0.359316
vt 0.679565 0.362918
vt 0.695143 0.331776
vt 0.681854 0.359316
vt 0.264824 0.411147
vt 0.263497 0.415207
vt 0.272366 0.269506
vt 0.274204 0.281905
vt 0.275143 0.290772
vt 0.277490 0.305382
vt 0.277451 0.313125
vt 0.278797 0.329174
vt 0.277695 0.338327
vt 0.277688 0.353834
vt 0.258707 0.211726
vt 0.263348 0.229917
vt 0.263348 0.229917
vt 0.264011 0.234299
vt 0.274359 0.369115
vt 0.273397 0.380574
vt 0.268092 0.249423
vt 0.270144 0.258280
vt 0.265065 0.409501
vt 0.264824 0.411147
vt 0.695378 0.331264
vt 0.695363 0.331307
vt 0.708323 0.303829
vt 0.707600 0.306286
vt 0.722932 0.257708
vt 0.717359 0.279981
vt 0.717359 0.279981
vt 0.716786 0.282276
vt 0.254417 0.189422
vt 0.258168 0.209546
vt 0.250799 0.167714
vt 0.252775 0.184193
vt 0.246865 0.144276
vt 0.247705 0.157259
vt 0.242259 0.118042
vt 0.242330 0.127489
vt 0.236441 0.087653
vt 0.236237 0.093152
vt 0.227509 0.043327
vt 0.228823 0.051087
vt 0.228823 0.051087
vt 0.228730 0.051932
vt 0.227527 0.486634
vt 0.219112 0.503416
vt 0.232180 0.476233
vt 0.227527 0.486634
vt 0.695363 0.331307
vt 0.695143 0.331776
vt 0.726759 0.235958
vt 0.722958 0.257608
vt 0.729676 0.214661
vt 0.727422 0.232136
vt 0.731572 0.193680
vt 0.730014 0.206259
vt 0.733612 0.171315
vt 0.732085 0.179819
vt 0.736282 0.147637
vt 0.734603 0.153042
vt 0.740671 0.121036
vt 0.739390 0.123951
vt 0.751647 0.085511
vt 0.748488 0.090524
vt 0.646725 0.436129
vt 0.633807 0.473141
vt 0.782677 0.030050
vt 0.766512 0.052010
vt 0.662996 0.397929
vt 0.650479 0.429168
vt 0.679565 0.362918
vt 0.666754 0.391478
vt 0.145095 0.105770
vt 0.236979 0.907752
vt 0.765413 0.946854
vt 0.008137 0.370418
vt 1.000000 0.632444
vt 0.336582 0.008012
vt 0.027390 0.283110
vt 0.445332 0.999371
vt 0.443851 0.999339
vt 0.203207 0.885587
vt 0.996967 0.520898
vt 0.012450 0.552687
vt 0.889692 0.209334
vt 0.005474 0.514067
vt 0.969557 0.368385
vt 0.371533 0.978276
vt 0.301910 0.947695
vt 0.818891 0.123074
vt 0.678629 0.971414
vt 0.202139 0.062423
vt 0.633280 0.026565
vt 0.016566 0.311284
vt 0.978817 0.411394
vt 0.356606 0.002889
vt 0.073876 0.726769
vt 0.976318 0.739415
vt 0.005469 0.461892
vt 0.974010 0.750115
vt 0.121973 0.128015
vt 0.440934 0.000000
vt 0.000000 0.407631
vt 0.839454 0.136215
vt 0.941743 0.308770
vt 0.598865 0.989121
vt 0.774842 0.943777
vt 0.612520 0.987096
vt 0.133332 0.816657
vt 0.458098 0.999754
vt 0.205445 0.060133
vt 0.121765 0.798040
vt 0.074716 0.728664
vt 0.916662 0.242720
vt 0.531695 0.006994
vt 0.070294 0.719519
vt 0.212929 0.055823
vt 0.046831 0.227067
vt 0.485330 0.003292
vt 0.091340 0.159783
vt 0.932910 0.837727
vt 0.176809 0.858125
vt 0.999900 0.632921
vt 0.693225 0.967978
vt 0.999990 0.632496
vt 0.063851 0.201512
vt 0.277123 0.023816
vt 0.529697 1.000000
vt 0.360005 0.975401
vt 0.857772 0.908730
vt 0.997934 0.500866
vt 0.279328 0.937898
vt 0.927870 0.846937
vt 0.036770 0.642635
vt 0.735756 0.065486
vt 0.856413 0.909327
vt 0.382642 0.000427
vt 0.521989 0.999911
vt 0.726217 0.062308
vt 0.028632 0.624616
vt 0.857893 0.908635
vt 0.619088 0.024236
usemtl cherry_skin
f 101/101 21/21 20/20
f 101/101 20/20 100/100
f 103/103 8/8 7/7
f 103/103 7/7 102/102
f 104/104 22/22 21/21
f 104/104 21/21 101/101
f 9/9 8/8 103/103
f 9/9 103/103 105/105
f 106/106 23/23 22/22
f 106/106 22/22 104/104
f 107/107 10/10 9/9
f 107/107 9/9 105/105
f 108/108 24/24 23/23
f 108/108 23/23 106/106
f 109/109 11/11 10/10
f 109/109 10/10 107/107
f 110/110 25/25 24/24
f 110/110 24/24 108/108
f 111/111 12/12 11/11
f 111/111 11/11 109/109
f 112/112 26/26 25/25
f 112/112 25/25 110/110
f 113/113 13/13 12/12
f 113/113 12/12 111/111
f 114/114 27/27 26/26
f 114/114 26/26 112/112
f 115/115 14/14 13/13
f 115/115 13/13 113/113
f 116/116 28/28 27/27
f 116/116 27/27 114/114
f 117/117 15/15 14/14
f 117/117 14/14 115/115
f 119/119 2/2 1/1
f 119/119 1/1 118/118
f 120/120 29/29 28/28
f 120/120 28/28 116/116
f 121/121 16/16 15/15
f 121/121 15/15 117/117
f 122/122 3/3 2/2
f 122/122 2/2 119/119
f 123/123 30/30 29/29
f 123/123 29/29 120/120
f 124/124 17/17 16/16
f 124/124 16/16 121/121
f 125/125 4/4 3/3
f 125/125 3/3 122/122
f 126/126 31/31 30/30
f 126/126 30/30 123/123
f 127/127 18/18 17/17
f 127/127 17/17 124/124
f 128/128 5/5 4/4
f 128/128 4/4 125/125
f 130/130 33/33 31/31
f 130/130 31/31 126/126
f 131/131 19/19 18/18
f 131/131 18/18 127/127
f 132/132 6/6 5/5
f 132/132 5/5 128/128
f 118/118 1/1 32/32
f 118/118 32/32 129/129
f 100/100 20/20 19/19
f 100/100 19/19 131/131
f 27/27 60/60 59/59
f 27/27 59/59 26/26
f 14/14 47/47 46/46
f 14/14 46/46 13/13
f 28/28 61/61 60/60
f 28/28 60/60 27/27
f 15/15 48/48 47/47
f 15/15 47/47 14/14
f 2/2 35/35 34/34
f 2/2 34/34 1/1
f 29/29 62/62 61/61
f 29/29 61/61 28/28
f 16/16 49/49 48/48
f 16/16 48/48 15/15
f 3/3 36/36 35/35
f 3/3 35/35 2/2
f 30/30 63/63 62/62
f 30/30 62/62 29/29
f 17/17 50/50 49/49
f 17/17 49/49 16/16
f 4/4 37/37 36/36
f 4/4 36/36 3/3
f 31/31 64/64 63/63
f 31/31 63/63 30/30
f 18/18 51/51 50/50
f 18/18 50/50 17/17
f 5/5 38/38 37/37
f 5/5 37/37 4/4
f 33/33 66/66 64/64
f 33/33 64/64 31/31
f 19/19 52/52 51/51
f 19/19 51/51 18/18
f 6/6 39/39 38/38
f 6/6 38/38 5/5
f 1/1 34/34 65/65
f 1/1 65/65 32/32
f 20/20 53/53 52/52
f 20/20 52/52 19/19
f 7/7 40/40 39/39
f 7/7 39/39 6/6
f 21/21 54/54 53/53
f 21/21 53/53 20/20
f 8/8 41/41 40/40
f 8/8 40/40 7/7
f 22/22 55/55 54/54
f 22/22 54/54 21/21
f 9/9 42/42 41/41
f 9/9 41/41 8/8
f 23/23 56/56 55/55
f 23/23 55/55 22/22
f 10/10 43/43 42/42
f 10/10 42/42 9/9
f 24/24 57/57 56/56
f 24/24 56/56 23/23
f 11/11 44/44 43/43
f 11/11 43/43 10/10
f 25/25 58/58 57/57
f 25/25 57/57 24/24
f 12/12 45/45 44/44
f 12/12 44/44 11/11
f 26/26 59/59 58/58
f 26/26 58/58 25/25
f 13/13 46/46 45/45
f 13/13 45/45 12/12
f 73/73 102/102 132/132
f 73/73 132/132 72/72
f 86/86 100/100 131/131
f 86/86 131/131 85/85
f 67/67 118/118 129/129
f 67/67 129/129 99/99
f 72/72 132/132 128/128
f 72/72 128/128 71/71
f 85/85 131/131 127/127
f 85/85 127/127 84/84
f 98/98 130/130 126/126
f 98/98 126/126 97/97
f 71/71 128/128 125/125
f 71/71 125/125 70/70
f 84/84 127/127 124/124
f 84/84 124/124 83/83
f 97/97 126/126 123/123
f 97/97 123/123 96/96
f 70/70 125/125 122/122
f 70/70 122/122 69/69
f 83/83 124/124 121/121
f 83/83 121/121 82/82
f 96/96 123/123 120/120
f 96/96 120/120 95/95
f 69/69 122/122 119/119
f 69/69 119/119 68/68
f 82/82 121/121 117/117
f 82/82 117/117 81/81
f 95/95 120/120 116/116
f 95/95 116/116 94/94
f 68/68 119/119 118/118
f 68/68 118/118 67/67
f 81/81 117/117 115/115
f 81/81 115/115 80/80
f 94/94 116/116 114/114
f 94/94 114/114 93/93
f 80/80 115/115 113/113
f 80/80 113/113 79/79
f 93/93 114/114 112/112
f 93/93 112/112 92/92
f 79/79 113/113 111/111
f 79/79 111/111 78/78
f 92/92 112/112 110/110
f 92/92 110/110 91/91
f 78/78 111/111 109/109
f 78/78 109/109 77/77
f 91/91 110/110 108/108
f 91/91 108/108 90/90
f 77/77 109/109 107/107
f 77/77 107/107 76/76
f 90/90 108/108 106/106
f 90/90 106/106 89/89
f 76/76 107/107 105/105
f 76/76 105/105 75/75
f 89/89 106/106 104/104
f 89/89 104/104 88/88
f 75/75 105/105 103/103
f 75/75 103/103 74/74
f 88/88 104/104 101/101
f 88/88 101/101 87/87
f 74/74 103/103 102/102
f 74/74 102/102 73/73
f 87/87 101/101 100/100
f 87/87 100/100 86/86
f 102/102 7/7 6/6
f 102/102 6/6 132/132
f 173/173 165/165 171/171
f 173/173 171/171 146/146
f 174/174 159/159 172/172
f 174/174 172/172 140/140
f 175/175 166/166 173/173
f 175/175 173/173 147/147
f 176/176 160/160 174/174
f 176/176 174/174 141/141
f 177/177 167/167 175/175
f 177/177 175/175 148/148
f 178/178 161/161 176/176
f 178/178 176/176 142/142
f 179/179 168/168 177/177
f 179/179 177/177 149/149
f 181/181 162/162 178/178
f 181/181 178/178 143/143
f 182/182 169/169 179/179
f 182/182 179/179 150/150
f 183/183 154/154 180/180
f 183/183 180/180 135/135
f 184/184 163/163 181/181
f 184/184 181/181 144/144
f 186/186 170/170 182/182
f 186/186 182/182 151/151
f 188/188 156/156 183/183
f 188/188 183/183 137/137
f 185/185 134/134 180/180
f 185/185 180/180 152/152
f 171/171 164/164 184/184
f 171/171 184/184 145/145
f 190/190 138/138 172/172
f 190/190 172/172 157/157
f 197/197 196/196 217/217
f 197/197 217/217 210/210
f 191/191 209/209 216/216
f 191/191 216/216 211/211
f 196/196 195/195 215/215
f 196/196 215/215 217/217
f 195/195 194/194 214/214
f 195/195 214/214 215/215
f 194/194 193/193 213/213
f 194/194 213/213 214/214
f 193/193 192/192 212/212
f 193/193 212/212 213/213
f 192/192 191/191 211/211
f 192/192 211/211 212/212
f 198/198 197/197 210/210
f 253/253 252/252 225/225
f 253/253 225/225 224/224
f 255/255 254/254 240/240
f 255/255 240/240 239/239
f 252/252 256/256 226/226
f 252/252 226/226 225/225
f 254/254 257/257 241/241
f 254/254 241/241 240/240
f 256/256 258/258 228/228
f 256/256 228/228 226/226
f 257/257 260/260 242/242
f 257/257 242/242 241/241
f 259/259 261/261 229/229
f 259/259 229/229 227/227
f 260/260 263/263 244/244
f 260/260 244/244 242/242
f 261/261 264/264 230/230
f 261/261 230/230 229/229
f 262/262 265/265 245/245
f 262/262 245/245 243/243
f 264/264 266/266 231/231
f 264/264 231/231 230/230
f 265/265 267/267 246/246
f 265/265 246/246 245/245
f 266/266 268/268 232/232
f 266/266 232/232 231/231
f 267/267 269/269 247/247
f 267/267 247/247 246/246
f 268/268 270/270 233/233
f 268/268 233/233 232/232
f 272/272 271/271 219/219
f 272/272 219/219 218/218
f 269/269 273/273 248/248
f 269/269 248/248 247/247
f 270/270 274/274 234/234
f 270/270 234/234 233/233
f 271/271 275/275 220/220
f 271/271 220/220 219/219
f 273/273 276/276 249/249
f 273/273 249/249 248/248
f 274/274 277/277 235/235
f 274/274 235/235 234/234
f 275/275 278/278 221/221
f 275/275 221/221 220/220
f 276/276 279/279 250/250
f 276/276 250/250 249/249
f 277/277 280/280 236/236
f 277/277 236/236 235/235
f 278/278 281/281 222/222
f 278/278 222/222 221/221
f 279/279 282/282 251/251
f 279/279 251/251 250/250
f 280/280 283/283 237/237
f 280/280 237/237 236/236
f 281/281 284/284 223/223
f 281/281 223/223 222/222
f 282/282 272/272 218/218
f 282/282 218/218 251/251
f 283/283 285/285 238/238
f 283/283 238/238 237/237
f 284/284 253/253 224/224
f 284/284 224/224 223/223
f 285/285 255/255 239/239
f 285/285 239/239 238/238
f 201/201 202/202 255/255
f 201/201 255/255 285/285
f 196/196 197/197 253/253
f 196/196 253/253 284/284
f 200/200 201/201 285/285
f 200/200 285/285 283/283
f 209/209 191/191 272/272
f 209/209 272/272 282/282
f 195/195 196/196 284/284
f 195/195 284/284 281/281
f 208/208 209/209 282/282
f 208/208 282/282 279/279
f 194/194 195/195 281/281
f 194/194 281/281 278/278
f 207/207 208/208 279/279
f 207/207 279/279 276/276
f 193/193 194/194 278/278
f 193/193 278/278 275/275
f 206/206 207/207 276/276
f 206/206 276/276 273/273
f 192/192 193/193 275/275
f 192/192 275/275 271/271
f 205/205 206/206 273/273
f 205/205 273/273 269/269
f 191/191 192/192 271/271
f 191/191 271/271 272/272
f 204/204 205/205 269/269
f 204/204 269/269 267/267
f 203/203 204/204 267/267
f 203/203 267/267 265/265
f 199/199 258/258 256/256
f 198/198 199/199 256/256
f 198/198 256/256 252/252
f 202/202 254/254 255/255
f 197/197 198/198 252/252
f 197/197 252/252 253/253
f 240/240 308/308 307/307
f 240/240 307/307 239/239
f 226/226 294/294 293/293
f 226/226 293/293 225/225
f 241/241 309/309 308/308
f 241/241 308/308 240/240
f 228/228 296/296 294/294
f 228/228 294/294 226/226
f 242/242 310/310 309/309
f 242/242 309/309 241/241
f 229/229 297/297 295/295
f 229/229 295/295 227/227
f 244/244 311/311 310/310
f 244/244 310/310 242/242
f 230/230 298/298 297/297
f 230/230 297/297 229/229
f 245/245 313/313 312/312
f 245/245 312/312 243/243
f 231/231 299/299 298/298
f 231/231 298/298 230/230
f 246/246 314/314 313/313
f 246/246 313/313 245/245
f 232/232 300/300 299/299
f 232/232 299/299 231/231
f 247/247 315/315 314/314
f 247/247 314/314 246/246
f 233/233 301/301 300/300
f 233/233 300/300 232/232
f 248/248 316/316 315/315
f 248/248 315/315 247/247
f 234/234 302/302 301/301
f 234/234 301/301 233/233
f 220/220 288/288 287/287
f 220/220 287/287 219/219
f 249/249 317/317 316/316
f 249/249 316/316 248/248
f 235/235 303/303 302/302
f 235/235 302/302 234/234
f 221/221 289/289 288/288
f 221/221 288/288 220/220
f 250/250 318/318 317/317
f 250/250 317/317 249/249
f 236/236 304/304 303/303
f 236/236 303/303 235/235
f 222/222 290/290 289/289
f 222/222 289/289 221/221
f 251/251 319/319 318/318
f 251/251 318/318 250/250
f 237/237 305/305 304/304
f 237/237 304/304 236/236
f 223/223 291/291 290/290
f 223/223 290/290 222/222
f 218/218 286/286 319/319
f 218/218 319/319 251/251
f 238/238 306/306 305/305
f 238/238 305/305 237/237
f 224/224 292/292 291/291
f 224/224 291/291 223/223
f 239/239 307/307 306/306
f 239/239 306/306 238/238
f 225/225 293/293 292/292
f 225/225 292/292 224/224
f 219/219 287/287 286/286
f 219/219 286/286 218/218
f 290/290 291/291 325/325
f 290/290 325/325 324/324
f 319/319 286/286 320/320
f 319/319 320/320 353/353
f 305/305 306/306 340/340
f 305/305 340/340 339/339
f 291/291 292/292 326/326
f 291/291 326/326 325/325
f 306/306 307/307 341/341
f 306/306 341/341 340/340
f 292/292 293/293 327/327
f 292/292 327/327 326/326
f 307/307 308/308 342/342
f 307/307 342/342 341/341
f 293/293 294/294 328/328
f 293/293 328/328 327/327
f 308/308 309/309 343/343
f 308/308 343/343 342/342
f 294/294 296/296 330/330
f 294/294 330/330 328/328
f 309/309 310/310 344/344
f 309/309 344/344 343/343
f 295/295 297/297 331/331
f 295/295 331/331 329/329
f 310/310 311/311 345/345
f 310/310 345/345 344/344
f 297/297 298/298 332/332
f 297/297 332/332 331/331
f 312/312 313/313 347/347
f 312/312 347/347 346/346
f 298/298 299/299 333/333
f 298/298 333/333 332/332
f 313/313 314/314 348/348
f 313/313 348/348 347/347
f 299/299 300/300 334/334
f 299/299 334/334 333/333
f 314/314 315/315 349/349
f 314/314 349/349 348/348
f 300/300 301/301 335/335
f 300/300 335/335 334/334
f 286/286 287/287 321/321
f 286/286 321/321 320/320
f 315/315 316/316 350/350
f 315/315 350/350 349/349
f 301/301 302/302 336/336
f 301/301 336/336 335/335
f 287/287 288/288 322/322
f 287/287 322/322 321/321
f 316/316 317/317 351/351
f 316/316 351/351 350/350
f 302/302 303/303 337/337
f 302/302 337/337 336/336
f 288/288 289/289 323/323
f 288/288 323/323 322/322
f 317/317 318/318 352/352
f 317/317 352/352 351/351
f 303/303 304/304 338/338
f 303/303 338/338 337/337
f 289/289 290/290 324/324
f 289/289 324/324 323/323
f 318/318 319/319 353/353
f 318/318 353/353 352/352
f 304/304 305/305 339/339
f 304/304 339/339 338/338
f 389/389 388/388 362/362
f 389/389 362/362 361/361
f 391/391 390/390 377/377
f 391/391 377/377 376/376
f 388/388 392/392 364/364
f 388/388 364/364 362/362
f 390/390 394/394 378/378
f 390/390 378/378 377/377
f 393/393 395/395 365/365
f 393/393 365/365 363/363
f 394/394 396/396 380/380
f 394/394 380/380 378/378
f 395/395 398/398 366/366
f 395/395 366/366 365/365
f 397/397 399/399 381/381
f 397/397 381/381 379/379
f 398/398 400/400 367/367
f 398/398 367/367 366/366
f 399/399 401/401 382/382
f 399/399 382/382 381/381
f 400/400 402/402 368/368
f 400/400 368/368 367/367
f 401/401 403/403 383/383
f 401/401 383/383 382/382
f 402/402 404/404 369/369
f 402/402 369/369 368/368
f 406/406 405/405 355/355
f 406/406 355/355 354/354
f 403/403 407/407 384/384
f 403/403 384/384 383/383
f 404/404 408/408 370/370
f 404/404 370/370 369/369
f 405/405 409/409 356/356
f 405/405 356/356 355/355
f 407/407 410/410 385/385
f 407/407 385/385 384/384
f 408/408 411/411 371/371
f 408/408 371/371 370/370
f 409/409 412/412 357/357
f 409/409 357/357 356/356
f 410/410 413/413 386/386
f 410/410 386/386 385/385
f 411/411 414/414 372/372
f 411/411 372/372 371/371
f 412/412 415/415 358/358
f 412/412 358/358 357/357
f 413/413 416/416 387/387
f 413/413 387/387 386/386
f 414/414 417/417 373/373
f 414/414 373/373 372/372
f 415/415 418/418 359/359
f 415/415 359/359 358/358
f 416/416 406/406 354/354
f 416/416 354/354 387/387
f 417/417 419/419 374/374
f 417/417 374/374 373/373
f 418/418 420/420 360/360
f 418/418 360/360 359/359
f 419/419 421/421 375/375
f 419/419 375/375 374/374
f 420/420 389/389 361/361
f 420/420 361/361 360/360
f 421/421 391/391 376/376
f 421/421 376/376 375/375
f 341/341 342/342 391/391
f 341/341 391/391 421/421
f 326/326 327/327 389/389
f 326/326 389/389 420/420
f 340/340 341/341 421/421
f 340/340 421/421 419/419
f 325/325 326/326 420/420
f 325/325 420/420 418/418
f 339/339 340/340 419/419
f 339/339 419/419 417/417
f 353/353 320/320 406/406
f 353/353 406/406 416/416
f 324/324 325/325 418/418
f 324/324 418/418 415/415
f 338/338 339/339 417/417
f 338/338 417/417 414/414
f 352/352 353/353 416/416
f 352/352 416/416 413/413
f 323/323 324/324 415/415
f 323/323 415/415 412/412
f 337/337 338/338 414/414
f 337/337 414/414 411/411
f 351/351 352/352 413/413
f 351/351 413/413 410/410
f 322/322 323/323 412/412
f 322/322 412/412 409/409
f 336/336 337/337 411/411
f 336/336 411/411 408/408
f 350/350 351/351 410/410
f 350/350 410/410 407/407
f 321/321 322/322 409/409
f 321/321 409/409 405/405
f 335/335 336/336 408/408
f 335/335 408/408 404/404
f 349/349 350/350 407/407
f 349/349 407/407 403/403
f 320/320 321/321 405/405
f 320/320 405/405 406/406
f 334/334 335/335 404/404
f 334/334 404/404 402/402
f 348/348 349/349 403/403
f 348/348 403/403 401/401
f 333/333 334/334 402/402
f 333/333 402/402 400/400
f 347/347 348/348 401/401
f 347/347 401/401 399/399
f 332/332 333/333 400/400
f 332/332 400/400 398/398
f 346/346 347/347 399/399
f 346/346 399/399 397/397
f 331/331 332/332 398/398
f 331/331 398/398 395/395
f 344/344 345/345 396/396
f 344/344 396/396 394/394
f 329/329 331/331 395/395
f 329/329 395/395 393/393
f 343/343 344/344 394/394
f 343/343 394/394 390/390
f 328/328 330/330 392/392
f 328/328 392/392 388/388
f 342/342 343/343 390/390
f 342/342 390/390 391/391
f 327/327 328/328 388/388
f 327/327 388/388 389/389
f 365/365 366/366 434/434
f 365/365 434/434 433/433
f 379/379 381/381 449/449
f 379/379 449/449 447/447
f 366/366 367/367 435/435
f 366/366 435/435 434/434
f 381/381 382/382 450/450
f 381/381 450/450 449/449
f 367/367 368/368 436/436
f 367/367 436/436 435/435
f 382/382 383/383 451/451
f 382/382 451/451 450/450
f 368/368 369/369 437/437
f 368/368 437/437 436/436
f 354/354 355/355 423/423
f 354/354 423/423 422/422
f 383/383 384/384 452/452
f 383/383 452/452 451/451
f 369/369 370/370 438/438
f 369/369 438/438 437/437
f 355/355 356/356 424/424
f 355/355 424/424 423/423
f 384/384 385/385 453/453
f 384/384 453/453 452/452
f 370/370 371/371 439/439
f 370/370 439/439 438/438
f 356/356 357/357 425/425
f 356/356 425/425 424/424
f 385/385 386/386 454/454
f 385/385 454/454 453/453
f 371/371 372/372 440/440
f 371/371 440/440 439/439
f 357/357 358/358 426/426
f 357/357 426/426 425/425
f 386/386 387/387 455/455
f 386/386 455/455 454/454
f 372/372 373/373 441/441
f 372/372 441/441 440/440
f 358/358 359/359 427/427
f 358/358 427/427 426/426
f 387/387 354/354 422/422
f 387/387 422/422 455/455
f 373/373 374/374 442/442
f 373/373 442/442 441/441
f 359/359 360/360 428/428
f 359/359 428/428 427/427
f 374/374 375/375 443/443
f 374/374 443/443 442/442
f 360/360 361/361 429/429
f 360/360 429/429 428/428
f 375/375 376/376 444/444
f 375/375 444/444 443/443
f 361/361 362/362 430/430
f 361/361 430/430 429/429
f 376/376 377/377 445/445
f 376/376 445/445 444/444
f 362/362 364/364 432/432
f 362/362 432/432 430/430
f 377/377 378/378 446/446
f 377/377 446/446 445/445
f 363/363 365/365 433/433
f 363/363 433/433 431/431
f 378/378 380/380 448/448
f 378/378 448/448 446/446
f 439/439 440/440 474/474
f 439/439 474/474 473/473
f 425/425 426/426 460/460
f 425/425 460/460 459/459
f 454/454 455/455 489/489
f 454/454 489/489 488/488
f 440/440 441/441 475/475
f 440/440 475/475 474/474
f 426/426 427/427 461/461
f 426/426 461/461 460/460
f 455/455 422/422 456/456
f 455/455 456/456 489/489
f 441/441 442/442 476/476
f 441/441 476/476 475/475
f 427/427 428/428 462/462
f 427/427 462/462 461/461
f 442/442 443/443 477/477
f 442/442 477/477 476/476
f 428/428 429/429 463/463
f 428/428 463/463 462/462
f 443/443 444/444 478/478
f 443/443 478/478 477/477
f 429/429 430/430 464/464
f 429/429 464/464 463/463
f 444/444 445/445 479/479
f 444/444 479/479 478/478
f 430/430 432/432 466/466
f 430/430 466/466 464/464
f 445/445 446/446 480/480
f 445/445 480/480 479/479
f 431/431 433/433 467/467
f 431/431 467/467 465/465
f 446/446 448/448 481/481
f 446/446 481/481 480/480
f 433/433 434/434 468/468
f 433/433 468/468 467/467
f 447/447 449/449 483/483
f 447/447 483/483 482/482
f 434/434 435/435 469/469
f 434/434 469/469 468/468
f 449/449 450/450 484/484
f 449/449 484/484 483/483
f 435/435 436/436 470/470
f 435/435 470/470 469/469
f 450/450 451/451 485/485
f 450/450 485/485 484/484
f 436/436 437/437 471/471
f 436/436 471/471 470/470
f 422/422 423/423 457/457
f 422/422 457/457 456/456
f 451/451 452/452 486/486
f 451/451 486/486 485/485
f 437/437 438/438 472/472
f 437/437 472/472 471/471
f 423/423 424/424 458/458
f 423/423 458/458 457/457
f 452/452 453/453 487/487
f 452/452 487/487 486/486
f 438/438 439/439 473/473
f 438/438 473/473 472/472
f 424/424 425/425 459/459
f 424/424 459/459 458/458
f 453/453 454/454 488/488
f 453/453 488/488 487/487
f 476/476 477/477 511/511
f 476/476 511/511 510/510
f 462/462 463/463 497/497
f 462/462 497/497 496/496
f 477/477 478/478 512/512
f 477/477 512/512 511/511
f 463/463 464/464 498/498
f 463/463 498/498 497/497
f 478/478 479/479 513/513
f 478/478 513/513 512/512
f 464/464 466/466 499/499
f 464/464 499/499 498/498
f 479/479 480/480 514/514
f 479/479 514/514 513/513
f 465/465 467/467 501/501
f 465/465 501/501 500/500
f 480/480 481/481 516/516
f 480/480 516/516 514/514
f 467/467 468/468 502/502
f 467/467 502/502 501/501
f 482/482 483/483 517/517
f 482/482 517/517 515/515
f 468/468 469/469 503/503
f 468/468 503/503 502/502
f 483/483 484/484 518/518
f 483/483 518/518 517/517
f 469/469 470/470 504/504
f 469/469 504/504 503/503
f 484/484 485/485 519/519
f 484/484 519/519 518/518
f 470/470 471/471 505/505
f 470/470 505/505 504/504
f 456/456 457/457 491/491
f 456/456 491/491 490/490
f 485/485 486/486 520/520
f 485/485 520/520 519/519
f 471/471 472/472 506/506
f 471/471 506/506 505/505
f 457/457 458/458 492/492
f 457/457 492/492 491/491
f 486/486 487/487 521/521
f 486/486 521/521 520/520
f 472/472 473/473 507/507
f 472/472 507/507 506/506
f 458/458 459/459 493/493
f 458/458 493/493 492/492
f 487/487 488/488 522/522
f 487/487 522/522 521/521
f 473/473 474/474 508/508
f 473/473 508/508 507/507
f 459/459 460/460 494/494
f 459/459 494/494 493/493
f 488/488 489/489 523/523
f 488/488 523/523 522/522
f 474/474 475/475 509/509
f 474/474 509/509 508/508
f 460/460 461/461 495/495
f 460/460 495/495 494/494
f 489/489 456/456 490/490
f 489/489 490/490 523/523
f 475/475 476/476 510/510
f 475/475 510/510 509/509
f 461/461 462/462 496/496
f 461/461 496/496 495/495
f 513/513 514/514 525/525
f 500/500 501/501 525/525
f 514/514 516/516 525/525
f 501/501 502/502 525/525
f 515/515 517/517 524/524
f 502/502 503/503 525/525
f 517/517 518/518 524/524
f 503/503 504/504 525/525
f 518/518 519/519 524/524
f 504/504 505/505 525/525
f 490/490 491/491 524/524
f 519/519 520/520 524/524
f 505/505 506/506 525/525
f 491/491 492/492 524/524
f 520/520 521/521 524/524
f 506/506 507/507 525/525
f 492/492 493/493 524/524
f 521/521 522/522 524/524
f 507/507 508/508 525/525
f 493/493 494/494 524/524
f 522/522 523/523 524/524
f 508/508 509/509 525/525
f 494/494 495/495 524/524
f 523/523 490/490 524/524
f 509/509 510/510 525/525
f 495/495 496/496 524/524
f 510/510 511/511 525/525
f 496/496 497/497 524/524
f 511/511 512/512 525/525
f 497/497 498/498 524/524
f 512/512 513/513 525/525
f 498/498 499/499 524/524
f 134/134 135/135 180/180
f 135/135 137/137 183/183
f 136/136 139/139 187/187
f 138/138 140/140 172/172
f 140/140 141/141 174/174
f 141/141 142/142 176/176
f 142/142 143/143 178/178
f 143/143 144/144 181/181
f 144/144 145/145 184/184
f 146/146 171/171 145/145
f 146/146 147/147 173/173
f 147/147 148/148 175/175
f 148/148 149/149 177/177
f 149/149 150/150 179/179
f 150/150 151/151 182/182
f 151/151 133/133 186/186
f 152/152 180/180 154/154
f 154/154 183/183 156/156
f 155/155 189/189 158/158
f 157/157 172/172 159/159
f 159/159 174/174 160/160
f 160/160 176/176 161/161
f 161/161 178/178 162/162
f 162/162 181/181 163/163
f 163/163 184/184 164/164
f 171/171 165/165 164/164
f 165/165 173/173 166/166
f 166/166 175/175 167/167
f 167/167 177/177 168/168
f 168/168 179/179 169/169
f 169/169 182/182 170/170
f 170/170 186/186 153/153
f 65/65 34/34 526/526
f 52/52 53/53 528/528
f 39/39 40/40 530/530
f 53/53 54/54 532/532
f 40/40 41/41 534/534
f 54/54 55/55 536/536
f 41/41 42/42 538/538
f 55/55 56/56 540/540
f 42/42 43/43 542/542
f 56/56 57/57 544/544
f 43/43 44/44 546/546
f 57/57 58/58 548/548
f 44/44 45/45 550/550
f 58/58 59/59 552/552
f 45/45 46/46 554/554
f 59/59 60/60 556/556
f 46/46 47/47 558/558
f 60/60 61/61 560/560
f 47/47 48/48 562/562
f 34/34 35/35 564/564
f 61/61 62/62 566/566
f 48/48 49/49 568/568
f 35/35 36/36 570/570
f 62/62 63/63 572/572
f 49/49 50/50 574/574
f 36/36 37/37 576/576
f 63/63 64/64 578/578
f 50/50 51/51 580/580
f 37/37 38/38 582/582
f 64/64 66/66 584/584
f 51/51 52/52 586/586
f 38/38 39/39 588/588
f 526/526 527/527 65/65
f 528/528 529/529 52/52
f 530/530 531/531 39/39
f 532/532 533/533 53/53
f 534/534 535/535 40/40
f 536/536 537/537 54/54
f 538/538 539/539 41/41
f 540/540 541/541 55/55
f 542/542 543/543 42/42
f 544/544 545/545 56/56
f 546/546 547/547 43/43
f 548/548 549/549 57/57
f 550/550 551/551 44/44
f 552/552 553/553 58/58
f 554/554 555/555 45/45
f 556/556 557/557 59/59
f 558/558 559/559 46/46
f 560/560 561/561 60/60
f 562/562 563/563 47/47
f 564/564 565/565 34/34
f 566/566 567/567 61/61
f 568/568 569/569 48/48
f 570/570 571/571 35/35
f 572/572 573/573 62/62
f 574/574 575/575 49/49
f 576/576 577/577 36/36
f 578/578 579/579 63/63
f 580/580 581/581 50/50
f 582/582 583/583 37/37
f 584/584 585/585 64/64
f 586/586 587/587 51/51
f 588/588 589/589 38/38
f 34/34 590/590 591/591
f 53/53 592/592 593/593
f 40/40 594/594 595/595
f 54/54 596/596 597/597
f 41/41 598/598 599/599
f 55/55 600/600 601/601
f 42/42 602/602 603/603
f 56/56 604/604 605/605
f 43/43 606/606 607/607
f 57/57 608/608 609/609
f 44/44 610/610 611/611
f 58/58 612/612 613/613
f 45/45 614/614 615/615
f 59/59 616/616 617/617
f 46/46 618/618 619/619
f 60/60 620/620 621/621
f 47/47 622/622 623/623
f 61/61 624/624 625/625
f 48/48 626/626 627/627
f 35/35 628/628 629/629
f 62/62 630/630 631/631
f 49/49 632/632 633/633
f 36/36 634/634 635/635
f 63/63 636/636 637/637
f 50/50 638/638 639/639
f 37/37 640/640 641/641
f 64/64 642/642 643/643
f 51/51 644/644 645/645
f 38/38 646/646 647/647
f 66/66 648/648 649/649
f 52/52 650/650 651/651
f 39/39 652/652 653/653
f 212/212 211/211 654/654
f 213/213 212/212 656/656
f 214/214 213/213 658/658
f 215/215 214/214 660/660
f 217/217 215/215 662/662
f 211/211 216/216 664/664
f 210/210 217/217 666/666
f 202/202 201/201 668/668
f 201/201 200/200 670/670
f 209/209 208/208 672/672
f 216/216 209/209 674/674
f 208/208 207/207 676/676
f 207/207 206/206 678/678
f 206/206 205/205 680/680
f 205/205 204/204 682/682
f 204/204 203/203 684/684
f 199/199 198/198 686/686
f 198/198 210/210 688/688
f 200/200 283/283 690/690
f 283/283 280/280 692/692
f 280/280 277/277 694/694
f 277/277 274/274 696/696
f 274/274 270/270 698/698
f 270/270 268/268 700/700
f 268/268 266/266 702/702
f 266/266 264/264 704/704
f 203/203 265/265 706/706
f 265/265 262/262 708/708
f 264/264 261/261 710/710
f 263/263 260/260 712/712
f 261/261 259/259 714/714
f 260/260 257/257 716/716
f 258/258 199/199 718/718
f 257/257 254/254 720/720
f 254/254 202/202 722/722
f 654/654 655/655 212/212
f 656/656 657/657 213/213
f 658/658 659/659 214/214
f 660/660 661/661 215/215
f 662/662 663/663 217/217
f 664/664 665/665 211/211
f 666/666 667/667 210/210
f 668/668 669/669 202/202
f 670/670 671/671 201/201
f 672/672 673/673 209/209
f 674/674 675/675 216/216
f 676/676 677/677 208/208
f 678/678 679/679 207/207
f 680/680 681/681 206/206
f 682/682 683/683 205/205
f 684/684 685/685 204/204
f 686/686 687/687 199/199
f 688/688 689/689 198/198
f 690/690 691/691 200/200
f 692/692 693/693 283/283
f 694/694 695/695 280/280
f 696/696 697/697 277/277
f 698/698 699/699 274/274
f 700/700 701/701 270/270
f 702/702 703/703 268/268
f 704/704 705/705 266/266
f 706/706 707/707 203/203
f 708/708 709/709 265/265
f 710/710 711/711 264/264
f 712/712 713/713 263/263
f 714/714 715/715 261/261
f 716/716 717/717 260/260
f 718/718 719/719 258/258
f 720/720 721/721 257/257
f 722/722 723/723 254/254
f 210/210 724/724 725/725
f 212/212 726/726 727/727
f 213/213 728/728 729/729
f 214/214 730/730 731/731
f 215/215 732/732 733/733
f 216/216 734/734 735/735
f 216/216 736/736 737/737
f 217/217 738/738 739/739
f 211/211 740/740 741/741
f 210/210 742/742 743/743
f 202/202 744/744 745/745
f 201/201 746/746 747/747
f 200/200 748/748 749/749
f 200/200 750/750 751/751
f 208/208 752/752 753/753
f 207/207 754/754 755/755
f 206/206 756/756 757/757
f 205/205 758/758 759/759
f 204/204 760/760 761/761
f 203/203 762/762 763/763
f 203/203 764/764 765/765
f 199/199 766/766 767/767
f 199/199 768/768 769/769
f 202/202 770/770 771/771
f 280/280 772/772 773/773
f 277/277 774/774 775/775
f 274/274 776/776 777/777
f 270/270 778/778 779/779
f 268/268 780/780 781/781
f 266/266 782/782 783/783
f 264/264 784/784 785/785
f 263/263 786/786 787/787
f 261/261 788/788 789/789
f 260/260 790/790 791/791
f 257/257 792/792 793/793
usemtl cherry_cut
f 813/813 794/794 822/822
f 822/822 841/841 847/847
f 847/847 839/839 800/800
f 800/800 815/815 797/797
f 797/797 824/824 820/820
f 820/820 807/807 805/805
f 805/805 861/861 855/855
f 855/855 837/837 818/818
f 818/818 834/834 833/833
f 833/833 830/830 843/843
f 843/843 803/803 795/795
f 795/795 853/853 810/810
f 810/810 850/850 809/809
f 809/809 802/802 801/801
f 801/801 831/831 859/859
f 859/859 849/849 827/827
f 827/827 829/829 812/812
f 812/812 845/845 796/796
f 796/796 828/828 857/857
f 857/857 851/851 862/862
f 862/862 854/854 842/842
f 842/842 821/821 819/819
f 819/819 844/844 846/846
f 846/846 798/798 804/804
f 804/804 852/852 816/816
f 816/816 808/808 826/826
f 826/826 835/835 806/806
f 806/806 825/825 811/811
f 811/811 856/856 860/860
f 860/860 814/814 863/863
f 863/863 836/836 840/840
f 840/840 823/823 858/858
f 858/858 817/817 799/799
f 799/799 848/848 838/838
f 838/838 832/832 813/813
f 813/813 822/822 847/847
f 847/847 800/800 797/797
f 797/797 820/820 805/805
f 805/805 855/855 818/818
f 818/818 833/833 843/843
f 843/843 795/795 810/810
f 810/810 809/809 801/801
f 801/801 859/859 827/827
f 827/827 812/812 796/796
f 796/796 857/857 862/862
f 862/862 842/842 819/819
f 819/819 846/846 804/804
f 804/804 816/816 826/826
f 826/826 806/806 811/811
f 811/811 860/860 863/863
f 863/863 840/840 858/858
f 858/858 799/799 838/838
f 838/838 813/813 847/847
f 847/847 797/797 805/805
f 805/805 818/818 843/843
f 843/843 810/810 801/801
f 801/801 827/827 796/796
f 796/796 862/862 819/819
f 819/819 804/804 826/826
f 826/826 811/811 863/863
f 863/863 858/858 838/838
f 838/838 847/847 805/805
f 805/805 843/843 801/801
f 801/801 796/796 819/819
f 819/819 826/826 863/863
f 863/863 838/838 805/805
f 805/805 801/801 819/819
f 819/819 863/863 805/805
