# Blender 4.5.3 LTS
# www.blender.org
mtllib cucumber.mtl
o cucumber
v -0.048105 0.077074 0.136796
v -0.045464 0.035449 0.129816
v -0.051505 0.042318 0.130650
v -0.057382 0.047422 0.131106
v -0.055759 0.052720 0.130805
v -0.003635 0.070109 0.144327
v -0.044965 0.052270 0.156433
v -0.018044 0.058801 0.168564
v -0.030405 0.065790 0.170352
v -0.027326 0.059517 0.170545
v -0.061976 0.048506 0.080064
v -0.054326 0.069446 0.094231
v -0.049288 0.029904 0.086696
v -0.038548 0.025076 0.102770
v -0.045300 0.078525 0.067587
v -0.030504 0.080407 0.065716
v -0.022352 0.081026 0.080096
v -0.027997 0.015706 0.066363
v -0.045199 0.082155 0.133445
v -0.032917 0.087778 0.135762
v -0.025080 0.088477 0.133288
v -0.012449 0.082775 0.130572
v 0.001432 0.055825 0.124881
v -0.003088 0.048297 0.139363
v -0.007732 0.034806 0.121869
v -0.014783 0.029775 0.123360
v -0.049989 0.038215 0.137250
v -0.028245 0.082990 0.153825
v -0.012888 0.080383 0.148864
v -0.004493 0.064664 0.152888
v -0.015935 0.043036 0.156853
v -0.027572 0.038486 0.152903
v -0.046278 0.044532 0.153708
v -0.024118 0.064854 0.170471
v -0.036125 0.061048 0.169000
v -0.034035 0.050854 0.165014
v -0.013992 0.072023 0.162683
v -0.029996 0.070368 0.169498
v -0.040413 0.077640 0.156543
v -0.057567 0.061399 0.087292
v -0.052573 0.068547 0.072160
v -0.038789 0.081013 0.101060
v -0.034744 0.083578 0.082906
v 0.000304 0.034588 0.093242
v -0.021399 0.021334 0.103640
v -0.059087 0.039889 0.101667
v -0.057626 0.043905 0.084206
v -0.056865 0.055814 0.079801
v -0.053721 0.064268 0.139138
v -0.056456 0.067721 0.121129
v -0.028557 0.088395 0.115614
v 0.000346 0.065218 0.115861
v -0.028341 0.026224 0.119534
v -0.040011 0.037548 0.146277
v -0.018049 0.083794 0.094496
v -0.060992 0.055484 0.114671
v -0.051254 0.077787 0.070840
v -0.013567 0.077433 0.065018
v -0.004880 0.076102 0.143596
v 0.001769 0.060283 0.066681
v 0.000229 0.036211 0.067558
v -0.047589 0.079111 0.103951
v -0.047646 0.055444 0.157138
v -0.055097 0.029787 0.062702
v -0.055013 0.027585 0.062702
v -0.048389 0.026581 0.062702
v -0.053266 0.026470 0.062702
v -0.033893 0.018634 0.062702
v -0.044313 0.024046 0.062702
v -0.018131 0.019550 0.062702
v -0.026585 0.016015 0.062702
v 0.002176 0.055796 0.062702
v 0.001947 0.059006 0.062702
v 0.002527 0.060263 0.062702
v -0.013469 0.077320 0.062702
v -0.013275 0.077100 0.062702
v -0.034196 0.082325 0.062702
v -0.031181 0.080644 0.062702
v -0.040322 0.080003 0.062702
v -0.046511 0.076466 0.062702
v -0.051623 0.074872 0.062702
v -0.056527 0.064997 0.062702
v -0.059534 0.062975 0.062702
v -0.002565 0.030681 0.062702
v -0.002786 0.030609 0.062702
v -0.009898 0.023450 0.062702
v 0.002545 0.052891 0.062702
v 0.003251 0.046307 0.062702
v -0.052626 0.067806 0.062702
v -0.045667 0.077499 0.062702
v -0.044957 0.078287 0.062702
v -0.030373 0.080444 0.062702
v -0.029829 0.080287 0.062702
v -0.017448 0.082079 0.062702
v -0.015425 0.080304 0.062702
v -0.007543 0.073209 0.062702
v -0.003402 0.068698 0.062702
v 0.001411 0.060640 0.062702
v -0.055546 0.038037 0.062702
v -0.057579 0.042927 0.062702
v 0.000409 0.036357 0.062702
v 0.000243 0.036024 0.062702
v -0.002087 0.031683 0.062702
v 0.001203 0.036716 0.062702
v -0.061826 0.047920 0.062702
v -0.060217 0.060817 0.062702
v -0.057564 0.053984 0.062702
v -0.030172 0.016564 0.062702
v -0.032867 0.018504 0.062702
v -0.010771 0.022781 0.062702
v 0.001726 0.040567 0.062702
v -0.010227 0.023204 0.062702
v -0.022184 0.080319 0.062702
v -0.027670 0.015657 0.062702
vn -0.8297 0.5432 0.1287
vn -0.6570 0.7539 -0.0070
vn -0.8066 0.5904 -0.0291
vn 0.8170 0.5661 0.1098
vn 0.9469 0.2454 0.2077
vn 0.9579 0.2856 0.0292
vn 0.9939 -0.0293 0.1067
vn 0.4777 -0.8452 0.2396
vn 0.0084 -0.8852 0.4652
vn -0.1344 -0.9564 0.2591
vn -0.7354 -0.6426 0.2151
vn -0.5031 -0.8509 0.1514
vn -0.4010 -0.8887 0.2224
vn -0.8394 -0.4922 0.2307
vn -0.9739 -0.1450 0.1745
vn -0.9809 -0.0150 0.1939
vn -0.9450 -0.3191 0.0720
vn -0.6238 0.6547 0.4269
vn -0.3377 0.9392 0.0628
vn -0.5983 0.7998 0.0492
vn 0.0143 0.9113 0.4116
vn 0.2414 0.9694 0.0439
vn 0.4638 0.8440 0.2694
vn 0.5708 0.8211 0.0046
vn 0.9353 0.0632 0.3482
vn 0.8828 -0.3768 0.2806
vn 0.4978 -0.7212 0.4817
vn 0.6482 -0.7323 0.2086
vn -0.7965 -0.4268 0.4284
vn -0.3360 -0.8695 0.3621
vn -0.8292 -0.2438 0.5030
vn -0.9511 0.2172 0.2194
vn 0.5906 0.4856 0.6445
vn -0.2348 0.5327 0.8131
vn 0.6025 -0.1950 0.7739
vn -0.2557 -0.5955 0.7616
vn -0.3102 0.1923 0.9310
vn -0.5727 -0.0323 0.8191
vn 0.3152 0.1918 0.9294
vn 0.0132 -0.3427 0.9393
vn -0.6987 -0.4305 0.5714
vn -0.6372 -0.4652 -0.6144
vn -0.9561 -0.2926 0.0174
vn -0.6454 -0.0081 -0.7638
vn -0.1919 -0.7761 -0.6007
vn -0.2394 -0.7598 -0.6045
vn -0.2000 -0.7539 -0.6258
vn -0.3718 -0.9139 0.1630
vn -0.3887 -0.6302 -0.6722
vn -0.2003 0.6425 -0.7397
vn -0.1950 0.9783 -0.0697
vn 0.0937 0.7783 -0.6209
vn -0.6020 0.4762 -0.6409
vn -0.6798 0.7284 -0.0858
vn -0.4019 0.9121 -0.0806
vn -0.3249 0.6320 -0.7036
vn -0.6665 0.3913 -0.6346
vn -0.7168 0.6961 -0.0404
vn -0.3761 0.6042 -0.7024
vn 0.3968 -0.6584 -0.6396
vn 0.5002 -0.6132 -0.6114
vn 0.7245 0.1135 -0.6799
vn 0.7328 -0.0542 -0.6783
vn 0.9550 0.2946 0.0355
vn 0.7136 0.7003 -0.0163
vn -0.4333 0.9000 -0.0472
vn -0.9656 0.2508 0.0692
vn -0.9965 -0.0437 0.0717
vn -0.9861 -0.1638 0.0265
vn -0.9882 0.1339 0.0743
vn -0.9761 0.2168 0.0150
vn -0.6608 0.4458 -0.6038
vn -0.4665 0.5102 -0.7226
vn -0.4522 0.6356 -0.6257
vn -0.7020 -0.1915 -0.6860
vn -0.6174 -0.3520 -0.7035
vn -0.0119 0.9967 -0.0809
vn 0.3689 0.9167 -0.1538
vn 0.1801 -0.9639 0.1961
vn 0.5463 -0.5283 -0.6500
vn 0.9321 -0.3612 0.0278
vn 0.6041 -0.3390 -0.7212
vn 0.3809 -0.6544 -0.6533
vn 0.2977 -0.6993 -0.6498
vn 0.7305 -0.0669 -0.6796
vn 0.6616 -0.4302 -0.6141
vn 0.5459 0.3589 -0.7571
vn 0.5275 0.5924 -0.6089
vn -0.7822 -0.0540 -0.6207
vn -0.0666 -0.9928 0.0994
vn 0.4425 -0.5548 -0.7045
vn 0.7887 -0.6088 0.0856
vn -0.0990 0.9888 -0.1115
vn 0.2532 0.9669 -0.0304
vn 0.3031 0.6524 -0.6946
vn 0.1815 0.7131 -0.6771
vn 0.2989 -0.6495 -0.6991
vn -0.0374 -0.7608 -0.6480
vn -0.3710 -0.6365 -0.6762
vn -0.3151 -0.7279 -0.6090
vn -0.7569 0.1444 -0.6373
vn -0.8208 -0.1439 -0.5528
vn 0.6126 -0.2924 -0.7343
vn 0.5186 0.4681 -0.7156
vn 0.6038 0.4553 -0.6543
vn 0.1137 0.7236 -0.6808
vn -0.1477 0.7019 -0.6968
vn 0.1024 0.7318 -0.6737
vn 0.5301 -0.5908 -0.6082
vn 0.4828 0.5518 -0.6801
vn 0.5942 0.4359 -0.6760
vn 0.7971 0.3667 -0.4797
vn 0.8041 -0.1316 -0.5797
vn 0.7363 0.0359 -0.6757
vt 0.485731 0.121176
vt 0.498933 0.155577
vt 0.455271 0.172382
vt 0.900474 0.479301
vt 0.882804 0.496982
vt 0.854363 0.473377
vt 0.290422 0.551330
vt 0.292798 0.579628
vt 0.247531 0.554361
vt 0.141664 0.593125
vt 0.137876 0.653916
vt 0.091156 0.628070
vt 0.730497 0.136582
vt 0.705981 0.180482
vt 0.714069 0.135866
vt 0.748698 0.142745
vt 0.378753 0.051006
vt 0.394869 0.062796
vt 0.352971 0.066324
vt 0.515944 0.089302
vt 0.567467 0.131512
vt 0.512678 0.131298
vt 0.574612 0.095276
vt 0.605051 0.130125
vt 0.985923 0.486506
vt 0.940016 0.481405
vt 0.996627 0.442628
vt 0.938330 0.451729
vt 0.272568 0.599051
vt 0.214124 0.581878
vt 0.173962 0.621436
vt 0.171601 0.579317
vt 0.739382 0.112441
vt 0.703094 0.108922
vt 0.433448 0.036342
vt 0.441355 0.086761
vt 0.926798 0.521381
vt 0.967073 0.538583
vt 0.287234 0.615740
vt 0.270799 0.647705
vt 0.227466 0.649456
vt 0.727233 0.057741
vt 0.689900 0.071883
vt 0.529002 0.014814
vt 0.491285 0.014401
vt 0.538760 0.034167
vt 0.955833 0.565540
vt 0.239012 0.683949
vt 0.213784 0.690285
vt 0.760757 0.014472
vt 0.767179 0.041114
vt 0.744248 0.015367
vt 0.760260 0.094952
vt 0.184068 0.691780
vt 0.724891 0.208020
vt 0.765181 0.183358
vt 0.765136 0.240970
vt 0.729052 0.218777
vt 0.695583 0.201128
vt 0.715617 0.205400
vt 0.633609 0.180155
vt 0.666145 0.148876
vt 0.678765 0.194740
vt 0.531254 0.213918
vt 0.561112 0.188292
vt 0.561393 0.212559
vt 0.473581 0.191379
vt 0.484217 0.186059
vt 0.505543 0.197863
vt 0.495011 0.199487
vt 0.418446 0.167313
vt 0.448940 0.146927
vt 0.433860 0.173542
vt 0.163121 0.524061
vt 0.133040 0.539435
vt 0.254798 0.485655
vt 0.227167 0.500132
vt 0.826752 0.427616
vt 0.929057 0.387737
vt 0.535615 0.164568
vt 0.442834 0.116334
vt 0.417728 0.138128
vt 0.365221 0.115916
vt 0.394659 0.094613
vt 0.396500 0.131127
vt 0.451270 0.182058
vt 0.501622 0.202133
vt 0.507128 0.206695
vt 0.747211 0.242744
vt 0.762536 0.256593
vt 0.591675 0.152059
vt 0.967445 0.407848
vt 0.992257 0.422813
vt 0.105291 0.590763
vt 0.658957 0.115191
vt 0.780268 0.151110
vt 0.112079 0.665577
vt 0.780034 0.105638
vt 0.544741 0.011903
vt 0.536517 0.000158
vt 0.188923 0.511952
vt 0.188030 0.517156
vt 0.187115 0.512619
vt 0.129386 0.541028
vt 0.100948 0.551347
vt 0.205601 0.506904
vt 0.191328 0.511544
vt 0.866581 0.397481
vt 0.828493 0.421447
vt 0.410461 0.162983
vt 0.349848 0.097609
vt 0.066471 0.574043
vt 0.131608 0.540028
vt 0.182393 0.543732
vt 0.605900 0.188465
vt 0.586553 0.205818
vt 0.982316 0.385806
vt 0.581524 0.210066
vt 0.586442 0.209678
vt 0.070162 0.568275
vt 0.066169 0.569925
vt 0.054417 0.576614
vt 0.041724 0.584327
vt 0.388521 0.145901
vt 0.360688 0.132814
vt 0.168067 0.521724
vt 0.342062 0.121049
vt 0.892739 0.390104
vt 0.947165 0.377460
vt 0.958039 0.373975
vt 0.979090 0.367209
vt 0.985963 0.359267
vt 0.984912 0.356914
vt 0.588438 0.209844
vt 0.163705 0.523714
vt 0.926655 0.385480
vt 0.928468 0.385158
vt 0.823563 0.423494
vt 0.286591 0.494601
vt 0.282180 0.489516
vt 0.288114 0.488421
vt 0.267180 0.487708
vt 0.055624 0.615203
vt 0.039301 0.584331
s 1
usemtl Material.003
f 1/1/1 62/2/2 41/3/3
f 59/4/4 6/5/5 52/6/6
f 52/7/6 6/8/5 23/9/7
f 26/10/8 32/11/9 53/12/10
f 27/13/11 13/14/12 2/15/13
f 27/13/11 3/16/14 13/14/12
f 4/17/15 5/18/16 46/19/17
f 39/20/18 20/21/19 19/22/20
f 28/23/21 21/24/22 20/21/19
f 28/25/21 29/26/23 21/27/22
f 29/26/23 22/28/24 21/27/22
f 30/29/25 23/9/7 6/8/5
f 24/30/26 23/9/7 30/29/25
f 31/31/27 26/10/8 25/32/28
f 32/11/9 26/10/8 31/31/27
f 33/33/29 2/15/13 54/34/30
f 63/35/31 5/18/16 4/17/15
f 39/20/18 49/36/32 63/35/31
f 37/37/33 29/26/23 38/38/34
f 37/37/33 59/4/4 29/26/23
f 37/37/33 6/5/5 59/4/4
f 30/29/25 6/39/5 37/40/33
f 31/31/27 24/30/26 8/41/35
f 36/42/36 54/34/30 32/43/9
f 9/44/37 39/20/18 35/45/38
f 38/46/34 39/20/18 9/44/37
f 34/47/39 37/37/33 38/38/34
f 34/48/39 10/49/40 8/41/35
f 9/50/37 35/51/38 10/52/40
f 35/51/38 7/53/41 36/42/36
f 36/54/36 32/11/9 31/31/27
f 35/45/38 39/20/18 63/35/31
f 65/55/42 46/56/17 47/57/43 64/58/44
f 66/59/45 13/14/12 67/60/46
f 68/61/47 14/62/48 69/63/49
f 79/64/50 43/65/51 77/66/52
f 81/67/53 57/68/54 15/69/55 80/70/56
f 83/71/57 12/72/58 41/3/3 82/73/59
f 85/74/60 25/32/28 86/75/61
f 87/76/62 23/9/7 88/77/63
f 59/4/4 52/6/6 60/78/64
f 58/79/65 22/28/24 59/4/4
f 15/69/55 42/80/66 43/65/51
f 20/21/19 43/65/51 42/80/66
f 62/2/2 15/69/55 57/68/54
f 50/81/67 12/72/58 40/82/68
f 11/83/69 56/84/70 48/85/71
f 82/73/59 41/3/3 89/86/72
f 80/70/56 15/69/55 90/87/73
f 90/87/73 15/69/55 91/88/74
f 99/89/75 47/57/43 100/90/76
f 3/16/14 27/13/11 33/33/29 7/53/41
f 49/36/32 1/1/1 50/81/67
f 50/81/67 1/1/1 12/72/58
f 1/1/1 19/22/20 62/2/2
f 62/2/2 19/22/20 42/80/66
f 20/21/19 21/24/22 51/91/77
f 55/92/78 51/93/77 22/28/24
f 51/93/77 21/27/22 22/28/24
f 26/10/8 53/12/10 45/94/79
f 53/95/10 54/34/30 14/62/48
f 54/34/30 2/15/13 14/62/48
f 46/56/17 3/16/14 4/96/15
f 5/18/16 49/36/32 56/84/70
f 49/36/32 39/20/18 1/1/1
f 39/20/18 19/22/20 1/1/1
f 39/20/18 28/23/21 20/21/19
f 29/26/23 59/4/4 22/28/24
f 31/31/27 25/32/28 24/30/26
f 32/11/9 54/97/30 53/12/10
f 33/33/29 27/13/11 2/15/13
f 3/16/14 7/53/41 63/98/31 4/96/15
f 63/35/31 49/36/32 5/18/16
f 28/25/21 38/38/34 29/26/23
f 30/29/25 8/41/35 24/30/26
f 36/42/36 33/33/29 54/34/30
f 36/42/36 7/53/41 33/33/29
f 10/52/40 35/51/38 36/42/36
f 9/44/37 34/99/39 38/46/34
f 9/44/37 10/100/40 34/99/39
f 35/51/38 63/98/31 7/53/41
f 10/49/40 36/54/36 31/31/27
f 8/41/35 10/49/40 31/31/27
f 34/48/39 8/41/35 30/29/25
f 37/40/33 34/48/39 30/29/25
f 39/20/18 38/46/34 28/23/21
f 101/101/80 61/102/81 102/103/82
f 99/89/75 64/58/44 47/57/43
f 69/63/49 14/62/48 13/14/12 66/59/45
f 110/104/83 45/94/79 70/105/84
f 111/106/85 61/102/81 104/107/86
f 97/108/87 59/4/4 60/78/64 98/109/88
f 91/88/74 15/69/55 43/65/51 79/64/50
f 89/86/72 41/3/3 57/68/54 81/67/53
f 106/110/89 40/82/68 12/72/58 83/71/57
f 56/84/70 11/83/69 47/111/43 5/18/16
f 46/19/17 5/18/16 47/111/43
f 67/60/46 13/14/12 46/56/17 65/55/42
f 13/14/12 3/16/14 46/56/17
f 14/62/48 2/15/13 13/14/12
f 45/94/79 53/12/10 18/112/90
f 112/113/91 26/10/8 45/94/79 110/104/83
f 86/75/61 25/32/28 26/10/8 112/113/91
f 44/114/92 24/30/26 25/32/28
f 51/91/77 17/115/93 16/116/94 43/65/51
f 44/114/92 23/9/7 24/30/26
f 55/92/78 22/28/24 58/79/65
f 17/117/93 51/93/77 55/92/78
f 20/21/19 51/91/77 43/65/51
f 40/82/68 48/85/71 49/36/32 50/81/67
f 19/22/20 20/21/19 42/80/66
f 57/68/54 41/3/3 62/2/2
f 62/2/2 42/80/66 15/69/55
f 12/72/58 1/1/1 41/3/3
f 56/84/70 49/36/32 48/85/71
f 78/118/95 16/116/94 92/119/96
f 71/120/97 18/112/90 114/121/98
f 114/121/98 18/112/90 108/122/99
f 104/107/86 61/102/81 101/101/80
f 18/112/90 53/12/10 109/123/100 108/122/99
f 40/82/68 106/110/89 107/124/101 48/85/71
f 48/85/71 107/124/101 105/125/102 11/83/69
f 61/102/81 103/126/103 102/103/82
f 11/83/69 105/125/102 100/127/76 47/111/43
f 59/4/4 97/108/87 96/128/104
f 55/92/78 95/129/105 94/130/106
f 55/92/78 94/130/106 113/131/107 17/117/93
f 16/132/94 17/117/93 113/131/107 93/133/108
f 16/116/94 93/134/108 92/119/96
f 44/114/92 61/102/81 111/106/85 88/77/63 23/9/7
f 44/114/92 25/32/28 85/74/60 84/135/109
f 61/102/81 44/114/92 84/135/109 103/126/103
f 43/65/51 16/116/94 78/118/95 77/66/52
f 58/79/65 59/4/4 96/128/104 76/136/110
f 58/79/65 76/136/110 75/137/111
f 55/92/78 58/79/65 75/137/111 95/129/105
f 60/78/64 74/138/112 98/109/88
f 60/139/64 73/140/113 74/141/112
f 52/7/6 72/142/114 73/140/113 60/139/64
f 52/7/6 23/9/7 87/76/62 72/142/114
f 45/94/79 18/112/90 71/120/97 70/105/84
f 53/12/10 14/143/48 68/144/47 109/123/100
f 108/122/99 109/123/100 68/144/47 69/63/49 66/59/45 67/60/46 65/55/42 64/58/44 99/89/75 100/90/76 105/125/102 107/124/101 106/110/89 83/71/57 82/73/59 89/86/72 81/67/53 80/70/56 90/87/73 91/88/74 79/64/50 77/66/52 78/118/95 92/119/96 93/134/108 113/131/107 94/130/106 95/129/105 75/137/111 76/136/110 96/128/104 97/108/87 98/109/88 74/138/112 73/140/113 72/142/114 87/76/62 88/77/63 111/106/85 104/107/86 101/101/80 102/103/82 103/126/103 84/135/109 85/74/60 86/75/61 112/113/91 110/104/83 70/105/84 71/120/97 114/121/98
o cucumber.002
v -0.059367 0.057974 -0.082595
v 0.005782 0.056265 -0.110820
v -0.007132 0.102347 -0.121574
v -0.004171 0.095471 -0.118213
v 0.002188 0.088381 -0.113924
v 0.005382 0.067665 -0.120263
v -0.055994 0.082287 -0.128336
v -0.014929 0.044912 -0.129573
v -0.059766 0.072170 -0.112359
v -0.050693 0.083665 -0.088492
v -0.042606 0.083134 -0.077597
v -0.039154 0.086487 -0.074561
v -0.027116 0.082748 -0.065006
v -0.003337 0.074793 -0.073676
v 0.002784 0.071019 -0.080527
v 0.003843 0.051908 -0.097358
v -0.002550 0.034329 -0.084163
v -0.058019 0.043842 -0.088874
v -0.057607 0.050225 -0.108945
v -0.048061 0.095434 -0.132703
v -0.011207 0.089831 -0.142473
v -0.015969 0.078677 -0.147255
v -0.032617 0.070707 -0.148144
v -0.045648 0.072632 -0.142644
v -0.037618 0.104992 -0.128798
v -0.061187 0.080753 -0.115327
v 0.006880 0.057975 -0.088821
v -0.005558 0.045575 -0.120645
v -0.034723 0.034948 -0.117017
v -0.045942 0.042727 -0.121211
v -0.057732 0.043054 -0.070378
v -0.056986 0.064215 -0.123480
v -0.032401 0.050137 -0.135678
v -0.029572 0.107024 -0.113017
v -0.017286 0.106247 -0.118679
v -0.051221 0.095057 -0.122790
v -0.039767 0.105519 -0.117660
v -0.000488 0.091179 -0.125167
v 0.002573 0.075011 -0.130396
v -0.051745 0.091688 -0.108150
v -0.056159 0.084578 -0.114642
v -0.054110 0.076864 -0.088051
v 0.003124 0.066131 -0.085093
v 0.003826 0.059864 -0.072457
v 0.002138 0.042087 -0.077089
v -0.058606 0.065392 -0.089473
v -0.016685 0.085879 -0.075679
v -0.015574 0.027437 -0.096266
v -0.035485 0.022322 -0.083107
v -0.042863 0.079358 -0.060779
v -0.053254 0.071046 -0.066847
v -0.024129 0.108461 -0.126241
v -0.035649 0.097122 -0.144106
v -0.033251 0.091968 -0.147841
v -0.006646 0.084478 -0.075407
v -0.013104 0.103684 -0.131361
v -0.032741 0.100388 -0.103541
v -0.048030 0.029288 -0.083415
v -0.008820 0.024019 -0.062354
v -0.061252 0.064310 -0.073945
v -0.030054 0.099644 -0.143806
v -0.001086 0.033377 -0.060017
v -0.008064 0.024691 -0.060017
v -0.008728 0.023973 -0.060017
v -0.008659 0.023439 -0.060017
v -0.032639 0.018239 -0.060017
v -0.037418 0.020194 -0.060017
v -0.044497 0.024101 -0.060017
v -0.053548 0.033655 -0.060017
v -0.057041 0.038826 -0.060017
v -0.057294 0.040635 -0.060017
v -0.058512 0.045170 -0.060017
v -0.059676 0.053103 -0.060017
v -0.022259 0.017976 -0.060017
v -0.022334 0.017969 -0.060017
v 0.003630 0.054534 -0.060017
v 0.003570 0.051584 -0.060017
v -0.001931 0.072294 -0.060017
v -0.000346 0.071126 -0.060017
v -0.036877 0.083883 -0.060017
v -0.029854 0.082532 -0.060017
v -0.061026 0.056791 -0.060017
v -0.059091 0.042763 -0.060017
v -0.009081 0.023613 -0.060017
v -0.021723 0.018200 -0.060017
v 0.001507 0.038269 -0.060017
v 0.003116 0.048771 -0.060017
v 0.005683 0.060786 -0.060017
v 0.000908 0.065156 -0.060017
v 0.001744 0.062501 -0.060017
v -0.006197 0.074013 -0.060017
v -0.015969 0.083326 -0.060017
v -0.022058 0.082151 -0.060017
v -0.027311 0.082437 -0.060017
v -0.059838 0.061607 -0.060017
v -0.058867 0.064573 -0.060017
v -0.051899 0.071109 -0.060017
v -0.053097 0.070189 -0.060017
v -0.042796 0.079311 -0.060017
v -0.042997 0.079258 -0.060017
v -0.042327 0.079553 -0.060017
v -0.024749 0.081917 -0.060017
v 0.002372 0.041191 -0.060017
v -0.048626 0.026858 -0.060017
v -0.000416 0.070162 -0.060017
v -0.007636 0.077771 -0.060017
v -0.011536 0.078268 -0.060017
v -0.059206 0.059772 -0.060017
v -0.043220 0.078909 -0.060017
vn 0.5575 0.4414 0.7031
vn 0.4580 0.3932 0.7973
vn 0.2919 0.5260 0.7988
vn 0.2785 0.7448 0.6064
vn -0.0403 0.6402 0.7672
vn 0.0445 0.6567 0.7528
vn 0.1297 0.6957 0.7065
vn 0.1114 0.6938 0.7115
vn -0.1751 0.7339 0.6563
vn -0.3719 0.5524 0.7460
vn -0.2065 0.6765 0.7069
vn -0.4883 0.5341 0.6901
vn -0.5080 0.5423 0.6692
vn -0.4065 0.5637 0.7190
vn -0.4204 0.5063 0.7530
vn -0.5826 0.3960 0.7097
vn -0.7513 -0.0274 0.6594
vn -0.7756 0.0912 0.6246
vn -0.7585 0.0343 0.6508
vn -0.7557 -0.1442 0.6388
vn -0.7975 -0.0045 0.6032
vn -0.8148 -0.1661 0.5554
vn -0.7489 -0.2715 0.6045
vn -0.7232 -0.2303 0.6511
vn -0.6210 -0.4392 0.6492
vn -0.5346 -0.5771 0.6174
vn -0.3951 -0.6299 0.6686
vn -0.3280 -0.6668 0.6692
vn -0.2228 -0.8018 0.5545
vn -0.0179 -0.8046 0.5935
vn 0.2034 -0.8130 0.5456
vn 0.2494 -0.7348 0.6308
vn -0.0299 -0.8445 0.5348
vn 0.3647 -0.7611 0.5364
vn 0.7606 -0.2684 0.5911
vn 0.5682 -0.4546 0.6859
vn 0.6131 -0.4132 0.6733
vn 0.6826 -0.2791 0.6754
vn 0.7065 -0.1294 0.6958
vn 0.6857 -0.0935 0.7218
vn 0.6966 -0.1002 0.7105
vn 0.7212 -0.1146 0.6832
vn 0.7992 0.3484 0.4899
vn 0.5933 0.4202 0.6866
vn 0.6124 0.1115 0.7826
vn 0.6895 0.0124 0.7242
vn 0.7057 0.2593 0.6594
vn 0.3917 0.5937 0.7029
vn 0.6339 -0.7638 -0.1217
vn 0.7918 -0.5924 -0.1488
vn -0.2689 -0.9391 -0.2139
vn -0.9736 -0.2151 -0.0759
vn -0.9919 -0.1230 -0.0305
vn -0.9517 -0.2646 -0.1554
vn 0.3667 -0.8871 -0.2802
vn 0.9546 -0.2916 -0.0614
vn 0.9063 -0.4207 -0.0398
vn 0.9808 0.1922 0.0319
vn 0.9654 0.2397 0.1023
vn 0.7345 0.6483 0.2004
vn 0.0796 0.9779 0.1935
vn -0.4899 0.8228 0.2881
vn -0.9290 0.3669 0.0486
vn -0.9607 0.2770 -0.0180
vn -0.7449 0.6564 0.1196
vn -0.9931 -0.1091 -0.0425
vn -0.9340 0.3556 -0.0352
vn -0.8463 0.4741 0.2428
vn -0.8226 0.5675 0.0349
vn -0.7434 0.6088 0.2770
vn -0.7943 0.5785 0.1854
vn -0.5324 0.8091 0.2489
vn -0.4835 0.8753 0.0105
vn 0.9939 -0.0113 -0.1093
vn 0.9120 0.4099 0.0147
vn 0.9830 0.1674 0.0749
vn 0.9769 -0.1640 -0.1367
vn 0.7275 -0.5810 -0.3649
vn 0.3632 -0.7038 -0.6105
vn -0.6760 -0.1388 -0.7237
vn -0.9282 -0.1981 -0.3150
vn -0.8769 0.3868 -0.2853
vn 0.8283 0.5322 -0.1753
vn -0.3227 0.9220 -0.2138
vn -0.1158 0.9757 0.1863
vn 0.0754 0.9881 -0.1344
vn -0.8020 0.5937 -0.0659
vn 0.4150 0.8727 -0.2572
vn 0.3338 0.9384 0.0894
vn 0.6984 0.7139 -0.0515
vn 0.6209 0.3950 -0.6771
vn 0.9511 0.1093 -0.2888
vn 0.4343 -0.0936 -0.8959
vn -0.1336 -0.3025 -0.9438
vn -0.1725 -0.6310 -0.7564
vn -0.7009 0.6374 -0.3202
vn -0.2047 -0.8744 -0.4398
vn -0.6090 -0.6684 -0.4270
vn -0.0694 0.8929 0.4449
vn 0.1991 0.9322 0.3023
vn 0.9935 -0.0940 0.0647
vn -0.9865 -0.1276 -0.1025
vn -0.2583 0.2816 -0.9241
vn -0.4648 0.6404 -0.6114
vn -0.0498 0.8008 -0.5969
vn -0.6139 0.7843 0.0896
vn 0.6989 0.6689 0.2531
vn 0.7986 0.5587 0.2237
vn -0.5995 -0.7756 -0.1974
vt 0.888405 0.236792
vt 0.901587 0.227005
vt 0.916649 0.226231
vt 0.942331 0.208975
vt 0.972765 0.222975
vt 0.600760 0.372120
vt 0.590475 0.375072
vt 0.578578 0.375131
vt 0.551471 0.382294
vt 0.513038 0.362553
vt 0.510320 0.361606
vt 0.509460 0.361667
vt 0.507579 0.360712
vt 0.452654 0.346251
vt 0.444290 0.345226
vt 0.411012 0.330509
vt 0.399524 0.323784
vt 0.394479 0.319088
vt 0.377731 0.311156
vt 0.361602 0.301064
vt 0.327105 0.282068
vt 0.317953 0.276253
vt 0.750671 0.377471
vt 0.749403 0.372958
vt 0.724499 0.359702
vt 0.689971 0.342583
vt 0.668572 0.335698
vt 0.004702 0.420400
vt 0.014629 0.429879
vt 0.060293 0.431775
vt 0.060607 0.431761
vt 0.062865 0.431123
vt 0.116013 0.415066
vt 0.117513 0.415626
vt 0.118010 0.414098
vt 0.121673 0.412654
vt 0.162063 0.391947
vt 0.184215 0.376489
vt 0.196043 0.368899
vt 0.226892 0.343033
vt 0.236195 0.333967
vt 0.247698 0.322470
vt 0.806427 0.267889
vt 0.822636 0.262934
vt 0.831204 0.252694
vt 0.848689 0.238914
vt 0.850996 0.237757
vt 0.860368 0.235504
vt 0.117510 0.411763
vt 0.155764 0.363915
vt 0.007936 0.390530
vt 0.761559 0.416502
vt 0.318689 0.307128
vt 0.317273 0.289800
vt 0.363923 0.370413
vt 0.092004 0.361959
vt 0.194002 0.346732
vt 0.213684 0.293883
vt 0.260561 0.288764
vt 0.843741 0.210906
vt 0.876176 0.212659
vt 0.591618 0.381900
vt 0.549888 0.412492
vt 0.407829 0.372117
vt 0.401941 0.346819
vt 0.445684 0.355808
vt 0.381404 0.340614
vt 0.443974 0.433456
vt 0.455170 0.398537
vt 0.461239 0.442234
vt 0.485385 0.417353
vt 0.486110 0.457656
vt 0.525682 0.402719
vt 0.529597 0.505297
vt 0.851090 0.159484
vt 0.883419 0.126317
vt 0.830492 0.210762
vt 0.246210 0.207248
vt 0.265660 0.251739
vt 0.227831 0.261314
vt 0.160790 0.280182
vt 0.105906 0.256178
vt 0.757717 0.600445
vt 0.782074 0.536145
vt 0.787151 0.594032
vt 0.267121 0.117171
vt 0.271771 0.148587
vt 0.526859 0.517769
vt 0.560091 0.520876
vt 0.565982 0.544404
vt 0.449729 0.453709
vt 0.487910 0.475243
vt 0.951334 0.073690
vt 0.971323 0.076358
vt 0.935473 0.087916
vt 0.219657 0.070901
vt 0.243509 0.161211
vt 0.173803 0.104236
vt 0.114678 0.116475
vt 0.056370 0.212656
vt 0.447956 0.490244
vt 0.488027 0.489872
vt 0.671337 0.524885
vt 0.649880 0.432518
vt 0.709070 0.460497
vt 0.026345 0.299494
vt 0.592278 0.509796
vt 0.552715 0.482384
vt 0.999497 0.113107
vt 0.947209 0.181889
vt 0.241972 0.274003
vt 0.637132 0.358510
vt 0.419845 0.413407
vt 0.267399 0.302016
vt 0.812215 0.254164
vt 0.733843 0.686991
vt 0.757848 0.670933
vt 0.893346 0.108346
vt 0.507711 0.532332
vt 0.714091 0.644083
vt 0.526829 0.548009
vt 0.135676 0.025774
vt 0.510014 0.362624
vt 0.908256 0.184632
vt 0.917418 0.105828
vt 0.764119 0.466998
vt 0.690403 0.373954
vt 0.403691 0.420875
vt 0.987829 0.057799
vt 0.992666 0.069859
vt 0.916686 0.068504
vt 0.978357 0.022676
vt 0.946388 0.035053
vt 0.151837 0.003737
vt 0.486151 0.533997
vt 0.986349 0.202077
vt 0.981400 0.219870
vt 0.312541 0.279447
vt 0.755469 0.394647
vt 0.638562 0.327235
s 1
usemtl Material.003
f 205/145/115 220/146/116 221/147/117 206/148/118 207/149/119 216/150/120 208/151/121 195/152/122 194/153/123 215/154/124 213/155/125 214/156/126 223/157/127 211/158/128 212/159/129 210/160/130 209/161/131 222/162/132 196/163/133 187/164/134 186/165/135 197/166/136 185/167/137 184/168/138 183/169/139 218/170/140 182/171/141 181/172/142 180/173/143 189/174/144 188/175/145 199/176/146 198/177/147 179/178/148 178/179/149 177/180/150 176/181/151 200/182/152 217/183/153 201/184/154 191/185/155 190/186/156 202/187/157 204/188/158 203/189/159 219/190/160 193/191/161 192/192/162
f 177/180/150 173/193/163 131/194/164 176/181/151
f 178/179/149 179/178/148 173/193/163
f 180/173/143 181/172/142 163/195/165
f 183/169/139 184/168/138 132/196/166
f 132/197/166 145/198/167 133/199/168
f 189/174/144 163/195/165 162/200/169 188/175/145
f 159/201/170 131/194/164 130/202/171
f 191/185/155 130/202/171 158/203/172 190/186/156
f 193/191/161 129/204/173 128/205/174 192/192/162
f 195/152/122 127/206/175 126/207/176 194/153/123
f 160/208/177 174/209/178 165/210/179
f 187/164/134 196/163/133 115/211/180
f 140/212/181 156/213/182 155/214/183
f 155/214/183 124/215/184 154/216/185
f 125/217/186 126/207/176 151/218/187
f 120/219/188 119/220/189 157/221/190
f 120/222/188 157/223/190 116/224/191
f 142/225/192 116/224/191 130/202/171
f 142/225/192 130/202/171 131/194/164
f 122/226/193 142/225/192 162/200/169
f 138/227/194 146/228/195 121/229/196
f 152/230/197 119/231/189 120/222/188
f 139/232/198 148/233/199 166/234/200
f 151/218/187 148/233/199 139/232/198
f 121/235/196 155/214/183 150/236/201
f 170/237/202 149/238/203 117/239/204
f 135/240/205 152/230/197 153/241/206
f 136/242/207 153/241/206 122/226/193
f 137/243/208 122/226/193 147/244/209
f 138/245/194 121/235/196 134/246/210
f 147/247/209 143/248/211 144/249/212
f 147/244/209 122/226/193 143/250/211
f 153/241/206 120/222/188 142/225/192
f 149/251/203 171/252/213 127/206/175
f 149/238/203 127/253/175 161/254/214
f 154/216/185 125/217/186 151/218/187
f 115/211/180 174/209/178 160/208/177
f 160/208/177 165/210/179 156/213/182
f 126/207/176 127/206/175 171/252/213
f 141/255/215 116/224/191 157/223/190
f 131/194/164 162/200/169 142/225/192
f 143/248/211 163/256/165 144/249/212
f 133/199/168 145/198/167 123/257/216
f 198/177/147 199/176/146 173/193/163
f 176/181/151 131/194/164 159/201/170 200/182/152
f 201/184/154 159/201/170 130/202/171 191/185/155
f 202/258/157 190/186/156 158/203/172
f 204/188/158 158/259/172 157/221/190 203/189/159
f 205/145/115 192/192/162 128/205/174
f 206/148/118 161/254/214 207/149/119
f 195/152/122 208/151/121 127/206/175
f 209/161/131 210/160/130 174/209/178
f 168/260/217 138/227/194 167/261/218
f 170/237/202 117/239/204 152/262/197
f 167/263/218 134/246/210 139/232/198
f 137/264/208 138/227/194 168/260/217
f 167/263/218 139/232/198 175/265/219
f 168/266/217 135/240/205 136/242/207
f 194/153/123 126/207/176 125/217/186 164/267/220 215/154/124
f 201/184/154 217/183/153 159/201/170
f 217/183/153 200/182/152 159/201/170
f 177/180/150 178/179/149 173/193/163
f 131/194/164 173/193/163 162/200/169
f 158/203/172 130/202/171 141/255/215
f 157/223/190 158/203/172 141/255/215
f 219/190/160 157/221/190 129/204/173 193/191/161
f 205/145/115 128/205/174 169/268/221 220/146/116
f 124/215/184 164/267/220 125/217/186
f 156/213/182 165/210/179 164/267/220
f 124/215/184 156/213/182 164/267/220
f 128/205/174 129/204/173 119/220/189 118/269/222
f 123/257/216 115/211/180 160/208/177
f 123/257/216 160/208/177 140/212/181
f 154/216/185 124/215/184 125/217/186
f 151/218/187 126/207/176 171/252/213
f 117/239/204 149/238/203 161/254/214
f 118/269/222 117/239/204 161/254/214
f 132/196/166 133/270/168 144/249/212 172/271/223
f 157/221/190 119/220/189 129/204/173
f 143/250/211 122/226/193 162/200/169
f 123/257/216 140/212/181 121/235/196 146/272/195
f 151/218/187 139/232/198 134/246/210 150/236/201
f 138/227/194 144/249/212 146/228/195
f 138/227/194 147/247/209 144/249/212
f 122/226/193 153/241/206 142/225/192
f 153/241/206 152/230/197 120/222/188
f 152/262/197 118/269/222 119/220/189
f 149/238/203 166/273/200 148/274/199
f 151/218/187 171/252/213 148/233/199
f 150/236/201 154/216/185 151/218/187
f 121/235/196 140/212/181 155/214/183
f 134/246/210 121/235/196 150/236/201
f 170/237/202 166/273/200 149/238/203
f 152/262/197 117/239/204 118/269/222
f 136/242/207 135/240/205 153/241/206
f 137/243/208 136/242/207 122/226/193
f 137/264/208 147/247/209 138/227/194
f 146/272/195 133/199/168 123/257/216
f 146/228/195 144/249/212 133/270/168
f 142/225/192 120/222/188 116/224/191
f 149/251/203 148/233/199 171/252/213
f 150/236/201 155/214/183 154/216/185
f 140/212/181 160/208/177 156/213/182
f 155/214/183 156/213/182 124/215/184
f 161/254/214 169/268/221 118/269/222
f 169/268/221 128/205/174 118/269/222
f 141/255/215 130/202/171 116/224/191
f 162/200/169 163/195/165 143/250/211
f 144/249/212 163/256/165 172/271/223
f 123/257/216 145/198/167 115/211/180
f 189/174/144 180/173/143 163/195/165
f 219/190/160 203/189/159 157/221/190
f 204/188/158 202/187/157 158/259/172
f 206/148/118 221/147/117 161/254/214
f 167/263/218 138/245/194 134/246/210
f 135/275/205 170/237/202 152/262/197
f 170/237/202 175/276/219 166/273/200
f 175/265/219 139/232/198 166/234/200
f 168/266/217 136/242/207 137/243/208
f 135/277/205 175/276/219 170/237/202
f 168/266/217 175/278/219 135/240/205
f 168/279/217 167/263/218 175/265/219
f 161/254/214 221/147/117 220/146/116 169/268/221
f 164/267/220 223/157/127 214/156/126
f 164/267/220 214/156/126 213/155/125
f 164/267/220 213/155/125 215/154/124
f 165/210/179 212/159/129 211/158/128
f 165/210/179 211/158/128 223/157/127 164/267/220
f 174/209/178 210/160/130 212/159/129 165/210/179
f 174/209/178 115/211/180 222/162/132 209/161/131
f 127/206/175 208/151/121 216/150/120
f 127/280/175 216/281/120 207/149/119 161/254/214
f 115/211/180 196/163/133 222/162/132
f 173/193/163 199/176/146 188/175/145 162/200/169
f 145/198/167 186/165/135 187/164/134 115/211/180
f 145/198/167 197/166/136 186/165/135
f 145/198/167 185/282/137 197/166/136
f 132/196/166 184/168/138 185/167/137 145/283/167
f 172/271/223 218/170/140 183/169/139 132/196/166
f 172/271/223 182/171/141 218/170/140
f 163/256/165 181/284/142 182/171/141 172/271/223
f 173/193/163 179/178/148 198/177/147
o cucumber.003
v -0.059158 0.060306 -0.053313
v -0.049316 0.071230 -0.046995
v -0.046450 0.076691 -0.040367
v -0.014963 0.079739 -0.038011
v -0.008274 0.073446 -0.050095
v -0.001292 0.071159 -0.053815
v 0.003519 0.051523 -0.052990
v -0.046973 0.071870 -0.008311
v -0.039292 0.076833 -0.019892
v -0.028723 0.080182 -0.023815
v -0.009769 0.078099 -0.019870
v -0.001394 0.063671 -0.015420
v 0.005880 0.055217 -0.018565
v 0.003070 0.038521 -0.009112
v -0.012061 0.018979 -0.033347
v -0.024140 0.011674 -0.012807
v -0.030298 0.014881 -0.041023
v -0.039943 0.017414 -0.029854
v -0.056012 0.033554 -0.029684
v -0.059935 0.049028 -0.041125
v -0.042687 0.073599 -0.003987
v -0.052204 0.065306 -0.021114
v -0.062558 0.055698 -0.039175
v -0.018673 0.077087 -0.022501
v 0.000525 0.032330 -0.033461
v -0.007343 0.018694 -0.040901
v -0.026500 0.012157 -0.044022
v -0.062230 0.042091 -0.036083
v -0.035318 0.082101 -0.050062
v 0.007916 0.061896 -0.045055
v -0.023187 0.081368 -0.056726
v -0.000027 0.064745 -0.049431
v -0.049321 0.024026 -0.032740
v -0.030978 0.077195 -0.013563
v -0.000900 0.033256 -0.056949
v -0.007072 0.025574 -0.056949
v -0.008607 0.023912 -0.056949
v -0.008448 0.022677 -0.056949
v -0.023065 0.016868 -0.056949
v -0.023537 0.017468 -0.056949
v -0.032261 0.017697 -0.056949
v -0.037675 0.019911 -0.056949
v -0.044034 0.023421 -0.056949
v -0.053072 0.032572 -0.056949
v -0.056937 0.038293 -0.056949
v -0.057164 0.039919 -0.056949
v -0.058743 0.045796 -0.056949
v -0.059718 0.052442 -0.056949
v 0.003581 0.053219 -0.056949
v 0.003548 0.051557 -0.056949
v -0.001615 0.071732 -0.056949
v -0.000814 0.071143 -0.056949
v -0.036396 0.083334 -0.056949
v -0.031538 0.082399 -0.056949
v -0.061252 0.056630 -0.056949
v -0.022287 0.017809 -0.056949
v -0.021136 0.018065 -0.056949
v -0.059493 0.042677 -0.056949
v -0.009424 0.023080 -0.056949
v 0.001393 0.037583 -0.056949
v 0.003292 0.049973 -0.056949
v 0.006141 0.061014 -0.056949
v 0.000637 0.065037 -0.056949
v 0.001231 0.063151 -0.056949
v -0.006839 0.073838 -0.056949
v -0.015829 0.082826 -0.056949
v -0.023110 0.081421 -0.056949
v -0.027430 0.082246 -0.056949
v -0.059527 0.061012 -0.056949
v -0.058341 0.064630 -0.056949
v -0.051291 0.071138 -0.056949
v -0.053027 0.069804 -0.056949
v -0.042529 0.079121 -0.056949
v -0.043536 0.078858 -0.056949
v -0.040167 0.080338 -0.056949
v -0.023293 0.081405 -0.056949
v 0.002414 0.041030 -0.056949
v -0.048704 0.026540 -0.056949
v -0.000849 0.070655 -0.056949
v -0.007833 0.076433 -0.056949
v -0.010527 0.076777 -0.056949
v -0.059184 0.060016 -0.056949
v -0.044656 0.077100 -0.056949
v -0.058219 0.053347 -0.003318
v -0.050724 0.026287 -0.003352
v -0.048606 0.023802 -0.003361
v -0.023254 0.013393 -0.003477
v -0.023870 0.014883 -0.003474
v -0.007034 0.022315 -0.003550
v -0.005501 0.023941 -0.003557
v -0.002892 0.068646 -0.003569
v -0.032391 0.076946 -0.003435
v -0.030458 0.078093 -0.003444
v -0.047278 0.071350 -0.003367
v -0.056358 0.057164 -0.003326
v -0.003533 0.070033 -0.003566
v -0.003143 0.069898 -0.003568
v -0.006437 0.022370 -0.003553
v -0.058643 0.054358 -0.003316
v -0.020623 0.080131 -0.003488
v -0.020541 0.080032 -0.003489
v -0.050768 0.066763 -0.003351
v -0.042702 0.073644 -0.003388
v 0.003098 0.039099 -0.003596
v -0.020813 0.080120 -0.003488
v -0.006499 0.022860 -0.003553
v -0.057782 0.041379 -0.003320
v -0.054315 0.031385 -0.003335
v -0.042814 0.019701 -0.003388
v -0.013746 0.018703 -0.003520
v -0.020259 0.015759 -0.003490
v -0.010324 0.018640 -0.003535
v -0.000485 0.031760 -0.003580
v 0.001043 0.060848 -0.003587
v 0.005378 0.055812 -0.003607
v -0.001815 0.064008 -0.003574
v -0.028774 0.080452 -0.003451
v -0.042441 0.073691 -0.003389
v -0.037226 0.076674 -0.003413
v -0.047532 0.072294 -0.003366
v -0.052375 0.065465 -0.003344
v -0.058062 0.054838 -0.003318
v 0.003215 0.051689 -0.003597
v 0.003056 0.040006 -0.003596
v -0.022459 0.015269 -0.003480
v -0.057185 0.038980 -0.003322
v -0.058174 0.040479 -0.003318
v -0.042968 0.073590 -0.003387
v -0.031438 0.015992 -0.003439
v -0.037926 0.017528 -0.003410
v 0.002866 0.038355 -0.003595
v 0.000437 0.033478 -0.003584
v 0.003418 0.038604 -0.003598
v 0.005135 0.054359 -0.003606
v -0.008671 0.075220 -0.003543
v -0.013162 0.078741 -0.003522
v -0.008348 0.074305 -0.003544
vn 0.0932 -0.7451 0.6604
vn 0.3246 -0.7708 0.5482
vn 0.2954 -0.7335 0.6121
vn 0.5554 -0.6030 0.5727
vn 0.7458 -0.2651 0.6111
vn 0.5714 -0.4510 0.6856
vn 0.6093 -0.3516 0.7107
vn 0.6233 -0.3118 0.7172
vn 0.5395 -0.5279 0.6559
vn 0.7863 -0.2345 0.5717
vn 0.7256 0.2451 0.6430
vn 0.6933 0.0165 0.7205
vn 0.6990 -0.2344 0.6756
vn 0.6847 -0.3681 0.6291
vn 0.7961 0.1650 0.5822
vn 0.5716 0.4766 0.6679
vn 0.6985 0.3319 0.6340
vn 0.7090 0.1506 0.6889
vn 0.6141 0.5081 0.6039
vn 0.4163 0.5952 0.6873
vn 0.5924 0.3810 0.7099
vn 0.6618 0.4217 0.6199
vn 0.2519 0.7566 0.6035
vn 0.4073 0.6395 0.6520
vn 0.3755 0.6876 0.6214
vn 0.0429 0.7148 0.6980
vn -0.3015 0.7237 0.6208
vn -0.5251 0.5751 0.6273
vn -0.1898 0.7515 0.6319
vn -0.1753 0.7325 0.6578
vn -0.2956 0.6414 0.7080
vn -0.1551 0.6806 0.7161
vn -0.1845 0.6832 0.7066
vn -0.7583 0.4729 0.4488
vn -0.8064 0.2205 0.5487
vn -0.5076 0.5203 0.6868
vn -0.5658 0.4804 0.6702
vn -0.5848 0.3942 0.7090
vn -0.5169 0.4889 0.7027
vn -0.6959 0.2365 0.6781
vn -0.7080 -0.1959 0.6785
vn -0.7265 0.1348 0.6739
vn -0.7499 -0.0404 0.6604
vn -0.6576 -0.2974 0.6922
vn -0.6759 -0.3233 0.6623
vn -0.5533 -0.4529 0.6991
vn -0.4805 -0.5569 0.6775
vn -0.3649 -0.6101 0.7033
vn -0.2348 -0.6722 0.7021
vn -0.0966 -0.7616 0.6408
vn -0.5274 -0.5808 0.6201
vn -0.0551 -0.8555 0.5148
vn 0.4433 -0.6907 0.5713
vn 0.1839 -0.7464 0.6396
vn -0.9962 -0.0874 -0.0058
vn -0.3692 -0.9266 -0.0706
vn -0.0808 -0.9915 0.1020
vn 0.2193 -0.9750 -0.0367
vn 0.8681 -0.4955 -0.0280
vn 0.9968 -0.0738 0.0317
vn 0.8683 0.4932 0.0537
vn -0.5026 0.8638 0.0340
vn -0.6825 0.7308 -0.0060
vn -0.8037 0.5929 0.0507
vn 0.2984 0.9544 -0.0038
vn 0.2984 0.9504 0.0874
vn 0.0362 0.9926 0.1162
vn 0.7739 0.6265 0.0927
vn 0.6211 0.7814 0.0603
vn 0.9120 0.4091 -0.0295
vn 0.8346 0.5498 0.0332
vn 0.9773 -0.2114 -0.0169
vn -0.3299 -0.5938 -0.7339
vn -0.4118 -0.9110 -0.0214
vn -0.3865 -0.5770 -0.7195
vn -0.6985 -0.1774 -0.6933
vn -0.8311 -0.5549 0.0367
vn -0.6359 -0.3204 -0.7022
vn -0.7240 0.0302 -0.6891
vn -0.7045 -0.1660 -0.6900
vn -0.7648 0.6404 0.0706
vn -0.6934 0.7204 0.0157
vn -0.3101 0.9422 0.1267
vn -0.2344 0.9681 0.0887
vn 0.6289 0.7774 -0.0153
vn 0.9753 -0.2208 -0.0047
vn 0.0414 0.7701 -0.6366
vn -0.1402 0.7982 -0.5859
vn 0.2944 0.8086 -0.5094
vn 0.4729 0.7515 -0.4599
vn 0.4186 0.6990 -0.5798
vn 0.5663 0.6690 -0.4813
vn 0.3616 0.7155 -0.5977
vn 0.7118 0.4335 -0.5526
vn 0.7936 0.1237 -0.5958
vn 0.7023 0.2781 -0.6553
vn 0.4734 0.5869 -0.6568
vn 0.7252 0.3330 -0.6026
vn 0.6975 -0.0967 -0.7100
vn 0.7468 -0.0243 -0.6646
vn 0.6838 -0.0750 -0.7258
vn 0.6859 -0.1284 -0.7163
vn 0.6461 -0.2534 -0.7199
vn 0.6112 -0.3698 -0.6997
vn 0.4893 -0.4646 -0.7380
vn 0.7107 -0.2080 -0.6720
vn 0.5324 -0.4892 -0.6908
vn 0.0019 -0.6562 -0.7546
vn 0.2266 -0.7146 -0.6619
vn 0.4590 -0.5969 -0.6580
vn 0.0682 -0.7373 -0.6721
vn -0.3209 -0.5861 -0.7440
vn -0.0833 -0.6618 -0.7451
vn -0.4908 -0.5404 -0.6834
vn -0.5300 -0.4395 -0.7252
vn -0.7411 -0.1783 -0.6473
vn -0.7237 0.1172 -0.6801
vn -0.7577 0.0992 -0.6451
vn -0.8055 0.0061 -0.5925
vn -0.6880 0.3945 -0.6091
vn -0.4704 0.5463 -0.6930
vn -0.4987 0.5307 -0.6853
vn -0.6161 0.3697 -0.6955
vn -0.3927 0.5933 -0.7027
vn -0.3237 0.6673 -0.6708
vn -0.4355 0.6164 -0.6561
vn -0.2432 0.8460 -0.4745
vn 0.0622 0.7823 -0.6198
vn 0.0631 0.7710 -0.6338
vn -0.3421 0.9387 0.0425
vn -0.9854 -0.1700 -0.0000
vn -0.2573 0.9585 0.1226
vn 0.5303 -0.7893 -0.3094
vn -0.7021 -0.7097 -0.0577
vn -0.8971 0.4369 0.0658
vn 0.1654 -0.9694 -0.1811
vn -0.9871 0.1600 0.0009
vt 0.098531 0.484144
vt 0.109390 0.480352
vt 0.127073 0.471983
vt 0.129640 0.471915
vt 0.130096 0.470515
vt 0.135609 0.468337
vt 0.167086 0.454297
vt 0.174621 0.450691
vt 0.201113 0.440908
vt 0.202784 0.440622
vt 0.204060 0.440015
vt 0.208291 0.437892
vt 0.249415 0.404718
vt 0.262176 0.398525
vt 0.270724 0.396950
vt 0.818223 0.335833
vt 0.836695 0.326693
vt 0.858712 0.310735
vt 0.864743 0.306863
vt 0.867207 0.307089
vt 0.896328 0.305302
vt 0.900182 0.302542
vt 0.928679 0.297997
vt 0.969038 0.295672
vt 0.969521 0.295517
vt 0.609505 0.299635
vt 0.583358 0.297453
vt 0.571249 0.290351
vt 0.560463 0.288203
vt 0.537216 0.286775
vt 0.509339 0.280663
vt 0.508072 0.280666
vt 0.506704 0.280199
vt 0.484569 0.277213
vt 0.483862 0.276847
vt 0.449764 0.265409
vt 0.437636 0.261570
vt 0.397310 0.239091
vt 0.384510 0.232569
vt 0.381359 0.231613
vt 0.377023 0.228792
vt 0.323615 0.197552
vt 0.320170 0.195478
vt 0.751866 0.305193
vt 0.728595 0.290324
vt 0.703525 0.277077
vt 0.688008 0.271568
vt 0.657580 0.261487
vt 0.637075 0.255448
vt 0.619743 0.233265
vt 0.054060 0.497084
vt 0.056156 0.499044
vt 0.061265 0.495476
vt 0.069394 0.493522
vt 0.345033 0.267969
vt 0.020135 0.462248
vt 0.050145 0.492649
vt 0.098928 0.452764
vt 0.168990 0.422778
vt 0.796605 0.347334
vt 0.794356 0.327585
vt 0.830580 0.312671
vt 0.566746 0.302004
vt 0.487010 0.284590
vt 0.436349 0.284951
vt 0.955627 0.278139
vt 0.935477 0.247034
vt 0.978135 0.231609
vt 0.853190 0.245877
vt 0.897288 0.254324
vt 0.799465 0.284397
vt 0.831505 0.270397
vt 0.263798 0.377278
vt 0.240431 0.341511
vt 0.275624 0.317956
vt 0.638752 0.323080
vt 0.640429 0.286380
vt 0.665710 0.330682
vt 0.748111 0.368328
vt 0.736625 0.327185
vt 0.749251 0.372385
vt 0.330016 0.279778
vt 0.358912 0.295689
vt 0.465944 0.328030
vt 0.495157 0.336975
vt 0.526449 0.307966
vt 0.552555 0.361624
vt 0.913912 0.275068
vt 0.202127 0.434996
vt 0.606382 0.366106
vt 0.977771 0.231023
vt 0.941375 0.214281
vt 0.910663 0.234918
vt 0.900258 0.235452
vt 0.891151 0.242213
vt 0.856817 0.240635
vt 0.852081 0.241774
vt 0.850915 0.242358
vt 0.831291 0.257825
vt 0.825207 0.265097
vt 0.269086 0.305285
vt 0.244525 0.330783
vt 0.238044 0.337261
vt 0.232803 0.342369
vt 0.196409 0.372882
vt 0.182456 0.381837
vt 0.162863 0.395509
vt 0.127140 0.413823
vt 0.118667 0.417163
vt 0.117518 0.420699
vt 0.114048 0.419403
vt 0.064810 0.434278
vt 0.060559 0.435294
vt 0.056267 0.437734
vt 0.054177 0.436712
vt 0.015518 0.435107
vt 0.689914 0.338470
vt 0.720559 0.353663
vt 0.311140 0.276382
vt 0.318154 0.272241
vt 0.377232 0.307153
vt 0.396255 0.316163
vt 0.398992 0.318710
vt 0.413010 0.326916
vt 0.443664 0.340473
vt 0.455785 0.341959
vt 0.497770 0.353012
vt 0.507227 0.357812
vt 0.511553 0.357504
vt 0.525216 0.362267
vt 0.551805 0.375924
vt 0.570558 0.370969
vt 0.589773 0.370873
vt 0.508033 0.281232
vt 0.026635 0.507297
vt 0.319524 0.244958
vt 0.582183 0.325521
vt 0.606791 0.365668
vt 0.117541 0.447232
vt 0.689467 0.306011
vt 0.298688 0.249138
vt 0.978356 0.230813
vt 0.398361 0.312696
vt 0.037740 0.462911
vt 0.374340 0.283963
vt 0.804999 0.271274
vt 0.000478 0.459421
vt 0.004273 0.424369
vt 0.613812 0.263517
vt 0.755712 0.305743
vt 0.758206 0.336166
vt 0.610217 0.299618
s 1
usemtl Material.003
f 333/285/224 335/286/225 312/287/226 321/288/227 329/289/228 313/290/229 336/291/230 355/292/231 354/293/232 356/294/233 327/295/234 347/296/235 346/297/236 357/298/237 338/299/238 337/300/239 339/301/240 314/302/241 320/303/242 319/304/243 360/305/244 358/306/245 359/307/246 324/308/247 323/309/248 328/310/249 340/311/250 316/312/251 315/313/252 342/314/253 341/315/254 326/316/255 351/317/256 343/318/257 317/319/258 325/320/259 344/321/260 318/322/261 345/323/262 322/324/263 307/325/264 330/326/265 350/327/266 349/328/267 331/329/268 308/330/269 309/331/270 332/332/271 353/333/272 352/334/273 311/335/274 310/336/275 348/337/276 334/338/277
f 330/326/265 307/325/264 243/339/278
f 311/335/274 240/340/279 239/341/280 310/336/275
f 333/285/224 334/338/277 238/342/281
f 335/286/225 238/342/281 312/287/226
f 336/291/230 313/290/229 248/343/282
f 338/344/238 236/345/283 235/346/284 337/300/239
f 339/301/240 235/346/284 314/302/241
f 315/313/252 316/312/251 257/347/285
f 317/319/258 343/318/257 231/348/286
f 318/322/261 344/321/260 245/349/287
f 247/350/288 227/351/289 254/352/290
f 320/303/242 229/353/291 228/354/292 319/304/243
f 235/346/284 253/355/293 255/356/294
f 236/357/283 230/358/295 253/359/293
f 265/360/296 241/361/297 266/362/298
f 268/363/299 242/364/300 269/365/301
f 270/366/302 243/339/278 271/367/303
f 225/368/304 231/348/286 226/369/305
f 232/370/306 257/347/285 252/371/307
f 324/308/247 247/350/288 254/352/290 323/309/248
f 247/350/288 234/372/308 227/351/289
f 235/346/284 236/345/283 253/355/293
f 347/296/235 237/373/309 230/358/295 346/297/236
f 299/374/310 290/375/311 289/376/312 304/377/313 303/378/314 288/379/315 274/380/316 275/381/317 302/382/318 286/383/319 287/384/320 285/385/321 272/386/322 273/387/323 284/388/324 300/389/325 283/390/326 258/391/327 259/392/328 260/393/329 261/394/330 282/395/331 280/396/332 279/397/333 262/398/334 263/399/335 264/400/336 265/360/296 266/362/298 301/401/337 267/402/338 268/363/299 269/403/301 281/404/339 270/366/302 271/367/303 278/405/340 305/406/341 292/407/342 293/408/343 295/409/344 294/410/345 306/411/346 297/412/347 296/413/348 298/414/349 276/415/350 277/416/351 291/417/352
f 351/317/256 326/316/255 244/418/353
f 311/335/274 352/419/273 240/340/279
f 281/404/339 251/420/354 243/339/278 270/366/302
f 355/292/231 336/291/230 248/343/282
f 356/294/233 354/293/232 237/373/309
f 347/296/235 327/295/234 237/373/309
f 327/295/234 356/294/233 237/373/309
f 338/299/238 357/298/237 236/357/283
f 339/301/240 337/300/239 235/346/284
f 358/306/245 234/372/308 359/307/246
f 359/307/246 234/372/308 247/350/288 324/308/247
f 295/409/344 245/349/287 225/368/304 294/410/345
f 297/412/347 226/369/305 232/370/306 296/413/348
f 296/413/348 232/370/306 252/371/307 298/414/349
f 252/371/307 257/347/285 233/421/355
f 291/417/352 233/421/355 254/422/290 299/374/310
f 227/351/289 234/372/308 228/354/292
f 261/394/330 249/423/356 238/342/281 282/395/331
f 266/362/298 241/361/297 256/424/357 301/401/337
f 269/403/301 242/425/300 251/420/354 281/404/339
f 304/377/313 228/354/292 303/378/314
f 299/426/310 254/352/290 290/375/311
f 232/370/306 226/369/305 231/348/286 244/418/353
f 292/407/342 305/406/341 224/427/358
f 225/368/304 245/349/287 231/348/286
f 360/305/244 319/304/243 228/354/292
f 312/287/226 238/342/281 249/423/356 321/288/227
f 250/428/359 239/341/280 240/340/279
f 301/401/337 256/424/357 267/402/338
f 263/399/335 240/340/279 264/400/336
f 294/410/345 225/368/304 306/411/346
f 306/411/346 225/368/304 226/369/305 297/412/347
f 293/408/343 245/349/287 295/409/344
f 278/405/340 246/429/360 224/427/358 305/406/341
f 224/427/358 245/349/287 293/408/343 292/407/342
f 227/351/289 289/376/312 290/375/311 254/352/290
f 227/351/289 228/354/292 304/377/313 289/376/312
f 228/354/292 288/379/315 303/378/314
f 255/356/294 287/384/320 286/383/319
f 229/353/291 255/356/294 286/383/319 302/382/318
f 255/356/294 253/355/293 285/430/321 287/384/320
f 230/358/295 237/373/309 300/389/325 284/388/324
f 237/373/309 248/343/282 283/390/326 300/389/325
f 238/342/281 280/396/332 282/395/331
f 348/337/276 279/397/333 280/396/332 238/342/281 334/338/277
f 252/371/307 233/421/355 291/417/352 277/416/351
f 252/371/307 277/416/351 276/415/350
f 252/371/307 276/415/350 298/414/349
f 229/353/291 302/382/318 275/381/317
f 229/353/291 275/381/317 274/380/316
f 228/354/292 229/353/291 274/380/316 288/379/315
f 230/358/295 284/388/324 273/387/323
f 230/358/295 273/387/323 272/386/322
f 253/359/293 230/358/295 272/386/322 285/385/321
f 243/339/278 246/429/360 278/405/340 271/367/303
f 256/424/357 242/364/300 268/363/299 267/402/338
f 240/340/279 241/431/297 265/432/296 264/400/336
f 250/428/359 240/340/279 263/399/335 262/398/334
f 321/288/227 249/423/356 261/394/330 260/393/329 329/289/228
f 248/343/282 259/392/328 258/391/327
f 248/343/282 258/391/327 283/390/326
f 328/310/249 233/421/355 340/311/250
f 234/372/308 358/306/245 360/305/244 228/354/292
f 237/373/309 354/293/232 355/292/231 248/343/282
f 240/433/279 352/334/273 353/333/272 241/361/297
f 242/364/300 349/328/267 350/434/266 251/435/354
f 236/357/283 357/298/237 346/297/236 230/358/295
f 231/348/286 343/318/257 351/317/256 244/418/353
f 244/418/353 341/315/254 342/314/253 232/370/306
f 238/342/281 335/286/225 333/285/224
f 241/361/297 353/333/272 332/332/271
f 242/364/300 331/329/268 349/328/267
f 251/420/354 350/327/266 330/326/265 243/339/278
f 244/418/353 326/316/255 341/315/254
f 245/349/287 344/321/260 325/320/259
f 233/421/355 328/310/249 323/436/248 254/422/290
f 246/429/360 322/324/263 345/323/262 224/427/358
f 224/427/358 345/323/262 318/322/261 245/349/287
f 245/349/287 325/320/259 317/319/258 231/348/286
f 257/347/285 316/312/251 340/311/250 233/421/355
f 232/370/306 342/314/253 315/313/252 257/347/285
f 255/356/294 229/353/291 320/303/242 314/302/241 235/346/284
f 248/343/282 313/290/229 329/289/228 260/393/329 259/392/328
f 250/428/359 262/398/334 279/397/333 348/337/276 310/336/275 239/341/280
f 241/361/297 332/332/271 309/331/270 256/424/357
f 256/424/357 308/330/269 331/329/268 242/364/300
f 256/424/357 309/331/270 308/330/269
f 243/339/278 307/325/264 322/324/263 246/429/360
o cucumber.001
v 0.003411 0.045470 0.057236
v -0.057916 0.054109 0.003348
v -0.048788 0.068772 0.021139
v -0.008355 0.074392 0.001156
v -0.006336 0.022778 0.000588
v -0.022485 0.014884 0.004619
v -0.058665 0.051102 0.035781
v -0.061498 0.060535 0.050813
v -0.044017 0.077635 0.049316
v 0.006069 0.039237 0.038447
v -0.010006 0.022885 0.059756
v -0.015925 0.018345 0.035068
v -0.033284 0.017792 0.057462
v -0.054337 0.025545 0.056241
v -0.028852 0.080866 0.027824
v -0.021840 0.078868 0.027010
v -0.008729 0.071921 0.026680
v -0.002589 0.064627 0.018228
v 0.006871 0.060148 0.039893
v -0.008420 0.018269 0.029126
v -0.048984 0.073394 0.009472
v -0.034939 0.076497 0.014829
v -0.016499 0.079373 0.012558
v 0.004770 0.056532 0.014505
v -0.057447 0.040190 0.002557
v 0.002945 0.051836 0.040356
v -0.061600 0.047035 0.036494
v -0.033871 0.081583 0.050734
v -0.047546 0.023469 0.040227
v -0.052253 0.028751 0.028668
v -0.052767 0.065829 0.037459
v -0.011401 0.074951 0.013942
v -0.057582 0.040669 0.000192
v -0.058059 0.053748 0.000192
v -0.050893 0.026560 0.000192
v -0.054087 0.031095 0.000192
v -0.043203 0.020010 0.000192
v -0.048520 0.023775 0.000192
v -0.022905 0.014068 0.000192
v -0.023243 0.014884 0.000192
v -0.013955 0.018668 0.000192
v -0.021269 0.015362 0.000192
v -0.010106 0.018598 0.000192
v -0.006403 0.022734 0.000192
v -0.000612 0.031689 0.000192
v -0.006256 0.022889 0.000192
v 0.001822 0.059947 0.000192
v 0.005250 0.055963 0.000192
v -0.003214 0.069567 0.000192
v -0.001948 0.064115 0.000192
v -0.032897 0.076857 0.000192
v -0.030271 0.078415 0.000192
v -0.028783 0.080500 0.000192
v -0.040966 0.074243 0.000192
v -0.036774 0.076639 0.000192
v -0.047497 0.070976 0.000192
v -0.047935 0.072599 0.000192
v -0.057179 0.055554 0.000192
v -0.052409 0.065496 0.000192
v -0.006352 0.022786 0.000192
v -0.006346 0.022739 0.000192
v -0.058261 0.054227 0.000192
v -0.057985 0.054454 0.000192
v 0.003192 0.051701 0.000192
v 0.003046 0.041025 0.000192
v -0.022471 0.015094 0.000192
v -0.057342 0.039703 0.000192
v -0.057740 0.040306 0.000192
v -0.050482 0.067054 0.000192
v -0.044642 0.073535 0.000192
v -0.042791 0.073915 0.000192
v -0.031548 0.016099 0.000192
v -0.037652 0.017544 0.000192
v -0.005779 0.072090 0.000192
v 0.002725 0.038241 0.000192
v 0.000426 0.033623 0.000192
v 0.003657 0.038661 0.000192
v 0.003118 0.039495 0.000192
v 0.004946 0.054141 0.000192
v -0.008420 0.074562 0.000192
v -0.013933 0.078887 0.000192
v -0.019770 0.079968 0.000192
v -0.020726 0.079988 0.000192
v -0.008353 0.074374 0.000192
v -0.002626 0.030553 0.059792
v -0.002782 0.030310 0.059794
v -0.054810 0.028185 0.060262
v -0.054757 0.026815 0.060262
v -0.048295 0.026235 0.060204
v -0.053672 0.026119 0.060252
v -0.033587 0.018211 0.060071
v -0.044677 0.023981 0.060171
v -0.017910 0.019429 0.059930
v -0.025542 0.016243 0.059999
v 0.002277 0.055273 0.059748
v 0.002079 0.058059 0.059750
v 0.003091 0.060248 0.059741
v -0.013349 0.077184 0.059889
v -0.012919 0.076695 0.059885
v -0.034124 0.082162 0.060076
v -0.031776 0.080851 0.060055
v -0.041029 0.079550 0.060138
v -0.047133 0.075409 0.060193
v -0.051735 0.073988 0.060235
v -0.057537 0.064091 0.060287
v -0.059929 0.062484 0.060308
v -0.009580 0.023329 0.059855
v -0.010002 0.022905 0.059859
v 0.002598 0.052751 0.059745
v 0.003338 0.045853 0.059738
v -0.052640 0.067614 0.060243
v -0.045856 0.076970 0.060182
v -0.044779 0.078164 0.060172
v -0.030257 0.080476 0.060041
v -0.029232 0.080181 0.060032
v -0.017395 0.081929 0.059925
v -0.015194 0.079997 0.059905
v -0.007637 0.073107 0.059837
v -0.003349 0.068432 0.059799
v 0.001146 0.060904 0.059758
v -0.002977 0.029892 0.059795
v -0.055310 0.037373 0.060267
v -0.057574 0.042817 0.060287
v 0.000518 0.036446 0.059764
v 0.000252 0.035912 0.059766
v 0.001795 0.037022 0.059752
v -0.061806 0.047840 0.060325
v -0.060474 0.060760 0.060313
v -0.057663 0.053725 0.060288
v -0.031744 0.017184 0.060055
v -0.033077 0.018146 0.060067
v -0.010033 0.022881 0.059859
v 0.002638 0.043220 0.059745
v -0.010014 0.022896 0.059859
v -0.022158 0.080208 0.059968
v -0.027430 0.015622 0.060016
vn -0.9623 -0.2712 0.0216
vn -0.9930 0.1117 -0.0382
vn -0.9802 0.1981 -0.0029
vn -0.5719 -0.4772 -0.6673
vn -0.8770 -0.4800 -0.0218
vn -0.6266 -0.3145 -0.7130
vn -0.3618 -0.6070 -0.7076
vn -0.4686 -0.8827 0.0361
vn -0.5123 -0.5018 -0.6970
vn -0.4867 0.5297 -0.6946
vn -0.0974 0.9950 -0.0232
vn -0.2887 0.7466 -0.5993
vn -0.1924 0.7095 -0.6779
vn -0.3564 0.9318 -0.0692
vn -0.2291 0.7468 -0.6244
vn 0.1134 0.7173 0.6875
vn 0.1916 0.6613 0.7253
vn 0.2937 0.6695 0.6823
vn 0.0969 0.8084 0.5806
vn -0.2554 0.6538 0.7123
vn -0.4240 0.5994 0.6789
vn -0.5774 0.5341 0.6175
vn -0.4788 0.6260 0.6155
vn -0.5540 0.5856 0.5918
vn -0.6445 0.3797 0.6637
vn -0.3841 0.6178 0.6861
vn -0.5903 0.5209 0.6167
vn -0.7554 -0.0120 0.6552
vn -0.7294 0.0901 0.6781
vn -0.8130 -0.1077 0.5722
vn -0.6736 -0.3639 0.6433
vn -0.7588 -0.1967 0.6209
vn -0.7610 -0.0291 0.6482
vn -0.7341 -0.3154 0.6013
vn -0.1699 -0.7055 0.6881
vn -0.2173 -0.6706 0.7093
vn -0.3702 -0.5727 0.7314
vn -0.2192 -0.6914 0.6884
vn -0.2760 -0.6629 0.6960
vn -0.3012 -0.6900 0.6582
vn -0.0529 -0.7616 0.6459
vn 0.1874 -0.6491 0.7372
vn 0.2600 -0.5914 0.7633
vn 0.3296 -0.5999 0.7290
vn 0.3641 -0.5419 0.7575
vn 0.4230 -0.5071 0.7509
vn 0.4528 -0.4829 0.7495
vn 0.6314 -0.4097 0.6584
vn 0.6465 -0.3488 0.6785
vn 0.6223 -0.3755 0.6868
vn 0.6249 -0.3568 0.6944
vn 0.5232 -0.5743 0.6296
vn 0.6276 -0.4658 0.6238
vn 0.6101 -0.1201 0.7832
vn 0.7058 -0.0851 0.7033
vn 0.7351 0.1175 0.6677
vn 0.7350 0.0163 0.6778
vn 0.6822 -0.2167 0.6983
vn 0.6887 0.2748 0.6710
vn 0.4958 0.5805 0.6460
vn 0.6513 0.4216 0.6309
vn 0.4803 0.5180 0.7078
vn 0.4839 0.5412 0.6877
vn 0.5483 0.4263 0.7194
vn 0.5588 0.4397 0.7031
vn 0.2208 0.8226 0.5239
vn -0.0966 0.7556 0.6478
vn 0.1661 -0.9834 0.0730
vn 0.9949 -0.0964 0.0288
vn 0.9502 0.3110 0.0184
vn 0.7147 0.6992 0.0151
vn 0.6462 0.7617 0.0466
vn -0.1004 0.9928 -0.0656
vn 0.5395 -0.8329 0.1233
vn -0.7702 -0.1668 -0.6156
vn -0.7799 0.2245 -0.5842
vn -0.5684 0.5063 -0.6485
vn 0.5769 -0.4250 -0.6975
vn 0.7372 -0.2093 -0.6424
vn 0.6651 -0.5616 -0.4922
vn 0.3991 -0.6943 -0.5988
vn 0.3342 -0.7323 -0.5933
vn 0.1783 -0.6950 -0.6965
vn 0.2731 -0.6620 -0.6980
vn 0.4985 -0.5727 -0.6507
vn -0.0212 -0.8757 -0.4825
vn -0.4500 -0.6968 -0.5586
vn -0.1709 -0.7467 -0.6428
vn -0.2273 -0.7212 -0.6544
vn -0.6814 -0.3819 -0.6244
vn -0.8448 -0.1008 -0.5255
vn -0.8136 0.1269 -0.5674
vn -0.6496 0.3681 -0.6652
vn -0.5838 0.4071 -0.7025
vn -0.5500 0.5311 -0.6446
vn -0.7896 0.1428 -0.5968
vn -0.7240 0.3236 -0.6092
vn -0.1647 0.6231 -0.7646
vn -0.0936 0.6420 -0.7610
vn -0.2364 0.6937 -0.6804
vn 0.0379 0.7244 -0.6883
vn 0.0486 0.7841 -0.6187
vn 0.3490 0.7436 -0.5703
vn 0.6024 0.5057 -0.6175
vn 0.5857 0.4250 -0.6901
vn 0.5558 0.5014 -0.6631
vn 0.7180 0.3709 -0.5890
vn 0.6911 0.3812 -0.6141
vn 0.5669 0.4999 -0.6548
vn 0.8094 0.2171 -0.5457
vn 0.7580 -0.2915 -0.5835
vn 0.7579 -0.1916 -0.6236
vn 0.7239 0.0738 -0.6860
vn 0.7022 0.1891 -0.6864
vn 0.7970 -0.2500 -0.5498
vn 0.5524 -0.5356 -0.6388
vn 0.6530 -0.3002 -0.6953
vn 0.6393 -0.3532 -0.6831
vn -0.7746 0.6258 -0.0914
vn -0.8374 0.5459 -0.0274
vn -0.0225 0.9997 -0.0115
vn 0.2648 0.9643 0.0003
vn 0.7267 0.6862 -0.0316
vn 0.9504 0.3036 -0.0674
vn 0.4955 -0.8671 0.0513
vn 0.8059 -0.5919 -0.0137
vn -0.4356 -0.8994 0.0362
vn -0.9947 0.0814 -0.0621
vn 0.6950 0.7167 0.0581
vn -0.8713 0.4847 -0.0767
vn -0.9652 0.2607 0.0193
vn 0.9908 -0.0382 0.1298
vn 0.1555 -0.9875 0.0259
vn -0.5825 0.8057 -0.1076
vn -0.7038 -0.7097 0.0313
vn 0.9512 -0.2993 -0.0749
vt 0.320286 0.186606
vt 0.375960 0.169162
vt 0.382663 0.221885
vt 0.705220 0.273588
vt 0.718841 0.245552
vt 0.727520 0.285390
vt 0.659900 0.258121
vt 0.685844 0.220466
vt 0.687832 0.267402
vt 0.572866 0.286164
vt 0.585162 0.254344
vt 0.583568 0.292431
vt 0.517161 0.277253
vt 0.549134 0.263316
vt 0.539571 0.282139
vt 0.590108 0.213410
vt 0.586345 0.213086
vt 0.577109 0.213797
vt 0.561429 0.215713
vt 0.527465 0.217169
vt 0.507949 0.211269
vt 0.499599 0.204336
vt 0.489603 0.200322
vt 0.470356 0.192992
vt 0.450229 0.184573
vt 0.428394 0.173838
vt 0.416132 0.168860
vt 0.409755 0.165397
vt 0.387395 0.147987
vt 0.360068 0.135127
vt 0.341188 0.123680
vt 0.745181 0.242945
vt 0.724959 0.216259
vt 0.722368 0.209564
vt 0.716600 0.207944
vt 0.694501 0.203277
vt 0.679562 0.197637
vt 0.631473 0.182208
vt 0.039432 0.582299
vt 0.045702 0.578473
vt 0.065947 0.566903
vt 0.072886 0.564017
vt 0.100654 0.548678
vt 0.131059 0.537574
vt 0.131137 0.537539
vt 0.131187 0.537518
vt 0.132971 0.536603
vt 0.160781 0.522265
vt 0.162070 0.521580
vt 0.163048 0.521143
vt 0.186561 0.509876
vt 0.189463 0.508804
vt 0.193330 0.508136
vt 0.216300 0.500661
vt 0.226197 0.497547
vt 0.255144 0.482388
vt 0.265888 0.484173
vt 0.278908 0.485745
vt 0.289248 0.483823
vt 0.829780 0.416884
vt 0.865365 0.394545
vt 0.892465 0.386946
vt 0.923733 0.382736
vt 0.927752 0.382025
vt 0.945381 0.374788
vt 0.957218 0.371017
vt 0.978583 0.364286
vt 0.098017 0.524741
vt 0.257410 0.460964
vt 0.296846 0.453001
vt 0.889295 0.350385
vt 0.916063 0.330858
vt 0.561559 0.226934
vt 0.131120 0.537449
vt 0.379992 0.225156
vt 0.382045 0.226493
vt 0.383537 0.226944
vt 0.131424 0.474048
vt 0.130897 0.474256
vt 0.130854 0.474390
vt 0.130608 0.474396
vt 0.110698 0.483801
vt 0.098481 0.488049
vt 0.065751 0.498548
vt 0.061314 0.499609
vt 0.058520 0.501558
vt 0.057372 0.500485
vt 0.027263 0.511649
vt 0.636618 0.251235
vt 0.753898 0.302261
vt 0.755445 0.302484
vt 0.321626 0.191012
vt 0.389590 0.230022
vt 0.437892 0.256917
vt 0.452439 0.261510
vt 0.481596 0.271273
vt 0.482813 0.271905
vt 0.498781 0.274038
vt 0.508303 0.277286
vt 0.558214 0.283261
vt 0.610306 0.294607
vt 0.964144 0.301098
vt 0.932034 0.303207
vt 0.897042 0.308826
vt 0.896251 0.309393
vt 0.880678 0.310362
vt 0.864519 0.312384
vt 0.838638 0.331150
vt 0.814276 0.343230
vt 0.797177 0.352349
vt 0.261764 0.403918
vt 0.250104 0.409567
vt 0.212524 0.439880
vt 0.205387 0.443461
vt 0.203236 0.444488
vt 0.200416 0.444966
vt 0.175333 0.454218
vt 0.166846 0.458275
vt 0.755265 0.300288
vt 0.440590 0.207881
vt 0.468259 0.238464
vt 0.610763 0.257515
vt 0.943205 0.320552
vt 0.847948 0.352499
vt 0.821189 0.420427
vt 0.805281 0.399868
vt 0.799329 0.371247
vt 0.279111 0.420770
vt 0.120853 0.510577
vt 0.130982 0.474652
vt 0.620316 0.230343
vt 0.629354 0.184245
vt 0.353846 0.158321
vt 0.896231 0.310449
vt 0.969748 0.299613
vt 0.972470 0.329048
vt 0.478233 0.258061
vt 0.406948 0.175000
vt 0.037167 0.580294
vt 0.038230 0.582304
vt 0.225377 0.495365
vt 0.061372 0.504592
vt 0.320239 0.190178
vt 0.511472 0.230895
vt 0.983981 0.354829
vt 0.718211 0.212109
vt 0.207797 0.483516
vt 0.272483 0.401946
vt 0.762244 0.258347
s 1
usemtl Material.003
f 385/437/361 367/438/362 362/439/363
f 395/440/364 390/441/365 396/442/366
f 397/443/367 389/444/368 398/445/369
f 412/446/370 375/447/371 413/448/372
f 414/449/373 382/450/374 415/451/375
f 475/452/376 474/453/377 461/454/378 460/455/379 462/456/380 473/457/381 472/458/382 463/459/383 464/460/384 471/461/385 465/462/386 466/463/387 488/464/388 489/465/389 487/466/390 483/467/391 482/468/392 447/469/393 448/470/394 450/471/395 449/472/396 452/473/397 451/474/398 491/475/399 490/476/400 496/477/401 454/478/402 453/479/403 492/480/404 494/481/405 468/482/406 467/483/407 481/484/408 446/485/409 445/486/410 485/487/411 484/488/412 486/489/413 493/490/414 470/491/415 469/492/416 455/493/417 456/494/418 457/495/419 480/496/420 479/497/421 478/498/422 459/499/423 458/500/424 477/501/425 476/502/426 495/503/427
f 453/479/403 454/478/402 372/504/428
f 455/493/417 386/505/429 456/494/418
f 456/494/418 386/505/429 379/506/430 457/495/419
f 459/499/423 377/507/431 392/508/432 458/500/424
f 460/455/379 461/454/378 388/509/433
f 467/483/407 468/482/406 371/510/434
f 455/493/417 469/492/416 386/505/429
f 394/511/435 362/439/363 422/512/436
f 422/512/436 362/439/363 423/513/437
f 406/514/438 420/515/439 421/516/440 404/517/441 403/518/442 401/519/443 402/520/444 426/521/445 399/522/446 400/523/447 432/524/448 433/525/449 397/443/367 398/445/369 395/440/364 396/442/366 427/526/450 428/527/451 393/528/452 394/511/435 422/512/436 423/513/437 418/529/453 419/530/454 429/531/455 416/532/456 417/533/457 430/534/458 431/535/459 414/449/373 415/451/375 411/536/460 412/446/370 413/448/372 443/537/461 442/538/462 441/539/463 440/540/464 444/541/465 434/542/466 409/543/467 410/544/468 407/545/469 408/546/470 439/547/471 424/548/472 425/549/473 438/550/474 437/551/475 435/552/476 436/553/477 405/554/478
f 427/526/450 385/555/361 428/527/451
f 419/530/454 391/556/479 363/557/480 429/531/455
f 388/509/433 375/447/371 382/450/374
f 475/452/376 376/558/481 375/447/371 474/453/377
f 477/501/425 392/508/432 383/559/482 476/502/426
f 479/497/421 378/560/483 377/507/431 478/498/422
f 457/561/419 379/562/430 378/560/483 480/496/420
f 379/562/430 384/563/484 378/560/483
f 379/506/430 386/505/429 384/564/484
f 481/484/408 380/565/485 365/566/486 446/485/409
f 371/510/434 372/504/428 380/565/485
f 432/567/448 373/568/487 433/525/449
f 385/437/361 387/569/488 367/438/362
f 434/542/466 364/570/489 377/507/431 378/560/483 409/543/467
f 396/442/366 390/441/365 385/555/361 427/526/450
f 398/445/369 389/444/368 390/441/365 395/440/364
f 403/518/442 380/565/485 372/504/428 401/519/443
f 364/570/489 392/508/432 377/507/431
f 443/571/461 376/572/481 383/559/482 442/538/462
f 443/537/461 413/448/372 375/447/371 376/558/481
f 487/466/390 387/569/488 385/437/361 483/467/391
f 415/451/375 382/450/374 411/536/460
f 417/533/457 381/573/490 430/534/458
f 362/439/363 368/574/491 391/556/479
f 488/464/388 368/574/491 367/438/362 489/465/389
f 490/476/400 491/475/399 373/575/487
f 491/475/399 451/576/398 373/575/487
f 477/501/425 458/500/424 392/508/432
f 489/465/389 367/438/362 387/569/488 487/466/390
f 470/491/415 493/490/414 361/577/492
f 406/514/438 365/566/486 420/515/439
f 423/513/437 362/439/363 418/529/453
f 429/531/455 363/557/480 416/532/456
f 399/522/446 426/521/445 366/578/493
f 440/540/464 364/570/489 444/541/465
f 439/547/471 386/505/429 424/548/472
f 476/502/426 383/559/482 376/572/481 495/503/427
f 428/579/451 385/437/361 393/528/452
f 362/439/363 367/438/362 368/574/491
f 381/573/490 363/557/480 369/580/494
f 431/535/459 369/580/494 382/450/374 414/449/373
f 382/450/374 369/580/494 388/509/433
f 475/581/376 495/503/427 376/572/481
f 459/499/423 478/498/422 377/507/431
f 467/483/407 371/510/434 380/565/485 481/484/408
f 433/525/449 373/568/487 389/444/368 397/443/367
f 389/444/368 374/582/495 390/441/365
f 383/559/482 441/539/463 442/538/462
f 364/570/489 440/540/464 441/539/463 383/559/482 392/508/432
f 361/577/492 370/583/496 437/551/475 438/550/474
f 364/570/489 434/542/466 444/541/465
f 381/573/490 369/580/494 431/535/459 430/534/458
f 386/505/429 361/577/492 438/550/474 425/549/473
f 386/505/429 425/549/473 424/548/472
f 365/566/486 421/516/440 420/515/439
f 362/439/363 391/556/479 419/530/454 418/529/453
f 363/557/480 381/573/490 417/533/457 416/532/456
f 382/450/374 375/447/371 412/446/370 411/536/460
f 378/560/483 410/544/468 409/543/467
f 384/564/484 386/505/429 439/547/471 408/584/470
f 384/563/484 408/546/470 407/545/469
f 378/560/483 384/563/484 407/545/469 410/544/468
f 446/485/409 365/566/486 406/514/438 405/554/478 445/486/410
f 485/487/411 445/486/410 405/554/478 436/553/477
f 365/566/486 404/517/441 421/516/440
f 380/565/485 403/518/442 404/517/441 365/566/486
f 366/578/493 426/521/445 402/520/444
f 372/504/428 366/578/493 402/520/444 401/519/443
f 366/578/493 373/575/487 432/524/448 400/523/447
f 366/578/493 400/523/447 399/522/446
f 385/437/361 362/439/363 394/511/435 393/528/452
f 371/510/434 494/481/405 492/480/404
f 366/578/493 496/477/401 490/476/400 373/575/487
f 361/577/492 493/490/414 486/489/413 370/583/496
f 435/552/476 484/488/412 485/487/411 436/553/477
f 370/583/496 486/489/413 484/488/412 435/552/476 437/551/475
f 390/441/365 482/468/392 483/585/391 385/555/361
f 378/560/483 479/497/421 480/496/420
f 363/557/480 472/458/382 473/457/381 369/580/494
f 386/505/429 469/492/416 470/491/415 361/577/492
f 371/510/434 468/482/406 494/481/405
f 368/574/491 488/464/388 466/463/387
f 368/574/491 466/463/387 465/462/386
f 368/574/491 465/462/386 471/461/385 391/556/479
f 391/556/479 471/461/385 464/460/384
f 391/556/479 464/460/384 463/459/383
f 391/556/479 463/459/383 472/458/382 363/557/480
f 369/580/494 473/457/381 462/456/380
f 388/509/433 461/454/378 474/453/377 375/447/371
f 369/580/494 462/456/380 460/455/379 388/509/433
f 372/504/428 454/478/402 496/477/401 366/578/493
f 371/510/434 492/480/404 453/479/403 372/504/428
f 373/568/487 451/474/398 452/473/397 389/444/368
f 389/444/368 449/472/396 450/471/395 374/582/495
f 389/444/368 452/473/397 449/472/396
f 374/582/495 450/471/395 448/470/394
f 374/582/495 448/470/394 447/469/393
f 390/441/365 374/582/495 447/469/393 482/468/392
