# Blender 4.5.3 LTS
# www.blender.org
mtllib cucumber_3cut_final.mtl
o cucumber.010
v -0.061976 0.048506 0.080064
v 0.003411 0.045470 0.057236
v -0.049288 0.029904 0.086696
v -0.048788 0.068772 0.021139
v -0.058665 0.051102 0.035781
v -0.061498 0.060535 0.050813
v -0.045300 0.078525 0.067587
v -0.044017 0.077635 0.049316
v -0.030504 0.080407 0.065716
v -0.022352 0.081026 0.080096
v 0.006069 0.039237 0.038447
v -0.010006 0.022885 0.059756
v -0.015925 0.018345 0.035068
v -0.027997 0.015706 0.066363
v -0.033284 0.017792 0.057462
v -0.054337 0.025545 0.056241
v -0.028852 0.080866 0.027824
v -0.021840 0.078868 0.027010
v -0.008729 0.071921 0.026680
v -0.002589 0.064627 0.018228
v 0.006871 0.060148 0.039893
v -0.008420 0.018269 0.029126
v -0.052573 0.068547 0.072160
v -0.034744 0.083578 0.082906
v -0.057626 0.043905 0.084206
v -0.056865 0.055814 0.079801
v -0.034939 0.076497 0.014829
v 0.004770 0.056532 0.014505
v -0.051254 0.077787 0.070840
v -0.013567 0.077433 0.065018
v 0.001769 0.060283 0.066681
v 0.002945 0.051836 0.040356
v -0.061600 0.047035 0.036494
v -0.033871 0.081583 0.050734
v 0.000229 0.036211 0.067558
v -0.002682 0.030521 0.061455
v -0.047546 0.023469 0.040227
v -0.052253 0.028751 0.028668
v -0.052767 0.065829 0.037459
v -0.011401 0.074951 0.013942
v -0.051314 0.071216 0.080193
v -0.048892 0.071234 0.014925
v -0.049591 0.071229 0.050273
v -0.052086 0.071211 0.052482
v -0.047905 0.071241 0.032897
v -0.047457 0.071244 0.028998
v -0.008396 0.071525 0.026221
v -0.052193 0.071210 0.071780
v -0.057853 0.043825 0.013624
v -0.058153 0.053156 0.013622
v -0.051536 0.027596 0.013660
v -0.053220 0.029987 0.013651
v -0.044668 0.021177 0.013700
v -0.048192 0.023672 0.013680
v -0.014728 0.018541 0.013872
v -0.020499 0.015932 0.013839
v -0.007309 0.020672 0.013915
v -0.009307 0.018442 0.013903
v -0.001077 0.031426 0.013950
v -0.005535 0.024475 0.013925
v 0.004663 0.056656 0.013983
v 0.004787 0.056511 0.013984
v -0.002738 0.065801 0.013941
v -0.002437 0.064505 0.013943
v -0.034789 0.076523 0.013757
v -0.029573 0.079621 0.013787
v -0.028817 0.080680 0.013791
v -0.035382 0.076331 0.013753
v -0.035074 0.076507 0.013755
v -0.048780 0.071235 0.013676
v -0.048913 0.071729 0.013676
v -0.056364 0.057643 0.013633
v -0.052538 0.065616 0.013655
v 0.003107 0.051748 0.013975
v 0.003012 0.044735 0.013974
v -0.049392 0.068160 0.013673
v -0.048460 0.073842 0.013678
v -0.043129 0.074939 0.013709
v -0.016524 0.079443 0.013862
v -0.024365 0.015390 0.013817
v -0.031959 0.016501 0.013773
v -0.036618 0.017603 0.013746
v -0.055243 0.035335 0.013639
v -0.057471 0.040694 0.013626
v -0.058801 0.042421 0.013619
v -0.006886 0.071536 0.013917
v -0.008542 0.073158 0.013908
v 0.002215 0.037826 0.013969
v 0.000386 0.034152 0.013959
v 0.004526 0.038869 0.013983
v 0.003189 0.040939 0.013975
v 0.004259 0.053349 0.013981
v -0.021293 0.079418 0.013834
v -0.016980 0.079328 0.013859
v -0.058691 0.055500 0.013619
v -0.023307 0.015007 0.013823
v -0.048328 0.069557 0.013679
v -0.051565 0.070471 0.086747
v -0.051239 0.071217 0.086747
v -0.057527 0.035178 0.086747
v -0.057839 0.043321 0.086747
v -0.036686 0.022500 0.086747
v -0.040853 0.024664 0.086747
v -0.020050 0.020598 0.086747
v -0.024389 0.018784 0.086747
v 0.001188 0.062297 0.086747
v 0.001348 0.060058 0.086747
v -0.055562 0.067910 0.086747
v -0.053732 0.069141 0.086747
v -0.000306 0.033757 0.086747
v -0.004796 0.032315 0.086747
v -0.009018 0.028065 0.086747
v 0.002115 0.054025 0.086747
v 0.002548 0.049988 0.086747
v 0.000034 0.064410 0.086747
v -0.011165 0.077065 0.086747
v -0.013196 0.079204 0.086747
v -0.041573 0.079949 0.086747
v -0.035600 0.083035 0.086747
v -0.034611 0.083883 0.086747
v -0.049493 0.078423 0.086747
v -0.046506 0.078834 0.086747
v -0.061786 0.049854 0.086747
v -0.057687 0.055748 0.086747
v -0.017409 0.082943 0.086747
v -0.004443 0.071554 0.086747
v -0.003842 0.070899 0.086747
v -0.057516 0.060993 0.086747
v -0.057626 0.061386 0.086747
v -0.028129 0.019738 0.086747
v -0.030952 0.021770 0.086747
v -0.017013 0.021931 0.086747
v 0.000285 0.034998 0.086747
v -0.016871 0.082122 0.086747
v -0.057524 0.044386 0.086747
v -0.012033 0.025809 0.086747
v -0.034017 0.084144 0.086747
v -0.023514 0.082406 0.086747
v -0.020365 0.082304 0.086747
v -0.056497 0.056804 0.086747
v -0.006752 0.074069 0.086747
v -0.050286 0.073394 0.086747
v -0.017902 0.083376 0.086747
vn -0.5999 0.2673 0.7541
vn -0.9647 0.2512 0.0787
vn -0.8066 0.5904 -0.0291
vn -0.6337 0.4398 0.6364
vn 0.4182 -0.5083 0.7528
vn 0.3325 -0.6177 0.7127
vn 0.5592 -0.5600 0.6113
vn 0.7279 -0.2413 0.6418
vn 0.7464 -0.0446 0.6640
vn 0.7146 0.1143 0.6901
vn 0.6874 0.0277 0.7257
vn 0.6936 0.2272 0.6836
vn 0.5771 0.3717 0.7271
vn 0.6475 0.4229 0.6340
vn 0.5828 0.4445 0.6803
vn 0.4747 0.4988 0.7252
vn 0.4347 0.5516 0.7119
vn 0.4983 0.5420 0.6768
vn 0.5588 0.4677 0.6848
vn 0.5706 0.4416 0.6924
vn 0.2141 0.8001 0.5603
vn -0.1114 0.7956 0.5954
vn 0.1053 0.7776 0.6199
vn -0.0420 0.7850 0.6181
vn -0.4121 0.6966 0.5873
vn -0.3921 0.6320 0.6684
vn -0.2441 0.7128 0.6575
vn -0.1066 0.6884 0.7175
vn -0.5101 0.5803 0.6349
vn -0.6635 0.1828 0.7255
vn -0.3660 0.6615 0.6546
vn -0.6060 0.5187 0.6031
vn -0.7571 0.0025 0.6533
vn -0.6849 -0.1861 0.7045
vn -0.7397 0.2548 0.6228
vn -0.5779 0.5372 0.6143
vn -0.8319 0.0116 0.5549
vn -0.6727 -0.1598 0.7225
vn -0.7441 0.1246 0.6563
vn -0.7343 -0.2844 0.6163
vn -0.3452 -0.5833 0.7352
vn -0.3598 -0.5895 0.7232
vn -0.2294 -0.6792 0.6972
vn -0.3008 -0.6437 0.7036
vn -0.3455 -0.6268 0.6984
vn 0.0447 -0.7167 0.6959
vn 0.2552 -0.6027 0.7560
vn 0.3279 -0.5970 0.7321
vn 0.3558 -0.5723 0.7388
vn -0.6182 0.2044 -0.7589
vn -0.9928 0.1140 -0.0377
vn -0.6928 -0.0445 -0.7198
vn -0.5322 -0.4414 -0.7224
vn -0.8770 -0.4800 -0.0218
vn -0.6242 -0.3152 -0.7149
vn -0.3586 -0.6077 -0.7086
vn -0.4686 -0.8827 0.0361
vn -0.5213 -0.5624 -0.6418
vn -0.4837 0.5311 -0.6957
vn -0.0843 0.9962 -0.0233
vn -0.2695 0.7635 -0.5869
vn -0.1882 0.7100 -0.6786
vn -0.3564 0.9318 -0.0692
vn -0.2260 0.7472 -0.6250
vn -0.5406 0.3930 -0.7438
vn -0.7727 0.6308 -0.0709
vn -0.5980 0.5082 -0.6198
vn -0.7021 -0.7119 0.0182
vn -0.1592 -0.9827 0.0945
vn 0.1661 -0.9834 0.0730
vn 0.9949 -0.0964 0.0288
vn 0.9559 0.2916 0.0346
vn 0.9502 0.3110 0.0184
vn 0.7125 0.7012 -0.0280
vn 0.7072 0.7069 0.0120
vn 0.5084 0.5236 -0.6837
vn -0.1947 0.9783 -0.0710
vn 0.2330 0.9701 -0.0678
vn -0.1004 0.9928 -0.0656
vn -0.5201 0.8511 -0.0714
vn -0.7216 0.6700 -0.1745
vn -0.6798 0.7284 -0.0858
vn -0.4019 0.9121 -0.0806
vn -0.5007 0.8479 -0.1742
vn 0.8157 -0.5737 0.0740
vn -0.9652 0.2612 -0.0165
vn -0.8374 0.5459 -0.0274
vn -0.4924 0.4922 -0.7178
vn -0.7744 0.6171 -0.1396
vn -0.8920 0.4503 -0.0409
vn -0.5576 0.5798 -0.5940
vn -0.1604 0.6945 -0.7013
vn -0.0235 0.9997 -0.0115
vn 0.7440 0.6674 -0.0303
vn 0.7380 0.6746 -0.0153
vn 0.9504 0.3036 -0.0674
vn 0.5740 -0.8102 0.1185
vn 0.5482 -0.8363 -0.0031
vn -0.1488 -0.7035 -0.6949
vn -0.4343 -0.9002 0.0321
vn -0.0986 -0.6726 -0.7335
vn -0.2491 -0.6729 -0.6965
vn -0.8037 -0.1501 -0.5757
vn -0.9954 0.0719 -0.0627
vn 0.6069 0.4465 -0.6575
vn 0.4966 0.5570 -0.6657
vn -0.6183 -0.2651 -0.7399
vn 0.3307 -0.6684 -0.6662
vn 0.1022 -0.7690 -0.6310
vn 0.5220 -0.5384 -0.6615
vn 0.9256 -0.3775 0.0260
vn 0.6239 -0.3585 -0.6944
vn 0.0842 0.7095 -0.6997
vn -0.1040 0.7153 -0.6910
vn -0.2180 0.7223 -0.6563
vn -0.7357 0.1747 -0.6544
vn -0.9930 0.1146 -0.0278
vn -0.9568 -0.2891 0.0300
vn 0.9944 -0.0649 0.0830
vn 0.9668 -0.2555 0.0069
vn -0.9850 0.1723 0.0092
vn -0.9936 -0.0601 0.0960
vn -0.0684 0.9920 -0.1060
vn 0.6327 -0.4020 -0.6618
vn 0.2550 -0.6462 -0.7193
vn 0.0348 -0.7921 -0.6094
vn -0.6423 -0.4261 -0.6371
vn -0.7818 0.1565 -0.6036
vn -0.6851 -0.2117 -0.6970
vn -0.7755 -0.0313 -0.6306
vn 0.1068 0.7849 -0.6103
vn 0.7220 0.3333 -0.6064
vn 0.6929 0.3800 -0.6127
vn 0.5696 0.4990 -0.6531
vn 0.8110 0.2170 -0.5433
vn 0.7598 -0.2911 -0.5813
vn 0.7593 -0.1905 -0.6222
vn 0.7258 0.0738 -0.6840
vn 0.7040 0.1882 -0.6848
vn 0.7986 -0.2502 -0.5473
vn 0.6417 -0.3523 -0.6812
vn 0.6467 -0.3624 -0.6712
vn -0.9979 -0.0499 -0.0408
vt 0.465502 0.161807
vt 0.466304 0.168136
vt 0.455271 0.172382
vt 0.462145 0.160826
vt 0.148711 0.555643
vt 0.166567 0.546517
vt 0.178419 0.539475
vt 0.183819 0.537011
vt 0.235042 0.521103
vt 0.251988 0.512224
vt 0.277693 0.516486
vt 0.838018 0.446287
vt 0.845985 0.441100
vt 0.876655 0.421802
vt 0.880453 0.420731
vt 0.895038 0.416617
vt 0.921153 0.413057
vt 0.932131 0.408948
vt 0.957354 0.402561
vt 0.962502 0.400442
vt 0.965153 0.399592
vt 0.975447 0.395987
vt 0.603236 0.181648
vt 0.564701 0.184037
vt 0.561574 0.184166
vt 0.555717 0.183272
vt 0.522756 0.178805
vt 0.502060 0.175583
vt 0.491287 0.171415
vt 0.475305 0.164671
vt 0.451087 0.155558
vt 0.441702 0.151766
vt 0.417567 0.138679
vt 0.416184 0.137619
vt 0.401751 0.125933
vt 0.396133 0.123854
vt 0.370906 0.111802
vt 0.352303 0.095711
vt 0.765143 0.232586
vt 0.749754 0.192801
vt 0.705981 0.180482
vt 0.671192 0.167217
vt 0.049097 0.602858
vt 0.062639 0.602834
vt 0.075934 0.594755
vt 0.087699 0.583186
vt 0.103499 0.574498
vt 0.115234 0.570240
vt 0.135594 0.561076
vt 0.338831 0.180795
vt 0.375960 0.169162
vt 0.380540 0.205183
vt 0.711662 0.260328
vt 0.718841 0.245552
vt 0.723418 0.266561
vt 0.668654 0.245416
vt 0.685844 0.220466
vt 0.687162 0.251590
vt 0.578916 0.270509
vt 0.585162 0.254344
vt 0.584352 0.273686
vt 0.546784 0.264340
vt 0.549134 0.263316
vt 0.548432 0.264697
vt 0.400128 0.217663
vt 0.440590 0.207881
vt 0.438866 0.239203
vt 0.718211 0.212109
vt 0.066471 0.574043
vt 0.098017 0.524741
vt 0.257410 0.460964
vt 0.286591 0.494601
vt 0.288154 0.517747
vt 0.296846 0.453001
vt 0.929057 0.387737
vt 0.889295 0.350385
vt 0.916063 0.330858
vt 0.561112 0.188292
vt 0.586553 0.205818
vt 0.561559 0.226934
vt 0.511472 0.230895
vt 0.460225 0.198060
vt 0.484217 0.186059
vt 0.505543 0.197863
vt 0.468215 0.203620
vt 0.162942 0.522897
vt 0.826752 0.427616
vt 0.406948 0.175000
vt 0.468259 0.238464
vt 0.462620 0.246678
vt 0.477697 0.228186
vt 0.480312 0.236353
vt 0.481742 0.255193
vt 0.509175 0.264521
vt 0.610763 0.257515
vt 0.847948 0.352499
vt 0.887051 0.350500
vt 0.805281 0.399868
vt 0.799329 0.371247
vt 0.279111 0.420770
vt 0.131120 0.537449
vt 0.120853 0.510577
vt 0.057159 0.517768
vt 0.037167 0.580294
vt 0.029611 0.527928
vt 0.622459 0.219411
vt 0.629354 0.184245
vt 0.634899 0.235380
vt 0.331225 0.177387
vt 0.353846 0.158321
vt 0.882350 0.331681
vt 0.892766 0.330401
vt 0.739806 0.277057
vt 0.115511 0.496490
vt 0.098299 0.502441
vt 0.197883 0.459730
vt 0.188030 0.517156
vt 0.177928 0.467080
vt 0.971133 0.314587
vt 0.972470 0.329048
vt 0.945840 0.321317
vt 0.610539 0.275738
vt 0.549799 0.264777
vt 0.387918 0.211739
vt 0.396500 0.131127
vt 0.765136 0.240970
vt 0.225377 0.495365
vt 0.207797 0.483516
vt 0.463614 0.176324
vt 0.365221 0.115916
vt 0.349848 0.097609
vt 0.350302 0.093056
vt 0.605900 0.188465
vt 0.126252 0.491428
vt 0.072468 0.510693
vt 0.062132 0.514944
vt 0.756603 0.292246
vt 0.473009 0.250149
vt 0.474268 0.250807
vt 0.474639 0.251001
vt 0.943591 0.321941
vt 0.851887 0.342964
vt 0.845736 0.347427
vt 0.799874 0.370226
vt 0.799251 0.370559
vt 0.260269 0.423504
vt 0.252611 0.427204
vt 0.227927 0.447115
vt 0.210217 0.456002
vt 0.204880 0.458557
vt 0.165969 0.472788
vt 0.137985 0.485223
vt 0.473571 0.248902
vt 0.985963 0.359267
vt 0.982316 0.385806
vt 0.324294 0.174540
vt 0.278870 0.420085
vt 0.984178 0.392736
vt 0.653134 0.161384
s 1
usemtl Material.025
f 99/1/1 41/2/2 23/3/3 98/4/4
f 112/5/5 111/6/6 110/7/7 133/8/8 114/9/9 113/10/10 107/11/11 106/12/12 115/13/13 127/14/14 126/15/15 141/16/16 116/17/17 117/18/18 134/19/19 125/20/20 143/21/21 139/22/22 138/23/23 137/24/24 120/25/25 119/26/26 118/27/27 122/28/28 121/29/29 142/30/30 99/1/1 98/4/4 109/31/31 108/32/32 129/33/33 128/34/34 140/35/35 124/36/36 123/37/37 135/38/38 101/39/39 100/40/40 3/41/41 103/42/42 102/43/43 131/44/44 130/45/45 105/46/46 104/47/47 132/48/48 136/49/49
f 49/50/50 5/51/51 50/52/52
f 51/53/53 38/54/54 52/55/55
f 53/56/56 37/57/57 54/58/58
f 66/59/59 17/60/60 67/61/61
f 68/62/62 27/63/63 69/64/64
f 72/65/65 39/66/66 73/67/67
f 37/57/57 3/41/41 16/68/68
f 105/46/46 14/69/69 13/70/70 104/47/47
f 107/11/11 32/71/71 31/72/72 106/73/12
f 31/72/72 32/71/71 21/74/73
f 30/75/74 19/76/75 40/77/76
f 24/78/77 9/79/78 34/80/79
f 8/81/80 24/78/77 34/80/79
f 44/82/81 29/83/82 7/84/83 43/85/84
f 110/7/7 111/6/6 36/86/85
f 107/11/11 113/10/10 32/71/71
f 115/13/13 106/12/12 31/87/72
f 120/25/25 24/78/77 119/26/26
f 122/28/28 7/84/83 29/83/82 121/29/29
f 6/88/86 23/3/3 39/66/66
f 73/67/67 39/66/66 4/89/87 76/90/88
f 43/85/84 7/84/83 45/91/89
f 45/91/89 7/84/83 8/81/80 46/92/90
f 77/93/91 8/81/80 78/94/92
f 34/80/79 17/60/60 27/63/63
f 9/79/78 18/95/93 17/60/60
f 127/14/14 20/96/94 47/97/95 126/15/15
f 31/87/72 21/98/73 20/96/94
f 21/98/73 28/99/96 20/96/94
f 21/74/73 32/71/71 28/100/96
f 12/101/97 13/70/70 22/102/98
f 80/103/99 15/104/100 81/105/101
f 81/106/101 15/107/100 82/108/102
f 85/109/103 33/110/104 5/51/51 49/50/50
f 86/111/105 87/112/106 19/76/75 47/97/95
f 52/55/55 38/54/54 83/113/107
f 54/58/58 37/57/57 38/54/54 51/53/53
f 58/114/108 22/102/98 13/70/70 55/115/109
f 88/116/110 35/117/111 89/118/112
f 40/77/76 19/76/75 87/112/106
f 93/119/113 18/120/93 94/121/114
f 93/122/113 67/61/61 17/60/60 18/95/93
f 69/64/64 27/63/63 65/123/115
f 95/124/116 6/88/86 39/66/66 72/65/65
f 129/33/33 6/88/86 5/51/51 26/125/117 128/34/34
f 38/54/54 16/68/68 25/126/118
f 131/44/44 102/43/43 15/104/100
f 2/127/119 35/117/111 11/128/120
f 134/19/19 30/75/74 40/77/76 125/20/20
f 8/81/80 7/84/83 24/78/77
f 44/82/81 48/129/121 29/83/82
f 26/125/117 5/51/51 33/110/104 1/130/122
f 123/37/37 1/130/122 25/131/118 135/38/38
f 133/8/8 35/117/111 2/127/119 114/9/9
f 101/132/39 135/38/38 25/131/118
f 105/46/46 130/45/45 14/69/69
f 138/23/23 10/133/123 9/79/78 24/78/77 137/24/24
f 134/19/19 117/18/18 30/75/74
f 120/25/25 137/24/24 24/78/77
f 128/34/34 26/125/117 140/35/35
f 48/129/121 23/3/3 41/2/2
f 122/28/28 118/27/27 7/84/83
f 124/36/36 140/35/35 26/125/117
f 57/134/124 58/114/108 55/115/109 56/135/125 96/136/126 80/103/99 81/105/101 82/108/102 53/56/56 54/58/58 51/53/53 52/55/55 83/113/107 84/137/127 85/109/103 49/50/50 50/52/52 95/124/116 72/65/65 73/67/67 76/90/88 97/138/128 70/139/129 71/140/130 77/93/91 78/94/92 68/62/62 69/64/64 65/123/115 66/59/59 67/61/61 93/122/113 94/121/114 79/141/131 40/77/76 87/112/106 86/111/105 63/142/132 64/143/133 61/144/134 62/145/135 92/146/136 74/147/137 75/148/138 91/149/139 90/150/140 88/116/110 89/118/112 59/151/141 60/152/142
f 92/146/136 32/71/71 74/147/137
f 50/52/52 5/51/51 6/88/86 95/124/116
f 42/153/143 4/89/87 46/92/90
f 78/94/92 8/81/80 27/63/63 68/62/62
f 27/63/63 8/81/80 34/80/79
f 34/80/79 9/79/78 17/60/60
f 9/154/78 10/155/123 18/120/93
f 36/86/85 12/101/97 22/102/98
f 96/136/126 14/69/69 15/104/100 80/103/99
f 82/108/102 15/107/100 37/57/57 53/56/56
f 37/57/57 16/68/68 38/54/54
f 63/142/132 86/111/105 47/97/95 20/96/94
f 141/16/16 126/15/15 47/97/95 19/76/75
f 4/89/87 45/91/89 46/92/90
f 39/66/66 23/3/3 48/129/121 44/82/81
f 39/66/66 44/82/81 43/85/84
f 39/66/66 43/85/84 45/91/89 4/89/87
f 71/140/130 42/153/143 46/92/90 8/81/80 77/93/91
f 76/90/88 4/89/87 97/138/128
f 99/1/1 142/30/30 41/2/2
f 109/31/31 98/4/4 23/3/3
f 2/127/119 11/128/120 90/150/140 91/149/139
f 11/128/120 35/117/111 88/116/110 90/150/140
f 1/130/122 33/110/104 85/109/103 84/156/127 25/131/118
f 38/54/54 25/126/118 84/137/127 83/113/107
f 143/21/21 79/141/131 94/121/114 18/120/93 10/155/123 139/22/22
f 32/71/71 2/127/119 91/149/139 75/148/138
f 32/71/71 75/148/138 74/147/137
f 125/20/20 40/77/76 79/141/131 143/21/21
f 42/153/143 71/140/130 70/139/129
f 4/89/87 42/153/143 70/139/129 97/138/128
f 27/63/63 17/60/60 66/59/59 65/123/115
f 20/96/94 64/143/133 63/142/132
f 28/100/96 32/71/71 92/146/136 62/157/135
f 28/99/96 62/145/135 61/144/134
f 20/96/94 28/99/96 61/144/134 64/143/133
f 36/86/85 60/152/142 59/151/141
f 35/117/111 36/86/85 59/151/141 89/118/112
f 22/102/98 58/114/108 57/134/124
f 36/86/85 22/102/98 57/134/124 60/152/142
f 13/70/70 14/69/69 96/136/126 56/135/125
f 13/70/70 56/135/125 55/115/109
f 10/155/123 138/158/23 139/22/22
f 12/101/97 136/49/49 132/48/48
f 14/69/69 130/45/45 131/44/44 15/104/100
f 1/130/122 123/37/37 124/36/36 26/125/117
f 29/83/82 48/129/121 41/2/2 142/30/30 121/29/29
f 7/84/83 118/27/27 119/26/26 24/78/77
f 30/75/74 117/18/18 116/17/17
f 30/75/74 116/17/17 141/16/16 19/76/75
f 20/96/94 127/14/14 115/13/13 31/87/72
f 32/71/71 113/10/10 114/9/9 2/127/119
f 12/101/97 112/5/5 136/49/49
f 36/86/85 111/6/6 112/5/5 12/101/97
f 35/117/111 133/8/8 110/7/7 36/86/85
f 6/88/86 108/32/32 109/31/31 23/3/3
f 6/88/86 129/33/33 108/32/32
f 12/101/97 132/48/48 104/47/47 13/70/70
f 15/107/100 102/159/43 103/42/42 37/57/57
f 16/68/68 100/40/40 101/39/39 25/126/118
f 16/68/68 3/41/41 100/40/40
f 37/57/57 103/42/42 3/41/41
o cucumber.008
v -0.059367 0.057974 -0.082595
v 0.005782 0.056265 -0.110820
v -0.007132 0.102347 -0.121574
v -0.004171 0.095471 -0.118213
v 0.002188 0.088381 -0.113924
v 0.005382 0.067665 -0.120263
v -0.055994 0.082287 -0.128336
v -0.014929 0.044912 -0.129573
v -0.059766 0.072170 -0.112359
v -0.050693 0.083665 -0.088492
v -0.042606 0.083134 -0.077597
v -0.039154 0.086487 -0.074561
v -0.003337 0.074793 -0.073676
v 0.002784 0.071019 -0.080527
v 0.003843 0.051908 -0.097358
v -0.002550 0.034329 -0.084163
v -0.058019 0.043842 -0.088874
v -0.057607 0.050225 -0.108945
v -0.048061 0.095434 -0.132703
v -0.011207 0.089831 -0.142473
v -0.015969 0.078677 -0.147255
v -0.032617 0.070707 -0.148144
v -0.045648 0.072632 -0.142644
v -0.037618 0.104992 -0.128798
v -0.061187 0.080753 -0.115327
v 0.006880 0.057975 -0.088821
v -0.005558 0.045575 -0.120645
v -0.034723 0.034948 -0.117017
v -0.045942 0.042727 -0.121211
v -0.056986 0.064215 -0.123480
v -0.032401 0.050137 -0.135678
v -0.029572 0.107024 -0.113017
v -0.017286 0.106247 -0.118679
v -0.051221 0.095057 -0.122790
v -0.039767 0.105519 -0.117660
v -0.000488 0.091179 -0.125167
v 0.002573 0.075011 -0.130396
v -0.051745 0.091688 -0.108150
v -0.056159 0.084578 -0.114642
v -0.054110 0.076864 -0.088051
v 0.003124 0.066131 -0.085093
v 0.003826 0.059864 -0.072457
v 0.002138 0.042087 -0.077089
v -0.058606 0.065392 -0.089473
v -0.016685 0.085879 -0.075679
v -0.015574 0.027437 -0.096266
v -0.035485 0.022322 -0.083107
v -0.024129 0.108461 -0.126241
v -0.035649 0.097122 -0.144106
v -0.033251 0.091968 -0.147841
v -0.006646 0.084478 -0.075407
v -0.013104 0.103684 -0.131361
v -0.032741 0.100388 -0.103541
v -0.048030 0.029288 -0.083415
v -0.061252 0.064310 -0.073945
v -0.030054 0.099644 -0.143806
v 0.001844 0.071599 -0.079475
v 0.004772 0.071620 -0.119053
v 0.002894 0.071606 -0.092188
v -0.047518 0.071244 -0.139483
v -0.056604 0.071178 -0.125351
v 0.004395 0.071617 -0.121087
v -0.015747 0.071472 -0.143482
v 0.000584 0.071590 -0.130302
v 0.001630 0.071597 -0.129265
v 0.003872 0.071613 -0.125709
v -0.056338 0.071180 -0.088756
v -0.059666 0.071156 -0.112201
v -0.059695 0.071156 -0.110897
v -0.032636 0.071351 -0.148135
v -0.036773 0.071321 -0.146390
v 0.002764 0.071605 -0.081655
v -0.059593 0.071157 -0.108938
v -0.059737 0.071156 -0.110233
v -0.059575 0.071157 -0.099176
v -0.059412 0.071158 -0.113774
v -0.045662 0.071257 -0.141659
v -0.044842 0.071263 -0.142220
v -0.031252 0.071361 -0.148071
v -0.001872 0.033888 -0.072985
v -0.005771 0.029033 -0.072960
v -0.034212 0.020496 -0.072781
v -0.036351 0.021369 -0.072767
v -0.046413 0.026913 -0.072704
v -0.055505 0.038114 -0.072647
v -0.057468 0.041019 -0.072634
v -0.057767 0.043150 -0.072632
v -0.058033 0.045805 -0.072631
v -0.059504 0.055823 -0.072622
v -0.057725 0.043473 -0.072633
v -0.019888 0.021331 -0.072871
v -0.029620 0.020381 -0.072810
v 0.003665 0.051697 -0.073019
v 0.003826 0.059684 -0.073020
v -0.003265 0.074665 -0.072976
v 0.001636 0.071058 -0.073007
v -0.038871 0.086163 -0.072752
v -0.036890 0.085784 -0.072764
v -0.054627 0.069595 -0.072652
v -0.059759 0.065567 -0.072620
v -0.060100 0.057451 -0.072618
v -0.025682 0.086175 -0.072835
v -0.028256 0.086324 -0.072818
v -0.019426 0.085056 -0.072874
v -0.057841 0.044617 -0.072632
v 0.001987 0.041175 -0.073009
v 0.002372 0.043684 -0.073011
v 0.002056 0.065661 -0.073009
v 0.003795 0.060143 -0.073020
v -0.003484 0.074753 -0.072974
v -0.016558 0.085425 -0.072892
v -0.017643 0.085214 -0.072885
v -0.061117 0.064051 -0.072611
v -0.061024 0.064335 -0.072612
v -0.042680 0.082041 -0.072728
v 0.002194 0.041873 -0.073010
v -0.048303 0.028175 -0.072692
v -0.010926 0.025085 -0.072928
v 0.003931 0.059799 -0.073021
v 0.001417 0.068074 -0.073005
v -0.006804 0.083409 -0.072954
v -0.015770 0.084527 -0.072897
v -0.046233 0.081211 -0.072705
v -0.047777 0.078268 -0.072695
v -0.059296 0.058768 -0.072623
v -0.053489 0.072641 -0.072659
v -0.054028 0.071197 -0.072656
v 0.000911 0.071592 -0.073002
v -0.001816 0.033852 -0.072053
v -0.006034 0.028600 -0.072045
v -0.055396 0.037867 -0.071949
v -0.057756 0.043121 -0.071944
v -0.057942 0.044967 -0.071944
v -0.059513 0.055676 -0.071941
v -0.057727 0.043345 -0.071945
v 0.003820 0.059696 -0.072064
v -0.038750 0.086025 -0.071981
v -0.035911 0.085480 -0.071987
v -0.054461 0.069771 -0.071951
v -0.060150 0.057415 -0.071940
v -0.057808 0.044140 -0.071944
v 0.003885 0.059893 -0.072064
v 0.001972 0.065624 -0.072060
v 0.003760 0.059947 -0.072064
v -0.042692 0.081871 -0.071974
v -0.010748 0.024995 -0.072036
v -0.046024 0.081097 -0.071967
v -0.047476 0.078335 -0.071964
v -0.053460 0.072447 -0.071953
v 0.000775 0.071591 -0.072058
v -0.034115 0.020356 -0.071990
v -0.036416 0.021297 -0.071986
v -0.046301 0.026750 -0.071967
v -0.057445 0.040900 -0.071945
v -0.020046 0.021108 -0.072018
v -0.029159 0.020228 -0.072000
v 0.003658 0.051689 -0.072064
v -0.003170 0.074496 -0.072050
v 0.001492 0.071063 -0.072059
v -0.058995 0.066211 -0.071942
v -0.025834 0.085813 -0.072006
v -0.028137 0.085950 -0.072002
v -0.020264 0.084805 -0.072017
v 0.001952 0.040962 -0.072060
v 0.002426 0.044056 -0.072061
v -0.003678 0.074700 -0.072049
v -0.016518 0.085283 -0.072024
v -0.017940 0.085009 -0.072022
v -0.061048 0.063921 -0.071938
v -0.060908 0.064348 -0.071938
v 0.002207 0.041823 -0.072061
v -0.048322 0.028099 -0.071963
v 0.001284 0.068226 -0.072059
v -0.006862 0.083012 -0.072043
v -0.015484 0.084104 -0.072026
v -0.059291 0.058822 -0.071942
v -0.053927 0.071198 -0.071952
vn 0.8441 -0.5302 -0.0799
vn 0.6781 -0.7284 -0.0984
vn 0.7918 -0.5924 -0.1488
vn -0.1297 -0.9813 -0.1419
vn -0.4021 -0.9083 -0.1152
vn -0.2689 -0.9391 -0.2139
vn -0.8023 -0.5953 -0.0451
vn -0.9182 -0.3959 0.0148
vn -0.9263 -0.3597 -0.1121
vn -0.9825 -0.1755 -0.0617
vn -0.9654 -0.2585 -0.0338
vn -0.9921 -0.1165 -0.0456
vn 0.0719 -0.9838 -0.1640
vn 0.3667 -0.8871 -0.2802
vn 0.2249 -0.9616 -0.1574
vn 0.9546 -0.2916 -0.0614
vn 0.9099 -0.4078 -0.0763
vn 0.9948 -0.0900 0.0487
vn 0.9975 -0.0699 -0.0127
vn 0.6177 0.7748 0.1348
vn 0.6431 0.7553 0.1263
vn 0.7337 0.6531 0.1873
vn 0.4681 0.8699 0.1557
vn 0.2260 0.9680 0.1091
vn 0.1098 0.9623 0.2487
vn 0.0548 0.9481 0.3134
vn -0.9239 -0.3581 -0.1347
vn -0.5912 0.8054 0.0436
vn -0.8481 0.4761 0.2323
vn -0.7789 0.6269 0.0195
vn -0.8904 0.4168 0.1832
vn -0.7771 0.5577 0.2915
vn -0.5400 0.8079 0.2361
vn -0.7916 0.5630 0.2373
vn -0.7276 0.6813 0.0802
vn 0.9848 0.1608 0.0650
vn 0.9959 0.0762 -0.0477
vn 0.9901 0.0950 0.1038
vn 0.9567 0.2796 -0.0805
vn 0.9806 0.1751 0.0885
vn 0.9646 0.2637 -0.0008
vn 0.7275 -0.5810 -0.3649
vn 0.7785 -0.6120 -0.1390
vn 0.3632 -0.7038 -0.6105
vn -0.7484 -0.2000 -0.6324
vn -0.9349 -0.1807 -0.3054
vn -0.9339 0.0641 -0.3518
vn 0.9453 0.1830 -0.2701
vn -0.3679 0.9125 -0.1789
vn 0.0649 0.9921 -0.1075
vn 0.0754 0.9881 -0.1344
vn -0.0440 0.9907 -0.1288
vn -0.8073 -0.0056 -0.5901
vn -0.8020 0.5937 -0.0659
vn 0.5704 0.7827 -0.2490
vn 0.2990 0.8911 0.3415
vn 0.6544 0.7117 0.2555
vn 0.5550 0.2552 -0.7917
vn 0.7782 0.4414 -0.4468
vn 0.7142 -0.1882 -0.6741
vn 0.3881 -0.3860 -0.8369
vn 0.5091 -0.3509 -0.7859
vn 0.2476 -0.4589 -0.8533
vn -0.1725 -0.6310 -0.7564
vn -0.6524 -0.0901 -0.7525
vn -0.8219 0.4575 -0.3392
vn -0.2047 -0.8744 -0.4398
vn -0.6090 -0.6684 -0.4270
vn 0.7354 -0.5395 -0.4101
vn 0.7491 -0.5047 -0.4291
vn 0.6979 -0.5262 -0.4858
vn -0.9598 -0.2801 -0.0188
vn -0.9976 0.0491 -0.0487
vn 0.9007 0.4322 -0.0440
vn -0.9971 -0.0455 -0.0610
vn -0.9896 -0.1409 -0.0286
vn -0.9850 -0.1356 -0.1071
vn 0.9212 -0.3834 -0.0667
vn 0.9948 -0.1012 -0.0132
vn 0.9352 -0.3256 -0.1396
vn 0.9866 -0.1462 -0.0718
vn 0.9925 -0.1198 -0.0258
vn 0.9365 0.3433 0.0715
vn 0.9504 0.2888 0.1157
vn -0.2224 0.9535 0.2035
vn 0.1266 0.9013 0.4143
vn -0.1685 0.9640 0.2055
vn -0.9336 0.3245 0.1519
vn -0.8417 0.5193 0.1480
vn -0.6597 0.7515 0.0110
vn -0.1669 0.3015 -0.9387
vn -0.7101 0.1412 -0.6898
vn 0.7046 0.5501 -0.4482
vn -0.2330 0.7577 -0.6096
vn -0.4289 -0.2127 -0.8779
vn -0.1873 0.0424 -0.9814
vn -0.0498 0.8008 -0.5969
vn 0.1778 0.2090 -0.9616
vn -0.7547 0.6247 0.2004
vn -0.6931 0.6937 0.1960
vn 0.9855 -0.1674 -0.0276
vn 0.5300 -0.8294 -0.1768
vn 0.7503 -0.6185 0.2335
vn 0.7502 -0.6293 0.2029
vn 0.6920 -0.6863 0.2239
vn 0.9261 0.3595 0.1145
vn 0.9100 0.4004 0.1078
vn 0.9838 0.0837 0.1584
vn 0.9868 -0.1382 0.0844
vn 0.9768 -0.1433 0.1593
vn 0.8843 0.4138 0.2162
vn 0.9471 0.2393 0.2139
vn 0.9349 0.2557 0.2463
vn 0.0620 0.9341 0.3517
vn 0.6203 0.7408 0.2577
vn 0.5997 0.7350 0.3164
vn 0.0079 -0.0673 0.9977
vn 0.0306 -0.0270 0.9992
vn 0.0371 -0.0347 0.9987
vn 0.0245 -0.0294 0.9993
vn -0.0026 -0.0728 0.9973
vn 0.0172 -0.0809 0.9966
vn 0.0415 -0.0687 0.9968
vn 0.0491 -0.0288 0.9984
vn 0.0575 -0.0258 0.9980
vn -0.0102 -0.0696 0.9975
vn -0.0052 -0.0518 0.9986
vn 0.0114 -0.0102 0.9999
vn 0.0194 0.0105 0.9998
vn 0.0222 0.0108 0.9997
vn 0.0462 -0.0495 0.9977
vn 0.0219 0.0355 0.9991
vn 0.0170 0.0154 0.9997
vn 0.0123 0.0171 0.9998
vn 0.0292 0.0261 0.9992
vn 0.0250 0.0190 0.9995
vn 0.0448 0.0176 0.9988
vn -0.0021 0.0195 0.9998
vn -0.0032 0.0140 0.9999
vn 0.0126 0.0069 0.9999
vn 0.0140 0.0076 0.9999
vn -0.0315 0.0789 0.9964
vn -0.0236 0.0505 0.9984
vn -0.0432 0.0304 0.9986
vn 0.0054 0.0465 0.9989
vn -0.0057 0.0460 0.9989
vn 0.0017 0.0111 0.9999
vn 0.0024 0.0098 0.9999
vn -0.0044 0.0203 0.9998
vn -0.0134 0.0239 0.9996
vn -0.0236 0.0206 0.9995
vn -0.0270 0.0235 0.9994
vn -0.0194 -0.0160 0.9997
vn -0.0871 -0.0122 0.9961
vn -0.0862 0.0381 0.9955
vn -0.0331 -0.0008 0.9995
vn -0.0423 -0.0143 0.9990
vn -0.0112 -0.0475 0.9988
vn -0.0024 -0.0445 0.9990
vn -0.0784 -0.0188 0.9967
vn -0.0825 -0.0395 0.9958
vn -0.0647 -0.0475 0.9968
vn 0.0006 -0.0562 0.9984
vn -0.0068 -0.0335 0.9994
vn 0.0372 -0.0264 0.9990
vn -0.9986 0.0261 0.0455
vn -0.9974 -0.0494 0.0534
vn -0.9715 -0.2364 -0.0195
vn -0.3517 0.8531 0.3853
vn -0.2057 0.8373 0.5066
vn -0.0354 0.8984 0.4376
vn 0.8122 0.5388 0.2238
vn -0.9518 -0.2646 -0.1554
vn -0.5995 -0.7756 -0.1974
vn 0.9992 -0.0399 -0.0009
vn -0.9786 -0.1285 -0.1610
vn -0.6470 -0.4218 -0.6352
vn -0.4806 -0.4858 -0.7301
vn 0.9081 0.3891 -0.1545
vn 0.7944 0.5819 0.1742
vn 0.6268 0.7499 0.2114
vn -0.5113 0.7547 0.4111
vn -0.6075 0.7922 0.0586
vn 0.4855 -0.2989 -0.8215
vn 0.2605 -0.4689 -0.8439
vn 0.3263 0.5757 0.7497
vn -0.8726 0.3896 0.2946
vn -0.8643 0.4294 0.2617
vn -0.8891 0.3581 0.2850
vn 0.1478 0.9476 0.2832
vn 0.0390 0.9681 0.2476
vn 0.1220 0.9543 0.2728
vn 0.4634 0.8704 -0.1661
vn 0.3716 0.9178 -0.1398
vn 0.3948 0.9158 -0.0740
vn 0.7722 0.6346 0.0303
vn 0.7139 0.6895 0.1221
vn 0.7616 0.6377 0.1155
vn 0.0403 0.0461 -0.9981
vn -0.3015 -0.1946 -0.9334
vn -0.9645 -0.1658 -0.2056
vn -0.8977 0.3136 0.3096
vn 0.5345 0.8425 0.0673
vn 0.4344 0.8907 0.1344
vn -0.9510 0.2787 0.1339
vn -0.8026 0.5504 0.2301
vn -0.7405 0.5905 0.3209
vn -0.8808 0.3982 0.2563
vn 0.1730 0.9145 0.3657
vn 0.0434 0.9403 0.3377
vn -0.1522 0.9572 0.2461
vn -0.2671 0.9438 0.1948
vn -0.9376 0.3188 0.1385
vn -0.8311 0.5435 0.1181
vn -0.9525 -0.3020 0.0382
vn -0.9389 -0.3423 0.0352
vn -0.2344 0.9624 0.1371
vn -0.1130 0.9810 0.1577
vn 0.7678 0.6403 0.0226
vn 0.7070 0.7068 0.0236
vn 0.9080 0.3943 0.1417
vn 0.9469 0.2764 0.1642
vn 0.9429 0.3329 0.0127
vn 0.9752 0.2204 0.0212
vn 0.9928 0.0728 0.0949
vn 0.9874 -0.1569 -0.0217
vn 0.9762 -0.2144 -0.0328
vn 0.9151 -0.3992 -0.0559
vn 0.0677 0.9369 0.3430
vn 0.0064 0.8960 0.4440
vn 0.0815 0.8710 0.4845
vn -0.8547 0.5191 -0.0061
vn -0.8451 0.5345 0.0141
vn -0.8656 0.4991 -0.0405
vn -0.6627 0.7461 0.0643
vn -0.6164 0.7838 0.0750
vn -0.6786 0.7290 -0.0905
vn -0.8902 0.4212 0.1736
vn 0.2021 0.9730 0.1110
vn -0.0342 0.9417 0.3346
vn -0.7401 0.6511 0.1684
vn -0.6744 0.7224 0.1527
vn 0.9868 -0.1080 0.1204
vn 0.5703 0.8200 0.0482
vn 0.5783 0.8148 0.0399
vn 0.4803 0.8748 0.0643
vn 0.4376 0.8947 0.0899
vn 0.7280 -0.6669 0.1589
vn 0.9937 -0.1098 -0.0210
vn 0.0772 -0.9612 -0.2649
vn 0.2548 -0.9345 -0.2486
vn 0.4701 -0.8538 -0.2236
vn -0.9984 -0.0559 0.0110
vn -0.9921 -0.1228 -0.0254
vn -0.9618 -0.2579 -0.0917
vn -0.9227 -0.3549 -0.1507
vn -0.9826 -0.1689 -0.0767
vn -0.9983 -0.0505 0.0302
vn -0.8036 -0.5893 -0.0842
vn -0.9206 -0.3810 -0.0853
vn -0.6870 -0.7236 -0.0662
vn -0.5005 -0.8563 -0.1273
vn -0.1276 -0.9673 -0.2194
vn -0.4364 -0.8903 -0.1304
vn 0.8273 -0.5563 -0.0778
vn 0.6363 -0.7468 -0.1935
vn 0.1787 0.9189 0.3518
vn 0.0816 0.9427 0.3235
vn -0.9489 -0.3153 0.0133
vn -0.9392 -0.3426 0.0234
vn -0.0255 0.9198 0.3914
vn 0.0930 0.9313 0.3522
vn -0.5999 0.7982 -0.0551
vn -0.5154 -0.8481 -0.1229
vn -0.6752 -0.7312 -0.0974
vn -0.9325 0.3538 0.0721
vn -0.8494 0.5150 0.1151
vn -0.7857 0.5830 0.2069
vn -0.8765 0.4199 0.2353
vn -0.1530 0.9737 0.1690
vn -0.2573 0.9550 0.1473
vn -0.8171 0.5741 -0.0516
vn -0.8628 0.5034 -0.0466
vn -0.6436 0.7574 -0.1102
vn -0.9061 0.4094 0.1068
vn -0.9997 0.0035 -0.0248
vn -0.9898 -0.1340 -0.0474
vn -0.9995 -0.0303 -0.0077
vt 0.158680 0.376893
vt 0.136113 0.388494
vt 0.155764 0.363915
vt 0.010929 0.408127
vt 0.006488 0.403906
vt 0.007936 0.390530
vt 0.740719 0.384561
vt 0.754718 0.391997
vt 0.761559 0.416502
vt 0.329099 0.299170
vt 0.372657 0.323143
vt 0.381404 0.340614
vt 0.031285 0.408924
vt 0.092004 0.361959
vt 0.071740 0.407009
vt 0.194002 0.346732
vt 0.213684 0.293883
vt 0.228356 0.320010
vt 0.259500 0.288880
vt 0.850687 0.219727
vt 0.848724 0.211175
vt 0.876176 0.212659
vt 0.875366 0.213830
vt 0.550085 0.408735
vt 0.557736 0.406739
vt 0.549888 0.412492
vt 0.379781 0.327597
vt 0.443974 0.433456
vt 0.455170 0.398537
vt 0.461239 0.442234
vt 0.485385 0.417353
vt 0.486110 0.457656
vt 0.525682 0.402719
vt 0.529597 0.505297
vt 0.857262 0.153152
vt 0.883419 0.126317
vt 0.843516 0.189982
vt 0.246210 0.207248
vt 0.265660 0.251739
vt 0.227831 0.261314
vt 0.160790 0.280182
vt 0.105906 0.256178
vt 0.761734 0.589839
vt 0.782074 0.536145
vt 0.784030 0.558449
vt 0.249725 0.192108
vt 0.251090 0.196049
vt 0.526859 0.517769
vt 0.560091 0.520876
vt 0.565982 0.544404
vt 0.449729 0.453709
vt 0.487910 0.475243
vt 0.951334 0.073690
vt 0.971323 0.076358
vt 0.935473 0.087916
vt 0.219657 0.070901
vt 0.267121 0.117171
vt 0.243509 0.161211
vt 0.159315 0.136657
vt 0.227868 0.172006
vt 0.114678 0.116475
vt 0.056370 0.212656
vt 0.447956 0.490244
vt 0.488027 0.489872
vt 0.671337 0.524885
vt 0.649880 0.432518
vt 0.709070 0.460497
vt 0.026345 0.299494
vt 0.244758 0.182504
vt 0.233916 0.175008
vt 0.401941 0.346819
vt 0.407829 0.372117
vt 0.241972 0.274003
vt 0.637132 0.358510
vt 0.417262 0.411421
vt 0.416273 0.409103
vt 0.419845 0.413407
vt 0.191663 0.353844
vt 0.201858 0.345849
vt 0.260777 0.289183
vt 0.260154 0.289829
vt 0.260561 0.288764
vt 0.830835 0.230969
vt 0.813030 0.252229
vt 0.830492 0.210762
vt 0.946341 0.186709
vt 0.947209 0.181889
vt 0.951768 0.189218
vt 0.401710 0.344613
vt 0.402809 0.345258
vt 0.733843 0.686991
vt 0.757717 0.600445
vt 0.757848 0.670933
vt 0.893346 0.108346
vt 0.507711 0.532332
vt 0.728005 0.630165
vt 0.714689 0.645382
vt 0.526829 0.548009
vt 0.135676 0.025774
vt 0.173803 0.104236
vt 0.521145 0.391110
vt 0.194490 0.352028
vt 0.109557 0.396234
vt 0.259920 0.288255
vt 0.260788 0.287114
vt 0.839264 0.224333
vt 0.843741 0.210906
vt 0.846401 0.220751
vt 0.876804 0.213899
vt 0.908256 0.184632
vt 0.907193 0.191387
vt 0.957495 0.187195
vt 0.845081 0.208049
vt 0.995822 0.108314
vt 0.584555 0.400142
vt 0.561130 0.404250
vt 0.550169 0.407136
vt 0.520443 0.389313
vt 0.500071 0.384719
vt 0.487520 0.377353
vt 0.447968 0.366097
vt 0.442916 0.363011
vt 0.437145 0.359487
vt 0.414284 0.349356
vt 0.403248 0.344469
vt 0.401593 0.343500
vt 0.387573 0.330457
vt 0.379671 0.326712
vt 0.372060 0.321951
vt 0.325494 0.296314
vt 0.321100 0.294412
vt 0.319168 0.293074
vt 0.755985 0.396498
vt 0.754428 0.390956
vt 0.739823 0.383188
vt 0.690191 0.358599
vt 0.679721 0.355236
vt 0.006379 0.404917
vt 0.011158 0.409475
vt 0.033122 0.410370
vt 0.071001 0.408653
vt 0.110228 0.397544
vt 0.134508 0.390502
vt 0.158923 0.377974
vt 0.191119 0.355497
vt 0.194603 0.353261
vt 0.203689 0.345643
vt 0.228933 0.321036
vt 0.812032 0.254598
vt 0.812544 0.254441
vt 0.830862 0.232556
vt 0.839951 0.225395
vt 0.846736 0.221992
vt 0.850974 0.220975
vt 0.874295 0.215378
vt 0.877632 0.215533
vt 0.906798 0.193894
vt 0.940082 0.192230
vt 0.946071 0.188209
vt 0.953177 0.191483
vt 0.965149 0.158290
vt 0.417099 0.408206
vt 0.418049 0.407235
vt 0.421394 0.395137
vt 0.552715 0.482384
vt 0.917418 0.105828
vt 0.764119 0.466998
vt 0.690403 0.373954
vt 0.417790 0.414357
vt 0.421430 0.433526
vt 0.403691 0.420875
vt 0.755480 0.594010
vt 0.752460 0.595846
vt 0.987829 0.057799
vt 0.992666 0.069859
vt 0.119527 0.115471
vt 0.592278 0.509796
vt 0.431715 0.385447
vt 0.812215 0.254164
vt 0.941781 0.189765
vt 0.916686 0.068504
vt 0.978357 0.022676
vt 0.115314 0.113729
vt 0.946388 0.035053
vt 0.151837 0.003737
vt 0.486151 0.533997
vt 0.714091 0.644083
vt 0.363923 0.370413
vt 0.787151 0.594032
vt 0.851090 0.159484
vt 0.271771 0.148587
vt 0.442446 0.363951
vt 0.448284 0.367521
vt 0.486050 0.378316
vt 0.499415 0.386176
vt 0.387179 0.331106
vt 0.960638 0.188815
vt 0.583731 0.402272
vt 0.591714 0.400555
vt 0.995388 0.107747
vt 0.960951 0.163812
vt 0.410107 0.348497
vt 0.435971 0.359992
vt 0.320000 0.294513
vt 0.322780 0.296437
vt 0.318689 0.307128
vt 0.317446 0.291912
vt 0.756211 0.397311
vt 0.690205 0.359577
vt 0.680409 0.356441
vt 0.637772 0.344505
vt 0.591704 0.398581
vt 0.637820 0.343447
vt 0.317393 0.291268
s 1
usemtl Material.027
f 223/160/144 224/161/145 159/162/146
f 225/163/147 226/164/148 190/165/149
f 228/166/150 229/167/151 160/168/152
f 231/169/153 232/170/154 144/171/155
f 235/172/156 190/165/149 189/173/157 234/174/158
f 186/175/159 159/162/146 158/176/160
f 236/177/161 158/176/160 237/178/162
f 271/179/163 200/180/164 156/181/165 238/182/166
f 240/183/167 241/184/168 155/185/169
f 232/170/154 244/186/170 144/171/155
f 168/187/171 183/188/172 182/189/173
f 182/189/173 153/190/174 181/191/175
f 154/192/176 155/185/177 178/193/178
f 201/194/179 148/195/180 202/196/181
f 149/197/182 184/198/183 145/199/184
f 170/200/185 145/199/186 158/176/160
f 170/200/185 158/176/160 159/162/146
f 151/201/187 170/200/185 189/173/157
f 203/202/188 173/203/189 204/204/190
f 205/205/191 201/206/179 149/197/182
f 167/207/192 175/208/193 191/209/194
f 178/193/195 175/208/193 167/207/192
f 150/210/196 182/189/173 177/211/197
f 195/212/198 176/213/199 146/214/200
f 163/215/201 179/216/202 180/217/203
f 206/218/204 207/219/205 151/201/187
f 165/220/206 151/201/187 174/221/207
f 166/222/208 150/210/196 162/223/209
f 174/224/207 171/225/210 172/226/211
f 174/221/207 151/201/187 171/227/210
f 209/228/212 149/197/213 170/200/185 208/229/214
f 181/191/175 154/192/176 178/193/178
f 144/171/155 198/230/215 187/231/216
f 169/232/217 145/199/184 184/198/183
f 159/162/146 189/173/157 170/200/185
f 171/225/210 190/233/149 172/226/211
f 211/234/218 212/235/219 152/236/220
f 223/160/144 159/162/146 186/175/159 249/237/221
f 250/238/222 186/175/159 158/176/160 236/177/161
f 285/239/223 279/240/224 185/241/225
f 251/242/226 252/243/227 184/244/183
f 254/245/228 188/246/229 255/247/230
f 256/248/231 257/249/232 198/230/233
f 193/250/234 166/251/208 192/252/235
f 195/212/198 146/214/236 179/253/202
f 192/254/237 162/223/209 167/207/192
f 214/255/238 166/251/208 193/250/234 213/256/239
f 192/254/237 167/207/192 199/257/240
f 193/258/234 163/215/201 164/259/241
f 240/183/242 155/185/177 154/192/176 258/260/243
f 250/238/222 259/261/244 186/175/159
f 259/261/244 249/237/221 186/175/159
f 261/262/245 234/174/158 189/173/157
f 237/178/246 158/176/160 169/232/247 262/263/248
f 252/264/227 185/241/249 262/263/250
f 263/265/251 184/244/183 157/266/252 239/267/253
f 253/268/254 156/181/165 194/269/255 264/270/256
f 247/271/257 255/247/230 188/246/229
f 200/180/164 157/266/258 215/272/259
f 304/273/260 305/274/261 281/275/262 280/276/263 288/277/264 290/278/265 291/279/266 292/280/267 320/281/268 282/282/269 303/283/270 313/284/271 312/285/272 319/286/273 283/287/274 277/288/275 276/289/276 284/290/277 278/291/278 275/292/279 297/293/280 274/294/281 315/295/282 296/296/283 295/297/284 294/298/285 299/299/286 298/300/287 289/301/288 273/302/289 272/303/290 307/304/291 314/305/292 308/306/293 300/307/294 279/240/295 285/308/296 287/309/297 286/310/298 316/311/299 302/312/300 293/313/301 301/314/302 309/315/303 317/316/304 318/317/305 310/318/306 311/319/307 306/320/308
f 217/321/309 144/171/155 187/231/216 216/322/310
f 216/322/310 187/231/216 218/323/311
f 181/191/175 153/190/312 154/192/176
f 178/193/313 155/185/169 196/324/314
f 146/214/200 176/213/199 188/246/229
f 147/325/315 146/214/200 188/246/229
f 160/168/152 161/326/316 172/226/211 197/327/317
f 202/196/181 148/195/180 215/272/318
f 171/227/210 151/201/187 189/173/157
f 219/328/319 204/329/190 173/330/189
f 178/193/178 167/207/192 162/223/209 177/211/197
f 220/331/320 172/226/211 173/203/189 203/202/188
f 221/332/321 174/224/207 172/226/211 220/331/320
f 207/219/205 180/217/203 208/229/214
f 209/228/322 205/205/191 149/197/182
f 179/253/323 147/325/315 148/195/324
f 176/213/199 191/333/194 175/334/193
f 178/193/313 196/324/314 175/208/325
f 177/211/197 181/191/175 178/193/178
f 150/210/326 168/187/171 182/189/173
f 162/223/209 150/210/196 177/211/197
f 195/212/198 191/333/194 176/213/199
f 179/253/323 146/214/200 147/325/315
f 164/259/327 163/215/201 180/217/203
f 222/335/328 164/259/327 206/218/204
f 214/255/238 221/332/321 166/251/208
f 219/328/319 211/234/218 152/236/220
f 173/203/189 172/226/211 161/326/316
f 170/200/185 149/197/213 145/199/186
f 176/336/199 175/208/329 196/324/314
f 177/211/197 182/189/173 181/191/175
f 218/323/330 187/231/331 210/337/332
f 182/189/173 183/188/172 153/190/174
f 188/246/333 194/269/334 147/325/335
f 194/269/255 156/181/165 147/325/315
f 169/232/247 158/176/160 145/199/186
f 189/173/157 190/165/149 171/227/210
f 172/226/211 190/233/149 197/327/317
f 235/172/156 225/163/147 190/165/149
f 263/265/251 251/242/226 184/244/183
f 287/309/336 285/308/337 185/338/338
f 254/245/339 265/339/340 188/246/341
f 192/254/235 166/222/208 162/223/209
f 163/340/201 195/212/198 179/253/202
f 195/212/198 199/341/240 191/333/194
f 199/257/240 167/207/192 191/209/194
f 213/342/239 222/335/342 165/220/343
f 163/343/201 199/341/240 195/212/198
f 193/258/234 199/344/240 163/215/201
f 193/345/234 192/254/237 199/257/240
f 166/251/208 221/332/321 220/331/320
f 152/236/220 217/321/309 216/322/310
f 152/236/220 216/322/310 218/323/311 168/187/344
f 165/346/343 174/224/207 221/332/321 214/255/238
f 165/346/343 214/255/238 213/256/239
f 193/258/234 164/259/241 222/335/342 213/342/239
f 152/236/220 212/235/219 217/321/309
f 173/330/189 161/347/316 211/234/218 219/328/319
f 168/187/345 218/323/330 210/337/332 183/188/172
f 180/217/203 209/228/212 208/229/214
f 151/201/187 207/219/205 208/229/214 170/200/185
f 164/259/327 180/217/203 207/219/205 206/218/204
f 165/220/206 222/335/328 206/218/204 151/201/187
f 180/217/203 179/216/202 205/205/191 209/228/322
f 152/236/220 168/187/344 150/210/196 204/329/190 219/328/319
f 166/251/208 203/202/188 204/204/190 150/348/196
f 166/251/208 220/331/320 203/202/188
f 184/244/183 202/196/181 215/272/318 157/266/252
f 149/349/182 201/194/179 202/196/181 184/244/183
f 179/216/202 148/350/180 201/206/179 205/205/191
f 156/181/165 200/180/164 215/272/259 148/195/324 147/325/315
f 239/267/346 157/266/258 200/180/164 271/179/163
f 253/268/347 238/182/166 156/181/165
f 210/337/332 270/351/348 269/352/349 183/188/172
f 183/188/172 269/352/349 267/353/350
f 153/190/174 183/188/172 267/353/350 266/354/351
f 188/246/333 265/339/352 264/270/353 194/269/334
f 153/190/312 266/354/354 258/260/355 154/192/176
f 312/285/356 313/284/357 257/249/232 256/248/231
f 198/230/215 144/171/155 268/355/358 256/248/359
f 310/318/360 254/245/228 255/247/230 311/319/361
f 310/318/362 318/317/363 265/339/340 254/245/339
f 309/315/364 253/268/254 264/270/256 317/316/365
f 184/198/183 252/264/227 262/263/250 169/232/217
f 287/309/366 185/338/249 252/243/227 251/242/226 286/310/367
f 316/311/368 286/310/367 251/242/226 263/265/251
f 308/306/369 314/305/370 259/261/244 250/238/222
f 314/305/370 307/304/371 249/237/221 259/261/244
f 306/356/372 311/319/361 255/247/230 247/271/257
f 176/336/199 196/324/314 246/357/373 245/358/374
f 176/213/199 245/359/374 247/360/257 188/246/229
f 144/171/375 244/186/376 268/355/377
f 198/230/233 257/249/232 243/361/378
f 187/231/379 198/230/233 243/361/378 242/362/380
f 187/231/331 242/362/381 270/351/348 210/337/332
f 155/185/169 241/184/168 246/357/373 196/324/314
f 280/276/382 281/275/383 241/184/168 240/183/167
f 280/276/384 240/183/242 258/260/243 288/277/385
f 316/311/368 263/265/251 239/267/253 302/312/386
f 302/312/387 239/267/346 271/179/163 293/313/388
f 293/313/388 271/179/163 238/182/166 301/314/389
f 309/315/390 301/314/389 238/182/166 253/268/347
f 185/241/391 237/178/246 262/263/248
f 300/307/392 236/177/161 237/178/162 185/241/225 279/240/224
f 308/306/369 250/238/222 236/177/161 300/307/392
f 299/299/393 235/172/156 234/174/158 298/300/394
f 289/301/395 298/300/394 234/174/158 261/262/245
f 161/347/316 233/363/396 248/364/397 212/235/219 211/234/218
f 277/288/398 283/287/399 244/186/170 232/170/154
f 276/289/400 277/288/398 232/170/154 231/169/153
f 212/235/219 248/364/397 231/169/153 144/171/155 217/321/309
f 160/365/152 230/366/401 233/363/396 161/347/316
f 160/168/152 229/167/151 230/367/401
f 274/294/402 297/293/403 229/167/151 228/166/150
f 197/327/317 260/368/404 228/166/150 160/168/152
f 197/327/317 227/369/405 260/368/404
f 190/233/149 226/370/148 227/369/405 197/327/317
f 294/298/406 295/297/407 226/164/148 225/163/147
f 299/299/393 294/298/406 225/163/147 235/172/156
f 159/162/146 224/161/145 261/262/245 189/173/157
f 272/303/408 273/302/409 224/161/145 223/160/144
f 272/303/408 223/160/144 249/237/221 307/304/371
f 265/339/352 318/317/410 317/316/411 264/270/353
f 256/248/359 268/355/358 319/286/412 312/285/413
f 245/358/374 246/357/373 305/274/414 304/371/415
f 245/359/374 304/273/415 306/320/372 247/360/257
f 257/249/232 313/284/357 303/283/416 243/361/378
f 227/369/405 296/296/417 315/295/418 260/368/404
f 226/370/148 295/372/407 296/296/417 227/369/405
f 270/351/348 320/281/419 292/280/420 269/352/349
f 269/352/349 292/280/420 291/279/421 267/353/350
f 266/354/351 267/353/350 291/279/421 290/278/422
f 266/354/354 290/278/423 288/277/424 258/260/355
f 244/186/376 283/287/425 319/286/426 268/355/377
f 242/362/380 243/361/378 303/283/416 282/282/427
f 242/362/381 282/282/428 320/281/419 270/351/348
f 241/184/168 281/275/383 305/274/414 246/357/373
f 233/363/396 278/291/429 284/290/430 248/364/397
f 248/364/397 284/290/430 276/289/400 231/169/153
f 229/167/151 297/293/403 275/292/431 230/367/401
f 230/366/401 275/373/431 278/291/429 233/363/396
f 260/368/404 315/295/418 274/294/402 228/166/150
f 224/161/145 273/302/409 289/301/395 261/262/245
o cucumber.011
v -0.059158 0.060306 -0.053313
v -0.049316 0.071230 -0.046995
v -0.046450 0.076691 -0.040367
v -0.014963 0.079739 -0.038011
v -0.022277 0.017950 -0.059917
v -0.008274 0.073446 -0.050095
v -0.001292 0.071159 -0.053815
v 0.003519 0.051523 -0.052990
v -0.057916 0.054109 0.003348
v -0.046973 0.071870 -0.008311
v -0.039292 0.076833 -0.019892
v -0.028723 0.080182 -0.023815
v -0.020596 0.080118 -0.002931
v -0.009769 0.078099 -0.019870
v -0.008355 0.074392 0.001156
v -0.001394 0.063671 -0.015420
v 0.005880 0.055217 -0.018565
v 0.003070 0.038521 -0.009112
v -0.006336 0.022778 0.000588
v -0.012061 0.018979 -0.033347
v -0.022485 0.014884 0.004619
v -0.024140 0.011674 -0.012807
v -0.030298 0.014881 -0.041023
v -0.039943 0.017414 -0.029854
v -0.056012 0.033554 -0.029684
v -0.027116 0.082748 -0.065006
v -0.059935 0.049028 -0.041125
v -0.042687 0.073599 -0.003987
v -0.052204 0.065306 -0.021114
v -0.062558 0.055698 -0.039175
v -0.018673 0.077087 -0.022501
v -0.003247 0.069827 -0.000756
v 0.000525 0.032330 -0.033461
v -0.007343 0.018694 -0.040901
v -0.026500 0.012157 -0.044022
v -0.062230 0.042091 -0.036083
v -0.035318 0.082101 -0.050062
v 0.007916 0.061896 -0.045055
v -0.023187 0.081368 -0.056726
v -0.057447 0.040190 0.002557
v -0.000027 0.064745 -0.049431
v -0.042863 0.079358 -0.060779
v -0.053254 0.071046 -0.066847
v -0.049321 0.024026 -0.032740
v -0.030978 0.077195 -0.013563
v -0.008820 0.024019 -0.062354
v -0.047339 0.071245 -0.002369
v -0.005633 0.071545 -0.024178
v -0.002538 0.071567 -0.053151
v -0.001526 0.071575 -0.056086
v -0.053277 0.071202 -0.067416
v -0.005173 0.071548 -0.000035
v -0.053057 0.071204 -0.066732
v -0.047472 0.071244 -0.009532
v -0.001563 0.033687 -0.067889
v -0.007243 0.026612 -0.067839
v -0.054695 0.036269 -0.067420
v -0.057606 0.042358 -0.067395
v -0.057957 0.043664 -0.067392
v -0.059575 0.054691 -0.067377
v 0.003755 0.057927 -0.067936
v -0.038059 0.085235 -0.067567
v -0.030427 0.083776 -0.067634
v -0.053392 0.070900 -0.067432
v -0.060486 0.057176 -0.067369
v -0.058124 0.042970 -0.067390
v 0.004500 0.060199 -0.067942
v 0.001606 0.065463 -0.067917
v 0.003068 0.060824 -0.067930
v -0.042760 0.080873 -0.067526
v -0.009908 0.024569 -0.067815
v -0.044764 0.080404 -0.067508
v -0.045635 0.078743 -0.067500
v 0.000177 0.071587 -0.067904
v -0.033575 0.019581 -0.067607
v -0.036785 0.020891 -0.067578
v -0.045627 0.025760 -0.067500
v -0.057291 0.040109 -0.067397
v -0.020838 0.019986 -0.067719
v -0.026691 0.019411 -0.067667
v 0.003628 0.051653 -0.067935
v -0.002740 0.073732 -0.067878
v 0.000859 0.071085 -0.067910
v -0.053908 0.070495 -0.067427
v -0.026628 0.083913 -0.067668
v -0.027503 0.083963 -0.067660
v -0.024496 0.083534 -0.067687
v 0.001799 0.040036 -0.067919
v 0.002663 0.045675 -0.067926
v -0.004554 0.074461 -0.067862
v -0.016323 0.084588 -0.067759
v -0.019411 0.083987 -0.067731
v -0.060585 0.063034 -0.067368
v -0.060126 0.064434 -0.067372
v 0.002264 0.041606 -0.067923
v -0.048436 0.027633 -0.067476
v 0.000698 0.068893 -0.067909
v -0.007133 0.081180 -0.067840
v -0.014088 0.082040 -0.067778
v -0.059258 0.059186 -0.067380
v -0.057580 0.041379 0.006176
v -0.057981 0.053847 0.006178
v -0.051177 0.027018 0.006139
v -0.053703 0.030604 0.006154
v -0.043843 0.020520 0.006097
v -0.048376 0.023729 0.006123
v -0.014279 0.018615 0.005927
v -0.022193 0.015038 0.005973
v -0.006723 0.021941 0.005884
v -0.009774 0.018533 0.005901
v -0.000803 0.031581 0.005850
v -0.006018 0.023451 0.005880
v 0.002983 0.058602 0.005828
v 0.005062 0.056186 0.005816
v -0.003018 0.068014 0.005862
v -0.002150 0.064276 0.005857
v -0.033713 0.076713 0.006039
v -0.029972 0.078932 0.006017
v -0.028798 0.080577 0.006011
v -0.038547 0.075147 0.006067
v -0.036039 0.076582 0.006052
v -0.048101 0.071240 0.006121
v -0.048605 0.073107 0.006124
v -0.057489 0.055080 0.006175
v -0.052466 0.065549 0.006147
v 0.003157 0.051720 0.005827
v 0.003032 0.042542 0.005828
v -0.050001 0.067541 0.006132
v -0.047415 0.073445 0.006118
v -0.042938 0.074362 0.006092
v -0.022762 0.014959 0.005976
v -0.031725 0.016272 0.006027
v -0.037204 0.017569 0.006059
v -0.056728 0.038607 0.006171
v -0.057455 0.040355 0.006175
v -0.057890 0.040920 0.006178
v -0.005899 0.071543 0.005879
v -0.008424 0.073933 0.005893
v 0.002516 0.038071 0.005831
v 0.000410 0.033840 0.005843
v 0.004012 0.038746 0.005822
v 0.003147 0.040086 0.005827
v 0.004665 0.053818 0.005818
v -0.009485 0.074599 0.005900
v -0.015124 0.079113 0.005932
v -0.018247 0.079691 0.005950
v -0.020966 0.079747 0.005966
v -0.058130 0.054492 0.006179
v -0.022606 0.014902 0.005975
v -0.047862 0.070352 0.006120
vn -0.9691 -0.2326 0.0817
vn -0.9764 0.2151 -0.0166
vn -0.9962 -0.0874 -0.0058
vn 0.1516 -0.9882 0.0240
vn -0.3693 -0.9266 -0.0706
vn -0.0784 -0.9915 0.1034
vn 0.3141 -0.6479 0.6939
vn 0.2193 -0.9750 -0.0367
vn 0.2178 -0.7431 0.6327
vn 0.2767 -0.7150 0.6420
vn 0.8051 -0.5930 -0.0089
vn 0.6119 -0.3937 0.6860
vn 0.6225 -0.3727 0.6882
vn 0.8681 -0.4955 -0.0280
vn 0.6167 -0.3384 0.7107
vn 0.7484 0.1368 0.6490
vn 0.9968 -0.0738 0.0317
vn 0.8683 0.4932 0.0537
vn 0.5005 0.4345 0.7487
vn 0.6808 0.3009 0.6678
vn 0.8507 0.5226 0.0572
vn 0.6463 0.2919 0.7050
vn -0.2176 0.7371 0.6398
vn -0.5016 0.5500 0.6677
vn -0.5026 0.8638 0.0340
vn -0.6616 -0.2060 0.7210
vn -0.7067 0.3911 0.5896
vn -0.6825 0.7308 -0.0060
vn -0.9910 0.1313 -0.0249
vn 0.3071 0.9517 0.0021
vn 0.2984 0.9504 0.0874
vn 0.0362 0.9926 0.1162
vn 0.5182 0.8531 0.0615
vn 0.4001 0.9101 0.1078
vn 0.6211 0.7814 0.0603
vn 0.9120 0.4091 -0.0295
vn 0.8346 0.5499 0.0332
vn 0.9773 -0.2114 -0.0169
vn 0.6988 -0.7127 -0.0608
vn 0.5587 -0.8234 -0.0992
vn 0.0364 -0.9938 -0.1050
vn 0.2580 -0.9538 -0.1540
vn -0.3078 -0.5989 -0.7393
vn -0.4118 -0.9110 -0.0214
vn -0.3726 -0.5784 -0.7257
vn -0.6702 -0.2265 -0.7068
vn -0.8311 -0.5549 0.0367
vn -0.6390 -0.3186 -0.7001
vn -0.6343 0.5043 -0.5860
vn -0.4663 0.5428 -0.6985
vn -0.7449 0.6564 0.1196
vn -0.9776 0.1689 0.1257
vn -0.9149 0.3993 0.0587
vn -0.7648 0.6403 0.0706
vn -0.6934 0.7204 0.0157
vn -0.3101 0.9422 0.1267
vn -0.2361 0.9678 0.0869
vn 0.1476 0.9889 -0.0192
vn 0.6369 0.7709 -0.0077
vn 0.6715 0.0083 0.7409
vn 0.9753 -0.2208 -0.0047
vn 0.7102 -0.1885 0.6783
vn -0.9932 -0.1163 0.0040
vn -0.2056 0.7555 0.6220
vn -0.1823 0.7356 0.6525
vn -0.3421 0.9387 0.0425
vn 0.5224 0.4595 0.7183
vn 0.4308 0.5208 0.7370
vn 0.3995 0.5158 0.7579
vn 0.2820 0.7497 0.5987
vn 0.0671 0.7831 0.6182
vn 0.0595 0.7101 0.7016
vn -0.3112 0.7291 0.6096
vn -0.1793 0.7021 0.6891
vn -0.2921 0.6599 0.6922
vn -0.8164 0.1599 0.5550
vn -0.5438 0.5350 0.6466
vn -0.5349 0.4805 0.6949
vn -0.6043 0.4848 0.6323
vn -0.7914 0.2728 0.5471
vn -0.7519 -0.0409 0.6581
vn -0.7605 0.2365 0.6047
vn -0.8521 -0.0556 0.5204
vn -0.6692 -0.3513 0.6548
vn -0.6859 -0.2830 0.6704
vn -0.6708 -0.3643 0.6460
vn -0.5951 -0.4109 0.6907
vn -0.4770 -0.5066 0.7182
vn -0.3835 -0.5890 0.7114
vn -0.2463 -0.6941 0.6764
vn -0.1102 -0.7423 0.6610
vn -0.1918 -0.7181 0.6690
vn -0.0527 -0.7836 0.6190
vn 0.6122 -0.3519 0.7080
vn 0.5146 -0.5679 0.6424
vn 0.8321 -0.2324 0.5036
vn 0.7136 0.2622 0.6496
vn 0.7299 -0.3262 0.6008
vn 0.1298 0.8078 -0.5750
vn -0.0571 0.8576 -0.5112
vn 0.0963 0.9688 0.2282
vn -0.0383 0.8078 -0.5882
vn 0.0844 0.8353 -0.5433
vn -0.7076 -0.1744 -0.6848
vn -0.6922 0.0185 -0.7214
vn 0.7421 0.6563 0.1361
vn 0.4704 0.8797 0.0691
vn -0.2654 0.9570 0.1174
vn -0.8171 0.5729 0.0644
vn -0.5622 0.8127 0.1533
vn -0.7020 -0.7099 -0.0577
vn -0.4854 -0.5114 -0.7091
vn 0.4506 -0.4814 -0.7518
vn 0.3359 -0.6209 -0.7082
vn 0.4678 0.6732 -0.5727
vn 0.5244 0.7764 -0.3497
vn -0.4531 0.7036 -0.5474
vn -0.3604 0.7992 -0.4811
vn -0.6218 0.4649 -0.6303
vn -0.7229 0.6665 0.1823
vn -0.6052 0.5072 -0.6136
vn -0.7871 0.0348 -0.6158
vn -0.7710 0.0801 -0.6317
vn -0.7998 0.5963 0.0692
vn 0.6439 0.7601 0.0874
vn 0.6852 0.7253 0.0659
vn -0.5472 -0.3951 -0.7379
vn -0.6726 0.4117 -0.6149
vn -0.7804 0.1612 -0.6042
vn -0.7100 -0.1939 -0.6770
vn -0.2534 0.8307 -0.4958
vn -0.1494 0.7512 -0.6430
vn 0.2322 0.8359 -0.4974
vn 0.5347 0.6220 -0.5721
vn 0.3477 0.7170 -0.6041
vn 0.4120 0.6408 -0.6478
vn 0.7277 0.3870 -0.5663
vn 0.7721 0.1250 -0.6231
vn 0.6320 0.2076 -0.7466
vn 0.4640 0.5349 -0.7061
vn 0.7136 0.3266 -0.6198
vn 0.6698 -0.1217 -0.7325
vn 0.6943 -0.0484 -0.7180
vn 0.6787 -0.0888 -0.7290
vn 0.6864 -0.1486 -0.7119
vn 0.6514 -0.2677 -0.7099
vn 0.5721 -0.3868 -0.7232
vn 0.1739 -0.6899 -0.7027
vn 0.0437 -0.6868 -0.7255
vn -0.1666 -0.7455 -0.6453
vt 0.320286 0.186606
vt 0.382663 0.221885
vt 0.345033 0.267969
vt 0.061372 0.504592
vt 0.020135 0.462248
vt 0.050145 0.492649
vt 0.063001 0.505488
vt 0.098928 0.452764
vt 0.098405 0.494083
vt 0.112702 0.489085
vt 0.130982 0.474652
vt 0.129102 0.481318
vt 0.133761 0.478846
vt 0.168990 0.422778
vt 0.166485 0.464244
vt 0.798022 0.359775
vt 0.794356 0.327585
vt 0.830580 0.312671
vt 0.808391 0.354262
vt 0.841563 0.337856
vt 0.865390 0.310276
vt 0.859309 0.324996
vt 0.554587 0.275294
vt 0.575459 0.279456
vt 0.566746 0.302004
vt 0.478486 0.262332
vt 0.479885 0.263055
vt 0.487010 0.284590
vt 0.483227 0.275284
vt 0.955627 0.278139
vt 0.935477 0.247034
vt 0.978135 0.231609
vt 0.880533 0.283715
vt 0.861062 0.247385
vt 0.897288 0.254324
vt 0.799465 0.284397
vt 0.831505 0.270397
vt 0.263798 0.377278
vt 0.240431 0.341511
vt 0.275624 0.317956
vt 0.117541 0.447232
vt 0.117510 0.411763
vt 0.037740 0.462911
vt 0.060520 0.431954
vt 0.638093 0.337477
vt 0.640429 0.286380
vt 0.675554 0.347933
vt 0.752512 0.384094
vt 0.736625 0.327185
vt 0.754088 0.389701
vt 0.444706 0.356230
vt 0.442108 0.355073
vt 0.445684 0.355808
vt 0.374340 0.283963
vt 0.398361 0.312696
vt 0.465944 0.328030
vt 0.495157 0.336975
vt 0.526449 0.307966
vt 0.552555 0.361624
vt 0.969431 0.296186
vt 0.913912 0.275068
vt 0.218823 0.442838
vt 0.202127 0.434996
vt 0.251129 0.416778
vt 0.755265 0.300288
vt 0.758206 0.336166
vt 0.485660 0.263836
vt 0.508683 0.271714
vt 0.508033 0.281232
vt 0.879279 0.319386
vt 0.894944 0.317861
vt 0.903589 0.318021
vt 0.937220 0.311258
vt 0.954394 0.310157
vt 0.610404 0.286621
vt 0.583904 0.284411
vt 0.543400 0.274603
vt 0.529994 0.271659
vt 0.477822 0.261988
vt 0.456926 0.254974
vt 0.438323 0.249082
vt 0.387465 0.220724
vt 0.384111 0.219088
vt 0.382078 0.217284
vt 0.326350 0.184706
vt 0.323867 0.183588
vt 0.755702 0.297659
vt 0.750224 0.292712
vt 0.725703 0.277049
vt 0.708064 0.267733
vt 0.687537 0.260449
vt 0.663727 0.252567
vt 0.635874 0.244372
vt 0.028272 0.518643
vt 0.060750 0.506536
vt 0.061484 0.506117
vt 0.176398 0.459498
vt 0.199380 0.451009
vt 0.203907 0.450232
vt 0.207362 0.448589
vt 0.261154 0.411910
vt 0.591651 0.388243
vt 0.588939 0.388821
vt 0.591618 0.381900
vt 0.998100 0.111284
vt 0.999497 0.113107
vt 0.986364 0.130382
vt 0.580139 0.390315
vt 0.317469 0.285893
vt 0.319524 0.244958
vt 0.320107 0.287571
vt 0.853190 0.245877
vt 0.855819 0.242078
vt 0.582183 0.325521
vt 0.275088 0.409343
vt 0.321596 0.182662
vt 0.436349 0.284951
vt 0.510014 0.362624
vt 0.606791 0.365668
vt 0.689467 0.306011
vt 0.690109 0.352583
vt 0.315910 0.286819
vt 0.298688 0.249138
vt 0.127131 0.399730
vt 0.113402 0.403742
vt 0.931793 0.204258
vt 0.904977 0.205467
vt 0.504034 0.375913
vt 0.516299 0.378708
vt 0.445939 0.356955
vt 0.446905 0.355937
vt 0.496498 0.371475
vt 0.400800 0.335942
vt 0.390215 0.326108
vt 0.482179 0.284624
vt 0.610253 0.298926
vt 0.896231 0.310449
vt 0.877019 0.310341
vt 0.734006 0.374274
vt 0.406222 0.339122
vt 0.378927 0.320749
vt 0.368057 0.313956
vt 0.550649 0.397970
vt 0.960177 0.202738
vt 0.944742 0.195587
vt 0.881381 0.222931
vt 0.869466 0.222355
vt 0.852234 0.226463
vt 0.848204 0.227424
vt 0.842962 0.230054
vt 0.830980 0.239485
vt 0.816008 0.257356
vt 0.810114 0.259145
vt 0.255886 0.301015
vt 0.231422 0.325468
vt 0.211655 0.344747
vt 0.195098 0.358634
vt 0.188745 0.362717
vt 0.160009 0.382809
vt 0.067278 0.416930
vt 0.042946 0.418110
vt 0.012429 0.416945
vt 0.005761 0.410619
vt 0.986349 0.202077
vt 0.976519 0.197007
vt 0.000478 0.459421
vt 0.263043 0.293574
vt 0.970334 0.305950
vt 0.613812 0.263517
vt 0.621237 0.225645
s 1
usemtl Material.039
f 360/374/432 329/375/433 347/376/434
f 341/377/435 343/378/436 342/379/437
f 428/380/438 341/377/435 340/381/439 427/382/440
f 430/383/441 340/381/439 339/384/442 429/385/443
f 432/386/444 339/384/442 353/387/445 431/388/446
f 434/389/447 337/390/448 336/391/449 433/392/450
f 436/393/451 336/391/449 352/394/452 435/395/453
f 437/396/454 438/397/455 365/398/456
f 442/399/457 443/400/458 330/401/459 367/402/460
f 351/403/461 324/404/462 359/405/463
f 368/406/464 369/407/465 326/408/466
f 336/391/449 358/409/467 361/410/468
f 337/411/448 328/412/469 358/413/467
f 339/384/442 354/414/470 366/415/471
f 355/416/472 343/378/436 325/417/473
f 396/418/474 344/419/475 397/420/476
f 398/421/477 345/422/478 378/423/479
f 384/424/480 404/425/481 363/426/482
f 347/376/434 329/375/433 350/427/483
f 350/427/483 329/375/433 321/428/484
f 322/429/485 330/401/459 323/430/486
f 331/431/487 365/398/456 357/432/488
f 333/433/489 351/403/461 359/405/463
f 351/403/461 334/434/490 324/404/462
f 336/391/449 337/390/448 358/409/467
f 447/435/491 338/436/492 328/412/469 446/437/493
f 341/377/435 325/417/473 340/381/439
f 345/422/478 360/438/432 356/439/494
f 449/440/495 450/441/496 348/442/497
f 432/386/444 429/385/443 339/384/442
f 435/395/453 457/443/498 458/444/499 464/445/500 465/446/501 466/447/502 467/448/503 439/449/504 438/397/455 437/396/454 441/450/505 440/451/506 450/441/496 449/440/495 443/400/458 442/399/457 470/452/507 448/453/508 445/454/509 444/455/510 468/456/511 422/457/512 421/458/513 456/459/514 455/460/515 454/461/516 424/462/517 423/463/518 426/464/519 425/465/520 453/466/521 452/467/522 451/468/523 469/469/524 428/380/438 427/382/440 430/383/441 429/385/443 432/386/444 431/388/446 460/470/525 459/471/526 461/472/527 462/473/528 447/435/491 446/437/493 463/474/529 434/389/447 433/392/450 436/393/451
f 454/461/516 455/460/515 360/438/432
f 405/475/530 406/476/531 346/477/532
f 405/478/530 346/479/532 407/480/533
f 383/481/534 346/477/532 406/476/531
f 386/482/535 356/483/494 347/376/434 379/484/536
f 340/381/439 325/417/473 366/415/471
f 369/407/465 327/485/537 370/486/538
f 357/432/488 332/487/539 346/477/532
f 460/470/525 431/388/446 353/387/445
f 461/472/527 459/471/526 338/436/492
f 447/435/491 462/473/528 338/436/492
f 462/473/528 461/472/527 338/436/492
f 434/488/447 463/474/529 337/411/448
f 436/393/451 433/392/450 336/391/449
f 465/446/501 334/434/490 351/403/461 333/433/489 466/447/502
f 455/489/515 456/459/514 360/374/432
f 361/410/468 327/485/537 352/394/452 336/391/449
f 363/426/482 349/490/540 322/429/485
f 362/491/541 323/430/486 331/431/487
f 362/491/541 331/431/487 357/432/488
f 357/432/488 365/398/456 332/487/539
f 346/477/532 332/487/539 359/492/463
f 324/404/462 334/434/490 326/408/466
f 353/387/445 339/384/442 366/415/471
f 366/415/471 354/414/470 340/381/439
f 397/420/476 344/419/475 364/493/542 416/494/543
f 378/495/479 345/496/478 356/483/494 386/482/535
f 376/497/544 366/415/471 391/498/545
f 419/499/546 326/408/466 418/500/547
f 331/431/487 323/430/486 330/401/459 348/442/497
f 392/501/548 362/491/541 390/502/549
f 371/503/550 363/426/482 373/504/551
f 392/501/548 393/505/552 362/491/541
f 413/506/553 420/507/554 321/428/484
f 321/428/484 329/375/433 349/490/540
f 322/429/485 349/490/540 374/508/555
f 374/508/555 367/402/460 330/401/459
f 355/416/472 325/417/473 341/377/435 342/379/437
f 332/487/539 333/509/489 359/492/463
f 334/434/490 335/510/556 326/408/466
f 372/511/557 352/394/452 368/406/464
f 339/384/442 340/381/439 354/414/470
f 355/416/472 342/379/437 343/378/436
f 356/483/494 360/374/432 347/376/434
f 428/380/438 469/469/524 341/377/435
f 416/494/543 364/493/542 377/512/558
f 322/429/485 362/491/541 373/504/551
f 362/491/541 322/429/485 323/430/486
f 414/513/559 349/490/540 363/426/482 404/425/481
f 385/514/560 350/427/483 321/428/484 420/507/554
f 378/495/479 386/482/535 379/484/536 380/515/561 385/514/560 420/507/554 413/506/553 414/513/559 404/425/481 384/424/480 371/503/550 393/505/552 392/501/548 390/502/549 382/516/562 383/481/534 406/476/531 405/475/530 407/480/533 412/517/563 411/518/564 419/499/546 418/500/547 410/519/565 402/520/566 394/521/567 403/522/568 417/523/569 388/524/570 389/525/571 387/526/572 381/527/573 401/528/574 409/529/575 415/530/576 408/531/577 375/532/578 376/497/544 391/498/545 399/533/579 400/534/580 395/535/581 396/536/474 397/420/476 416/494/543 377/512/558 398/421/477
f 371/503/550 373/504/551 362/491/541 393/505/552
f 384/424/480 363/426/482 371/503/550
f 363/426/482 322/429/485 373/504/551
f 330/401/459 322/429/485 374/508/555
f 352/394/452 327/485/537 369/407/465 368/406/464
f 335/510/556 372/511/557 368/406/464 326/408/466
f 470/452/507 442/399/457 367/402/460
f 379/484/536 347/376/434 380/515/561
f 321/428/484 349/490/540 414/513/559 413/506/553
f 324/404/462 411/518/564 412/517/563 359/405/463
f 324/404/462 326/408/466 419/499/546 411/518/564
f 326/408/466 410/519/565 418/500/547
f 328/412/469 338/436/492 415/530/576 409/529/575
f 338/436/492 353/387/445 408/531/577 415/530/576
f 346/537/532 359/405/463 412/517/563 407/538/533
f 327/485/537 417/523/569 403/522/568
f 326/408/466 369/407/465 370/486/538 402/520/566 410/519/565
f 328/412/469 409/529/575 401/528/574
f 325/417/473 400/534/580 399/533/579
f 343/378/436 344/539/475 396/536/474 395/535/581
f 325/417/473 343/378/436 395/535/581 400/534/580
f 327/485/537 403/522/568 394/521/567 370/486/538
f 370/486/538 394/521/567 402/520/566
f 366/415/471 325/417/473 399/533/579 391/498/545
f 361/410/468 389/525/571 388/524/570
f 327/485/537 361/410/468 388/524/570 417/523/569
f 361/410/468 358/409/467 387/526/572 389/525/571
f 357/432/488 346/477/532 383/481/534 382/516/562
f 357/432/488 382/516/562 390/502/549 362/491/541
f 358/413/467 328/412/469 381/527/573 387/540/572
f 328/412/469 401/528/574 381/527/573
f 347/376/434 350/427/483 385/514/560 380/515/561
f 364/493/542 345/422/478 398/421/477 377/512/558
f 353/387/445 366/415/471 376/497/544 375/532/578
f 353/387/445 375/532/578 408/531/577
f 333/433/489 467/541/503 466/447/502
f 335/510/556 334/434/490 465/446/501 464/445/500
f 338/436/492 459/471/526 460/470/525 353/387/445
f 335/510/556 464/445/500 458/444/499
f 372/511/557 335/510/556 458/444/499 457/443/498
f 343/542/436 452/543/522 453/466/521 344/419/475
f 341/377/435 451/468/523 452/467/522 343/378/436
f 341/377/435 469/469/524 451/468/523
f 349/490/540 448/453/508 470/452/507 367/402/460 374/508/555
f 337/411/448 463/474/529 446/437/493 328/412/469
f 349/490/540 445/454/509 448/453/508
f 329/375/433 444/455/510 445/454/509 349/490/540
f 329/375/433 468/456/511 444/455/510
f 330/401/459 443/400/458 449/440/495 348/442/497
f 348/442/497 440/451/506 441/450/505 331/431/487
f 348/442/497 450/441/496 440/451/506
f 333/509/489 332/487/539 439/449/504 467/448/503
f 365/398/456 438/397/455 439/449/504 332/487/539
f 331/431/487 441/450/505 437/396/454 365/398/456
f 352/394/452 372/511/557 457/443/498 435/395/453
f 340/381/439 430/383/441 427/382/440
f 344/419/475 425/465/520 426/464/519 364/493/542
f 344/419/475 453/466/521 425/465/520
f 345/422/478 424/462/517 454/461/516 360/438/432
f 364/493/542 423/463/518 424/462/517 345/422/478
f 364/493/542 426/464/519 423/463/518
f 329/375/433 422/457/512 468/456/511
f 360/374/432 421/458/513 422/457/512 329/375/433
f 360/374/432 456/459/514 421/458/513
o cucumber.001
v -0.048105 0.077074 0.136796
v -0.045464 0.035449 0.129816
v -0.051505 0.042318 0.130650
v -0.057382 0.047422 0.131106
v -0.055759 0.052720 0.130805
v -0.003635 0.070109 0.144327
v -0.044965 0.052270 0.156433
v -0.018044 0.058801 0.168564
v -0.030405 0.065790 0.170352
v -0.027326 0.059517 0.170545
v -0.054326 0.069446 0.094231
v -0.038548 0.025076 0.102770
v -0.045199 0.082155 0.133445
v -0.032917 0.087778 0.135762
v -0.025080 0.088477 0.133288
v -0.012449 0.082775 0.130572
v 0.001432 0.055825 0.124881
v -0.003088 0.048297 0.139363
v -0.007732 0.034806 0.121869
v -0.014783 0.029775 0.123360
v -0.049989 0.038215 0.137250
v -0.028245 0.082990 0.153825
v -0.012888 0.080383 0.148864
v -0.004493 0.064664 0.152888
v -0.015935 0.043036 0.156853
v -0.027572 0.038486 0.152903
v -0.046278 0.044532 0.153708
v -0.024118 0.064854 0.170471
v -0.036125 0.061048 0.169000
v -0.034035 0.050854 0.165014
v -0.013992 0.072023 0.162683
v -0.029996 0.070368 0.169498
v -0.040413 0.077640 0.156543
v -0.038789 0.081013 0.101060
v 0.000304 0.034588 0.093242
v -0.021399 0.021334 0.103640
v -0.059087 0.039889 0.101667
v -0.053721 0.064268 0.139138
v -0.056456 0.067721 0.121129
v -0.028557 0.088395 0.115614
v 0.000346 0.065218 0.115861
v -0.028341 0.026224 0.119534
v -0.040011 0.037548 0.146277
v -0.018049 0.083794 0.094496
v -0.060992 0.055484 0.114671
v -0.004880 0.076102 0.143596
v -0.047589 0.079111 0.103951
v -0.047646 0.055444 0.157138
v -0.051174 0.071217 0.092402
v -0.002702 0.071566 0.132037
v -0.003936 0.071557 0.144150
v -0.042486 0.071280 0.156714
v -0.046773 0.071249 0.148225
v -0.019585 0.071445 0.165065
v -0.028264 0.071382 0.167408
v -0.011189 0.071505 0.157716
v -0.013304 0.071490 0.161973
v -0.035086 0.071333 0.163893
v -0.038776 0.071307 0.161298
v -0.031416 0.071360 0.167732
v -0.014760 0.071479 0.163274
v -0.002973 0.071564 0.121532
v -0.003973 0.071557 0.093940
v -0.050672 0.071221 0.137866
v -0.053348 0.071202 0.126959
v -0.052891 0.071205 0.104046
v -0.029857 0.071371 0.168253
v -0.051202 0.071164 0.092003
v -0.051179 0.071217 0.092003
v -0.049362 0.030776 0.091998
v -0.048818 0.030586 0.091996
v -0.049555 0.031402 0.091998
v -0.058078 0.036843 0.092022
v -0.058280 0.042107 0.092022
v -0.037293 0.023339 0.091965
v -0.040101 0.024799 0.091972
v -0.020463 0.020823 0.091918
v -0.023472 0.019566 0.091927
v 0.001040 0.062810 0.091859
v 0.001172 0.060964 0.091859
v -0.054692 0.068991 0.092013
v -0.054150 0.069356 0.092011
v 0.000174 0.034411 0.091862
v -0.005225 0.032679 0.091877
v -0.008830 0.029052 0.091887
v 0.002023 0.054266 0.091857
v 0.002398 0.050770 0.091856
v -0.000408 0.065462 0.091863
v -0.010596 0.076978 0.091891
v -0.013109 0.079623 0.091898
v -0.040556 0.080338 0.091974
v -0.036762 0.082298 0.091963
v -0.034431 0.084297 0.091957
v -0.048912 0.078633 0.091997
v -0.046836 0.078918 0.091991
v -0.057412 0.062282 0.092020
v -0.055361 0.066875 0.092014
v -0.061636 0.050919 0.092032
v -0.058311 0.055698 0.092022
v -0.017836 0.083510 0.091911
v -0.004108 0.071556 0.091874
v -0.003935 0.071368 0.091873
v -0.045752 0.028315 0.091988
v -0.028162 0.020765 0.091940
v -0.030538 0.022476 0.091946
v -0.018354 0.021748 0.091913
v 0.000300 0.034675 0.091861
v -0.017656 0.083236 0.091911
v -0.057313 0.045383 0.092020
v -0.052764 0.033446 0.092007
v -0.012420 0.026367 0.091896
v -0.033033 0.084910 0.091953
v -0.024419 0.083481 0.091929
v -0.018821 0.083298 0.091914
v -0.056218 0.057554 0.092017
v -0.006583 0.074253 0.091880
v -0.049463 0.075139 0.091998
v -0.018000 0.083655 0.091912
vn 0.9542 0.2035 0.2193
vn 0.9469 0.2454 0.2077
vn 0.9579 0.2856 0.0292
vn 0.9558 0.2916 0.0368
vn 0.9938 -0.0266 0.1075
vn 0.4777 -0.8452 0.2396
vn 0.0084 -0.8852 0.4652
vn -0.1344 -0.9564 0.2591
vn -0.9739 -0.1450 0.1745
vn -0.9809 -0.0150 0.1939
vn -0.9450 -0.3191 0.0720
vn -0.6238 0.6547 0.4269
vn -0.3377 0.9392 0.0628
vn -0.5983 0.7998 0.0492
vn 0.0143 0.9112 0.4116
vn 0.2414 0.9694 0.0439
vn 0.4638 0.8440 0.2694
vn 0.5708 0.8211 0.0046
vn 0.9353 0.0632 0.3482
vn 0.8828 -0.3768 0.2806
vn 0.4978 -0.7212 0.4818
vn 0.6482 -0.7323 0.2086
vn -0.7965 -0.4268 0.4284
vn -0.3774 -0.8909 0.2528
vn -0.3360 -0.8695 0.3621
vn -0.8292 -0.2438 0.5030
vn -0.8362 0.3291 0.4387
vn -0.9512 0.2170 0.2195
vn -0.8527 0.2476 0.4601
vn 0.2633 0.7027 0.6610
vn 0.2407 0.8192 0.5205
vn -0.2348 0.5327 0.8131
vn 0.6103 0.4486 0.6529
vn 0.8478 0.4503 0.2801
vn 0.8002 0.3637 0.4768
vn 0.7093 0.1917 0.6784
vn 0.6025 -0.1950 0.7739
vn -0.2557 -0.5955 0.7616
vn -0.6625 0.3176 0.6784
vn -0.6308 0.4082 0.6599
vn -0.5484 0.4860 0.6805
vn 0.5591 0.1892 0.8072
vn 0.2565 0.1599 0.9532
vn 0.0132 -0.3427 0.9393
vn -0.3011 0.1396 0.9433
vn -0.5555 0.0193 0.8313
vn -0.6987 -0.4305 0.5714
vn -0.6383 -0.4651 -0.6135
vn -0.7225 0.1541 -0.6739
vn -0.2017 -0.7537 -0.6254
vn -0.3718 -0.9139 0.1630
vn -0.3904 -0.6297 -0.6716
vn -0.6675 0.3911 -0.6337
vn -0.7168 0.6961 -0.0404
vn -0.3189 0.5870 -0.7441
vn 0.3951 -0.6590 -0.6400
vn 0.4987 -0.6137 -0.6121
vn 0.7235 0.1136 -0.6809
vn 0.7208 -0.0382 -0.6921
vn 0.4805 0.5026 -0.7186
vn 0.4845 0.5810 -0.6540
vn -0.2728 0.6681 -0.6923
vn -0.4333 0.9000 -0.0472
vn -0.4023 0.5898 -0.7002
vn -0.8147 -0.1462 -0.5612
vn -0.9882 0.1335 0.0744
vn -0.4817 0.4719 -0.7384
vn -0.8438 -0.4975 0.2013
vn -0.6286 -0.6442 0.4357
vn -0.8373 0.4359 0.3301
vn -0.8569 0.4968 0.1375
vn -0.8363 0.5329 0.1291
vn -0.6698 0.7425 -0.0111
vn -0.6326 0.7739 -0.0306
vn -0.0121 0.9966 -0.0816
vn 0.3681 0.9169 -0.1542
vn 0.1801 -0.9639 0.1961
vn 0.1025 0.7495 0.6540
vn -0.4412 -0.6122 -0.6562
vn -0.2806 -0.7212 -0.6334
vn -0.3172 -0.7272 -0.6087
vn 0.3793 -0.6547 -0.6538
vn 0.2960 -0.6997 -0.6502
vn 0.7288 -0.1636 -0.6649
vn 0.7488 -0.6561 0.0936
vn 0.4809 -0.5941 -0.6448
vn 0.7927 0.6001 -0.1077
vn 0.8365 0.5457 -0.0492
vn -0.6963 0.2538 -0.6714
vn -0.3849 -0.6565 -0.6487
vn -0.6657 -0.4707 -0.5791
vn 0.4410 -0.5553 -0.7051
vn 0.0577 0.6302 -0.7743
vn -0.0689 0.6743 -0.7352
vn -0.7579 0.0399 -0.6511
vn -0.7243 0.2257 -0.6515
vn -0.9661 0.2495 0.0663
vn -0.7759 0.6252 -0.0839
vn 0.5188 0.5734 -0.6340
vn 0.5183 0.4280 -0.7404
vn 0.6203 0.3944 -0.6780
vn -0.6192 0.5608 -0.5497
vn -0.6972 0.2430 -0.6744
vn 0.1846 0.7777 -0.6009
vn -0.1011 0.6987 -0.7083
vn 0.4608 0.4448 -0.7680
vn 0.5472 0.5017 -0.6700
vn 0.5601 0.4263 -0.7103
vn -0.7889 -0.0422 -0.6131
vn -0.1151 0.7261 -0.6778
vn -0.4555 0.5476 -0.7019
vn 0.0653 -0.8243 -0.5624
vn -0.3475 -0.6898 -0.6352
vn -0.6489 -0.5456 -0.5302
vn -0.5849 0.4513 -0.6740
vn -0.6793 0.2267 -0.6980
vn 0.7050 0.1838 -0.6849
vn 0.6909 0.1092 -0.7146
vt 0.887074 0.492709
vt 0.882804 0.496982
vt 0.854363 0.473377
vt 0.881257 0.476832
vt 0.290422 0.551330
vt 0.292798 0.579628
vt 0.247531 0.554361
vt 0.141664 0.593125
vt 0.137876 0.653916
vt 0.091156 0.628070
vt 0.378753 0.051006
vt 0.394869 0.062796
vt 0.352971 0.066324
vt 0.515944 0.089302
vt 0.567467 0.131512
vt 0.512678 0.131298
vt 0.574612 0.095276
vt 0.605051 0.130125
vt 0.985923 0.486506
vt 0.940016 0.481405
vt 0.996627 0.442628
vt 0.938330 0.451729
vt 0.272568 0.599051
vt 0.214124 0.581878
vt 0.173962 0.621436
vt 0.171601 0.579317
vt 0.739382 0.112441
vt 0.714069 0.135866
vt 0.703094 0.108922
vt 0.433448 0.036342
vt 0.480295 0.088088
vt 0.441355 0.086761
vt 0.492305 0.074127
vt 0.940873 0.527393
vt 0.964333 0.532793
vt 0.967073 0.538583
vt 0.926798 0.521381
vt 0.900474 0.479301
vt 0.914892 0.514778
vt 0.270927 0.644180
vt 0.275247 0.639055
vt 0.270799 0.647705
vt 0.227466 0.649456
vt 0.727233 0.057741
vt 0.689900 0.071883
vt 0.522894 0.049657
vt 0.506531 0.060711
vt 0.535649 0.041684
vt 0.929000 0.524730
vt 0.239012 0.683949
vt 0.213784 0.690285
vt 0.760757 0.014472
vt 0.767179 0.041114
vt 0.744248 0.015367
vt 0.760260 0.094952
vt 0.184068 0.691780
vt 0.755208 0.189463
vt 0.765181 0.183358
vt 0.765156 0.215180
vt 0.657371 0.157311
vt 0.666145 0.148876
vt 0.669546 0.161235
vt 0.446794 0.148361
vt 0.448940 0.146927
vt 0.449577 0.149487
vt 0.167302 0.551307
vt 0.152060 0.559107
vt 0.251391 0.517870
vt 0.236715 0.525558
vt 0.932859 0.413977
vt 0.919282 0.419052
vt 0.527452 0.173606
vt 0.535615 0.164568
vt 0.548391 0.176456
vt 0.375401 0.108549
vt 0.394659 0.094613
vt 0.395855 0.118329
vt 0.748698 0.142745
vt 0.730497 0.136582
vt 0.465449 0.105447
vt 0.485731 0.121176
vt 0.458798 0.118136
vt 0.457424 0.140989
vt 0.498933 0.155577
vt 0.591675 0.152059
vt 0.967445 0.407848
vt 0.992257 0.422813
vt 0.105291 0.590763
vt 0.658957 0.115191
vt 0.780268 0.151110
vt 0.112079 0.665577
vt 0.780034 0.105638
vt 0.968571 0.534446
vt 0.529002 0.014814
vt 0.544741 0.011903
vt 0.538760 0.034167
vt 0.536517 0.000158
vt 0.268389 0.650454
vt 0.541608 0.039022
vt 0.692866 0.170077
vt 0.078345 0.600031
vt 0.067161 0.606836
vt 0.112193 0.576516
vt 0.104048 0.579477
vt 0.182696 0.542304
vt 0.182393 0.543732
vt 0.181548 0.542827
vt 0.879669 0.429077
vt 0.879326 0.464475
vt 0.438969 0.144116
vt 0.726983 0.181502
vt 0.711134 0.175930
vt 0.136448 0.565583
vt 0.985628 0.398135
vt 0.970111 0.403896
vt 0.421236 0.135083
vt 0.405734 0.121993
vt 0.442834 0.116334
vt 0.464810 0.156346
vt 0.895529 0.422277
vt 0.878803 0.426986
vt 0.850889 0.444538
vt 0.491285 0.014401
vt 0.287234 0.615740
vt 0.955833 0.565540
vt 0.493620 0.166582
vt 0.482517 0.161896
vt 0.966680 0.405095
vt 0.601161 0.176336
vt 0.569566 0.178270
vt 0.879894 0.426679
vt 0.964078 0.406084
vt 0.965796 0.405378
vt 0.357397 0.091772
vt 0.501107 0.169485
vt 0.562200 0.178569
vt 0.093093 0.585509
vt 0.051222 0.606878
vt 0.706975 0.174998
vt 0.708552 0.175878
vt 0.464622 0.156662
vt 0.464859 0.156731
vt 0.840888 0.451044
vt 0.279928 0.522604
vt 0.288552 0.523644
vt 0.055624 0.615203
vt 0.351246 0.083604
s 1
usemtl Material.041
f 521/544/582 476/545/583 511/546/584 520/547/585
f 511/548/584 476/549/583 487/550/586
f 490/551/587 496/552/588 512/553/589
f 474/554/590 475/555/591 507/556/592
f 503/557/593 484/558/594 483/559/595
f 492/560/596 485/561/597 484/558/594
f 492/562/596 493/563/598 485/564/597
f 493/563/598 486/565/599 485/564/597
f 494/566/600 487/550/586 476/549/583
f 488/567/601 487/550/586 494/566/600
f 495/568/602 490/551/587 489/569/603
f 496/552/588 490/551/587 495/568/602
f 497/570/604 472/571/605 513/572/606
f 518/573/607 475/555/591 474/554/590
f 523/574/608 508/575/609 518/573/607 522/576/610
f 524/577/611 525/578/612 502/579/613
f 501/580/614 516/581/615 493/563/598
f 526/582/616 476/545/583 521/544/582
f 527/583/617 526/584/616 501/585/614
f 495/568/602 488/567/601 478/586/618
f 500/587/619 513/572/606 496/588/588
f 528/589/620 503/557/593 529/590/621
f 530/591/622 503/557/593 528/589/620
f 531/592/623 501/580/614 524/577/611
f 498/593/624 480/594/625 478/586/618
f 479/595/626 499/596/627 480/597/625
f 499/596/627 477/598/628 500/587/619
f 500/599/619 496/552/588 495/568/602
f 529/590/621 503/557/593 522/576/610
f 543/600/629 507/601/592 544/602/630
f 545/603/631 482/604/632 546/605/633
f 551/606/634 481/607/635 552/608/636
f 554/609/637 489/569/603 555/610/638
f 556/611/639 487/550/586 557/612/640
f 560/613/641 486/565/599 516/581/615 559/614/642
f 561/615/643 504/616/644 562/617/645
f 568/618/646 515/619/647 569/620/648
f 473/621/649 491/622/650 497/570/604 477/598/628
f 534/623/651 471/624/652 535/625/653
f 535/625/653 471/624/652 536/626/654
f 471/624/652 483/559/595 517/627/655
f 517/627/655 483/559/595 504/616/644
f 484/558/594 485/561/597 510/628/656
f 514/629/657 510/630/656 486/565/599
f 510/630/656 485/564/597 486/565/599
f 490/551/587 512/553/589 506/631/658
f 512/632/589 513/572/606 482/604/632
f 513/572/606 472/571/605 482/604/632
f 507/601/592 473/621/649 474/633/590
f 475/555/591 508/575/609 515/619/647
f 523/574/608 503/557/593 471/624/652 534/623/651
f 503/557/593 483/559/595 471/624/652
f 503/557/593 492/560/596 484/558/594
f 493/563/598 516/581/615 486/565/599
f 495/568/602 489/569/603 488/567/601
f 496/552/588 513/634/606 512/553/589
f 497/570/604 491/622/650 472/571/605
f 473/621/649 477/598/628 518/635/607 474/633/590
f 518/573/607 508/575/609 475/555/591
f 537/636/659 502/579/613 525/578/612
f 494/566/600 478/586/618 488/567/601
f 500/587/619 497/570/604 513/572/606
f 500/587/619 477/598/628 497/570/604
f 480/597/625 499/596/627 500/587/619
f 479/637/626 498/638/624 502/639/613
f 479/637/626 480/640/625 498/638/624
f 499/596/627 518/635/607 477/598/628
f 480/594/625 500/599/619 495/568/602
f 478/586/618 480/594/625 495/568/602
f 498/593/624 478/586/618 494/566/600
f 531/641/623 498/593/624 494/566/600 527/583/617
f 530/591/622 502/639/613 537/642/659
f 546/605/633 482/604/632 573/643/660
f 574/644/661 512/553/589 575/645/662
f 576/646/663 506/631/658 547/647/664
f 577/648/665 505/649/666 553/650/667
f 533/651/668 516/581/615 532/652/669
f 551/606/634 567/653/670 481/607/635
f 543/600/629 580/654/671 507/601/592
f 542/655/672 473/621/649 507/601/592 580/654/671
f 581/656/673 490/551/587 506/631/658 576/646/663
f 555/610/638 489/569/603 490/551/587 581/656/673
f 505/649/666 488/567/601 489/569/603
f 505/649/666 487/550/586 488/567/601
f 583/657/674 510/630/656 514/629/657 584/658/675
f 566/659/676 585/660/677 508/575/609 509/661/678
f 483/559/595 484/558/594 504/616/644
f 536/626/654 471/624/652 519/662/679
f 559/614/642 516/581/615 586/663/680
f 509/661/678 535/625/653 536/626/654 481/607/635
f 508/575/609 534/623/651 535/625/653 509/661/678
f 572/664/681 533/651/668 532/652/669 558/665/682
f 503/557/593 530/591/622 537/642/659 492/560/596
f 479/637/626 528/589/620 529/590/621 499/666/627
f 502/639/613 530/591/622 528/589/620 479/637/626
f 501/585/614 531/641/623 527/583/617
f 494/566/600 476/667/583 526/584/616 527/583/617
f 492/562/596 537/636/659 525/578/612 493/563/598
f 501/580/614 493/563/598 525/578/612 524/577/611
f 498/668/624 531/592/623 524/577/611 502/579/613
f 508/575/609 523/574/608 534/623/651
f 503/557/593 523/574/608 522/576/610
f 499/666/627 529/590/621 522/576/610 518/573/607
f 501/580/614 526/582/616 521/544/582 516/581/615
f 516/581/615 521/544/582 520/547/585
f 516/581/615 520/547/585 532/652/669
f 564/669/683 587/670/684 517/627/655
f 514/629/657 588/671/685 584/658/675
f 510/628/656 583/672/674 582/673/686
f 533/651/668 572/664/681 571/674/687
f 516/581/615 533/651/668 571/674/687 586/663/680
f 514/629/657 578/675/688 570/676/689
f 514/629/657 570/676/689 588/671/685
f 515/619/647 508/575/609 585/660/677 569/620/648
f 515/619/647 568/618/646 579/677/690 475/555/591
f 509/661/678 481/607/635 567/653/670 566/659/676
f 517/627/655 565/678/691 564/669/683
f 484/558/594 510/628/656 582/673/686 563/679/692
f 484/558/594 563/679/692 562/617/645 504/616/644
f 517/627/655 504/616/644 561/615/643 565/678/691
f 514/629/657 486/565/599 560/613/641 578/675/688
f 505/649/666 577/648/665 557/612/640 487/550/586
f 505/649/666 489/569/603 554/609/637 553/650/667
f 548/680/693 574/644/661 575/645/662 545/681/631 546/605/633 573/643/660 541/682/694 540/683/695 542/655/672 580/654/671 543/600/629 544/602/630 579/677/690 568/618/646 569/620/648 585/660/677 566/659/676 567/653/670 551/606/634 552/608/636 538/684/696 539/685/697 587/670/684 564/669/683 565/678/691 561/615/643 562/617/645 563/679/692 582/673/686 583/672/674 584/658/675 588/671/685 570/676/689 578/675/688 560/613/641 559/614/642 586/663/680 571/674/687 572/664/681 558/665/682 549/686/698 550/687/699 556/611/639 557/612/640 577/648/665 553/650/667 554/609/637 555/610/638 581/656/673 576/646/663 547/647/664
f 511/548/584 487/550/586 556/611/639 550/687/699
f 511/548/584 550/687/699 549/688/698
f 520/547/585 511/546/584 549/686/698 558/665/682 532/652/669
f 506/631/658 512/553/589 574/644/661 548/680/693
f 506/631/658 548/680/693 547/647/664
f 512/553/589 482/689/632 545/681/631 575/645/662
f 507/556/592 475/555/591 579/677/690 544/690/630
f 482/604/632 472/571/605 541/682/694 573/643/660
f 491/622/650 540/683/695 541/682/694 472/571/605
f 491/622/650 473/621/649 542/655/672 540/683/695
f 471/624/652 517/627/655 587/670/684 539/685/697 519/662/679
f 519/662/679 539/685/697 538/684/696
f 481/607/635 536/626/654 519/662/679 538/684/696 552/608/636
