# Blender 4.5.3 LTS
# www.blender.org
mtllib cucumber.mtl
o cucumber.002
v -0.059367 0.057974 -0.082595
v 0.005782 0.056265 -0.110820
v -0.007132 0.102347 -0.121574
v -0.004171 0.095471 -0.118213
v 0.002188 0.088381 -0.113924
v 0.005382 0.067665 -0.120263
v -0.055994 0.082287 -0.128336
v -0.014929 0.044912 -0.129573
v -0.059766 0.072170 -0.112359
v -0.050693 0.083665 -0.088492
v -0.042606 0.083134 -0.077597
v -0.039154 0.086487 -0.074561
v -0.027116 0.082748 -0.065006
v -0.003337 0.074793 -0.073676
v 0.002784 0.071019 -0.080527
v 0.003843 0.051908 -0.097358
v -0.002550 0.034329 -0.084163
v -0.058019 0.043842 -0.088874
v -0.057607 0.050225 -0.108945
v -0.048061 0.095434 -0.132703
v -0.011207 0.089831 -0.142473
v -0.015969 0.078677 -0.147255
v -0.032617 0.070707 -0.148144
v -0.045648 0.072632 -0.142644
v -0.037618 0.104992 -0.128798
v -0.061187 0.080753 -0.115327
v 0.006880 0.057975 -0.088821
v -0.005558 0.045575 -0.120645
v -0.034723 0.034948 -0.117017
v -0.045942 0.042727 -0.121211
v -0.057732 0.043054 -0.070378
v -0.056986 0.064215 -0.123480
v -0.032401 0.050137 -0.135678
v -0.029572 0.107024 -0.113017
v -0.017286 0.106247 -0.118679
v -0.051221 0.095057 -0.122790
v -0.039767 0.105519 -0.117660
v -0.000488 0.091179 -0.125167
v 0.002573 0.075011 -0.130396
v -0.051745 0.091688 -0.108150
v -0.056159 0.084578 -0.114642
v -0.054110 0.076864 -0.088051
v 0.003124 0.066131 -0.085093
v 0.003826 0.059864 -0.072457
v 0.002138 0.042087 -0.077089
v -0.058606 0.065392 -0.089473
v -0.016685 0.085879 -0.075679
v -0.015574 0.027437 -0.096266
v -0.035485 0.022322 -0.083107
v -0.042863 0.079358 -0.060779
v -0.053254 0.071046 -0.066847
v -0.024129 0.108461 -0.126241
v -0.035649 0.097122 -0.144106
v -0.033251 0.091968 -0.147841
v -0.006646 0.084478 -0.075407
v -0.013104 0.103684 -0.131361
v -0.032741 0.100388 -0.103541
v -0.048030 0.029288 -0.083415
v -0.008820 0.024019 -0.062354
v -0.061252 0.064310 -0.073945
v -0.030054 0.099644 -0.143806
v -0.001086 0.033377 -0.060017
v -0.008064 0.024691 -0.060017
v -0.008728 0.023973 -0.060017
v -0.008659 0.023439 -0.060017
v -0.032639 0.018239 -0.060017
v -0.037418 0.020194 -0.060017
v -0.044497 0.024101 -0.060017
v -0.053548 0.033655 -0.060017
v -0.057041 0.038826 -0.060017
v -0.057294 0.040635 -0.060017
v -0.058512 0.045170 -0.060017
v -0.059676 0.053103 -0.060017
v -0.022259 0.017976 -0.060017
v -0.022334 0.017969 -0.060017
v 0.003630 0.054534 -0.060017
v 0.003570 0.051584 -0.060017
v -0.001931 0.072294 -0.060017
v -0.000346 0.071126 -0.060017
v -0.036877 0.083883 -0.060017
v -0.029854 0.082532 -0.060017
v -0.061026 0.056791 -0.060017
v -0.059091 0.042763 -0.060017
v -0.009081 0.023613 -0.060017
v -0.021723 0.018200 -0.060017
v 0.001507 0.038269 -0.060017
v 0.003116 0.048771 -0.060017
v 0.005683 0.060786 -0.060017
v 0.000908 0.065156 -0.060017
v 0.001744 0.062501 -0.060017
v -0.006197 0.074013 -0.060017
v -0.015969 0.083326 -0.060017
v -0.022058 0.082151 -0.060017
v -0.027311 0.082437 -0.060017
v -0.059838 0.061607 -0.060017
v -0.058867 0.064573 -0.060017
v -0.051899 0.071109 -0.060017
v -0.053097 0.070189 -0.060017
v -0.042796 0.079311 -0.060017
v -0.042997 0.079258 -0.060017
v -0.042327 0.079553 -0.060017
v -0.024749 0.081917 -0.060017
v 0.002372 0.041191 -0.060017
v -0.048626 0.026858 -0.060017
v -0.000416 0.070162 -0.060017
v -0.007636 0.077771 -0.060017
v -0.011536 0.078268 -0.060017
v -0.059206 0.059772 -0.060017
v -0.043220 0.078909 -0.060017
vn 0.5575 0.4414 0.7031
vn 0.4580 0.3932 0.7973
vn 0.2919 0.5260 0.7988
vn 0.2785 0.7448 0.6064
vn -0.0403 0.6402 0.7672
vn 0.0445 0.6567 0.7528
vn 0.1297 0.6957 0.7065
vn 0.1114 0.6938 0.7115
vn -0.1751 0.7339 0.6563
vn -0.3719 0.5524 0.7460
vn -0.2065 0.6765 0.7069
vn -0.4883 0.5341 0.6901
vn -0.5080 0.5423 0.6692
vn -0.4065 0.5637 0.7190
vn -0.4204 0.5063 0.7530
vn -0.5826 0.3960 0.7097
vn -0.7513 -0.0274 0.6594
vn -0.7756 0.0912 0.6246
vn -0.7585 0.0343 0.6508
vn -0.7557 -0.1442 0.6388
vn -0.7975 -0.0045 0.6032
vn -0.8148 -0.1661 0.5554
vn -0.7489 -0.2715 0.6045
vn -0.7232 -0.2303 0.6511
vn -0.6210 -0.4392 0.6492
vn -0.5346 -0.5771 0.6174
vn -0.3951 -0.6299 0.6686
vn -0.3280 -0.6668 0.6692
vn -0.2228 -0.8018 0.5545
vn -0.0179 -0.8046 0.5935
vn 0.2034 -0.8130 0.5456
vn 0.2494 -0.7348 0.6308
vn -0.0299 -0.8445 0.5348
vn 0.3647 -0.7611 0.5364
vn 0.7606 -0.2684 0.5911
vn 0.5682 -0.4546 0.6859
vn 0.6131 -0.4132 0.6733
vn 0.6826 -0.2791 0.6754
vn 0.7065 -0.1294 0.6958
vn 0.6857 -0.0935 0.7218
vn 0.6966 -0.1002 0.7105
vn 0.7212 -0.1146 0.6832
vn 0.7992 0.3484 0.4899
vn 0.5933 0.4202 0.6866
vn 0.6124 0.1115 0.7826
vn 0.6895 0.0124 0.7242
vn 0.7057 0.2593 0.6594
vn 0.3917 0.5937 0.7029
vn 0.6339 -0.7638 -0.1217
vn 0.7918 -0.5924 -0.1488
vn -0.2689 -0.9391 -0.2139
vn -0.9736 -0.2151 -0.0759
vn -0.9919 -0.1230 -0.0305
vn -0.9517 -0.2646 -0.1554
vn 0.3667 -0.8871 -0.2802
vn 0.9546 -0.2916 -0.0614
vn 0.9063 -0.4207 -0.0398
vn 0.9808 0.1922 0.0319
vn 0.9654 0.2397 0.1023
vn 0.7345 0.6483 0.2004
vn 0.0796 0.9779 0.1935
vn -0.4899 0.8228 0.2881
vn -0.9290 0.3669 0.0486
vn -0.9607 0.2770 -0.0180
vn -0.7449 0.6564 0.1196
vn -0.9931 -0.1091 -0.0425
vn -0.9340 0.3556 -0.0352
vn -0.8463 0.4741 0.2428
vn -0.8226 0.5675 0.0349
vn -0.7434 0.6088 0.2770
vn -0.7943 0.5785 0.1854
vn -0.5324 0.8091 0.2489
vn -0.4835 0.8753 0.0105
vn 0.9939 -0.0113 -0.1093
vn 0.9120 0.4099 0.0147
vn 0.9830 0.1674 0.0749
vn 0.9769 -0.1640 -0.1367
vn 0.7275 -0.5810 -0.3649
vn 0.3632 -0.7038 -0.6105
vn -0.6760 -0.1388 -0.7237
vn -0.9282 -0.1981 -0.3150
vn -0.8769 0.3868 -0.2853
vn 0.8283 0.5322 -0.1753
vn -0.3227 0.9220 -0.2138
vn -0.1158 0.9757 0.1863
vn 0.0754 0.9881 -0.1344
vn -0.8020 0.5937 -0.0659
vn 0.4150 0.8727 -0.2572
vn 0.3338 0.9384 0.0894
vn 0.6984 0.7139 -0.0515
vn 0.6209 0.3950 -0.6771
vn 0.9511 0.1093 -0.2888
vn 0.4343 -0.0936 -0.8959
vn -0.1336 -0.3025 -0.9438
vn -0.1725 -0.6310 -0.7564
vn -0.7009 0.6374 -0.3202
vn -0.2047 -0.8744 -0.4398
vn -0.6090 -0.6684 -0.4270
vn -0.0694 0.8929 0.4449
vn 0.1991 0.9322 0.3023
vn 0.9935 -0.0940 0.0647
vn -0.9865 -0.1276 -0.1025
vn -0.2583 0.2816 -0.9241
vn -0.4648 0.6404 -0.6114
vn -0.0498 0.8008 -0.5969
vn -0.6139 0.7843 0.0896
vn 0.6989 0.6689 0.2531
vn 0.7986 0.5587 0.2237
vn -0.5995 -0.7756 -0.1974
vt 0.888405 0.236792
vt 0.901587 0.227005
vt 0.916649 0.226231
vt 0.942331 0.208975
vt 0.972765 0.222975
vt 0.600760 0.372120
vt 0.590475 0.375072
vt 0.578578 0.375131
vt 0.551471 0.382294
vt 0.513038 0.362553
vt 0.510320 0.361606
vt 0.509460 0.361667
vt 0.507579 0.360712
vt 0.452654 0.346251
vt 0.444290 0.345226
vt 0.411012 0.330509
vt 0.399524 0.323784
vt 0.394479 0.319088
vt 0.377731 0.311156
vt 0.361602 0.301064
vt 0.327105 0.282068
vt 0.317953 0.276253
vt 0.750671 0.377471
vt 0.749403 0.372958
vt 0.724499 0.359702
vt 0.689971 0.342583
vt 0.668572 0.335698
vt 0.004702 0.420400
vt 0.014629 0.429879
vt 0.060293 0.431775
vt 0.060607 0.431761
vt 0.062865 0.431123
vt 0.116013 0.415066
vt 0.117513 0.415626
vt 0.118010 0.414098
vt 0.121673 0.412654
vt 0.162063 0.391947
vt 0.184215 0.376489
vt 0.196043 0.368899
vt 0.226892 0.343033
vt 0.236195 0.333967
vt 0.247698 0.322470
vt 0.806427 0.267889
vt 0.822636 0.262934
vt 0.831204 0.252694
vt 0.848689 0.238914
vt 0.850996 0.237757
vt 0.860368 0.235504
vt 0.117510 0.411763
vt 0.155764 0.363915
vt 0.007936 0.390530
vt 0.761559 0.416502
vt 0.318689 0.307128
vt 0.317273 0.289800
vt 0.363923 0.370413
vt 0.092004 0.361959
vt 0.194002 0.346732
vt 0.213684 0.293883
vt 0.260561 0.288764
vt 0.843741 0.210906
vt 0.876176 0.212659
vt 0.591618 0.381900
vt 0.549888 0.412492
vt 0.407829 0.372117
vt 0.401941 0.346819
vt 0.445684 0.355808
vt 0.381404 0.340614
vt 0.443974 0.433456
vt 0.455170 0.398537
vt 0.461239 0.442234
vt 0.485385 0.417353
vt 0.486110 0.457656
vt 0.525682 0.402719
vt 0.529597 0.505297
vt 0.851090 0.159484
vt 0.883419 0.126317
vt 0.830492 0.210762
vt 0.246210 0.207248
vt 0.265660 0.251739
vt 0.227831 0.261314
vt 0.160790 0.280182
vt 0.105906 0.256178
vt 0.757717 0.600445
vt 0.782074 0.536145
vt 0.787151 0.594032
vt 0.267121 0.117171
vt 0.271771 0.148587
vt 0.526859 0.517769
vt 0.560091 0.520876
vt 0.565982 0.544404
vt 0.449729 0.453709
vt 0.487910 0.475243
vt 0.951334 0.073690
vt 0.971323 0.076358
vt 0.935473 0.087916
vt 0.219657 0.070901
vt 0.243509 0.161211
vt 0.173803 0.104236
vt 0.114678 0.116475
vt 0.056370 0.212656
vt 0.447956 0.490244
vt 0.488027 0.489872
vt 0.671337 0.524885
vt 0.649880 0.432518
vt 0.709070 0.460497
vt 0.026345 0.299494
vt 0.592278 0.509796
vt 0.552715 0.482384
vt 0.999497 0.113107
vt 0.947209 0.181889
vt 0.241972 0.274003
vt 0.637132 0.358510
vt 0.419845 0.413407
vt 0.267399 0.302016
vt 0.812215 0.254164
vt 0.733843 0.686991
vt 0.757848 0.670933
vt 0.893346 0.108346
vt 0.507711 0.532332
vt 0.714091 0.644083
vt 0.526829 0.548009
vt 0.135676 0.025774
vt 0.510014 0.362624
vt 0.908256 0.184632
vt 0.917418 0.105828
vt 0.764119 0.466998
vt 0.690403 0.373954
vt 0.403691 0.420875
vt 0.987829 0.057799
vt 0.992666 0.069859
vt 0.916686 0.068504
vt 0.978357 0.022676
vt 0.946388 0.035053
vt 0.151837 0.003737
vt 0.486151 0.533997
vt 0.986349 0.202077
vt 0.981400 0.219870
vt 0.312541 0.279447
vt 0.755469 0.394647
vt 0.638562 0.327235
s 1
usemtl Material.003
f 91/1/1 106/2/2 107/3/3 92/4/4 93/5/5 102/6/6 94/7/7 81/8/8 80/9/9 101/10/10 99/11/11 100/12/12 109/13/13 97/14/14 98/15/15 96/16/16 95/17/17 108/18/18 82/19/19 73/20/20 72/21/21 83/22/22 71/23/23 70/24/24 69/25/25 104/26/26 68/27/27 67/28/28 66/29/29 75/30/30 74/31/31 85/32/32 84/33/33 65/34/34 64/35/35 63/36/36 62/37/37 86/38/38 103/39/39 87/40/40 77/41/41 76/42/42 88/43/43 90/44/44 89/45/45 105/46/46 79/47/47 78/48/48
f 63/36/36 59/49/49 17/50/50 62/37/37
f 64/35/35 65/34/34 59/49/49
f 66/29/29 67/28/28 49/51/51
f 69/25/25 70/24/24 18/52/52
f 18/53/52 31/54/53 19/55/54
f 75/30/30 49/51/51 48/56/55 74/31/31
f 45/57/56 17/50/50 16/58/57
f 77/41/41 16/58/57 44/59/58 76/42/42
f 79/47/47 15/60/59 14/61/60 78/48/48
f 81/8/8 13/62/61 12/63/62 80/9/9
f 46/64/63 60/65/64 51/66/65
f 73/20/20 82/19/19 1/67/66
f 26/68/67 42/69/68 41/70/69
f 41/70/69 10/71/70 40/72/71
f 11/73/72 12/63/62 37/74/73
f 6/75/74 5/76/75 43/77/76
f 6/78/74 43/79/76 2/80/77
f 28/81/78 2/80/77 16/58/57
f 28/81/78 16/58/57 17/50/50
f 8/82/79 28/81/78 48/56/55
f 24/83/80 32/84/81 7/85/82
f 38/86/83 5/87/75 6/78/74
f 25/88/84 34/89/85 52/90/86
f 37/74/73 34/89/85 25/88/84
f 7/91/82 41/70/69 36/92/87
f 56/93/88 35/94/89 3/95/90
f 21/96/91 38/86/83 39/97/92
f 22/98/93 39/97/92 8/82/79
f 23/99/94 8/82/79 33/100/95
f 24/101/80 7/91/82 20/102/96
f 33/103/95 29/104/97 30/105/98
f 33/100/95 8/82/79 29/106/97
f 39/97/92 6/78/74 28/81/78
f 35/107/89 57/108/99 13/62/61
f 35/94/89 13/109/61 47/110/100
f 40/72/71 11/73/72 37/74/73
f 1/67/66 60/65/64 46/64/63
f 46/64/63 51/66/65 42/69/68
f 12/63/62 13/62/61 57/108/99
f 27/111/101 2/80/77 43/79/76
f 17/50/50 48/56/55 28/81/78
f 29/104/97 49/112/51 30/105/98
f 19/55/54 31/54/53 9/113/102
f 84/33/33 85/32/32 59/49/49
f 62/37/37 17/50/50 45/57/56 86/38/38
f 87/40/40 45/57/56 16/58/57 77/41/41
f 88/114/43 76/42/42 44/59/58
f 90/44/44 44/115/58 43/77/76 89/45/45
f 91/1/1 78/48/48 14/61/60
f 92/4/4 47/110/100 93/5/5
f 81/8/8 94/7/7 13/62/61
f 95/17/17 96/16/16 60/65/64
f 54/116/103 24/83/80 53/117/104
f 56/93/88 3/95/90 38/118/83
f 53/119/104 20/102/96 25/88/84
f 23/120/94 24/83/80 54/116/103
f 53/119/104 25/88/84 61/121/105
f 54/122/103 21/96/91 22/98/93
f 80/9/9 12/63/62 11/73/72 50/123/106 101/10/10
f 87/40/40 103/39/39 45/57/56
f 103/39/39 86/38/38 45/57/56
f 63/36/36 64/35/35 59/49/49
f 17/50/50 59/49/49 48/56/55
f 44/59/58 16/58/57 27/111/101
f 43/79/76 44/59/58 27/111/101
f 105/46/46 43/77/76 15/60/59 79/47/47
f 91/1/1 14/61/60 55/124/107 106/2/2
f 10/71/70 50/123/106 11/73/72
f 42/69/68 51/66/65 50/123/106
f 10/71/70 42/69/68 50/123/106
f 14/61/60 15/60/59 5/76/75 4/125/108
f 9/113/102 1/67/66 46/64/63
f 9/113/102 46/64/63 26/68/67
f 40/72/71 10/71/70 11/73/72
f 37/74/73 12/63/62 57/108/99
f 3/95/90 35/94/89 47/110/100
f 4/125/108 3/95/90 47/110/100
f 18/52/52 19/126/54 30/105/98 58/127/109
f 43/77/76 5/76/75 15/60/59
f 29/106/97 8/82/79 48/56/55
f 9/113/102 26/68/67 7/91/82 32/128/81
f 37/74/73 25/88/84 20/102/96 36/92/87
f 24/83/80 30/105/98 32/84/81
f 24/83/80 33/103/95 30/105/98
f 8/82/79 39/97/92 28/81/78
f 39/97/92 38/86/83 6/78/74
f 38/118/83 4/125/108 5/76/75
f 35/94/89 52/129/86 34/130/85
f 37/74/73 57/108/99 34/89/85
f 36/92/87 40/72/71 37/74/73
f 7/91/82 26/68/67 41/70/69
f 20/102/96 7/91/82 36/92/87
f 56/93/88 52/129/86 35/94/89
f 38/118/83 3/95/90 4/125/108
f 22/98/93 21/96/91 39/97/92
f 23/99/94 22/98/93 8/82/79
f 23/120/94 33/103/95 24/83/80
f 32/128/81 19/55/54 9/113/102
f 32/84/81 30/105/98 19/126/54
f 28/81/78 6/78/74 2/80/77
f 35/107/89 34/89/85 57/108/99
f 36/92/87 41/70/69 40/72/71
f 26/68/67 46/64/63 42/69/68
f 41/70/69 42/69/68 10/71/70
f 47/110/100 55/124/107 4/125/108
f 55/124/107 14/61/60 4/125/108
f 27/111/101 16/58/57 2/80/77
f 48/56/55 49/51/51 29/106/97
f 30/105/98 49/112/51 58/127/109
f 9/113/102 31/54/53 1/67/66
f 75/30/30 66/29/29 49/51/51
f 105/46/46 89/45/45 43/77/76
f 90/44/44 88/43/43 44/115/58
f 92/4/4 107/3/3 47/110/100
f 53/119/104 24/101/80 20/102/96
f 21/131/91 56/93/88 38/118/83
f 56/93/88 61/132/105 52/129/86
f 61/121/105 25/88/84 52/90/86
f 54/122/103 22/98/93 23/99/94
f 21/133/91 61/132/105 56/93/88
f 54/122/103 61/134/105 21/96/91
f 54/135/103 53/119/104 61/121/105
f 47/110/100 107/3/3 106/2/2 55/124/107
f 50/123/106 109/13/13 100/12/12
f 50/123/106 100/12/12 99/11/11
f 50/123/106 99/11/11 101/10/10
f 51/66/65 98/15/15 97/14/14
f 51/66/65 97/14/14 109/13/13 50/123/106
f 60/65/64 96/16/16 98/15/15 51/66/65
f 60/65/64 1/67/66 108/18/18 95/17/17
f 13/62/61 94/7/7 102/6/6
f 13/136/61 102/137/6 93/5/5 47/110/100
f 1/67/66 82/19/19 108/18/18
f 59/49/49 85/32/32 74/31/31 48/56/55
f 31/54/53 72/21/21 73/20/20 1/67/66
f 31/54/53 83/22/22 72/21/21
f 31/54/53 71/138/23 83/22/22
f 18/52/52 70/24/24 71/23/23 31/139/53
f 58/127/109 104/26/26 69/25/25 18/52/52
f 58/127/109 68/27/27 104/26/26
f 49/112/51 67/140/28 68/27/27 58/127/109
f 59/49/49 65/34/34 84/33/33
o cucumber.003
v -0.048105 0.077074 0.136796
v -0.045464 0.035449 0.129816
v -0.051505 0.042318 0.130650
v -0.057382 0.047422 0.131106
v -0.055759 0.052720 0.130805
v -0.003635 0.070109 0.144327
v -0.044965 0.052270 0.156433
v -0.018044 0.058801 0.168564
v -0.030405 0.065790 0.170352
v -0.027326 0.059517 0.170545
v -0.061976 0.048506 0.080064
v -0.054326 0.069446 0.094231
v 0.003411 0.045470 0.057236
v -0.049288 0.029904 0.086696
v -0.038548 0.025076 0.102770
v -0.059158 0.060306 -0.053313
v -0.049316 0.071230 -0.046995
v -0.046450 0.076691 -0.040367
v -0.014963 0.079739 -0.038011
v -0.008274 0.073446 -0.050095
v -0.001292 0.071159 -0.053815
v 0.003519 0.051523 -0.052990
v -0.057916 0.054109 0.003348
v -0.048788 0.068772 0.021139
v -0.046973 0.071870 -0.008311
v -0.039292 0.076833 -0.019892
v -0.028723 0.080182 -0.023815
v -0.020596 0.080118 -0.002931
v -0.009769 0.078099 -0.019870
v -0.008355 0.074392 0.001156
v -0.001394 0.063671 -0.015420
v 0.005880 0.055217 -0.018565
v 0.003070 0.038521 -0.009112
v -0.006336 0.022778 0.000588
v -0.012061 0.018979 -0.033347
v -0.022485 0.014884 0.004619
v -0.024140 0.011674 -0.012807
v -0.030298 0.014881 -0.041023
v -0.039943 0.017414 -0.029854
v -0.056012 0.033554 -0.029684
v -0.058665 0.051102 0.035781
v -0.061498 0.060535 0.050813
v -0.045300 0.078525 0.067587
v -0.044017 0.077635 0.049316
v -0.030504 0.080407 0.065716
v -0.022352 0.081026 0.080096
v 0.006069 0.039237 0.038447
v -0.010006 0.022885 0.059756
v -0.015925 0.018345 0.035068
v -0.027997 0.015706 0.066363
v -0.033284 0.017792 0.057462
v -0.054337 0.025545 0.056241
v -0.059935 0.049028 -0.041125
v -0.045199 0.082155 0.133445
v -0.032917 0.087778 0.135762
v -0.025080 0.088477 0.133288
v -0.012449 0.082775 0.130572
v 0.001432 0.055825 0.124881
v -0.003088 0.048297 0.139363
v -0.007732 0.034806 0.121869
v -0.014783 0.029775 0.123360
v -0.049989 0.038215 0.137250
v -0.028245 0.082990 0.153825
v -0.012888 0.080383 0.148864
v -0.004493 0.064664 0.152888
v -0.015935 0.043036 0.156853
v -0.027572 0.038486 0.152903
v -0.046278 0.044532 0.153708
v -0.024118 0.064854 0.170471
v -0.036125 0.061048 0.169000
v -0.034035 0.050854 0.165014
v -0.013992 0.072023 0.162683
v -0.029996 0.070368 0.169498
v -0.040413 0.077640 0.156543
v -0.028852 0.080866 0.027824
v -0.021840 0.078868 0.027010
v -0.008729 0.071921 0.026680
v -0.002589 0.064627 0.018228
v 0.006871 0.060148 0.039893
v -0.008420 0.018269 0.029126
v -0.042687 0.073599 -0.003987
v -0.048984 0.073394 0.009472
v -0.052204 0.065306 -0.021114
v -0.057567 0.061399 0.087292
v -0.052573 0.068547 0.072160
v -0.038789 0.081013 0.101060
v -0.034744 0.083578 0.082906
v 0.000304 0.034588 0.093242
v -0.021399 0.021334 0.103640
v -0.059087 0.039889 0.101667
v -0.057626 0.043905 0.084206
v -0.056865 0.055814 0.079801
v -0.053721 0.064268 0.139138
v -0.056456 0.067721 0.121129
v -0.028557 0.088395 0.115614
v 0.000346 0.065218 0.115861
v -0.028341 0.026224 0.119534
v -0.040011 0.037548 0.146277
v -0.018049 0.083794 0.094496
v -0.060992 0.055484 0.114671
v -0.062558 0.055698 -0.039175
v -0.018673 0.077087 -0.022501
v -0.003247 0.069827 -0.000756
v 0.000525 0.032330 -0.033461
v -0.007343 0.018694 -0.040901
v -0.026500 0.012157 -0.044022
v -0.062230 0.042091 -0.036083
v -0.035318 0.082101 -0.050062
v 0.007916 0.061896 -0.045055
v -0.023187 0.081368 -0.056726
v -0.034939 0.076497 0.014829
v -0.016499 0.079373 0.012558
v 0.004770 0.056532 0.014505
v -0.057447 0.040190 0.002557
v -0.051254 0.077787 0.070840
v -0.013567 0.077433 0.065018
v -0.004880 0.076102 0.143596
v 0.001769 0.060283 0.066681
v 0.002945 0.051836 0.040356
v -0.061600 0.047035 0.036494
v -0.033871 0.081583 0.050734
v 0.000229 0.036211 0.067558
v -0.002682 0.030521 0.061455
v -0.047546 0.023469 0.040227
v -0.052253 0.028751 0.028668
v -0.000027 0.064745 -0.049431
v -0.047589 0.079111 0.103951
v -0.047646 0.055444 0.157138
v -0.049321 0.024026 -0.032740
v -0.030978 0.077195 -0.013563
v -0.052767 0.065829 0.037459
v -0.011401 0.074951 0.013942
v -0.000900 0.033256 -0.056949
v -0.007072 0.025574 -0.056949
v -0.008607 0.023912 -0.056949
v -0.008448 0.022677 -0.056949
v -0.023065 0.016868 -0.056949
v -0.023537 0.017468 -0.056949
v -0.032261 0.017697 -0.056949
v -0.037675 0.019911 -0.056949
v -0.044034 0.023421 -0.056949
v -0.053072 0.032572 -0.056949
v -0.056937 0.038293 -0.056949
v -0.057164 0.039919 -0.056949
v -0.058743 0.045796 -0.056949
v -0.059718 0.052442 -0.056949
v 0.003581 0.053219 -0.056949
v 0.003548 0.051557 -0.056949
v -0.001615 0.071732 -0.056949
v -0.000814 0.071143 -0.056949
v -0.036396 0.083334 -0.056949
v -0.031538 0.082399 -0.056949
v -0.061252 0.056630 -0.056949
v -0.022287 0.017809 -0.056949
v -0.021136 0.018065 -0.056949
v -0.059493 0.042677 -0.056949
v -0.009424 0.023080 -0.056949
v 0.001393 0.037583 -0.056949
v 0.003292 0.049973 -0.056949
v 0.006141 0.061014 -0.056949
v 0.000637 0.065037 -0.056949
v 0.001231 0.063151 -0.056949
v -0.006839 0.073838 -0.056949
v -0.015829 0.082826 -0.056949
v -0.023110 0.081421 -0.056949
v -0.027430 0.082246 -0.056949
v -0.059527 0.061012 -0.056949
v -0.058341 0.064630 -0.056949
v -0.051291 0.071138 -0.056949
v -0.053027 0.069804 -0.056949
v -0.042529 0.079121 -0.056949
v -0.043536 0.078858 -0.056949
v -0.040167 0.080338 -0.056949
v -0.023293 0.081405 -0.056949
v 0.002414 0.041030 -0.056949
v -0.048704 0.026540 -0.056949
v -0.000849 0.070655 -0.056949
v -0.007833 0.076433 -0.056949
v -0.010527 0.076777 -0.056949
v -0.059184 0.060016 -0.056949
v -0.044656 0.077100 -0.056949
vn -0.8297 0.5432 0.1287
vn -0.6570 0.7539 -0.0070
vn -0.8066 0.5904 -0.0291
vn 0.8170 0.5661 0.1098
vn 0.9469 0.2454 0.2077
vn 0.9579 0.2856 0.0292
vn 0.9938 -0.0295 0.1068
vn 0.4777 -0.8452 0.2396
vn 0.0084 -0.8852 0.4652
vn -0.1344 -0.9564 0.2591
vn -0.7354 -0.6426 0.2151
vn -0.5031 -0.8509 0.1514
vn -0.4010 -0.8887 0.2224
vn -0.8394 -0.4922 0.2307
vn -0.9739 -0.1450 0.1745
vn -0.9809 -0.0150 0.1939
vn -0.9450 -0.3191 0.0720
vn -0.6238 0.6547 0.4269
vn -0.3377 0.9392 0.0628
vn -0.5983 0.7998 0.0492
vn 0.0143 0.9113 0.4116
vn 0.2414 0.9694 0.0439
vn 0.4638 0.8440 0.2694
vn 0.5708 0.8211 0.0046
vn 0.9353 0.0632 0.3482
vn 0.8828 -0.3768 0.2806
vn 0.4978 -0.7212 0.4817
vn 0.6482 -0.7323 0.2086
vn -0.7965 -0.4268 0.4284
vn -0.3360 -0.8695 0.3621
vn -0.8292 -0.2438 0.5030
vn -0.9511 0.2172 0.2194
vn 0.5906 0.4856 0.6445
vn -0.2348 0.5327 0.8131
vn 0.6025 -0.1950 0.7739
vn -0.2557 -0.5955 0.7616
vn -0.3102 0.1923 0.9310
vn -0.5727 -0.0323 0.8191
vn 0.3152 0.1918 0.9294
vn 0.0132 -0.3427 0.9393
vn -0.6987 -0.4305 0.5714
vn -0.9621 -0.2717 0.0216
vn -0.9928 0.1140 -0.0377
vn -0.9802 0.1981 -0.0029
vn -0.9962 -0.0874 -0.0058
vn -0.7028 -0.7104 -0.0375
vn -0.8770 -0.4800 -0.0218
vn -0.8511 -0.5249 -0.0096
vn -0.4235 -0.9054 -0.0289
vn -0.4686 -0.8827 0.0361
vn 0.1516 -0.9882 0.0240
vn -0.3692 -0.9266 -0.0706
vn -0.0780 -0.9916 0.1034
vn 0.2718 -0.9608 0.0553
vn 0.2193 -0.9750 -0.0367
vn 0.4998 -0.8642 0.0571
vn 0.8051 -0.5930 -0.0089
vn 0.7904 -0.6107 0.0487
vn 0.8681 -0.4955 -0.0280
vn 0.9793 0.2005 -0.0264
vn 0.9968 -0.0738 0.0317
vn 0.8683 0.4932 0.0537
vn 0.7690 0.6393 -0.0035
vn 0.8555 0.5152 0.0520
vn -0.3375 0.9395 -0.0583
vn -0.1064 0.9940 -0.0246
vn -0.5026 0.8638 0.0340
vn -0.2061 0.9764 0.0645
vn -0.3262 0.9453 0.0036
vn -0.3086 0.9466 0.0935
vn -0.8272 0.5617 -0.0123
vn -0.8686 0.4911 -0.0663
vn -0.6825 0.7308 -0.0060
vn -0.7727 0.6308 -0.0709
vn -0.8037 0.5929 0.0507
vn -0.6561 -0.7536 0.0412
vn -0.9578 -0.2869 0.0174
vn -0.3670 -0.9277 0.0689
vn -0.3718 -0.9139 0.1630
vn 0.2275 -0.9554 0.1884
vn -0.1592 -0.9827 0.0945
vn 0.9949 -0.0964 0.0288
vn 0.9559 0.2916 0.0346
vn 0.9502 0.3110 0.0184
vn 0.7125 0.7012 -0.0280
vn 0.7146 0.6993 0.0152
vn 0.6453 0.7626 0.0455
vn -0.1960 0.9777 -0.0759
vn 0.2327 0.9701 -0.0692
vn -0.1004 0.9928 -0.0656
vn -0.5201 0.8511 -0.0714
vn -0.6798 0.7284 -0.0858
vn -0.4019 0.9121 -0.0806
vn -0.9642 0.2644 -0.0199
vn -0.7168 0.6961 -0.0404
vn 0.7860 -0.6102 0.0990
vn 0.5395 -0.8329 0.1233
vn 0.9980 0.0542 0.0325
vn -0.4333 0.9000 -0.0472
vn -0.9656 0.2508 0.0692
vn -0.9963 -0.0483 0.0715
vn -0.9882 -0.1506 0.0264
vn -0.9882 0.1339 0.0743
vn -0.9799 0.1990 0.0136
vn 0.3084 0.9513 0.0030
vn 0.2984 0.9504 0.0874
vn 0.0362 0.9926 0.1162
vn 0.7739 0.6265 0.0927
vn 0.6211 0.7814 0.0603
vn 0.9120 0.4091 -0.0295
vn 0.8346 0.5498 0.0332
vn 0.9773 -0.2114 -0.0169
vn -0.3299 -0.5938 -0.7339
vn -0.3865 -0.5770 -0.7195
vn -0.6985 -0.1774 -0.6933
vn -0.6359 -0.3204 -0.7022
vn -0.7240 0.0302 -0.6891
vn -0.7045 -0.1660 -0.6900
vn -0.9776 0.1689 0.1257
vn -0.9149 0.3993 0.0587
vn -0.7648 0.6404 0.0706
vn -0.6934 0.7204 0.0157
vn -0.2344 0.9681 0.0887
vn 0.1792 0.9837 -0.0134
vn 0.6383 0.7697 -0.0063
vn 0.9753 -0.2208 -0.0047
vn 0.0414 0.7701 -0.6366
vn -0.1402 0.7982 -0.5859
vn 0.2944 0.8086 -0.5094
vn 0.4729 0.7515 -0.4599
vn 0.4186 0.6990 -0.5798
vn 0.5663 0.6690 -0.4813
vn 0.3616 0.7155 -0.5977
vn 0.7118 0.4335 -0.5526
vn 0.7936 0.1237 -0.5958
vn 0.7023 0.2781 -0.6553
vn 0.4734 0.5869 -0.6568
vn 0.7252 0.3330 -0.6026
vn 0.6975 -0.0967 -0.7100
vn 0.7468 -0.0243 -0.6646
vn 0.6838 -0.0750 -0.7258
vn 0.6859 -0.1284 -0.7163
vn 0.6461 -0.2534 -0.7199
vn 0.6112 -0.3698 -0.6997
vn 0.4893 -0.4646 -0.7380
vn 0.7107 -0.2080 -0.6720
vn 0.5324 -0.4892 -0.6908
vn 0.0019 -0.6562 -0.7546
vn 0.2266 -0.7146 -0.6619
vn 0.4606 -0.5955 -0.6582
vn 0.0706 -0.7357 -0.6736
vn -0.3209 -0.5861 -0.7440
vn -0.0833 -0.6618 -0.7451
vn -0.4908 -0.5404 -0.6834
vn -0.5300 -0.4395 -0.7252
vn -0.7411 -0.1783 -0.6473
vn -0.7237 0.1172 -0.6801
vn -0.7577 0.0992 -0.6451
vn -0.8055 0.0061 -0.5925
vn -0.6880 0.3945 -0.6091
vn -0.4704 0.5463 -0.6930
vn -0.4987 0.5307 -0.6853
vn -0.6161 0.3697 -0.6955
vn -0.3927 0.5933 -0.7027
vn -0.3237 0.6673 -0.6708
vn -0.4355 0.6164 -0.6561
vn -0.2432 0.8460 -0.4745
vn 0.0622 0.7823 -0.6198
vn 0.0631 0.7710 -0.6338
vn -0.9932 -0.1163 0.0040
vn -0.0517 0.9986 -0.0140
vn 0.3335 0.9395 -0.0777
vn 0.2538 0.9672 -0.0062
vn -0.9954 0.0723 -0.0626
vn -0.0119 0.9967 -0.0809
vn 0.6932 0.7185 0.0564
vn 0.9318 -0.3620 0.0281
vn 0.9618 -0.2732 0.0151
vn -0.0706 0.9914 -0.1105
vn 0.5303 -0.7893 -0.3094
vn 0.1679 -0.9690 -0.1814
vt 0.485731 0.121176
vt 0.498933 0.155577
vt 0.455271 0.172382
vt 0.900474 0.479301
vt 0.882804 0.496982
vt 0.854363 0.473377
vt 0.290422 0.551330
vt 0.292798 0.579628
vt 0.247531 0.554361
vt 0.141664 0.593125
vt 0.137876 0.653916
vt 0.091156 0.628070
vt 0.730497 0.136582
vt 0.705981 0.180482
vt 0.714069 0.135866
vt 0.748698 0.142745
vt 0.378753 0.051006
vt 0.394869 0.062796
vt 0.352971 0.066324
vt 0.515944 0.089302
vt 0.567467 0.131512
vt 0.512678 0.131298
vt 0.574612 0.095276
vt 0.605051 0.130125
vt 0.985923 0.486506
vt 0.940016 0.481405
vt 0.996627 0.442628
vt 0.938330 0.451729
vt 0.272568 0.599051
vt 0.214124 0.581878
vt 0.173962 0.621436
vt 0.171601 0.579317
vt 0.739382 0.112441
vt 0.703094 0.108922
vt 0.433448 0.036342
vt 0.441355 0.086761
vt 0.926798 0.521381
vt 0.967073 0.538583
vt 0.287234 0.615740
vt 0.270799 0.647705
vt 0.227466 0.649456
vt 0.727233 0.057741
vt 0.689900 0.071883
vt 0.529002 0.014814
vt 0.491285 0.014401
vt 0.538760 0.034167
vt 0.955833 0.565540
vt 0.239012 0.683949
vt 0.213784 0.690285
vt 0.760757 0.014472
vt 0.767179 0.041114
vt 0.744248 0.015367
vt 0.760260 0.094952
vt 0.184068 0.691780
vt 0.320286 0.186606
vt 0.375960 0.169162
vt 0.382663 0.221885
vt 0.345033 0.267969
vt 0.689467 0.306011
vt 0.718841 0.245552
vt 0.736625 0.327185
vt 0.640429 0.286380
vt 0.685844 0.220466
vt 0.061372 0.504592
vt 0.020135 0.462248
vt 0.050145 0.492649
vt 0.098017 0.524741
vt 0.098928 0.452764
vt 0.120853 0.510577
vt 0.130982 0.474652
vt 0.162942 0.522897
vt 0.168990 0.422778
vt 0.799329 0.371247
vt 0.794356 0.327585
vt 0.830580 0.312671
vt 0.847948 0.352499
vt 0.865390 0.310276
vt 0.549134 0.263316
vt 0.585162 0.254344
vt 0.566746 0.302004
vt 0.582183 0.325521
vt 0.508033 0.281232
vt 0.526449 0.307966
vt 0.468259 0.238464
vt 0.478233 0.258061
vt 0.487010 0.284590
vt 0.440590 0.207881
vt 0.436349 0.284951
vt 0.718211 0.212109
vt 0.765181 0.183358
vt 0.765136 0.240970
vt 0.629354 0.184245
vt 0.666145 0.148876
vt 0.105291 0.590763
vt 0.066471 0.574043
vt 0.257410 0.460964
vt 0.286591 0.494601
vt 0.296846 0.453001
vt 0.929057 0.387737
vt 0.889295 0.350385
vt 0.916063 0.330858
vt 0.561112 0.188292
vt 0.586553 0.205818
vt 0.561559 0.226934
vt 0.511472 0.230895
vt 0.484217 0.186059
vt 0.505543 0.197863
vt 0.406948 0.175000
vt 0.448940 0.146927
vt 0.182393 0.543732
vt 0.131120 0.537449
vt 0.225377 0.495365
vt 0.826752 0.427616
vt 0.535615 0.164568
vt 0.442834 0.116334
vt 0.417728 0.138128
vt 0.365221 0.115916
vt 0.394659 0.094613
vt 0.396500 0.131127
vt 0.955627 0.278139
vt 0.935477 0.247034
vt 0.978135 0.231609
vt 0.853190 0.245877
vt 0.897288 0.254324
vt 0.799465 0.284397
vt 0.831505 0.270397
vt 0.263798 0.377278
vt 0.240431 0.341511
vt 0.275624 0.317956
vt 0.638752 0.323080
vt 0.665710 0.330682
vt 0.748111 0.368328
vt 0.749251 0.372385
vt 0.330016 0.279778
vt 0.358912 0.295689
vt 0.374340 0.283963
vt 0.398361 0.312696
vt 0.465944 0.328030
vt 0.495157 0.336975
vt 0.552555 0.361624
vt 0.969431 0.296186
vt 0.913912 0.275068
vt 0.202127 0.434996
vt 0.606382 0.366106
vt 0.977771 0.231023
vt 0.941375 0.214281
vt 0.910663 0.234918
vt 0.900258 0.235452
vt 0.891151 0.242213
vt 0.856817 0.240635
vt 0.852081 0.241774
vt 0.850915 0.242358
vt 0.831291 0.257825
vt 0.825207 0.265097
vt 0.269086 0.305285
vt 0.244525 0.330783
vt 0.238044 0.337261
vt 0.232803 0.342369
vt 0.196409 0.372882
vt 0.182456 0.381837
vt 0.162863 0.395509
vt 0.127140 0.413823
vt 0.118667 0.417163
vt 0.117518 0.420699
vt 0.114048 0.419403
vt 0.064810 0.434278
vt 0.060559 0.435294
vt 0.056267 0.437734
vt 0.054177 0.436712
vt 0.015518 0.435107
vt 0.689914 0.338470
vt 0.720559 0.353663
vt 0.311140 0.276382
vt 0.318154 0.272241
vt 0.377232 0.307153
vt 0.396255 0.316163
vt 0.398992 0.318710
vt 0.413010 0.326916
vt 0.443664 0.340473
vt 0.455785 0.341959
vt 0.497770 0.353012
vt 0.507227 0.357812
vt 0.511553 0.357504
vt 0.525216 0.362267
vt 0.551805 0.375924
vt 0.570558 0.370969
vt 0.589773 0.370873
vt 0.755265 0.300288
vt 0.758206 0.336166
vt 0.610763 0.257515
vt 0.967445 0.407848
vt 0.943205 0.320552
vt 0.805281 0.399868
vt 0.279111 0.420770
vt 0.037167 0.580294
vt 0.613812 0.263517
vt 0.353846 0.158321
vt 0.319524 0.244958
vt 0.591675 0.152059
vt 0.992257 0.422813
vt 0.658957 0.115191
vt 0.780268 0.151110
vt 0.112079 0.665577
vt 0.780034 0.105638
vt 0.896231 0.310449
vt 0.544741 0.011903
vt 0.536517 0.000158
vt 0.188030 0.517156
vt 0.207797 0.483516
vt 0.972470 0.329048
vt 0.610253 0.298926
vt 0.349848 0.097609
vt 0.055624 0.615203
vt 0.605900 0.188465
vt 0.982316 0.385806
vt 0.606791 0.365668
vt 0.117541 0.447232
vt 0.298688 0.249138
vt 0.978356 0.230813
vt 0.037740 0.462911
vt 0.985963 0.359267
vt 0.804999 0.271274
vt 0.000478 0.459421
vt 0.004273 0.424369
s 1
usemtl Material.003
f 110/141/110 236/142/111 194/143/112
f 226/144/113 115/145/114 205/146/115
f 205/147/115 115/148/114 167/149/116
f 170/150/117 176/151/118 206/152/119
f 171/153/120 123/154/121 111/155/122
f 171/153/120 112/156/123 123/154/121
f 113/157/124 114/158/125 199/159/126
f 183/160/127 164/161/128 163/162/129
f 172/163/130 165/164/131 164/161/128
f 172/165/130 173/166/132 165/167/131
f 173/166/132 166/168/133 165/167/131
f 174/169/134 167/149/116 115/148/114
f 168/170/135 167/149/116 174/169/134
f 175/171/136 170/150/117 169/172/137
f 176/151/118 170/150/117 175/171/136
f 177/173/138 111/155/122 207/174/139
f 237/175/140 114/158/125 113/157/124
f 183/160/127 202/176/141 237/175/140
f 181/177/142 173/166/132 182/178/143
f 181/177/142 226/144/113 173/166/132
f 181/177/142 115/145/114 226/144/113
f 174/169/134 115/179/114 181/180/142
f 175/171/136 168/170/135 117/181/144
f 180/182/145 207/174/139 176/183/118
f 118/184/146 183/160/127 179/185/147
f 182/186/143 183/160/127 118/184/146
f 178/187/148 181/177/142 182/178/143
f 178/188/148 119/189/149 117/181/144
f 118/190/146 179/191/147 119/192/149
f 179/191/147 116/193/150 180/182/145
f 180/194/145 176/151/118 175/171/136
f 179/185/147 183/160/127 237/175/140
f 223/195/151 150/196/152 132/197/153
f 223/195/151 132/197/153 162/198/154
f 238/199/155 234/200/156 149/201/157
f 148/202/158 233/203/159 238/199/155
f 145/204/160 147/205/161 146/206/162
f 158/207/163 145/204/160 144/208/164
f 189/209/165 144/208/164 143/210/166
f 232/211/167 143/210/166 213/212/168
f 222/213/169 141/214/170 140/215/171
f 187/216/172 140/215/171 212/217/173
f 220/218/174 184/219/175 239/220/176
f 239/220/176 184/219/175 136/221/177
f 190/222/178 220/218/174 135/223/179
f 133/224/180 191/225/181 134/226/182
f 132/197/153 240/227/183 192/228/184
f 161/229/185 199/230/126 200/231/186
f 233/203/159 123/154/121 161/229/185
f 160/232/187 124/233/188 233/203/159
f 198/234/189 159/235/190 158/207/163
f 205/147/115 228/236/191 227/237/192
f 227/237/192 228/236/191 188/238/193
f 225/239/194 186/240/195 241/241/196
f 196/242/197 154/243/198 230/244/199
f 153/245/200 196/242/197 230/244/199
f 240/227/183 224/246/201 152/247/202
f 151/248/203 121/249/204 194/143/112
f 197/250/205 169/172/137 232/211/167
f 232/211/167 169/172/137 157/251/206
f 205/147/115 167/149/116 228/236/191
f 228/236/191 167/149/116 122/252/207
f 226/144/113 205/146/115 227/253/192
f 225/239/194 166/168/133 226/144/113
f 152/247/202 195/254/208 196/242/197
f 164/161/128 196/242/197 195/254/208
f 236/142/111 152/247/202 224/246/201
f 203/255/209 121/249/204 193/256/210
f 120/257/211 209/258/212 201/259/213
f 211/260/214 128/261/215 219/262/216
f 212/217/173 130/263/217 129/264/218
f 140/215/171 218/265/219 235/266/220
f 141/267/170 131/268/221 218/269/219
f 249/270/222 148/202/158 250/271/223
f 252/272/224 149/201/157 253/273/225
f 254/274/226 162/198/154 255/275/227
f 162/198/154 132/197/153 210/276/228
f 210/276/228 132/197/153 125/277/229
f 126/278/230 134/226/182 127/279/231
f 135/223/179 239/220/176 217/280/232
f 137/281/233 211/260/214 219/262/216
f 211/260/214 138/282/234 128/261/215
f 140/215/171 141/214/170 218/265/219
f 228/236/191 142/283/235 131/268/221
f 283/284/236 274/285/237 273/286/238 288/287/239 287/288/240 272/289/241 258/290/242 259/291/243 286/292/244 270/293/245 271/294/246 269/295/247 256/296/248 257/297/249 268/298/250 284/299/251 267/300/252 242/301/253 243/302/254 244/303/255 245/304/256 266/305/257 264/306/258 263/307/259 246/308/260 247/309/261 248/310/262 249/270/222 250/271/223 285/311/263 251/312/264 252/272/224 253/313/225 265/314/265 254/274/226 255/275/227 262/315/266 289/316/267 276/317/268 277/318/269 279/319/270 278/320/271 290/321/272 281/322/273 280/323/274 282/324/275 260/325/276 261/326/277 275/327/278
f 149/201/157 223/328/151 216/329/279
f 151/248/203 194/143/112 240/227/183
f 192/228/184 240/227/183 133/224/180
f 240/227/183 152/247/202 133/224/180
f 133/224/180 152/247/202 153/245/200
f 191/225/181 153/245/200 190/222/178
f 230/244/199 184/219/175 220/218/174
f 154/243/198 185/330/280 184/219/175
f 208/331/281 241/241/196 221/332/282
f 226/144/113 187/216/172 186/240/195
f 227/253/192 188/333/193 187/216/172
f 188/333/193 222/213/169 187/216/172
f 188/238/193 228/236/191 222/334/169
f 232/211/167 189/209/165 143/210/166
f 157/251/206 158/207/163 189/209/165
f 145/204/160 160/335/187 147/205/161
f 147/336/161 160/232/187 148/202/158
f 234/200/156 200/231/186 223/328/151
f 223/195/151 229/337/283 150/196/152
f 112/156/123 171/153/120 177/173/138 116/193/150
f 265/314/265 216/338/279 162/198/154 254/274/226
f 202/176/141 110/141/110 203/255/209
f 203/255/209 110/141/110 121/249/204
f 110/141/110 163/162/129 236/142/111
f 236/142/111 163/162/129 195/254/208
f 164/161/128 165/164/131 204/339/284
f 208/331/281 204/340/284 166/168/133
f 204/340/284 165/167/131 166/168/133
f 170/150/117 206/152/119 198/234/189
f 206/341/119 207/174/139 124/233/188
f 207/174/139 111/155/122 124/233/188
f 199/230/126 112/156/123 113/342/124
f 114/158/125 202/176/141 209/258/212
f 202/176/141 183/160/127 110/141/110
f 183/160/127 163/162/129 110/141/110
f 183/160/127 172/163/130 164/161/128
f 173/166/132 226/144/113 166/168/133
f 175/171/136 169/172/137 168/170/135
f 176/151/118 207/343/139 206/152/119
f 177/173/138 171/153/120 111/155/122
f 112/156/123 116/193/150 237/344/140 113/342/124
f 212/217/173 139/345/285 186/240/195 187/216/172
f 237/175/140 202/176/141 114/158/125
f 172/165/130 182/178/143 173/166/132
f 174/169/134 117/181/144 168/170/135
f 180/182/145 177/173/138 207/174/139
f 180/182/145 116/193/150 177/173/138
f 119/192/149 179/191/147 180/182/145
f 118/184/146 178/346/148 182/186/143
f 118/184/146 119/347/149 178/346/148
f 179/191/147 237/344/140 116/193/150
f 119/189/149 180/194/145 175/171/136
f 117/181/144 119/189/149 175/171/136
f 178/188/148 117/181/144 174/169/134
f 181/180/142 178/188/148 174/169/134
f 183/160/127 182/186/143 172/163/130
f 149/201/157 234/200/156 223/328/151
f 238/199/155 233/203/159 234/200/156
f 144/208/164 189/209/165 158/207/163
f 142/283/235 231/348/286 213/212/168
f 231/348/286 232/211/167 213/212/168
f 156/349/287 231/348/286 142/283/235
f 228/236/191 122/252/207 142/283/235
f 122/252/207 156/349/287 142/283/235
f 222/334/169 228/236/191 141/267/170
f 187/216/172 222/213/169 140/215/171
f 139/345/285 241/241/196 186/240/195
f 139/345/285 138/282/234 221/332/282 241/241/196
f 221/332/282 138/282/234 211/260/214 137/281/233
f 137/281/233 185/350/280 221/332/282
f 137/351/233 136/221/177 184/219/175 185/330/280
f 120/257/211 229/337/283 223/195/151 200/352/186
f 135/223/179 220/218/174 239/220/176
f 134/226/182 191/225/181 190/222/178
f 132/197/153 151/248/203 240/227/183
f 193/256/210 151/248/203 150/196/152 201/259/213
f 234/200/156 161/229/185 200/231/186
f 233/203/159 124/233/188 123/154/121
f 159/235/190 206/152/119 160/335/187
f 206/152/119 124/353/188 160/335/187
f 157/251/206 198/234/189 158/207/163
f 231/348/286 197/250/205 232/211/167
f 122/252/207 231/348/286 156/349/287
f 187/216/172 226/144/113 227/253/192
f 208/331/281 225/239/194 241/241/196
f 153/245/200 152/247/202 196/242/197
f 240/227/183 194/143/112 224/246/201
f 201/259/213 150/196/152 229/337/283 120/257/211
f 151/248/203 193/256/210 121/249/204
f 209/258/212 120/257/211 200/352/186 114/158/125
f 197/250/205 231/348/286 122/252/207 167/149/116
f 199/159/126 114/158/125 200/352/186
f 161/229/185 123/154/121 199/230/126
f 123/154/121 112/156/123 199/230/126
f 124/233/188 111/155/122 123/154/121
f 198/234/189 206/152/119 159/235/190
f 157/251/206 170/150/117 198/234/189
f 157/251/206 169/172/137 170/150/117
f 197/250/205 168/170/135 169/172/137
f 204/339/284 155/354/288 154/243/198 196/242/197
f 197/250/205 167/149/116 168/170/135
f 208/331/281 166/168/133 225/239/194
f 155/355/288 204/340/284 208/331/281
f 164/161/128 204/339/284 196/242/197
f 193/256/210 201/259/213 202/176/141 203/255/209
f 163/162/129 164/161/128 195/254/208
f 224/246/201 194/143/112 236/142/111
f 236/142/111 195/254/208 152/247/202
f 121/249/204 110/141/110 194/143/112
f 235/266/220 130/263/217 212/217/173 140/215/171
f 209/258/212 202/176/141 201/259/213
f 279/319/270 192/228/184 126/278/230 278/320/271
f 281/322/273 127/279/231 135/223/179 280/323/274
f 280/323/274 135/223/179 217/280/232 282/324/275
f 217/280/232 239/220/176 136/221/177
f 275/327/278 136/221/177 219/356/216 283/284/236
f 128/261/215 138/282/234 129/264/218
f 245/304/256 214/357/289 144/208/164 266/305/257
f 250/271/223 148/202/158 238/199/155 285/311/263
f 253/313/225 149/358/157 216/338/279 265/314/265
f 288/287/239 129/264/218 287/288/240
f 283/359/236 219/262/216 274/285/237
f 135/223/179 127/279/231 134/226/182 190/222/178
f 276/317/268 289/316/267 125/277/229
f 125/277/229 132/197/153 192/228/184
f 126/278/230 192/228/184 134/226/182
f 192/228/184 133/224/180 134/226/182
f 136/221/177 137/351/233 219/356/216
f 138/282/234 139/345/285 129/264/218
f 139/345/285 212/217/173 129/264/218
f 141/267/170 228/236/191 131/268/221
f 143/210/166 144/208/164 214/357/289
f 208/331/281 221/332/282 185/350/280 155/355/288
f 215/360/290 146/206/162 147/205/161
f 216/338/279 223/195/151 162/198/154
f 132/197/153 150/196/152 151/248/203
f 191/225/181 133/224/180 153/245/200
f 190/222/178 153/245/200 220/218/174
f 220/218/174 153/245/200 230/244/199
f 230/244/199 154/243/198 184/219/175
f 154/361/198 155/355/288 185/350/280
f 225/239/194 226/144/113 186/240/195
f 232/211/167 157/251/206 189/209/165
f 158/207/163 159/235/190 145/204/160
f 145/204/160 159/235/190 160/335/187
f 148/202/158 160/232/187 233/203/159
f 233/203/159 161/229/185 234/200/156
f 285/311/263 238/199/155 251/312/264
f 247/309/261 147/205/161 248/310/262
f 278/320/271 126/278/230 290/321/272
f 290/321/272 126/278/230 127/279/231 281/322/273
f 277/318/269 192/228/184 279/319/270
f 262/315/266 210/276/228 125/277/229 289/316/267
f 125/277/229 192/228/184 277/318/269 276/317/268
f 128/261/215 273/286/238 274/285/237 219/262/216
f 128/261/215 129/264/218 288/287/239 273/286/238
f 129/264/218 272/289/241 287/288/240
f 235/266/220 271/294/246 270/293/245
f 130/263/217 235/266/220 270/293/245 286/292/244
f 235/266/220 218/265/219 269/362/247 271/294/246
f 131/268/221 142/283/235 284/299/251 268/298/250
f 142/283/235 213/212/168 267/300/252 284/299/251
f 144/208/164 264/306/258 266/305/257
f 145/204/160 263/307/259 264/306/258 144/208/164
f 217/280/232 136/221/177 275/327/278 261/326/277
f 217/280/232 261/326/277 260/325/276
f 217/280/232 260/325/276 282/324/275
f 130/263/217 286/292/244 259/291/243
f 130/263/217 259/291/243 258/290/242
f 129/264/218 130/263/217 258/290/242 272/289/241
f 131/268/221 268/298/250 257/297/249
f 131/268/221 257/297/249 256/296/248
f 218/269/219 131/268/221 256/296/248 269/295/247
f 162/198/154 210/276/228 262/315/266 255/275/227
f 238/199/155 149/201/157 252/272/224 251/312/264
f 147/205/161 148/363/158 249/364/222 248/310/262
f 215/360/290 147/205/161 247/309/261 246/308/260
f 215/360/290 246/308/260 263/307/259 145/204/160 146/206/162
f 143/210/166 214/357/289 245/304/256 244/303/255
f 213/212/168 143/210/166 244/303/255 243/302/254
f 213/212/168 243/302/254 242/301/253
f 213/212/168 242/301/253 267/300/252
