# Blender 4.5.3 LTS
# www.blender.org
mtllib cucumber_2cut_final.mtl
o cucumber.010
v -0.048105 0.077074 0.136796
v -0.045464 0.035449 0.129816
v -0.051505 0.042318 0.130650
v -0.057382 0.047422 0.131106
v -0.055759 0.052720 0.130805
v -0.003635 0.070109 0.144327
v -0.044965 0.052270 0.156433
v -0.018044 0.058801 0.168564
v -0.030405 0.065790 0.170352
v -0.027326 0.059517 0.170545
v -0.061976 0.048506 0.080064
v -0.054326 0.069446 0.094231
v 0.003411 0.045470 0.057236
v -0.049288 0.029904 0.086696
v -0.038548 0.025076 0.102770
v -0.048788 0.068772 0.021139
v -0.058665 0.051102 0.035781
v -0.061498 0.060535 0.050813
v -0.045300 0.078525 0.067587
v -0.044017 0.077635 0.049316
v -0.030504 0.080407 0.065716
v -0.022352 0.081026 0.080096
v 0.006069 0.039237 0.038447
v -0.010006 0.022885 0.059756
v -0.015925 0.018345 0.035068
v -0.027997 0.015706 0.066363
v -0.033284 0.017792 0.057462
v -0.054337 0.025545 0.056241
v -0.045199 0.082155 0.133445
v -0.032917 0.087778 0.135762
v -0.025080 0.088477 0.133288
v -0.012449 0.082775 0.130572
v 0.001432 0.055825 0.124881
v -0.003088 0.048297 0.139363
v -0.007732 0.034806 0.121869
v -0.014783 0.029775 0.123360
v -0.049989 0.038215 0.137250
v -0.028245 0.082990 0.153825
v -0.012888 0.080383 0.148864
v -0.004493 0.064664 0.152888
v -0.015935 0.043036 0.156853
v -0.027572 0.038486 0.152903
v -0.046278 0.044532 0.153708
v -0.024118 0.064854 0.170471
v -0.036125 0.061048 0.169000
v -0.034035 0.050854 0.165014
v -0.013992 0.072023 0.162683
v -0.029996 0.070368 0.169498
v -0.040413 0.077640 0.156543
v -0.028852 0.080866 0.027824
v -0.021840 0.078868 0.027010
v -0.008729 0.071921 0.026680
v -0.002589 0.064627 0.018228
v 0.006871 0.060148 0.039893
v -0.008420 0.018269 0.029126
v -0.057567 0.061399 0.087292
v -0.052573 0.068547 0.072160
v -0.038789 0.081013 0.101060
v -0.034744 0.083578 0.082906
v 0.000304 0.034588 0.093242
v -0.021399 0.021334 0.103640
v -0.059087 0.039889 0.101667
v -0.057626 0.043905 0.084206
v -0.056865 0.055814 0.079801
v -0.053721 0.064268 0.139138
v -0.056456 0.067721 0.121129
v -0.028557 0.088395 0.115614
v 0.000346 0.065218 0.115861
v -0.028341 0.026224 0.119534
v -0.040011 0.037548 0.146277
v -0.018049 0.083794 0.094496
v -0.060992 0.055484 0.114671
v -0.034939 0.076497 0.014829
v 0.004770 0.056532 0.014505
v -0.051254 0.077787 0.070840
v -0.013567 0.077433 0.065018
v -0.004880 0.076102 0.143596
v 0.001769 0.060283 0.066681
v 0.002945 0.051836 0.040356
v -0.061600 0.047035 0.036494
v -0.033871 0.081583 0.050734
v 0.000229 0.036211 0.067558
v -0.002682 0.030521 0.061455
v -0.047546 0.023469 0.040227
v -0.052253 0.028751 0.028668
v -0.047589 0.079111 0.103951
v -0.047646 0.055444 0.157138
v -0.052767 0.065829 0.037459
v -0.011401 0.074951 0.013942
v -0.051174 0.071217 0.092402
v -0.051314 0.071216 0.080193
v -0.002702 0.071566 0.132037
v -0.003936 0.071557 0.144150
v -0.042486 0.071280 0.156714
v -0.046773 0.071249 0.148225
v -0.019585 0.071445 0.165065
v -0.028264 0.071382 0.167408
v -0.011189 0.071505 0.157716
v -0.013304 0.071490 0.161973
v -0.035086 0.071333 0.163893
v -0.038776 0.071307 0.161298
v -0.031416 0.071360 0.167732
v -0.014760 0.071479 0.163274
v -0.048892 0.071234 0.014925
v -0.049591 0.071229 0.050273
v -0.052086 0.071211 0.052482
v -0.002973 0.071564 0.121532
v -0.047905 0.071241 0.032897
v -0.047457 0.071244 0.028998
v -0.003973 0.071557 0.093940
v -0.008396 0.071525 0.026221
v -0.050672 0.071221 0.137866
v -0.053348 0.071202 0.126959
v -0.052891 0.071205 0.104046
v -0.029857 0.071371 0.168253
v -0.052193 0.071210 0.071780
v -0.057853 0.043825 0.013624
v -0.058153 0.053156 0.013622
v -0.051536 0.027596 0.013660
v -0.053220 0.029987 0.013651
v -0.044668 0.021177 0.013700
v -0.048192 0.023672 0.013680
v -0.014728 0.018541 0.013872
v -0.020499 0.015932 0.013839
v -0.007309 0.020672 0.013915
v -0.009307 0.018442 0.013903
v -0.001077 0.031426 0.013950
v -0.005535 0.024475 0.013925
v 0.004663 0.056656 0.013983
v 0.004787 0.056511 0.013984
v -0.002738 0.065801 0.013941
v -0.002437 0.064505 0.013943
v -0.034789 0.076523 0.013757
v -0.029573 0.079621 0.013787
v -0.028817 0.080680 0.013791
v -0.035382 0.076331 0.013753
v -0.035074 0.076507 0.013755
v -0.048780 0.071235 0.013676
v -0.048913 0.071729 0.013676
v -0.056364 0.057643 0.013633
v -0.052538 0.065616 0.013655
v 0.003107 0.051748 0.013975
v 0.003012 0.044735 0.013974
v -0.049392 0.068160 0.013673
v -0.048460 0.073842 0.013678
v -0.043129 0.074939 0.013709
v -0.016524 0.079443 0.013862
v -0.024365 0.015390 0.013817
v -0.031959 0.016501 0.013773
v -0.036618 0.017603 0.013746
v -0.055243 0.035335 0.013639
v -0.057471 0.040694 0.013626
v -0.058801 0.042421 0.013619
v -0.006886 0.071536 0.013917
v -0.008542 0.073158 0.013908
v 0.002215 0.037826 0.013969
v 0.000386 0.034152 0.013959
v 0.004526 0.038869 0.013983
v 0.003189 0.040939 0.013975
v 0.004259 0.053349 0.013981
v -0.021293 0.079418 0.013834
v -0.016980 0.079328 0.013859
v -0.058691 0.055500 0.013619
v -0.023307 0.015007 0.013823
v -0.048328 0.069557 0.013679
vn -0.7259 0.6877 0.0111
vn -0.9647 0.2512 0.0787
vn -0.8066 0.5904 -0.0291
vn 0.9542 0.2035 0.2193
vn 0.9469 0.2454 0.2077
vn 0.9579 0.2856 0.0292
vn 0.9558 0.2916 0.0368
vn 0.9938 -0.0295 0.1068
vn 0.4777 -0.8452 0.2396
vn 0.0084 -0.8852 0.4652
vn -0.1344 -0.9564 0.2591
vn -0.7354 -0.6426 0.2151
vn -0.5031 -0.8509 0.1514
vn -0.4010 -0.8887 0.2224
vn -0.8394 -0.4922 0.2307
vn -0.9739 -0.1450 0.1745
vn -0.9809 -0.0150 0.1939
vn -0.9450 -0.3191 0.0720
vn -0.6238 0.6547 0.4269
vn -0.3377 0.9392 0.0628
vn -0.5983 0.7998 0.0492
vn 0.0143 0.9112 0.4116
vn 0.2414 0.9694 0.0439
vn 0.4638 0.8440 0.2694
vn 0.5708 0.8211 0.0046
vn 0.9353 0.0632 0.3482
vn 0.8828 -0.3768 0.2806
vn 0.4978 -0.7212 0.4818
vn 0.6482 -0.7323 0.2086
vn -0.7965 -0.4268 0.4284
vn -0.3360 -0.8695 0.3621
vn -0.8292 -0.2438 0.5030
vn -0.8362 0.3291 0.4387
vn -0.9511 0.2172 0.2194
vn -0.8527 0.2476 0.4601
vn 0.2633 0.7027 0.6610
vn 0.2407 0.8192 0.5205
vn -0.2348 0.5327 0.8131
vn 0.6103 0.4486 0.6529
vn 0.8478 0.4503 0.2801
vn 0.8002 0.3637 0.4768
vn 0.7093 0.1917 0.6784
vn 0.6025 -0.1950 0.7739
vn -0.2557 -0.5955 0.7616
vn -0.6625 0.3176 0.6784
vn -0.6308 0.4082 0.6599
vn -0.5484 0.4860 0.6805
vn 0.5591 0.1892 0.8072
vn 0.2565 0.1599 0.9532
vn 0.0132 -0.3427 0.9393
vn -0.3011 0.1396 0.9433
vn -0.5555 0.0193 0.8313
vn -0.6987 -0.4305 0.5714
vn -0.6182 0.2044 -0.7589
vn -0.9928 0.1140 -0.0377
vn -0.6928 -0.0445 -0.7198
vn -0.5322 -0.4414 -0.7224
vn -0.8770 -0.4800 -0.0218
vn -0.6242 -0.3152 -0.7149
vn -0.3586 -0.6077 -0.7086
vn -0.4686 -0.8827 0.0361
vn -0.5213 -0.5624 -0.6418
vn -0.4837 0.5311 -0.6957
vn -0.0843 0.9962 -0.0233
vn -0.2695 0.7635 -0.5869
vn -0.1882 0.7100 -0.6786
vn -0.3564 0.9318 -0.0692
vn -0.2260 0.7472 -0.6250
vn -0.5406 0.3930 -0.7438
vn -0.7727 0.6308 -0.0709
vn -0.5980 0.5082 -0.6198
vn -0.6561 -0.7536 0.0412
vn -0.9578 -0.2871 0.0174
vn -0.3670 -0.9277 0.0689
vn -0.3718 -0.9139 0.1630
vn 0.2275 -0.9554 0.1884
vn -0.1592 -0.9827 0.0945
vn 0.1661 -0.9834 0.0730
vn 0.9949 -0.0964 0.0288
vn 0.9559 0.2916 0.0346
vn 0.9502 0.3110 0.0184
vn 0.7125 0.7012 -0.0280
vn 0.7072 0.7069 0.0120
vn 0.5084 0.5236 -0.6837
vn -0.1960 0.9777 -0.0759
vn 0.2327 0.9701 -0.0692
vn -0.1004 0.9928 -0.0656
vn -0.5201 0.8511 -0.0714
vn -0.7216 0.6700 -0.1745
vn -0.6798 0.7284 -0.0858
vn -0.4019 0.9121 -0.0806
vn -0.5007 0.8479 -0.1742
vn -0.9642 0.2644 -0.0199
vn -0.7168 0.6961 -0.0404
vn 0.7860 -0.6102 0.0990
vn 0.8157 -0.5737 0.0740
vn 0.5395 -0.8329 0.1233
vn 0.9980 0.0542 0.0325
vn 0.8959 0.4442 -0.0043
vn -0.4333 0.9000 -0.0472
vn -0.6602 0.7510 -0.0127
vn -0.9656 0.2508 0.0692
vn -0.9963 -0.0483 0.0715
vn -0.9882 -0.1509 0.0264
vn -0.9882 0.1339 0.0743
vn -0.9799 0.1990 0.0136
vn -0.8374 0.5459 -0.0274
vn -0.4924 0.4922 -0.7178
vn -0.7744 0.6171 -0.1396
vn -0.8920 0.4503 -0.0409
vn -0.5576 0.5798 -0.5940
vn -0.1604 0.6945 -0.7013
vn -0.0247 0.9996 -0.0116
vn 0.8059 0.5913 0.0279
vn 0.7440 0.6674 -0.0303
vn 0.7380 0.6746 -0.0152
vn 0.9504 0.3036 -0.0674
vn 0.5482 -0.8363 -0.0031
vn -0.1488 -0.7035 -0.6949
vn -0.0986 -0.6726 -0.7335
vn -0.2491 -0.6729 -0.6965
vn -0.8037 -0.1501 -0.5757
vn -0.9954 0.0719 -0.0627
vn -0.8373 0.4359 0.3301
vn -0.8569 0.4968 0.1375
vn -0.8363 0.5329 0.1291
vn -0.6698 0.7425 -0.0111
vn -0.0119 0.9967 -0.0809
vn 0.3714 0.9157 -0.1535
vn 0.6069 0.4465 -0.6575
vn 0.4966 0.5570 -0.6657
vn 0.1025 0.7495 0.6540
vn -0.6183 -0.2651 -0.7399
vn 0.3307 -0.6684 -0.6662
vn 0.1022 -0.7690 -0.6310
vn 0.5220 -0.5384 -0.6615
vn 0.9318 -0.3620 0.0281
vn 0.6239 -0.3585 -0.6944
vn 0.0842 0.7095 -0.6997
vn -0.1051 0.7150 -0.6912
vn -0.2180 0.7223 -0.6563
vn -0.7357 0.1747 -0.6544
vn 0.9668 -0.2555 0.0069
vn -0.9850 0.1723 0.0092
vn -0.0706 0.9914 -0.1105
vn 0.6327 -0.4020 -0.6618
vn 0.2550 -0.6462 -0.7193
vn 0.0348 -0.7921 -0.6094
vn -0.6423 -0.4261 -0.6371
vn -0.7818 0.1565 -0.6036
vn -0.6851 -0.2117 -0.6970
vn -0.7755 -0.0313 -0.6306
vn 0.1058 0.7848 -0.6106
vn 0.7220 0.3333 -0.6064
vn 0.6929 0.3800 -0.6127
vn 0.5696 0.4990 -0.6531
vn 0.8110 0.2170 -0.5433
vn 0.7598 -0.2911 -0.5813
vn 0.7593 -0.1905 -0.6222
vn 0.7258 0.0738 -0.6840
vn 0.7040 0.1882 -0.6848
vn 0.7986 -0.2502 -0.5473
vn 0.6417 -0.3523 -0.6812
vn 0.6467 -0.3624 -0.6712
vn -0.9979 -0.0499 -0.0408
vt 0.464810 0.156346
vt 0.466304 0.168136
vt 0.455271 0.172382
vt 0.887074 0.492709
vt 0.882804 0.496982
vt 0.854363 0.473377
vt 0.881257 0.476832
vt 0.290422 0.551330
vt 0.292798 0.579628
vt 0.247531 0.554361
vt 0.141664 0.593125
vt 0.137876 0.653916
vt 0.091156 0.628070
vt 0.730497 0.136582
vt 0.705981 0.180482
vt 0.714069 0.135866
vt 0.748698 0.142745
vt 0.378753 0.051006
vt 0.394869 0.062796
vt 0.352971 0.066324
vt 0.515944 0.089302
vt 0.567467 0.131512
vt 0.512678 0.131298
vt 0.574612 0.095276
vt 0.605051 0.130125
vt 0.985923 0.486506
vt 0.940016 0.481405
vt 0.996627 0.442628
vt 0.938330 0.451729
vt 0.272568 0.599051
vt 0.214124 0.581878
vt 0.173962 0.621436
vt 0.171601 0.579317
vt 0.739382 0.112441
vt 0.703094 0.108922
vt 0.433448 0.036342
vt 0.480295 0.088088
vt 0.441355 0.086761
vt 0.492305 0.074127
vt 0.940873 0.527393
vt 0.964333 0.532793
vt 0.967073 0.538583
vt 0.926798 0.521381
vt 0.900474 0.479301
vt 0.914892 0.514778
vt 0.270927 0.644180
vt 0.275247 0.639055
vt 0.270799 0.647705
vt 0.227466 0.649456
vt 0.727233 0.057741
vt 0.689900 0.071883
vt 0.522894 0.049657
vt 0.506531 0.060711
vt 0.535649 0.041684
vt 0.929000 0.524730
vt 0.239012 0.683949
vt 0.213784 0.690285
vt 0.760757 0.014472
vt 0.767179 0.041114
vt 0.744248 0.015367
vt 0.760260 0.094952
vt 0.184068 0.691780
vt 0.338831 0.180795
vt 0.375960 0.169162
vt 0.380540 0.205183
vt 0.711662 0.260328
vt 0.718841 0.245552
vt 0.723418 0.266561
vt 0.668654 0.245416
vt 0.685844 0.220466
vt 0.687162 0.251590
vt 0.578916 0.270509
vt 0.585162 0.254344
vt 0.584352 0.273686
vt 0.546784 0.264340
vt 0.549134 0.263316
vt 0.548432 0.264697
vt 0.400128 0.217663
vt 0.440590 0.207881
vt 0.438866 0.239203
vt 0.718211 0.212109
vt 0.765181 0.183358
vt 0.765136 0.240970
vt 0.629354 0.184245
vt 0.666145 0.148876
vt 0.105291 0.590763
vt 0.066471 0.574043
vt 0.098017 0.524741
vt 0.257410 0.460964
vt 0.286591 0.494601
vt 0.296846 0.453001
vt 0.929057 0.387737
vt 0.889295 0.350385
vt 0.916063 0.330858
vt 0.561112 0.188292
vt 0.586553 0.205818
vt 0.561559 0.226934
vt 0.511472 0.230895
vt 0.460225 0.198060
vt 0.484217 0.186059
vt 0.505543 0.197863
vt 0.468215 0.203620
vt 0.406948 0.175000
vt 0.448940 0.146927
vt 0.182393 0.543732
vt 0.162942 0.522897
vt 0.131120 0.537449
vt 0.225377 0.495365
vt 0.826752 0.427616
vt 0.879326 0.464475
vt 0.535615 0.164568
vt 0.498933 0.155577
vt 0.442834 0.116334
vt 0.417728 0.138128
vt 0.365221 0.115916
vt 0.394659 0.094613
vt 0.396500 0.131127
vt 0.468259 0.238464
vt 0.462620 0.246678
vt 0.477697 0.228186
vt 0.480312 0.236353
vt 0.481742 0.255193
vt 0.509175 0.264521
vt 0.610763 0.257515
vt 0.879669 0.429077
vt 0.847948 0.352499
vt 0.887051 0.350500
vt 0.805281 0.399868
vt 0.799329 0.371247
vt 0.279111 0.420770
vt 0.120853 0.510577
vt 0.057159 0.517768
vt 0.037167 0.580294
vt 0.029611 0.527928
vt 0.622459 0.219411
vt 0.634899 0.235380
vt 0.331225 0.177387
vt 0.353846 0.158321
vt 0.465449 0.105447
vt 0.485731 0.121176
vt 0.458798 0.118136
vt 0.457424 0.140989
vt 0.591675 0.152059
vt 0.967445 0.407848
vt 0.992257 0.422813
vt 0.658957 0.115191
vt 0.780268 0.151110
vt 0.112079 0.665577
vt 0.780034 0.105638
vt 0.882350 0.331681
vt 0.892766 0.330401
vt 0.968571 0.534446
vt 0.529002 0.014814
vt 0.544741 0.011903
vt 0.538760 0.034167
vt 0.536517 0.000158
vt 0.268389 0.650454
vt 0.541608 0.039022
vt 0.739806 0.277057
vt 0.115511 0.496490
vt 0.098299 0.502441
vt 0.197883 0.459730
vt 0.188030 0.517156
vt 0.177928 0.467080
vt 0.971133 0.314587
vt 0.972470 0.329048
vt 0.945840 0.321317
vt 0.610539 0.275738
vt 0.549799 0.264777
vt 0.387918 0.211739
vt 0.055624 0.615203
vt 0.207797 0.483516
vt 0.463614 0.176324
vt 0.349848 0.097609
vt 0.605900 0.188465
vt 0.982316 0.385806
vt 0.126252 0.491428
vt 0.072468 0.510693
vt 0.062132 0.514944
vt 0.756603 0.292246
vt 0.473009 0.250149
vt 0.474268 0.250807
vt 0.474639 0.251001
vt 0.943591 0.321941
vt 0.851887 0.342964
vt 0.845736 0.347427
vt 0.799874 0.370226
vt 0.799251 0.370559
vt 0.260269 0.423504
vt 0.252611 0.427204
vt 0.227927 0.447115
vt 0.210217 0.456002
vt 0.204880 0.458557
vt 0.165969 0.472788
vt 0.137985 0.485223
vt 0.473571 0.248902
vt 0.985963 0.359267
vt 0.491285 0.014401
vt 0.287234 0.615740
vt 0.955833 0.565540
vt 0.324294 0.174540
vt 0.278870 0.420085
s 1
usemtl Material.025
f 90/1/1 91/2/2 57/3/3
f 93/4/4 6/5/5 68/6/6 92/7/7
f 68/8/6 6/9/5 33/10/8
f 36/11/9 42/12/10 69/13/11
f 37/14/12 14/15/13 2/16/14
f 37/14/12 3/17/15 14/15/13
f 4/18/16 5/19/17 62/20/18
f 49/21/19 30/22/20 29/23/21
f 38/24/22 31/25/23 30/22/20
f 38/26/22 39/27/24 31/28/23
f 39/27/24 32/29/25 31/28/23
f 40/30/26 33/10/8 6/9/5
f 34/31/27 33/10/8 40/30/26
f 41/32/28 36/11/9 35/33/29
f 42/12/10 36/11/9 41/32/28
f 43/34/30 2/16/14 70/35/31
f 87/36/32 5/19/17 4/18/16
f 95/37/33 65/38/34 87/36/32 94/39/35
f 96/40/36 97/41/37 48/42/38
f 47/43/39 77/44/40 39/27/24
f 98/45/41 6/5/5 93/4/4
f 99/46/42 98/47/41 47/48/39
f 41/32/28 34/31/27 8/49/43
f 46/50/44 70/35/31 42/51/10
f 100/52/45 49/21/19 101/53/46
f 102/54/47 49/21/19 100/52/45
f 103/55/48 47/43/39 96/40/36
f 44/56/49 10/57/50 8/49/43
f 9/58/51 45/59/52 10/60/50
f 45/59/52 7/61/53 46/50/44
f 46/62/44 42/12/10 41/32/28
f 101/53/46 49/21/19 94/39/35
f 117/63/54 17/64/55 118/65/56
f 119/66/57 85/67/58 120/68/59
f 121/69/60 84/70/61 122/71/62
f 134/72/63 50/73/64 135/74/65
f 136/75/66 73/76/67 137/77/68
f 140/78/69 88/79/70 141/80/71
f 28/81/72 62/82/18 63/83/73
f 84/70/61 14/15/13 28/81/72
f 27/84/74 15/85/75 84/70/61
f 61/86/76 26/87/77 25/88/78
f 68/8/6 79/89/79 78/90/80
f 78/90/80 79/89/79 54/91/81
f 76/92/82 52/93/83 89/94/84
f 59/95/85 21/96/86 81/97/87
f 20/98/88 59/95/85 81/97/87
f 106/99/89 75/100/90 19/101/91 105/102/92
f 18/103/93 12/104/94 57/3/3
f 60/105/95 35/33/29 83/106/96
f 83/106/96 35/33/29 24/107/97
f 68/8/6 33/10/8 79/89/79
f 79/89/79 33/10/8 13/108/98
f 92/7/7 68/6/6 78/109/80 107/110/99
f 76/92/82 32/29/25 77/44/40
f 19/101/91 58/111/100 59/95/85
f 30/22/20 59/95/85 58/111/100
f 86/112/101 19/101/91 75/100/90
f 66/113/102 12/104/94 56/114/103
f 11/115/104 72/116/105 64/117/106
f 18/103/93 57/3/3 88/79/70
f 141/80/71 88/79/70 16/118/107 144/119/108
f 105/102/92 19/101/91 108/120/109
f 108/120/109 19/101/91 20/98/88 109/121/110
f 145/122/111 20/98/88 146/123/112
f 81/97/87 50/73/64 73/76/67
f 21/96/86 51/124/113 50/73/64
f 110/125/114 53/126/115 111/127/116
f 78/109/80 54/128/81 53/126/115
f 54/128/81 74/129/117 53/126/115
f 54/91/81 79/89/79 74/130/117
f 24/107/97 25/88/78 55/131/118
f 148/132/119 27/133/74 149/134/120
f 149/135/120 27/84/74 150/136/121
f 153/137/122 80/138/123 17/64/55 117/63/54
f 3/17/15 37/14/12 43/34/30 7/61/53
f 112/139/124 1/140/125 113/141/126
f 113/141/126 1/140/125 114/142/127
f 1/140/125 29/23/21 86/112/101
f 86/112/101 29/23/21 58/111/100
f 30/22/20 31/25/23 67/143/128
f 71/144/129 67/145/128 32/29/25
f 67/145/128 31/28/23 32/29/25
f 36/11/9 69/13/11 61/86/76
f 69/146/11 70/35/31 15/85/75
f 70/35/31 2/16/14 15/85/75
f 62/82/18 3/17/15 4/147/16
f 5/19/17 65/38/34 72/116/105
f 95/37/33 49/21/19 1/140/125 112/139/124
f 49/21/19 29/23/21 1/140/125
f 49/21/19 38/24/22 30/22/20
f 39/27/24 77/44/40 32/29/25
f 41/32/28 35/33/29 34/31/27
f 42/12/10 70/148/31 69/13/11
f 43/34/30 37/14/12 2/16/14
f 3/17/15 7/61/53 87/149/32 4/147/16
f 154/150/130 155/151/131 52/93/83 111/127/116
f 87/36/32 65/38/34 5/19/17
f 115/152/132 48/42/38 97/41/37
f 40/30/26 8/49/43 34/31/27
f 46/50/44 43/34/30 70/35/31
f 46/50/44 7/61/53 43/34/30
f 10/60/50 45/59/52 46/50/44
f 9/153/51 44/154/49 48/155/38
f 9/153/51 10/156/50 44/154/49
f 45/59/52 87/149/32 7/61/53
f 10/57/50 46/62/44 41/32/28
f 8/49/43 10/57/50 41/32/28
f 44/56/49 8/49/43 40/30/26
f 103/157/48 44/56/49 40/30/26 99/46/42
f 102/54/47 48/155/38 115/158/132
f 120/68/59 85/67/58 151/159/133
f 122/71/62 84/70/61 85/67/58 119/66/57
f 126/160/134 55/131/118 25/88/78 123/161/135
f 156/162/136 82/163/137 157/164/138
f 89/94/84 52/93/83 155/151/131
f 161/165/139 51/166/113 162/167/140
f 161/168/139 135/74/65 50/73/64 51/124/113
f 137/77/68 73/76/67 133/169/141
f 163/170/142 18/103/93 88/79/70 140/78/69
f 56/114/103 18/103/93 17/64/55 64/117/106
f 85/67/58 28/81/72 63/83/73
f 84/70/61 15/85/75 14/15/13
f 26/87/77 69/13/11 27/133/74
f 69/13/11 15/171/75 27/133/74
f 24/107/97 61/86/76 25/88/78
f 82/163/137 60/105/95 83/106/96
f 13/108/98 82/163/137 23/172/143
f 110/125/114 77/44/40 107/110/99
f 71/144/129 76/92/82 89/94/84
f 20/98/88 19/101/91 59/95/85
f 106/99/89 116/173/144 75/100/90
f 64/117/106 17/64/55 80/138/123 11/115/104
f 18/103/93 56/114/103 12/104/94
f 72/116/105 11/115/104 63/174/73 5/19/17
f 60/105/95 82/163/137 13/108/98 33/10/8
f 62/20/18 5/19/17 63/174/73
f 28/81/72 14/15/13 62/82/18
f 14/15/13 3/17/15 62/82/18
f 15/85/75 2/16/14 14/15/13
f 61/86/76 69/13/11 26/87/77
f 24/107/97 36/11/9 61/86/76
f 24/107/97 35/33/29 36/11/9
f 60/105/95 34/31/27 35/33/29
f 67/143/128 22/175/145 21/96/86 59/95/85
f 60/105/95 33/10/8 34/31/27
f 71/144/129 32/29/25 76/92/82
f 22/176/145 67/145/128 71/144/129
f 30/22/20 67/143/128 59/95/85
f 56/114/103 64/117/106 65/38/34 66/113/102
f 29/23/21 30/22/20 58/111/100
f 116/173/144 57/3/3 91/2/2
f 86/112/101 58/111/100 19/101/91
f 114/142/127 1/140/125 90/1/1
f 72/116/105 65/38/34 64/117/106
f 125/177/146 126/160/134 123/161/135 124/178/147 164/179/148 148/132/119 149/134/120 150/136/121 121/69/60 122/71/62 119/66/57 120/68/59 151/159/133 152/180/149 153/137/122 117/63/54 118/65/56 163/170/142 140/78/69 141/80/71 144/119/108 165/181/150 138/182/151 139/183/152 145/122/111 146/123/112 136/75/66 137/77/68 133/169/141 134/72/63 135/74/65 161/168/139 162/167/140 147/184/153 89/94/84 155/151/131 154/150/130 131/185/154 132/186/155 129/187/156 130/188/157 160/189/158 142/190/159 143/191/160 159/192/161 158/193/162 156/162/136 157/164/138 127/194/163 128/195/164
f 160/189/158 79/89/79 142/190/159
f 118/65/56 17/64/55 18/103/93 163/170/142
f 104/196/165 16/118/107 109/121/110
f 146/123/112 20/98/88 73/76/67 136/75/66
f 73/76/67 20/98/88 81/97/87
f 81/97/87 21/96/86 50/73/64
f 21/197/86 22/176/145 51/166/113
f 76/92/82 77/44/40 52/93/83
f 83/106/96 24/107/97 55/131/118
f 164/179/148 26/87/77 27/133/74 148/132/119
f 150/136/121 27/84/74 84/70/61 121/69/60
f 84/70/61 28/81/72 85/67/58
f 66/113/102 113/141/126 114/142/127 12/104/94
f 65/38/34 112/139/124 113/141/126 66/113/102
f 131/185/154 154/150/130 111/127/116 53/126/115
f 77/44/40 110/125/114 111/127/116 52/93/83
f 16/118/107 108/120/109 109/121/110
f 53/126/115 110/125/114 107/110/99 78/109/80
f 88/79/70 57/3/3 116/173/144 106/99/89
f 88/79/70 106/99/89 105/102/92
f 88/79/70 105/102/92 108/120/109 16/118/107
f 139/183/152 104/196/165 109/121/110 20/98/88 145/122/111
f 144/119/108 16/118/107 165/181/150
f 49/21/19 102/54/47 115/158/132 38/24/22
f 9/153/51 100/52/45 101/53/46 45/198/52
f 48/155/38 102/54/47 100/52/45 9/153/51
f 47/48/39 103/157/48 99/46/42
f 40/30/26 6/199/5 98/47/41 99/46/42
f 38/26/22 115/152/132 97/41/37 39/27/24
f 47/43/39 39/27/24 97/41/37 96/40/36
f 44/200/49 103/55/48 96/40/36 48/42/38
f 65/38/34 95/37/33 112/139/124
f 49/21/19 95/37/33 94/39/35
f 45/198/52 101/53/46 94/39/35 87/36/32
f 47/43/39 98/45/41 93/4/4 77/44/40
f 77/44/40 93/4/4 92/7/7
f 77/44/40 92/7/7 107/110/99
f 75/100/90 116/173/144 91/2/2 86/112/101
f 1/140/125 86/112/101 91/2/2 90/1/1
f 12/104/94 114/142/127 90/1/1 57/3/3
f 13/108/98 23/172/143 158/193/162 159/192/161
f 23/172/143 82/163/137 156/162/136 158/193/162
f 11/115/104 80/138/123 153/137/122 152/201/149 63/174/73
f 85/67/58 63/83/73 152/180/149 151/159/133
f 71/144/129 147/184/153 162/167/140 51/166/113 22/176/145
f 79/89/79 13/108/98 159/192/161 143/191/160
f 79/89/79 143/191/160 142/190/159
f 71/144/129 89/94/84 147/184/153
f 104/196/165 139/183/152 138/182/151
f 16/118/107 104/196/165 138/182/151 165/181/150
f 73/76/67 50/73/64 134/72/63 133/169/141
f 53/126/115 132/186/155 131/185/154
f 74/130/117 79/89/79 160/189/158 130/202/157
f 74/129/117 130/188/157 129/187/156
f 53/126/115 74/129/117 129/187/156 132/186/155
f 83/106/96 128/195/164 127/194/163
f 82/163/137 83/106/96 127/194/163 157/164/138
f 55/131/118 126/160/134 125/177/146
f 83/106/96 55/131/118 125/177/146 128/195/164
f 25/88/78 26/87/77 164/179/148 124/178/147
f 25/88/78 124/178/147 123/161/135
o cucumber.008
v -0.059367 0.057974 -0.082595
v 0.005782 0.056265 -0.110820
v -0.007132 0.102347 -0.121574
v -0.004171 0.095471 -0.118213
v 0.002188 0.088381 -0.113924
v 0.005382 0.067665 -0.120263
v -0.055994 0.082287 -0.128336
v -0.014929 0.044912 -0.129573
v -0.059766 0.072170 -0.112359
v -0.050693 0.083665 -0.088492
v -0.042606 0.083134 -0.077597
v -0.039154 0.086487 -0.074561
v -0.003337 0.074793 -0.073676
v 0.002784 0.071019 -0.080527
v 0.003843 0.051908 -0.097358
v -0.002550 0.034329 -0.084163
v -0.058019 0.043842 -0.088874
v -0.057607 0.050225 -0.108945
v -0.048061 0.095434 -0.132703
v -0.011207 0.089831 -0.142473
v -0.015969 0.078677 -0.147255
v -0.032617 0.070707 -0.148144
v -0.045648 0.072632 -0.142644
v -0.037618 0.104992 -0.128798
v -0.061187 0.080753 -0.115327
v 0.006880 0.057975 -0.088821
v -0.005558 0.045575 -0.120645
v -0.034723 0.034948 -0.117017
v -0.045942 0.042727 -0.121211
v -0.056986 0.064215 -0.123480
v -0.032401 0.050137 -0.135678
v -0.029572 0.107024 -0.113017
v -0.017286 0.106247 -0.118679
v -0.051221 0.095057 -0.122790
v -0.039767 0.105519 -0.117660
v -0.000488 0.091179 -0.125167
v 0.002573 0.075011 -0.130396
v -0.051745 0.091688 -0.108150
v -0.056159 0.084578 -0.114642
v -0.054110 0.076864 -0.088051
v 0.003124 0.066131 -0.085093
v 0.003826 0.059864 -0.072457
v 0.002138 0.042087 -0.077089
v -0.058606 0.065392 -0.089473
v -0.016685 0.085879 -0.075679
v -0.015574 0.027437 -0.096266
v -0.035485 0.022322 -0.083107
v -0.024129 0.108461 -0.126241
v -0.035649 0.097122 -0.144106
v -0.033251 0.091968 -0.147841
v -0.006646 0.084478 -0.075407
v -0.013104 0.103684 -0.131361
v -0.032741 0.100388 -0.103541
v -0.048030 0.029288 -0.083415
v -0.061252 0.064310 -0.073945
v -0.030054 0.099644 -0.143806
v 0.001844 0.071599 -0.079475
v 0.004772 0.071620 -0.119053
v 0.002894 0.071606 -0.092188
v -0.047518 0.071244 -0.139483
v -0.056604 0.071178 -0.125351
v 0.004395 0.071617 -0.121087
v -0.015747 0.071472 -0.143482
v 0.000584 0.071590 -0.130302
v 0.001630 0.071597 -0.129265
v 0.003872 0.071613 -0.125709
v -0.056338 0.071180 -0.088756
v -0.059666 0.071156 -0.112201
v -0.059695 0.071156 -0.110897
v -0.032636 0.071351 -0.148135
v -0.036773 0.071321 -0.146390
v 0.002764 0.071605 -0.081655
v -0.059593 0.071157 -0.108938
v -0.059737 0.071156 -0.110233
v -0.059575 0.071157 -0.099176
v -0.059412 0.071158 -0.113774
v -0.045662 0.071257 -0.141659
v -0.044842 0.071263 -0.142220
v -0.031252 0.071361 -0.148071
v -0.001872 0.033888 -0.072985
v -0.005771 0.029033 -0.072960
v -0.034212 0.020496 -0.072781
v -0.036351 0.021369 -0.072767
v -0.046413 0.026913 -0.072704
v -0.055505 0.038114 -0.072647
v -0.057468 0.041019 -0.072634
v -0.057767 0.043150 -0.072632
v -0.058033 0.045805 -0.072631
v -0.059504 0.055823 -0.072622
v -0.057725 0.043473 -0.072633
v -0.019888 0.021331 -0.072871
v -0.029620 0.020381 -0.072810
v 0.003665 0.051697 -0.073019
v 0.003826 0.059684 -0.073020
v -0.003265 0.074665 -0.072976
v 0.001636 0.071058 -0.073007
v -0.038871 0.086163 -0.072752
v -0.036890 0.085784 -0.072764
v -0.054627 0.069595 -0.072652
v -0.059759 0.065567 -0.072620
v -0.060100 0.057451 -0.072618
v -0.025682 0.086175 -0.072835
v -0.028256 0.086324 -0.072818
v -0.019426 0.085056 -0.072874
v -0.057841 0.044617 -0.072632
v 0.001987 0.041175 -0.073009
v 0.002372 0.043684 -0.073011
v 0.002056 0.065661 -0.073009
v 0.003795 0.060143 -0.073020
v -0.003484 0.074753 -0.072974
v -0.016558 0.085425 -0.072892
v -0.017643 0.085214 -0.072885
v -0.061117 0.064051 -0.072611
v -0.061024 0.064335 -0.072612
v -0.042680 0.082041 -0.072728
v 0.002194 0.041873 -0.073010
v -0.048303 0.028175 -0.072692
v -0.010926 0.025085 -0.072928
v 0.003931 0.059799 -0.073021
v 0.001417 0.068074 -0.073005
v -0.006804 0.083409 -0.072954
v -0.015770 0.084527 -0.072897
v -0.046233 0.081211 -0.072705
v -0.047777 0.078268 -0.072695
v -0.059296 0.058768 -0.072623
v -0.053489 0.072641 -0.072659
v -0.054028 0.071197 -0.072656
v 0.000911 0.071592 -0.073002
v -0.001816 0.033852 -0.072053
v -0.006034 0.028600 -0.072045
v -0.055396 0.037867 -0.071949
v -0.057756 0.043121 -0.071944
v -0.057942 0.044967 -0.071944
v -0.059513 0.055676 -0.071941
v -0.057727 0.043345 -0.071945
v 0.003820 0.059696 -0.072064
v -0.038750 0.086025 -0.071981
v -0.035911 0.085480 -0.071987
v -0.054461 0.069771 -0.071951
v -0.060150 0.057415 -0.071940
v -0.057808 0.044140 -0.071944
v 0.003885 0.059893 -0.072064
v 0.001972 0.065624 -0.072060
v 0.003760 0.059947 -0.072064
v -0.042692 0.081871 -0.071974
v -0.010748 0.024995 -0.072036
v -0.046024 0.081097 -0.071967
v -0.047476 0.078335 -0.071964
v -0.053460 0.072447 -0.071953
v 0.000775 0.071591 -0.072058
v -0.034115 0.020356 -0.071990
v -0.036416 0.021297 -0.071986
v -0.046301 0.026750 -0.071967
v -0.057445 0.040900 -0.071945
v -0.020046 0.021108 -0.072018
v -0.029159 0.020228 -0.072000
v 0.003658 0.051689 -0.072064
v -0.003170 0.074496 -0.072050
v 0.001492 0.071063 -0.072059
v -0.058995 0.066211 -0.071942
v -0.025834 0.085813 -0.072006
v -0.028137 0.085950 -0.072002
v -0.020264 0.084805 -0.072017
v 0.001952 0.040962 -0.072060
v 0.002426 0.044056 -0.072061
v -0.003678 0.074700 -0.072049
v -0.016518 0.085283 -0.072024
v -0.017940 0.085009 -0.072022
v -0.061048 0.063921 -0.071938
v -0.060908 0.064348 -0.071938
v 0.002207 0.041823 -0.072061
v -0.048322 0.028099 -0.071963
v 0.001284 0.068226 -0.072059
v -0.006862 0.083012 -0.072043
v -0.015484 0.084104 -0.072026
v -0.059291 0.058822 -0.071942
v -0.053927 0.071198 -0.071952
vn 0.8441 -0.5302 -0.0799
vn 0.6781 -0.7284 -0.0984
vn 0.7918 -0.5924 -0.1488
vn -0.1297 -0.9813 -0.1419
vn -0.4021 -0.9083 -0.1152
vn -0.2689 -0.9391 -0.2139
vn -0.8023 -0.5953 -0.0451
vn -0.9182 -0.3959 0.0148
vn -0.9263 -0.3597 -0.1121
vn -0.9825 -0.1755 -0.0617
vn -0.9654 -0.2585 -0.0338
vn -0.9921 -0.1165 -0.0456
vn 0.0719 -0.9838 -0.1640
vn 0.3667 -0.8871 -0.2802
vn 0.2249 -0.9616 -0.1574
vn 0.9546 -0.2916 -0.0614
vn 0.9099 -0.4078 -0.0763
vn 0.9948 -0.0900 0.0487
vn 0.9975 -0.0699 -0.0127
vn 0.6177 0.7748 0.1348
vn 0.6431 0.7553 0.1263
vn 0.7337 0.6531 0.1873
vn 0.4681 0.8699 0.1557
vn 0.2260 0.9680 0.1091
vn 0.1098 0.9623 0.2487
vn 0.0548 0.9481 0.3134
vn -0.9239 -0.3581 -0.1347
vn -0.5912 0.8054 0.0436
vn -0.8481 0.4761 0.2323
vn -0.7789 0.6269 0.0195
vn -0.8904 0.4168 0.1832
vn -0.7771 0.5577 0.2915
vn -0.5400 0.8079 0.2361
vn -0.7916 0.5630 0.2373
vn -0.7276 0.6813 0.0802
vn 0.9848 0.1608 0.0650
vn 0.9959 0.0762 -0.0477
vn 0.9901 0.0950 0.1038
vn 0.9567 0.2796 -0.0805
vn 0.9806 0.1751 0.0885
vn 0.9646 0.2637 -0.0008
vn 0.7275 -0.5810 -0.3649
vn 0.7785 -0.6120 -0.1390
vn 0.3632 -0.7038 -0.6105
vn -0.7484 -0.2000 -0.6324
vn -0.9349 -0.1807 -0.3054
vn -0.9339 0.0641 -0.3518
vn 0.9453 0.1830 -0.2701
vn -0.3679 0.9125 -0.1789
vn 0.0649 0.9921 -0.1075
vn 0.0754 0.9881 -0.1344
vn -0.0440 0.9907 -0.1288
vn -0.8073 -0.0056 -0.5901
vn -0.8020 0.5937 -0.0659
vn 0.5704 0.7827 -0.2490
vn 0.2990 0.8911 0.3415
vn 0.6544 0.7117 0.2555
vn 0.5550 0.2552 -0.7917
vn 0.7782 0.4414 -0.4468
vn 0.7142 -0.1882 -0.6741
vn 0.3881 -0.3860 -0.8369
vn 0.5091 -0.3509 -0.7859
vn 0.2476 -0.4589 -0.8533
vn -0.1725 -0.6310 -0.7564
vn -0.6524 -0.0901 -0.7525
vn -0.8219 0.4575 -0.3392
vn -0.2047 -0.8744 -0.4398
vn -0.6090 -0.6684 -0.4270
vn 0.7354 -0.5395 -0.4101
vn 0.7491 -0.5047 -0.4291
vn 0.6979 -0.5262 -0.4858
vn -0.9598 -0.2801 -0.0188
vn -0.9976 0.0491 -0.0487
vn 0.9007 0.4322 -0.0440
vn -0.9971 -0.0455 -0.0610
vn -0.9896 -0.1409 -0.0286
vn -0.9850 -0.1356 -0.1071
vn 0.9212 -0.3834 -0.0667
vn 0.9948 -0.1012 -0.0132
vn 0.9352 -0.3256 -0.1396
vn 0.9866 -0.1462 -0.0718
vn 0.9925 -0.1198 -0.0258
vn 0.9365 0.3433 0.0715
vn 0.9504 0.2888 0.1157
vn -0.2224 0.9535 0.2035
vn 0.1266 0.9013 0.4143
vn -0.1685 0.9640 0.2055
vn -0.9336 0.3245 0.1519
vn -0.8417 0.5193 0.1480
vn -0.6597 0.7515 0.0110
vn -0.1669 0.3015 -0.9387
vn -0.7101 0.1412 -0.6898
vn 0.7046 0.5501 -0.4482
vn -0.2330 0.7577 -0.6096
vn -0.4289 -0.2127 -0.8779
vn -0.1873 0.0424 -0.9814
vn -0.0498 0.8008 -0.5969
vn 0.1778 0.2090 -0.9616
vn -0.7547 0.6247 0.2004
vn -0.6931 0.6937 0.1960
vn 0.9855 -0.1674 -0.0276
vn 0.5300 -0.8294 -0.1768
vn 0.7503 -0.6185 0.2335
vn 0.7502 -0.6293 0.2029
vn 0.6920 -0.6863 0.2239
vn 0.9261 0.3595 0.1145
vn 0.9100 0.4004 0.1078
vn 0.9838 0.0837 0.1584
vn 0.9868 -0.1382 0.0844
vn 0.9768 -0.1433 0.1593
vn 0.8843 0.4138 0.2162
vn 0.9471 0.2393 0.2139
vn 0.9349 0.2557 0.2463
vn 0.0620 0.9341 0.3517
vn 0.6203 0.7408 0.2577
vn 0.5997 0.7350 0.3164
vn 0.0079 -0.0673 0.9977
vn 0.0306 -0.0270 0.9992
vn 0.0371 -0.0347 0.9987
vn 0.0245 -0.0294 0.9993
vn -0.0026 -0.0728 0.9973
vn 0.0172 -0.0809 0.9966
vn 0.0415 -0.0687 0.9968
vn 0.0491 -0.0288 0.9984
vn 0.0575 -0.0258 0.9980
vn -0.0102 -0.0696 0.9975
vn -0.0052 -0.0518 0.9986
vn 0.0114 -0.0102 0.9999
vn 0.0194 0.0105 0.9998
vn 0.0222 0.0108 0.9997
vn 0.0462 -0.0495 0.9977
vn 0.0219 0.0355 0.9991
vn 0.0170 0.0154 0.9997
vn 0.0123 0.0171 0.9998
vn 0.0292 0.0261 0.9992
vn 0.0250 0.0190 0.9995
vn 0.0448 0.0176 0.9988
vn -0.0021 0.0195 0.9998
vn -0.0032 0.0140 0.9999
vn 0.0126 0.0069 0.9999
vn 0.0140 0.0076 0.9999
vn -0.0315 0.0789 0.9964
vn -0.0236 0.0505 0.9984
vn -0.0432 0.0304 0.9986
vn 0.0054 0.0465 0.9989
vn -0.0057 0.0460 0.9989
vn 0.0017 0.0111 0.9999
vn 0.0024 0.0098 0.9999
vn -0.0044 0.0203 0.9998
vn -0.0134 0.0239 0.9996
vn -0.0236 0.0206 0.9995
vn -0.0270 0.0235 0.9994
vn -0.0194 -0.0160 0.9997
vn -0.0871 -0.0122 0.9961
vn -0.0862 0.0381 0.9955
vn -0.0331 -0.0008 0.9995
vn -0.0423 -0.0143 0.9990
vn -0.0112 -0.0475 0.9988
vn -0.0024 -0.0445 0.9990
vn -0.0784 -0.0188 0.9967
vn -0.0825 -0.0395 0.9958
vn -0.0647 -0.0475 0.9968
vn 0.0006 -0.0562 0.9984
vn -0.0068 -0.0335 0.9994
vn 0.0372 -0.0264 0.9990
vn -0.9986 0.0261 0.0455
vn -0.9974 -0.0494 0.0534
vn -0.9715 -0.2364 -0.0195
vn -0.3517 0.8531 0.3853
vn -0.2057 0.8373 0.5066
vn -0.0354 0.8984 0.4376
vn 0.8122 0.5388 0.2238
vn -0.9518 -0.2646 -0.1554
vn -0.5995 -0.7756 -0.1974
vn 0.9992 -0.0399 -0.0009
vn -0.9786 -0.1285 -0.1610
vn -0.6470 -0.4218 -0.6352
vn -0.4806 -0.4858 -0.7301
vn 0.9081 0.3891 -0.1545
vn 0.7944 0.5819 0.1742
vn 0.6268 0.7499 0.2114
vn -0.5113 0.7547 0.4111
vn -0.6075 0.7922 0.0586
vn 0.4855 -0.2989 -0.8215
vn 0.2605 -0.4689 -0.8439
vn 0.3263 0.5757 0.7497
vn -0.8726 0.3896 0.2946
vn -0.8643 0.4294 0.2617
vn -0.8891 0.3581 0.2850
vn 0.1478 0.9476 0.2832
vn 0.0390 0.9681 0.2476
vn 0.1220 0.9543 0.2728
vn 0.4634 0.8704 -0.1661
vn 0.3716 0.9178 -0.1398
vn 0.3948 0.9158 -0.0740
vn 0.7722 0.6346 0.0303
vn 0.7139 0.6895 0.1221
vn 0.7616 0.6377 0.1155
vn 0.0403 0.0461 -0.9981
vn -0.3015 -0.1946 -0.9334
vn -0.9645 -0.1658 -0.2056
vn -0.8977 0.3136 0.3096
vn 0.5345 0.8425 0.0673
vn 0.4344 0.8907 0.1344
vn -0.9510 0.2787 0.1339
vn -0.8026 0.5504 0.2301
vn -0.7405 0.5905 0.3209
vn -0.8808 0.3982 0.2563
vn 0.1730 0.9145 0.3657
vn 0.0434 0.9403 0.3377
vn -0.1522 0.9572 0.2461
vn -0.2671 0.9438 0.1948
vn -0.9376 0.3188 0.1385
vn -0.8311 0.5435 0.1181
vn -0.9525 -0.3020 0.0382
vn -0.9389 -0.3423 0.0352
vn -0.2344 0.9624 0.1371
vn -0.1130 0.9810 0.1577
vn 0.7678 0.6403 0.0226
vn 0.7070 0.7068 0.0236
vn 0.9080 0.3943 0.1417
vn 0.9469 0.2764 0.1642
vn 0.9429 0.3329 0.0127
vn 0.9752 0.2204 0.0212
vn 0.9928 0.0728 0.0949
vn 0.9874 -0.1569 -0.0217
vn 0.9762 -0.2144 -0.0328
vn 0.9151 -0.3992 -0.0559
vn 0.0677 0.9369 0.3430
vn 0.0064 0.8960 0.4440
vn 0.0815 0.8710 0.4845
vn -0.8547 0.5191 -0.0061
vn -0.8451 0.5345 0.0141
vn -0.8656 0.4991 -0.0405
vn -0.6627 0.7461 0.0643
vn -0.6164 0.7838 0.0750
vn -0.6786 0.7290 -0.0905
vn -0.8902 0.4212 0.1736
vn 0.2021 0.9730 0.1110
vn -0.0342 0.9417 0.3346
vn -0.7401 0.6511 0.1684
vn -0.6744 0.7224 0.1527
vn 0.9868 -0.1080 0.1204
vn 0.5703 0.8200 0.0482
vn 0.5783 0.8148 0.0399
vn 0.4803 0.8748 0.0643
vn 0.4376 0.8947 0.0899
vn 0.7280 -0.6669 0.1589
vn 0.9937 -0.1098 -0.0210
vn 0.0772 -0.9612 -0.2649
vn 0.2548 -0.9345 -0.2486
vn 0.4701 -0.8538 -0.2236
vn -0.9984 -0.0559 0.0110
vn -0.9921 -0.1228 -0.0254
vn -0.9618 -0.2579 -0.0917
vn -0.9227 -0.3549 -0.1507
vn -0.9826 -0.1689 -0.0767
vn -0.9983 -0.0505 0.0302
vn -0.8036 -0.5893 -0.0842
vn -0.9206 -0.3810 -0.0853
vn -0.6870 -0.7236 -0.0662
vn -0.5005 -0.8563 -0.1273
vn -0.1276 -0.9673 -0.2194
vn -0.4364 -0.8903 -0.1304
vn 0.8273 -0.5563 -0.0778
vn 0.6363 -0.7468 -0.1935
vn 0.1787 0.9189 0.3518
vn 0.0816 0.9427 0.3235
vn -0.9489 -0.3153 0.0133
vn -0.9392 -0.3426 0.0234
vn -0.0255 0.9198 0.3914
vn 0.0930 0.9313 0.3522
vn -0.5999 0.7982 -0.0551
vn -0.5154 -0.8481 -0.1229
vn -0.6752 -0.7312 -0.0974
vn -0.9325 0.3538 0.0721
vn -0.8494 0.5150 0.1151
vn -0.7857 0.5830 0.2069
vn -0.8765 0.4199 0.2353
vn -0.1530 0.9737 0.1690
vn -0.2573 0.9550 0.1473
vn -0.8171 0.5741 -0.0516
vn -0.8628 0.5034 -0.0466
vn -0.6436 0.7574 -0.1102
vn -0.9061 0.4094 0.1068
vn -0.9997 0.0035 -0.0248
vn -0.9898 -0.1340 -0.0474
vn -0.9995 -0.0303 -0.0077
vt 0.158680 0.376893
vt 0.136113 0.388494
vt 0.155764 0.363915
vt 0.010929 0.408127
vt 0.006488 0.403906
vt 0.007936 0.390530
vt 0.740719 0.384561
vt 0.754718 0.391997
vt 0.761559 0.416502
vt 0.329099 0.299170
vt 0.372657 0.323143
vt 0.381404 0.340614
vt 0.031285 0.408924
vt 0.092004 0.361959
vt 0.071740 0.407009
vt 0.194002 0.346732
vt 0.213684 0.293883
vt 0.228356 0.320010
vt 0.259500 0.288880
vt 0.850687 0.219727
vt 0.848724 0.211175
vt 0.876176 0.212659
vt 0.875366 0.213830
vt 0.550085 0.408735
vt 0.557736 0.406739
vt 0.549888 0.412492
vt 0.379781 0.327597
vt 0.443974 0.433456
vt 0.455170 0.398537
vt 0.461239 0.442234
vt 0.485385 0.417353
vt 0.486110 0.457656
vt 0.525682 0.402719
vt 0.529597 0.505297
vt 0.857262 0.153152
vt 0.883419 0.126317
vt 0.843516 0.189982
vt 0.246210 0.207248
vt 0.265660 0.251739
vt 0.227831 0.261314
vt 0.160790 0.280182
vt 0.105906 0.256178
vt 0.761734 0.589839
vt 0.782074 0.536145
vt 0.784030 0.558449
vt 0.249725 0.192108
vt 0.251090 0.196049
vt 0.526859 0.517769
vt 0.560091 0.520876
vt 0.565982 0.544404
vt 0.449729 0.453709
vt 0.487910 0.475243
vt 0.951334 0.073690
vt 0.971323 0.076358
vt 0.935473 0.087916
vt 0.219657 0.070901
vt 0.267121 0.117171
vt 0.243509 0.161211
vt 0.159315 0.136657
vt 0.227868 0.172006
vt 0.114678 0.116475
vt 0.056370 0.212656
vt 0.447956 0.490244
vt 0.488027 0.489872
vt 0.671337 0.524885
vt 0.649880 0.432518
vt 0.709070 0.460497
vt 0.026345 0.299494
vt 0.244758 0.182504
vt 0.233916 0.175008
vt 0.401941 0.346819
vt 0.407829 0.372117
vt 0.241972 0.274003
vt 0.637132 0.358510
vt 0.417262 0.411421
vt 0.416273 0.409103
vt 0.419845 0.413407
vt 0.191663 0.353844
vt 0.201858 0.345849
vt 0.260777 0.289183
vt 0.260154 0.289829
vt 0.260561 0.288764
vt 0.830835 0.230969
vt 0.813030 0.252229
vt 0.830492 0.210762
vt 0.946341 0.186709
vt 0.947209 0.181889
vt 0.951768 0.189218
vt 0.401710 0.344613
vt 0.402809 0.345258
vt 0.733843 0.686991
vt 0.757717 0.600445
vt 0.757848 0.670933
vt 0.893346 0.108346
vt 0.507711 0.532332
vt 0.728005 0.630165
vt 0.714689 0.645382
vt 0.526829 0.548009
vt 0.135676 0.025774
vt 0.173803 0.104236
vt 0.521145 0.391110
vt 0.194490 0.352028
vt 0.109557 0.396234
vt 0.259920 0.288255
vt 0.260788 0.287114
vt 0.839264 0.224333
vt 0.843741 0.210906
vt 0.846401 0.220751
vt 0.876804 0.213899
vt 0.908256 0.184632
vt 0.907193 0.191387
vt 0.957495 0.187195
vt 0.845081 0.208049
vt 0.995822 0.108314
vt 0.584555 0.400142
vt 0.561130 0.404250
vt 0.550169 0.407136
vt 0.520443 0.389313
vt 0.500071 0.384719
vt 0.487520 0.377353
vt 0.447968 0.366097
vt 0.442916 0.363011
vt 0.437145 0.359487
vt 0.414284 0.349356
vt 0.403248 0.344469
vt 0.401593 0.343500
vt 0.387573 0.330457
vt 0.379671 0.326712
vt 0.372060 0.321951
vt 0.325494 0.296314
vt 0.321100 0.294412
vt 0.319168 0.293074
vt 0.755985 0.396498
vt 0.754428 0.390956
vt 0.739823 0.383188
vt 0.690191 0.358599
vt 0.679721 0.355236
vt 0.006379 0.404917
vt 0.011158 0.409475
vt 0.033122 0.410370
vt 0.071001 0.408653
vt 0.110228 0.397544
vt 0.134508 0.390502
vt 0.158923 0.377974
vt 0.191119 0.355497
vt 0.194603 0.353261
vt 0.203689 0.345643
vt 0.228933 0.321036
vt 0.812032 0.254598
vt 0.812544 0.254441
vt 0.830862 0.232556
vt 0.839951 0.225395
vt 0.846736 0.221992
vt 0.850974 0.220975
vt 0.874295 0.215378
vt 0.877632 0.215533
vt 0.906798 0.193894
vt 0.940082 0.192230
vt 0.946071 0.188209
vt 0.953177 0.191483
vt 0.965149 0.158290
vt 0.417099 0.408206
vt 0.418049 0.407235
vt 0.421394 0.395137
vt 0.552715 0.482384
vt 0.917418 0.105828
vt 0.764119 0.466998
vt 0.690403 0.373954
vt 0.417790 0.414357
vt 0.421430 0.433526
vt 0.403691 0.420875
vt 0.755480 0.594010
vt 0.752460 0.595846
vt 0.987829 0.057799
vt 0.992666 0.069859
vt 0.119527 0.115471
vt 0.592278 0.509796
vt 0.431715 0.385447
vt 0.812215 0.254164
vt 0.941781 0.189765
vt 0.916686 0.068504
vt 0.978357 0.022676
vt 0.115314 0.113729
vt 0.946388 0.035053
vt 0.151837 0.003737
vt 0.486151 0.533997
vt 0.714091 0.644083
vt 0.363923 0.370413
vt 0.787151 0.594032
vt 0.851090 0.159484
vt 0.271771 0.148587
vt 0.442446 0.363951
vt 0.448284 0.367521
vt 0.486050 0.378316
vt 0.499415 0.386176
vt 0.387179 0.331106
vt 0.960638 0.188815
vt 0.583731 0.402272
vt 0.591714 0.400555
vt 0.995388 0.107747
vt 0.960951 0.163812
vt 0.410107 0.348497
vt 0.435971 0.359992
vt 0.320000 0.294513
vt 0.322780 0.296437
vt 0.318689 0.307128
vt 0.317446 0.291912
vt 0.756211 0.397311
vt 0.690205 0.359577
vt 0.680409 0.356441
vt 0.637772 0.344505
vt 0.591704 0.398581
vt 0.637820 0.343447
vt 0.317393 0.291268
s 1
usemtl Material.027
f 245/203/166 246/204/167 181/205/168
f 247/206/169 248/207/170 212/208/171
f 250/209/172 251/210/173 182/211/174
f 253/212/175 254/213/176 166/214/177
f 257/215/178 212/208/171 211/216/179 256/217/180
f 208/218/181 181/205/168 180/219/182
f 258/220/183 180/219/182 259/221/184
f 293/222/185 222/223/186 178/224/187 260/225/188
f 262/226/189 263/227/190 177/228/191
f 254/213/176 266/229/192 166/214/177
f 190/230/193 205/231/194 204/232/195
f 204/232/195 175/233/196 203/234/197
f 176/235/198 177/228/199 200/236/200
f 223/237/201 170/238/202 224/239/203
f 171/240/204 206/241/205 167/242/206
f 192/243/207 167/242/208 180/219/182
f 192/243/207 180/219/182 181/205/168
f 173/244/209 192/243/207 211/216/179
f 225/245/210 195/246/211 226/247/212
f 227/248/213 223/249/201 171/240/204
f 189/250/214 197/251/215 213/252/216
f 200/236/217 197/251/215 189/250/214
f 172/253/218 204/232/195 199/254/219
f 217/255/220 198/256/221 168/257/222
f 185/258/223 201/259/224 202/260/225
f 228/261/226 229/262/227 173/244/209
f 187/263/228 173/244/209 196/264/229
f 188/265/230 172/253/218 184/266/231
f 196/267/229 193/268/232 194/269/233
f 196/264/229 173/244/209 193/270/232
f 231/271/234 171/240/235 192/243/207 230/272/236
f 203/234/197 176/235/198 200/236/200
f 166/214/177 220/273/237 209/274/238
f 191/275/239 167/242/206 206/241/205
f 181/205/168 211/216/179 192/243/207
f 193/268/232 212/276/171 194/269/233
f 233/277/240 234/278/241 174/279/242
f 245/203/166 181/205/168 208/218/181 271/280/243
f 272/281/244 208/218/181 180/219/182 258/220/183
f 307/282/245 301/283/246 207/284/247
f 273/285/248 274/286/249 206/287/205
f 276/288/250 210/289/251 277/290/252
f 278/291/253 279/292/254 220/273/255
f 215/293/256 188/294/230 214/295/257
f 217/255/220 168/257/258 201/296/224
f 214/297/259 184/266/231 189/250/214
f 236/298/260 188/294/230 215/293/256 235/299/261
f 214/297/259 189/250/214 221/300/262
f 215/301/256 185/258/223 186/302/263
f 262/226/264 177/228/199 176/235/198 280/303/265
f 272/281/244 281/304/266 208/218/181
f 281/304/266 271/280/243 208/218/181
f 283/305/267 256/217/180 211/216/179
f 259/221/268 180/219/182 191/275/269 284/306/270
f 274/307/249 207/284/271 284/306/272
f 285/308/273 206/287/205 179/309/274 261/310/275
f 275/311/276 178/224/187 216/312/277 286/313/278
f 269/314/279 277/290/252 210/289/251
f 222/223/186 179/309/280 237/315/281
f 326/316/282 327/317/283 303/318/284 302/319/285 310/320/286 312/321/287 313/322/288 314/323/289 342/324/290 304/325/291 325/326/292 335/327/293 334/328/294 341/329/295 305/330/296 299/331/297 298/332/298 306/333/299 300/334/300 297/335/301 319/336/302 296/337/303 337/338/304 318/339/305 317/340/306 316/341/307 321/342/308 320/343/309 311/344/310 295/345/311 294/346/312 329/347/313 336/348/314 330/349/315 322/350/316 301/283/317 307/351/318 309/352/319 308/353/320 338/354/321 324/355/322 315/356/323 323/357/324 331/358/325 339/359/326 340/360/327 332/361/328 333/362/329 328/363/330
f 239/364/331 166/214/177 209/274/238 238/365/332
f 238/365/332 209/274/238 240/366/333
f 203/234/197 175/233/334 176/235/198
f 200/236/335 177/228/191 218/367/336
f 168/257/222 198/256/221 210/289/251
f 169/368/337 168/257/222 210/289/251
f 182/211/174 183/369/338 194/269/233 219/370/339
f 224/239/203 170/238/202 237/315/340
f 193/270/232 173/244/209 211/216/179
f 241/371/341 226/372/212 195/373/211
f 200/236/200 189/250/214 184/266/231 199/254/219
f 242/374/342 194/269/233 195/246/211 225/245/210
f 243/375/343 196/267/229 194/269/233 242/374/342
f 229/262/227 202/260/225 230/272/236
f 231/271/344 227/248/213 171/240/204
f 201/296/345 169/368/337 170/238/346
f 198/256/221 213/376/216 197/377/215
f 200/236/335 218/367/336 197/251/347
f 199/254/219 203/234/197 200/236/200
f 172/253/348 190/230/193 204/232/195
f 184/266/231 172/253/218 199/254/219
f 217/255/220 213/376/216 198/256/221
f 201/296/345 168/257/222 169/368/337
f 186/302/349 185/258/223 202/260/225
f 244/378/350 186/302/349 228/261/226
f 236/298/260 243/375/343 188/294/230
f 241/371/341 233/277/240 174/279/242
f 195/246/211 194/269/233 183/369/338
f 192/243/207 171/240/235 167/242/208
f 198/379/221 197/251/351 218/367/336
f 199/254/219 204/232/195 203/234/197
f 240/366/352 209/274/353 232/380/354
f 204/232/195 205/231/194 175/233/196
f 210/289/355 216/312/356 169/368/357
f 216/312/277 178/224/187 169/368/337
f 191/275/269 180/219/182 167/242/208
f 211/216/179 212/208/171 193/270/232
f 194/269/233 212/276/171 219/370/339
f 257/215/178 247/206/169 212/208/171
f 285/308/273 273/285/248 206/287/205
f 309/352/358 307/351/359 207/381/360
f 276/288/361 287/382/362 210/289/363
f 214/297/257 188/265/230 184/266/231
f 185/383/223 217/255/220 201/296/224
f 217/255/220 221/384/262 213/376/216
f 221/300/262 189/250/214 213/252/216
f 235/385/261 244/378/364 187/263/365
f 185/386/223 221/384/262 217/255/220
f 215/301/256 221/387/262 185/258/223
f 215/388/256 214/297/259 221/300/262
f 188/294/230 243/375/343 242/374/342
f 174/279/242 239/364/331 238/365/332
f 174/279/242 238/365/332 240/366/333 190/230/366
f 187/389/365 196/267/229 243/375/343 236/298/260
f 187/389/365 236/298/260 235/299/261
f 215/301/256 186/302/263 244/378/364 235/385/261
f 174/279/242 234/278/241 239/364/331
f 195/373/211 183/390/338 233/277/240 241/371/341
f 190/230/367 240/366/352 232/380/354 205/231/194
f 202/260/225 231/271/234 230/272/236
f 173/244/209 229/262/227 230/272/236 192/243/207
f 186/302/349 202/260/225 229/262/227 228/261/226
f 187/263/228 244/378/350 228/261/226 173/244/209
f 202/260/225 201/259/224 227/248/213 231/271/344
f 174/279/242 190/230/366 172/253/218 226/372/212 241/371/341
f 188/294/230 225/245/210 226/247/212 172/391/218
f 188/294/230 242/374/342 225/245/210
f 206/287/205 224/239/203 237/315/340 179/309/274
f 171/392/204 223/237/201 224/239/203 206/287/205
f 201/259/224 170/393/202 223/249/201 227/248/213
f 178/224/187 222/223/186 237/315/281 170/238/346 169/368/337
f 261/310/368 179/309/280 222/223/186 293/222/185
f 275/311/369 260/225/188 178/224/187
f 232/380/354 292/394/370 291/395/371 205/231/194
f 205/231/194 291/395/371 289/396/372
f 175/233/196 205/231/194 289/396/372 288/397/373
f 210/289/355 287/382/374 286/313/375 216/312/356
f 175/233/334 288/397/376 280/303/377 176/235/198
f 334/328/378 335/327/379 279/292/254 278/291/253
f 220/273/237 166/214/177 290/398/380 278/291/381
f 332/361/382 276/288/250 277/290/252 333/362/383
f 332/361/384 340/360/385 287/382/362 276/288/361
f 331/358/386 275/311/276 286/313/278 339/359/387
f 206/241/205 274/307/249 284/306/272 191/275/239
f 309/352/388 207/381/271 274/286/249 273/285/248 308/353/389
f 338/354/390 308/353/389 273/285/248 285/308/273
f 330/349/391 336/348/392 281/304/266 272/281/244
f 336/348/392 329/347/393 271/280/243 281/304/266
f 328/399/394 333/362/383 277/290/252 269/314/279
f 198/379/221 218/367/336 268/400/395 267/401/396
f 198/256/221 267/402/396 269/403/279 210/289/251
f 166/214/397 266/229/398 290/398/399
f 220/273/255 279/292/254 265/404/400
f 209/274/401 220/273/255 265/404/400 264/405/402
f 209/274/353 264/405/403 292/394/370 232/380/354
f 177/228/191 263/227/190 268/400/395 218/367/336
f 302/319/404 303/318/405 263/227/190 262/226/189
f 302/319/406 262/226/264 280/303/265 310/320/407
f 338/354/390 285/308/273 261/310/275 324/355/408
f 324/355/409 261/310/368 293/222/185 315/356/410
f 315/356/410 293/222/185 260/225/188 323/357/411
f 331/358/412 323/357/411 260/225/188 275/311/369
f 207/284/413 259/221/268 284/306/270
f 322/350/414 258/220/183 259/221/184 207/284/247 301/283/246
f 330/349/391 272/281/244 258/220/183 322/350/414
f 321/342/415 257/215/178 256/217/180 320/343/416
f 311/344/417 320/343/416 256/217/180 283/305/267
f 183/390/338 255/406/418 270/407/419 234/278/241 233/277/240
f 299/331/420 305/330/421 266/229/192 254/213/176
f 298/332/422 299/331/420 254/213/176 253/212/175
f 234/278/241 270/407/419 253/212/175 166/214/177 239/364/331
f 182/408/174 252/409/423 255/406/418 183/390/338
f 182/211/174 251/210/173 252/410/423
f 296/337/424 319/336/425 251/210/173 250/209/172
f 219/370/339 282/411/426 250/209/172 182/211/174
f 219/370/339 249/412/427 282/411/426
f 212/276/171 248/413/170 249/412/427 219/370/339
f 316/341/428 317/340/429 248/207/170 247/206/169
f 321/342/415 316/341/428 247/206/169 257/215/178
f 181/205/168 246/204/167 283/305/267 211/216/179
f 294/346/430 295/345/431 246/204/167 245/203/166
f 294/346/430 245/203/166 271/280/243 329/347/393
f 287/382/374 340/360/432 339/359/433 286/313/375
f 278/291/381 290/398/380 341/329/434 334/328/435
f 267/401/396 268/400/395 327/317/436 326/414/437
f 267/402/396 326/316/437 328/363/394 269/403/279
f 279/292/254 335/327/379 325/326/438 265/404/400
f 249/412/427 318/339/439 337/338/440 282/411/426
f 248/413/170 317/415/429 318/339/439 249/412/427
f 292/394/370 342/324/441 314/323/442 291/395/371
f 291/395/371 314/323/442 313/322/443 289/396/372
f 288/397/373 289/396/372 313/322/443 312/321/444
f 288/397/376 312/321/445 310/320/446 280/303/377
f 266/229/398 305/330/447 341/329/448 290/398/399
f 264/405/402 265/404/400 325/326/438 304/325/449
f 264/405/403 304/325/450 342/324/441 292/394/370
f 263/227/190 303/318/405 327/317/436 268/400/395
f 255/406/418 300/334/451 306/333/452 270/407/419
f 270/407/419 306/333/452 298/332/422 253/212/175
f 251/210/173 319/336/425 297/335/453 252/410/423
f 252/409/423 297/416/453 300/334/451 255/406/418
f 282/411/426 337/338/440 296/337/424 250/209/172
f 246/204/167 295/345/431 311/344/417 283/305/267
o cucumber.011
v -0.059158 0.060306 -0.053313
v -0.049316 0.071230 -0.046995
v -0.046450 0.076691 -0.040367
v -0.014963 0.079739 -0.038011
v -0.022277 0.017950 -0.059917
v -0.008274 0.073446 -0.050095
v -0.001292 0.071159 -0.053815
v 0.003519 0.051523 -0.052990
v -0.057916 0.054109 0.003348
v -0.046973 0.071870 -0.008311
v -0.039292 0.076833 -0.019892
v -0.028723 0.080182 -0.023815
v -0.020596 0.080118 -0.002931
v -0.009769 0.078099 -0.019870
v -0.008355 0.074392 0.001156
v -0.001394 0.063671 -0.015420
v 0.005880 0.055217 -0.018565
v 0.003070 0.038521 -0.009112
v -0.006336 0.022778 0.000588
v -0.012061 0.018979 -0.033347
v -0.022485 0.014884 0.004619
v -0.024140 0.011674 -0.012807
v -0.030298 0.014881 -0.041023
v -0.039943 0.017414 -0.029854
v -0.056012 0.033554 -0.029684
v -0.027116 0.082748 -0.065006
v -0.059935 0.049028 -0.041125
v -0.042687 0.073599 -0.003987
v -0.052204 0.065306 -0.021114
v -0.062558 0.055698 -0.039175
v -0.018673 0.077087 -0.022501
v -0.003247 0.069827 -0.000756
v 0.000525 0.032330 -0.033461
v -0.007343 0.018694 -0.040901
v -0.026500 0.012157 -0.044022
v -0.062230 0.042091 -0.036083
v -0.035318 0.082101 -0.050062
v 0.007916 0.061896 -0.045055
v -0.023187 0.081368 -0.056726
v -0.057447 0.040190 0.002557
v -0.000027 0.064745 -0.049431
v -0.042863 0.079358 -0.060779
v -0.053254 0.071046 -0.066847
v -0.049321 0.024026 -0.032740
v -0.030978 0.077195 -0.013563
v -0.008820 0.024019 -0.062354
v -0.047339 0.071245 -0.002369
v -0.005633 0.071545 -0.024178
v -0.002538 0.071567 -0.053151
v -0.001526 0.071575 -0.056086
v -0.053277 0.071202 -0.067416
v -0.005173 0.071548 -0.000035
v -0.053057 0.071204 -0.066732
v -0.047472 0.071244 -0.009532
v -0.001563 0.033687 -0.067889
v -0.007243 0.026612 -0.067839
v -0.054695 0.036269 -0.067420
v -0.057606 0.042358 -0.067395
v -0.057957 0.043664 -0.067392
v -0.059575 0.054691 -0.067377
v 0.003755 0.057927 -0.067936
v -0.038059 0.085235 -0.067567
v -0.030427 0.083776 -0.067634
v -0.053392 0.070900 -0.067432
v -0.060486 0.057176 -0.067369
v -0.058124 0.042970 -0.067390
v 0.004500 0.060199 -0.067942
v 0.001606 0.065463 -0.067917
v 0.003068 0.060824 -0.067930
v -0.042760 0.080873 -0.067526
v -0.009908 0.024569 -0.067815
v -0.044764 0.080404 -0.067508
v -0.045635 0.078743 -0.067500
v 0.000177 0.071587 -0.067904
v -0.033575 0.019581 -0.067607
v -0.036785 0.020891 -0.067578
v -0.045627 0.025760 -0.067500
v -0.057291 0.040109 -0.067397
v -0.020838 0.019986 -0.067719
v -0.026691 0.019411 -0.067667
v 0.003628 0.051653 -0.067935
v -0.002740 0.073732 -0.067878
v 0.000859 0.071085 -0.067910
v -0.053908 0.070495 -0.067427
v -0.026628 0.083913 -0.067668
v -0.027503 0.083963 -0.067660
v -0.024496 0.083534 -0.067687
v 0.001799 0.040036 -0.067919
v 0.002663 0.045675 -0.067926
v -0.004554 0.074461 -0.067862
v -0.016323 0.084588 -0.067759
v -0.019411 0.083987 -0.067731
v -0.060585 0.063034 -0.067368
v -0.060126 0.064434 -0.067372
v 0.002264 0.041606 -0.067923
v -0.048436 0.027633 -0.067476
v 0.000698 0.068893 -0.067909
v -0.007133 0.081180 -0.067840
v -0.014088 0.082040 -0.067778
v -0.059258 0.059186 -0.067380
v -0.057580 0.041379 0.006176
v -0.057981 0.053847 0.006178
v -0.051177 0.027018 0.006139
v -0.053703 0.030604 0.006154
v -0.043843 0.020520 0.006097
v -0.048376 0.023729 0.006123
v -0.014279 0.018615 0.005927
v -0.022193 0.015038 0.005973
v -0.006723 0.021941 0.005884
v -0.009774 0.018533 0.005901
v -0.000803 0.031581 0.005850
v -0.006018 0.023451 0.005880
v 0.002983 0.058602 0.005828
v 0.005062 0.056186 0.005816
v -0.003018 0.068014 0.005862
v -0.002150 0.064276 0.005857
v -0.033713 0.076713 0.006039
v -0.029972 0.078932 0.006017
v -0.028798 0.080577 0.006011
v -0.038547 0.075147 0.006067
v -0.036039 0.076582 0.006052
v -0.048101 0.071240 0.006121
v -0.048605 0.073107 0.006124
v -0.057489 0.055080 0.006175
v -0.052466 0.065549 0.006147
v 0.003157 0.051720 0.005827
v 0.003032 0.042542 0.005828
v -0.050001 0.067541 0.006132
v -0.047415 0.073445 0.006118
v -0.042938 0.074362 0.006092
v -0.022762 0.014959 0.005976
v -0.031725 0.016272 0.006027
v -0.037204 0.017569 0.006059
v -0.056728 0.038607 0.006171
v -0.057455 0.040355 0.006175
v -0.057890 0.040920 0.006178
v -0.005899 0.071543 0.005879
v -0.008424 0.073933 0.005893
v 0.002516 0.038071 0.005831
v 0.000410 0.033840 0.005843
v 0.004012 0.038746 0.005822
v 0.003147 0.040086 0.005827
v 0.004665 0.053818 0.005818
v -0.009485 0.074599 0.005900
v -0.015124 0.079113 0.005932
v -0.018247 0.079691 0.005950
v -0.020966 0.079747 0.005966
v -0.058130 0.054492 0.006179
v -0.022606 0.014902 0.005975
v -0.047862 0.070352 0.006120
vn -0.9691 -0.2326 0.0817
vn -0.9764 0.2151 -0.0166
vn -0.9962 -0.0874 -0.0058
vn 0.1516 -0.9882 0.0240
vn -0.3693 -0.9266 -0.0706
vn -0.0784 -0.9915 0.1034
vn 0.3141 -0.6479 0.6939
vn 0.2193 -0.9750 -0.0367
vn 0.2178 -0.7431 0.6327
vn 0.2767 -0.7150 0.6420
vn 0.8051 -0.5930 -0.0089
vn 0.6119 -0.3937 0.6860
vn 0.6225 -0.3727 0.6882
vn 0.8681 -0.4955 -0.0280
vn 0.6167 -0.3384 0.7107
vn 0.7484 0.1368 0.6490
vn 0.9968 -0.0738 0.0317
vn 0.8683 0.4932 0.0537
vn 0.5005 0.4345 0.7487
vn 0.6808 0.3009 0.6678
vn 0.8507 0.5226 0.0572
vn 0.6463 0.2919 0.7050
vn -0.2176 0.7371 0.6398
vn -0.5016 0.5500 0.6677
vn -0.5026 0.8638 0.0340
vn -0.6616 -0.2060 0.7210
vn -0.7067 0.3911 0.5896
vn -0.6825 0.7308 -0.0060
vn -0.9910 0.1313 -0.0249
vn 0.3071 0.9517 0.0021
vn 0.2984 0.9504 0.0874
vn 0.0362 0.9926 0.1162
vn 0.5182 0.8531 0.0615
vn 0.4001 0.9101 0.1078
vn 0.6211 0.7814 0.0603
vn 0.9120 0.4091 -0.0295
vn 0.8346 0.5499 0.0332
vn 0.9773 -0.2114 -0.0169
vn 0.6988 -0.7127 -0.0608
vn 0.5587 -0.8234 -0.0992
vn 0.0364 -0.9938 -0.1050
vn 0.2580 -0.9538 -0.1540
vn -0.3078 -0.5989 -0.7393
vn -0.4118 -0.9110 -0.0214
vn -0.3726 -0.5784 -0.7257
vn -0.6702 -0.2265 -0.7068
vn -0.8311 -0.5549 0.0367
vn -0.6390 -0.3186 -0.7001
vn -0.6343 0.5043 -0.5860
vn -0.4663 0.5428 -0.6985
vn -0.7449 0.6564 0.1196
vn -0.9776 0.1689 0.1257
vn -0.9149 0.3993 0.0587
vn -0.7648 0.6403 0.0706
vn -0.6934 0.7204 0.0157
vn -0.3101 0.9422 0.1267
vn -0.2361 0.9678 0.0869
vn 0.1476 0.9889 -0.0192
vn 0.6369 0.7709 -0.0077
vn 0.6715 0.0083 0.7409
vn 0.9753 -0.2208 -0.0047
vn 0.7102 -0.1885 0.6783
vn -0.9932 -0.1163 0.0040
vn -0.2056 0.7555 0.6220
vn -0.1823 0.7356 0.6525
vn -0.3421 0.9387 0.0425
vn 0.5224 0.4595 0.7183
vn 0.4308 0.5208 0.7370
vn 0.3995 0.5158 0.7579
vn 0.2820 0.7497 0.5987
vn 0.0671 0.7831 0.6182
vn 0.0595 0.7101 0.7016
vn -0.3112 0.7291 0.6096
vn -0.1793 0.7021 0.6891
vn -0.2921 0.6599 0.6922
vn -0.8164 0.1599 0.5550
vn -0.5438 0.5350 0.6466
vn -0.5349 0.4805 0.6949
vn -0.6043 0.4848 0.6323
vn -0.7914 0.2728 0.5471
vn -0.7519 -0.0409 0.6581
vn -0.7605 0.2365 0.6047
vn -0.8521 -0.0556 0.5204
vn -0.6692 -0.3513 0.6548
vn -0.6859 -0.2830 0.6704
vn -0.6708 -0.3643 0.6460
vn -0.5951 -0.4109 0.6907
vn -0.4770 -0.5066 0.7182
vn -0.3835 -0.5890 0.7114
vn -0.2463 -0.6941 0.6764
vn -0.1102 -0.7423 0.6610
vn -0.1918 -0.7181 0.6690
vn -0.0527 -0.7836 0.6190
vn 0.6122 -0.3519 0.7080
vn 0.5146 -0.5679 0.6424
vn 0.8321 -0.2324 0.5036
vn 0.7136 0.2622 0.6496
vn 0.7299 -0.3262 0.6008
vn 0.1298 0.8078 -0.5750
vn -0.0571 0.8576 -0.5112
vn 0.0963 0.9688 0.2282
vn -0.0383 0.8078 -0.5882
vn 0.0844 0.8353 -0.5433
vn -0.7076 -0.1744 -0.6848
vn -0.6922 0.0185 -0.7214
vn 0.7421 0.6563 0.1361
vn 0.4704 0.8797 0.0691
vn -0.2654 0.9570 0.1174
vn -0.8171 0.5729 0.0644
vn -0.5622 0.8127 0.1533
vn -0.7020 -0.7099 -0.0577
vn -0.4854 -0.5114 -0.7091
vn 0.4506 -0.4814 -0.7518
vn 0.3359 -0.6209 -0.7082
vn 0.4678 0.6732 -0.5727
vn 0.5244 0.7764 -0.3497
vn -0.4531 0.7036 -0.5474
vn -0.3604 0.7992 -0.4811
vn -0.6218 0.4649 -0.6303
vn -0.7229 0.6665 0.1823
vn -0.6052 0.5072 -0.6136
vn -0.7871 0.0348 -0.6158
vn -0.7710 0.0801 -0.6317
vn -0.7998 0.5963 0.0692
vn 0.6439 0.7601 0.0874
vn 0.6852 0.7253 0.0659
vn -0.5472 -0.3951 -0.7379
vn -0.6726 0.4117 -0.6149
vn -0.7804 0.1612 -0.6042
vn -0.7100 -0.1939 -0.6770
vn -0.2534 0.8307 -0.4958
vn -0.1494 0.7512 -0.6430
vn 0.2322 0.8359 -0.4974
vn 0.5347 0.6220 -0.5721
vn 0.3477 0.7170 -0.6041
vn 0.4120 0.6408 -0.6478
vn 0.7277 0.3870 -0.5663
vn 0.7721 0.1250 -0.6231
vn 0.6320 0.2076 -0.7466
vn 0.4640 0.5349 -0.7061
vn 0.7136 0.3266 -0.6198
vn 0.6698 -0.1217 -0.7325
vn 0.6943 -0.0484 -0.7180
vn 0.6787 -0.0888 -0.7290
vn 0.6864 -0.1486 -0.7119
vn 0.6514 -0.2677 -0.7099
vn 0.5721 -0.3868 -0.7232
vn 0.1739 -0.6899 -0.7027
vn 0.0437 -0.6868 -0.7255
vn -0.1666 -0.7455 -0.6453
vt 0.320286 0.186606
vt 0.382663 0.221885
vt 0.345033 0.267969
vt 0.061372 0.504592
vt 0.020135 0.462248
vt 0.050145 0.492649
vt 0.063001 0.505488
vt 0.098928 0.452764
vt 0.098405 0.494083
vt 0.112702 0.489085
vt 0.130982 0.474652
vt 0.129102 0.481318
vt 0.133761 0.478846
vt 0.168990 0.422778
vt 0.166485 0.464244
vt 0.798022 0.359775
vt 0.794356 0.327585
vt 0.830580 0.312671
vt 0.808391 0.354262
vt 0.841563 0.337856
vt 0.865390 0.310276
vt 0.859309 0.324996
vt 0.554587 0.275294
vt 0.575459 0.279456
vt 0.566746 0.302004
vt 0.478486 0.262332
vt 0.479885 0.263055
vt 0.487010 0.284590
vt 0.483227 0.275284
vt 0.955627 0.278139
vt 0.935477 0.247034
vt 0.978135 0.231609
vt 0.880533 0.283715
vt 0.861062 0.247385
vt 0.897288 0.254324
vt 0.799465 0.284397
vt 0.831505 0.270397
vt 0.263798 0.377278
vt 0.240431 0.341511
vt 0.275624 0.317956
vt 0.117541 0.447232
vt 0.117510 0.411763
vt 0.037740 0.462911
vt 0.060520 0.431954
vt 0.638093 0.337477
vt 0.640429 0.286380
vt 0.675554 0.347933
vt 0.752512 0.384094
vt 0.736625 0.327185
vt 0.754088 0.389701
vt 0.444706 0.356230
vt 0.442108 0.355073
vt 0.445684 0.355808
vt 0.374340 0.283963
vt 0.398361 0.312696
vt 0.465944 0.328030
vt 0.495157 0.336975
vt 0.526449 0.307966
vt 0.552555 0.361624
vt 0.969431 0.296186
vt 0.913912 0.275068
vt 0.218823 0.442838
vt 0.202127 0.434996
vt 0.251129 0.416778
vt 0.755265 0.300288
vt 0.758206 0.336166
vt 0.485660 0.263836
vt 0.508683 0.271714
vt 0.508033 0.281232
vt 0.879279 0.319386
vt 0.894944 0.317861
vt 0.903589 0.318021
vt 0.937220 0.311258
vt 0.954394 0.310157
vt 0.610404 0.286621
vt 0.583904 0.284411
vt 0.543400 0.274603
vt 0.529994 0.271659
vt 0.477822 0.261988
vt 0.456926 0.254974
vt 0.438323 0.249082
vt 0.387465 0.220724
vt 0.384111 0.219088
vt 0.382078 0.217284
vt 0.326350 0.184706
vt 0.323867 0.183588
vt 0.755702 0.297659
vt 0.750224 0.292712
vt 0.725703 0.277049
vt 0.708064 0.267733
vt 0.687537 0.260449
vt 0.663727 0.252567
vt 0.635874 0.244372
vt 0.028272 0.518643
vt 0.060750 0.506536
vt 0.061484 0.506117
vt 0.176398 0.459498
vt 0.199380 0.451009
vt 0.203907 0.450232
vt 0.207362 0.448589
vt 0.261154 0.411910
vt 0.591651 0.388243
vt 0.588939 0.388821
vt 0.591618 0.381900
vt 0.998100 0.111284
vt 0.999497 0.113107
vt 0.986364 0.130382
vt 0.580139 0.390315
vt 0.317469 0.285893
vt 0.319524 0.244958
vt 0.320107 0.287571
vt 0.853190 0.245877
vt 0.855819 0.242078
vt 0.582183 0.325521
vt 0.275088 0.409343
vt 0.321596 0.182662
vt 0.436349 0.284951
vt 0.510014 0.362624
vt 0.606791 0.365668
vt 0.689467 0.306011
vt 0.690109 0.352583
vt 0.315910 0.286819
vt 0.298688 0.249138
vt 0.127131 0.399730
vt 0.113402 0.403742
vt 0.931793 0.204258
vt 0.904977 0.205467
vt 0.504034 0.375913
vt 0.516299 0.378708
vt 0.445939 0.356955
vt 0.446905 0.355937
vt 0.496498 0.371475
vt 0.400800 0.335942
vt 0.390215 0.326108
vt 0.482179 0.284624
vt 0.610253 0.298926
vt 0.896231 0.310449
vt 0.877019 0.310341
vt 0.734006 0.374274
vt 0.406222 0.339122
vt 0.378927 0.320749
vt 0.368057 0.313956
vt 0.550649 0.397970
vt 0.960177 0.202738
vt 0.944742 0.195587
vt 0.881381 0.222931
vt 0.869466 0.222355
vt 0.852234 0.226463
vt 0.848204 0.227424
vt 0.842962 0.230054
vt 0.830980 0.239485
vt 0.816008 0.257356
vt 0.810114 0.259145
vt 0.255886 0.301015
vt 0.231422 0.325468
vt 0.211655 0.344747
vt 0.195098 0.358634
vt 0.188745 0.362717
vt 0.160009 0.382809
vt 0.067278 0.416930
vt 0.042946 0.418110
vt 0.012429 0.416945
vt 0.005761 0.410619
vt 0.986349 0.202077
vt 0.976519 0.197007
vt 0.000478 0.459421
vt 0.263043 0.293574
vt 0.970334 0.305950
vt 0.613812 0.263517
vt 0.621237 0.225645
s 1
usemtl Material.039
f 382/417/454 351/418/455 369/419/456
f 363/420/457 365/421/458 364/422/459
f 450/423/460 363/420/457 362/424/461 449/425/462
f 452/426/463 362/424/461 361/427/464 451/428/465
f 454/429/466 361/427/464 375/430/467 453/431/468
f 456/432/469 359/433/470 358/434/471 455/435/472
f 458/436/473 358/434/471 374/437/474 457/438/475
f 459/439/476 460/440/477 387/441/478
f 464/442/479 465/443/480 352/444/481 389/445/482
f 373/446/483 346/447/484 381/448/485
f 390/449/486 391/450/487 348/451/488
f 358/434/471 380/452/489 383/453/490
f 359/454/470 350/455/491 380/456/489
f 361/427/464 376/457/492 388/458/493
f 377/459/494 365/421/458 347/460/495
f 418/461/496 366/462/497 419/463/498
f 420/464/499 367/465/500 400/466/501
f 406/467/502 426/468/503 385/469/504
f 369/419/456 351/418/455 372/470/505
f 372/470/505 351/418/455 343/471/506
f 344/472/507 352/444/481 345/473/508
f 353/474/509 387/441/478 379/475/510
f 355/476/511 373/446/483 381/448/485
f 373/446/483 356/477/512 346/447/484
f 358/434/471 359/433/470 380/452/489
f 469/478/513 360/479/514 350/455/491 468/480/515
f 363/420/457 347/460/495 362/424/461
f 367/465/500 382/481/454 378/482/516
f 471/483/517 472/484/518 370/485/519
f 454/429/466 451/428/465 361/427/464
f 457/438/475 479/486/520 480/487/521 486/488/522 487/489/523 488/490/524 489/491/525 461/492/526 460/440/477 459/439/476 463/493/527 462/494/528 472/484/518 471/483/517 465/443/480 464/442/479 492/495/529 470/496/530 467/497/531 466/498/532 490/499/533 444/500/534 443/501/535 478/502/536 477/503/537 476/504/538 446/505/539 445/506/540 448/507/541 447/508/542 475/509/543 474/510/544 473/511/545 491/512/546 450/423/460 449/425/462 452/426/463 451/428/465 454/429/466 453/431/468 482/513/547 481/514/548 483/515/549 484/516/550 469/478/513 468/480/515 485/517/551 456/432/469 455/435/472 458/436/473
f 476/504/538 477/503/537 382/481/454
f 427/518/552 428/519/553 368/520/554
f 427/521/552 368/522/554 429/523/555
f 405/524/556 368/520/554 428/519/553
f 408/525/557 378/526/516 369/419/456 401/527/558
f 362/424/461 347/460/495 388/458/493
f 391/450/487 349/528/559 392/529/560
f 379/475/510 354/530/561 368/520/554
f 482/513/547 453/431/468 375/430/467
f 483/515/549 481/514/548 360/479/514
f 469/478/513 484/516/550 360/479/514
f 484/516/550 483/515/549 360/479/514
f 456/531/469 485/517/551 359/454/470
f 458/436/473 455/435/472 358/434/471
f 487/489/523 356/477/512 373/446/483 355/476/511 488/490/524
f 477/532/537 478/502/536 382/417/454
f 383/453/490 349/528/559 374/437/474 358/434/471
f 385/469/504 371/533/562 344/472/507
f 384/534/563 345/473/508 353/474/509
f 384/534/563 353/474/509 379/475/510
f 379/475/510 387/441/478 354/530/561
f 368/520/554 354/530/561 381/535/485
f 346/447/484 356/477/512 348/451/488
f 375/430/467 361/427/464 388/458/493
f 388/458/493 376/457/492 362/424/461
f 419/463/498 366/462/497 386/536/564 438/537/565
f 400/538/501 367/539/500 378/526/516 408/525/557
f 398/540/566 388/458/493 413/541/567
f 441/542/568 348/451/488 440/543/569
f 353/474/509 345/473/508 352/444/481 370/485/519
f 414/544/570 384/534/563 412/545/571
f 393/546/572 385/469/504 395/547/573
f 414/544/570 415/548/574 384/534/563
f 435/549/575 442/550/576 343/471/506
f 343/471/506 351/418/455 371/533/562
f 344/472/507 371/533/562 396/551/577
f 396/551/577 389/445/482 352/444/481
f 377/459/494 347/460/495 363/420/457 364/422/459
f 354/530/561 355/552/511 381/535/485
f 356/477/512 357/553/578 348/451/488
f 394/554/579 374/437/474 390/449/486
f 361/427/464 362/424/461 376/457/492
f 377/459/494 364/422/459 365/421/458
f 378/526/516 382/417/454 369/419/456
f 450/423/460 491/512/546 363/420/457
f 438/537/565 386/536/564 399/555/580
f 344/472/507 384/534/563 395/547/573
f 384/534/563 344/472/507 345/473/508
f 436/556/581 371/533/562 385/469/504 426/468/503
f 407/557/582 372/470/505 343/471/506 442/550/576
f 400/538/501 408/525/557 401/527/558 402/558/583 407/557/582 442/550/576 435/549/575 436/556/581 426/468/503 406/467/502 393/546/572 415/548/574 414/544/570 412/545/571 404/559/584 405/524/556 428/519/553 427/518/552 429/523/555 434/560/585 433/561/586 441/542/568 440/543/569 432/562/587 424/563/588 416/564/589 425/565/590 439/566/591 410/567/592 411/568/593 409/569/594 403/570/595 423/571/596 431/572/597 437/573/598 430/574/599 397/575/600 398/540/566 413/541/567 421/576/601 422/577/602 417/578/603 418/579/496 419/463/498 438/537/565 399/555/580 420/464/499
f 393/546/572 395/547/573 384/534/563 415/548/574
f 406/467/502 385/469/504 393/546/572
f 385/469/504 344/472/507 395/547/573
f 352/444/481 344/472/507 396/551/577
f 374/437/474 349/528/559 391/450/487 390/449/486
f 357/553/578 394/554/579 390/449/486 348/451/488
f 492/495/529 464/442/479 389/445/482
f 401/527/558 369/419/456 402/558/583
f 343/471/506 371/533/562 436/556/581 435/549/575
f 346/447/484 433/561/586 434/560/585 381/448/485
f 346/447/484 348/451/488 441/542/568 433/561/586
f 348/451/488 432/562/587 440/543/569
f 350/455/491 360/479/514 437/573/598 431/572/597
f 360/479/514 375/430/467 430/574/599 437/573/598
f 368/580/554 381/448/485 434/560/585 429/581/555
f 349/528/559 439/566/591 425/565/590
f 348/451/488 391/450/487 392/529/560 424/563/588 432/562/587
f 350/455/491 431/572/597 423/571/596
f 347/460/495 422/577/602 421/576/601
f 365/421/458 366/582/497 418/579/496 417/578/603
f 347/460/495 365/421/458 417/578/603 422/577/602
f 349/528/559 425/565/590 416/564/589 392/529/560
f 392/529/560 416/564/589 424/563/588
f 388/458/493 347/460/495 421/576/601 413/541/567
f 383/453/490 411/568/593 410/567/592
f 349/528/559 383/453/490 410/567/592 439/566/591
f 383/453/490 380/452/489 409/569/594 411/568/593
f 379/475/510 368/520/554 405/524/556 404/559/584
f 379/475/510 404/559/584 412/545/571 384/534/563
f 380/456/489 350/455/491 403/570/595 409/583/594
f 350/455/491 423/571/596 403/570/595
f 369/419/456 372/470/505 407/557/582 402/558/583
f 386/536/564 367/465/500 420/464/499 399/555/580
f 375/430/467 388/458/493 398/540/566 397/575/600
f 375/430/467 397/575/600 430/574/599
f 355/476/511 489/584/525 488/490/524
f 357/553/578 356/477/512 487/489/523 486/488/522
f 360/479/514 481/514/548 482/513/547 375/430/467
f 357/553/578 486/488/522 480/487/521
f 394/554/579 357/553/578 480/487/521 479/486/520
f 365/585/458 474/586/544 475/509/543 366/462/497
f 363/420/457 473/511/545 474/510/544 365/421/458
f 363/420/457 491/512/546 473/511/545
f 371/533/562 470/496/530 492/495/529 389/445/482 396/551/577
f 359/454/470 485/517/551 468/480/515 350/455/491
f 371/533/562 467/497/531 470/496/530
f 351/418/455 466/498/532 467/497/531 371/533/562
f 351/418/455 490/499/533 466/498/532
f 352/444/481 465/443/480 471/483/517 370/485/519
f 370/485/519 462/494/528 463/493/527 353/474/509
f 370/485/519 472/484/518 462/494/528
f 355/552/511 354/530/561 461/492/526 489/491/525
f 387/441/478 460/440/477 461/492/526 354/530/561
f 353/474/509 463/493/527 459/439/476 387/441/478
f 374/437/474 394/554/579 479/486/520 457/438/475
f 362/424/461 452/426/463 449/425/462
f 366/462/497 447/508/542 448/507/541 386/536/564
f 366/462/497 475/509/543 447/508/542
f 367/465/500 446/505/539 476/504/538 382/481/454
f 386/536/564 445/506/540 446/505/539 367/465/500
f 386/536/564 448/507/541 445/506/540
f 351/418/455 444/500/534 490/499/533
f 382/417/454 443/501/535 444/500/534 351/418/455
f 382/417/454 478/502/536 443/501/535
