# Blender 4.5.3 LTS
# www.blender.org
mtllib cucumber_1cut_final.mtl
o cucumber
v -0.048105 0.077074 0.136796
v -0.045464 0.035449 0.129816
v -0.051505 0.042318 0.130650
v -0.057382 0.047422 0.131106
v -0.055759 0.052720 0.130805
v -0.003635 0.070109 0.144327
v -0.044965 0.052270 0.156433
v -0.018044 0.058801 0.168564
v -0.030405 0.065790 0.170352
v -0.027326 0.059517 0.170545
v -0.061976 0.048506 0.080064
v -0.054326 0.069446 0.094231
v 0.003411 0.045470 0.057236
v -0.049288 0.029904 0.086696
v -0.038548 0.025076 0.102770
v -0.059158 0.060306 -0.053313
v -0.049316 0.071230 -0.046995
v -0.046450 0.076691 -0.040367
v -0.014963 0.079739 -0.038011
v -0.022277 0.017950 -0.059917
v -0.008274 0.073446 -0.050095
v -0.001292 0.071159 -0.053815
v 0.003519 0.051523 -0.052990
v -0.057916 0.054109 0.003348
v -0.048788 0.068772 0.021139
v -0.046973 0.071870 -0.008311
v -0.039292 0.076833 -0.019892
v -0.028723 0.080182 -0.023815
v -0.020596 0.080118 -0.002931
v -0.009769 0.078099 -0.019870
v -0.008355 0.074392 0.001156
v -0.001394 0.063671 -0.015420
v 0.005880 0.055217 -0.018565
v 0.003070 0.038521 -0.009112
v -0.006336 0.022778 0.000588
v -0.012061 0.018979 -0.033347
v -0.022485 0.014884 0.004619
v -0.024140 0.011674 -0.012807
v -0.030298 0.014881 -0.041023
v -0.039943 0.017414 -0.029854
v -0.056012 0.033554 -0.029684
v -0.058665 0.051102 0.035781
v -0.061498 0.060535 0.050813
v -0.045300 0.078525 0.067587
v -0.044017 0.077635 0.049316
v -0.030504 0.080407 0.065716
v -0.022352 0.081026 0.080096
v 0.006069 0.039237 0.038447
v -0.010006 0.022885 0.059756
v -0.015925 0.018345 0.035068
v -0.027997 0.015706 0.066363
v -0.033284 0.017792 0.057462
v -0.054337 0.025545 0.056241
v -0.027116 0.082748 -0.065006
v -0.059935 0.049028 -0.041125
v -0.045199 0.082155 0.133445
v -0.032917 0.087778 0.135762
v -0.025080 0.088477 0.133288
v -0.012449 0.082775 0.130572
v 0.001432 0.055825 0.124881
v -0.003088 0.048297 0.139363
v -0.007732 0.034806 0.121869
v -0.014783 0.029775 0.123360
v -0.049989 0.038215 0.137250
v -0.028245 0.082990 0.153825
v -0.012888 0.080383 0.148864
v -0.004493 0.064664 0.152888
v -0.015935 0.043036 0.156853
v -0.027572 0.038486 0.152903
v -0.046278 0.044532 0.153708
v -0.024118 0.064854 0.170471
v -0.036125 0.061048 0.169000
v -0.034035 0.050854 0.165014
v -0.013992 0.072023 0.162683
v -0.029996 0.070368 0.169498
v -0.040413 0.077640 0.156543
v -0.028852 0.080866 0.027824
v -0.021840 0.078868 0.027010
v -0.008729 0.071921 0.026680
v -0.002589 0.064627 0.018228
v 0.006871 0.060148 0.039893
v -0.008420 0.018269 0.029126
v -0.042687 0.073599 -0.003987
v -0.048984 0.073394 0.009472
v -0.052204 0.065306 -0.021114
v -0.057567 0.061399 0.087292
v -0.052573 0.068547 0.072160
v -0.038789 0.081013 0.101060
v -0.034744 0.083578 0.082906
v 0.000304 0.034588 0.093242
v -0.021399 0.021334 0.103640
v -0.059087 0.039889 0.101667
v -0.057626 0.043905 0.084206
v -0.056865 0.055814 0.079801
v -0.053721 0.064268 0.139138
v -0.056456 0.067721 0.121129
v -0.028557 0.088395 0.115614
v 0.000346 0.065218 0.115861
v -0.028341 0.026224 0.119534
v -0.040011 0.037548 0.146277
v -0.018049 0.083794 0.094496
v -0.060992 0.055484 0.114671
v -0.062558 0.055698 -0.039175
v -0.018673 0.077087 -0.022501
v -0.003247 0.069827 -0.000756
v 0.000525 0.032330 -0.033461
v -0.007343 0.018694 -0.040901
v -0.026500 0.012157 -0.044022
v -0.062230 0.042091 -0.036083
v -0.035318 0.082101 -0.050062
v 0.007916 0.061896 -0.045055
v -0.023187 0.081368 -0.056726
v -0.034939 0.076497 0.014829
v -0.016499 0.079373 0.012558
v 0.004770 0.056532 0.014505
v -0.057447 0.040190 0.002557
v -0.051254 0.077787 0.070840
v -0.013567 0.077433 0.065018
v -0.004880 0.076102 0.143596
v 0.001769 0.060283 0.066681
v 0.002945 0.051836 0.040356
v -0.061600 0.047035 0.036494
v -0.033871 0.081583 0.050734
v 0.000229 0.036211 0.067558
v -0.002682 0.030521 0.061455
v -0.047546 0.023469 0.040227
v -0.052253 0.028751 0.028668
v -0.000027 0.064745 -0.049431
v -0.042863 0.079358 -0.060779
v -0.053254 0.071046 -0.066847
v -0.047589 0.079111 0.103951
v -0.047646 0.055444 0.157138
v -0.049321 0.024026 -0.032740
v -0.030978 0.077195 -0.013563
v -0.052767 0.065829 0.037459
v -0.011401 0.074951 0.013942
v -0.008820 0.024019 -0.062354
v -0.051174 0.071217 0.092402
v -0.051314 0.071216 0.080193
v -0.002702 0.071566 0.132037
v -0.003936 0.071557 0.144150
v -0.042486 0.071280 0.156714
v -0.046773 0.071249 0.148225
v -0.019585 0.071445 0.165065
v -0.028264 0.071382 0.167408
v -0.011189 0.071505 0.157716
v -0.013304 0.071490 0.161973
v -0.035086 0.071333 0.163893
v -0.038776 0.071307 0.161298
v -0.031416 0.071360 0.167732
v -0.014760 0.071479 0.163274
v -0.047339 0.071245 -0.002369
v -0.048892 0.071234 0.014925
v -0.049591 0.071229 0.050273
v -0.052086 0.071211 0.052482
v -0.002973 0.071564 0.121532
v -0.005633 0.071545 -0.024178
v -0.002538 0.071567 -0.053151
v -0.001526 0.071575 -0.056086
v -0.047905 0.071241 0.032897
v -0.047457 0.071244 0.028998
v -0.003973 0.071557 0.093940
v -0.008396 0.071525 0.026221
v -0.053277 0.071202 -0.067416
v -0.050672 0.071221 0.137866
v -0.053348 0.071202 0.126959
v -0.052891 0.071205 0.104046
v -0.005173 0.071548 -0.000035
v -0.029857 0.071371 0.168253
v -0.052193 0.071210 0.071780
v -0.053057 0.071204 -0.066732
v -0.047472 0.071244 -0.009532
v -0.001563 0.033687 -0.067889
v -0.007243 0.026612 -0.067839
v -0.054695 0.036269 -0.067420
v -0.057606 0.042358 -0.067395
v -0.057957 0.043664 -0.067392
v -0.059575 0.054691 -0.067377
v 0.003755 0.057927 -0.067936
v -0.038059 0.085235 -0.067567
v -0.030427 0.083776 -0.067634
v -0.053392 0.070900 -0.067432
v -0.060486 0.057176 -0.067369
v -0.058124 0.042970 -0.067390
v 0.004500 0.060199 -0.067942
v 0.001606 0.065463 -0.067917
v 0.003068 0.060824 -0.067930
v -0.042760 0.080873 -0.067526
v -0.009908 0.024569 -0.067815
v -0.044764 0.080404 -0.067508
v -0.045635 0.078743 -0.067500
v 0.000177 0.071587 -0.067904
v -0.033575 0.019581 -0.067607
v -0.036785 0.020891 -0.067578
v -0.045627 0.025760 -0.067500
v -0.057291 0.040109 -0.067397
v -0.020838 0.019986 -0.067719
v -0.026691 0.019411 -0.067667
v 0.003628 0.051653 -0.067935
v -0.002740 0.073732 -0.067878
v 0.000859 0.071085 -0.067910
v -0.053908 0.070495 -0.067427
v -0.026628 0.083913 -0.067668
v -0.027503 0.083963 -0.067660
v -0.024496 0.083534 -0.067687
v 0.001799 0.040036 -0.067919
v 0.002663 0.045675 -0.067926
v -0.004554 0.074461 -0.067862
v -0.016323 0.084588 -0.067759
v -0.019411 0.083987 -0.067731
v -0.060585 0.063034 -0.067368
v -0.060126 0.064434 -0.067372
v 0.002264 0.041606 -0.067923
v -0.048436 0.027633 -0.067476
v 0.000698 0.068893 -0.067909
v -0.007133 0.081180 -0.067840
v -0.014088 0.082040 -0.067778
v -0.059258 0.059186 -0.067380
vn -0.7259 0.6877 0.0111
vn -0.9647 0.2512 0.0787
vn -0.8066 0.5904 -0.0291
vn 0.9542 0.2035 0.2193
vn 0.9469 0.2454 0.2077
vn 0.9579 0.2856 0.0292
vn 0.9558 0.2916 0.0368
vn 0.9938 -0.0295 0.1068
vn 0.4777 -0.8452 0.2396
vn 0.0084 -0.8852 0.4652
vn -0.1344 -0.9564 0.2591
vn -0.7354 -0.6426 0.2151
vn -0.5031 -0.8509 0.1514
vn -0.4010 -0.8887 0.2224
vn -0.8394 -0.4922 0.2307
vn -0.9739 -0.1450 0.1745
vn -0.9809 -0.0150 0.1939
vn -0.9450 -0.3191 0.0720
vn -0.6238 0.6547 0.4269
vn -0.3377 0.9392 0.0628
vn -0.5983 0.7998 0.0492
vn 0.0143 0.9113 0.4116
vn 0.2414 0.9694 0.0439
vn 0.4638 0.8440 0.2694
vn 0.5708 0.8211 0.0046
vn 0.9353 0.0632 0.3482
vn 0.8828 -0.3768 0.2806
vn 0.4978 -0.7212 0.4817
vn 0.6482 -0.7323 0.2086
vn -0.7965 -0.4268 0.4284
vn -0.3360 -0.8695 0.3621
vn -0.8292 -0.2438 0.5030
vn -0.8362 0.3291 0.4387
vn -0.9511 0.2172 0.2194
vn -0.8527 0.2476 0.4601
vn 0.2633 0.7027 0.6610
vn 0.2407 0.8193 0.5205
vn -0.2348 0.5327 0.8131
vn 0.6103 0.4486 0.6529
vn 0.8478 0.4503 0.2801
vn 0.8002 0.3637 0.4768
vn 0.7093 0.1917 0.6784
vn 0.6025 -0.1950 0.7739
vn -0.2557 -0.5955 0.7616
vn -0.6625 0.3176 0.6784
vn -0.6308 0.4082 0.6599
vn -0.5484 0.4860 0.6805
vn 0.5591 0.1892 0.8072
vn 0.2565 0.1599 0.9532
vn 0.0132 -0.3427 0.9393
vn -0.3011 0.1396 0.9433
vn -0.5555 0.0193 0.8313
vn -0.6987 -0.4305 0.5714
vn -0.9621 -0.2717 0.0216
vn -0.9928 0.1140 -0.0377
vn -0.9802 0.1981 -0.0029
vn -0.9962 -0.0874 -0.0058
vn -0.7028 -0.7104 -0.0375
vn -0.8770 -0.4800 -0.0218
vn -0.8511 -0.5249 -0.0096
vn -0.4235 -0.9054 -0.0289
vn -0.4686 -0.8827 0.0361
vn 0.1516 -0.9882 0.0240
vn -0.3692 -0.9266 -0.0706
vn -0.0784 -0.9915 0.1034
vn 0.2718 -0.9608 0.0553
vn 0.2193 -0.9750 -0.0367
vn 0.4998 -0.8642 0.0571
vn 0.8051 -0.5930 -0.0089
vn 0.7904 -0.6107 0.0487
vn 0.8681 -0.4955 -0.0280
vn 0.9793 0.2005 -0.0264
vn 0.9968 -0.0738 0.0317
vn 0.8683 0.4932 0.0537
vn 0.7788 0.6273 -0.0004
vn 0.8614 0.5050 0.0543
vn -0.3375 0.9395 -0.0583
vn -0.1064 0.9940 -0.0246
vn -0.5026 0.8638 0.0340
vn -0.2061 0.9764 0.0645
vn -0.3262 0.9453 0.0036
vn -0.3086 0.9466 0.0935
vn -0.9986 -0.0021 0.0537
vn -0.8686 0.4911 -0.0663
vn -0.6825 0.7308 -0.0060
vn -0.9910 0.1313 -0.0249
vn -0.7727 0.6308 -0.0709
vn -0.8037 0.5929 0.0507
vn -0.6561 -0.7536 0.0412
vn -0.9578 -0.2869 0.0174
vn -0.3670 -0.9277 0.0689
vn -0.3718 -0.9139 0.1630
vn 0.2275 -0.9554 0.1884
vn -0.1592 -0.9827 0.0945
vn 0.9949 -0.0964 0.0288
vn 0.9559 0.2916 0.0346
vn 0.9502 0.3110 0.0184
vn 0.7125 0.7012 -0.0280
vn 0.7039 0.7102 0.0120
vn 0.6453 0.7626 0.0455
vn -0.1960 0.9777 -0.0759
vn 0.2327 0.9701 -0.0692
vn -0.1004 0.9928 -0.0656
vn -0.5201 0.8511 -0.0714
vn -0.7216 0.6700 -0.1745
vn -0.6798 0.7284 -0.0858
vn -0.4019 0.9121 -0.0806
vn -0.5007 0.8479 -0.1742
vn -0.9642 0.2644 -0.0199
vn -0.7168 0.6961 -0.0404
vn 0.7860 -0.6102 0.0990
vn 0.5395 -0.8329 0.1233
vn 0.9980 0.0542 0.0325
vn 0.8959 0.4442 -0.0043
vn -0.4333 0.9000 -0.0472
vn -0.6602 0.7510 -0.0127
vn -0.9656 0.2508 0.0692
vn -0.9963 -0.0483 0.0715
vn -0.9882 -0.1506 0.0264
vn -0.9882 0.1339 0.0743
vn -0.9799 0.1990 0.0136
vn 0.3084 0.9513 0.0030
vn 0.2984 0.9504 0.0874
vn 0.0362 0.9926 0.1162
vn 0.5182 0.8531 0.0615
vn 0.4001 0.9101 0.1078
vn 0.6211 0.7814 0.0603
vn 0.9120 0.4091 -0.0295
vn 0.8346 0.5498 0.0332
vn 0.9773 -0.2114 -0.0169
vn 0.6988 -0.7127 -0.0608
vn 0.5586 -0.8234 -0.0992
vn 0.0364 -0.9938 -0.1050
vn 0.2580 -0.9538 -0.1540
vn -0.3078 -0.5989 -0.7393
vn -0.3726 -0.5784 -0.7257
vn -0.6702 -0.2265 -0.7068
vn -0.6390 -0.3186 -0.7001
vn -0.6343 0.5043 -0.5860
vn -0.4662 0.5428 -0.6985
vn -0.7449 0.6564 0.1196
vn -0.9776 0.1689 0.1257
vn -0.9149 0.3993 0.0587
vn -0.7648 0.6403 0.0706
vn -0.6934 0.7204 0.0157
vn -0.2361 0.9678 0.0869
vn 0.1792 0.9837 -0.0134
vn 0.6383 0.7697 -0.0063
vn 0.9753 -0.2208 -0.0047
vn -0.9932 -0.1163 0.0040
vn -0.8374 0.5459 -0.0274
vn -0.7744 0.6170 -0.1396
vn -0.8920 0.4503 -0.0409
vn -0.0517 0.9986 -0.0140
vn 0.3335 0.9395 -0.0777
vn 0.2538 0.9672 -0.0062
vn 0.8059 0.5913 0.0279
vn 0.7271 0.6864 -0.0146
vn -0.9954 0.0723 -0.0626
vn 0.1298 0.8078 -0.5750
vn -0.0571 0.8576 -0.5112
vn 0.0963 0.9688 0.2282
vn -0.0383 0.8078 -0.5882
vn 0.0844 0.8353 -0.5432
vn -0.7076 -0.1744 -0.6848
vn -0.6922 0.0185 -0.7214
vn 0.7421 0.6563 0.1361
vn 0.4704 0.8797 0.0691
vn -0.8373 0.4359 0.3301
vn -0.8569 0.4968 0.1375
vn -0.8363 0.5329 0.1291
vn -0.6698 0.7425 -0.0111
vn -0.0119 0.9967 -0.0809
vn 0.7214 0.6920 0.0271
vn 0.6718 0.7391 0.0499
vn 0.1025 0.7495 0.6541
vn 0.9318 -0.3620 0.0281
vn 0.9618 -0.2732 0.0151
vn -0.9850 0.1723 0.0092
vn -0.0706 0.9914 -0.1105
vn -0.5622 0.8127 0.1533
vn -0.4854 -0.5114 -0.7092
vn 0.4506 -0.4814 -0.7518
vn 0.3359 -0.6209 -0.7082
vn 0.4678 0.6732 -0.5727
vn 0.5244 0.7764 -0.3497
vn -0.4531 0.7036 -0.5474
vn -0.3604 0.7992 -0.4811
vn -0.6218 0.4649 -0.6303
vn -0.7229 0.6665 0.1823
vn -0.6052 0.5072 -0.6136
vn -0.7871 0.0348 -0.6158
vn -0.7710 0.0801 -0.6317
vn -0.7998 0.5963 0.0692
vn -0.5472 -0.3951 -0.7379
vn -0.6726 0.4117 -0.6149
vn -0.7804 0.1612 -0.6042
vn -0.7100 -0.1939 -0.6770
vn -0.2534 0.8307 -0.4958
vn -0.1494 0.7512 -0.6430
vn 0.2322 0.8359 -0.4974
vn 0.5347 0.6220 -0.5721
vn 0.3477 0.7170 -0.6041
vn 0.4120 0.6408 -0.6478
vn 0.7277 0.3870 -0.5663
vn 0.7721 0.1250 -0.6231
vn 0.6320 0.2076 -0.7467
vn 0.4640 0.5349 -0.7061
vn 0.7136 0.3266 -0.6198
vn 0.6698 -0.1217 -0.7325
vn 0.6943 -0.0484 -0.7180
vn 0.6787 -0.0888 -0.7290
vn 0.6863 -0.1486 -0.7119
vn 0.6514 -0.2677 -0.7099
vn 0.5721 -0.3868 -0.7232
vn 0.1739 -0.6899 -0.7027
vn 0.0437 -0.6868 -0.7255
vn -0.1666 -0.7455 -0.6453
vt 0.464810 0.156346
vt 0.466304 0.168136
vt 0.455271 0.172382
vt 0.887074 0.492709
vt 0.882804 0.496982
vt 0.854363 0.473377
vt 0.881257 0.476832
vt 0.290422 0.551330
vt 0.292798 0.579628
vt 0.247531 0.554361
vt 0.141664 0.593125
vt 0.137876 0.653916
vt 0.091156 0.628070
vt 0.730497 0.136582
vt 0.705981 0.180482
vt 0.714069 0.135866
vt 0.748698 0.142745
vt 0.378753 0.051006
vt 0.394869 0.062796
vt 0.352971 0.066324
vt 0.515944 0.089302
vt 0.567467 0.131512
vt 0.512678 0.131298
vt 0.574612 0.095276
vt 0.605051 0.130125
vt 0.985923 0.486506
vt 0.940016 0.481405
vt 0.996627 0.442628
vt 0.938330 0.451729
vt 0.272568 0.599051
vt 0.214124 0.581878
vt 0.173962 0.621436
vt 0.171601 0.579317
vt 0.739382 0.112441
vt 0.703094 0.108922
vt 0.433448 0.036342
vt 0.480295 0.088088
vt 0.441355 0.086761
vt 0.492305 0.074127
vt 0.940873 0.527393
vt 0.964333 0.532793
vt 0.967073 0.538583
vt 0.926798 0.521381
vt 0.900474 0.479301
vt 0.914892 0.514778
vt 0.270927 0.644180
vt 0.275247 0.639055
vt 0.270799 0.647705
vt 0.227466 0.649456
vt 0.727233 0.057741
vt 0.689900 0.071883
vt 0.522894 0.049657
vt 0.506531 0.060711
vt 0.535649 0.041684
vt 0.929000 0.524730
vt 0.239012 0.683949
vt 0.213784 0.690285
vt 0.760757 0.014472
vt 0.767179 0.041114
vt 0.744248 0.015367
vt 0.760260 0.094952
vt 0.184068 0.691780
vt 0.320286 0.186606
vt 0.375960 0.169162
vt 0.382663 0.221885
vt 0.345033 0.267969
vt 0.689467 0.306011
vt 0.718841 0.245552
vt 0.736625 0.327185
vt 0.640429 0.286380
vt 0.685844 0.220466
vt 0.061372 0.504592
vt 0.020135 0.462248
vt 0.050145 0.492649
vt 0.098017 0.524741
vt 0.098928 0.452764
vt 0.120853 0.510577
vt 0.130982 0.474652
vt 0.162942 0.522897
vt 0.168990 0.422778
vt 0.799329 0.371247
vt 0.794356 0.327585
vt 0.830580 0.312671
vt 0.847948 0.352499
vt 0.865390 0.310276
vt 0.549134 0.263316
vt 0.585162 0.254344
vt 0.566746 0.302004
vt 0.582183 0.325521
vt 0.508033 0.281232
vt 0.526449 0.307966
vt 0.473571 0.248902
vt 0.478233 0.258061
vt 0.487010 0.284590
vt 0.483227 0.275284
vt 0.440590 0.207881
vt 0.436349 0.284951
vt 0.718211 0.212109
vt 0.765181 0.183358
vt 0.765136 0.240970
vt 0.629354 0.184245
vt 0.666145 0.148876
vt 0.105291 0.590763
vt 0.066471 0.574043
vt 0.257410 0.460964
vt 0.286591 0.494601
vt 0.296846 0.453001
vt 0.929057 0.387737
vt 0.889295 0.350385
vt 0.916063 0.330858
vt 0.561112 0.188292
vt 0.586553 0.205818
vt 0.561559 0.226934
vt 0.511472 0.230895
vt 0.460225 0.198060
vt 0.484217 0.186059
vt 0.505543 0.197863
vt 0.468215 0.203620
vt 0.406948 0.175000
vt 0.448940 0.146927
vt 0.182393 0.543732
vt 0.131120 0.537449
vt 0.225377 0.495365
vt 0.826752 0.427616
vt 0.879326 0.464475
vt 0.535615 0.164568
vt 0.498933 0.155577
vt 0.442834 0.116334
vt 0.417728 0.138128
vt 0.365221 0.115916
vt 0.394659 0.094613
vt 0.396500 0.131127
vt 0.955627 0.278139
vt 0.935477 0.247034
vt 0.978135 0.231609
vt 0.880533 0.283715
vt 0.861062 0.247385
vt 0.897288 0.254324
vt 0.799465 0.284397
vt 0.831505 0.270397
vt 0.263798 0.377278
vt 0.240431 0.341511
vt 0.275624 0.317956
vt 0.117541 0.447232
vt 0.117510 0.411763
vt 0.037740 0.462911
vt 0.060520 0.431954
vt 0.638093 0.337477
vt 0.675554 0.347933
vt 0.752512 0.384094
vt 0.754088 0.389701
vt 0.444706 0.356230
vt 0.442108 0.355073
vt 0.445684 0.355808
vt 0.374340 0.283963
vt 0.398361 0.312696
vt 0.465944 0.328030
vt 0.495157 0.336975
vt 0.552555 0.361624
vt 0.969431 0.296186
vt 0.913912 0.275068
vt 0.202127 0.434996
vt 0.755265 0.300288
vt 0.758206 0.336166
vt 0.468259 0.238464
vt 0.477697 0.228186
vt 0.480312 0.236353
vt 0.610763 0.257515
vt 0.967445 0.407848
vt 0.943205 0.320552
vt 0.879669 0.429077
vt 0.887051 0.350500
vt 0.805281 0.399868
vt 0.279111 0.420770
vt 0.037167 0.580294
vt 0.613812 0.263517
vt 0.353846 0.158321
vt 0.591651 0.388243
vt 0.588939 0.388821
vt 0.591618 0.381900
vt 0.998100 0.111284
vt 0.999497 0.113107
vt 0.986364 0.130382
vt 0.580139 0.390315
vt 0.317469 0.285893
vt 0.319524 0.244958
vt 0.320107 0.287571
vt 0.853190 0.245877
vt 0.855819 0.242078
vt 0.465449 0.105447
vt 0.485731 0.121176
vt 0.458798 0.118136
vt 0.457424 0.140989
vt 0.591675 0.152059
vt 0.992257 0.422813
vt 0.658957 0.115191
vt 0.780268 0.151110
vt 0.112079 0.665577
vt 0.780034 0.105638
vt 0.877019 0.310341
vt 0.896231 0.310449
vt 0.968571 0.534446
vt 0.529002 0.014814
vt 0.544741 0.011903
vt 0.538760 0.034167
vt 0.536517 0.000158
vt 0.268389 0.650454
vt 0.541608 0.039022
vt 0.188030 0.517156
vt 0.207797 0.483516
vt 0.972470 0.329048
vt 0.610253 0.298926
vt 0.349848 0.097609
vt 0.055624 0.615203
vt 0.463614 0.176324
vt 0.605900 0.188465
vt 0.982316 0.385806
vt 0.510014 0.362624
vt 0.606791 0.365668
vt 0.690109 0.352583
vt 0.315910 0.286819
vt 0.298688 0.249138
vt 0.127131 0.399730
vt 0.113402 0.403742
vt 0.931793 0.204258
vt 0.904977 0.205467
vt 0.504034 0.375913
vt 0.516299 0.378708
vt 0.445939 0.356955
vt 0.446905 0.355937
vt 0.496498 0.371475
vt 0.400800 0.335942
vt 0.390215 0.326108
vt 0.482179 0.284624
vt 0.985963 0.359267
vt 0.734006 0.374274
vt 0.406222 0.339122
vt 0.378927 0.320749
vt 0.368057 0.313956
vt 0.550649 0.397970
vt 0.960177 0.202738
vt 0.944742 0.195587
vt 0.881381 0.222931
vt 0.869466 0.222355
vt 0.852234 0.226463
vt 0.848204 0.227424
vt 0.842962 0.230054
vt 0.830980 0.239485
vt 0.816008 0.257356
vt 0.810114 0.259145
vt 0.255886 0.301015
vt 0.231422 0.325468
vt 0.211655 0.344747
vt 0.195098 0.358634
vt 0.188745 0.362717
vt 0.160009 0.382809
vt 0.067278 0.416930
vt 0.042946 0.418110
vt 0.012429 0.416945
vt 0.005761 0.410619
vt 0.491285 0.014401
vt 0.287234 0.615740
vt 0.955833 0.565540
vt 0.986349 0.202077
vt 0.976519 0.197007
vt 0.000478 0.459421
vt 0.263043 0.293574
s 1
usemtl Material.001
f 138/1/1 139/2/2 87/3/3
f 141/4/4 6/5/5 98/6/6 140/7/7
f 98/8/6 6/9/5 60/10/8
f 63/11/9 69/12/10 99/13/11
f 64/14/12 14/15/13 2/16/14
f 64/14/12 3/17/15 14/15/13
f 4/18/16 5/19/17 92/20/18
f 76/21/19 57/22/20 56/23/21
f 65/24/22 58/25/23 57/22/20
f 65/26/22 66/27/24 58/28/23
f 66/27/24 59/29/25 58/28/23
f 67/30/26 60/10/8 6/9/5
f 61/31/27 60/10/8 67/30/26
f 68/32/28 63/11/9 62/33/29
f 69/12/10 63/11/9 68/32/28
f 70/34/30 2/16/14 100/35/31
f 132/36/32 5/19/17 4/18/16
f 143/37/33 95/38/34 132/36/32 142/39/35
f 144/40/36 145/41/37 75/42/38
f 74/43/39 119/44/40 66/27/24
f 146/45/41 6/5/5 141/4/4
f 147/46/42 146/47/41 74/48/39
f 68/32/28 61/31/27 8/49/43
f 73/50/44 100/35/31 69/51/10
f 148/52/45 76/21/19 149/53/46
f 150/54/47 76/21/19 148/52/45
f 151/55/48 74/43/39 144/40/36
f 71/56/49 10/57/50 8/49/43
f 9/58/51 72/59/52 10/60/50
f 72/59/52 7/61/53 73/50/44
f 73/62/44 69/12/10 68/32/28
f 149/53/46 76/21/19 142/39/35
f 116/63/54 42/64/55 24/65/56
f 116/63/54 24/65/56 55/66/57
f 133/67/58 127/68/59 41/69/60
f 40/70/61 126/71/62 133/67/58
f 37/72/63 39/73/64 38/74/65
f 50/75/66 37/72/63 36/76/67
f 82/77/68 36/76/67 35/78/69
f 125/79/70 35/78/69 106/80/71
f 115/81/72 33/82/73 32/83/74
f 80/84/75 32/83/74 105/85/76
f 113/86/77 77/87/78 134/88/79
f 134/88/79 77/87/78 28/89/80
f 83/90/81 113/86/77 27/91/82
f 153/92/83 84/93/84 26/94/85 152/95/86
f 24/65/56 135/96/87 85/97/88
f 53/98/89 92/99/18 93/100/90
f 126/71/62 14/15/13 53/98/89
f 52/101/91 15/102/92 126/71/62
f 91/103/93 51/104/94 50/75/66
f 98/8/6 121/105/95 120/106/96
f 120/106/96 121/105/95 81/107/97
f 118/108/98 79/109/99 136/110/100
f 89/111/101 46/112/102 123/113/103
f 45/114/104 89/111/101 123/113/103
f 155/115/105 117/116/106 44/117/107 154/118/108
f 43/119/109 12/120/110 87/3/3
f 90/121/111 62/33/29 125/79/70
f 125/79/70 62/33/29 49/122/112
f 98/8/6 60/10/8 121/105/95
f 121/105/95 60/10/8 13/123/113
f 140/7/7 98/6/6 120/124/96 156/125/114
f 118/108/98 59/29/25 119/44/40
f 44/117/107 88/126/115 89/111/101
f 57/22/20 89/111/101 88/126/115
f 131/127/116 44/117/107 117/116/106
f 96/128/117 12/120/110 86/129/118
f 11/130/119 102/131/120 94/132/121
f 104/133/122 19/134/123 112/135/124
f 157/136/125 158/137/126 21/138/127
f 32/83/74 111/139/128 128/140/129
f 33/141/73 23/142/130 111/143/128
f 35/78/69 107/144/131 137/145/132
f 108/146/133 39/73/64 20/147/134
f 194/148/135 40/70/61 195/149/136
f 196/150/137 41/69/60 176/151/138
f 182/152/139 202/153/140 130/154/141
f 55/66/57 24/65/56 103/155/142
f 103/155/142 24/65/56 16/156/143
f 17/157/144 26/94/85 18/158/145
f 27/91/82 134/88/79 110/159/146
f 29/160/147 104/133/122 112/135/124
f 104/133/122 30/161/148 19/134/123
f 32/83/74 33/82/73 111/139/128
f 121/105/95 34/162/149 23/142/130
f 37/72/63 20/147/134 36/76/67
f 41/69/60 116/163/54 109/164/150
f 43/119/109 87/3/3 135/96/87
f 85/97/88 135/96/87 25/165/151
f 154/118/108 44/117/107 160/166/152
f 160/166/152 44/117/107 45/114/104 161/167/153
f 84/93/84 45/114/104 83/90/81
f 123/113/103 77/87/78 113/86/77
f 46/112/102 78/168/154 77/87/78
f 101/169/155 136/110/100 114/170/156
f 162/171/157 80/84/75 163/172/158
f 120/124/96 81/173/97 80/84/75
f 81/173/97 115/81/72 80/84/75
f 81/107/97 121/105/95 115/174/72
f 125/79/70 82/77/68 35/78/69
f 49/122/112 50/75/66 82/77/68
f 37/72/63 52/175/91 39/73/64
f 39/176/64 52/101/91 40/70/61
f 127/68/59 93/100/90 116/163/54
f 116/63/54 122/177/159 42/64/55
f 3/17/15 64/14/12 70/34/30 7/61/53
f 203/178/160 204/179/161 54/180/162
f 203/181/160 54/182/162 205/183/163
f 181/184/164 54/180/162 204/179/161
f 184/185/165 109/186/150 55/66/57 177/187/166
f 36/76/67 20/147/134 137/145/132
f 158/137/126 22/188/167 159/189/168
f 110/159/146 28/89/80 54/180/162
f 165/190/169 1/191/170 166/192/171
f 166/192/171 1/191/170 167/193/172
f 1/191/170 56/23/21 131/127/116
f 131/127/116 56/23/21 88/126/115
f 57/22/20 58/25/23 97/194/173
f 101/169/155 97/195/173 59/29/25
f 97/195/173 58/28/23 59/29/25
f 63/11/9 99/13/11 91/103/93
f 99/196/11 100/35/31 15/102/92
f 100/35/31 2/16/14 15/102/92
f 92/99/18 3/17/15 4/197/16
f 5/19/17 95/38/34 102/131/120
f 143/37/33 76/21/19 1/191/170 165/190/169
f 76/21/19 56/23/21 1/191/170
f 76/21/19 65/24/22 57/22/20
f 66/27/24 119/44/40 59/29/25
f 68/32/28 62/33/29 61/31/27
f 69/12/10 100/198/31 99/13/11
f 70/34/30 64/14/12 2/16/14
f 3/17/15 7/61/53 132/199/32 4/197/16
f 168/200/174 31/201/175 79/109/99 163/172/158
f 132/36/32 95/38/34 5/19/17
f 169/202/176 75/42/38 145/41/37
f 67/30/26 8/49/43 61/31/27
f 73/50/44 70/34/30 100/35/31
f 73/50/44 7/61/53 70/34/30
f 10/60/50 72/59/52 73/50/44
f 9/203/51 71/204/49 75/205/38
f 9/203/51 10/206/50 71/204/49
f 72/59/52 132/199/32 7/61/53
f 10/57/50 73/62/44 68/32/28
f 8/49/43 10/57/50 68/32/28
f 71/56/49 8/49/43 67/30/26
f 151/207/48 71/56/49 67/30/26 147/46/42
f 150/54/47 75/205/38 169/208/176
f 41/69/60 127/68/59 116/163/54
f 133/67/58 126/71/62 127/68/59
f 36/76/67 82/77/68 50/75/66
f 34/162/149 124/209/177 106/80/71
f 124/209/177 125/79/70 106/80/71
f 48/210/178 124/209/177 34/162/149
f 121/105/95 13/123/113 34/162/149
f 13/123/113 48/210/178 34/162/149
f 115/174/72 121/105/95 33/141/73
f 80/84/75 115/81/72 32/83/74
f 31/201/175 136/110/100 79/109/99
f 31/201/175 30/161/148 114/170/156 136/110/100
f 114/170/156 30/161/148 104/133/122 29/160/147
f 29/160/147 78/211/154 114/170/156
f 29/212/147 28/89/80 77/87/78 78/168/154
f 11/130/119 122/177/159 116/63/54 93/213/90
f 27/91/82 113/86/77 134/88/79
f 26/94/85 84/93/84 83/90/81
f 24/65/56 43/119/109 135/96/87
f 86/129/118 43/119/109 42/64/55 94/132/121
f 127/68/59 53/98/89 93/100/90
f 126/71/62 15/102/92 14/15/13
f 51/104/94 99/13/11 52/175/91
f 99/13/11 15/214/92 52/175/91
f 49/122/112 91/103/93 50/75/66
f 124/209/177 90/121/111 125/79/70
f 13/123/113 124/209/177 48/210/178
f 162/171/157 119/44/40 156/125/114
f 101/169/155 118/108/98 136/110/100
f 45/114/104 44/117/107 89/111/101
f 155/115/105 170/215/179 117/116/106
f 94/132/121 42/64/55 122/177/159 11/130/119
f 43/119/109 86/129/118 12/120/110
f 102/131/120 11/130/119 93/213/90 5/19/17
f 90/121/111 124/209/177 13/123/113 60/10/8
f 92/20/18 5/19/17 93/213/90
f 53/98/89 14/15/13 92/99/18
f 14/15/13 3/17/15 92/99/18
f 15/102/92 2/16/14 14/15/13
f 91/103/93 99/13/11 51/104/94
f 49/122/112 63/11/9 91/103/93
f 49/122/112 62/33/29 63/11/9
f 90/121/111 61/31/27 62/33/29
f 97/194/173 47/216/180 46/112/102 89/111/101
f 90/121/111 60/10/8 61/31/27
f 101/169/155 59/29/25 118/108/98
f 47/217/180 97/195/173 101/169/155
f 57/22/20 97/194/173 89/111/101
f 86/129/118 94/132/121 95/38/34 96/128/117
f 56/23/21 57/22/20 88/126/115
f 170/215/179 87/3/3 139/2/2
f 131/127/116 88/126/115 44/117/107
f 167/193/172 1/191/170 138/1/1
f 128/140/129 22/188/167 105/85/76 32/83/74
f 102/131/120 95/38/34 94/132/121
f 130/154/141 85/97/88 17/157/144
f 129/218/181 18/158/145 27/91/82
f 129/218/181 27/91/82 110/159/146
f 110/159/146 134/88/79 28/89/80
f 54/180/162 28/89/80 112/219/124
f 19/134/123 30/161/148 21/138/127
f 106/80/71 35/78/69 137/145/132
f 137/145/132 107/144/131 36/76/67
f 195/149/136 40/70/61 133/67/58 214/220/182
f 176/221/138 41/222/60 109/186/150 184/185/165
f 174/223/183 137/145/132 189/224/184
f 217/225/185 21/138/127 216/226/186
f 27/91/82 18/158/145 26/94/85 83/90/81
f 190/227/187 129/218/181 188/228/188
f 164/229/189 130/154/141 171/230/190
f 190/227/187 191/231/191 129/218/181
f 211/232/192 218/233/193 16/156/143
f 16/156/143 24/65/56 85/97/88
f 17/157/144 85/97/88 172/234/194
f 172/234/194 152/95/86 26/94/85
f 108/146/133 20/147/134 37/72/63 38/74/65
f 28/89/80 29/212/147 112/219/124
f 30/161/148 31/201/175 21/138/127
f 168/200/174 105/85/76 157/136/125
f 33/141/73 121/105/95 23/142/130
f 35/78/69 36/76/67 107/144/131
f 101/169/155 114/170/156 78/211/154 47/217/180
f 108/146/133 38/74/65 39/73/64
f 109/186/150 116/63/54 55/66/57
f 24/65/56 42/64/55 43/119/109
f 153/92/83 25/165/151 161/167/153
f 83/90/81 45/114/104 113/86/77
f 113/86/77 45/114/104 123/113/103
f 123/113/103 46/112/102 77/87/78
f 46/235/102 47/217/180 78/211/154
f 118/108/98 119/44/40 79/109/99
f 125/79/70 49/122/112 82/77/68
f 50/75/66 51/104/94 37/72/63
f 37/72/63 51/104/94 52/175/91
f 40/70/61 52/101/91 126/71/62
f 126/71/62 53/98/89 127/68/59
f 214/220/182 133/67/58 175/236/195
f 17/157/144 129/218/181 171/230/190
f 129/218/181 17/157/144 18/158/145
f 212/237/196 85/97/88 130/154/141 202/153/140
f 183/238/197 103/155/142 16/156/143 218/233/193
f 176/221/138 184/185/165 177/187/166 178/239/198 183/238/197 218/233/193 211/232/192 212/237/196 202/153/140 182/152/139 164/229/189 191/231/191 190/227/187 188/228/188 180/240/199 181/184/164 204/179/161 203/178/160 205/183/163 210/241/200 209/242/201 217/225/185 216/226/186 208/243/202 200/244/203 192/245/204 201/246/205 215/247/206 186/248/207 187/249/208 185/250/209 179/251/210 199/252/211 207/253/212 213/254/213 206/255/214 173/256/215 174/223/183 189/224/184 197/257/216 198/258/217 193/259/218 194/260/135 195/149/136 214/220/182 175/236/195 196/150/137
f 96/128/117 166/192/171 167/193/172 12/120/110
f 95/38/34 165/190/169 166/192/171 96/128/117
f 164/229/189 171/230/190 129/218/181 191/231/191
f 182/152/139 130/154/141 164/229/189
f 105/85/76 168/200/174 163/172/158 80/84/75
f 119/44/40 162/171/157 163/172/158 79/109/99
f 25/165/151 160/166/152 161/167/153
f 130/154/141 17/157/144 171/230/190
f 26/94/85 17/157/144 172/234/194
f 105/85/76 22/188/167 158/137/126 157/136/125
f 31/201/175 168/200/174 157/136/125 21/138/127
f 80/84/75 162/171/157 156/125/114 120/124/96
f 135/96/87 87/3/3 170/215/179 155/115/105
f 135/96/87 155/115/105 154/118/108
f 135/96/87 154/118/108 160/166/152 25/165/151
f 84/93/84 153/92/83 161/167/153 45/114/104
f 25/165/151 153/92/83 152/95/86
f 85/97/88 25/165/151 152/95/86 172/234/194
f 76/21/19 150/54/47 169/208/176 65/24/22
f 9/203/51 148/52/45 149/53/46 72/261/52
f 75/205/38 150/54/47 148/52/45 9/203/51
f 74/48/39 151/207/48 147/46/42
f 67/30/26 6/262/5 146/47/41 147/46/42
f 65/26/22 169/202/176 145/41/37 66/27/24
f 74/43/39 66/27/24 145/41/37 144/40/36
f 71/263/49 151/55/48 144/40/36 75/42/38
f 95/38/34 143/37/33 165/190/169
f 76/21/19 143/37/33 142/39/35
f 72/261/52 149/53/46 142/39/35 132/36/32
f 74/43/39 146/45/41 141/4/4 119/44/40
f 119/44/40 141/4/4 140/7/7
f 119/44/40 140/7/7 156/125/114
f 117/116/106 170/215/179 139/2/2 131/127/116
f 1/191/170 131/127/116 139/2/2 138/1/1
f 12/120/110 167/193/172 138/1/1 87/3/3
f 177/187/166 55/66/57 178/239/198
f 16/156/143 85/97/88 212/237/196 211/232/192
f 19/134/123 209/242/201 210/241/200 112/135/124
f 19/134/123 21/138/127 217/225/185 209/242/201
f 21/138/127 208/243/202 216/226/186
f 23/142/130 34/162/149 213/254/213 207/253/212
f 34/162/149 106/80/71 206/255/214 213/254/213
f 54/264/162 112/135/124 210/241/200 205/265/163
f 22/188/167 215/247/206 201/246/205
f 21/138/127 158/137/126 159/189/168 200/244/203 208/243/202
f 23/142/130 207/253/212 199/252/211
f 20/147/134 198/258/217 197/257/216
f 39/73/64 40/266/61 194/260/135 193/259/218
f 20/147/134 39/73/64 193/259/218 198/258/217
f 22/188/167 201/246/205 192/245/204 159/189/168
f 159/189/168 192/245/204 200/244/203
f 137/145/132 20/147/134 197/257/216 189/224/184
f 128/140/129 187/249/208 186/248/207
f 22/188/167 128/140/129 186/248/207 215/247/206
f 128/140/129 111/139/128 185/250/209 187/249/208
f 110/159/146 54/180/162 181/184/164 180/240/199
f 110/159/146 180/240/199 188/228/188 129/218/181
f 111/143/128 23/142/130 179/251/210 185/267/209
f 23/142/130 199/252/211 179/251/210
f 55/66/57 103/155/142 183/238/197 178/239/198
f 133/67/58 41/69/60 196/150/137 175/236/195
f 106/80/71 137/145/132 174/223/183 173/256/215
f 106/80/71 173/256/215 206/255/214
o cucumber.001
v -0.059367 0.057974 -0.082595
v 0.005782 0.056265 -0.110820
v -0.007132 0.102347 -0.121574
v -0.004171 0.095471 -0.118213
v 0.002188 0.088381 -0.113924
v 0.005382 0.067665 -0.120263
v -0.055994 0.082287 -0.128336
v -0.014929 0.044912 -0.129573
v -0.059766 0.072170 -0.112359
v -0.050693 0.083665 -0.088492
v -0.042606 0.083134 -0.077597
v -0.039154 0.086487 -0.074561
v -0.003337 0.074793 -0.073676
v 0.002784 0.071019 -0.080527
v 0.003843 0.051908 -0.097358
v -0.002550 0.034329 -0.084163
v -0.058019 0.043842 -0.088874
v -0.057607 0.050225 -0.108945
v -0.048061 0.095434 -0.132703
v -0.011207 0.089831 -0.142473
v -0.015969 0.078677 -0.147255
v -0.032617 0.070707 -0.148144
v -0.045648 0.072632 -0.142644
v -0.037618 0.104992 -0.128798
v -0.061187 0.080753 -0.115327
v 0.006880 0.057975 -0.088821
v -0.005558 0.045575 -0.120645
v -0.034723 0.034948 -0.117017
v -0.045942 0.042727 -0.121211
v -0.056986 0.064215 -0.123480
v -0.032401 0.050137 -0.135678
v -0.029572 0.107024 -0.113017
v -0.017286 0.106247 -0.118679
v -0.051221 0.095057 -0.122790
v -0.039767 0.105519 -0.117660
v -0.000488 0.091179 -0.125167
v 0.002573 0.075011 -0.130396
v -0.051745 0.091688 -0.108150
v -0.056159 0.084578 -0.114642
v -0.054110 0.076864 -0.088051
v 0.003124 0.066131 -0.085093
v 0.003826 0.059864 -0.072457
v 0.002138 0.042087 -0.077089
v -0.058606 0.065392 -0.089473
v -0.016685 0.085879 -0.075679
v -0.015574 0.027437 -0.096266
v -0.035485 0.022322 -0.083107
v -0.024129 0.108461 -0.126241
v -0.035649 0.097122 -0.144106
v -0.033251 0.091968 -0.147841
v -0.006646 0.084478 -0.075407
v -0.013104 0.103684 -0.131361
v -0.032741 0.100388 -0.103541
v -0.048030 0.029288 -0.083415
v -0.061252 0.064310 -0.073945
v -0.030054 0.099644 -0.143806
v 0.001844 0.071599 -0.079475
v 0.004772 0.071620 -0.119053
v 0.002894 0.071606 -0.092188
v -0.047518 0.071244 -0.139483
v -0.056604 0.071178 -0.125351
v 0.004395 0.071617 -0.121087
v -0.015747 0.071472 -0.143482
v 0.000584 0.071590 -0.130302
v 0.001630 0.071597 -0.129265
v 0.003872 0.071613 -0.125709
v -0.056338 0.071180 -0.088756
v -0.059666 0.071156 -0.112201
v -0.059695 0.071156 -0.110897
v -0.032636 0.071351 -0.148135
v -0.036773 0.071321 -0.146390
v 0.002764 0.071605 -0.081655
v -0.059593 0.071157 -0.108938
v -0.059737 0.071156 -0.110233
v -0.059575 0.071157 -0.099176
v -0.059412 0.071158 -0.113774
v -0.045662 0.071257 -0.141659
v -0.044842 0.071263 -0.142220
v -0.031252 0.071361 -0.148071
v -0.001872 0.033888 -0.072985
v -0.005771 0.029033 -0.072960
v -0.034212 0.020496 -0.072781
v -0.036351 0.021369 -0.072767
v -0.046413 0.026913 -0.072704
v -0.055505 0.038114 -0.072647
v -0.057468 0.041019 -0.072634
v -0.057767 0.043150 -0.072632
v -0.058033 0.045805 -0.072631
v -0.059504 0.055823 -0.072622
v -0.057725 0.043473 -0.072633
v -0.019888 0.021331 -0.072871
v -0.029620 0.020381 -0.072810
v 0.003665 0.051697 -0.073019
v 0.003826 0.059684 -0.073020
v -0.003265 0.074665 -0.072976
v 0.001636 0.071058 -0.073007
v -0.038871 0.086163 -0.072752
v -0.036890 0.085784 -0.072764
v -0.054627 0.069595 -0.072652
v -0.059759 0.065567 -0.072620
v -0.060100 0.057451 -0.072618
v -0.025682 0.086175 -0.072835
v -0.028256 0.086324 -0.072818
v -0.019426 0.085056 -0.072874
v -0.057841 0.044617 -0.072632
v 0.001987 0.041175 -0.073009
v 0.002372 0.043684 -0.073011
v 0.002056 0.065661 -0.073009
v 0.003795 0.060143 -0.073020
v -0.003484 0.074753 -0.072974
v -0.016558 0.085425 -0.072892
v -0.017643 0.085214 -0.072885
v -0.061117 0.064051 -0.072611
v -0.061024 0.064335 -0.072612
v -0.042680 0.082041 -0.072728
v 0.002194 0.041873 -0.073010
v -0.048303 0.028175 -0.072692
v -0.010926 0.025085 -0.072928
v 0.003931 0.059799 -0.073021
v 0.001417 0.068074 -0.073005
v -0.006804 0.083409 -0.072954
v -0.015770 0.084527 -0.072897
v -0.046233 0.081211 -0.072705
v -0.047777 0.078268 -0.072695
v -0.059296 0.058768 -0.072623
v -0.053489 0.072641 -0.072659
v -0.054028 0.071197 -0.072656
v 0.000911 0.071592 -0.073002
v -0.001816 0.033852 -0.072053
v -0.006034 0.028600 -0.072045
v -0.055396 0.037867 -0.071949
v -0.057756 0.043121 -0.071944
v -0.057942 0.044967 -0.071944
v -0.059513 0.055676 -0.071941
v -0.057727 0.043345 -0.071945
v 0.003820 0.059696 -0.072064
v -0.038750 0.086025 -0.071981
v -0.035911 0.085480 -0.071987
v -0.054461 0.069771 -0.071951
v -0.060150 0.057415 -0.071940
v -0.057808 0.044140 -0.071944
v 0.003885 0.059893 -0.072064
v 0.001972 0.065624 -0.072060
v 0.003760 0.059947 -0.072064
v -0.042692 0.081871 -0.071974
v -0.010748 0.024995 -0.072036
v -0.046024 0.081097 -0.071967
v -0.047476 0.078335 -0.071964
v -0.053460 0.072447 -0.071953
v 0.000775 0.071591 -0.072058
v -0.034115 0.020356 -0.071990
v -0.036416 0.021297 -0.071986
v -0.046301 0.026750 -0.071967
v -0.057445 0.040900 -0.071945
v -0.020046 0.021108 -0.072018
v -0.029159 0.020228 -0.072000
v 0.003658 0.051689 -0.072064
v -0.003170 0.074496 -0.072050
v 0.001492 0.071063 -0.072059
v -0.058995 0.066211 -0.071942
v -0.025834 0.085813 -0.072006
v -0.028137 0.085950 -0.072002
v -0.020264 0.084805 -0.072017
v 0.001952 0.040962 -0.072060
v 0.002426 0.044056 -0.072061
v -0.003678 0.074700 -0.072049
v -0.016518 0.085283 -0.072024
v -0.017940 0.085009 -0.072022
v -0.061048 0.063921 -0.071938
v -0.060908 0.064348 -0.071938
v 0.002207 0.041823 -0.072061
v -0.048322 0.028099 -0.071963
v 0.001284 0.068226 -0.072059
v -0.006862 0.083012 -0.072043
v -0.015484 0.084104 -0.072026
v -0.059291 0.058822 -0.071942
v -0.053927 0.071198 -0.071952
vn 0.8441 -0.5302 -0.0799
vn 0.6781 -0.7284 -0.0984
vn 0.7918 -0.5924 -0.1488
vn -0.1297 -0.9813 -0.1419
vn -0.4021 -0.9083 -0.1152
vn -0.2689 -0.9391 -0.2139
vn -0.8023 -0.5953 -0.0451
vn -0.9182 -0.3959 0.0148
vn -0.9736 -0.2151 -0.0759
vn -0.9825 -0.1755 -0.0617
vn -0.9654 -0.2585 -0.0338
vn -0.9906 -0.1286 -0.0456
vn 0.0719 -0.9838 -0.1640
vn 0.3667 -0.8871 -0.2802
vn 0.2249 -0.9616 -0.1574
vn 0.9546 -0.2916 -0.0614
vn 0.9063 -0.4207 -0.0398
vn 0.9948 -0.0900 0.0487
vn 0.9207 -0.3546 0.1631
vn 0.6177 0.7748 0.1348
vn 0.6431 0.7553 0.1263
vn 0.7345 0.6484 0.2004
vn 0.4681 0.8699 0.1557
vn -0.3363 0.9124 0.2334
vn 0.1098 0.9623 0.2487
vn -0.5184 0.8077 0.2809
vn -0.9920 0.0592 -0.1115
vn -0.9367 0.3475 -0.0415
vn -0.8463 0.4741 0.2428
vn -0.8226 0.5675 0.0349
vn -0.7434 0.6088 0.2770
vn -0.7943 0.5785 0.1854
vn -0.5482 0.7998 0.2443
vn -0.4835 0.8753 0.0105
vn 0.9848 0.1608 0.0650
vn 0.9120 0.4100 0.0147
vn 0.9901 0.0950 0.1038
vn 0.9666 -0.2188 -0.1332
vn 0.9806 0.1751 0.0885
vn 0.9769 -0.1640 -0.1367
vn 0.7275 -0.5810 -0.3649
vn 0.3632 -0.7038 -0.6105
vn -0.7484 -0.2000 -0.6324
vn -0.9349 -0.1807 -0.3054
vn -0.9339 0.0641 -0.3518
vn 0.9453 0.1830 -0.2701
vn -0.3227 0.9220 -0.2138
vn -0.1158 0.9756 0.1863
vn 0.0754 0.9881 -0.1344
vn -0.8336 0.0141 -0.5522
vn -0.8020 0.5937 -0.0659
vn 0.4150 0.8727 -0.2572
vn 0.3338 0.9384 0.0894
vn 0.6984 0.7139 -0.0515
vn 0.6209 0.3950 -0.6771
vn 0.9196 0.3566 -0.1646
vn 0.9511 0.1093 -0.2888
vn 0.3881 -0.3860 -0.8369
vn 0.5091 -0.3509 -0.7859
vn -0.1336 -0.3025 -0.9438
vn -0.1725 -0.6310 -0.7564
vn -0.6524 -0.0901 -0.7525
vn -0.7009 0.6374 -0.3202
vn -0.2047 -0.8744 -0.4398
vn -0.6090 -0.6684 -0.4270
vn 0.8852 -0.2689 -0.3796
vn 0.6979 -0.5262 -0.4858
vn -0.9599 0.2800 0.0108
vn -0.9193 0.3709 0.1320
vn 0.9935 -0.0940 0.0647
vn -0.9971 -0.0455 -0.0610
vn -0.9896 -0.1409 -0.0286
vn -0.9850 -0.1356 -0.1071
vn 0.9212 -0.3834 -0.0667
vn 0.9948 -0.1012 -0.0132
vn 0.7571 0.3798 0.5315
vn 0.7251 -0.0792 0.6841
vn 0.9834 0.1813 0.0115
vn 0.9365 0.3433 0.0715
vn 0.9504 0.2888 0.1157
vn 0.3821 0.9146 0.1327
vn 0.1337 0.9201 0.3682
vn -0.1685 0.9640 0.2055
vn -0.9935 -0.0251 0.1111
vn -0.8417 0.5193 0.1480
vn -0.2583 0.2816 -0.9241
vn -0.4648 0.6404 -0.6114
vn -0.4289 -0.2127 -0.8779
vn -0.1873 0.0424 -0.9814
vn -0.0498 0.8008 -0.5969
vn 0.3490 -0.0652 -0.9348
vn -0.5319 0.8269 0.1825
vn 0.9855 -0.1674 -0.0276
vn 0.5300 -0.8294 -0.1768
vn 0.9768 -0.1401 0.1617
vn 0.9838 0.0837 0.1584
vn 0.9604 0.2717 0.0621
vn 0.8666 0.4876 0.1063
vn 0.6936 0.6773 0.2454
vn 0.6989 0.6689 0.2531
vn 0.6225 0.7448 0.2403
vn 0.0620 0.9341 0.3517
vn 0.9398 0.3237 0.1095
vn 0.1357 0.5711 0.8096
vn -0.0035 0.5908 0.8068
vn 0.0068 0.6170 0.7869
vn -0.2056 0.7341 0.6472
vn -0.2676 0.5530 0.7890
vn -0.3129 0.5412 0.7805
vn -0.4327 0.3700 0.8221
vn -0.5612 0.4180 0.7144
vn -0.5823 0.2928 0.7584
vn -0.5969 0.3419 0.7258
vn -0.4395 0.5258 0.7283
vn -0.5815 0.3953 0.7111
vn -0.7523 -0.0349 0.6579
vn -0.7856 0.0868 0.6126
vn -0.7492 0.0411 0.6611
vn -0.7614 -0.1774 0.6235
vn -0.7361 -0.1104 0.6678
vn -0.7347 -0.0922 0.6721
vn -0.7577 0.0288 0.6520
vn -0.7525 -0.0072 0.6586
vn -0.7310 -0.2414 0.6383
vn -0.6008 -0.4449 0.6641
vn -0.5241 -0.5749 0.6283
vn -0.3907 -0.6355 0.6659
vn -0.3296 -0.6726 0.6625
vn -0.1696 -0.8333 0.5262
vn 0.0059 -0.8224 0.5689
vn 0.1979 -0.8178 0.5405
vn 0.3711 -0.6628 0.6503
vn 0.4901 -0.5674 0.6617
vn 0.6248 -0.4036 0.6684
vn 0.6872 -0.2807 0.6701
vn 0.7114 -0.1252 0.6915
vn 0.6873 -0.0890 0.7209
vn 0.6910 -0.0772 0.7187
vn 0.5941 0.4195 0.6863
vn 0.5765 0.1446 0.8042
vn 0.6826 0.0139 0.7307
vn 0.6985 0.2736 0.6613
vn 0.4523 0.5407 0.7093
vn 0.3889 0.6153 0.6857
vn 0.4853 0.4064 0.7742
vn 0.4609 0.3981 0.7932
vn 0.2517 0.5086 0.8234
vn 0.3001 0.7364 0.6064
vn -0.0509 0.6220 0.7813
vn 0.0588 0.6106 0.7898
vn -0.9986 0.0261 0.0455
vn -0.9974 -0.0494 0.0534
vn -0.9687 0.1221 0.2163
vn -0.0405 0.9033 0.4271
vn 0.7758 0.5887 0.2272
vn -0.8549 -0.4951 -0.1551
vn -0.5995 -0.7756 -0.1974
vn -0.9786 -0.1285 -0.1610
vn -0.6470 -0.4218 -0.6352
vn -0.4806 -0.4858 -0.7301
vn 0.1254 -0.2185 -0.9677
vn -0.8891 0.3581 0.2850
vn 0.5083 0.8118 0.2875
vn -0.9510 0.2787 0.1339
vn -0.8026 0.5504 0.2301
vn -0.7405 0.5905 0.3209
vn -0.6436 0.7035 0.3014
vn -0.9959 0.0893 -0.0129
vn 0.0064 0.8960 0.4440
vn 0.0815 0.8710 0.4845
vn -0.6627 0.7461 0.0643
vn -0.8487 0.5240 0.0716
vn -0.9984 -0.0559 0.0110
vn -0.9921 -0.1228 -0.0254
vn -0.9983 -0.0505 0.0302
vn -0.6870 -0.7236 -0.0662
vn -0.5005 -0.8563 -0.1273
vt 0.158680 0.376893
vt 0.136113 0.388494
vt 0.155764 0.363915
vt 0.010929 0.408127
vt 0.006488 0.403906
vt 0.007936 0.390530
vt 0.740719 0.384561
vt 0.754718 0.391997
vt 0.761559 0.416502
vt 0.329099 0.299170
vt 0.372657 0.323143
vt 0.381404 0.340614
vt 0.031285 0.408924
vt 0.092004 0.361959
vt 0.071740 0.407009
vt 0.194002 0.346732
vt 0.213684 0.293883
vt 0.228356 0.320010
vt 0.259500 0.288880
vt 0.850687 0.219727
vt 0.848724 0.211175
vt 0.876176 0.212659
vt 0.875366 0.213830
vt 0.550085 0.408735
vt 0.557736 0.406739
vt 0.549888 0.412492
vt 0.379781 0.327597
vt 0.443974 0.433456
vt 0.455170 0.398537
vt 0.461239 0.442234
vt 0.485385 0.417353
vt 0.486110 0.457656
vt 0.525682 0.402719
vt 0.529597 0.505297
vt 0.857262 0.153152
vt 0.883419 0.126317
vt 0.843516 0.189982
vt 0.246210 0.207248
vt 0.265660 0.251739
vt 0.227831 0.261314
vt 0.160790 0.280182
vt 0.105906 0.256178
vt 0.761734 0.589839
vt 0.782074 0.536145
vt 0.784030 0.558449
vt 0.249725 0.192108
vt 0.251090 0.196049
vt 0.526859 0.517769
vt 0.560091 0.520876
vt 0.565982 0.544404
vt 0.449729 0.453709
vt 0.487910 0.475243
vt 0.951334 0.073690
vt 0.971323 0.076358
vt 0.935473 0.087916
vt 0.219657 0.070901
vt 0.267121 0.117171
vt 0.243509 0.161211
vt 0.159315 0.136657
vt 0.227868 0.172006
vt 0.114678 0.116475
vt 0.056370 0.212656
vt 0.447956 0.490244
vt 0.488027 0.489872
vt 0.671337 0.524885
vt 0.649880 0.432518
vt 0.709070 0.460497
vt 0.026345 0.299494
vt 0.244758 0.182504
vt 0.233916 0.175008
vt 0.401941 0.346819
vt 0.407829 0.372117
vt 0.241972 0.274003
vt 0.637132 0.358510
vt 0.417262 0.411421
vt 0.416273 0.409103
vt 0.419845 0.413407
vt 0.191663 0.353844
vt 0.201858 0.345849
vt 0.260777 0.289183
vt 0.260154 0.289829
vt 0.260561 0.288764
vt 0.830835 0.230969
vt 0.813030 0.252229
vt 0.830492 0.210762
vt 0.946341 0.186709
vt 0.947209 0.181889
vt 0.951768 0.189218
vt 0.401710 0.344613
vt 0.402809 0.345258
vt 0.733843 0.686991
vt 0.757717 0.600445
vt 0.757848 0.670933
vt 0.893346 0.108346
vt 0.507711 0.532332
vt 0.728005 0.630165
vt 0.714689 0.645382
vt 0.526829 0.548009
vt 0.135676 0.025774
vt 0.173803 0.104236
vt 0.521145 0.391110
vt 0.194490 0.352028
vt 0.109557 0.396234
vt 0.259920 0.288255
vt 0.260788 0.287114
vt 0.839264 0.224333
vt 0.843741 0.210906
vt 0.846401 0.220751
vt 0.876804 0.213899
vt 0.908256 0.184632
vt 0.907193 0.191387
vt 0.957495 0.187195
vt 0.845081 0.208049
vt 0.995822 0.108314
vt 0.584555 0.400142
vt 0.561130 0.404250
vt 0.550169 0.407136
vt 0.520443 0.389313
vt 0.500071 0.384719
vt 0.487520 0.377353
vt 0.447968 0.366097
vt 0.442916 0.363011
vt 0.437145 0.359487
vt 0.414284 0.349356
vt 0.403248 0.344469
vt 0.401593 0.343500
vt 0.387573 0.330457
vt 0.379671 0.326712
vt 0.372060 0.321951
vt 0.325494 0.296314
vt 0.321100 0.294412
vt 0.319168 0.293074
vt 0.755985 0.396498
vt 0.754428 0.390956
vt 0.739823 0.383188
vt 0.690191 0.358599
vt 0.679721 0.355236
vt 0.006379 0.404917
vt 0.011158 0.409475
vt 0.033122 0.410370
vt 0.071001 0.408653
vt 0.110228 0.397544
vt 0.134508 0.390502
vt 0.158923 0.377974
vt 0.191119 0.355497
vt 0.194603 0.353261
vt 0.203689 0.345643
vt 0.228933 0.321036
vt 0.812032 0.254598
vt 0.812544 0.254441
vt 0.830862 0.232556
vt 0.839951 0.225395
vt 0.846736 0.221992
vt 0.850974 0.220975
vt 0.874295 0.215378
vt 0.877632 0.215533
vt 0.906798 0.193894
vt 0.940082 0.192230
vt 0.946071 0.188209
vt 0.953177 0.191483
vt 0.965149 0.158290
vt 0.417099 0.408206
vt 0.418049 0.407235
vt 0.421394 0.395137
vt 0.552715 0.482384
vt 0.917418 0.105828
vt 0.764119 0.466998
vt 0.690403 0.373954
vt 0.417790 0.414357
vt 0.421430 0.433526
vt 0.403691 0.420875
vt 0.755480 0.594010
vt 0.752460 0.595846
vt 0.987829 0.057799
vt 0.992666 0.069859
vt 0.119527 0.115471
vt 0.592278 0.509796
vt 0.431715 0.385447
vt 0.812215 0.254164
vt 0.941781 0.189765
vt 0.916686 0.068504
vt 0.978357 0.022676
vt 0.115314 0.113729
vt 0.946388 0.035053
vt 0.151837 0.003737
vt 0.486151 0.533997
vt 0.714091 0.644083
vt 0.363923 0.370413
vt 0.787151 0.594032
vt 0.851090 0.159484
vt 0.271771 0.148587
vt 0.442446 0.363951
vt 0.448284 0.367521
vt 0.486050 0.378316
vt 0.499415 0.386176
vt 0.387179 0.331106
vt 0.960638 0.188815
vt 0.583731 0.402272
vt 0.591714 0.400555
vt 0.995388 0.107747
vt 0.960951 0.163812
vt 0.410107 0.348497
vt 0.435971 0.359992
vt 0.320000 0.294513
vt 0.322780 0.296437
vt 0.318689 0.307128
vt 0.317446 0.291912
vt 0.756211 0.397311
vt 0.690205 0.359577
vt 0.680409 0.356441
vt 0.637772 0.344505
vt 0.591704 0.398581
vt 0.637820 0.343447
vt 0.317393 0.291268
s 1
usemtl Material.004
f 298/268/219 299/269/220 234/270/221
f 300/271/222 301/272/223 265/273/224
f 303/274/225 304/275/226 235/276/227
f 306/277/228 307/278/229 219/279/230
f 310/280/231 265/273/224 264/281/232 309/282/233
f 261/283/234 234/270/221 233/284/235
f 311/285/236 233/284/235 312/286/237
f 346/287/238 275/288/239 231/289/240 313/290/241
f 315/291/242 316/292/243 230/293/244
f 307/278/229 319/294/245 219/279/230
f 243/295/246 258/296/247 257/297/248
f 257/297/248 228/298/249 256/299/250
f 229/300/251 230/293/244 253/301/252
f 276/302/253 223/303/254 277/304/255
f 224/305/256 259/306/257 220/307/258
f 245/308/259 220/307/258 233/284/235
f 245/308/259 233/284/235 234/270/221
f 226/309/260 245/308/259 264/281/232
f 278/310/261 248/311/262 279/312/263
f 280/313/264 276/314/253 224/305/256
f 242/315/265 250/316/266 266/317/267
f 253/301/252 250/316/266 242/315/265
f 225/318/268 257/297/248 252/319/269
f 270/320/270 251/321/271 221/322/272
f 238/323/273 254/324/274 255/325/275
f 281/326/276 282/327/277 226/309/260
f 240/328/278 226/309/260 249/329/279
f 241/330/280 225/318/268 237/331/281
f 249/332/279 246/333/282 247/334/283
f 249/329/279 226/309/260 246/335/282
f 284/336/284 224/305/256 245/308/259 283/337/285
f 256/299/250 229/300/251 253/301/252
f 219/279/230 273/338/286 262/339/287
f 244/340/288 220/307/258 259/306/257
f 234/270/221 264/281/232 245/308/259
f 246/333/282 265/341/224 247/334/283
f 286/342/289 287/343/290 227/344/291
f 298/268/219 234/270/221 261/283/234 324/345/292
f 325/346/293 261/283/234 233/284/235 311/285/236
f 360/347/294 354/348/295 260/349/296
f 326/350/297 327/351/298 259/352/257
f 329/353/299 263/354/300 330/355/301
f 331/356/302 332/357/303 273/338/286
f 268/358/304 241/359/280 267/360/305
f 270/320/270 221/322/272 254/361/274
f 267/362/305 237/331/281 242/315/265
f 289/363/306 241/359/280 268/358/304 288/364/307
f 267/362/305 242/315/265 274/365/308
f 268/366/304 238/323/273 239/367/309
f 315/291/242 230/293/244 229/300/251 333/368/310
f 325/346/293 334/369/311 261/283/234
f 334/369/311 324/345/292 261/283/234
f 336/370/312 309/282/233 264/281/232
f 312/286/237 233/284/235 244/340/288 337/371/313
f 327/372/298 260/349/296 337/371/313
f 338/373/314 259/352/257 232/374/315 314/375/316
f 328/376/317 231/289/240 269/377/318 339/378/319
f 322/379/320 330/355/301 263/354/300
f 275/288/239 232/374/315 290/380/321
f 379/381/322 380/382/323 356/383/324 355/384/325 363/385/326 365/386/327 366/387/328 367/388/329 395/389/330 357/390/331 378/391/332 388/392/333 387/393/334 394/394/335 358/395/336 352/396/337 351/397/338 359/398/339 353/399/340 350/400/341 372/401/342 349/402/343 390/403/344 371/404/345 370/405/346 369/406/347 374/407/348 373/408/349 364/409/350 348/410/351 347/411/352 382/412/353 389/413/354 383/414/355 375/415/356 354/348/295 360/416/294 362/417/357 361/418/358 391/419/359 377/420/360 368/421/361 376/422/362 384/423/363 392/424/364 393/425/365 385/426/366 386/427/367 381/428/368
f 292/429/369 219/279/230 262/339/287 291/430/370
f 291/430/370 262/339/287 293/431/371
f 256/299/250 228/298/249 229/300/251
f 253/301/252 230/293/244 271/432/372
f 221/322/272 251/321/271 263/354/300
f 222/433/373 221/322/272 263/354/300
f 235/276/227 236/434/374 247/334/283 272/435/375
f 277/304/255 223/303/254 290/380/321
f 246/335/282 226/309/260 264/281/232
f 294/436/376 279/437/263 248/438/262
f 253/301/252 242/315/265 237/331/281 252/319/269
f 295/439/377 247/334/283 248/311/262 278/310/261
f 296/440/378 249/332/279 247/334/283 295/439/377
f 282/327/277 255/325/275 283/337/285
f 284/336/284 280/313/264 224/305/256
f 254/361/274 222/433/373 223/303/254
f 251/321/271 266/441/267 250/442/266
f 253/301/252 271/432/372 250/316/266
f 252/319/269 256/299/250 253/301/252
f 225/318/268 243/295/246 257/297/248
f 237/331/281 225/318/268 252/319/269
f 270/320/270 266/441/267 251/321/271
f 254/361/274 221/322/272 222/433/373
f 239/367/309 238/323/273 255/325/275
f 297/443/379 239/367/309 281/326/276
f 289/363/306 296/440/378 241/359/280
f 294/436/376 286/342/289 227/344/291
f 248/311/262 247/334/283 236/434/374
f 245/308/259 224/305/256 220/307/258
f 251/444/271 250/316/266 271/432/372
f 252/319/269 257/297/248 256/299/250
f 293/431/371 262/339/287 285/445/380
f 257/297/248 258/296/247 228/298/249
f 263/354/300 269/377/318 222/433/373
f 269/377/318 231/289/240 222/433/373
f 244/340/288 233/284/235 220/307/258
f 264/281/232 265/273/224 246/335/282
f 247/334/283 265/341/224 272/435/375
f 310/280/231 300/271/222 265/273/224
f 338/373/314 326/350/297 259/352/257
f 362/417/357 360/416/294 260/446/296
f 329/353/299 340/447/381 263/354/300
f 267/362/305 241/330/280 237/331/281
f 238/448/273 270/320/270 254/361/274
f 270/320/270 274/449/308 266/441/267
f 274/365/308 242/315/265 266/317/267
f 288/450/307 297/443/379 240/328/278
f 238/451/273 274/449/308 270/320/270
f 268/366/304 274/452/308 238/323/273
f 268/453/304 267/362/305 274/365/308
f 241/359/280 296/440/378 295/439/377
f 227/344/291 292/429/369 291/430/370
f 227/344/291 291/430/370 293/431/371 243/295/246
f 240/454/278 249/332/279 296/440/378 289/363/306
f 240/454/278 289/363/306 288/364/307
f 268/366/304 239/367/309 297/443/379 288/450/307
f 227/344/291 287/343/290 292/429/369
f 248/438/262 236/455/374 286/342/289 294/436/376
f 243/295/246 293/431/371 285/445/380 258/296/247
f 255/325/275 284/336/284 283/337/285
f 226/309/260 282/327/277 283/337/285 245/308/259
f 239/367/309 255/325/275 282/327/277 281/326/276
f 240/328/278 297/443/379 281/326/276 226/309/260
f 255/325/275 254/324/274 280/313/264 284/336/284
f 227/344/291 243/295/246 225/318/268 279/437/263 294/436/376
f 241/359/280 278/310/261 279/312/263 225/456/268
f 241/359/280 295/439/377 278/310/261
f 259/352/257 277/304/255 290/380/321 232/374/315
f 224/457/256 276/302/253 277/304/255 259/352/257
f 254/324/274 223/458/254 276/314/253 280/313/264
f 231/289/240 275/288/239 290/380/321 223/303/254 222/433/373
f 314/375/316 232/374/315 275/288/239 346/287/238
f 328/376/317 313/290/241 231/289/240
f 285/445/380 345/459/382 344/460/383 258/296/247
f 258/296/247 344/460/383 342/461/384
f 228/298/249 258/296/247 342/461/384 341/462/385
f 263/354/300 340/447/381 339/378/319 269/377/318
f 228/298/249 341/462/385 333/368/310 229/300/251
f 387/393/334 388/392/333 332/357/303 331/356/302
f 273/338/286 219/279/230 343/463/386 331/356/302
f 385/426/366 329/353/299 330/355/301 386/427/367
f 385/426/366 393/425/365 340/447/381 329/353/299
f 384/423/363 328/376/317 339/378/319 392/424/364
f 259/306/257 327/372/298 337/371/313 244/340/288
f 362/417/357 260/446/296 327/351/298 326/350/297 361/418/358
f 391/419/359 361/418/358 326/350/297 338/373/314
f 383/414/355 389/413/354 334/369/311 325/346/293
f 389/413/354 382/412/353 324/345/292 334/369/311
f 381/464/368 386/427/367 330/355/301 322/379/320
f 251/444/271 271/432/372 321/465/387 320/466/388
f 251/321/271 320/467/388 322/468/320 263/354/300
f 219/279/230 319/294/245 343/463/386
f 273/338/286 332/357/303 318/469/389
f 262/339/287 273/338/286 318/469/389 317/470/390
f 262/339/287 317/470/390 345/459/382 285/445/380
f 230/293/244 316/292/243 321/465/387 271/432/372
f 355/384/325 356/383/324 316/292/243 315/291/242
f 355/384/325 315/291/242 333/368/310 363/385/326
f 391/419/359 338/373/314 314/375/316 377/420/360
f 377/420/360 314/375/316 346/287/238 368/421/361
f 368/421/361 346/287/238 313/290/241 376/422/362
f 384/423/363 376/422/362 313/290/241 328/376/317
f 260/349/296 312/286/237 337/371/313
f 375/415/356 311/285/236 312/286/237 260/349/296 354/348/295
f 383/414/355 325/346/293 311/285/236 375/415/356
f 374/407/348 310/280/231 309/282/233 373/408/349
f 364/409/350 373/408/349 309/282/233 336/370/312
f 236/455/374 308/471/391 323/472/392 287/343/290 286/342/289
f 352/396/337 358/395/336 319/294/245 307/278/229
f 351/397/338 352/396/337 307/278/229 306/277/228
f 287/343/290 323/472/392 306/277/228 219/279/230 292/429/369
f 235/473/227 305/474/393 308/471/391 236/455/374
f 235/276/227 304/275/226 305/475/393
f 349/402/343 372/401/342 304/275/226 303/274/225
f 272/435/375 335/476/394 303/274/225 235/276/227
f 272/435/375 302/477/395 335/476/394
f 265/341/224 301/478/223 302/477/395 272/435/375
f 369/406/347 370/405/346 301/272/223 300/271/222
f 374/407/348 369/406/347 300/271/222 310/280/231
f 234/270/221 299/269/220 336/370/312 264/281/232
f 347/411/352 348/410/351 299/269/220 298/268/219
f 347/411/352 298/268/219 324/345/292 382/412/353
f 340/447/381 393/425/365 392/424/364 339/378/319
f 331/356/302 343/463/386 394/394/335 387/393/334
f 320/466/388 321/465/387 380/382/323 379/479/322
f 320/467/388 379/381/322 381/428/368 322/468/320
f 332/357/303 388/392/333 378/391/332 318/469/389
f 302/477/395 371/404/345 390/403/344 335/476/394
f 301/478/223 370/480/346 371/404/345 302/477/395
f 345/459/382 395/389/330 367/388/329 344/460/383
f 344/460/383 367/388/329 366/387/328 342/461/384
f 341/462/385 342/461/384 366/387/328 365/386/327
f 341/462/385 365/386/327 363/385/326 333/368/310
f 319/294/245 358/395/336 394/394/335 343/463/386
f 317/470/390 318/469/389 378/391/332 357/390/331
f 317/470/390 357/390/331 395/389/330 345/459/382
f 316/292/243 356/383/324 380/382/323 321/465/387
f 308/471/391 353/399/340 359/398/339 323/472/392
f 323/472/392 359/398/339 351/397/338 306/277/228
f 304/275/226 372/401/342 350/400/341 305/475/393
f 305/474/393 350/481/341 353/399/340 308/471/391
f 335/476/394 390/403/344 349/402/343 303/274/225
f 299/269/220 348/410/351 364/409/350 336/370/312
