# Blender 4.5.3 LTS
# www.blender.org
mtllib orange.mtl
o orange
v -0.022998 0.132134 -0.000192
v -0.022991 0.132172 -0.000182
v -0.023423 0.132235 -0.000447
v -0.022450 0.132156 -0.001232
v -0.023314 0.016267 -0.034603
v 0.004584 0.083352 -0.055963
v 0.019431 0.116090 -0.011515
v -0.003530 0.130605 -0.004976
v 0.020823 0.024040 -0.002373
v 0.019247 0.034910 0.030305
v -0.014444 0.131895 0.006870
v -0.005823 0.126630 0.022987
v -0.022117 0.131672 -0.001044
v -0.023451 0.132160 -0.001186
v -0.022326 0.132210 -0.000589
v -0.023767 0.131610 -0.000654
v -0.017798 0.033174 -0.052532
v -0.009865 0.126933 -0.026146
v -0.008601 0.053799 -0.060145
v -0.012894 0.077273 -0.063171
v -0.022450 0.010253 -0.021595
v -0.004626 0.098266 -0.054384
v -0.007379 0.009026 -0.006097
v 0.012105 0.063157 -0.052869
v 0.004681 0.038317 -0.048438
v 0.022428 0.052174 -0.040902
v -0.004755 0.112596 -0.044492
v 0.018681 0.101381 -0.036967
v -0.002926 0.016595 -0.029220
v 0.016381 0.029269 -0.029508
v 0.023648 0.081258 -0.042469
v 0.028063 0.071055 -0.037856
v 0.028361 0.041006 -0.023768
v 0.036085 0.078362 -0.021106
v 0.035195 0.055563 -0.020642
v 0.031203 0.097918 -0.017620
v 0.025824 0.031821 0.012455
v 0.039557 0.063306 -0.005199
v 0.033492 0.042281 -0.004505
v 0.029193 0.105079 0.004494
v 0.038579 0.084069 -0.004506
v -0.002387 0.128960 0.010253
v 0.033430 0.089423 0.021098
v 0.006756 0.013817 -0.005363
v 0.017102 0.110928 0.026225
v 0.019716 0.050269 0.041955
v 0.037149 0.075905 0.019273
v 0.013973 0.119748 0.013270
v 0.004563 0.018124 0.023610
v 0.021551 0.066803 0.043882
v 0.021468 0.090919 0.039437
v -0.002895 0.052387 0.056466
v -0.017067 0.122584 0.033729
v 0.000307 0.107808 0.044897
v 0.006635 0.072920 0.054752
v -0.014855 0.019853 0.037073
v -0.008202 0.068245 0.060647
v -0.018634 0.031934 0.049773
v -0.014078 0.009028 0.014214
v -0.024335 0.128679 -0.000406
v -0.020157 0.131243 0.001953
v -0.024465 0.129130 -0.003116
v -0.024411 0.131220 0.002916
v -0.019623 0.130998 -0.003243
v -0.021481 0.009244 -0.002469
v -0.021215 0.129057 0.000623
v 0.006991 0.120600 -0.024614
v 0.035396 0.051103 0.015410
v 0.004222 0.035250 0.044679
v -0.004278 0.095612 0.054172
v -0.022748 0.080317 0.061323
v -0.018648 0.131936 -0.014029
v -0.024447 0.010673 -0.021722
v -0.024469 0.016234 -0.034063
v -0.024508 0.041998 -0.055975
v -0.024502 0.034763 -0.052548
v -0.024496 0.030589 -0.049296
v -0.024518 0.079742 -0.061683
v -0.024512 0.093342 -0.058424
v -0.024435 0.131571 -0.014937
v -0.024453 0.127103 -0.025114
v -0.024466 0.123850 -0.032746
v -0.024516 0.054764 -0.060787
v -0.024521 0.068216 -0.063702
v -0.024474 0.120626 -0.037066
v -0.024491 0.112109 -0.046441
v -0.024506 0.100782 -0.054908
v -0.024509 0.098491 -0.056492
v -0.024378 0.130656 0.016880
v -0.024384 0.131450 0.013779
v -0.024366 0.011882 0.023812
v -0.024361 0.013264 0.026692
v -0.024333 0.115958 0.042117
v -0.024339 0.118762 0.039258
v -0.024331 0.114029 0.043494
v -0.024312 0.099007 0.054082
v -0.024300 0.071718 0.061080
v -0.024301 0.056880 0.060607
v -0.024342 0.021170 0.037384
v -0.024325 0.030046 0.047045
v -0.024300 0.080174 0.061100
v -0.024301 0.083455 0.060187
v -0.024424 0.132002 -0.008636
v -0.024407 0.009215 0.000649
v -0.024407 0.009220 0.000499
v -0.024401 0.132005 0.004201
v -0.024421 0.008880 -0.007112
v -0.024443 0.010043 -0.019639
v -0.024385 0.009446 0.012939
v -0.024471 0.016873 -0.035131
v -0.024522 0.069046 -0.063790
v -0.024302 0.054421 0.060082
v -0.024307 0.046728 0.056805
v -0.024371 0.128749 0.021126
v -0.024320 0.033072 0.049711
v -0.024417 0.131239 -0.004727
v -0.024416 0.131217 -0.004478
v -0.024406 0.009214 0.001057
v -0.024401 0.008912 0.004054
v -0.024415 0.009152 -0.003518
vn -0.7574 -0.5837 -0.2926
vn -0.0052 -0.8346 -0.5509
vn 0.0050 -0.9564 -0.2919
vn -0.7526 -0.6157 -0.2333
vn -0.7008 -0.2627 -0.6632
vn 0.0838 -0.5765 -0.8128
vn -0.7260 -0.3530 -0.5902
vn -0.7227 -0.4748 -0.5023
vn -0.7307 0.1478 -0.6665
vn -0.6689 0.2447 -0.7020
vn 0.1604 0.1203 -0.9797
vn -0.6781 0.7107 -0.1874
vn 0.0533 0.9822 -0.1803
vn -0.7111 0.6468 -0.2757
vn -0.6837 -0.2046 -0.7005
vn -0.6588 -0.1004 -0.7456
vn 0.2288 -0.2504 -0.9407
vn -0.6665 0.5831 -0.4645
vn 0.2804 0.6678 -0.6895
vn -0.6658 0.4995 -0.5542
vn 0.2897 0.4443 -0.8477
vn 0.4559 0.2072 -0.8656
vn 0.3247 -0.8281 -0.4571
vn 0.4370 -0.5016 -0.7466
vn 0.1982 -0.9774 -0.0736
vn 0.7199 -0.2866 -0.6321
vn 0.6168 -0.6470 -0.4483
vn 0.6536 0.4946 -0.5728
vn 0.7268 0.1985 -0.6576
vn 0.3289 0.9417 -0.0703
vn 0.1966 0.8859 -0.4201
vn 0.5397 -0.1082 -0.8349
vn 0.8221 -0.0162 -0.5691
vn 0.8532 0.4417 -0.2775
vn 0.9321 0.1295 -0.3382
vn 0.4731 -0.8787 -0.0637
vn 0.6711 0.7227 -0.1654
vn 0.8093 -0.4659 -0.3578
vn 0.6917 -0.7215 -0.0330
vn 0.9733 0.2257 -0.0413
vn 0.9931 -0.1037 -0.0542
vn 0.9225 -0.2109 -0.3234
vn 0.8972 -0.4376 -0.0601
vn 0.9181 -0.2793 0.2814
vn 0.8327 0.5462 0.0906
vn 0.5913 0.7800 0.2047
vn 0.8780 0.3240 0.3523
vn 0.7643 -0.6055 0.2220
vn 0.4408 -0.8147 0.3769
vn 0.1415 -0.9684 0.2055
vn 0.6365 0.6324 0.4415
vn 0.6980 0.3139 0.6436
vn 0.7241 -0.0433 0.6884
vn 0.9399 0.0561 0.3367
vn 0.6874 -0.2891 0.6662
vn 0.3416 0.9256 0.1631
vn 0.2799 0.8727 0.4000
vn 0.4853 0.0562 0.8725
vn 0.3623 0.6034 0.7104
vn 0.4200 -0.5548 0.7181
vn 0.1332 -0.7899 0.5986
vn 0.2834 0.3863 0.8777
vn 0.3250 -0.2889 0.9005
vn 0.0627 -0.5857 0.8081
vn 0.2231 -0.0118 0.9747
vn -0.6702 0.4298 0.6050
vn -0.6517 0.3667 0.6639
vn 0.0012 0.1669 0.9860
vn 0.0883 0.9921 0.0895
vn -0.6315 0.7693 0.0966
vn -0.6535 0.7430 0.1447
vn -0.6118 0.7576 -0.2276
vn -0.6980 -0.7089 -0.1012
vn -0.6853 -0.7282 -0.0073
vn -0.2300 0.9408 -0.2490
vn -0.2574 0.9559 0.1414
vn -0.4105 0.8707 -0.2707
vn -0.6861 0.6137 -0.3907
vn -0.7051 0.7059 -0.0678
vn -0.7785 0.5382 0.3229
vn -0.6852 0.2561 0.6819
vn -0.6375 0.5102 0.5773
vn -0.6432 0.5834 0.4960
vn -0.6836 0.6616 0.3083
vn -0.6498 0.7220 0.2376
vn -0.6459 0.6792 0.3487
vn -0.6753 0.7332 0.0801
vn -0.6596 0.6386 -0.3964
vn -0.6726 0.4278 -0.6037
vn -0.6443 0.3529 -0.6785
vn -0.6521 -0.0103 -0.7580
vn -0.7207 -0.5316 -0.4449
vn -0.6960 -0.7170 0.0391
vn -0.7059 -0.7082 -0.0125
vn -0.7101 -0.7040 -0.0089
vn -0.6910 -0.7226 -0.0165
vn -0.6637 -0.7467 -0.0435
vn -0.7097 -0.6980 0.0955
vn -0.6461 -0.7059 0.2904
vn -0.6484 -0.6723 0.3573
vn -0.7251 -0.5289 0.4411
vn -0.7301 -0.4860 0.4804
vn -0.7229 -0.3830 0.5752
vn -0.6634 -0.2984 0.6862
vn -0.6360 -0.2265 0.7377
vn -0.6473 -0.1180 0.7530
vn -0.6993 -0.0215 0.7145
vn -0.7314 0.0871 0.6764
vn 0.4891 0.7832 -0.3838
vn 0.6767 -0.5547 0.4842
vn 0.0957 0.8261 0.5553
vn -0.0035 -0.9998 0.0207
vn 0.7676 0.6259 -0.1380
vn -0.1317 0.7378 -0.6620
vn -0.6204 0.4712 -0.6270
vn 0.5410 0.3448 0.7671
vn 0.7575 -0.2106 -0.6180
vn -0.7755 0.5973 0.2047
vn -0.3905 0.0867 0.9165
vt 0.686336 0.627425
vt 0.689169 0.625709
vt 0.696047 0.661783
vt 0.690772 0.661796
vt 0.674460 0.533294
vt 0.702270 0.560312
vt 0.680320 0.560913
vt 0.685082 0.574923
vt 0.215753 0.510097
vt 0.229167 0.473038
vt 0.257539 0.533925
vt 0.272474 0.317587
vt 0.285787 0.319010
vt 0.265717 0.342647
vt 0.670735 0.492309
vt 0.665817 0.438591
vt 0.730921 0.492294
vt 0.258821 0.374272
vt 0.301173 0.413342
vt 0.248315 0.405149
vt 0.292496 0.466484
vt 0.324857 0.516541
vt 0.743114 0.636497
vt 0.773494 0.558308
vt 0.731519 0.697633
vt 0.853844 0.553183
vt 0.804427 0.619152
vt 0.372077 0.426978
vt 0.399402 0.485731
vt 0.328058 0.309786
vt 0.298798 0.356671
vt 0.826763 0.488295
vt 0.908788 0.519616
vt 0.434672 0.387605
vt 0.487381 0.436755
vt 0.773536 0.693864
vt 0.448738 0.505599
vt 0.383415 0.346133
vt 0.861222 0.622823
vt 0.823034 0.695528
vt 0.503095 0.367171
vt 0.545281 0.409576
vt 0.974831 0.602147
vt 0.965088 0.670190
vt 0.918372 0.615456
vt 0.885273 0.682132
vt 0.918445 0.749067
vt 0.438034 0.317655
vt 0.387043 0.279260
vt 0.493544 0.261688
vt 0.848586 0.735425
vt 0.778502 0.763977
vt 0.725650 0.744228
vt 0.416791 0.246499
vt 0.472208 0.199119
vt 0.532682 0.154345
vt 0.984095 0.763447
vt 0.867717 0.840438
vt 0.340279 0.276326
vt 0.340248 0.241875
vt 0.473657 0.101778
vt 0.390036 0.188354
vt 0.793232 0.837390
vt 0.729140 0.803825
vt 0.395471 0.135084
vt 0.797384 0.905264
vt 0.727099 0.855405
vt 0.417582 0.047207
vt 0.319380 0.171318
vt 0.331578 0.121294
vt 0.358827 0.055969
vt 0.304289 0.278526
vt 0.277203 0.304468
vt 0.291226 0.254240
vt 0.283583 0.278076
vt 0.692797 0.667150
vt 0.697349 0.698753
vt 0.290519 0.285722
vt 0.288288 0.290837
vt 0.287623 0.287353
vt 0.286339 0.283739
vt 0.286202 0.287414
vt 0.285708 0.288642
vt 0.350398 0.065261
vt 0.316690 0.178549
vt 0.313011 0.187137
vt 0.298787 0.235762
vt 0.294692 0.246150
vt 0.283871 0.291036
vt 0.283794 0.291672
vt 0.261101 0.362032
vt 0.232982 0.446967
vt 0.231522 0.455452
vt 0.667965 0.436848
vt 0.686125 0.624434
vt 0.696111 0.707405
vt 0.698769 0.713881
vt 0.698991 0.714026
vt 0.699152 0.714952
vt 0.701466 0.723634
vt 0.700235 0.744023
vt 0.702510 0.771691
vt 0.703204 0.779174
vt 0.704701 0.806812
vt 0.710656 0.845519
vt 0.709728 0.858323
vt 0.712705 0.910766
vt 0.716526 0.936210
vt 0.718803 0.944774
vt 0.350120 0.038751
vt 0.352730 0.054620
vt 0.196321 0.546668
vt 0.764118 0.436639
vt 0.382228 0.554707
vt 0.341238 0.367356
vt 0.543965 0.282933
vt 0.565080 0.353787
vt 0.837782 0.790092
vt 0.914473 0.881511
vt 0.862211 0.946456
vt 0.791542 0.966434
vt 0.326517 0.209115
vt 0.701689 0.709317
vt 0.745692 0.995923
vt 0.732005 0.977359
vt 0.167011 0.795346
vt 0.109857 0.692301
vt 0.265924 0.660417
vt 0.163132 0.895901
vt 0.076692 0.781187
vt 0.242079 0.767344
vt 0.332857 0.777998
s 1
usemtl Skin
f 74/1/1 5/2/2 21/3/3 73/4/4
f 75/5/5 17/6/6 76/7/7
f 77/8/8 76/7/7 17/6/6
f 78/9/9 79/10/10 20/11/11
f 80/12/12 72/13/13 81/14/14
f 83/15/15 84/16/16 19/17/17
f 85/18/18 27/19/19 86/20/20
f 22/21/21 6/22/22 20/11/11
f 21/3/3 5/2/2 29/23/23
f 19/17/17 25/24/24 17/6/6
f 21/3/3 29/23/23 23/25/25
f 26/26/26 30/27/27 25/24/24
f 27/19/19 28/28/28 22/21/21
f 29/23/23 25/24/24 30/27/27
f 28/28/28 31/29/29 6/22/22
f 72/13/13 8/30/30 18/31/31
f 24/32/32 32/33/33 26/26/26
f 31/29/29 36/34/34 34/35/35
f 29/23/23 30/27/27 44/36/36
f 31/29/29 34/35/35 32/37/33
f 28/28/28 7/38/37 36/34/34
f 30/27/27 33/39/38 9/40/39
f 34/35/35 41/41/40 38/42/41
f 34/43/35 38/44/41 35/45/42
f 35/45/42 38/44/41 39/46/43
f 38/44/41 68/47/44 39/46/43
f 36/34/34 7/38/37 40/48/45
f 36/34/34 41/41/40 34/35/35
f 7/38/37 8/30/30 48/49/46
f 40/48/45 43/50/47 41/41/40
f 37/51/48 49/52/49 9/40/39
f 9/40/39 49/52/49 44/36/36
f 23/25/25 44/36/36 59/53/50
f 40/48/45 45/54/51 43/50/47
f 43/50/47 51/55/52 50/56/53
f 44/36/36 49/52/49 59/53/50
f 68/47/44 47/57/54 46/58/55
f 42/59/56 12/60/57 48/49/46
f 51/55/52 55/61/58 50/56/53
f 12/60/57 54/62/59 45/54/51
f 45/54/51 54/62/59 51/55/52
f 49/52/49 69/63/60 56/64/61
f 51/55/52 70/65/62 55/61/58
f 52/66/63 58/67/64 69/63/60
f 70/65/62 57/68/65 55/61/58
f 95/69/66 96/70/67 70/65/62
f 70/65/62 71/71/68 57/68/65
f 8/30/30 72/13/13 11/72/69
f 80/12/12 103/73/70 72/13/13
f 90/74/71 11/72/69 106/75/72
f 108/76/73 21/3/3 23/25/25 107/77/74
f 61/78/75 64/79/76 66/80/77
f 61/78/75 66/80/77 63/81/78
f 64/79/76 60/82/79 66/80/77
f 62/83/80 60/82/79 64/79/76
f 102/84/81 96/70/67 95/69/66 93/85/82 94/86/83 114/87/84 89/88/85 90/74/71 106/75/72 63/81/78 60/82/79 62/83/80 117/89/86 116/90/87 103/73/70 80/12/12 81/14/14 82/91/88 85/18/18 86/20/20 87/92/89 88/93/90 79/10/10 78/9/9 111/94/91 84/16/16 83/15/15 75/5/5 76/7/7 77/8/8 110/95/92 74/1/1 73/4/4 108/76/73 107/77/74 120/96/93 105/97/94 104/98/95 118/99/96 119/100/97 109/101/98 91/102/99 92/103/100 99/104/101 100/105/102 115/106/103 113/107/104 112/108/105 98/109/106 97/110/107 101/111/108
f 74/1/1 110/95/92 5/2/2
f 108/76/73 73/4/4 21/3/3
f 111/112/91 78/9/9 20/11/11
f 111/94/91 20/113/11 19/17/17 84/16/16
f 82/91/88 18/31/31 27/19/19 85/18/18
f 86/20/20 27/19/19 87/92/89
f 17/6/6 25/24/24 29/23/23
f 5/2/2 17/6/6 29/23/23
f 20/113/11 24/32/32 19/17/17
f 25/24/24 19/17/17 24/32/32
f 6/22/22 22/21/21 28/28/28
f 20/11/11 6/22/22 24/114/32
f 24/114/32 6/22/22 31/29/29
f 27/19/19 18/31/31 67/115/109
f 25/24/24 24/32/32 26/26/26
f 27/19/19 67/115/109 28/28/28
f 24/114/32 31/29/29 32/37/33
f 67/115/109 7/38/37 28/28/28
f 26/26/26 33/39/38 30/27/27
f 28/28/28 36/34/34 31/29/29
f 67/115/109 18/31/31 8/30/30
f 32/33/33 34/43/35 35/45/42
f 26/26/26 32/33/33 35/45/42
f 33/39/38 26/26/26 35/45/42
f 33/39/38 35/45/42 39/46/43
f 44/36/36 30/27/27 9/40/39
f 67/115/109 8/30/30 7/38/37
f 41/41/40 36/34/34 40/48/45
f 9/40/39 33/39/38 39/46/43
f 41/41/40 47/116/54 38/117/41
f 38/44/41 47/57/54 68/47/44
f 7/38/37 48/49/46 40/48/45
f 39/46/43 68/47/44 37/51/48
f 9/40/39 39/46/43 37/51/48
f 41/41/40 43/50/47 47/116/54
f 8/30/30 11/72/69 42/59/56
f 48/49/46 8/30/30 42/59/56
f 40/48/45 48/49/46 45/54/51
f 37/51/48 68/47/44 10/118/110
f 68/47/44 46/58/55 10/118/110
f 43/50/47 45/54/51 51/55/52
f 37/51/48 10/118/110 49/52/49
f 47/116/54 43/50/47 50/56/53
f 47/57/54 50/119/53 46/58/55
f 45/54/51 48/49/46 12/60/57
f 10/118/110 69/63/60 49/52/49
f 69/63/60 10/118/110 46/58/55
f 51/55/52 54/62/59 70/65/62
f 42/59/56 11/72/69 12/60/57
f 69/63/60 58/67/64 56/64/61
f 49/52/49 56/64/61 59/53/50
f 52/66/63 50/119/53 55/120/58
f 46/58/55 50/119/53 52/66/63
f 46/58/55 52/66/63 69/63/60
f 52/66/63 55/120/58 57/121/65
f 12/60/57 53/122/111 54/62/59
f 97/110/107 71/71/68 101/111/108
f 94/86/83 53/122/111 114/87/84
f 113/107/104 115/106/103 58/67/64
f 100/105/102 58/67/64 115/106/103
f 11/72/69 72/13/13 64/79/76
f 106/75/72 11/72/69 63/81/78
f 63/81/78 11/72/69 61/78/75
f 120/96/93 65/123/112 105/97/94
f 23/25/25 29/23/23 44/36/36
f 107/77/74 23/25/25 65/123/112 120/96/93
f 63/81/78 66/80/77 60/82/79
f 61/78/75 11/72/69 64/79/76
f 59/53/50 119/100/97 118/99/96
f 72/13/13 116/90/87 117/89/86 64/79/76
f 58/67/64 52/66/63 112/108/105 113/107/104
f 64/79/76 117/89/86 62/83/80
f 59/53/50 109/101/98 119/100/97
f 23/25/25 104/98/95 105/97/94 65/123/112
f 59/53/50 118/99/96 104/98/95 23/25/25
f 72/13/13 103/73/70 116/90/87
f 71/71/68 102/84/81 101/111/108
f 56/64/61 58/67/64 100/105/102 99/104/101
f 52/66/63 57/121/65 98/109/106 112/108/105
f 71/124/68 97/125/107 98/109/106 57/121/65
f 70/65/62 96/70/67 102/84/81 71/71/68
f 54/62/59 53/122/111 94/86/83 93/85/82
f 54/62/59 93/85/82 95/69/66 70/65/62
f 56/64/61 99/104/101 92/103/100
f 59/53/50 56/64/61 92/103/100 91/102/99
f 59/53/50 91/102/99 109/101/98
f 12/60/57 11/72/69 90/74/71 89/88/85
f 53/122/111 12/60/57 89/88/85 114/87/84
f 27/19/19 22/21/21 88/93/90 87/92/89
f 72/13/13 18/31/31 82/91/88 81/14/14
f 20/11/11 79/10/10 88/93/90 22/21/21
f 5/2/2 110/95/92 77/8/8 17/6/6
f 17/6/6 75/5/5 83/15/15 19/17/17
usemtl Stub.003
f 16/126/113 2/127/114 15/128/115
f 14/129/116 3/130/117 16/126/113
f 13/131/118 14/129/116 16/126/113
f 16/126/113 15/128/115 13/131/118
f 13/131/118 15/128/115 4/132/119
f 13/131/118 4/132/119 14/129/116
f 16/126/113 3/130/117 2/127/114
l 1 2
