# Blender 4.5.3 LTS
# www.blender.org
mtllib orange.mtl
o orange.002
v -0.031297 0.132178 0.000664
v -0.031290 0.132216 0.000674
v -0.031722 0.132279 0.000409
v -0.094126 0.062755 -0.001344
v -0.057734 0.126820 -0.008643
v -0.084979 0.092348 -0.025205
v -0.056000 0.015606 -0.022345
v -0.060139 0.061151 -0.055302
v -0.031613 0.016311 -0.033747
v -0.035669 0.054757 0.061456
v -0.050634 0.036720 0.050371
v -0.049415 0.128018 0.018585
v -0.035709 0.131358 0.016739
v -0.085476 0.040606 0.015098
v -0.067833 0.020589 0.016550
v -0.032849 0.131267 -0.003656
v -0.031750 0.132204 -0.000330
v -0.032066 0.131654 0.000202
v -0.078137 0.112527 -0.001770
v -0.092333 0.071245 -0.015717
v -0.077165 0.026482 0.003149
v -0.073428 0.115010 -0.015432
v -0.084797 0.046402 -0.024497
v -0.058003 0.012999 -0.006876
v -0.084982 0.065515 -0.032787
v -0.074872 0.026345 -0.014024
v -0.075976 0.073633 -0.045181
v -0.071527 0.038799 -0.038228
v -0.065376 0.097601 -0.045612
v -0.066123 0.110302 -0.034173
v -0.047865 0.024817 -0.041158
v -0.036565 0.098577 -0.056034
v -0.042984 0.055425 -0.060340
v -0.051919 0.039338 -0.051736
v -0.052090 0.083880 -0.058359
v -0.033335 0.068726 -0.062961
v -0.042289 0.111919 -0.046523
v -0.034085 0.012320 0.025993
v -0.035911 0.117086 0.042603
v -0.050872 0.078536 0.059335
v -0.062314 0.058390 0.054318
v -0.065433 0.082322 0.052007
v -0.054035 0.015917 0.023850
v -0.074410 0.042872 0.038019
v -0.051490 0.023831 0.038859
v -0.084497 0.086342 0.030112
v -0.085305 0.063992 0.032711
v -0.089507 0.094138 0.009596
v -0.047873 0.010107 0.011918
v -0.076518 0.108445 0.022228
v -0.043398 0.132167 0.002189
v -0.063888 0.123810 0.008974
v -0.040741 0.131110 -0.015336
v -0.032950 0.009262 0.001602
v -0.044776 0.008820 -0.006973
v -0.032634 0.128723 0.000450
v -0.032764 0.129174 -0.002260
v -0.032710 0.131264 0.003772
v -0.035293 0.131371 -0.000425
v -0.089738 0.093943 -0.003950
v -0.087511 0.042708 -0.008289
v -0.054108 0.122373 -0.027816
v -0.037984 0.122792 -0.034248
v -0.041005 0.100474 0.054901
v -0.058275 0.116144 0.034291
v -0.066340 0.099994 0.043551
v -0.092885 0.065343 0.013390
v -0.031238 0.010400 -0.020770
v -0.031238 0.013705 -0.028109
v -0.031238 0.039979 -0.054314
v -0.031238 0.034437 -0.051688
v -0.031238 0.031234 -0.049192
v -0.031238 0.079451 -0.061029
v -0.031238 0.091210 -0.058210
v -0.031238 0.131709 -0.013846
v -0.031238 0.128407 -0.021368
v -0.031238 0.124216 -0.031199
v -0.031238 0.054713 -0.059867
v -0.031238 0.066828 -0.062493
v -0.031238 0.120045 -0.036788
v -0.031238 0.112192 -0.045432
v -0.031238 0.101763 -0.053225
v -0.031238 0.098517 -0.055469
v -0.031238 0.016317 -0.033648
v -0.031238 0.130388 0.018210
v -0.031238 0.131558 0.013631
v -0.031238 0.011530 0.023337
v -0.031238 0.014293 0.029101
v -0.031238 0.115541 0.043130
v -0.031238 0.119542 0.039050
v -0.031238 0.112795 0.045091
v -0.031238 0.098819 0.054945
v -0.031238 0.079300 0.062149
v -0.031238 0.057885 0.061467
v -0.031238 0.021019 0.038194
v -0.031238 0.030550 0.048565
v -0.031238 0.080343 0.062152
v -0.031238 0.080748 0.062039
v -0.031238 0.132029 -0.009166
v -0.031238 0.009243 0.000924
v -0.031238 0.009276 -0.000134
v -0.031238 0.132033 0.005449
v -0.031238 0.008936 -0.006167
v -0.031238 0.010245 -0.020259
v -0.031238 0.009432 0.013974
v -0.031238 0.131272 0.003439
v -0.031238 0.130268 0.002716
v -0.031238 0.129410 -0.000390
v -0.031238 0.128892 0.000910
v -0.031238 0.129763 -0.002300
v -0.031238 0.017459 -0.034964
v -0.031238 0.070209 -0.062849
v -0.031238 0.054336 0.060708
v -0.031238 0.043205 0.055965
v -0.031238 0.127585 0.024452
v -0.031238 0.032839 0.050582
v -0.031238 0.131462 -0.006253
v -0.031238 0.131193 -0.003241
v -0.031238 0.009231 0.003782
v -0.031238 0.008972 0.006349
v -0.031238 0.131364 0.004356
v -0.031238 0.009242 -0.002134
v -0.031238 0.131999 0.000239
v -0.031238 0.131685 0.000006
v -0.031238 0.132017 -0.000276
v -0.031238 0.132202 -0.000354
vn -0.8999 -0.4202 -0.1168
vn -0.6865 -0.6855 -0.2424
vn -0.7266 -0.6858 0.0409
vn -0.5280 0.8367 0.1454
vn -0.1686 0.9855 0.0217
vn -0.4341 0.8909 -0.1337
vn -0.9300 0.3548 -0.0956
vn -0.6734 0.6946 -0.2530
vn -0.8421 0.3513 -0.4092
vn -0.9684 0.0277 -0.2480
vn -0.3929 -0.8395 -0.3753
vn -0.4447 -0.8924 -0.0770
vn -0.9934 -0.1108 -0.0295
vn -0.8489 -0.3585 -0.3884
vn -0.5618 0.6210 -0.5466
vn -0.6313 -0.4810 -0.6084
vn -0.8496 -0.0796 -0.5214
vn -0.3696 0.8159 -0.4447
vn -0.6986 0.0528 -0.7136
vn -0.5414 0.4244 -0.7258
vn -0.4760 -0.1412 -0.8680
vn -0.2713 -0.7143 -0.6451
vn -0.1486 0.9567 -0.2503
vn -0.0761 0.8325 -0.5488
vn -0.1717 -0.2294 -0.9581
vn -0.3280 -0.4719 -0.8184
vn -0.1743 0.6450 -0.7440
vn -0.0773 0.4396 -0.8949
vn -0.3239 0.2159 -0.9211
vn -0.0559 -0.0181 -0.9983
vn 0.6637 -0.5787 0.4739
vn 0.6712 -0.6130 0.4167
vn 0.6784 -0.7065 0.2018
vn 0.6683 -0.7360 0.1084
vn 0.6864 -0.7271 0.0142
vn 0.7274 -0.6840 -0.0549
vn 0.6972 -0.7167 -0.0150
vn 0.7065 -0.7077 0.0035
vn 0.7068 -0.7069 0.0282
vn 0.6919 -0.7220 -0.0038
vn 0.6356 -0.7495 -0.1849
vn 0.6282 -0.7302 -0.2689
vn 0.6468 -0.6953 -0.3134
vn 0.7317 -0.5778 -0.3617
vn 0.6860 -0.5247 -0.5041
vn 0.6489 -0.4946 -0.5781
vn 0.6369 -0.4134 -0.6508
vn 0.6701 -0.3069 -0.6759
vn 0.6986 -0.2047 -0.6856
vn 0.7138 -0.1289 -0.6884
vn 0.6673 0.0768 -0.7408
vn 0.6734 0.1555 -0.7227
vn 0.6786 0.1882 -0.7100
vn 0.7158 0.3255 -0.6178
vn 0.7283 0.4043 -0.5532
vn 0.7063 0.4787 -0.5215
vn 0.7198 0.5288 -0.4497
vn 0.6903 0.6394 -0.3386
vn 0.7067 0.6483 -0.2834
vn 0.6604 0.7323 -0.1660
vn 0.6828 0.7307 -0.0001
vn 0.7533 0.6478 0.1138
vn 0.5798 0.6713 0.4618
vn 0.4395 0.7164 0.5418
vn 0.5622 0.8024 0.2002
vn 0.5858 0.7867 -0.1947
vn 0.6877 0.5429 -0.4819
vn 0.5771 0.6872 -0.4412
vn 0.6981 0.6656 -0.2639
vn 0.6688 0.7291 -0.1455
vn 0.6992 0.7101 0.0834
vn 0.7196 0.6508 0.2421
vn 0.6728 0.6524 0.3489
vn 0.6674 0.6249 0.4052
vn 0.7313 0.4343 0.5260
vn 0.7393 0.3888 0.5498
vn 0.7079 0.3278 0.6257
vn 0.6472 0.2149 0.7314
vn 0.6197 0.1099 0.7771
vn 0.6551 -0.0031 0.7555
vn 0.7083 -0.0609 0.7033
vn 0.7321 -0.2113 0.6476
vn 0.6701 -0.3368 0.6615
vn 0.6348 -0.4442 0.6323
vn 0.6513 -0.5214 0.5513
vn -0.0051 -0.8345 -0.5509
vn -0.0571 0.9585 0.2795
vn -0.0483 -0.9072 0.4180
vn -0.0791 0.7287 0.6803
vn -0.0782 -0.2381 0.9681
vn -0.3256 -0.7203 0.6125
vn -0.1520 0.4776 0.8653
vn -0.2908 0.1284 0.9481
vn -0.4957 -0.1785 0.8499
vn -0.5609 0.1871 0.8064
vn -0.3590 -0.8491 0.3875
vn -0.2413 -0.9571 0.1607
vn -0.3069 -0.5077 0.8050
vn -0.6766 -0.4356 0.5938
vn -0.2980 0.8989 0.3211
vn -0.4193 0.7245 0.5471
vn -0.8408 -0.0907 0.5338
vn -0.5515 0.4678 0.6906
vn -0.7128 0.6045 0.3557
vn -0.8355 0.2471 0.4907
vn -0.8577 -0.4501 0.2486
vn -0.9211 0.3543 0.1617
vn -0.9740 -0.0590 0.2187
vn -0.7483 0.6631 -0.0160
vn 0.0527 -0.9976 -0.0439
vn -0.5840 -0.7636 0.2752
vn 0.1703 0.8663 -0.4695
vn 0.2841 0.9461 -0.1557
vn 0.3510 0.9362 0.0165
vn 0.1941 0.8977 0.3956
vn -0.1554 -0.9835 -0.0924
vn 0.2366 0.8314 0.5027
vn 0.5412 0.3448 0.7669
vn 0.7575 -0.2105 -0.6180
vn 0.7682 0.6251 -0.1386
vn 0.1122 0.5489 0.8283
vn -0.0177 0.9962 0.0854
vn 0.0427 0.3870 0.9211
vn 0.0250 0.6227 -0.7821
vn -0.2832 0.7425 -0.6070
vt 0.510144 0.704748
vt 0.571379 0.685619
vt 0.573161 0.735142
vt 0.214783 0.247010
vt 0.261338 0.277592
vt 0.220423 0.288865
vt 0.101086 0.245148
vt 0.168220 0.300316
vt 0.089039 0.317393
vt 0.016200 0.281241
vt 0.629359 0.661943
vt 0.633799 0.703942
vt 0.432480 0.729368
vt 0.416749 0.650972
vt 0.505888 0.649102
vt 0.169036 0.348711
vt 0.558433 0.604516
vt 0.014069 0.340633
vt 0.212919 0.337942
vt 0.450544 0.595442
vt 0.477555 0.534886
vt 0.141748 0.392828
vt 0.066075 0.422548
vt 0.558157 0.500490
vt 0.646414 0.607796
vt 0.254056 0.315618
vt 0.247630 0.363948
vt 0.632283 0.492318
vt 0.617725 0.562627
vt 0.222875 0.401206
vt 0.220001 0.453368
vt 0.146474 0.470590
vt 0.593602 0.442448
vt 0.663715 0.436857
vt 0.708314 0.806370
vt 0.707083 0.782861
vt 0.705719 0.767882
vt 0.703801 0.744052
vt 0.704890 0.726550
vt 0.702917 0.719111
vt 0.701795 0.712612
vt 0.700234 0.711591
vt 0.698916 0.708367
vt 0.700320 0.698655
vt 0.695249 0.663101
vt 0.694754 0.661786
vt 0.692150 0.641343
vt 0.690160 0.625907
vt 0.690058 0.621270
vt 0.689077 0.571528
vt 0.685436 0.560773
vt 0.680961 0.539610
vt 0.676699 0.492307
vt 0.672288 0.443929
vt 0.681051 0.436819
vt 0.221428 0.513333
vt 0.233008 0.481281
vt 0.236335 0.456323
vt 0.238391 0.444300
vt 0.252471 0.405793
vt 0.262117 0.377313
vt 0.265044 0.361471
vt 0.270950 0.336483
vt 0.275915 0.317955
vt 0.279409 0.308205
vt 0.284304 0.298674
vt 0.285232 0.290975
vt 0.286521 0.289334
vt 0.286820 0.288428
vt 0.286838 0.287387
vt 0.286930 0.285403
vt 0.287785 0.284425
vt 0.288989 0.282969
vt 0.286623 0.278142
vt 0.293125 0.257770
vt 0.298225 0.245818
vt 0.304222 0.230539
vt 0.315610 0.191366
vt 0.320840 0.179104
vt 0.324661 0.168803
vt 0.335957 0.122239
vt 0.357788 0.057114
vt 0.358075 0.055803
vt 0.357752 0.053844
vt 0.724955 0.946606
vt 0.721672 0.934240
vt 0.716176 0.897416
vt 0.713947 0.857615
vt 0.714659 0.847926
vt 0.689169 0.625709
vt 0.287250 0.246848
vt 0.699317 0.775480
vt 0.306932 0.177245
vt 0.744003 0.993632
vt 0.704937 0.940645
vt 0.656147 0.812746
vt 0.304810 0.115517
vt 0.280949 0.038738
vt 0.650088 0.995429
vt 0.598970 0.930479
vt 0.214473 0.066662
vt 0.260016 0.001948
vt 0.649797 0.773691
vt 0.662786 0.743722
vt 0.654698 0.867568
vt 0.569876 0.845447
vt 0.257977 0.234002
vt 0.242797 0.183865
vt 0.480446 0.865856
vt 0.222039 0.130357
vt 0.184745 0.190383
vt 0.134624 0.129981
vt 0.529940 0.778744
vt 0.112434 0.197585
vt 0.049488 0.147648
vt 0.114329 0.074130
vt 0.159472 0.258399
vt 0.444814 0.800636
vt 0.698526 0.714260
vt 0.016000 0.217046
vt 0.606355 0.762979
vt 0.286339 0.283739
vt 0.286202 0.287414
vt 0.282345 0.287127
vt 0.079683 0.484066
vt 0.527586 0.946943
vt 0.283748 0.291042
vt 0.673177 0.699545
vt 0.285708 0.288642
vt 0.332899 0.004699
vt 0.193615 0.547231
vt 0.204652 0.544934
vt 0.163132 0.895901
vt 0.076692 0.781187
vt 0.167011 0.795346
vt 0.193400 0.846613
vt 0.204656 0.781303
vt 0.249851 0.835660
vt 0.109857 0.692301
vt 0.223809 0.717867
s 1
usemtl Skin
f 61/1/1 26/2/2 21/3/3
f 52/4/4 51/5/5 5/6/6
f 60/7/7 22/8/8 6/9/9
f 60/7/7 6/9/9 20/10/10
f 26/2/2 7/11/11 24/12/12
f 4/13/13 20/14/10 23/15/14
f 22/8/8 30/16/15 6/9/9
f 23/15/14 28/17/16 26/2/2
f 6/9/9 25/18/17 20/10/10
f 62/19/18 30/16/15 22/8/8
f 23/15/14 25/20/17 28/17/16
f 27/21/19 28/17/16 25/20/17
f 6/9/9 30/16/15 29/22/20
f 6/9/9 29/22/20 27/23/19
f 27/21/19 8/24/21 28/17/16
f 7/11/11 28/17/16 31/25/22
f 53/26/23 63/27/24 62/19/18
f 8/24/21 33/28/25 34/29/26
f 30/16/15 37/30/27 29/22/20
f 37/30/27 32/31/28 35/32/29
f 8/24/21 35/33/29 33/28/25
f 35/33/29 36/34/30 33/28/25
f 95/35/31 88/36/32 87/37/33 105/38/34 120/39/35 119/40/36 100/41/37 101/42/38 122/43/39 103/44/40 104/45/41 68/46/42 69/47/43 84/48/44 111/49/45 72/50/46 71/51/47 70/52/48 78/53/49 79/54/50 112/55/51 73/56/52 74/57/53 83/58/54 82/59/55 81/60/56 80/61/57 77/62/58 76/63/59 75/64/60 99/65/61 117/66/62 118/67/63 110/68/64 108/69/65 109/70/66 107/71/67 106/72/68 121/73/69 102/74/70 86/75/71 85/76/72 115/77/73 90/78/74 89/79/75 91/80/76 92/81/77 98/82/78 97/83/79 93/84/80 94/85/81 113/86/82 114/87/83 116/88/84 96/89/85
f 76/63/59 77/62/58 63/27/24
f 82/59/55 83/58/54 32/31/28
f 69/47/43 9/90/86 84/48/44
f 85/76/72 86/75/71 13/91/87
f 87/37/33 88/36/32 38/92/88
f 89/79/75 90/78/74 39/93/89
f 93/94/80 10/95/90 94/85/81
f 95/35/31 96/89/85 45/96/91
f 98/82/78 64/97/92 40/98/93 97/83/79
f 10/95/90 40/99/93 41/100/94
f 40/98/93 42/101/95 41/102/94
f 43/103/96 49/104/97 38/92/88
f 11/105/98 41/100/94 44/106/99
f 12/107/100 52/4/4 65/108/101
f 41/100/94 47/109/102 44/106/99
f 66/110/103 50/111/104 46/112/105
f 66/110/103 46/112/105 42/101/95
f 44/106/99 47/109/102 14/113/106
f 50/111/104 48/114/107 46/112/105
f 46/112/105 67/115/108 47/116/102
f 50/111/104 52/4/4 19/117/109
f 47/109/102 67/118/108 14/113/106
f 100/41/37 54/119/110 101/42/38
f 48/114/107 19/117/109 60/7/7
f 67/115/108 48/114/107 4/120/13
f 49/104/97 15/121/111 24/12/12
f 87/37/33 38/92/88 49/104/97 105/38/34
f 58/122/112 56/123/113 59/124/114
f 106/72/68 107/71/67 58/122/112
f 108/69/65 56/123/113 109/70/66
f 21/3/3 26/2/2 24/12/12
f 4/120/13 60/7/7 20/10/10
f 48/114/107 60/7/7 4/120/13
f 19/117/109 52/4/4 22/8/8
f 22/8/8 52/4/4 5/6/6
f 14/113/106 4/13/13 61/1/1
f 21/3/3 14/113/106 61/1/1
f 61/1/1 23/15/14 26/2/2
f 60/7/7 19/117/109 22/8/8
f 5/6/6 51/5/5 53/26/23
f 20/14/10 25/20/17 23/15/14
f 61/1/1 4/13/13 23/15/14
f 26/2/2 28/17/16 7/11/11
f 25/18/17 6/9/9 27/23/19
f 22/8/8 5/6/6 62/19/18
f 5/6/6 53/26/23 62/19/18
f 28/17/16 8/24/21 34/29/26
f 28/17/16 34/29/26 31/25/22
f 27/23/19 29/22/20 35/32/29
f 27/23/19 35/32/29 8/125/21
f 7/11/11 31/25/22 9/90/86
f 30/16/15 62/19/18 37/30/27
f 29/22/20 37/30/27 35/32/29
f 62/19/18 63/27/24 37/30/27
f 70/52/48 33/28/25 78/53/49
f 74/57/53 32/31/28 83/58/54
f 113/86/82 94/85/81 10/95/90
f 89/79/75 39/93/89 91/80/76
f 114/87/83 113/86/82 10/95/90
f 92/81/77 64/97/92 98/82/78
f 115/77/73 85/76/72 13/91/87
f 95/35/31 45/96/91 38/92/88 88/36/32
f 64/97/92 42/101/95 40/98/93
f 13/91/87 12/107/100 39/93/89
f 38/92/88 45/96/91 43/103/96
f 10/95/90 41/100/94 11/105/98
f 64/97/92 39/93/89 65/108/101
f 42/101/95 64/97/92 66/110/103
f 39/93/89 12/107/100 65/108/101
f 66/110/103 64/97/92 65/108/101
f 45/96/91 11/105/98 44/106/99
f 42/126/95 47/109/102 41/100/94
f 42/101/95 46/112/105 47/116/102
f 66/110/103 65/108/101 50/111/104
f 45/96/91 44/106/99 15/121/111
f 43/103/96 45/96/91 15/121/111
f 15/121/111 44/106/99 14/113/106
f 13/91/87 51/5/5 12/107/100
f 43/103/96 15/121/111 49/104/97
f 65/108/101 52/4/4 50/111/104
f 15/121/111 14/113/106 21/3/3
f 12/107/100 51/5/5 52/4/4
f 46/112/105 48/114/107 67/115/108
f 117/66/62 16/127/115 118/67/63
f 120/39/35 55/128/116 54/119/110 119/40/36
f 99/65/61 51/5/5 16/127/115 117/66/62
f 14/113/106 67/118/108 4/13/13
f 48/114/107 50/111/104 19/117/109
f 15/121/111 21/3/3 24/12/12
f 49/104/97 24/12/12 55/128/116
f 55/128/116 24/12/12 7/11/11
f 105/38/34 49/104/97 55/128/116 120/39/35
f 119/40/36 54/119/110 100/41/37
f 59/124/114 56/123/113 57/129/117
f 118/67/63 16/127/115 57/129/117 110/68/64
f 16/127/115 59/124/114 57/129/117
f 59/124/114 51/5/5 58/122/112
f 51/5/5 59/124/114 16/127/115
f 10/95/90 11/105/98 116/88/84 114/87/83
f 57/129/117 56/123/113 108/69/65 110/68/64
f 58/122/112 107/71/67 109/70/66 56/123/113
f 58/122/112 121/73/69 106/72/68
f 55/128/116 104/45/41 103/44/40
f 55/128/116 103/44/40 122/43/39
f 51/5/5 102/74/70 121/73/69 58/122/112
f 55/128/116 122/43/39 101/42/38 54/119/110
f 45/96/91 96/89/85 116/88/84 11/105/98
f 10/130/90 93/84/80 97/83/79 40/98/93
f 39/93/89 64/97/92 92/81/77 91/80/76
f 39/93/89 90/78/74 115/77/73 13/91/87
f 13/91/87 86/75/71 102/74/70 51/5/5
f 9/90/86 111/49/45 84/48/44
f 37/30/27 81/60/56 82/59/55 32/31/28
f 63/27/24 80/61/57 81/60/56 37/30/27
f 36/34/30 112/55/51 79/54/50
f 33/28/25 36/34/30 79/54/50 78/53/49
f 63/27/24 77/62/58 80/61/57
f 53/26/23 75/64/60 76/63/59 63/27/24
f 53/26/23 51/5/5 99/65/61 75/64/60
f 35/32/29 32/31/28 74/57/53 73/56/52
f 36/131/30 35/32/29 73/56/52 112/132/51
f 9/90/86 31/25/22 72/50/46 111/49/45
f 31/25/22 34/29/26 71/51/47 72/50/46
f 33/28/25 70/52/48 71/51/47 34/29/26
f 7/11/11 9/90/86 69/47/43 68/46/42
f 55/128/116 7/11/11 68/46/42 104/45/41
usemtl Stub.007
f 17/133/118 3/134/119 18/135/120
f 125/136/121 17/133/118 18/135/120 124/137/122
f 125/136/121 126/138/123 17/133/118
f 18/135/120 3/134/119 2/139/124
f 18/135/120 123/140/125 124/137/122
f 18/135/120 2/139/124 123/140/125
l 1 2
