# Blender 4.5.2 LTS
# www.blender.org
mtllib cucumber.mtl
o cucumber
v -0.048105 0.077074 0.136796
v -0.045464 0.035449 0.129816
v -0.051505 0.042318 0.130650
v -0.057382 0.047422 0.131106
v -0.055759 0.052720 0.130805
v -0.003635 0.070109 0.144327
v -0.044965 0.052270 0.156433
v -0.018044 0.058801 0.168564
v -0.030405 0.065790 0.170352
v -0.027326 0.059517 0.170545
v -0.061976 0.048506 0.080064
v -0.054326 0.069446 0.094231
v 0.003411 0.045470 0.057236
v -0.049288 0.029904 0.086696
v -0.038548 0.025076 0.102770
v -0.059158 0.060306 -0.053313
v -0.049316 0.071230 -0.046995
v -0.046450 0.076691 -0.040367
v -0.014963 0.079739 -0.038011
v -0.022277 0.017950 -0.059917
v -0.059367 0.057974 -0.082595
v -0.008274 0.073446 -0.050095
v -0.001292 0.071159 -0.053815
v 0.003519 0.051523 -0.052990
v -0.057916 0.054109 0.003348
v -0.048788 0.068772 0.021139
v -0.046973 0.071870 -0.008311
v -0.039292 0.076833 -0.019892
v -0.028723 0.080182 -0.023815
v -0.020596 0.080118 -0.002931
v -0.009769 0.078099 -0.019870
v -0.008355 0.074392 0.001156
v -0.001394 0.063671 -0.015420
v 0.005880 0.055217 -0.018565
v 0.003070 0.038521 -0.009112
v -0.006336 0.022778 0.000588
v -0.012061 0.018979 -0.033347
v -0.022485 0.014884 0.004619
v -0.024140 0.011674 -0.012807
v -0.030298 0.014881 -0.041023
v -0.039943 0.017414 -0.029854
v -0.056012 0.033554 -0.029684
v -0.058665 0.051102 0.035781
v -0.061498 0.060535 0.050813
v -0.045300 0.078525 0.067587
v -0.044017 0.077635 0.049316
v -0.030504 0.080407 0.065716
v -0.022352 0.081026 0.080096
v 0.006069 0.039237 0.038447
v -0.010006 0.022885 0.059756
v -0.015925 0.018345 0.035068
v -0.027997 0.015706 0.066363
v -0.033284 0.017792 0.057462
v -0.054337 0.025545 0.056241
v 0.005782 0.056265 -0.110820
v -0.007132 0.102347 -0.121574
v -0.004171 0.095471 -0.118213
v 0.002188 0.088381 -0.113924
v 0.005382 0.067665 -0.120263
v -0.055994 0.082287 -0.128336
v -0.014929 0.044912 -0.129573
v -0.059766 0.072170 -0.112359
v -0.050693 0.083665 -0.088492
v -0.042606 0.083134 -0.077597
v -0.039154 0.086487 -0.074561
v -0.027116 0.082748 -0.065006
v -0.003337 0.074793 -0.073676
v 0.002784 0.071019 -0.080527
v 0.003843 0.051908 -0.097358
v -0.002550 0.034329 -0.084163
v -0.058019 0.043842 -0.088874
v -0.057607 0.050225 -0.108945
v -0.059935 0.049028 -0.041125
v -0.048061 0.095434 -0.132703
v -0.011207 0.089831 -0.142473
v -0.015969 0.078677 -0.147255
v -0.032617 0.070707 -0.148144
v -0.045648 0.072632 -0.142644
v -0.037618 0.104992 -0.128798
v -0.061187 0.080753 -0.115327
v -0.045199 0.082155 0.133445
v -0.032917 0.087778 0.135762
v -0.025080 0.088477 0.133288
v -0.012449 0.082775 0.130572
v 0.001432 0.055825 0.124881
v 0.006880 0.057975 -0.088821
v -0.003088 0.048297 0.139363
v -0.005558 0.045575 -0.120645
v -0.007732 0.034806 0.121869
v -0.014783 0.029775 0.123360
v -0.034723 0.034948 -0.117017
v -0.045942 0.042727 -0.121211
v -0.049989 0.038215 0.137250
v -0.028245 0.082990 0.153825
v -0.012888 0.080383 0.148864
v -0.004493 0.064664 0.152888
v -0.015935 0.043036 0.156853
v -0.027572 0.038486 0.152903
v -0.046278 0.044532 0.153708
v -0.024118 0.064854 0.170471
v -0.036125 0.061048 0.169000
v -0.034035 0.050854 0.165014
v -0.013992 0.072023 0.162683
v -0.029996 0.070368 0.169498
v -0.040413 0.077640 0.156543
v -0.028852 0.080866 0.027824
v -0.021840 0.078868 0.027010
v -0.008729 0.071921 0.026680
v -0.002589 0.064627 0.018228
v 0.006871 0.060148 0.039893
v -0.008420 0.018269 0.029126
v -0.042687 0.073599 -0.003987
v -0.048984 0.073394 0.009472
v -0.052204 0.065306 -0.021114
v -0.057567 0.061399 0.087292
v -0.052573 0.068547 0.072160
v -0.038789 0.081013 0.101060
v -0.034744 0.083578 0.082906
v 0.000304 0.034588 0.093242
v -0.021399 0.021334 0.103640
v -0.059087 0.039889 0.101667
v -0.057626 0.043905 0.084206
v -0.056865 0.055814 0.079801
v -0.053721 0.064268 0.139138
v -0.056456 0.067721 0.121129
v -0.028557 0.088395 0.115614
v 0.000346 0.065218 0.115861
v -0.028341 0.026224 0.119534
v -0.040011 0.037548 0.146277
v -0.018049 0.083794 0.094496
v -0.060992 0.055484 0.114671
v -0.062558 0.055698 -0.039175
v -0.018673 0.077087 -0.022501
v -0.003247 0.069827 -0.000756
v 0.000525 0.032330 -0.033461
v -0.007343 0.018694 -0.040901
v -0.026500 0.012157 -0.044022
v -0.062230 0.042091 -0.036083
v -0.035318 0.082101 -0.050062
v 0.007916 0.061896 -0.045055
v -0.057732 0.043054 -0.070378
v -0.023187 0.081368 -0.056726
v -0.034939 0.076497 0.014829
v -0.016499 0.079373 0.012558
v 0.004770 0.056532 0.014505
v -0.057447 0.040190 0.002557
v -0.051254 0.077787 0.070840
v -0.013567 0.077433 0.065018
v -0.004880 0.076102 0.143596
v 0.001769 0.060283 0.066681
v 0.002945 0.051836 0.040356
v -0.061600 0.047035 0.036494
v -0.033871 0.081583 0.050734
v 0.000229 0.036211 0.067558
v -0.002682 0.030521 0.061455
v -0.047546 0.023469 0.040227
v -0.052253 0.028751 0.028668
v -0.056986 0.064215 -0.123480
v -0.032401 0.050137 -0.135678
v -0.029572 0.107024 -0.113017
v -0.017286 0.106247 -0.118679
v -0.051221 0.095057 -0.122790
v -0.039767 0.105519 -0.117660
v -0.000488 0.091179 -0.125167
v 0.002573 0.075011 -0.130396
v -0.051745 0.091688 -0.108150
v -0.056159 0.084578 -0.114642
v -0.054110 0.076864 -0.088051
v 0.003124 0.066131 -0.085093
v 0.003826 0.059864 -0.072457
v 0.002138 0.042087 -0.077089
v -0.058606 0.065392 -0.089473
v -0.016685 0.085879 -0.075679
v -0.015574 0.027437 -0.096266
v -0.035485 0.022322 -0.083107
v -0.000027 0.064745 -0.049431
v -0.042863 0.079358 -0.060779
v -0.053254 0.071046 -0.066847
v -0.024129 0.108461 -0.126241
v -0.035649 0.097122 -0.144106
v -0.033251 0.091968 -0.147841
v -0.047589 0.079111 0.103951
v -0.047646 0.055444 0.157138
v -0.049321 0.024026 -0.032740
v -0.030978 0.077195 -0.013563
v -0.052767 0.065829 0.037459
v -0.006646 0.084478 -0.075407
v -0.011401 0.074951 0.013942
v -0.013104 0.103684 -0.131361
v -0.032741 0.100388 -0.103541
v -0.048030 0.029288 -0.083415
v -0.008820 0.024019 -0.062354
v -0.061252 0.064310 -0.073945
v -0.030054 0.099644 -0.143806
vn -0.8297 0.5432 0.1287
vn -0.6570 0.7539 -0.0070
vn -0.8066 0.5904 -0.0291
vn 0.8170 0.5661 0.1098
vn 0.9469 0.2454 0.2077
vn 0.9579 0.2856 0.0292
vn 0.9938 -0.0295 0.1068
vn 0.4777 -0.8452 0.2396
vn 0.0084 -0.8852 0.4652
vn -0.1344 -0.9564 0.2591
vn -0.7354 -0.6426 0.2151
vn -0.5031 -0.8509 0.1514
vn -0.4010 -0.8887 0.2224
vn -0.8394 -0.4922 0.2307
vn -0.9739 -0.1450 0.1745
vn -0.9809 -0.0150 0.1939
vn -0.9450 -0.3191 0.0720
vn -0.6238 0.6547 0.4269
vn -0.3377 0.9392 0.0628
vn -0.5983 0.7998 0.0492
vn 0.0143 0.9113 0.4116
vn 0.2414 0.9694 0.0439
vn 0.4638 0.8440 0.2694
vn 0.5708 0.8211 0.0046
vn 0.9353 0.0632 0.3482
vn 0.8828 -0.3768 0.2806
vn 0.4978 -0.7212 0.4818
vn 0.6482 -0.7323 0.2086
vn -0.7965 -0.4268 0.4284
vn -0.3360 -0.8695 0.3621
vn -0.8292 -0.2438 0.5030
vn -0.9511 0.2172 0.2194
vn 0.5906 0.4856 0.6445
vn -0.2348 0.5327 0.8131
vn 0.6025 -0.1950 0.7739
vn -0.2557 -0.5955 0.7616
vn -0.3102 0.1923 0.9310
vn -0.5727 -0.0323 0.8191
vn 0.3152 0.1918 0.9294
vn 0.0132 -0.3427 0.9393
vn -0.6987 -0.4305 0.5714
vn -0.9621 -0.2717 0.0216
vn -0.9928 0.1140 -0.0377
vn -0.9802 0.1981 -0.0029
vn -0.9962 -0.0874 -0.0058
vn -0.7028 -0.7104 -0.0375
vn -0.8770 -0.4800 -0.0218
vn -0.8511 -0.5249 -0.0096
vn -0.4235 -0.9054 -0.0289
vn -0.4686 -0.8827 0.0361
vn 0.1516 -0.9882 0.0240
vn -0.3692 -0.9266 -0.0706
vn -0.0784 -0.9915 0.1034
vn 0.2718 -0.9608 0.0553
vn 0.2193 -0.9750 -0.0367
vn 0.4998 -0.8642 0.0571
vn 0.8051 -0.5930 -0.0089
vn 0.7904 -0.6107 0.0487
vn 0.8681 -0.4955 -0.0280
vn 0.9793 0.2005 -0.0264
vn 0.9968 -0.0738 0.0317
vn 0.8683 0.4932 0.0537
vn 0.7690 0.6393 -0.0035
vn 0.8555 0.5152 0.0520
vn -0.3375 0.9395 -0.0583
vn -0.1064 0.9940 -0.0246
vn -0.5026 0.8638 0.0340
vn -0.2061 0.9764 0.0645
vn -0.3262 0.9453 0.0036
vn -0.3086 0.9466 0.0935
vn -0.8272 0.5617 -0.0123
vn -0.8686 0.4911 -0.0663
vn -0.6825 0.7308 -0.0060
vn -0.7727 0.6308 -0.0709
vn -0.8037 0.5929 0.0507
vn -0.6561 -0.7536 0.0412
vn -0.9578 -0.2869 0.0174
vn -0.3670 -0.9277 0.0689
vn -0.3718 -0.9139 0.1630
vn 0.2275 -0.9554 0.1884
vn -0.1592 -0.9827 0.0945
vn 0.9949 -0.0964 0.0288
vn 0.9559 0.2916 0.0346
vn 0.9502 0.3110 0.0184
vn 0.7125 0.7012 -0.0280
vn 0.7146 0.6993 0.0152
vn 0.6453 0.7626 0.0455
vn -0.1960 0.9777 -0.0759
vn 0.2327 0.9701 -0.0692
vn -0.1004 0.9928 -0.0656
vn -0.5201 0.8511 -0.0714
vn -0.6798 0.7284 -0.0858
vn -0.4019 0.9121 -0.0806
vn -0.9642 0.2644 -0.0199
vn -0.7168 0.6961 -0.0404
vn 0.7860 -0.6102 0.0990
vn 0.5395 -0.8329 0.1233
vn 0.9980 0.0542 0.0325
vn -0.4333 0.9000 -0.0472
vn -0.9656 0.2508 0.0692
vn -0.9963 -0.0483 0.0715
vn -0.9882 -0.1506 0.0264
vn -0.9882 0.1339 0.0743
vn -0.9799 0.1990 0.0136
vn 0.3084 0.9513 0.0030
vn 0.2984 0.9504 0.0874
vn 0.0362 0.9926 0.1162
vn 0.7739 0.6265 0.0927
vn 0.6211 0.7814 0.0603
vn 0.9120 0.4091 -0.0295
vn 0.8346 0.5499 0.0332
vn 0.9773 -0.2114 -0.0169
vn 0.6339 -0.7638 -0.1217
vn 0.7918 -0.5924 -0.1488
vn 0.6988 -0.7127 -0.0608
vn 0.0364 -0.9938 -0.1050
vn 0.2580 -0.9538 -0.1540
vn -0.2689 -0.9391 -0.2139
vn -0.6665 -0.7270 -0.1652
vn -0.9736 -0.2151 -0.0759
vn -0.9917 -0.1241 -0.0330
vn -0.9906 -0.1286 -0.0456
vn -0.9517 -0.2646 -0.1554
vn 0.3667 -0.8871 -0.2802
vn 0.9546 -0.2916 -0.0614
vn 0.9063 -0.4207 -0.0398
vn 0.9808 0.1922 0.0319
vn 0.9654 0.2397 0.1023
vn 0.7345 0.6483 0.2004
vn -0.2053 0.9696 0.1333
vn 0.0796 0.9779 0.1935
vn -0.4833 0.8256 0.2913
vn -0.9290 0.3669 0.0486
vn -0.9607 0.2770 -0.0180
vn -0.7449 0.6564 0.1196
vn -0.9890 0.1462 0.0214
vn -0.9149 0.3993 0.0587
vn -0.7648 0.6404 0.0706
vn -0.6934 0.7204 0.0157
vn 0.1792 0.9837 -0.0134
vn 0.6383 0.7697 -0.0063
vn 0.9753 -0.2208 -0.0047
vn -0.9932 -0.1163 0.0040
vn -0.0517 0.9986 -0.0140
vn 0.3335 0.9395 -0.0777
vn 0.2538 0.9672 -0.0062
vn -0.9954 0.0723 -0.0626
vn -0.9340 0.3556 -0.0352
vn -0.8463 0.4741 0.2428
vn -0.8226 0.5675 0.0349
vn -0.7434 0.6088 0.2770
vn -0.7943 0.5785 0.1854
vn -0.5287 0.8109 0.2508
vn -0.4835 0.8753 0.0105
vn 0.9939 -0.0113 -0.1093
vn 0.9120 0.4099 0.0147
vn 0.9830 0.1674 0.0749
vn 0.9769 -0.1640 -0.1367
vn 0.7275 -0.5810 -0.3649
vn 0.3632 -0.7038 -0.6105
vn -0.6760 -0.1388 -0.7237
vn -0.9282 -0.1981 -0.3150
vn -0.8769 0.3868 -0.2853
vn 0.8283 0.5322 -0.1753
vn -0.3227 0.9220 -0.2138
vn -0.1158 0.9756 0.1863
vn 0.0754 0.9881 -0.1344
vn -0.8020 0.5937 -0.0659
vn 0.4150 0.8727 -0.2572
vn 0.3338 0.9384 0.0894
vn 0.6984 0.7139 -0.0515
vn 0.6209 0.3950 -0.6771
vn 0.9511 0.1093 -0.2888
vn 0.4343 -0.0936 -0.8959
vn -0.1336 -0.3025 -0.9438
vn -0.1725 -0.6310 -0.7564
vn -0.7009 0.6374 -0.3202
vn -0.2047 -0.8744 -0.4398
vn -0.6090 -0.6684 -0.4270
vn -0.0694 0.8929 0.4449
vn 0.1991 0.9322 0.3023
vn 0.9935 -0.0940 0.0647
vn -0.9865 -0.1276 -0.1025
vn -0.2583 0.2816 -0.9241
vn -0.4648 0.6404 -0.6114
vn -0.0498 0.8008 -0.5969
vn -0.0119 0.9967 -0.0809
vn 0.6932 0.7185 0.0564
vn 0.9318 -0.3620 0.0281
vn 0.9618 -0.2732 0.0151
vn -0.0706 0.9914 -0.1105
vn -0.5755 0.8041 0.1490
vn 0.6989 0.6689 0.2531
vn 0.7986 0.5587 0.2237
vt 0.440753 0.109735
vt 0.458582 0.145380
vt 0.413346 0.168061
vt 0.884293 0.491462
vt 0.862287 0.513116
vt 0.826868 0.484207
vt 0.302900 0.559107
vt 0.291711 0.591750
vt 0.244965 0.560776
vt 0.131136 0.600873
vt 0.124330 0.670624
vt 0.076073 0.638922
vt 0.724296 0.133482
vt 0.699780 0.177382
vt 0.707868 0.132766
vt 0.742497 0.139645
vt 0.339916 0.059395
vt 0.339902 0.065742
vt 0.341347 0.136521
vt 0.469927 0.072247
vt 0.529829 0.112269
vt 0.470826 0.117799
vt 0.541462 0.027554
vt 0.568370 0.028972
vt 0.990708 0.500286
vt 0.933537 0.494039
vt 1.004038 0.446548
vt 0.931437 0.457694
vt 0.269407 0.613231
vt 0.208342 0.591007
vt 0.164016 0.634799
vt 0.163455 0.586261
vt 0.733181 0.109341
vt 0.696893 0.105822
vt 0.375551 0.023908
vt 0.389364 0.077352
vt 0.917076 0.542998
vt 0.992036 0.574916
vt 0.284161 0.633044
vt 0.265296 0.669110
vt 0.219354 0.669289
vt 0.711731 0.039139
vt 0.683699 0.068783
vt 0.466851 0.007739
vt 0.435507 -0.005793
vt 0.488692 0.010495
vt 0.953235 0.597080
vt 0.229986 0.709445
vt 0.202994 0.715664
vt 0.754556 0.011372
vt 0.760978 0.038014
vt 0.738047 0.012267
vt 0.754059 0.091852
vt 0.171475 0.716125
vt 0.257419 0.249807
vt 0.327629 0.172934
vt 0.340387 0.228985
vt 0.304724 0.282552
vt 0.683266 0.302911
vt 0.712640 0.242452
vt 0.730424 0.324085
vt 0.634228 0.283280
vt 0.679643 0.217366
vt 0.050232 0.495658
vt 0.008537 0.445215
vt 0.038899 0.481447
vt 0.088089 0.520381
vt 0.092364 0.437644
vt 0.112908 0.505059
vt 0.125282 0.464173
vt 0.156887 0.521010
vt 0.167895 0.406126
vt 0.747478 0.435087
vt 0.741285 0.381614
vt 0.797249 0.287389
vt 0.818879 0.336166
vt 0.840600 0.284455
vt 0.523950 0.256085
vt 0.561792 0.242639
vt 0.546977 0.295881
vt 0.566068 0.319574
vt 0.481589 0.279692
vt 0.504224 0.306536
vt 0.434275 0.237834
vt 0.447072 0.257882
vt 0.459310 0.285517
vt 0.401274 0.207820
vt 0.404811 0.291232
vt 0.712010 0.209009
vt 0.769832 0.177157
vt 0.758935 0.237870
vt 0.634005 0.105185
vt 0.659944 0.145776
vt 0.092749 0.596616
vt 0.052433 0.575744
vt 0.259718 0.453785
vt 0.289054 0.493704
vt 0.315420 0.491620
vt 0.919889 0.379323
vt 0.870371 0.333577
vt 0.903707 0.309662
vt 0.528957 0.174061
vt 0.558188 0.190253
vt 0.533501 0.215613
vt 0.479998 0.225142
vt 0.445944 0.179741
vt 0.470143 0.190207
vt 0.361601 0.175960
vt 0.403854 0.141324
vt 0.176515 0.545794
vt 0.122538 0.536398
vt 0.224232 0.491991
vt 0.781630 0.504123
vt 0.499016 0.151203
vt 0.394065 0.109033
vt 0.369329 0.135134
vt 0.310470 0.116742
vt 0.339920 0.090715
vt 0.345741 0.129829
vt 0.952978 0.245097
vt 0.927884 0.207002
vt 0.981009 0.188111
vt 0.825407 0.205585
vt 0.880325 0.215930
vt 0.776955 0.287212
vt 0.798401 0.235615
vt 0.247077 0.364014
vt 0.247244 0.315691
vt 0.278744 0.309130
vt 0.113917 0.391278
vt 0.156605 0.337871
vt 0.112318 0.432070
vt 0.027139 0.446723
vt 0.052672 0.412086
vt -0.012138 0.441131
vt -0.001074 0.362220
vt 0.586379 0.287148
vt 0.684202 0.370854
vt 0.766210 0.337442
vt 0.760120 0.315587
vt 0.253289 0.256516
vt 0.351514 0.356931
vt 0.248392 0.274750
vt 0.296266 0.311058
vt 0.089214 0.332922
vt 0.197865 0.319730
vt 0.221127 0.259785
vt 0.270976 0.255883
vt 0.864085 0.181212
vt 0.854033 0.164903
vt 0.537969 0.361555
vt 0.602305 0.425781
vt 0.540446 0.416595
vt 0.383274 0.388066
vt 0.374275 0.361451
vt 0.422310 0.366529
vt 0.337954 0.296688
vt 0.366834 0.325094
vt 0.441200 0.334496
vt 0.473588 0.341054
vt 0.988771 0.257898
vt 0.901028 0.241336
vt 0.202403 0.421580
vt 0.749064 0.297188
vt 0.762857 0.257106
vt 0.573215 0.137037
vt 0.967696 0.403953
vt 0.937508 0.297040
vt 0.754891 0.470140
vt 0.307556 0.419834
vt 0.007179 0.573941
vt 0.575802 0.142129
vt 0.302683 0.163588
vt 0.428632 0.450298
vt 0.437014 0.411530
vt 0.448141 0.457933
vt 0.471519 0.428609
vt 0.476536 0.471919
vt 0.513360 0.408618
vt 0.528359 0.518633
vt 0.851091 0.148995
vt 0.888891 0.083767
vt 0.831591 0.190879
vt 0.259538 0.161530
vt 0.278076 0.213519
vt 0.237599 0.222929
vt 0.165777 0.241789
vt 0.108794 0.211859
vt 0.737564 0.601995
vt 0.775873 0.533045
vt 0.787151 0.626586
vt 0.264111 0.080527
vt 0.241234 0.119953
vt 0.526723 0.532347
vt 0.562824 0.532199
vt 0.571639 0.556907
vt 0.436957 0.471495
vt 0.480323 0.490662
vt 0.947632 -0.005294
vt 0.972525 -0.002026
vt 0.927879 0.012129
vt 0.237709 0.003602
vt 0.258798 0.108471
vt 0.187645 0.039997
vt 0.124507 0.051568
vt 0.058370 0.159711
vt 0.458297 0.546714
vt 0.481987 0.506398
vt 0.665136 0.521785
vt 0.597193 0.349928
vt 0.702869 0.457397
vt 0.022598 0.258305
vt 0.596309 0.516887
vt 0.550837 0.491537
vt 0.998310 0.089486
vt 0.942495 0.127218
vt 0.251981 0.238120
vt 0.400549 0.431252
vt 0.272011 0.211496
vt 0.800216 0.239111
vt 0.727642 0.710244
vt 0.774900 0.661632
vt 0.901254 0.040841
vt 0.507641 0.550038
vt 0.683087 0.648734
vt 0.529870 0.564904
vt 0.085204 0.136110
vt 0.599905 0.107040
vt 0.998596 0.422281
vt 0.674459 0.068685
vt 0.792670 0.146459
vt 0.096491 0.682942
vt 0.793986 0.096337
vt 0.879009 0.284667
vt 0.489689 0.051006
vt 0.488903 0.019075
vt 0.183703 0.515470
vt 0.206172 0.477620
vt 0.995656 0.301245
vt 0.572783 0.172166
vt 0.316458 0.164209
vt 0.039059 0.622620
vt 0.569090 0.078462
vt 0.986216 0.376958
vt 0.492278 0.367104
vt 0.596779 0.360206
vt 0.249179 0.208139
vt 0.893984 0.130578
vt 0.991238 0.151943
vt 0.990758 0.344455
vt 0.905394 0.034066
vt 0.757918 0.463898
vt 0.435701 0.446852
vt 0.994631 0.041902
vt 1.003755 0.042721
vt 0.909132 0.034861
vt 0.981285 0.000438
vt 0.946122 0.045049
vt 0.130827 0.004733
vt 0.484606 0.554097
s 1
usemtl Material.003
f 1/1/1 182/2/2 116/3/3
f 149/4/4 6/5/5 127/6/6
f 127/7/6 6/8/5 85/9/7
f 90/10/8 98/11/9 128/12/10
f 93/13/11 14/14/12 2/15/13
f 93/13/11 3/16/14 14/14/12
f 4/17/15 5/18/16 121/19/17
f 105/20/18 82/21/19 81/22/20
f 94/23/21 83/24/22 82/21/19
f 94/25/21 95/26/23 83/27/22
f 95/26/23 84/28/24 83/27/22
f 96/29/25 85/9/7 6/8/5
f 87/30/26 85/9/7 96/29/25
f 97/31/27 90/10/8 89/32/28
f 98/11/9 90/10/8 97/31/27
f 99/33/29 2/15/13 129/34/30
f 183/35/31 5/18/16 4/17/15
f 105/20/18 124/36/32 183/35/31
f 103/37/33 95/26/23 104/38/34
f 103/37/33 149/4/4 95/26/23
f 103/37/33 6/5/5 149/4/4
f 96/29/25 6/39/5 103/40/33
f 97/31/27 87/30/26 8/41/35
f 102/42/36 129/34/30 98/43/9
f 9/44/37 105/20/18 101/45/38
f 104/46/34 105/20/18 9/44/37
f 100/47/39 103/37/33 104/38/34
f 100/48/39 10/49/40 8/41/35
f 9/50/37 101/51/38 10/52/40
f 101/51/38 7/53/41 102/42/36
f 102/54/36 98/11/9 97/31/27
f 101/45/38 105/20/18 183/35/31
f 146/55/42 43/56/43 25/57/44
f 146/55/42 25/57/44 73/58/45
f 184/59/46 157/60/47 42/61/48
f 41/62/49 156/63/50 184/59/46
f 38/64/51 40/65/52 39/66/53
f 51/67/54 38/64/51 37/68/55
f 111/69/56 37/68/55 36/70/57
f 155/71/58 36/70/57 135/72/59
f 145/73/60 34/74/61 33/75/62
f 109/76/63 33/75/62 134/77/64
f 143/78/65 106/79/66 185/80/67
f 185/80/67 106/79/66 29/81/68
f 112/82/69 143/78/65 28/83/70
f 26/84/71 113/85/72 27/86/73
f 25/57/44 186/87/74 114/88/75
f 54/89/76 121/90/17 122/91/77
f 156/63/50 14/14/12 54/89/76
f 53/92/78 15/93/79 156/63/50
f 120/94/80 52/95/81 51/67/54
f 127/7/6 151/96/82 150/97/83
f 150/97/83 151/96/82 110/98/84
f 148/99/85 108/100/86 188/101/87
f 118/102/88 47/103/89 153/104/90
f 46/105/91 118/102/88 153/104/90
f 186/87/74 147/106/92 45/107/93
f 44/108/94 12/109/95 116/3/3
f 119/110/96 89/32/28 155/71/58
f 155/71/58 89/32/28 50/111/97
f 127/7/6 85/9/7 151/96/82
f 151/96/82 85/9/7 13/112/98
f 149/4/4 127/6/6 150/113/83
f 148/99/85 84/28/24 149/4/4
f 45/107/93 117/114/99 118/102/88
f 82/21/19 118/102/88 117/114/99
f 182/2/2 45/107/93 147/106/92
f 125/115/100 12/109/95 115/116/101
f 11/117/102 131/118/103 123/119/104
f 133/120/105 19/121/106 142/122/107
f 134/77/64 23/123/108 22/124/109
f 33/75/62 140/125/110 176/126/111
f 34/127/61 24/128/112 140/129/110
f 135/72/59 192/130/113 70/131/114
f 36/70/57 136/132/115 192/130/113
f 137/133/116 40/65/52 20/134/117
f 40/65/52 41/135/49 175/136/118
f 175/137/118 41/62/49 191/138/119
f 184/59/46 42/61/48 71/139/120
f 71/139/120 42/61/48 141/140/121
f 141/141/121 73/58/45 21/142/122
f 71/143/120 141/141/121 72/144/123
f 20/134/117 175/136/118 174/145/124
f 171/146/125 70/131/114 69/147/126
f 24/128/112 69/147/126 170/148/127
f 23/123/108 68/149/128 67/150/129
f 139/151/130 66/152/131 65/153/132
f 172/154/133 193/155/134 178/156/135
f 73/58/45 132/157/136 21/142/122
f 73/58/45 25/57/44 132/157/136
f 132/157/136 25/57/44 16/158/137
f 17/159/138 27/86/73 18/160/139
f 28/83/70 185/80/67 139/151/130
f 30/161/140 133/120/105 142/122/107
f 133/120/105 31/162/141 19/121/106
f 33/75/62 34/74/61 140/125/110
f 151/96/82 35/163/142 24/128/112
f 38/64/51 20/134/117 37/68/55
f 42/61/48 146/164/42 138/165/143
f 44/108/94 116/3/3 186/87/74
f 114/88/75 186/87/74 26/84/71
f 186/87/74 45/107/93 26/84/71
f 26/84/71 45/107/93 46/105/91
f 113/85/72 46/105/91 112/82/69
f 153/104/90 106/79/66 143/78/65
f 47/103/89 107/166/144 106/79/66
f 130/167/145 188/101/87 144/168/146
f 149/4/4 109/76/63 108/100/86
f 150/113/83 110/169/84 109/76/63
f 110/169/84 145/73/60 109/76/63
f 110/98/84 151/96/82 145/170/60
f 155/71/58 111/69/56 36/70/57
f 50/111/97 51/67/54 111/69/56
f 38/64/51 53/171/78 40/65/52
f 40/172/52 53/92/78 41/62/49
f 157/60/47 122/91/77 146/164/42
f 146/55/42 152/173/147 43/56/43
f 80/174/148 168/175/149 167/176/150
f 167/176/150 63/177/151 166/178/152
f 64/179/153 65/153/132 163/180/154
f 59/181/155 58/182/156 169/183/157
f 59/184/155 169/185/157 55/186/158
f 88/187/159 55/186/158 69/147/126
f 88/187/159 69/147/126 70/131/114
f 61/188/160 88/187/159 174/145/124
f 78/189/161 158/190/162 60/191/163
f 164/192/164 58/193/156 59/184/155
f 79/194/165 160/195/166 179/196/167
f 163/180/154 160/195/166 79/194/165
f 60/197/163 167/176/150 162/198/168
f 3/16/14 93/13/11 99/33/29 7/53/41
f 189/199/169 161/200/170 56/201/171
f 75/202/172 164/192/164 165/203/173
f 76/204/174 165/203/173 61/188/160
f 77/205/175 61/188/160 159/206/176
f 78/207/161 60/197/163 74/208/177
f 159/209/176 91/210/178 92/211/179
f 159/206/176 61/188/160 91/212/178
f 165/203/173 59/184/155 88/187/159
f 161/213/170 190/214/180 66/152/131
f 161/200/170 66/215/131 173/216/181
f 166/178/152 64/179/153 163/180/154
f 21/142/122 193/155/134 172/154/133
f 172/154/133 178/156/135 168/175/149
f 65/153/132 66/152/131 190/214/180
f 86/217/182 55/186/158 169/185/157
f 70/131/114 174/145/124 88/187/159
f 91/210/178 175/137/118 92/211/179
f 72/144/123 141/141/121 62/218/183
f 141/141/121 138/219/143 73/58/45
f 37/68/55 20/134/117 192/130/113
f 135/72/59 70/131/114 171/146/125
f 24/128/112 171/146/125 69/147/126
f 140/129/110 24/128/112 170/148/127
f 176/126/111 170/220/127 169/183/157
f 22/124/109 23/123/108 67/150/129
f 19/121/106 173/216/181 142/122/107
f 139/151/130 29/81/68 66/152/131
f 16/158/137 114/88/75 193/155/134
f 181/221/184 78/189/161 180/222/185
f 189/199/169 56/201/171 164/223/164
f 180/224/185 74/208/177 79/194/165
f 77/225/175 78/189/161 181/221/184
f 180/224/185 79/194/165 194/226/186
f 181/227/184 75/202/172 76/204/174
f 124/36/32 1/1/1 125/115/100
f 125/115/100 1/1/1 12/109/95
f 1/1/1 81/22/20 182/2/2
f 182/2/2 81/22/20 117/114/99
f 82/21/19 83/24/22 126/228/187
f 130/167/145 126/229/187 84/28/24
f 126/229/187 83/27/22 84/28/24
f 90/10/8 128/12/10 120/94/80
f 128/230/10 129/34/30 15/93/79
f 129/34/30 2/15/13 15/93/79
f 121/90/17 3/16/14 4/231/15
f 5/18/16 124/36/32 131/118/103
f 124/36/32 105/20/18 1/1/1
f 105/20/18 81/22/20 1/1/1
f 105/20/18 94/23/21 82/21/19
f 95/26/23 149/4/4 84/28/24
f 97/31/27 89/32/28 87/30/26
f 98/11/9 129/232/30 128/12/10
f 99/33/29 93/13/11 2/15/13
f 3/16/14 7/53/41 183/233/31 4/231/15
f 134/77/64 32/234/188 108/100/86 109/76/63
f 183/35/31 124/36/32 5/18/16
f 94/25/21 104/38/34 95/26/23
f 96/29/25 8/41/35 87/30/26
f 102/42/36 99/33/29 129/34/30
f 102/42/36 7/53/41 99/33/29
f 10/52/40 101/51/38 102/42/36
f 9/44/37 100/235/39 104/46/34
f 9/44/37 10/236/40 100/235/39
f 101/51/38 183/233/31 7/53/41
f 10/49/40 102/54/36 97/31/27
f 8/41/35 10/49/40 97/31/27
f 100/48/39 8/41/35 96/29/25
f 103/40/33 100/48/39 96/29/25
f 105/20/18 104/46/34 94/23/21
f 42/61/48 157/60/47 146/164/42
f 184/59/46 156/63/50 157/60/47
f 37/68/55 111/69/56 51/67/54
f 35/163/142 154/237/189 135/72/59
f 154/237/189 155/71/58 135/72/59
f 49/238/190 154/237/189 35/163/142
f 151/96/82 13/112/98 35/163/142
f 13/112/98 49/238/190 35/163/142
f 145/170/60 151/96/82 34/127/61
f 109/76/63 145/73/60 33/75/62
f 32/234/188 188/101/87 108/100/86
f 32/234/188 31/162/141 144/168/146 188/101/87
f 144/168/146 31/162/141 133/120/105 30/161/140
f 30/161/140 107/239/144 144/168/146
f 30/240/140 29/81/68 106/79/66 107/166/144
f 11/117/102 152/173/147 146/55/42 122/241/77
f 28/83/70 143/78/65 185/80/67
f 27/86/73 113/85/72 112/82/69
f 25/57/44 44/108/94 186/87/74
f 115/116/101 44/108/94 43/56/43 123/119/104
f 157/60/47 54/89/76 122/91/77
f 156/63/50 15/93/79 14/14/12
f 52/95/81 128/12/10 53/171/78
f 128/12/10 15/242/79 53/171/78
f 50/111/97 120/94/80 51/67/54
f 154/237/189 119/110/96 155/71/58
f 13/112/98 154/237/189 49/238/190
f 109/76/63 149/4/4 150/113/83
f 130/167/145 148/99/85 188/101/87
f 46/105/91 45/107/93 118/102/88
f 186/87/74 116/3/3 147/106/92
f 123/119/104 43/56/43 152/173/147 11/117/102
f 44/108/94 115/116/101 12/109/95
f 131/118/103 11/117/102 122/241/77 5/18/16
f 119/110/96 154/237/189 13/112/98 85/9/7
f 121/19/17 5/18/16 122/241/77
f 54/89/76 14/14/12 121/90/17
f 14/14/12 3/16/14 121/90/17
f 15/93/79 2/15/13 14/14/12
f 120/94/80 128/12/10 52/95/81
f 50/111/97 90/10/8 120/94/80
f 50/111/97 89/32/28 90/10/8
f 119/110/96 87/30/26 89/32/28
f 126/228/187 48/243/191 47/103/89 118/102/88
f 119/110/96 85/9/7 87/30/26
f 130/167/145 84/28/24 148/99/85
f 48/244/191 126/229/187 130/167/145
f 82/21/19 126/228/187 118/102/88
f 115/116/101 123/119/104 124/36/32 125/115/100
f 81/22/20 82/21/19 117/114/99
f 147/106/92 116/3/3 182/2/2
f 182/2/2 117/114/99 45/107/93
f 12/109/95 1/1/1 116/3/3
f 176/126/111 23/123/108 134/77/64 33/75/62
f 131/118/103 124/36/32 123/119/104
f 178/156/135 114/88/75 17/159/138
f 177/245/192 18/160/139 28/83/70
f 177/245/192 28/83/70 139/151/130
f 139/151/130 185/80/67 29/81/68
f 66/152/131 29/81/68 142/246/107
f 19/121/106 31/162/141 22/124/109
f 139/151/130 65/153/132 64/179/153 177/245/192
f 24/128/112 35/163/142 171/146/125
f 35/163/142 135/72/59 171/146/125
f 135/72/59 36/70/57 192/130/113
f 192/130/113 136/132/115 37/68/55
f 191/138/119 41/62/49 184/59/46
f 141/141/121 42/247/48 138/219/143
f 192/130/113 20/134/117 174/145/124
f 70/131/114 192/130/113 174/145/124
f 170/148/127 69/147/126 86/217/182
f 169/185/157 170/148/127 86/217/182
f 23/123/108 169/183/157 68/149/128
f 22/124/109 67/150/129 187/248/193
f 173/216/181 22/124/109 187/248/193
f 66/249/131 142/122/107 173/216/181
f 28/83/70 18/160/139 27/86/73 112/82/69
f 63/177/151 177/245/192 64/179/153
f 168/175/149 178/156/135 177/245/192
f 63/177/151 168/175/149 177/245/192
f 193/155/134 21/142/122 16/158/137
f 16/158/137 25/57/44 114/88/75
f 17/159/138 114/88/75 27/86/73
f 114/88/75 26/84/71 27/86/73
f 137/133/116 20/134/117 38/64/51 39/66/53
f 29/81/68 30/240/140 142/246/107
f 31/162/141 32/234/188 22/124/109
f 32/234/188 134/77/64 22/124/109
f 34/127/61 151/96/82 24/128/112
f 36/70/57 37/68/55 136/132/115
f 130/167/145 144/168/146 107/239/144 48/244/191
f 137/133/116 39/66/53 40/65/52
f 138/219/143 146/55/42 73/58/45
f 25/57/44 43/56/43 44/108/94
f 113/85/72 26/84/71 46/105/91
f 112/82/69 46/105/91 143/78/65
f 143/78/65 46/105/91 153/104/90
f 153/104/90 47/103/89 106/79/66
f 47/250/89 48/244/191 107/239/144
f 67/150/129 68/149/128 58/182/156 57/251/194
f 148/99/85 149/4/4 108/100/86
f 155/71/58 50/111/97 111/69/56
f 51/67/54 52/95/81 38/64/51
f 38/64/51 52/95/81 53/171/78
f 41/62/49 53/92/78 156/63/50
f 156/63/50 54/89/76 157/60/47
f 62/218/183 21/142/122 172/154/133
f 62/218/183 172/154/133 80/174/148
f 166/178/152 63/177/151 64/179/153
f 163/180/154 65/153/132 190/214/180
f 56/201/171 161/200/170 173/216/181
f 57/251/194 56/201/171 173/216/181
f 71/139/120 72/252/123 92/211/179 191/138/119
f 169/183/157 58/182/156 68/149/128
f 91/212/178 61/188/160 174/145/124
f 62/218/183 80/174/148 60/197/163 158/253/162
f 163/180/154 79/194/165 74/208/177 162/198/168
f 78/189/161 92/211/179 158/190/162
f 78/189/161 159/209/176 92/211/179
f 61/188/160 165/203/173 88/187/159
f 165/203/173 164/192/164 59/184/155
f 164/223/164 57/251/194 58/182/156
f 161/200/170 179/254/167 160/255/166
f 163/180/154 190/214/180 160/195/166
f 162/198/168 166/178/152 163/180/154
f 60/197/163 80/174/148 167/176/150
f 74/208/177 60/197/163 162/198/168
f 189/199/169 179/254/167 161/200/170
f 164/223/164 56/201/171 57/251/194
f 76/204/174 75/202/172 165/203/173
f 77/205/175 76/204/174 61/188/160
f 77/225/175 159/209/176 78/189/161
f 158/253/162 72/144/123 62/218/183
f 158/190/162 92/211/179 72/252/123
f 88/187/159 59/184/155 55/186/158
f 161/213/170 160/195/166 190/214/180
f 162/198/168 167/176/150 166/178/152
f 80/174/148 172/154/133 168/175/149
f 167/176/150 168/175/149 63/177/151
f 173/216/181 187/248/193 57/251/194
f 187/248/193 67/150/129 57/251/194
f 86/217/182 69/147/126 55/186/158
f 174/145/124 175/136/118 91/212/178
f 92/211/179 175/137/118 191/138/119
f 62/218/183 141/141/121 21/142/122
f 191/138/119 184/59/46 71/139/120
f 20/134/117 40/65/52 175/136/118
f 23/123/108 176/126/111 169/183/157
f 176/126/111 140/125/110 170/220/127
f 19/121/106 22/124/109 173/216/181
f 178/156/135 17/159/138 177/245/192
f 177/245/192 17/159/138 18/160/139
f 193/155/134 114/88/75 178/156/135
f 21/142/122 132/157/136 16/158/137
f 180/224/185 78/207/161 74/208/177
f 75/256/172 189/199/169 164/223/164
f 189/199/169 194/257/186 179/254/167
f 194/226/186 79/194/165 179/196/167
f 181/227/184 76/204/174 77/205/175
f 75/258/172 194/257/186 189/199/169
f 181/227/184 194/259/186 75/202/172
f 181/260/184 180/224/185 194/226/186
