# Blender 4.5.2 LTS
# www.blender.org
mtllib melon.mtl
o melon
v -0.122517 0.136132 -0.009683
v 0.000521 0.179527 0.018190
v -0.100702 0.135953 0.070496
v -0.103459 0.098282 0.086186
v -0.048401 0.173064 0.070552
v -0.003243 0.106948 0.108411
v -0.038352 0.147859 -0.103045
v -0.108802 0.104670 -0.079642
v -0.118446 0.115911 -0.055985
v -0.077514 0.033015 -0.071558
v -0.013942 0.028247 -0.074032
v 0.005371 0.033373 -0.060192
v -0.030453 0.186270 -0.029963
v -0.107920 0.149172 -0.042585
v -0.120404 0.062092 -0.017822
v -0.095555 0.030994 -0.036312
v 0.024329 0.034481 -0.017301
v 0.026706 0.157069 0.009047
v -0.088011 0.164927 0.050925
v -0.128397 0.108285 0.015967
v -0.112961 0.068537 0.060039
v -0.046039 0.028234 0.074875
v -0.072278 0.112688 0.110825
v 0.002317 0.051814 0.088436
v -0.013751 0.156044 0.088486
v -0.058581 0.133583 0.107187
v -0.060806 0.050882 -0.101214
v -0.090528 0.128826 -0.091688
v -0.025699 0.074040 0.114661
v -0.039867 0.106788 0.115061
v -0.038629 0.106843 0.112208
v -0.027409 0.167777 -0.078953
v -0.102292 0.164743 -0.006677
v 0.041614 0.065560 -0.025072
v -0.126983 0.081444 0.013977
v -0.091766 0.116964 0.095438
v 0.010734 0.137236 0.086609
v -0.038787 0.107053 0.118867
v -0.041031 0.031271 -0.085779
v -0.060674 0.071520 -0.112075
v -0.003610 0.109330 -0.110056
v -0.027247 0.128820 -0.112003
v -0.098100 0.078072 -0.090060
v -0.102747 0.055340 -0.066725
v 0.006695 0.051577 -0.083382
v 0.037028 0.092387 -0.063057
v 0.011517 0.150227 -0.073447
v -0.075613 0.179948 -0.025323
v 0.003556 0.018735 -0.018155
v 0.043334 0.124913 -0.023848
v -0.106318 0.154361 0.031082
v -0.121298 0.094543 0.050858
v -0.003564 0.027345 0.059488
v 0.041521 0.083138 0.046649
v 0.040763 0.124662 0.041273
v -0.050549 0.189206 0.012894
v -0.036451 0.010074 0.030404
v -0.013466 0.036315 0.081850
v 0.026917 0.058812 0.063000
v -0.002771 0.164447 0.069780
v -0.087394 0.092159 0.102572
v -0.070174 0.073853 0.109131
v 0.025989 0.121588 0.077545
v -0.081550 0.155627 -0.075649
v -0.042430 0.083493 0.116890
v -0.041253 0.127189 0.111986
v -0.042907 0.102729 0.112738
v -0.042044 0.105876 0.112395
v -0.039529 0.108417 0.117989
v -0.075871 0.096087 -0.110346
v -0.027880 0.079594 -0.115199
v -0.115704 0.079545 -0.061790
v -0.061799 0.016334 -0.047202
v 0.023474 0.060987 -0.068746
v -0.050396 0.174860 -0.064545
v -0.123865 0.079584 -0.032836
v -0.061131 0.008740 -0.005393
v -0.027180 0.012384 -0.038847
v 0.024086 0.157882 -0.026919
v 0.003580 0.018771 0.019984
v 0.047672 0.082687 0.010349
v 0.047123 0.110530 0.020852
v 0.023465 0.151040 0.050002
v -0.020025 0.187052 0.010339
v -0.113032 0.118011 0.063995
v -0.064483 0.018812 0.043494
v 0.025711 0.080840 0.081381
v -0.028422 0.177434 0.061210
v -0.080859 0.139132 0.091885
v -0.081167 0.048779 0.083084
v -0.050230 0.049093 0.100232
v -0.004102 0.072955 0.106120
v 0.002402 0.097744 0.106838
v -0.021219 0.105992 -0.115151
v -0.042316 0.109556 -0.116636
v -0.090933 0.106337 -0.099182
v -0.057361 0.155479 -0.091188
v -0.008276 0.134225 -0.104586
v -0.004841 0.153824 -0.086988
v -0.018068 0.101652 0.114832
v -0.041187 0.107589 0.118533
v -0.040446 0.105531 0.118979
v -0.072370 0.130739 -0.103496
v -0.004733 0.087844 -0.110104
v -0.105684 0.130586 -0.072046
v 0.028234 0.118749 -0.076590
v 0.036478 0.128349 -0.051020
v -0.127591 0.101707 -0.026457
v -0.017882 0.009058 -0.004063
v 0.048305 0.100444 -0.021066
v -0.001876 0.174188 -0.041755
v -0.123441 0.128799 0.016211
v -0.088870 0.023292 0.009638
v -0.092405 0.036890 0.046883
v -0.113872 0.050654 0.019560
v 0.033166 0.048237 0.028323
v -0.067466 0.178664 0.045250
v -0.098524 0.071570 0.084972
v -0.064843 0.156726 0.086054
v -0.043750 0.084960 -0.116394
v -0.011914 0.058419 -0.104008
v -0.037028 0.053532 -0.106742
v -0.078668 0.056205 -0.096015
v -0.020173 0.133989 0.107371
v -0.062205 0.081982 0.114536
v -0.061921 0.097010 0.115235
v -0.038703 0.150717 0.099094
v -0.042287 0.113390 0.112874
v -0.037082 0.102896 0.112610
v -0.039670 0.100583 0.112709
v 0.011213 0.126316 -0.094540
v -0.058393 0.096198 -0.115360
v -0.052244 0.125001 -0.112349
v -0.086446 0.177054 0.007547
v 0.017353 0.093740 -0.095567
v -0.034596 0.061637 0.110799
vn -0.1898 0.3082 -0.9322
vn -0.4473 -0.0113 -0.8943
vn -0.4078 0.4140 -0.8138
vn -0.6386 0.1122 -0.7613
vn -0.0468 0.1137 -0.9924
vn -0.2120 0.0484 -0.9761
vn -0.2666 -0.2904 -0.9190
vn 0.0489 -0.5344 -0.8438
vn 0.1358 -0.1964 -0.9711
vn 0.3831 -0.4786 -0.7901
vn 0.4324 -0.1566 -0.8880
vn 0.1238 0.3364 -0.9336
vn 0.3808 0.4415 -0.8124
vn 0.4391 0.1229 -0.8900
vn 0.1788 0.0655 -0.9817
vn -0.0130 0.6132 -0.7898
vn -0.7539 0.5940 -0.2806
vn -0.3873 0.9001 -0.1995
vn -0.5085 0.7034 -0.4966
vn -0.9248 0.1952 -0.3266
vn -0.7732 0.4162 -0.4785
vn -0.7615 -0.5022 -0.4099
vn -0.9019 -0.2220 -0.3705
vn -0.7128 -0.2427 -0.6581
vn -0.9541 -0.2301 -0.1918
vn -0.9888 0.0349 -0.1453
vn 0.5908 -0.7245 -0.3551
vn 0.6171 -0.5300 -0.5816
vn 0.7907 -0.4318 -0.4339
vn 0.3126 -0.8159 -0.4865
vn 0.9179 -0.3602 -0.1666
vn 0.9171 -0.1001 -0.3858
vn 0.7236 -0.1026 -0.6825
vn 0.8873 0.3527 -0.2972
vn 0.9914 0.0167 -0.1296
vn 0.4222 0.6875 -0.5908
vn 0.4513 0.8571 -0.2483
vn 0.6527 0.6208 -0.4343
vn 0.7344 0.6619 -0.1500
vn 0.1042 0.9763 -0.1896
vn 0.1436 0.8457 -0.5139
vn -0.1652 0.9007 -0.4018
vn -0.2611 0.7102 -0.6538
vn -0.9199 0.3886 -0.0528
vn -0.7034 0.7086 -0.0554
vn -0.9306 0.3384 0.1394
vn -0.9736 -0.2125 0.0834
vn -0.9894 0.1071 0.0977
vn -0.8957 -0.4338 -0.0981
vn -0.8261 -0.5501 0.1228
vn -0.6547 -0.7323 -0.1876
vn 0.1353 -0.9598 -0.2458
vn -0.2469 -0.9688 -0.0196
vn -0.2413 -0.9277 -0.2849
vn 0.4835 -0.8647 -0.1362
vn 0.2078 -0.9780 -0.0167
vn 0.7426 -0.6592 -0.1182
vn 0.9824 0.1531 0.1070
vn 0.9374 0.3327 -0.1023
vn 0.4806 0.8711 0.1011
vn -0.7743 0.5928 0.2217
vn -0.5057 0.8604 0.0629
vn -0.8752 0.2673 0.4031
vn -0.8434 -0.3839 0.3759
vn -0.9487 -0.0285 0.3150
vn 0.4915 -0.8567 0.1567
vn 0.8198 -0.5460 0.1725
vn 0.4169 -0.8267 0.3778
vn 0.7838 0.6193 0.0455
vn 0.9244 0.2900 0.2477
vn -0.1173 0.9904 0.0727
vn -0.5823 0.7277 0.3624
vn -0.3116 0.9029 0.2960
vn -0.1244 0.8657 0.4849
vn -0.7430 0.4825 0.4639
vn -0.5403 0.5286 0.6547
vn -0.3508 0.7079 0.6131
vn -0.8114 0.0101 0.5845
vn -0.6741 0.2728 0.6864
vn -0.7150 -0.3659 0.5957
vn -0.5068 -0.6568 0.5584
vn -0.6132 -0.7218 0.3210
vn -0.3267 -0.8924 0.3114
vn 0.7777 -0.4848 0.4000
vn 0.9444 -0.1358 0.2993
vn 0.8079 -0.1704 0.5642
vn 0.7425 0.6017 0.2945
vn 0.8194 0.2334 0.5236
vn 0.4699 0.7677 0.4358
vn 0.6240 0.4517 0.6377
vn -0.3909 0.2056 0.8972
vn -0.2483 0.4558 0.8548
vn -0.4154 -0.3722 0.8300
vn -0.6112 -0.0860 0.7868
vn -0.1627 -0.6676 0.7265
vn -0.1054 -0.8564 0.5054
vn 0.2629 -0.7691 0.5826
vn 0.0608 -0.5099 0.8581
vn 0.4720 -0.3281 0.8183
vn 0.5284 -0.5653 0.6334
vn 0.5717 0.0111 0.8204
vn 0.4663 0.2139 0.8584
vn 0.3072 0.6900 0.6554
vn 0.2693 0.4150 0.8691
vn -0.0084 0.6567 0.7541
vn 0.1356 0.9160 0.3776
vn -0.0201 -0.8101 -0.5859
vn -0.2608 -0.5970 -0.7587
vn -0.4515 -0.7583 -0.4702
vn -0.5196 -0.4853 -0.7032
vn -0.8343 0.0711 -0.5467
vn -0.6232 0.4007 -0.6716
vn 0.8353 0.2421 -0.4936
vn 0.6571 0.3360 -0.6748
vn 0.1962 0.0763 0.9776
vn 0.1978 -0.2598 0.9452
vn -0.0237 -0.0648 0.9976
vn -0.2629 -0.1896 0.9460
vn -0.1986 0.0496 0.9788
vn -0.0126 0.2972 0.9547
vn 0.1086 0.2623 0.9589
vn -0.2344 -0.0849 0.9684
vn -0.0026 -0.0934 0.9956
vn 0.0257 0.0155 0.9995
vn 0.7706 -0.4405 -0.4606
vn -0.1899 -0.4510 0.8721
vn -0.6624 0.5461 0.5128
vn -0.1298 0.4106 0.9025
vn 0.3143 0.9288 -0.1965
vn 0.7135 0.2007 0.6713
vn 0.2857 0.9555 0.0739
vn -0.5794 -0.8104 0.0863
vn 0.9809 -0.1847 0.0606
vn 0.2180 0.9748 0.0470
vn 0.0303 -0.9733 0.2276
vn -0.0323 -0.1255 -0.9916
vt 0.606451 0.062745
vt 0.692724 0.080013
vt 0.630342 0.107945
vt 0.703367 0.119078
vt 0.647314 0.046036
vt 0.677375 0.047388
vt 0.873457 0.076924
vt 0.811123 0.079980
vt 0.828000 0.049776
vt 0.935789 0.089986
vt 0.910954 0.052659
vt 0.122175 0.110320
vt 0.125708 0.052021
vt 0.180045 0.070041
vt 0.413526 0.061248
vt 0.388891 0.103779
vt 0.337439 0.072297
vt 0.358042 0.040879
vt 0.557181 0.098407
vt 0.565058 0.064617
vt 0.589465 0.037375
vt 0.599943 0.037483
vt 0.650620 0.258431
vt 0.567775 0.289769
vt 0.604451 0.188561
vt 0.719618 0.235974
vt 0.678692 0.198830
vt 0.847479 0.212796
vt 0.789963 0.219495
vt 0.810708 0.155209
vt 0.785825 0.279471
vt 0.745357 0.288929
vt 0.107780 0.215647
vt 0.141158 0.164960
vt 0.176836 0.199699
vt 0.073714 0.178473
vt 0.191456 0.285420
vt 0.245119 0.206766
vt 0.220556 0.126311
vt 0.317190 0.228375
vt 0.256579 0.293525
vt 0.414718 0.157214
vt 0.428285 0.257029
vt 0.381190 0.194890
vt 0.371277 0.281753
vt 0.485417 0.282484
vt 0.471744 0.176900
vt 0.526541 0.211487
vt 0.566275 0.144408
vt 0.681511 0.321110
vt 0.623500 0.324860
vt 0.695309 0.367338
vt 0.778734 0.364633
vt 0.736754 0.370862
vt 0.819107 0.308874
vt 0.835794 0.372406
vt 0.889248 0.275060
vt 1.005624 0.252373
vt 0.969476 0.329687
vt 0.960429 0.248978
vt 0.083645 0.294598
vt 0.039155 0.320206
vt 0.022094 0.250839
vt -0.008020 0.310903
vt 0.131188 0.299367
vt 0.274096 0.367447
vt 0.305349 0.285364
vt 0.423682 0.364694
vt 0.642453 0.395642
vt 0.586103 0.348920
vt 0.707585 0.460889
vt 0.811791 0.453245
vt 0.754042 0.433249
vt 0.083113 0.365405
vt 0.159054 0.377870
vt 0.080593 0.433729
vt 0.366054 0.350626
vt 0.304945 0.407839
vt 0.520754 0.357806
vt 0.602167 0.430886
vt 0.556807 0.417558
vt 0.523678 0.474763
vt 0.660717 0.474290
vt 0.622484 0.527267
vt 0.571409 0.514283
vt 0.761847 0.518882
vt 0.675850 0.540848
vt 0.817675 0.514845
vt 0.878917 0.506016
vt 0.886864 0.428702
vt 0.949026 0.429392
vt 0.170728 0.444539
vt 0.223068 0.415557
vt 0.203884 0.492734
vt 0.362431 0.422584
vt 0.308004 0.486789
vt 0.415651 0.464531
vt 0.363514 0.508855
vt 0.651800 0.595840
vt 0.592600 0.584170
vt 0.730587 0.523643
vt 0.853532 0.578041
vt 0.795466 0.570679
vt 0.920698 0.560820
vt 0.960165 0.498261
vt 0.054359 0.551012
vt 0.087181 0.493994
vt 0.084265 0.579984
vt 0.026961 0.487371
vt 0.147224 0.556738
vt 0.131834 0.506185
vt 0.240961 0.512631
vt 0.194190 0.562458
vt 0.290909 0.543658
vt 0.328297 0.588937
vt 0.424469 0.517157
vt 0.396133 0.577641
vt 0.458527 0.559255
vt 0.475349 0.451389
vt 0.544001 0.568478
vt 0.277483 0.729314
vt 0.290462 0.660823
vt 0.312989 0.707588
vt 0.045397 0.127857
vt 0.074535 0.087161
vt 0.961063 0.168362
vt 0.908280 0.122194
vt 0.910546 0.201570
vt 0.872310 0.142401
vt 0.733961 0.174980
vt 0.661990 0.147004
vt 0.510326 0.147780
vt 0.460893 0.100323
vt 0.306911 0.179188
vt 0.344280 0.140297
vt 0.350771 0.620651
vt 0.190341 0.598453
vt 0.161133 0.621177
vt 0.115611 0.593077
vt 0.110566 0.622236
vt 0.882483 0.640267
vt 0.851559 0.610172
vt 0.907792 0.609244
vt 0.831580 0.633404
vt 0.647022 0.629260
vt 0.581713 0.618829
vt 0.421542 0.611298
vt 0.145720 0.648674
vt 0.123336 0.645997
vt 0.135520 0.655058
vt 0.629117 0.650971
vt 0.606557 0.647347
vt 0.695826 0.760364
vt 0.554733 0.848719
vt 0.615344 0.734119
vt 0.527984 0.722352
vt 0.450708 0.850390
vt 0.451320 0.724456
vt 0.425877 0.773828
vt 0.689813 0.893109
vt 0.762726 0.857646
vt 0.801906 0.790613
vt 0.414143 0.850270
vt 0.182280 0.037604
vt 0.206342 0.065804
vt 0.032891 0.157445
vt 0.906014 0.358516
vt 0.228187 0.348362
vt 0.466053 0.352452
vt 0.995842 0.421948
vt 0.011147 0.390931
vt 0.702452 0.579379
vt 0.238876 0.704966
vt 0.229469 0.661913
vt 0.213882 0.672403
vt 0.231868 0.734826
vt 0.218214 0.718878
vt 0.299806 0.738643
vt 0.320576 0.664001
vt 0.370674 0.841845
vt 0.359634 0.809520
vt 0.387126 0.800078
vt 0.758155 0.176598
vt 0.775740 0.122804
vt 0.294882 0.116443
vt 0.900969 0.625184
vt 0.801151 0.608000
vt 0.138742 0.656642
vt 0.849628 0.672717
vt 0.614151 0.659289
vt 0.611444 0.659245
vt 0.388717 0.643120
vt 0.404400 0.632941
vt 0.375188 0.654810
vt 0.401435 0.827136
vt 0.404753 0.715468
vt 0.747514 0.913224
s 1
usemtl lambert2SG
f 133/1/1 70/2/2 103/3/3
f 96/4/4 103/3/3 70/2/2
f 70/2/2 95/5/5 132/6/6
f 40/7/7 70/8/2 132/9/6
f 122/10/8 40/7/7 71/11/9
f 121/12/10 71/13/9 104/14/11
f 42/15/12 98/16/13 41/17/14
f 41/17/14 94/18/15 42/15/12
f 7/19/16 42/20/12 133/1/1
f 42/21/12 95/22/5 133/1/1
f 14/23/17 48/24/18 64/25/19
f 9/26/20 14/23/17 105/27/21
f 44/28/22 72/29/23 43/30/24
f 72/29/23 76/31/25 108/32/26
f 12/33/27 45/34/28 74/35/29
f 45/34/28 12/33/27 11/36/30
f 34/37/31 74/35/29 46/38/32
f 46/38/32 74/35/29 135/39/33
f 46/38/32 107/40/34 110/41/35
f 99/42/36 111/43/37 47/44/38
f 107/40/34 47/44/38 79/45/39
f 13/46/40 32/47/41 75/48/42
f 111/43/37 32/47/41 13/46/40
f 32/47/41 111/43/37 99/42/36
f 75/48/42 97/49/43 64/25/19
f 1/50/44 33/51/45 14/23/17
f 112/52/46 1/50/44 108/32/26
f 1/50/44 14/23/17 9/26/20
f 108/32/26 35/53/47 20/54/48
f 76/31/25 15/55/49 35/53/47
f 115/56/50 15/55/49 16/57/51
f 78/58/52 77/59/53 73/60/54
f 12/33/27 49/61/55 11/36/30
f 49/61/55 109/62/56 78/63/52
f 77/64/53 78/63/52 109/62/56
f 17/65/57 49/61/55 12/33/27
f 110/41/35 34/37/31 46/38/32
f 82/66/58 110/41/35 50/67/59
f 111/43/37 2/68/60 79/45/39
f 33/51/45 51/69/61 134/70/62
f 51/69/61 112/52/46 85/71/63
f 20/54/48 85/71/63 112/52/46
f 1/50/44 112/52/46 51/69/61
f 15/55/49 115/56/50 35/53/47
f 35/53/47 115/56/50 21/72/64
f 35/53/47 21/72/64 52/73/65
f 109/62/56 49/61/55 80/74/66
f 116/75/67 53/76/68 80/74/66
f 17/65/57 80/74/66 49/61/55
f 18/77/69 55/78/70 50/67/59
f 55/78/70 82/66/58 50/67/59
f 48/24/18 134/70/62 56/79/71
f 134/70/62 19/80/72 117/81/73
f 5/82/74 56/79/71 117/81/73
f 51/69/61 3/83/75 19/80/72
f 19/80/72 89/84/76 119/85/77
f 4/86/78 85/71/63 52/73/65
f 36/87/79 3/83/75 85/71/63
f 21/72/64 118/88/80 4/86/78
f 90/89/81 114/90/82 86/91/83
f 90/89/81 118/88/80 21/72/64
f 115/56/50 114/90/82 21/72/64
f 53/76/68 116/75/67 59/92/84
f 54/93/85 87/94/86 59/92/84
f 55/78/70 83/95/87 63/96/88
f 60/97/89 37/98/90 83/95/87
f 63/96/88 83/95/87 37/98/90
f 119/85/77 5/82/74 117/81/73
f 3/83/75 36/87/79 89/84/76
f 23/99/91 89/84/76 36/87/79
f 23/99/91 26/100/92 89/84/76
f 85/71/63 4/101/78 36/87/79
f 118/88/80 62/102/93 61/103/94
f 91/104/95 90/89/81 22/105/96
f 91/106/95 58/107/97 136/108/98
f 22/109/96 58/107/97 91/106/95
f 87/94/86 92/110/99 24/111/100
f 136/108/98 24/111/100 92/110/99
f 63/112/88 93/113/101 87/94/86
f 37/98/90 93/114/101 63/96/88
f 37/98/90 6/115/102 93/114/101
f 25/116/103 124/117/104 37/98/90
f 124/117/104 6/115/102 37/98/90
f 5/82/74 127/118/105 88/119/106
f 127/118/105 124/117/104 25/116/103
f 26/100/92 119/85/77 89/84/76
f 127/120/105 5/82/74 119/85/77
f 71/121/9 95/122/5 94/123/15
f 135/39/33 121/12/10 104/14/11
f 74/35/29 45/34/28 135/39/33
f 121/12/10 11/36/30 39/124/107
f 121/12/10 39/124/107 122/125/8
f 39/126/107 27/127/108 122/10/8
f 27/127/108 39/126/107 10/128/109
f 123/129/110 44/28/22 43/30/24
f 123/129/110 43/30/24 70/8/2
f 8/130/111 28/131/112 96/4/4
f 28/131/112 8/130/111 105/27/21
f 103/3/3 96/4/4 28/131/112
f 64/25/19 28/131/112 105/27/21
f 64/25/19 103/3/3 28/131/112
f 103/3/3 97/49/43 7/19/16
f 103/3/3 64/25/19 97/49/43
f 97/49/43 75/48/42 32/132/41
f 32/47/41 99/42/36 7/133/16
f 106/134/113 131/135/114 47/44/38
f 99/42/36 47/44/38 131/135/114
f 99/42/36 131/135/114 98/16/13
f 131/135/114 41/17/14 98/16/13
f 124/117/104 100/136/115 6/115/102
f 6/137/102 100/138/115 93/113/101
f 93/113/101 29/139/116 92/110/99
f 100/138/115 65/140/117 29/139/116
f 65/141/117 125/142/118 136/143/98
f 91/104/95 136/143/98 62/102/93
f 125/142/118 65/141/117 126/144/119
f 125/142/118 61/103/94 62/102/93
f 23/99/91 126/145/119 66/146/120
f 66/146/120 127/120/105 26/100/92
f 124/117/104 66/147/120 100/136/115
f 100/138/115 31/148/121 65/140/117
f 67/149/122 65/140/117 130/150/123
f 126/145/119 67/151/122 128/152/124
f 129/153/125 102/154/126 130/155/123
f 67/156/122 102/154/126 101/157/127
f 101/157/127 68/158/128 67/156/122
f 68/158/128 101/157/127 30/159/129
f 38/160/130 129/153/125 30/161/129
f 30/161/129 129/153/125 31/162/121
f 30/159/129 101/157/127 69/163/131
f 133/1/1 95/5/5 70/2/2
f 40/7/7 123/129/110 70/8/2
f 123/129/110 40/7/7 27/127/108
f 122/10/8 27/127/108 40/7/7
f 121/12/10 122/125/8 71/13/9
f 94/164/15 41/165/14 104/14/11
f 41/165/14 135/39/33 104/14/11
f 98/16/13 42/15/12 7/133/16
f 133/1/1 103/3/3 7/19/16
f 14/23/17 64/25/19 105/27/21
f 9/26/20 105/27/21 8/130/111
f 9/26/20 72/29/23 108/32/26
f 9/26/20 8/130/111 72/29/23
f 15/55/49 72/29/23 44/28/22
f 72/29/23 8/130/111 43/30/24
f 15/55/49 44/28/22 16/57/51
f 123/129/110 10/128/109 44/28/22
f 10/128/109 16/57/51 44/28/22
f 73/60/54 10/128/109 39/126/107
f 39/126/107 78/58/52 73/60/54
f 16/57/51 10/128/109 73/60/54
f 78/63/52 39/166/107 11/36/30
f 17/65/57 12/33/27 74/35/29
f 46/38/32 106/134/113 107/40/34
f 79/45/39 47/44/38 111/43/37
f 107/40/34 106/134/113 47/44/38
f 48/24/18 75/48/42 64/25/19
f 33/51/45 134/70/62 48/24/18
f 48/24/18 14/23/17 33/51/45
f 108/32/26 1/50/44 9/26/20
f 20/54/48 112/52/46 108/32/26
f 76/31/25 72/29/23 15/55/49
f 108/32/26 76/31/25 35/53/47
f 113/167/132 115/56/50 16/57/51
f 113/167/132 16/57/51 77/59/53
f 73/60/54 77/59/53 16/57/51
f 11/36/30 49/61/55 78/63/52
f 17/65/57 74/35/29 34/37/31
f 34/37/31 110/41/35 81/168/133
f 107/40/34 79/45/39 50/67/59
f 110/41/35 107/40/34 50/67/59
f 79/45/39 2/68/60 18/77/69
f 56/79/71 84/169/134 13/46/40
f 13/46/40 48/24/18 56/79/71
f 13/46/40 75/48/42 48/24/18
f 33/51/45 1/50/44 51/69/61
f 134/70/62 51/69/61 19/80/72
f 20/54/48 52/73/65 85/71/63
f 35/53/47 52/73/65 20/54/48
f 115/56/50 113/167/132 114/90/82
f 77/59/53 57/170/135 86/91/83
f 86/91/83 114/90/82 113/167/132
f 86/91/83 113/167/132 77/59/53
f 80/74/66 53/76/68 57/171/135
f 57/171/135 77/64/53 109/62/56
f 109/62/56 80/74/66 57/171/135
f 17/65/57 34/37/31 116/75/67
f 17/65/57 116/75/67 80/74/66
f 81/168/133 110/41/35 82/66/58
f 82/66/58 54/93/85 81/168/133
f 116/75/67 81/168/133 54/93/85
f 116/75/67 34/37/31 81/168/133
f 79/45/39 18/77/69 50/67/59
f 13/46/40 84/169/134 2/68/60 111/43/37
f 2/68/60 83/95/87 18/77/69
f 18/77/69 83/95/87 55/78/70
f 88/119/106 2/68/60 84/169/134
f 56/79/71 88/119/106 84/169/134
f 134/70/62 117/81/73 56/79/71
f 5/82/74 88/119/106 56/79/71
f 51/69/61 85/71/63 3/83/75
f 19/80/72 3/83/75 89/84/76
f 21/72/64 4/86/78 52/73/65
f 90/89/81 21/72/64 114/90/82
f 22/105/96 86/91/83 57/170/135
f 22/105/96 90/89/81 86/91/83
f 22/109/96 53/76/68 58/107/97
f 53/76/68 22/109/96 57/171/135
f 59/92/84 87/94/86 24/111/100
f 24/111/100 53/76/68 59/92/84
f 53/76/68 24/111/100 58/107/97
f 59/92/84 116/75/67 54/93/85
f 87/94/86 55/78/70 63/96/88
f 54/93/85 82/66/58 55/78/70
f 55/78/70 87/94/86 54/93/85
f 83/95/87 2/68/60 60/97/89
f 88/119/106 25/116/103 60/97/89
f 88/119/106 60/97/89 2/68/60
f 117/81/73 19/80/72 119/85/77
f 61/172/94 23/99/91 36/87/79
f 61/172/94 36/87/79 4/101/78
f 4/86/78 118/88/80 61/103/94
f 62/102/93 90/89/81 91/104/95
f 62/102/93 118/88/80 90/89/81
f 136/108/98 58/107/97 24/111/100
f 87/94/86 93/113/101 92/110/99
f 60/97/89 25/116/103 37/98/90
f 88/119/106 127/118/105 25/116/103
f 119/85/77 26/100/92 127/120/105
f 95/122/5 120/173/136 132/174/6
f 40/175/7 132/174/6 120/173/136
f 71/176/9 40/177/7 120/173/136
f 94/123/15 104/178/11 71/121/9
f 71/121/9 120/173/136 95/122/5
f 94/123/15 95/122/5 42/179/12
f 38/180/130 69/181/131 101/182/127
f 135/39/33 45/34/28 121/12/10
f 11/36/30 121/12/10 45/34/28
f 123/129/110 27/127/108 10/128/109
f 8/183/111 96/184/4 43/30/24
f 70/8/2 43/30/24 96/184/4
f 7/19/16 97/49/43 32/132/41
f 7/133/16 99/42/36 98/16/13
f 131/135/114 106/134/113 135/185/33
f 106/134/113 46/38/32 135/185/33
f 131/135/114 135/185/33 41/17/14
f 93/113/101 100/138/115 29/139/116
f 29/139/116 136/108/98 92/110/99
f 29/186/116 65/141/117 136/143/98
f 62/102/93 136/143/98 125/142/118
f 125/142/118 23/187/91 61/103/94
f 125/142/118 126/144/119 23/187/91
f 23/99/91 66/146/120 26/100/92
f 127/118/105 66/147/120 124/117/104
f 129/188/125 65/140/117 31/148/121
f 65/140/117 129/188/125 130/150/123
f 126/144/119 65/141/117 67/189/122
f 67/151/122 68/190/128 128/152/124
f 126/145/119 128/152/124 66/146/120
f 68/190/128 31/191/121 128/152/124
f 128/192/124 100/136/115 66/193/120
f 100/136/115 128/192/124 31/194/121
f 38/180/130 101/182/127 102/195/126
f 67/156/122 130/155/123 102/154/126
f 68/158/128 30/159/129 31/196/121
f 129/153/125 38/160/130 102/154/126
f 69/197/131 38/160/130 30/161/129
