# Blender 4.5.2 LTS
# www.blender.org
mtllib orange.mtl
o orange
v -0.030005 0.132178 0.000664
v -0.029998 0.132216 0.000674
v -0.030430 0.132279 0.000409
v -0.029457 0.132200 -0.000376
v -0.092834 0.062755 -0.001344
v -0.056442 0.126820 -0.008643
v -0.083687 0.092348 -0.025205
v -0.054708 0.015606 -0.022345
v -0.058847 0.061151 -0.055302
v -0.030321 0.016311 -0.033747
v -0.002423 0.083396 -0.055107
v 0.012424 0.116134 -0.010659
v -0.010537 0.130649 -0.004120
v 0.013816 0.024084 -0.001517
v 0.012240 0.034954 0.031161
v -0.021451 0.131939 0.007726
v -0.012830 0.126674 0.023843
v -0.034377 0.054757 0.061456
v -0.049342 0.036720 0.050371
v -0.048123 0.128018 0.018585
v -0.034417 0.131358 0.016739
v -0.084184 0.040606 0.015098
v -0.066541 0.020589 0.016550
v -0.031557 0.131267 -0.003656
v -0.029124 0.131716 -0.000188
v -0.030458 0.132204 -0.000330
v -0.029333 0.132254 0.000267
v -0.030774 0.131654 0.000202
v -0.076845 0.112527 -0.001770
v -0.091041 0.071245 -0.015717
v -0.075873 0.026482 0.003149
v -0.072136 0.115010 -0.015432
v -0.083505 0.046402 -0.024497
v -0.056711 0.012999 -0.006876
v -0.083690 0.065515 -0.032787
v -0.073580 0.026345 -0.014024
v -0.074684 0.073633 -0.045181
v -0.070235 0.038799 -0.038228
v -0.064084 0.097601 -0.045612
v -0.064831 0.110302 -0.034173
v -0.046573 0.024817 -0.041158
v -0.035273 0.098577 -0.056034
v -0.024805 0.033218 -0.051676
v -0.041692 0.055425 -0.060340
v -0.050627 0.039338 -0.051736
v -0.050798 0.083880 -0.058359
v -0.016872 0.126977 -0.025290
v -0.032043 0.068726 -0.062961
v -0.040997 0.111919 -0.046523
v -0.015608 0.053843 -0.059289
v -0.019901 0.077317 -0.062315
v -0.029457 0.010297 -0.020739
v -0.011633 0.098310 -0.053528
v -0.014386 0.009070 -0.005241
v 0.005098 0.063201 -0.052013
v -0.002326 0.038361 -0.047582
v 0.015421 0.052218 -0.040046
v -0.011762 0.112640 -0.043636
v 0.011674 0.101425 -0.036111
v -0.009933 0.016639 -0.028364
v 0.009374 0.029313 -0.028652
v 0.016641 0.081302 -0.041613
v 0.021056 0.071099 -0.037000
v 0.021354 0.041050 -0.022912
v 0.029078 0.078406 -0.020250
v 0.028188 0.055607 -0.019786
v 0.024196 0.097962 -0.016764
v 0.018817 0.031865 0.013311
v 0.032550 0.063350 -0.004343
v 0.026485 0.042325 -0.003649
v 0.022186 0.105123 0.005350
v 0.031572 0.084113 -0.003650
v -0.009394 0.129004 0.011109
v 0.026423 0.089467 0.021954
v -0.000251 0.013861 -0.004507
v 0.010095 0.110972 0.027081
v 0.012709 0.050313 0.042811
v 0.030142 0.075949 0.020129
v 0.006966 0.119792 0.014126
v -0.002444 0.018168 0.024466
v 0.014544 0.066847 0.044738
v 0.014461 0.090963 0.040293
v -0.009902 0.052431 0.057322
v -0.024074 0.122628 0.034585
v -0.006700 0.107852 0.045753
v -0.000372 0.072964 0.055608
v -0.032793 0.012320 0.025993
v -0.021862 0.019897 0.037929
v -0.015209 0.068289 0.061503
v -0.034619 0.117086 0.042603
v -0.025641 0.031978 0.050629
v -0.049580 0.078536 0.059335
v -0.061022 0.058390 0.054318
v -0.064141 0.082322 0.052007
v -0.052743 0.015917 0.023850
v -0.073118 0.042872 0.038019
v -0.050198 0.023831 0.038859
v -0.083205 0.086342 0.030112
v -0.084013 0.063992 0.032711
v -0.088215 0.094138 0.009596
v -0.046581 0.010107 0.011918
v -0.075226 0.108445 0.022228
v -0.042106 0.132167 0.002189
v -0.062596 0.123810 0.008974
v -0.039449 0.131110 -0.015336
v -0.031658 0.009262 0.001602
v -0.021085 0.009072 0.015070
v -0.043484 0.008820 -0.006973
v -0.031342 0.128723 0.000450
v -0.027164 0.131287 0.002809
v -0.031472 0.129174 -0.002260
v -0.031418 0.131264 0.003772
v -0.026630 0.131042 -0.002387
v -0.034001 0.131371 -0.000425
v -0.028488 0.009288 -0.001613
v -0.028222 0.129101 0.001479
v -0.088446 0.093943 -0.003950
v -0.086219 0.042708 -0.008289
v -0.052816 0.122373 -0.027816
v -0.036692 0.122792 -0.034248
v -0.000016 0.120644 -0.023758
v 0.028389 0.051147 0.016266
v -0.002785 0.035294 0.045535
v -0.011285 0.095656 0.055028
v -0.029755 0.080361 0.062179
v -0.039713 0.100474 0.054901
v -0.056983 0.116144 0.034291
v -0.065048 0.099994 0.043551
v -0.025655 0.131980 -0.013173
v -0.091593 0.065343 0.013390
vn -0.8999 -0.4202 -0.1168
vn -0.6865 -0.6855 -0.2424
vn -0.7266 -0.6858 0.0409
vn -0.5280 0.8367 0.1454
vn -0.1686 0.9855 0.0217
vn -0.4341 0.8909 -0.1337
vn -0.9300 0.3548 -0.0956
vn -0.6734 0.6946 -0.2530
vn -0.8421 0.3513 -0.4092
vn -0.9684 0.0277 -0.2480
vn -0.3929 -0.8395 -0.3753
vn -0.4447 -0.8924 -0.0770
vn -0.9934 -0.1108 -0.0295
vn -0.8489 -0.3585 -0.3884
vn -0.5618 0.6210 -0.5466
vn -0.6313 -0.4810 -0.6084
vn -0.8496 -0.0796 -0.5214
vn -0.3696 0.8159 -0.4447
vn -0.6986 0.0528 -0.7136
vn -0.5414 0.4244 -0.7258
vn -0.4760 -0.1412 -0.8680
vn -0.2713 -0.7143 -0.6451
vn -0.1486 0.9567 -0.2503
vn -0.0761 0.8325 -0.5488
vn -0.1717 -0.2294 -0.9581
vn -0.3280 -0.4719 -0.8184
vn -0.1743 0.6450 -0.7440
vn -0.0773 0.4396 -0.8949
vn -0.3239 0.2159 -0.9211
vn -0.0051 -0.8346 -0.5509
vn 0.0051 -0.9564 -0.2919
vn -0.0559 -0.0182 -0.9983
vn 0.0838 -0.5765 -0.8128
vn 0.1604 0.1203 -0.9797
vn 0.0533 0.9822 -0.1803
vn 0.1966 0.8859 -0.4201
vn 0.2288 -0.2504 -0.9407
vn 0.2803 0.6678 -0.6895
vn 0.2897 0.4443 -0.8477
vn 0.4559 0.2072 -0.8656
vn 0.3247 -0.8281 -0.4571
vn 0.4370 -0.5016 -0.7466
vn 0.1982 -0.9774 -0.0736
vn 0.7199 -0.2866 -0.6321
vn 0.6168 -0.6470 -0.4483
vn 0.6536 0.4946 -0.5728
vn 0.7268 0.1985 -0.6576
vn 0.3289 0.9417 -0.0703
vn 0.5397 -0.1082 -0.8349
vn 0.8221 -0.0162 -0.5691
vn 0.8532 0.4417 -0.2775
vn 0.9321 0.1295 -0.3382
vn 0.4731 -0.8787 -0.0637
vn 0.6711 0.7227 -0.1654
vn 0.8093 -0.4659 -0.3578
vn 0.6917 -0.7215 -0.0330
vn 0.9733 0.2257 -0.0413
vn 0.9931 -0.1037 -0.0542
vn 0.9225 -0.2109 -0.3234
vn 0.8972 -0.4376 -0.0601
vn 0.9181 -0.2793 0.2814
vn 0.8327 0.5462 0.0906
vn 0.5913 0.7800 0.2047
vn 0.8780 0.3240 0.3523
vn 0.7643 -0.6055 0.2220
vn 0.4408 -0.8147 0.3769
vn 0.1415 -0.9684 0.2055
vn 0.6365 0.6324 0.4415
vn 0.6980 0.3139 0.6436
vn 0.7241 -0.0433 0.6884
vn 0.9399 0.0561 0.3367
vn 0.6874 -0.2891 0.6662
vn 0.3416 0.9256 0.1631
vn 0.2799 0.8727 0.4000
vn 0.4853 0.0562 0.8725
vn 0.3623 0.6034 0.7104
vn 0.4200 -0.5548 0.7181
vn 0.1332 -0.7899 0.5986
vn 0.2834 0.3863 0.8777
vn 0.3250 -0.2889 0.9005
vn 0.0627 -0.5857 0.8081
vn 0.2231 -0.0118 0.9747
vn 0.0883 0.9921 0.0895
vn -0.0571 0.9585 0.2795
vn -0.0483 -0.9072 0.4180
vn 0.0957 0.8261 0.5553
vn -0.0791 0.7287 0.6803
vn -0.1520 0.4776 0.8653
vn 0.0013 0.1669 0.9860
vn -0.0782 -0.2381 0.9681
vn -0.3256 -0.7203 0.6125
vn -0.2908 0.1284 0.9481
vn -0.4957 -0.1785 0.8499
vn -0.5609 0.1871 0.8064
vn -0.3590 -0.8491 0.3875
vn -0.2413 -0.9571 0.1607
vn -0.3069 -0.5077 0.8051
vn -0.6766 -0.4356 0.5938
vn -0.2980 0.8989 0.3211
vn -0.4193 0.7245 0.5471
vn -0.8408 -0.0907 0.5338
vn -0.5515 0.4678 0.6906
vn -0.7128 0.6045 0.3557
vn -0.8355 0.2471 0.4907
vn -0.8577 -0.4501 0.2486
vn -0.9211 0.3543 0.1617
vn -0.9740 -0.0590 0.2187
vn -0.7483 0.6631 -0.0160
vn 0.0527 -0.9976 -0.0439
vn -0.0035 -0.9998 0.0208
vn -0.5840 -0.7636 0.2752
vn -0.1553 -0.9835 -0.0924
vn 0.1704 0.8663 -0.4695
vn 0.2841 0.9461 -0.1557
vn 0.3510 0.9362 0.0166
vn -0.2300 0.9408 -0.2490
vn -0.2574 0.9559 0.1414
vn -0.4105 0.8707 -0.2707
vn 0.2366 0.8314 0.5027
vn 0.4891 0.7832 -0.3838
vn 0.6767 -0.5547 0.4842
vn 0.1940 0.8977 0.3956
vn 0.7676 0.6259 -0.1380
vn -0.1320 0.7381 -0.6617
vn -0.6204 0.4712 -0.6270
vn 0.5410 0.3448 0.7671
vn 0.7575 -0.2105 -0.6180
vn -0.7756 0.5972 0.2043
vn -0.3905 0.0866 0.9165
vt 0.510144 0.704748
vt 0.571379 0.685619
vt 0.573161 0.735142
vt 0.214783 0.247010
vt 0.261338 0.277592
vt 0.220423 0.288865
vt 0.101086 0.245148
vt 0.168220 0.300316
vt 0.089039 0.317393
vt 0.016200 0.281241
vt 0.629359 0.661943
vt 0.633799 0.703942
vt 0.432480 0.729368
vt 0.416749 0.650972
vt 0.505888 0.649102
vt 0.169036 0.348711
vt 0.558433 0.604516
vt 0.014069 0.340633
vt 0.212919 0.337942
vt 0.450544 0.595442
vt 0.477555 0.534886
vt 0.141748 0.392828
vt 0.066075 0.422548
vt 0.558157 0.500490
vt 0.646414 0.607796
vt 0.254056 0.315618
vt 0.247630 0.363948
vt 0.632283 0.492318
vt 0.617725 0.562627
vt 0.222875 0.401206
vt 0.220001 0.453368
vt 0.146474 0.470590
vt 0.689169 0.625709
vt 0.696047 0.661783
vt 0.593602 0.442448
vt 0.663715 0.436857
vt 0.702270 0.560312
vt 0.257539 0.533925
vt 0.285787 0.319010
vt 0.298798 0.356671
vt 0.730921 0.492294
vt 0.301173 0.413342
vt 0.292496 0.466484
vt 0.324857 0.516541
vt 0.743114 0.636497
vt 0.773494 0.558308
vt 0.731519 0.697633
vt 0.853844 0.553183
vt 0.804427 0.619152
vt 0.372077 0.426978
vt 0.399402 0.485731
vt 0.328058 0.309786
vt 0.826763 0.488295
vt 0.908788 0.519616
vt 0.434672 0.387605
vt 0.487381 0.436755
vt 0.773536 0.693864
vt 0.448738 0.505599
vt 0.383415 0.346133
vt 0.861222 0.622823
vt 0.823034 0.695528
vt 0.503095 0.367171
vt 0.545281 0.409576
vt 0.974831 0.602147
vt 0.965088 0.670190
vt 0.918372 0.615456
vt 0.885273 0.682132
vt 0.918445 0.749067
vt 0.438034 0.317655
vt 0.387043 0.279260
vt 0.493544 0.261688
vt 0.848586 0.735425
vt 0.778502 0.763977
vt 0.725650 0.744228
vt 0.416791 0.246499
vt 0.472208 0.199119
vt 0.532682 0.154345
vt 0.984095 0.763447
vt 0.867717 0.840438
vt 0.340279 0.276326
vt 0.340248 0.241875
vt 0.473657 0.101778
vt 0.390036 0.188354
vt 0.793232 0.837390
vt 0.729140 0.803825
vt 0.395471 0.135084
vt 0.797384 0.905264
vt 0.727099 0.855405
vt 0.417582 0.047207
vt 0.304289 0.278526
vt 0.287250 0.246848
vt 0.699317 0.775480
vt 0.326517 0.209115
vt 0.306932 0.177245
vt 0.304810 0.115517
vt 0.358827 0.055969
vt 0.745692 0.995923
vt 0.704937 0.940645
vt 0.791542 0.966434
vt 0.656147 0.812746
vt 0.280949 0.038738
vt 0.650088 0.995429
vt 0.598970 0.930479
vt 0.214473 0.066662
vt 0.260016 0.001948
vt 0.649797 0.773691
vt 0.662786 0.743722
vt 0.654698 0.867568
vt 0.569876 0.845447
vt 0.257977 0.234002
vt 0.242797 0.183865
vt 0.480446 0.865856
vt 0.222039 0.130357
vt 0.184745 0.190383
vt 0.134624 0.129981
vt 0.529940 0.778744
vt 0.112434 0.197585
vt 0.049488 0.147648
vt 0.114329 0.074130
vt 0.159472 0.258399
vt 0.444814 0.800636
vt 0.698526 0.714260
vt 0.701689 0.709317
vt 0.016000 0.217046
vt 0.606355 0.762979
vt 0.673177 0.699545
vt 0.286339 0.283739
vt 0.286202 0.287414
vt 0.282345 0.287127
vt 0.290519 0.285722
vt 0.288288 0.290837
vt 0.287623 0.287353
vt 0.285708 0.288642
vt 0.079683 0.484066
vt 0.193615 0.547231
vt 0.764118 0.436639
vt 0.382228 0.554707
vt 0.341238 0.367356
vt 0.543965 0.282933
vt 0.565080 0.353787
vt 0.837782 0.790092
vt 0.914473 0.881511
vt 0.862211 0.946456
vt 0.332899 0.004699
vt 0.527586 0.946943
vt 0.283748 0.291042
vt 0.171933 0.780581
vt 0.109857 0.692301
vt 0.265924 0.660417
vt 0.165593 0.918048
vt 0.076692 0.781187
vt 0.247001 0.796873
vt 0.327935 0.829674
s 1
usemtl Skin.001
f 118/1/1 36/2/2 31/3/3
f 104/4/4 103/5/5 6/6/6
f 117/7/7 32/8/8 7/9/9
f 117/7/7 7/9/9 30/10/10
f 36/2/2 8/11/11 34/12/12
f 5/13/13 30/14/10 33/15/14
f 32/8/8 40/16/15 7/9/9
f 33/15/14 38/17/16 36/2/2
f 7/9/9 35/18/17 30/10/10
f 119/19/18 40/16/15 32/8/8
f 33/15/14 35/20/17 38/17/16
f 37/21/19 38/17/16 35/20/17
f 7/9/9 40/16/15 39/22/20
f 7/9/9 39/22/20 37/23/19
f 37/21/19 9/24/21 38/17/16
f 8/11/11 38/17/16 41/25/22
f 105/26/23 120/27/24 119/19/18
f 9/24/21 44/28/25 45/29/26
f 40/16/15 49/30/27 39/22/20
f 49/30/27 42/31/28 46/32/29
f 8/11/11 10/33/30 52/34/31
f 9/24/21 46/35/29 44/28/25
f 46/35/29 48/36/32 44/28/25
f 44/28/25 43/37/33 45/29/26
f 41/25/22 45/29/26 43/37/33
f 46/32/29 42/31/28 51/38/34
f 105/26/23 129/39/35 120/27/24
f 129/39/35 47/40/36 120/27/24
f 44/28/25 48/36/32 50/41/37
f 120/27/24 58/42/38 49/30/27
f 58/42/38 53/43/39 42/31/28
f 53/43/39 11/44/40 51/38/34
f 52/34/31 10/33/30 60/45/41
f 50/41/37 56/46/42 43/37/33
f 52/34/31 60/45/41 54/47/43
f 57/48/44 61/49/45 56/46/42
f 58/42/38 59/50/46 53/43/39
f 60/45/41 56/46/42 61/49/45
f 59/50/46 62/51/47 11/44/40
f 129/39/35 13/52/48 47/40/36
f 55/53/49 63/54/50 57/48/44
f 62/51/47 67/55/51 65/56/52
f 60/45/41 61/49/45 75/57/53
f 62/51/47 65/56/52 63/58/50
f 59/50/46 12/59/54 67/55/51
f 61/49/45 64/60/55 14/61/56
f 65/56/52 72/62/57 69/63/58
f 65/64/52 69/65/58 66/66/59
f 66/66/59 69/65/58 70/67/60
f 69/65/58 122/68/61 70/67/60
f 67/55/51 12/59/54 71/69/62
f 67/55/51 72/62/57 65/56/52
f 12/59/54 13/52/48 79/70/63
f 71/69/62 74/71/64 72/62/57
f 68/72/65 80/73/66 14/61/56
f 14/61/56 80/73/66 75/57/53
f 54/47/43 75/57/53 107/74/67
f 71/69/62 76/75/68 74/71/64
f 74/71/64 82/76/69 81/77/70
f 75/57/53 80/73/66 107/74/67
f 122/68/61 78/78/71 77/79/72
f 73/80/73 17/81/74 79/70/63
f 82/76/69 86/82/75 81/77/70
f 17/81/74 85/83/76 76/75/68
f 76/75/68 85/83/76 82/76/69
f 80/73/66 123/84/77 88/85/78
f 82/76/69 124/86/79 86/82/75
f 83/87/80 91/88/81 123/84/77
f 124/86/79 89/89/82 86/82/75
f 17/81/74 16/90/83 21/91/84
f 107/74/67 88/85/78 87/92/85
f 85/83/76 84/93/86 90/94/87
f 90/94/87 126/95/88 124/86/79
f 124/86/79 125/96/89 89/89/82
f 125/97/89 18/98/90 89/99/82
f 88/85/78 91/88/81 97/100/91
f 125/96/89 126/95/88 92/101/92
f 18/98/90 92/102/92 93/103/93
f 92/101/92 94/104/94 93/105/93
f 95/106/95 101/107/96 87/92/85
f 19/108/97 93/103/93 96/109/98
f 20/110/99 104/4/4 127/111/100
f 93/103/93 99/112/101 96/109/98
f 128/113/102 102/114/103 98/115/104
f 128/113/102 98/115/104 94/104/94
f 96/109/98 99/112/101 22/116/105
f 102/114/103 100/117/106 98/115/104
f 98/115/104 130/118/107 99/119/101
f 102/114/103 104/4/4 29/120/108
f 99/112/101 130/121/107 22/116/105
f 13/52/48 129/39/35 16/90/83
f 105/26/23 103/5/5 129/39/35
f 54/47/43 106/122/109 115/123/110
f 21/91/84 16/90/83 103/5/5
f 100/117/106 29/120/108 117/7/7
f 130/118/107 100/117/106 5/124/13
f 101/107/96 23/125/111 34/12/12
f 108/126/112 52/34/31 54/47/43
f 107/74/67 87/92/85 101/107/96
f 112/127/113 109/128/114 114/129/115
f 110/130/116 113/131/117 116/132/118
f 110/130/116 116/132/118 112/127/113
f 113/131/117 109/128/114 116/132/118
f 111/133/119 109/128/114 113/131/117
f 31/3/3 36/2/2 34/12/12
f 5/124/13 117/7/7 30/10/10
f 100/117/106 117/7/7 5/124/13
f 29/120/108 104/4/4 32/8/8
f 32/8/8 104/4/4 6/6/6
f 22/116/105 5/13/13 118/1/1
f 31/3/3 22/116/105 118/1/1
f 118/1/1 33/15/14 36/2/2
f 117/7/7 29/120/108 32/8/8
f 6/6/6 103/5/5 105/26/23
f 30/14/10 35/20/17 33/15/14
f 118/1/1 5/13/13 33/15/14
f 36/2/2 38/17/16 8/11/11
f 35/18/17 7/9/9 37/23/19
f 32/8/8 6/6/6 119/19/18
f 6/6/6 105/26/23 119/19/18
f 38/17/16 9/24/21 45/29/26
f 38/17/16 45/29/26 41/25/22
f 37/23/19 39/22/20 46/32/29
f 37/23/19 46/32/29 9/134/21
f 8/11/11 41/25/22 10/33/30
f 108/126/112 8/11/11 52/34/31
f 40/16/15 119/19/18 49/30/27
f 39/22/20 49/30/27 46/32/29
f 119/19/18 120/27/24 49/30/27
f 10/33/30 41/25/22 43/37/33
f 48/135/32 46/32/29 51/38/34
f 48/36/32 51/136/34 50/41/37
f 120/27/24 47/40/36 58/42/38
f 43/37/33 44/28/25 50/41/37
f 49/30/27 58/42/38 42/31/28
f 51/38/34 42/31/28 53/43/39
f 43/37/33 56/46/42 60/45/41
f 10/33/30 43/37/33 60/45/41
f 51/136/34 55/53/49 50/41/37
f 56/46/42 50/41/37 55/53/49
f 11/44/40 53/43/39 59/50/46
f 51/38/34 11/44/40 55/137/49
f 55/137/49 11/44/40 62/51/47
f 58/42/38 47/40/36 121/138/120
f 56/46/42 55/53/49 57/48/44
f 58/42/38 121/138/120 59/50/46
f 55/137/49 62/51/47 63/58/50
f 121/138/120 12/59/54 59/50/46
f 57/48/44 64/60/55 61/49/45
f 59/50/46 67/55/51 62/51/47
f 121/138/120 47/40/36 13/52/48
f 63/54/50 65/64/52 66/66/59
f 57/48/44 63/54/50 66/66/59
f 64/60/55 57/48/44 66/66/59
f 64/60/55 66/66/59 70/67/60
f 75/57/53 61/49/45 14/61/56
f 121/138/120 13/52/48 12/59/54
f 72/62/57 67/55/51 71/69/62
f 14/61/56 64/60/55 70/67/60
f 72/62/57 78/139/71 69/140/58
f 69/65/58 78/78/71 122/68/61
f 12/59/54 79/70/63 71/69/62
f 70/67/60 122/68/61 68/72/65
f 14/61/56 70/67/60 68/72/65
f 72/62/57 74/71/64 78/139/71
f 13/52/48 16/90/83 73/80/73
f 79/70/63 13/52/48 73/80/73
f 71/69/62 79/70/63 76/75/68
f 68/72/65 122/68/61 15/141/121
f 122/68/61 77/79/72 15/141/121
f 74/71/64 76/75/68 82/76/69
f 68/72/65 15/141/121 80/73/66
f 78/139/71 74/71/64 81/77/70
f 78/78/71 81/142/70 77/79/72
f 76/75/68 79/70/63 17/81/74
f 15/141/121 123/84/77 80/73/66
f 123/84/77 15/141/121 77/79/72
f 82/76/69 85/83/76 124/86/79
f 73/80/73 16/90/83 17/81/74
f 123/84/77 91/88/81 88/85/78
f 80/73/66 88/85/78 107/74/67
f 83/87/80 81/142/70 86/143/75
f 77/79/72 81/142/70 83/87/80
f 77/79/72 83/87/80 123/84/77
f 83/87/80 86/143/75 89/99/82
f 17/81/74 84/93/86 85/83/76
f 83/87/80 89/99/82 18/98/90
f 85/83/76 90/94/87 124/86/79
f 91/88/81 83/87/80 18/98/90
f 124/86/79 126/95/88 125/96/89
f 84/93/86 17/81/74 21/91/84
f 18/144/90 125/96/89 92/101/92
f 90/94/87 84/93/86 21/91/84
f 18/98/90 19/108/97 91/88/81
f 88/85/78 97/100/91 87/92/85
f 97/100/91 91/88/81 19/108/97
f 126/95/88 94/104/94 92/101/92
f 21/91/84 20/110/99 90/94/87
f 87/92/85 97/100/91 95/106/95
f 18/98/90 93/103/93 19/108/97
f 126/95/88 90/94/87 127/111/100
f 94/104/94 126/95/88 128/113/102
f 90/94/87 20/110/99 127/111/100
f 128/113/102 126/95/88 127/111/100
f 97/100/91 19/108/97 96/109/98
f 94/145/94 99/112/101 93/103/93
f 94/104/94 98/115/104 99/119/101
f 128/113/102 127/111/100 102/114/103
f 97/100/91 96/109/98 23/125/111
f 95/106/95 97/100/91 23/125/111
f 23/125/111 96/109/98 22/116/105
f 21/91/84 103/5/5 20/110/99
f 95/106/95 23/125/111 101/107/96
f 127/111/100 104/4/4 102/114/103
f 23/125/111 22/116/105 31/3/3
f 20/110/99 103/5/5 104/4/4
f 98/115/104 100/117/106 130/118/107
f 16/90/83 129/39/35 113/131/117
f 129/39/35 24/146/122 113/131/117
f 107/74/67 108/126/112 106/122/109
f 129/39/35 103/5/5 24/146/122
f 103/5/5 16/90/83 112/127/113
f 112/127/113 16/90/83 110/130/116
f 22/116/105 130/121/107 5/13/13
f 100/117/106 102/114/103 29/120/108
f 23/125/111 31/3/3 34/12/12
f 101/107/96 34/12/12 108/126/112
f 108/126/112 34/12/12 8/11/11
f 107/74/67 101/107/96 108/126/112
f 107/74/67 106/122/109 54/47/43
f 108/126/112 115/123/110 106/122/109
f 54/47/43 60/45/41 75/57/53
f 108/126/112 54/47/43 115/123/110
f 114/129/115 109/128/114 111/133/119
f 112/127/113 116/132/118 109/128/114
f 113/131/117 24/146/122 111/133/119
f 24/146/122 114/129/115 111/133/119
f 114/129/115 103/5/5 112/127/113
f 110/130/116 16/90/83 113/131/117
f 103/5/5 114/129/115 24/146/122
usemtl Stub.001
f 28/147/123 2/148/124 27/149/125
f 26/150/126 3/151/127 28/147/123
f 25/152/128 26/150/126 28/147/123
f 28/147/123 27/149/125 25/152/128
f 25/152/128 27/149/125 4/153/129
f 25/152/128 4/153/129 26/150/126
f 28/147/123 3/151/127 2/148/124
l 1 2
