# Blender 4.5.2 LTS
# www.blender.org
mtllib strawberry.mtl
o strawberry
v -0.016480 0.086841 -0.040592
v 0.005876 0.065510 -0.050793
v 0.001411 0.074748 -0.047369
v 0.001032 0.091425 -0.035198
v -0.032865 0.080884 -0.037618
v -0.027740 0.069109 -0.049275
v -0.007665 0.070260 -0.051327
v -0.003177 0.062201 -0.053842
v 0.018008 0.088533 -0.019636
v 0.003517 0.096616 -0.018754
v -0.044406 0.068731 -0.020865
v -0.025690 0.046419 -0.051984
v -0.007052 0.042549 -0.055041
v 0.009605 0.038266 -0.049903
v 0.024528 0.071118 -0.036486
v 0.024781 0.047842 -0.040983
v -0.032273 0.086372 -0.016022
v -0.039907 0.058140 -0.042401
v 0.029326 0.071552 -0.010819
v 0.006814 0.084645 0.008590
v -0.014103 0.096403 -0.017711
v -0.047064 0.047711 -0.016544
v -0.036002 0.033428 -0.031311
v 0.023769 0.032723 -0.025767
v 0.033447 0.055749 -0.023136
v -0.026697 0.019400 -0.015172
v -0.012310 0.027022 -0.044528
v 0.026406 0.040650 0.004322
v -0.016130 0.085880 0.012096
v -0.033239 0.070704 0.022190
v -0.044412 0.051233 0.021747
v -0.040907 0.031510 0.035834
v -0.012242 0.011452 0.003740
v 0.005297 0.020674 -0.030748
v 0.017253 0.052752 0.028185
v -0.015260 0.065269 0.042047
v -0.027896 0.049815 0.050671
v -0.030997 0.033496 0.053030
v -0.043518 0.031320 0.004490
v 0.008369 0.017565 0.004765
v 0.001135 0.056631 0.043851
v -0.032574 0.017684 0.023797
v 0.011212 0.028334 0.033150
v 0.000495 0.034495 0.051330
v -0.013380 0.039246 0.058307
v -0.022535 0.020184 0.050768
v -0.017264 0.012035 0.035284
v -0.003872 0.016740 0.039500
v -0.003967 0.074126 -0.048791
v -0.022247 0.078466 -0.046390
v 0.005344 0.070860 -0.048424
v -0.008143 0.091098 -0.037743
v -0.033334 0.084913 -0.028936
v -0.028287 0.058063 -0.051597
v -0.018897 0.058761 -0.052721
v -0.014658 0.053085 -0.054179
v 0.003108 0.049540 -0.053545
v 0.010107 0.050803 -0.050990
v 0.016637 0.067967 -0.044158
v 0.013374 0.081787 -0.037158
v 0.010632 0.094098 -0.018666
v -0.016864 0.093412 -0.029827
v -0.039313 0.076450 -0.032023
v -0.034215 0.063877 -0.047879
v 0.017801 0.054360 -0.046631
v -0.039582 0.078605 -0.018511
v -0.043423 0.064424 -0.034337
v 0.030605 0.051462 -0.032810
v 0.024750 0.081793 -0.016224
v -0.004427 0.097713 -0.018630
v -0.023970 0.092505 -0.017144
v 0.031286 0.063587 -0.030688
v -0.024918 0.087449 -0.000430
v -0.047260 0.057828 -0.019793
v -0.030785 0.025091 -0.024884
v 0.026388 0.035551 -0.010194
v 0.032100 0.049639 -0.010814
v 0.033342 0.064091 -0.018007
v 0.020325 0.078999 -0.000758
v -0.039847 0.061827 0.022333
v -0.047643 0.050158 -0.000038
v -0.043317 0.040250 -0.023685
v -0.030092 0.017533 0.003660
v 0.014747 0.025157 -0.029674
v 0.017001 0.024033 -0.011876
v -0.014890 0.077309 0.027449
v -0.038204 0.041662 0.041446
v -0.020006 0.014725 -0.008079
v -0.011775 0.017615 -0.023274
v -0.002435 0.022643 -0.038594
v 0.010211 0.021818 0.021440
v 0.018691 0.032950 0.020539
v 0.023469 0.046795 0.017099
v -0.024504 0.068491 0.035658
v -0.022366 0.056468 0.049387
v -0.038587 0.024646 0.031306
v -0.005530 0.048011 0.053026
v -0.007192 0.012210 0.023857
v 0.015186 0.038913 0.033065
v 0.009469 0.043175 0.042526
v -0.006378 0.036364 0.056371
v -0.022321 0.033826 0.058520
v -0.020614 0.043978 0.057281
v -0.015355 0.010768 0.024160
v -0.011249 0.012980 0.038381
v -0.012166 0.017807 0.047987
v -0.001887 0.024551 0.048290
v -0.010440 0.026183 0.053706
v -0.033718 0.024902 0.044677
v -0.046273 0.041462 0.013227
v -0.019894 0.021429 -0.030149
v -0.024528 0.079273 0.018850
v -0.004641 0.075625 0.027861
v 0.030707 0.044222 -0.023526
v -0.025051 0.029127 -0.039766
v -0.039289 0.044960 -0.038105
v -0.040744 0.070625 0.000366
v 0.025882 0.040014 -0.035210
v -0.015345 0.043535 -0.054579
v -0.036979 0.071269 -0.041353
v 0.011006 0.091161 -0.027953
v 0.000418 0.040713 -0.054055
v -0.006599 0.082979 -0.044061
v -0.025674 0.085028 -0.039037
v -0.013126 0.078305 -0.047375
v 0.001777 0.096616 -0.026372
v 0.000035 0.084243 -0.041971
v -0.030163 0.076266 -0.044502
v -0.020219 0.069047 -0.050800
v -0.007120 0.065499 -0.053242
v -0.005749 0.049473 -0.055229
v 0.002189 0.062233 -0.052875
v 0.006080 0.078498 -0.043282
v 0.022010 0.081557 -0.028468
v -0.008253 0.096513 -0.028197
v -0.025488 0.088940 -0.029479
v -0.008875 0.035962 -0.053029
v 0.018596 0.042177 -0.045626
v -0.034596 0.050956 -0.048000
v -0.020428 0.035613 -0.050014
v -0.000269 0.031547 -0.049837
v 0.025820 0.058555 -0.040254
v 0.029432 0.073089 -0.025525
v 0.015150 0.088537 -0.007668
v -0.033992 0.079576 0.002309
v -0.044679 0.052284 -0.031049
v 0.008335 0.028042 -0.042606
v 0.018153 0.033580 -0.039439
v -0.005803 0.086709 0.011872
v -0.004552 0.093489 -0.004768
v 0.005287 0.093644 -0.008661
v -0.015206 0.092517 -0.002697
v -0.031674 0.038576 -0.043697
v 0.014329 0.069099 0.019208
v -0.045813 0.060987 -0.000622
v -0.046380 0.039455 -0.005711
v -0.040591 0.031067 -0.014296
v -0.035627 0.023827 -0.006193
v 0.018285 0.027212 0.005241
v 0.030131 0.056643 -0.002280
v 0.024393 0.063394 0.008471
v 0.004203 0.069655 0.029655
v -0.036243 0.050960 0.039778
v -0.043810 0.040490 0.030455
v -0.003102 0.015113 -0.016628
v 0.006847 0.017309 -0.014508
v -0.006300 0.061539 0.043744
v -0.031152 0.060017 0.039511
v -0.029333 0.040726 0.053731
v -0.036977 0.032422 0.045585
v -0.043970 0.032287 0.022076
v -0.039263 0.023875 0.014342
v -0.001739 0.012678 0.004704
v 0.009299 0.056112 0.037211
v -0.013984 0.051747 0.053107
v -0.024160 0.013341 0.031309
v -0.023307 0.012916 0.014283
v 0.001743 0.015556 0.023570
v 0.006724 0.031214 0.043893
v 0.001989 0.045807 0.049472
v -0.017240 0.028531 0.057176
v -0.029619 0.018031 0.039206
v -0.027557 0.026287 0.054157
v -0.019745 0.014335 0.043276
v 0.004253 0.021812 0.037955
v -0.018582 0.075744 -0.048518
v -0.004798 0.086956 -0.041302
v -0.022858 0.061387 -0.052104
v -0.000004 0.046635 -0.054641
v 0.008001 0.094795 -0.024908
v -0.022769 0.091943 -0.026028
v -0.032952 0.057192 -0.049992
v -0.015244 0.038023 -0.053239
v -0.004334 0.097826 -0.025035
v -0.038864 0.076401 -0.005718
v 0.029943 0.057940 -0.035022
v 0.020565 0.083969 -0.008143
v -0.001492 0.095479 -0.010611
v -0.007964 0.091644 0.001436
v -0.027936 0.082538 0.007559
v -0.024923 0.024890 -0.033145
v 0.001926 0.027261 -0.045292
v 0.020067 0.071243 0.008815
v -0.007779 0.080308 0.022910
v -0.044019 0.036362 -0.014549
v -0.035956 0.026237 -0.015402
v -0.035356 0.021418 0.003913
v 0.013214 0.021526 -0.019254
v 0.020856 0.028323 -0.005483
v 0.015889 0.026686 0.015888
v -0.021484 0.075179 0.028443
v -0.024526 0.014373 0.003606
v -0.006010 0.017997 -0.026712
v -0.041484 0.026779 0.023017
v -0.018821 0.050451 0.054390
v -0.021239 0.011830 0.023303
v -0.002625 0.012902 0.017880
v 0.010647 0.037700 0.040717
v -0.023660 0.038863 0.058069
v -0.032999 0.027171 0.049207
v -0.034448 0.022397 0.038955
v 0.003232 0.025628 0.044696
v -0.011362 0.029926 0.056480
v -0.014245 0.014508 0.044521
v -0.007973 0.078965 -0.046705
v -0.025766 0.080665 -0.043782
v -0.028006 0.087045 -0.032599
v -0.034065 0.070860 -0.045033
v -0.014299 0.058455 -0.053471
v -0.012555 0.048854 -0.055042
v 0.005310 0.053691 -0.052700
v 0.011800 0.076508 -0.042085
v 0.003669 0.078703 -0.044287
v 0.015564 0.085390 -0.031492
v -0.011341 0.094299 -0.032338
v -0.038049 0.080708 -0.027122
v -0.040141 0.071120 -0.036747
v 0.015651 0.048544 -0.048382
v 0.020588 0.059897 -0.044357
v 0.026396 0.078878 -0.024071
v -0.002366 0.035734 -0.052915
v 0.021301 0.037787 -0.040514
v 0.010899 0.092507 -0.010922
v -0.042652 0.064847 0.007322
v -0.045778 0.058283 -0.029618
v -0.035717 0.044498 -0.043718
v -0.025960 0.033894 -0.044967
v 0.014338 0.028815 -0.038102
v 0.029812 0.044898 -0.030711
v 0.032091 0.067733 -0.025385
v -0.021998 0.091619 -0.007055
v -0.042734 0.045607 -0.031532
v 0.030533 0.043055 -0.014615
v -0.047585 0.056592 -0.007141
v -0.047268 0.043649 0.003193
v 0.032721 0.057324 -0.010293
v 0.026740 0.055539 0.007832
v 0.009638 0.065550 0.028835
v -0.002246 0.069726 0.033802
v -0.036134 0.057853 0.034779
v -0.034977 0.044159 0.045586
v -0.040345 0.038634 0.039454
v -0.045366 0.038656 0.022025
v -0.016817 0.017436 -0.021241
v -0.008752 0.053534 0.050952
v -0.026236 0.061773 0.042573
v 0.000409 0.014112 -0.008798
v 0.005381 0.018978 0.028306
v 0.019618 0.039308 0.024427
v -0.024899 0.014764 0.038794
v 0.007332 0.048260 0.043859
v -0.002927 0.043247 0.053911
v -0.022276 0.028625 0.057481
v -0.010776 0.011509 0.029140
v -0.008353 0.022625 0.050671
vn -0.1890 0.7253 -0.6620
vn -0.0248 0.5172 -0.8555
vn -0.1077 0.4473 -0.8879
vn -0.2033 0.5310 -0.8226
vn -0.0460 0.3530 -0.9345
vn -0.1247 0.2844 -0.9505
vn -0.3148 0.3245 -0.8919
vn 0.2663 0.7510 -0.6042
vn 0.2766 0.5766 -0.7687
vn 0.1072 0.6218 -0.7758
vn -0.0200 0.7674 -0.6408
vn 0.2192 0.5021 -0.8365
vn 0.0640 0.5587 -0.8269
vn -0.1338 0.1422 -0.9808
vn -0.2780 0.0732 -0.9578
vn -0.1458 0.1218 -0.9818
vn -0.3860 -0.1967 -0.9013
vn 0.0062 -0.1558 -0.9878
vn 0.0462 0.0437 -0.9980
vn 0.2306 -0.0187 -0.9729
vn 0.2373 -0.2134 -0.9477
vn 0.0526 0.1018 -0.9934
vn 0.2914 -0.0023 -0.9566
vn 0.4318 -0.3536 -0.8298
vn 0.2378 0.9669 0.0926
vn 0.4830 0.8755 0.0159
vn 0.4302 0.8619 -0.2683
vn 0.2334 0.9228 -0.3066
vn 0.6509 0.7553 -0.0760
vn 0.5118 0.7499 -0.4192
vn -0.4444 0.8545 -0.2691
vn -0.4743 0.8486 -0.2342
vn -0.3521 0.8724 -0.3389
vn -0.6462 0.7592 0.0775
vn -0.4861 0.8735 0.0254
vn -0.2355 0.9699 0.0614
vn -0.8342 0.0078 -0.5514
vn -0.5993 0.2129 -0.7717
vn -0.5369 0.0349 -0.8430
vn -0.6491 -0.1844 -0.7381
vn -0.1727 -0.7824 -0.5983
vn -0.3577 -0.5313 -0.7679
vn -0.2041 -0.4186 -0.8849
vn -0.0722 -0.4853 -0.8713
vn -0.1951 -0.1376 -0.9711
vn -0.0995 0.9455 -0.3099
vn 0.0111 0.9789 -0.2039
vn -0.0042 0.9934 0.1147
vn -0.6606 0.6457 0.3830
vn -0.6968 0.6677 0.2622
vn -0.8226 0.5421 0.1717
vn -0.8452 0.4985 0.1930
vn -0.8299 0.5558 0.0493
vn -0.9347 0.3534 -0.0387
vn 0.6821 0.4200 -0.5986
vn 0.9023 0.1952 -0.3845
vn 0.8690 0.0647 -0.4906
vn 0.7201 0.1162 -0.6841
vn 0.9914 -0.0753 -0.1067
vn 0.9142 -0.1332 -0.3827
vn 0.7484 -0.1399 -0.6483
vn 0.8866 0.3917 0.2458
vn 0.7916 0.6054 0.0833
vn 0.7022 0.6414 0.3089
vn 0.7114 0.5611 0.4232
vn 0.5593 0.7631 0.3239
vn 0.4238 0.7676 0.4808
vn 0.0660 0.9364 0.3448
vn 0.0660 0.9479 0.3115
vn 0.2576 0.9026 0.3448
vn -0.2025 0.9283 0.3117
vn 0.0517 0.9280 0.3689
vn -0.2151 0.8772 0.4293
vn 0.1141 0.8769 0.4669
vn -0.4357 0.7936 0.4248
vn -0.5178 0.7868 0.3360
vn -0.4858 0.8216 0.2983
vn -0.2690 -0.8850 -0.3801
vn -0.4521 -0.7875 -0.4188
vn -0.4638 -0.7260 -0.5078
vn -0.4698 -0.8510 -0.2348
vn -0.5777 -0.7546 -0.3112
vn -0.7157 -0.5819 -0.3862
vn 0.4067 -0.7089 -0.5763
vn 0.2025 -0.7530 -0.6261
vn 0.1576 -0.6245 -0.7650
vn 0.2898 -0.8990 -0.3283
vn 0.0406 -0.8865 -0.4610
vn 0.7273 0.5064 0.4632
vn 0.8488 0.3230 0.4185
vn 0.6759 0.5303 0.5118
vn 0.8335 0.2267 0.5039
vn -0.0083 0.7203 0.6936
vn 0.2423 0.7586 0.6049
vn 0.1165 0.8287 0.5474
vn -0.0773 0.8150 0.5744
vn -0.8825 -0.4669 -0.0562
vn -0.9527 -0.2962 -0.0678
vn -0.8839 -0.4275 -0.1896
vn -0.7871 -0.5847 -0.1963
vn -0.9794 -0.1561 -0.1278
vn -0.8779 -0.3934 -0.2731
vn -0.6718 -0.7094 -0.2129
vn -0.6730 -0.7228 -0.1573
vn -0.6738 -0.7284 -0.1242
vn -0.7587 -0.6502 -0.0388
vn -0.5398 -0.8331 -0.1207
vn -0.5966 -0.8017 0.0368
vn 0.5687 -0.7751 -0.2753
vn 0.5588 -0.8166 -0.1444
vn 0.4151 -0.9004 -0.1302
vn 0.7730 -0.6118 -0.1675
vn 0.6753 -0.7372 -0.0234
vn 0.5670 -0.8222 0.0507
vn 0.8581 -0.5097 0.0618
vn 0.7771 -0.6240 0.0821
vn 0.9225 -0.3106 0.2293
vn 0.7750 -0.6182 0.1311
vn 0.7755 -0.6065 0.1753
vn 0.7043 -0.6844 0.1887
vn 0.8618 -0.4205 0.2835
vn 0.8078 -0.4648 0.3626
vn -0.3777 0.7298 0.5699
vn -0.3310 0.7795 0.5318
vn -0.3747 -0.9195 -0.1188
vn -0.3505 -0.9347 -0.0592
vn -0.2617 -0.9436 -0.2031
vn -0.0416 -0.9945 -0.0961
vn 0.0755 -0.9709 -0.2271
vn -0.0400 -0.9419 -0.3336
vn -0.1054 -0.9454 -0.3083
vn -0.9075 -0.2948 0.2993
vn -0.9400 -0.3289 0.0907
vn -0.8363 -0.5422 0.0812
vn -0.7927 -0.5820 0.1812
vn 0.1519 0.1239 0.9806
vn 0.1117 0.5180 0.8481
vn -0.0958 0.4958 0.8632
vn -0.1663 0.3421 0.9248
vn -0.2640 0.6023 0.7533
vn -0.5605 0.4256 0.7105
vn -0.3055 -0.9522 0.0044
vn -0.3873 -0.9168 0.0969
vn -0.0292 -0.9993 0.0227
vn -0.1013 -0.9807 0.1670
vn 0.4576 -0.8088 0.3693
vn 0.2677 -0.9595 0.0878
vn 0.3002 -0.9516 0.0664
vn 0.4819 -0.8620 0.1572
vn 0.2727 -0.9619 -0.0196
vn 0.6186 -0.1829 0.7641
vn 0.7568 -0.2988 0.5813
vn 0.8258 -0.1350 0.5476
vn 0.7793 0.0629 0.6235
vn 0.8750 -0.1414 0.4631
vn -0.6862 -0.0393 0.7263
vn -0.2277 -0.0631 0.9717
vn -0.3462 0.1545 0.9254
vn -0.6430 0.2066 0.7374
vn -0.2318 -0.7227 0.6512
vn -0.4843 -0.4725 0.7363
vn -0.7120 -0.4435 0.5445
vn -0.7090 -0.5775 0.4048
vn -0.8470 -0.1280 0.5160
vn -0.5727 -0.7653 0.2938
vn -0.7131 -0.6358 0.2953
vn 0.6482 -0.6622 0.3760
vn 0.6463 -0.5131 0.5649
vn 0.5140 -0.5330 0.6721
vn 0.4182 -0.0884 0.9041
vn 0.2920 -0.3763 0.8793
vn 0.2963 -0.5157 0.8039
vn 0.1029 -0.4232 0.9002
vn 0.2203 -0.7282 0.6491
vn 0.1243 -0.8710 0.4753
vn 0.2418 -0.9318 0.2707
vn -0.2093 -0.8857 0.4145
vn 0.0771 0.5253 -0.8474
vn 0.1245 0.4876 -0.8642
vn -0.6181 0.6247 -0.4771
vn -0.3576 0.7738 -0.5228
vn -0.3483 0.6085 -0.7130
vn -0.4849 0.5009 -0.7169
vn -0.4178 0.8568 -0.3023
vn -0.6087 0.7699 -0.1916
vn -0.6169 0.3738 -0.6926
vn -0.7464 0.3736 -0.5507
vn -0.1598 0.0974 -0.9823
vn -0.1587 0.1723 -0.9722
vn -0.1486 0.2146 -0.9653
vn -0.1172 0.0484 -0.9919
vn 0.4209 0.2484 -0.8724
vn 0.4094 0.0133 -0.9123
vn 0.3170 0.0558 -0.9468
vn 0.3005 0.0972 -0.9488
vn 0.4967 0.3518 -0.7934
vn 0.4209 0.4983 -0.7580
vn 0.4697 0.5892 -0.6575
vn 0.4041 0.5261 -0.7483
vn 0.3649 0.5191 -0.7729
vn 0.4642 0.4595 -0.7572
vn 0.5529 0.6724 -0.4921
vn 0.6737 0.6266 -0.3917
vn -0.1673 0.8853 -0.4339
vn -0.8274 0.4864 -0.2807
vn -0.7889 0.5993 -0.1359
vn -0.8385 0.3635 -0.4060
vn -0.9171 0.1998 -0.3451
vn 0.5092 -0.0230 -0.8604
vn 0.5985 -0.2673 -0.7552
vn 0.5381 0.0773 -0.8393
vn 0.5684 0.1703 -0.8050
vn 0.8617 0.4596 -0.2149
vn 0.8108 0.5545 -0.1876
vn 0.1021 -0.4607 -0.8816
vn 0.6219 -0.5982 -0.5054
vn 0.6819 -0.4857 -0.5469
vn 0.8062 -0.4431 -0.3920
vn 0.4495 0.8554 0.2574
vn -0.9402 0.2255 0.2553
vn -0.8233 0.4647 0.3258
vn -0.8565 0.4671 0.2196
vn -0.9394 0.3187 0.1265
vn -0.9912 0.1006 -0.0856
vn -0.9662 0.0564 -0.2516
vn -0.9328 -0.1458 -0.3297
vn -0.7168 -0.3668 -0.5930
vn -0.8210 -0.3418 -0.4574
vn -0.6252 -0.4959 -0.6026
vn -0.5021 -0.5965 -0.6261
vn 0.5543 -0.6920 -0.4625
vn 0.9022 -0.3268 -0.2814
vn 0.9275 -0.3605 -0.0987
vn 0.9301 0.3164 -0.1864
vn 0.9782 0.1966 0.0664
vn -0.4335 0.8684 0.2407
vn -0.8791 -0.3157 -0.3571
vn 0.9258 -0.3766 0.0319
vn 0.9710 -0.1888 0.1465
vn -0.9903 0.1360 0.0282
vn -0.9972 0.0394 0.0637
vn -0.9922 -0.0975 0.0782
vn -0.9909 -0.1226 0.0549
vn 0.9469 0.0744 0.3129
vn 0.9746 0.0496 0.2186
vn 0.9316 0.0886 0.3526
vn 0.9257 -0.0331 0.3768
vn 0.6390 0.5298 0.5577
vn 0.6753 0.4155 0.6093
vn 0.4764 0.6521 0.5897
vn 0.4801 0.5187 0.7074
vn 0.3102 0.6952 0.6485
vn 0.2663 0.6410 0.7198
vn -0.7777 0.4435 0.4455
vn -0.6368 0.5465 0.5439
vn -0.7993 0.3375 0.4972
vn -0.8386 0.2185 0.4990
vn -0.7888 0.2411 0.5654
vn -0.8895 0.0962 0.4466
vn -0.9514 0.0554 0.3030
vn -0.9880 -0.0967 0.1204
vn -0.1903 -0.9385 -0.2880
vn 0.2320 0.5468 0.8045
vn 0.3398 0.4089 0.8470
vn -0.4146 0.6540 0.6328
vn 0.2603 -0.9598 -0.1046
vn 0.6338 -0.7367 0.2358
vn 0.8994 -0.1708 0.4023
vn -0.4267 -0.8669 0.2576
vn 0.6875 0.2677 0.6750
vn 0.6040 0.2405 0.7598
vn 0.4875 0.2008 0.8497
vn -0.1943 -0.3571 0.9137
vn 0.2339 -0.9648 0.1202
vn 0.3408 -0.5756 0.7433
vt 0.656711 0.212240
vt 0.764993 0.267951
vt 0.734434 0.277146
vt 0.686201 0.264604
vt 0.816731 0.308772
vt 0.750688 0.305035
vt 0.693818 0.311741
vt 0.592544 0.134446
vt 0.746115 0.200043
vt 0.732471 0.206894
vt 0.643824 0.176582
vt 0.846491 0.253629
vt 0.780650 0.238475
vt 0.715501 0.312211
vt 0.765596 0.305359
vt 0.749563 0.350558
vt 0.716071 0.366883
vt 0.773401 0.373864
vt 0.730666 0.439039
vt 0.837567 0.499335
vt 0.856908 0.468641
vt 0.881888 0.503485
vt 0.873409 0.535194
vt 0.885168 0.401379
vt 0.901922 0.497527
vt 0.932569 0.580973
vt 0.399278 0.094539
vt 0.311571 0.073161
vt 0.314311 0.048716
vt 0.339433 0.050296
vt 0.363285 0.082431
vt 0.307824 0.026272
vt 0.325204 0.001297
vt 0.593344 0.212381
vt 0.505432 0.244881
vt 0.477681 0.232436
vt 0.509820 0.209626
vt 0.469232 0.276240
vt 0.427915 0.236911
vt 0.414408 0.193437
vt 0.645833 0.346322
vt 0.670393 0.333163
vt 0.684077 0.370886
vt 0.672186 0.406744
vt 0.769314 0.568849
vt 0.746660 0.505095
vt 0.782446 0.500481
vt 0.813244 0.526902
vt 0.792740 0.473511
vt 0.630875 0.161084
vt 0.532777 0.175286
vt 0.484731 0.152684
vt 0.524430 0.130692
vt 0.396948 0.148293
vt 0.342213 0.336677
vt 0.394540 0.307871
vt 0.432860 0.328381
vt 0.426366 0.352288
vt 0.473037 0.318980
vt 0.504596 0.361240
vt 0.900475 0.493991
vt 0.929638 0.644188
vt 0.938685 0.667732
vt 0.926427 0.588971
vt 0.984143 0.843902
vt 0.971046 0.779882
vt 0.960706 0.691363
vt 0.273954 0.050238
vt 0.300542 0.068109
vt 0.243702 0.063690
vt 0.213983 0.068565
vt 0.263877 0.084171
vt 0.238191 0.135986
vt 0.320050 0.165800
vt 0.331909 0.144419
vt 0.303027 0.117858
vt 0.346913 0.211461
vt 0.311386 0.187289
vt 0.306856 0.234420
vt 0.274393 0.192196
vt 0.316934 0.281671
vt 0.357976 0.282741
vt 0.370629 0.257803
vt 0.710724 0.591464
vt 0.694535 0.564493
vt 0.705470 0.539556
vt 0.654984 0.602581
vt 0.655102 0.561950
vt 0.642066 0.512852
vt 0.858100 0.640344
vt 0.833809 0.613322
vt 0.844195 0.581619
vt 0.809143 0.674732
vt 0.794536 0.624623
vt 0.794537 0.624622
vt 0.172680 0.071355
vt 0.150677 0.048470
vt 0.160342 0.103827
vt 0.093265 0.084856
vt 0.218304 0.337358
vt 0.222345 0.210977
vt 0.249545 0.215663
vt 0.260484 0.253993
vt 0.531936 0.539319
vt 0.535214 0.495851
vt 0.572289 0.506546
vt 0.590840 0.531803
vt 0.544642 0.454060
vt 0.589624 0.483488
vt 0.615043 0.557239
vt 0.598127 0.575858
vt 0.579060 0.597107
vt 0.534430 0.589771
vt 0.603811 0.625403
vt 0.598127 0.575859
vt 0.547206 0.653186
vt 0.848313 0.709699
vt 0.824846 0.736049
vt 0.791779 0.727737
vt 0.889648 0.755464
vt 0.837324 0.771313
vt 0.785211 0.792271
vt 0.894241 0.817766
vt 0.857078 0.806921
vt 0.914230 0.885247
vt 0.844200 0.833821
vt 0.834675 0.863594
vt 0.800782 0.863107
vt 0.859005 0.897925
vt 0.840404 0.944416
vt 0.274970 0.316135
vt 0.280835 0.281944
vt 0.630235 0.654640
vt 0.616473 0.688496
vt 0.671567 0.651593
vt 0.672045 0.755952
vt 0.751968 0.690201
vt 0.757977 0.649280
vt 0.731348 0.641135
vt 0.386757 0.601204
vt 0.465652 0.548290
vt 0.489673 0.580065
vt 0.475443 0.613698
vt 0.141031 0.374847
vt 0.170850 0.339445
vt 0.179252 0.387243
vt 0.163522 0.437453
vt 0.202921 0.388015
vt 0.191673 0.482829
vt 0.614292 0.727653
vt 0.580210 0.735036
vt 0.651292 0.770982
vt 0.619690 0.813893
vt 0.580209 0.735037
vt 0.670144 0.909001
vt 0.694081 0.813592
vt 0.719187 0.800036
vt 0.737275 0.837633
vt 0.733878 0.758237
vt 0.634262 0.978542
vt 0.717466 0.958035
vt 0.755852 0.973593
vt 0.723198 0.995352
vt 0.847688 0.966365
vt 0.867551 1.001335
vt 0.347463 0.676414
vt 0.351194 0.784281
vt 0.311385 0.750702
vt 0.295538 0.677183
vt 0.333442 0.869218
vt 0.285390 0.771234
vt 0.231931 0.648458
vt 0.519946 0.819959
vt 0.415580 0.745190
vt 0.415854 0.684509
vt 0.446482 0.676870
vt 0.378175 0.633257
vt 0.514484 0.712059
vt 0.476084 0.663059
vt 0.740801 0.909774
vt 0.695430 0.938794
vt 0.634389 0.945063
vt 0.431395 0.935972
vt 0.375644 0.923159
vt 0.413255 0.882168
vt 0.458749 0.877548
vt 0.410225 0.842763
vt 0.410226 0.842764
vt 0.545051 0.886719
vt 0.520462 0.841213
vt 0.552206 0.831540
vt 0.583348 0.853092
vt 0.554291 0.798228
vt 0.808232 0.265528
vt 0.858209 0.287205
vt 0.536098 0.255212
vt 0.608108 0.237068
vt 0.635628 0.259378
vt 0.614813 0.281846
vt 0.614814 0.281845
vt 0.515397 0.249539
vt 0.486451 0.266781
vt 0.552980 0.231602
vt 0.522439 0.248169
vt 0.610455 0.308601
vt 0.579194 0.314707
vt 0.655487 0.332839
vt 0.807876 0.425831
vt 0.807522 0.390797
vt 0.851103 0.363120
vt 0.818001 0.454007
vt 0.951964 0.408167
vt 0.935959 0.504494
vt 0.918330 0.476114
vt 0.918720 0.412819
vt 0.901921 0.497527
vt 0.789856 0.329871
vt 0.870911 0.369019
vt 0.783103 0.293340
vt 0.702080 0.239047
vt 0.796085 0.281694
vt 0.679575 0.189549
vt 0.825623 0.273264
vt 0.765860 0.208931
vt 0.934691 0.338904
vt 0.917419 0.269640
vt 0.557531 0.165584
vt 0.460408 0.124007
vt 0.528010 0.185362
vt 0.295683 0.021075
vt 0.266163 0.040854
vt 0.639359 0.188563
vt 0.563333 0.191639
vt 0.522873 0.313423
vt 0.494681 0.301891
vt 0.485789 0.270406
vt 0.554770 0.329910
vt 0.564819 0.363380
vt 0.950204 0.624373
vt 0.951816 0.660251
vt 0.938163 0.671839
vt 0.980454 0.647928
vt 0.969796 0.686889
vt 0.965454 0.731323
vt 0.954957 0.562015
vt 0.927960 0.522487
vt 0.913549 0.426322
vt 0.499478 0.167576
vt 0.428221 0.129551
vt 0.540150 0.190560
vt 0.846806 0.550564
vt 0.899862 0.683431
vt 0.921492 0.697174
vt 0.929032 0.738984
vt 0.286962 0.092465
vt 0.409781 0.452332
vt 0.373876 0.388864
vt 0.419409 0.379041
vt 0.457725 0.399707
vt 0.528719 0.409528
vt 0.561892 0.397551
vt 0.584406 0.418504
vt 0.660123 0.445710
vt 0.632468 0.445498
vt 0.682718 0.480364
vt 0.711104 0.509986
vt 0.870597 0.677483
vt 0.969431 0.783083
vt 0.943632 0.774973
vt 0.966471 0.829550
vt 0.933978 0.799894
vt 0.933977 0.799895
vt 0.316959 0.063844
vt 0.325649 0.082880
vt 0.471736 0.241466
vt 0.540436 0.311242
vt 0.334338 0.101916
vt 0.549125 0.330278
vt 0.763913 0.558639
vt 0.380000 0.235891
vt 0.602351 0.450219
vt 0.925121 0.826479
vt 0.943599 0.859935
vt 0.490585 0.419252
vt 0.484948 0.448725
vt 0.468890 0.492406
vt 0.495923 0.516278
vt 0.323033 0.213603
vt 0.581280 0.496212
vt 0.563851 0.471941
vt 0.426013 0.318500
vt 0.839526 0.778822
vt 0.684258 0.601110
vt 0.528992 0.423398
vt 0.103950 0.010377
vt 0.156524 0.007830
vt 0.129056 0.030246
vt 0.095046 0.046150
vt 0.146871 0.130732
vt 0.103355 0.128449
vt 0.173153 0.160467
vt 0.120569 0.174974
vt 0.189935 0.199899
vt 0.170770 0.239856
vt 0.335346 0.402381
vt 0.302285 0.379202
vt 0.337144 0.451090
vt 0.272580 0.448532
vt 0.369428 0.547886
vt 0.340353 0.520280
vt 0.347775 0.631206
vt 0.310693 0.558932
vt 0.375104 0.622901
vt 0.385234 0.562388
vt 0.408994 0.522458
vt 0.445815 0.513354
vt 0.708624 0.628035
vt 0.156090 0.285742
vt 0.127971 0.283526
vt 0.271428 0.349978
vt 0.241278 0.362935
vt 0.757061 0.722534
vt 0.762514 0.869753
vt 0.869496 0.920414
vt 0.854089 0.944170
vt 0.893913 0.918250
vt 0.880352 0.956946
vt 0.854088 0.944169
vt 0.548796 0.749659
vt 0.015583 0.094312
vt 0.068077 0.134643
vt 0.148369 0.234889
vt 0.162269 0.264845
vt 0.214762 0.305177
vt 0.308955 0.435379
vt 0.127028 0.286397
vt 0.187669 0.336058
vt 0.133486 0.397821
vt 0.221221 0.416600
vt 0.395347 0.797123
vt 0.684674 0.828429
vt 0.677654 0.795749
vt 0.682152 0.884876
vt 0.694080 0.813591
vt 0.674372 0.868997
vt 0.508499 0.876850
vt 0.517837 0.917422
vt 0.559554 0.839121
vt 0.623234 0.882534
s 1
usemtl Material.004
f 1/1/1 125/2/2 186/3/3 50/4/4
f 7/5/5 129/6/6 186/3/3 125/2/2
f 6/7/7 50/4/4 186/3/3 129/6/6
f 4/8/8 127/9/9 187/10/10 52/11/11
f 3/12/12 123/13/13 187/10/10 127/9/9
f 1/1/1 52/11/11 187/10/10 123/13/13
f 6/14/7 129/15/6 188/16/14 54/17/15
f 7/5/5 55/18/16 188/16/14 129/15/6
f 12/19/17 54/17/15 188/16/14 55/18/16
f 13/20/18 131/21/19 189/22/20 122/23/21
f 8/24/22 57/25/23 189/22/20 131/21/19
f 14/26/24 122/23/21 189/22/20 57/25/23
f 10/27/25 61/28/26 190/29/27 126/30/28
f 9/31/29 121/32/30 190/29/27 61/28/26
f 4/33/8 126/30/28 190/29/27 121/32/30
f 1/34/1 136/35/31 191/36/32 62/37/33
f 17/38/34 71/39/35 191/36/32 136/35/31
f 21/40/36 62/37/33 191/36/32 71/39/35
f 18/41/37 64/42/38 192/43/39 139/44/40
f 6/14/7 54/17/15 192/43/39 64/42/38
f 12/19/17 139/44/40 192/43/39 54/17/15
f 27/45/41 140/46/42 193/47/43 137/48/44
f 12/19/17 119/49/45 193/47/43 140/46/42
f 13/20/18 137/48/44 193/47/43 119/49/45
f 4/50/8 135/51/46 194/52/47 126/53/28
f 21/40/36 70/54/48 194/52/47 135/51/46
f 10/27/25 126/53/28 194/52/47 70/54/48
f 30/55/49 145/56/50 195/57/51 117/58/52
f 17/38/34 66/59/53 195/57/51 145/56/50
f 11/60/54 117/58/52 195/57/51 66/59/53
f 15/61/55 72/62/56 196/63/57 142/64/58
f 25/65/59 68/66/60 196/63/57 72/62/56
f 16/67/61 142/64/58 196/63/57 68/66/60
f 19/68/62 69/69/63 197/70/64 79/71/65
f 9/31/29 144/72/66 197/70/64 69/69/63
f 20/73/67 79/71/65 197/70/64 144/72/66
f 21/40/36 150/74/68 198/75/69 70/54/48
f 20/73/67 151/76/70 198/75/69 150/74/68
f 10/27/25 70/54/48 198/75/69 151/76/70
f 21/40/36 152/77/71 199/78/72 150/74/68
f 29/79/73 149/80/74 199/78/72 152/77/71
f 20/73/67 150/74/68 199/78/72 149/80/74
f 30/55/49 112/81/75 200/82/76 145/56/50
f 29/79/73 73/83/77 200/82/76 112/81/75
f 17/38/34 145/56/50 200/82/76 73/83/77
f 27/45/41 111/84/78 201/85/79 115/86/80
f 26/87/81 75/88/82 201/85/79 111/84/78
f 23/89/83 115/86/80 201/85/79 75/88/82
f 14/26/24 147/90/84 202/91/85 141/92/86
f 34/93/87 90/94/88 202/91/85 147/90/84
f 27/45/41 141/92/86 202/91/85 90/95/88
f 19/68/62 79/71/65 203/96/89 161/97/90
f 20/73/67 154/98/91 203/96/89 79/71/65
f 35/99/92 161/97/90 203/96/89 154/98/91
f 36/100/93 113/101/94 204/102/95 86/103/96
f 20/73/67 149/80/74 204/102/95 113/101/94
f 29/79/73 86/103/96 204/102/95 149/80/74
f 39/104/97 156/105/98 205/106/99 157/107/100
f 22/108/101 82/109/102 205/106/99 156/105/98
f 23/89/83 157/107/100 205/106/99 82/109/102
f 23/89/83 75/88/82 206/110/103 157/107/100
f 26/87/81 158/111/104 206/110/103 75/88/82
f 39/104/97 157/107/100 206/110/103 158/111/104
f 39/104/97 158/111/104 207/112/105 172/113/106
f 26/87/81 83/114/107 207/112/105 158/115/104
f 42/116/108 172/113/106 207/112/105 83/114/107
f 34/93/87 84/117/109 208/118/110 166/119/111
f 24/120/112 85/121/113 208/118/110 84/117/109
f 40/122/114 166/119/111 208/118/110 85/121/113
f 24/120/112 76/123/115 209/124/116 85/121/113
f 28/125/117 159/126/118 209/124/116 76/123/115
f 40/122/114 85/121/113 209/124/116 159/126/118
f 40/122/114 159/126/118 210/127/119 91/128/120
f 28/125/117 92/129/121 210/127/119 159/126/118
f 43/130/122 91/128/120 210/127/119 92/129/121
f 30/55/49 94/131/123 211/132/124 112/81/75
f 36/100/93 86/103/96 211/132/124 94/131/123
f 29/79/73 112/81/75 211/132/124 86/103/96
f 42/116/108 83/114/107 212/133/125 177/134/126
f 26/87/81 88/135/127 212/133/125 83/114/107
f 33/136/128 177/134/126 212/133/125 88/135/127
f 34/93/87 165/137/129 213/138/130 90/95/88
f 33/136/128 89/139/131 213/138/130 165/137/129
f 27/45/41 90/94/88 213/138/130 89/139/131
f 32/140/132 171/141/133 214/142/134 96/143/135
f 39/104/97 172/113/106 214/142/134 171/141/133
f 42/116/108 96/143/135 214/142/134 172/113/106
f 45/144/136 175/145/137 215/146/138 103/147/139
f 36/100/93 95/148/140 215/146/138 175/145/137
f 37/149/141 103/147/139 215/146/138 95/148/140
f 42/116/108 177/134/126 216/150/142 176/151/143
f 33/136/128 104/152/144 216/150/142 177/134/126
f 47/153/145 176/154/143 216/150/142 104/152/144
f 48/155/146 98/156/147 217/157/148 178/158/149
f 33/136/128 173/159/150 217/157/148 98/156/147
f 40/122/114 178/158/149 217/157/148 173/159/150
f 44/160/151 179/161/152 218/162/153 100/163/154
f 43/130/122 99/164/155 218/162/153 179/161/152
f 35/165/92 100/163/154 218/162/153 99/164/155
f 38/166/156 102/167/157 219/168/158 169/169/159
f 45/170/136 103/171/139 219/168/158 102/167/157
f 37/172/141 169/169/159 219/168/158 103/171/139
f 46/173/160 183/174/161 220/175/162 109/176/163
f 38/166/156 170/177/164 220/175/162 183/174/161
f 32/140/132 109/176/163 220/175/162 170/177/164
f 42/116/108 182/178/165 221/179/166 96/143/135
f 46/173/160 109/176/163 221/179/166 182/178/165
f 32/140/132 96/143/135 221/179/166 109/176/163
f 48/155/146 185/180/167 222/181/168 107/182/169
f 43/130/122 179/161/152 222/181/168 185/180/167
f 44/160/151 107/182/169 222/181/168 179/161/152
f 44/183/151 101/184/170 223/185/171 108/186/172
f 45/170/136 181/187/173 223/185/171 101/184/170
f 46/173/160 108/186/172 223/185/171 181/188/173
f 48/189/146 106/190/174 224/191/175 105/192/176
f 46/173/160 184/193/177 224/191/175 106/190/174
f 47/153/145 105/192/176 224/191/175 184/193/177
f 1/1/1 123/13/13 225/194/178 125/2/2
f 3/12/12 49/195/179 225/194/178 123/13/13
f 7/5/5 125/2/2 225/194/178 49/195/179
f 5/196/180 124/197/181 226/198/182 128/199/183
f 1/1/1 50/4/4 226/198/182 124/197/181
f 6/7/7 128/200/183 226/198/182 50/4/4
f 17/38/34 136/35/31 227/201/184 53/202/185
f 1/34/1 124/203/181 227/201/184 136/35/31
f 5/204/180 53/202/185 227/201/184 124/203/181
f 5/196/180 128/199/183 228/205/186 120/206/187
f 6/7/7 64/207/38 228/205/186 128/200/183
f 18/41/37 120/206/187 228/205/186 64/207/38
f 8/24/22 56/208/188 229/209/189 130/210/190
f 12/19/17 55/18/16 229/209/189 56/208/188
f 7/5/5 130/210/190 229/209/189 55/18/16
f 12/19/17 56/208/188 230/211/191 119/49/45
f 8/24/22 131/21/19 230/211/191 56/208/188
f 13/20/18 119/49/45 230/211/191 131/21/19
f 2/212/192 58/213/193 231/214/194 132/215/195
f 14/26/24 57/216/23 231/214/194 58/213/193
f 8/24/22 132/215/195 231/214/194 57/216/23
f 15/217/55 59/218/196 232/219/197 60/220/198
f 2/212/192 133/221/199 232/219/197 59/218/196
f 4/222/8 60/220/198 232/219/197 133/221/199
f 4/222/8 133/221/199 233/223/200 127/224/9
f 2/212/192 51/225/201 233/223/200 133/221/199
f 3/226/12 127/224/9 233/223/200 51/225/201
f 15/217/55 60/227/198 234/228/202 134/229/203
f 4/33/8 121/230/30 234/228/202 60/227/198
f 9/231/29 134/229/203 234/228/202 121/230/30
f 4/50/8 52/232/11 235/233/204 135/51/46
f 1/34/1 62/37/33 235/233/204 52/232/11
f 21/40/36 135/51/46 235/233/204 62/37/33
f 5/196/180 63/234/205 236/235/206 53/236/185
f 11/60/54 66/59/53 236/235/206 63/234/205
f 17/38/34 53/236/185 236/235/206 66/59/53
f 11/60/54 63/234/205 237/237/207 67/238/208
f 5/196/180 120/206/187 237/237/207 63/234/205
f 18/41/37 67/238/208 237/237/207 120/206/187
f 14/26/24 58/239/193 238/240/209 138/241/210
f 2/242/192 65/243/211 238/240/209 58/239/193
f 16/244/61 138/241/210 238/240/209 65/243/211
f 16/67/61 65/245/211 239/246/212 142/64/58
f 2/212/192 59/247/196 239/246/212 65/245/211
f 15/61/55 142/64/58 239/246/212 59/247/196
f 19/68/62 143/248/213 240/249/214 69/69/63
f 15/217/55 134/250/203 240/249/214 143/248/213
f 9/31/29 69/69/63 240/249/214 134/250/203
f 13/20/18 122/23/21 241/251/215 137/48/44
f 14/26/24 141/92/86 241/251/215 122/23/21
f 27/45/41 137/48/44 241/251/215 141/92/86
f 24/120/112 148/252/216 242/253/217 118/254/218
f 14/26/24 138/241/210 242/253/217 148/252/216
f 16/244/61 118/254/218 242/253/217 138/241/210
f 20/73/67 144/72/66 243/255/219 151/76/70
f 9/31/29 61/28/26 243/255/219 144/72/66
f 10/27/25 151/76/70 243/255/219 61/28/26
f 31/256/220 80/257/221 244/258/222 155/259/223
f 30/55/49 117/58/52 244/258/222 80/257/221
f 11/60/54 155/259/223 244/258/222 117/58/52
f 22/108/101 74/260/224 245/261/225 146/262/226
f 11/60/54 67/238/208 245/261/225 74/260/224
f 18/41/37 146/262/226 245/261/225 67/238/208
f 18/41/37 139/44/40 246/263/227 116/264/228
f 12/19/17 153/265/229 246/263/227 139/44/40
f 23/89/83 116/264/228 246/263/227 153/265/229
f 27/45/41 115/86/80 247/266/230 140/46/42
f 23/89/83 153/265/229 247/266/230 115/86/80
f 12/19/17 140/46/42 247/266/230 153/265/229
f 34/93/87 147/90/84 248/267/231 84/117/109
f 14/26/24 148/252/216 248/267/231 147/90/84
f 24/120/112 84/117/109 248/267/231 148/252/216
f 16/244/61 68/268/60 249/269/232 118/254/218
f 25/270/59 114/271/233 249/269/232 68/268/60
f 24/120/112 118/254/218 249/269/232 114/272/233
f 15/273/55 143/274/213 250/275/234 72/276/56
f 19/277/62 78/278/235 250/275/234 143/274/213
f 25/279/59 72/276/56 250/275/234 78/278/235
f 21/40/36 71/39/35 251/280/236 152/77/71
f 17/38/34 73/83/77 251/280/236 71/39/35
f 29/79/73 152/77/71 251/280/236 73/83/77
f 18/41/37 116/264/228 252/281/237 146/262/226
f 23/89/83 82/109/102 252/281/237 116/264/228
f 22/108/101 146/262/226 252/281/237 82/109/102
f 28/125/117 76/123/115 253/282/238 77/283/239
f 24/120/112 114/271/233 253/282/238 76/123/115
f 25/270/59 77/283/239 253/282/238 114/271/233
f 31/256/220 155/259/223 254/284/240 81/285/241
f 11/60/54 74/260/224 254/284/240 155/259/223
f 22/108/101 81/285/241 254/284/240 74/260/224
f 39/104/97 110/286/242 255/287/243 156/105/98
f 31/256/220 81/285/241 255/287/243 110/286/242
f 22/108/101 156/105/98 255/287/243 81/285/241
f 19/288/62 160/289/244 256/290/245 78/291/235
f 28/292/117 77/293/239 256/290/245 160/289/244
f 25/294/59 78/291/235 256/290/245 77/293/239
f 28/295/117 160/296/244 257/297/246 93/298/247
f 19/68/62 161/97/90 257/297/246 160/296/244
f 35/99/92 93/298/247 257/297/246 161/97/90
f 35/99/92 154/98/91 258/299/248 174/300/249
f 20/73/67 162/301/250 258/299/248 154/98/91
f 41/302/251 174/300/249 258/299/248 162/301/250
f 20/73/67 113/101/94 259/303/252 162/301/250
f 36/100/93 167/304/253 259/303/252 113/101/94
f 41/302/251 162/301/250 259/303/252 167/304/253
f 30/55/49 80/257/221 260/305/254 168/306/255
f 31/256/220 163/307/256 260/305/254 80/257/221
f 37/308/141 168/306/255 260/305/254 163/307/256
f 31/256/220 87/309/257 261/310/258 163/307/256
f 38/311/156 169/312/159 261/310/258 87/309/257
f 37/308/141 163/307/256 261/310/258 169/312/159
f 32/140/132 170/313/164 262/314/259 164/315/260
f 38/311/156 87/309/257 262/314/259 170/313/164
f 31/256/220 164/315/260 262/314/259 87/309/257
f 32/140/132 164/315/260 263/316/261 171/141/133
f 31/256/220 110/286/242 263/316/261 164/315/260
f 39/104/97 171/141/133 263/316/261 110/286/242
f 27/45/41 89/139/131 264/317/262 111/84/78
f 33/136/128 88/135/127 264/317/262 89/139/131
f 26/87/81 111/84/78 264/317/262 88/135/127
f 36/100/93 175/145/137 265/318/263 167/304/253
f 45/144/136 97/319/264 265/318/263 175/145/137
f 41/302/251 167/304/253 265/318/263 97/319/264
f 36/100/93 94/131/123 266/320/265 95/321/140
f 30/55/49 168/306/255 266/320/265 94/131/123
f 37/308/141 95/321/140 266/320/265 168/306/255
f 34/93/87 166/119/111 267/322/266 165/137/129
f 40/122/114 173/159/150 267/322/266 166/119/111
f 33/136/128 165/137/129 267/322/266 173/159/150
f 40/122/114 91/128/120 268/323/267 178/158/149
f 43/130/122 185/180/167 268/323/267 91/128/120
f 48/155/146 178/158/149 268/323/267 185/180/167
f 43/130/122 92/129/121 269/324/268 99/325/155
f 28/125/117 93/326/247 269/324/268 92/129/121
f 35/327/92 99/328/155 269/324/268 93/326/247
f 47/153/145 184/193/177 270/329/269 176/154/143
f 46/173/160 182/178/165 270/329/269 184/193/177
f 42/116/108 176/154/143 270/329/269 182/178/165
f 35/330/92 174/331/249 271/332/270 100/333/154
f 41/302/251 180/334/271 271/332/270 174/331/249
f 44/335/151 100/333/154 271/332/270 180/334/271
f 41/302/251 97/336/264 272/337/272 180/334/271
f 45/338/136 101/339/170 272/337/272 97/336/264
f 44/335/151 180/334/271 272/337/272 101/339/170
f 45/170/136 102/167/157 273/340/273 181/187/173
f 38/166/156 183/174/161 273/340/273 102/167/157
f 46/173/160 181/187/173 273/340/273 183/174/161
f 33/136/128 98/156/147 274/341/274 104/342/144
f 48/155/146 105/343/176 274/341/274 98/344/147
f 47/345/145 104/342/144 274/341/274 105/343/176
f 44/183/151 108/186/172 275/346/275 107/347/169
f 46/173/160 106/348/174 275/346/275 108/186/172
f 48/349/146 107/347/169 275/346/275 106/348/174
