# Blender 4.5.3 LTS
# www.blender.org
mtllib cucumber_right.mtl
o cucumber
v -0.059158 0.060306 -0.057529
v -0.049316 0.071230 -0.051211
v -0.046450 0.076691 -0.044583
v -0.014963 0.079739 -0.042227
v -0.022277 0.017950 -0.064133
v -0.059367 0.057974 -0.086811
v -0.008274 0.073446 -0.054311
v -0.001292 0.071159 -0.058031
v 0.003519 0.051523 -0.057206
v -0.046973 0.071870 -0.012527
v -0.039292 0.076833 -0.024108
v -0.028723 0.080182 -0.028031
v -0.020596 0.080118 -0.007147
v -0.009769 0.078099 -0.024086
v -0.001394 0.063671 -0.019636
v 0.005880 0.055217 -0.022781
v 0.003070 0.038521 -0.013328
v -0.012061 0.018979 -0.037563
v -0.024140 0.011674 -0.017023
v -0.030298 0.014881 -0.045239
v -0.039943 0.017414 -0.034070
v -0.056012 0.033554 -0.033900
v 0.005782 0.056265 -0.115036
v -0.007132 0.102347 -0.125790
v -0.004171 0.095471 -0.122429
v 0.002188 0.088381 -0.118140
v 0.005382 0.067665 -0.124479
v -0.055994 0.082287 -0.132552
v -0.014929 0.044912 -0.133789
v -0.059766 0.072170 -0.116575
v -0.050693 0.083665 -0.092708
v -0.042606 0.083134 -0.081813
v -0.039154 0.086487 -0.078777
v -0.027116 0.082748 -0.069222
v -0.003337 0.074793 -0.077892
v 0.002784 0.071019 -0.084743
v 0.003843 0.051908 -0.101574
v -0.002550 0.034329 -0.088379
v -0.058019 0.043842 -0.093090
v -0.057607 0.050225 -0.113161
v -0.059935 0.049028 -0.045341
v -0.048061 0.095434 -0.136919
v -0.011207 0.089831 -0.146689
v -0.015969 0.078677 -0.151471
v -0.032617 0.070707 -0.152360
v -0.045648 0.072632 -0.146860
v -0.037618 0.104992 -0.133014
v -0.061187 0.080753 -0.119543
v 0.006880 0.057975 -0.093037
v -0.005558 0.045575 -0.124861
v -0.034723 0.034948 -0.121233
v -0.045942 0.042727 -0.125427
v -0.042687 0.073599 -0.008203
v -0.052204 0.065306 -0.025330
v -0.062558 0.055698 -0.043391
v -0.018673 0.077087 -0.026717
v 0.000525 0.032330 -0.037677
v -0.007343 0.018694 -0.045117
v -0.026500 0.012157 -0.048238
v -0.062230 0.042091 -0.040299
v -0.035318 0.082101 -0.054278
v 0.007916 0.061896 -0.049271
v -0.057732 0.043054 -0.074594
v -0.023187 0.081368 -0.060942
v -0.056986 0.064215 -0.127696
v -0.032401 0.050137 -0.139894
v -0.029572 0.107024 -0.117233
v -0.017286 0.106247 -0.122895
v -0.051221 0.095057 -0.127006
v -0.039767 0.105519 -0.121876
v -0.000488 0.091179 -0.129383
v 0.002573 0.075011 -0.134612
v -0.051745 0.091688 -0.112366
v -0.056159 0.084578 -0.118858
v -0.054110 0.076864 -0.092267
v 0.003124 0.066131 -0.089309
v 0.003826 0.059864 -0.076673
v 0.002138 0.042087 -0.081305
v -0.058606 0.065392 -0.093689
v -0.016685 0.085879 -0.079895
v -0.015574 0.027437 -0.100482
v -0.035485 0.022322 -0.087323
v -0.000027 0.064745 -0.053647
v -0.042863 0.079358 -0.064995
v -0.053254 0.071046 -0.071063
v -0.024129 0.108461 -0.130457
v -0.035649 0.097122 -0.148322
v -0.033251 0.091968 -0.152057
v -0.049321 0.024026 -0.036956
v -0.030978 0.077195 -0.017779
v -0.006646 0.084478 -0.079623
v -0.013104 0.103684 -0.135577
v -0.032741 0.100388 -0.107757
v -0.048030 0.029288 -0.087631
v -0.008820 0.024019 -0.066570
v -0.061252 0.064310 -0.078161
v -0.030054 0.099644 -0.148022
v -0.057645 0.040893 -0.005133
v -0.058128 0.053576 -0.005531
v -0.050862 0.026509 -0.004688
v -0.054139 0.031161 -0.004831
v -0.043152 0.019970 -0.004490
v -0.048534 0.023779 -0.004604
v -0.022934 0.014014 -0.004323
v -0.023299 0.014884 -0.004350
v -0.013930 0.018672 -0.004478
v -0.021175 0.015399 -0.004368
v -0.010133 0.018603 -0.004479
v -0.006502 0.022668 -0.004611
v -0.000582 0.031705 -0.004900
v -0.006135 0.023057 -0.004623
v 0.001455 0.060371 -0.005803
v 0.005306 0.055898 -0.005666
v -0.001881 0.064061 -0.005916
v -0.003107 0.069362 -0.006081
v -0.032581 0.076913 -0.006289
v -0.030390 0.078210 -0.006332
v -0.028777 0.080468 -0.006405
v -0.041856 0.073910 -0.006186
v -0.037056 0.076660 -0.006277
v -0.047369 0.071193 -0.006095
v -0.047696 0.072418 -0.006133
v -0.056807 0.056283 -0.005617
v -0.052391 0.065479 -0.005911
v -0.003362 0.069910 -0.006098
v -0.003206 0.069855 -0.006096
v -0.006375 0.022797 -0.004615
v -0.006360 0.022681 -0.004611
v -0.058427 0.054284 -0.005553
v -0.058019 0.054623 -0.005564
v 0.003201 0.051696 -0.005532
v 0.003049 0.040712 -0.005187
v -0.022470 0.015110 -0.004358
v -0.057294 0.039484 -0.005089
v -0.057875 0.040360 -0.005116
v -0.050638 0.066895 -0.005957
v -0.043637 0.073568 -0.006173
v -0.042737 0.073752 -0.006180
v -0.031537 0.016089 -0.004379
v -0.037682 0.017542 -0.004419
v 0.002765 0.038273 -0.005110
v 0.000429 0.033587 -0.004960
v 0.003587 0.038645 -0.005122
v 0.003112 0.039378 -0.005145
v 0.005025 0.054232 -0.005614
v -0.008570 0.074955 -0.006251
v -0.013446 0.078795 -0.006367
v -0.020399 0.080082 -0.006401
v -0.020627 0.080087 -0.006401
v -0.008350 0.074333 -0.006232
vn -0.6441 0.1776 0.7440
vn -0.7188 -0.1375 0.6815
vn -0.9962 -0.0874 -0.0058
vn -0.4593 -0.5370 0.7076
vn -0.3692 -0.9267 -0.0706
vn -0.0794 -0.9915 0.1029
vn -0.0386 -0.8547 0.5177
vn 0.2176 -0.7358 0.6413
vn 0.2168 -0.6639 0.7157
vn 0.2193 -0.9750 -0.0367
vn 0.2758 -0.7042 0.6542
vn 0.3016 -0.6671 0.6812
vn 0.6191 -0.3202 0.7170
vn 0.5639 -0.4443 0.6962
vn 0.8681 -0.4955 -0.0280
vn 0.7475 0.1494 0.6473
vn 0.9968 -0.0738 0.0317
vn 0.8683 0.4932 0.0537
vn 0.4925 0.4537 0.7427
vn 0.6737 0.3229 0.6647
vn 0.6609 0.1594 0.7334
vn -0.2166 0.7447 0.6312
vn -0.4963 0.5638 0.6602
vn -0.5026 0.8638 0.0340
vn -0.7378 0.2445 0.6291
vn -0.7098 0.3991 0.5804
vn -0.6825 0.7308 -0.0060
vn -0.5772 0.3971 0.7136
vn -0.6057 0.4236 0.6735
vn -0.8037 0.5929 0.0507
vn 0.3005 0.9538 -0.0027
vn 0.2984 0.9504 0.0874
vn 0.0362 0.9926 0.1162
vn 0.5993 0.5026 0.6231
vn 0.7739 0.6265 0.0927
vn 0.6211 0.7814 0.0603
vn 0.3279 0.6420 0.6930
vn 0.9120 0.4091 -0.0295
vn 0.8346 0.5498 0.0332
vn 0.9773 -0.2114 -0.0169
vn 0.6339 -0.7638 -0.1217
vn 0.7918 -0.5924 -0.1488
vn 0.5894 -0.4942 0.6390
vn 0.6988 -0.7127 -0.0608
vn 0.7651 -0.1960 0.6133
vn 0.0356 -0.9938 -0.1049
vn 0.2579 -0.9538 -0.1540
vn -0.4126 -0.9107 -0.0197
vn -0.2689 -0.9391 -0.2139
vn -0.6665 -0.7270 -0.1652
vn -0.7090 -0.7038 -0.0449
vn -0.8323 -0.5531 0.0363
vn -0.9736 -0.2151 -0.0759
vn -0.9917 -0.1241 -0.0330
vn -0.9906 -0.1286 -0.0456
vn -0.9517 -0.2646 -0.1554
vn 0.3667 -0.8871 -0.2802
vn 0.9546 -0.2916 -0.0614
vn 0.9063 -0.4207 -0.0398
vn 0.9808 0.1922 0.0319
vn 0.9654 0.2397 0.1023
vn 0.7345 0.6483 0.2004
vn -0.2053 0.9696 0.1333
vn 0.0796 0.9779 0.1935
vn -0.4833 0.8256 0.2913
vn -0.9290 0.3669 0.0486
vn -0.9607 0.2770 -0.0180
vn -0.7449 0.6564 0.1196
vn -0.9890 0.1462 0.0214
vn -0.7648 0.6404 0.0706
vn -0.6934 0.7204 0.0157
vn -0.3101 0.9422 0.1267
vn 0.1286 0.9912 -0.0326
vn 0.6308 0.7758 -0.0139
vn 0.6698 0.0295 0.7419
vn 0.9753 -0.2208 -0.0047
vn 0.7143 -0.1652 0.6800
vn 0.4800 -0.6394 0.6007
vn -0.2059 0.7654 0.6097
vn -0.1833 0.7458 0.6404
vn -0.3421 0.9387 0.0425
vn -0.1985 -0.6917 0.6944
vn -0.5049 0.5484 0.6666
vn -0.5151 0.4916 0.7021
vn -0.7801 0.1855 0.5976
vn -0.7851 -0.0337 0.6184
vn -0.6783 -0.2909 0.6747
vn -0.6760 -0.3474 0.6499
vn -0.5644 -0.4568 0.6876
vn -0.5348 -0.5202 0.6659
vn -0.3904 -0.5746 0.7193
vn -0.2518 -0.6822 0.6865
vn 0.6145 -0.3331 0.7152
vn 0.5218 -0.5538 0.6488
vn 0.8297 -0.2272 0.5099
vn 0.7073 0.2866 0.6462
vn 0.7302 -0.3124 0.6076
vn 0.6132 0.4065 0.6773
vn 0.6458 0.4005 0.6501
vn 0.2671 0.7650 0.5860
vn 0.0512 0.7968 0.6021
vn 0.0506 0.7178 0.6944
vn -0.3156 0.7331 0.6025
vn -0.1804 0.7132 0.6774
vn -0.2904 0.6701 0.6831
vn -0.9340 0.3556 -0.0352
vn -0.8463 0.4741 0.2428
vn -0.8226 0.5675 0.0349
vn -0.7434 0.6088 0.2770
vn -0.7943 0.5785 0.1854
vn -0.5287 0.8109 0.2508
vn -0.4835 0.8753 0.0105
vn 0.9939 -0.0113 -0.1093
vn 0.9120 0.4099 0.0147
vn 0.9830 0.1674 0.0749
vn 0.9769 -0.1640 -0.1367
vn 0.7275 -0.5810 -0.3649
vn 0.3632 -0.7038 -0.6105
vn -0.6760 -0.1388 -0.7237
vn -0.9282 -0.1981 -0.3150
vn -0.8769 0.3868 -0.2853
vn 0.8283 0.5322 -0.1753
vn -0.3227 0.9220 -0.2138
vn -0.1158 0.9756 0.1863
vn 0.0754 0.9881 -0.1344
vn -0.8020 0.5937 -0.0659
vn 0.4150 0.8727 -0.2572
vn 0.3338 0.9384 0.0894
vn 0.6984 0.7139 -0.0515
vn 0.6209 0.3950 -0.6771
vn 0.9511 0.1093 -0.2888
vn 0.4343 -0.0936 -0.8959
vn -0.1336 -0.3025 -0.9438
vn -0.1725 -0.6310 -0.7564
vn -0.7009 0.6374 -0.3202
vn -0.2047 -0.8744 -0.4398
vn -0.6090 -0.6684 -0.4270
vn -0.0694 0.8929 0.4449
vn 0.1991 0.9322 0.3023
vn 0.9935 -0.0940 0.0647
vn -0.9865 -0.1276 -0.1025
vn -0.9854 -0.1700 -0.0000
vn -0.2662 0.9568 0.1167
vn -0.9141 0.3991 0.0714
vn -0.2583 0.2816 -0.9241
vn -0.4648 0.6404 -0.6114
vn -0.0498 0.8008 -0.5969
vn -0.5755 0.8041 0.1490
vn 0.6989 0.6689 0.2531
vn 0.7986 0.5587 0.2237
vt 0.322254 0.193077
vt 0.378718 0.226717
vt 0.345033 0.267969
vt 0.057078 0.500183
vt 0.020135 0.462248
vt 0.050145 0.492649
vt 0.058327 0.501353
vt 0.098487 0.487572
vt 0.066091 0.498079
vt 0.098928 0.452764
vt 0.110539 0.483380
vt 0.130054 0.474018
vt 0.166901 0.457351
vt 0.132093 0.473136
vt 0.168990 0.422778
vt 0.796930 0.350182
vt 0.794356 0.327585
vt 0.830580 0.312671
vt 0.816134 0.339748
vt 0.837662 0.328911
vt 0.862758 0.310457
vt 0.559619 0.286348
vt 0.571840 0.288822
vt 0.566746 0.302004
vt 0.482915 0.274516
vt 0.483854 0.275052
vt 0.487010 0.284590
vt 0.393086 0.234129
vt 0.437755 0.259399
vt 0.436349 0.284951
vt 0.955627 0.278139
vt 0.935477 0.247034
vt 0.978135 0.231609
vt 0.865131 0.308911
vt 0.853190 0.245877
vt 0.897288 0.254324
vt 0.866118 0.308999
vt 0.799465 0.284397
vt 0.831505 0.270397
vt 0.263798 0.377278
vt 0.240431 0.341511
vt 0.275624 0.317956
vt 0.117510 0.411763
vt 0.155764 0.363915
vt 0.130663 0.474002
vt 0.117541 0.447232
vt 0.130771 0.473666
vt 0.037740 0.462911
vt 0.060520 0.431954
vt 0.000478 0.459421
vt 0.007936 0.390530
vt 0.637132 0.358510
vt 0.640429 0.286380
vt 0.690403 0.373954
vt 0.689467 0.306011
vt 0.736625 0.327185
vt 0.761559 0.416502
vt 0.755469 0.394647
vt 0.317273 0.289800
vt 0.381404 0.340614
vt 0.318689 0.307128
vt 0.363923 0.370413
vt 0.092004 0.361959
vt 0.194002 0.346732
vt 0.213684 0.293883
vt 0.260561 0.288764
vt 0.843741 0.210906
vt 0.876176 0.212659
vt 0.552555 0.361624
vt 0.591618 0.381900
vt 0.549888 0.412492
vt 0.407829 0.372117
vt 0.401941 0.346819
vt 0.445684 0.355808
vt 0.374340 0.283963
vt 0.465944 0.328030
vt 0.495157 0.336975
vt 0.526449 0.307966
vt 0.969431 0.296186
vt 0.913912 0.275068
vt 0.211225 0.439270
vt 0.202127 0.434996
vt 0.249830 0.407637
vt 0.061309 0.499234
vt 0.503539 0.277738
vt 0.508164 0.279321
vt 0.508033 0.281232
vt 0.027201 0.511223
vt 0.450980 0.263636
vt 0.383964 0.229411
vt 0.381746 0.228724
vt 0.755528 0.303498
vt 0.753282 0.303150
vt 0.727766 0.286518
vt 0.704902 0.274241
vt 0.687861 0.268083
vt 0.659598 0.258559
vt 0.636668 0.251697
vt 0.175156 0.453344
vt 0.200616 0.443803
vt 0.203105 0.443367
vt 0.204995 0.442442
vt 0.261937 0.401661
vt 0.896296 0.306975
vt 0.898914 0.305079
vt 0.929918 0.299921
vt 0.968167 0.297360
vt 0.610266 0.297894
vt 0.583431 0.295712
vt 0.538099 0.285036
vt 0.512439 0.279311
vt 0.443974 0.433456
vt 0.455170 0.398537
vt 0.461239 0.442234
vt 0.485385 0.417353
vt 0.486110 0.457656
vt 0.525682 0.402719
vt 0.529597 0.505297
vt 0.851090 0.159484
vt 0.883419 0.126317
vt 0.830492 0.210762
vt 0.246210 0.207248
vt 0.265660 0.251739
vt 0.227831 0.261314
vt 0.160790 0.280182
vt 0.105906 0.256178
vt 0.757717 0.600445
vt 0.782074 0.536145
vt 0.787151 0.594032
vt 0.267121 0.117171
vt 0.271771 0.148587
vt 0.526859 0.517769
vt 0.560091 0.520876
vt 0.565982 0.544404
vt 0.449729 0.453709
vt 0.487910 0.475243
vt 0.951334 0.073690
vt 0.971323 0.076358
vt 0.935473 0.087916
vt 0.219657 0.070901
vt 0.243509 0.161211
vt 0.173803 0.104236
vt 0.114678 0.116475
vt 0.056370 0.212656
vt 0.447956 0.490244
vt 0.488027 0.489872
vt 0.671337 0.524885
vt 0.649880 0.432518
vt 0.709070 0.460497
vt 0.026345 0.299494
vt 0.592278 0.509796
vt 0.552715 0.482384
vt 0.999497 0.113107
vt 0.947209 0.181889
vt 0.241972 0.274003
vt 0.419845 0.413407
vt 0.319524 0.244958
vt 0.812215 0.254164
vt 0.582183 0.325521
vt 0.398361 0.312696
vt 0.733843 0.686991
vt 0.757848 0.670933
vt 0.893346 0.108346
vt 0.507711 0.532332
vt 0.714091 0.644083
vt 0.526829 0.548009
vt 0.135676 0.025774
vt 0.271723 0.399787
vt 0.510014 0.362624
vt 0.606791 0.365668
vt 0.298688 0.249138
vt 0.908256 0.184632
vt 0.986349 0.202077
vt 0.610253 0.298926
vt 0.917418 0.105828
vt 0.764119 0.466998
vt 0.403691 0.420875
vt 0.987829 0.057799
vt 0.992666 0.069859
vt 0.916686 0.068504
vt 0.978357 0.022676
vt 0.946388 0.035053
vt 0.151837 0.003737
vt 0.486151 0.533997
vt 0.969507 0.297005
vt 0.613812 0.263517
vt 0.620260 0.230629
vt 0.758206 0.336166
vt 0.320218 0.191827
s 1
usemtl Material.009
f 98/1/1 99/2/2 41/3/3
f 105/4/4 20/5/5 19/6/6 104/7/7
f 106/8/8 107/9/9 18/10/10
f 108/11/11 18/10/10 109/12/12
f 110/13/13 111/14/14 57/15/15
f 113/16/16 16/17/17 15/18/18 112/19/19
f 114/20/20 15/18/18 115/21/21
f 116/22/22 117/23/23 90/24/24
f 121/25/25 122/26/26 10/27/27
f 123/28/28 124/29/29 54/30/30
f 56/31/31 4/32/32 64/33/33
f 126/34/34 8/35/35 7/36/36 125/37/37
f 15/18/18 62/38/38 83/39/39
f 16/40/17 9/41/40 62/42/38
f 57/15/15 95/43/41 38/44/42
f 128/45/43 58/46/44 95/43/41 127/47/45
f 59/48/46 20/5/5 5/49/47
f 20/5/5 21/50/48 82/51/49
f 82/52/49 21/53/48 94/54/50
f 89/55/51 22/56/52 39/57/53
f 39/57/53 22/56/52 63/58/54
f 63/59/54 41/3/3 6/60/55
f 39/61/53 63/59/54 40/62/56
f 5/49/47 82/51/49 81/63/57
f 78/64/58 38/44/42 37/65/59
f 9/41/40 37/65/59 77/66/60
f 8/35/35 36/67/61 35/68/62
f 61/69/63 34/70/64 33/71/65
f 79/72/66 96/73/67 85/74/68
f 41/3/3 55/75/69 6/60/55
f 2/76/70 10/27/27 3/77/71
f 11/78/72 90/24/24 61/69/63
f 13/79/73 56/31/31 64/33/33
f 56/31/31 14/80/74 4/32/32
f 15/18/18 16/17/17 62/38/38
f 132/81/75 17/82/76 9/41/40 131/83/77
f 133/84/78 5/49/47 18/10/10 107/9/9
f 137/85/79 138/86/80 53/87/81
f 105/4/4 139/88/82 20/5/5
f 136/89/83 124/29/29 123/28/28 130/90/84 129/91/85 99/2/2 98/1/1 135/92/86 134/93/87 101/94/88 100/95/89 103/96/90 102/97/91 140/98/92 139/88/82 105/4/4 104/7/7 133/84/78 107/9/9 106/8/8 108/11/11 109/12/12 128/45/43 127/47/45 111/14/14 110/13/13 142/99/93 141/100/94 143/101/95 144/102/96 132/81/75 131/83/77 145/103/97 113/16/16 112/19/19 114/20/20 115/21/21 126/34/34 125/37/37 150/104/98 146/105/99 147/106/100 148/107/101 149/108/102 118/109/103 117/23/23 116/22/22 120/110/104 119/111/105 138/86/80 137/85/79 122/26/26 121/25/25
f 48/112/106 75/113/107 74/114/108
f 74/114/108 31/115/109 73/116/110
f 32/117/111 33/71/65 70/118/112
f 27/119/113 26/120/114 76/121/115
f 27/122/113 76/123/115 23/124/116
f 50/125/117 23/124/116 37/65/59
f 50/125/117 37/65/59 38/44/42
f 29/126/118 50/125/117 81/63/57
f 46/127/119 65/128/120 28/129/121
f 71/130/122 26/131/114 27/122/113
f 47/132/123 67/133/124 86/134/125
f 70/118/112 67/133/124 47/132/123
f 28/135/121 74/114/108 69/136/126
f 92/137/127 68/138/128 24/139/129
f 43/140/130 71/130/122 72/141/131
f 44/142/132 72/141/131 29/126/118
f 45/143/133 29/126/118 66/144/134
f 46/145/119 28/135/121 42/146/135
f 66/147/134 51/148/136 52/149/137
f 66/144/134 29/126/118 51/150/136
f 72/141/131 27/122/113 50/125/117
f 68/151/128 93/152/138 34/70/64
f 68/138/128 34/153/64 80/154/139
f 73/116/110 32/117/111 70/118/112
f 6/60/55 96/73/67 79/72/66
f 79/72/66 85/74/68 75/113/107
f 33/71/65 34/70/64 93/152/138
f 49/155/140 23/124/116 76/123/115
f 38/44/42 81/63/57 50/125/117
f 51/148/136 82/52/49 52/149/137
f 40/62/56 63/59/54 30/156/141
f 63/59/54 60/157/142 41/3/3
f 18/10/10 5/49/47 95/43/41
f 57/15/15 38/44/42 78/64/58
f 9/41/40 78/64/58 37/65/59
f 62/42/38 9/41/40 77/66/60
f 83/39/39 77/158/60 76/121/115
f 7/36/36 8/35/35 35/68/62
f 4/32/32 80/154/139 64/33/33
f 61/69/63 12/159/143 34/70/64
f 1/160/144 54/30/30 96/73/67
f 88/161/145 46/127/119 87/162/146
f 92/137/127 24/139/129 71/163/122
f 87/164/146 42/146/135 47/132/123
f 45/165/133 46/127/119 88/161/145
f 87/164/146 47/132/123 97/166/147
f 88/167/145 43/140/130 44/142/132
f 142/99/93 110/13/13 57/15/15
f 143/101/95 141/100/94 17/82/76
f 132/81/75 144/102/96 17/82/76
f 144/102/96 143/101/95 17/82/76
f 113/168/16 145/103/97 16/40/17
f 114/20/20 112/19/19 15/18/18
f 146/105/99 14/80/74 147/106/100
f 147/106/100 14/80/74 56/31/31 13/79/73 148/107/101
f 85/74/68 54/30/30 2/76/70
f 84/169/148 3/77/71 11/78/72
f 84/169/148 11/78/72 61/69/63
f 61/69/63 90/24/24 12/159/143
f 34/70/64 12/159/143 64/170/33
f 4/32/32 14/80/74 7/36/36
f 61/69/63 33/71/65 32/117/111 84/169/148
f 9/41/40 17/82/76 78/64/58
f 17/82/76 57/15/15 78/64/58
f 95/43/41 58/46/44 18/10/10
f 94/54/50 21/53/48 89/55/51
f 63/59/54 22/171/52 60/157/142
f 95/43/41 5/49/47 81/63/57
f 38/44/42 95/43/41 81/63/57
f 77/66/60 37/65/59 49/155/140
f 76/123/115 77/66/60 49/155/140
f 8/35/35 76/121/115 36/67/61
f 7/36/36 35/68/62 91/172/149
f 80/154/139 7/36/36 91/172/149
f 34/173/64 64/33/33 80/154/139
f 11/78/72 3/77/71 10/27/27 53/87/81
f 31/115/109 84/169/148 32/117/111
f 75/113/107 85/74/68 84/169/148
f 31/115/109 75/113/107 84/169/148
f 96/73/67 6/60/55 1/160/144
f 2/76/70 54/30/30 10/27/27
f 12/159/143 13/174/73 64/170/33
f 150/104/98 125/37/37 7/36/36
f 109/12/12 18/10/10 58/46/44 128/45/43
f 59/48/46 19/6/6 20/5/5
f 35/68/62 36/67/61 26/120/114 25/175/150
f 30/156/141 6/60/55 79/72/66
f 30/156/141 79/72/66 48/112/106
f 73/116/110 31/115/109 32/117/111
f 70/118/112 33/71/65 93/152/138
f 24/139/129 68/138/128 80/154/139
f 25/175/150 24/139/129 80/154/139
f 39/57/53 40/176/56 52/149/137 94/54/50
f 76/121/115 26/120/114 36/67/61
f 51/150/136 29/126/118 81/63/57
f 30/156/141 48/112/106 28/135/121 65/177/120
f 70/118/112 47/132/123 42/146/135 69/136/126
f 46/127/119 52/149/137 65/128/120
f 46/127/119 66/147/134 52/149/137
f 29/126/118 72/141/131 50/125/117
f 72/141/131 71/130/122 27/122/113
f 71/163/122 25/175/150 26/120/114
f 68/138/128 86/178/125 67/179/124
f 70/118/112 93/152/138 67/133/124
f 69/136/126 73/116/110 70/118/112
f 28/135/121 48/112/106 74/114/108
f 42/146/135 28/135/121 69/136/126
f 92/137/127 86/178/125 68/138/128
f 71/163/122 24/139/129 25/175/150
f 44/142/132 43/140/130 72/141/131
f 45/143/133 44/142/132 29/126/118
f 45/165/133 66/147/134 46/127/119
f 65/177/120 40/62/56 30/156/141
f 65/128/120 52/149/137 40/176/56
f 50/125/117 27/122/113 23/124/116
f 68/151/128 67/133/124 93/152/138
f 69/136/126 74/114/108 73/116/110
f 48/112/106 79/72/66 75/113/107
f 74/114/108 75/113/107 31/115/109
f 80/154/139 91/172/149 25/175/150
f 91/172/149 35/68/62 25/175/150
f 49/155/140 37/65/59 23/124/116
f 81/63/57 82/51/49 51/150/136
f 52/149/137 82/52/49 94/54/50
f 30/156/141 63/59/54 6/60/55
f 94/54/50 89/55/51 39/57/53
f 5/49/47 20/5/5 82/51/49
f 8/35/35 83/39/39 76/121/115
f 83/39/39 62/38/38 77/158/60
f 4/32/32 7/36/36 80/154/139
f 85/74/68 2/76/70 84/169/148
f 84/169/148 2/76/70 3/77/71
f 96/73/67 54/30/30 85/74/68
f 6/60/55 55/75/69 1/160/144
f 87/164/146 46/145/119 42/146/135
f 43/180/130 92/137/127 71/163/122
f 92/137/127 97/181/147 86/178/125
f 97/166/147 47/132/123 86/134/125
f 88/167/145 44/142/132 45/143/133
f 43/182/130 97/181/147 92/137/127
f 88/167/145 97/183/147 43/140/130
f 88/184/145 87/164/146 97/166/147
f 13/79/73 149/185/102 148/107/101
f 14/80/74 146/105/99 150/104/98 7/36/36
f 17/82/76 141/100/94 142/99/93 57/15/15
f 20/186/5 139/187/82 140/98/92 21/53/48
f 22/56/52 134/93/87 135/92/86 60/188/142
f 16/40/17 145/103/97 131/83/77 9/41/40
f 55/75/69 129/91/85 130/90/84 1/160/144
f 54/30/30 124/29/29 136/89/83
f 1/160/144 130/90/84 123/28/28 54/30/30
f 10/27/27 122/26/26 137/85/79 53/87/81
f 54/30/30 136/89/83 121/25/25 10/27/27
f 53/87/81 119/111/105 120/110/104 11/78/72
f 53/87/81 138/86/80 119/111/105
f 13/174/73 12/159/143 118/109/103 149/108/102
f 90/24/24 117/23/23 118/109/103 12/159/143
f 11/78/72 120/110/104 116/22/22 90/24/24
f 83/39/39 8/35/35 126/34/34 115/21/21 15/18/18
f 57/15/15 111/14/14 127/47/45 95/43/41
f 18/10/10 108/11/11 106/8/8
f 59/48/46 5/49/47 133/84/78 104/7/7 19/6/6
f 21/53/48 102/97/91 103/96/90 89/55/51
f 21/53/48 140/98/92 102/97/91
f 22/56/52 101/94/88 134/93/87
f 89/55/51 100/95/89 101/94/88 22/56/52
f 89/55/51 103/96/90 100/95/89
f 41/3/3 99/2/2 129/91/85 55/75/69
f 60/157/142 135/189/86 98/1/1 41/3/3
