# Blender 4.5.3 LTS
# www.blender.org
mtllib Banana.mtl
o Banana_Cylinder
v -0.060259 0.037389 0.108326
v -0.059388 0.045026 0.110993
v -0.055841 0.048498 0.117432
v -0.051696 0.045767 0.123869
v -0.049382 0.038438 0.126535
v -0.050254 0.030801 0.123869
v -0.053801 0.027328 0.117432
v -0.057946 0.030057 0.110993
v -0.028584 0.040444 -0.054110
v -0.030854 0.040226 0.061450
v -0.026719 0.063681 0.063151
v -0.025382 0.062351 -0.055229
v -0.007358 0.070197 0.068472
v -0.005849 0.071930 -0.059539
v 0.012893 0.067502 0.073790
v 0.015156 0.066261 -0.063850
v 0.021432 0.045268 0.075492
v 0.022483 0.045369 -0.064970
v 0.017297 0.021813 0.073790
v 0.019279 0.023462 -0.063850
v -0.002066 0.015297 0.068472
v -0.000252 0.013883 -0.059539
v -0.022315 0.017992 0.063151
v -0.021257 0.019552 -0.055229
v -0.017933 0.041471 0.021612
v -0.014546 0.064854 0.022498
v 0.005815 0.072762 0.025822
v 0.027312 0.068891 0.029146
v 0.035102 0.046588 0.030034
v 0.031716 0.023205 0.029146
v 0.011354 0.015297 0.025822
v -0.010142 0.019166 0.022498
v -0.119604 0.028478 0.146993
v -0.120274 0.028413 0.145874
v -0.115598 0.028864 0.153698
v -0.111593 0.029250 0.160406
v -0.110926 0.029315 0.161525
v -0.041748 0.039174 0.082452
v -0.038698 0.060705 0.085793
v -0.023762 0.066208 0.095875
v -0.008050 0.063662 0.105958
v -0.000946 0.043110 0.109298
v -0.003994 0.021580 0.105958
v -0.018929 0.016074 0.095875
v -0.034642 0.018623 0.085793
v -0.048917 0.038483 0.093538
v -0.047218 0.055991 0.097205
v -0.037111 0.059349 0.108499
v -0.026551 0.057983 0.119791
v -0.021538 0.041123 0.123458
v -0.023237 0.023615 0.119791
v -0.033343 0.020255 0.108499
v -0.043906 0.021621 0.097205
v -0.014366 0.064142 -0.022610
v 0.005710 0.073494 -0.023436
v 0.027204 0.068152 -0.024259
v 0.034934 0.046571 -0.024482
v 0.031469 0.023908 -0.024259
v 0.011390 0.014558 -0.023436
v -0.010102 0.019900 -0.022610
v -0.017834 0.041481 -0.022387
v -0.091294 0.028410 0.132516
v -0.099384 0.025842 0.134441
v -0.097394 0.033755 0.130289
v -0.092868 0.034242 0.131042
v -0.099110 0.041200 0.133337
v -0.092438 0.040269 0.132516
v -0.089657 0.042158 0.137683
v -0.093374 0.043826 0.139776
v -0.090686 0.041831 0.148255
v -0.086345 0.040857 0.142718
v -0.085200 0.028998 0.142718
v -0.089162 0.026500 0.148231
v -0.091735 0.024551 0.139906
v -0.088205 0.027088 0.137683
v -0.087650 0.034542 0.149234
v -0.084950 0.035008 0.144300
v -0.030459 0.019373 -0.071818
v -0.038248 0.039512 -0.071798
v -0.007813 0.013884 -0.071877
v 0.013963 0.023237 -0.071933
v 0.017915 0.044928 -0.071943
v 0.009901 0.065467 -0.071923
v -0.013261 0.070485 -0.071862
v -0.034443 0.060769 -0.071807
vn -0.7968 0.2229 -0.5616
vn -0.5321 0.8424 0.0852
vn -0.3078 0.8388 0.4491
vn 0.0544 0.2683 0.9618
vn 0.1047 -0.2529 0.9618
vn -0.1418 -0.8821 0.4492
vn -0.4729 -0.4351 -0.7662
vn -0.3613 -0.9285 0.0852
vn -0.7396 -0.3709 -0.5616
vn -0.6447 -0.6077 -0.4637
vn -0.8264 -0.3174 0.4651
vn -0.8872 -0.0853 -0.4535
vn -0.8933 -0.3443 -0.2888
vn -0.0211 -0.7719 -0.6354
vn -0.2320 -0.9625 0.1404
vn -0.1433 -0.9880 -0.0580
vn 0.4469 -0.4675 -0.7627
vn 0.3847 -0.8932 -0.2328
vn 0.3230 -0.9423 0.0880
vn 0.5289 0.0510 -0.8472
vn 0.8295 -0.1501 -0.5379
vn 0.9426 -0.1673 0.2888
vn 0.3493 0.5444 -0.7626
vn 0.7856 0.3057 -0.5380
vn 0.8933 0.3443 0.2888
vn -0.1682 0.7538 -0.6352
vn 0.2069 0.9503 -0.2328
vn 0.1370 0.9867 0.0880
vn -0.7489 0.4735 -0.4636
vn -0.4117 0.9004 0.1404
vn -0.3296 0.9423 -0.0580
vn -0.8718 0.1537 0.4651
vn -0.9426 0.1673 -0.2889
vn -0.9891 0.1473 -0.0043
vn -0.3926 0.9197 -0.0001
vn 0.2096 0.9778 -0.0005
vn 0.9428 0.3334 -0.0047
vn 0.9891 -0.1471 -0.0047
vn 0.3925 -0.9197 -0.0005
vn -0.2095 -0.9778 -0.0001
vn -0.9427 -0.3335 -0.0043
vn -0.6172 0.3143 -0.7213
vn -0.3980 0.8773 0.2683
vn -0.0517 -0.9832 0.1753
vn 0.3103 0.4084 0.8585
vn -0.1273 -0.9907 0.0483
vn -0.4688 0.8708 0.1479
vn 0.4583 -0.3383 0.8219
vn -0.8244 -0.3535 -0.4420
vn -0.1252 -0.9911 -0.0451
vn 0.2559 -0.9512 0.1726
vn 0.8216 -0.1914 0.5369
vn 0.7700 0.3448 0.5369
vn 0.0693 0.9826 0.1726
vn -0.3123 0.9489 -0.0451
vn -0.8768 0.1896 -0.4420
vn -0.7733 -0.3495 -0.5290
vn -0.2119 -0.9738 0.0821
vn 0.0697 -0.9477 0.3114
vn 0.5617 -0.2119 0.7997
vn 0.5109 0.3153 0.7998
vn -0.1128 0.9436 0.3114
vn -0.3941 0.9154 0.0822
vn -0.8258 0.1954 -0.5290
vn -0.8927 -0.3263 0.3109
vn -0.2391 -0.9665 0.0937
vn 0.4157 -0.9019 -0.1175
vn 0.9458 -0.1502 -0.2879
vn 0.8997 0.3281 -0.2879
vn 0.2357 0.9647 -0.1176
vn -0.4194 0.9029 0.0937
vn -0.9386 0.1498 0.3109
vn 0.4572 -0.2984 0.8378
vn 0.8510 -0.1963 0.4870
vn -0.3106 0.9160 -0.2538
vn 0.1051 0.8983 -0.4266
vn -0.1297 -0.9585 -0.2537
vn 0.2246 -0.8692 -0.4405
vn 0.3917 0.3803 0.8378
vn 0.7814 0.3625 0.5079
vn 0.2055 -0.9261 0.3164
vn 0.2059 -0.9259 0.3168
vn 0.5612 -0.8277 0.0048
vn 0.0252 0.9481 0.3169
vn 0.3653 0.9286 0.0643
vn -0.5586 0.2888 -0.7775
vn 0.0069 0.3188 -0.9478
vn -0.4931 -0.3902 -0.7775
vn 0.0060 -0.3784 -0.9256
vn 0.0061 -0.3784 -0.9256
vt 0.378970 0.769438
vt 0.343943 0.823099
vt 0.314949 0.813600
vt 0.332023 0.741730
vt 0.283908 0.808320
vt 0.292479 0.730246
vt 0.252525 0.806260
vt 0.260123 0.718543
vt 0.222307 0.802838
vt 0.225115 0.717347
vt 0.192026 0.804273
vt 0.190114 0.716270
vt 0.160678 0.804341
vt 0.157071 0.725857
vt 0.484148 0.167283
vt 0.485654 0.143925
vt 0.543974 0.125331
vt 0.544915 0.128530
vt 0.129259 0.807639
vt 0.116837 0.734750
vt 0.099619 0.815271
vt 0.068125 0.759354
vt 0.104337 0.228829
vt 0.090873 0.277422
vt 0.026858 0.259906
vt 0.047459 0.201624
vt 0.073951 0.507750
vt 0.089142 0.627110
vt 0.019539 0.648389
vt 0.000083 0.510660
vt 0.150007 0.263732
vt 0.144405 0.296294
vt 0.133843 0.506349
vt 0.139600 0.610790
vt 0.193929 0.290159
vt 0.192255 0.309807
vt 0.184472 0.506772
vt 0.183369 0.600326
vt 0.238839 0.297579
vt 0.238296 0.314144
vt 0.231951 0.507999
vt 0.229003 0.598190
vt 0.284137 0.293141
vt 0.284520 0.312831
vt 0.279405 0.509875
vt 0.274398 0.603295
vt 0.329693 0.269660
vt 0.333147 0.302480
vt 0.329948 0.512762
vt 0.317385 0.616589
vt 0.377550 0.237815
vt 0.387797 0.287152
vt 0.389615 0.518074
vt 0.366662 0.636166
vt 0.436081 0.214359
vt 0.452819 0.273861
vt 0.463127 0.525810
vt 0.434702 0.661950
vt 0.463127 0.381914
vt 0.392306 0.386704
vt 0.333543 0.393441
vt 0.283299 0.398443
vt 0.235524 0.398792
vt 0.187871 0.395318
vt 0.138057 0.387040
vt 0.079859 0.376473
vt 0.009499 0.367060
vt 0.476720 0.019715
vt 0.484254 0.000083
vt 0.544915 0.039003
vt 0.543925 0.042187
vt 0.464855 0.062281
vt 0.464084 0.038988
vt 0.537985 0.061280
vt 0.532142 0.080403
vt 0.469723 0.125632
vt 0.469133 0.102813
vt 0.532803 0.086932
vt 0.538329 0.106149
vt 0.463293 0.082559
vt 0.531882 0.083727
vt 0.106817 0.694653
vt 0.047557 0.721608
vt 0.150315 0.681027
vt 0.187017 0.671856
vt 0.226623 0.671126
vt 0.266098 0.674427
vt 0.302122 0.685963
vt 0.344625 0.702390
vt 0.401956 0.733149
vt 0.216894 0.970644
vt 0.191393 0.968917
vt 0.215677 0.990196
vt 0.191587 0.995724
vt 0.292055 0.973402
vt 0.267298 0.972579
vt 0.294761 0.998710
vt 0.266433 0.988553
vt 0.166170 0.969305
vt 0.141594 0.968004
vt 0.165634 0.986350
vt 0.137450 0.999917
vt 0.242255 0.970275
vt 0.238885 0.996398
vt 0.316580 0.973307
vt 0.320569 0.988408
vt 0.117308 0.966599
vt 0.112904 0.981608
s 1
usemtl Banana_color.001
f 46/1/1 1/2/1 2/3/1 47/4/1
f 47/4/2 2/3/2 3/5/2 48/6/2
f 48/6/3 3/5/3 4/7/3 49/8/3
f 49/8/4 4/7/4 5/9/4 50/10/4
f 50/10/5 5/9/5 6/11/5 51/12/5
f 51/12/6 6/11/6 7/13/6 52/14/6
f 64/15/7 63/16/7 33/17/7 34/18/7
f 52/14/8 7/13/8 8/19/8 53/20/8
f 53/20/9 8/19/9 1/21/9 46/22/9
f 78/23/10 24/24/11 9/25/11 79/26/12
f 32/27/13 23/28/13 10/29/13 25/30/13
f 80/31/14 22/32/15 24/24/15 78/23/10
f 31/33/16 21/34/16 23/28/16 32/27/16
f 81/35/17 20/36/18 22/32/18 80/31/14
f 30/37/19 19/38/19 21/34/19 31/33/19
f 82/39/20 18/40/21 20/36/21 81/35/17
f 29/41/22 17/42/22 19/38/22 30/37/22
f 83/43/23 16/44/24 18/40/24 82/39/20
f 28/45/25 15/46/25 17/42/25 29/41/25
f 84/47/26 14/48/27 16/44/27 83/43/23
f 27/49/28 13/50/28 15/46/28 28/45/28
f 85/51/29 12/52/30 14/48/30 84/47/26
f 26/53/31 11/54/31 13/50/31 27/49/31
f 79/55/12 9/56/32 12/52/32 85/51/29
f 25/57/33 10/58/33 11/54/33 26/53/33
f 61/59/34 25/57/34 26/53/34 54/60/34
f 54/60/35 26/53/35 27/49/35 55/61/35
f 55/61/36 27/49/36 28/45/36 56/62/36
f 56/62/37 28/45/37 29/41/37 57/63/37
f 57/63/38 29/41/38 30/37/38 58/64/38
f 58/64/39 30/37/39 31/33/39 59/65/39
f 59/65/40 31/33/40 32/27/40 60/66/40
f 60/66/41 32/27/41 25/30/41 61/67/41
f 66/68/42 64/69/42 34/70/42 33/71/42
f 70/72/43 69/73/43 35/74/43 36/75/43
f 74/76/44 73/77/44 36/78/44 35/79/44
f 76/80/45 70/72/45 36/75/45 37/81/45
f 63/16/46 74/76/46 35/79/46 33/17/46
f 69/73/47 66/68/47 33/71/47 35/74/47
f 73/77/48 76/80/48 37/81/48 36/78/48
f 23/28/49 45/82/49 38/83/49 10/29/49
f 21/34/50 44/84/50 45/82/50 23/28/50
f 19/38/51 43/85/51 44/84/51 21/34/51
f 17/42/52 42/86/52 43/85/52 19/38/52
f 15/46/53 41/87/53 42/86/53 17/42/53
f 13/50/54 40/88/54 41/87/54 15/46/54
f 11/54/55 39/89/55 40/88/55 13/50/55
f 10/58/56 38/90/56 39/89/56 11/54/56
f 84/47/26 83/43/23 82/39/20 81/35/17 80/31/14 78/23/10 79/26/12 85/51/29
f 45/82/57 53/20/57 46/22/57 38/83/57
f 44/84/58 52/14/58 53/20/58 45/82/58
f 43/85/59 51/12/59 52/14/59 44/84/59
f 42/86/60 50/10/60 51/12/60 43/85/60
f 41/87/61 49/8/61 50/10/61 42/86/61
f 40/88/62 48/6/62 49/8/62 41/87/62
f 39/89/63 47/4/63 48/6/63 40/88/63
f 38/90/64 46/1/64 47/4/64 39/89/64
f 24/24/65 60/66/65 61/67/65 9/25/65
f 22/32/66 59/65/66 60/66/66 24/24/66
f 20/36/67 58/64/67 59/65/67 22/32/67
f 18/40/68 57/63/68 58/64/68 20/36/68
f 16/44/69 56/62/69 57/63/69 18/40/69
f 14/48/70 55/61/70 56/62/70 16/44/70
f 12/52/71 54/60/71 55/61/71 14/48/71
f 9/56/72 61/59/72 54/60/72 12/52/72
f 6/11/73 5/9/73 77/91/73 72/92/73
f 72/92/74 77/91/74 76/93/74 73/94/74
f 3/5/75 2/3/75 67/95/75 68/96/75
f 68/96/76 67/95/76 66/97/76 69/98/76
f 8/19/77 7/13/77 75/99/77 62/100/77
f 62/100/78 75/99/78 74/101/78 63/102/78
f 5/9/79 4/7/79 71/103/79 77/91/79
f 77/91/80 71/103/80 70/104/80 76/93/80
f 7/13/81 6/11/82 72/92/81 75/99/82
f 75/99/83 72/92/83 73/94/83 74/101/83
f 4/7/84 3/5/84 68/96/84 71/103/84
f 71/103/85 68/96/85 69/98/85 70/104/85
f 2/3/86 1/2/86 65/105/86 67/95/86
f 67/95/87 65/105/87 64/106/87 66/97/87
f 1/21/88 8/19/88 62/100/88 65/107/88
f 65/107/89 62/100/89 63/102/90 64/108/90
o Banana_Cylinder.001
v -0.074556 0.036009 -0.128978
v -0.074215 0.046012 -0.130865
v -0.068962 0.050150 -0.139022
v -0.063014 0.047094 -0.147182
v -0.060768 0.037338 -0.149069
v -0.061109 0.027335 -0.147182
v -0.066362 0.023200 -0.139022
v -0.072310 0.026255 -0.130865
v -0.085200 0.034982 -0.142793
v -0.085692 0.038620 -0.143642
v -0.083844 0.039734 -0.146539
v -0.083309 0.038951 -0.150396
v -0.081574 0.035332 -0.150271
v -0.082394 0.031396 -0.149926
v -0.082961 0.030578 -0.146539
v -0.085411 0.031146 -0.144074
v -0.048197 0.058367 -0.096972
v -0.033449 0.066551 -0.105427
v -0.017410 0.061338 -0.113880
v -0.011134 0.042126 -0.116285
v -0.013625 0.022070 -0.113880
v -0.028373 0.013888 -0.105427
v -0.044412 0.019101 -0.096972
v -0.050688 0.038313 -0.094567
v -0.060614 0.053133 -0.115032
v -0.050683 0.059769 -0.124586
v -0.039670 0.055154 -0.134138
v -0.035302 0.039796 -0.136750
v -0.036655 0.023886 -0.134138
v -0.046586 0.017250 -0.124586
v -0.057600 0.021868 -0.115032
v -0.061968 0.037223 -0.112421
v -0.085632 0.034941 -0.141902
v -0.086150 0.039441 -0.142870
v -0.083950 0.040823 -0.146539
v -0.083016 0.039846 -0.151171
v -0.081142 0.035375 -0.151162
v -0.081936 0.030573 -0.150698
v -0.082855 0.029488 -0.146539
v -0.085704 0.030251 -0.143299
v -0.084761 0.035025 -0.142577
v -0.085152 0.038670 -0.143378
v -0.083357 0.039782 -0.146302
v -0.082769 0.039004 -0.150132
v -0.081134 0.035375 -0.150055
v -0.081852 0.031446 -0.149659
v -0.082476 0.030626 -0.146302
v -0.084871 0.031197 -0.143808
v -0.082879 0.035207 -0.146282
v -0.032754 0.019328 -0.075956
v -0.040509 0.039294 -0.075936
v -0.010347 0.013885 -0.076013
v 0.011244 0.023122 -0.076067
v 0.015206 0.044667 -0.076077
v 0.007210 0.065060 -0.076057
v -0.015749 0.070001 -0.075999
v -0.036705 0.060374 -0.075946
vn -0.1015 -0.8967 -0.4308
vn 0.7533 -0.5019 0.4250
vn 0.9041 0.0869 0.4184
vn 0.6437 0.6363 0.4251
vn -0.0037 0.8004 0.5994
vn -0.4832 0.4842 0.7294
vn -0.5670 -0.0548 0.8219
vn -0.3817 -0.5678 0.7293
vn 0.1493 -0.7865 0.5992
vn 0.0110 0.9768 -0.2138
vn 0.1109 0.1615 -0.9806
vn -0.3505 -0.9356 0.0429
vn -0.5368 0.8419 0.0547
vn 0.1280 -0.1651 -0.9779
vn -0.7102 -0.2560 0.6558
vn -0.7475 0.1195 0.6534
vn -0.2723 0.8660 -0.4195
vn -0.8365 0.1624 0.5233
vn -0.4657 0.8807 0.0866
vn 0.0797 0.9204 -0.3827
vn 0.5996 0.2927 -0.7448
vn 0.6445 -0.1728 -0.7448
vn 0.2542 -0.8882 -0.3826
vn -0.2888 -0.9535 0.0866
vn -0.7901 -0.3192 0.5234
vn -0.7432 -0.3027 0.5967
vn -0.3456 -0.9354 0.0743
vn 0.0954 -0.8847 -0.4562
vn 0.4426 -0.1814 -0.8782
vn 0.3998 0.2626 -0.8782
vn -0.0754 0.8867 -0.4562
vn -0.5180 0.8522 0.0743
vn -0.7873 0.1551 0.5967
vn -0.8998 -0.1984 -0.3885
vn -0.8449 -0.0329 -0.5339
vn -0.8449 -0.0328 -0.5339
vn -0.9842 0.0243 -0.1753
vn -0.7694 -0.3521 -0.5330
vn -0.8538 0.1106 -0.5088
vn -0.9540 -0.1861 -0.2349
vn -0.7413 -0.1824 -0.6460
vn -0.9340 0.1349 -0.3307
vn -0.4468 0.1701 0.8783
vn -0.0026 -0.9801 0.1984
vn 0.4466 -0.1458 -0.8827
vn 0.4030 0.2699 -0.8745
vn -0.1898 0.9612 0.1999
vn -0.4206 -0.1703 0.8911
vn 0.2064 -0.9501 -0.2339
vn -0.8202 0.0561 -0.5694
vn -0.8540 -0.1403 -0.5011
vn -0.9497 0.0213 -0.3126
vn -0.9326 -0.2433 -0.2666
vn -0.4144 0.8988 0.1426
vn 0.1988 0.9535 -0.2268
vn 0.7829 0.3150 -0.5366
vn 0.8286 -0.1597 -0.5365
vn 0.3773 -0.8979 -0.2267
vn -0.8712 0.1606 0.4640
vn -0.8245 -0.3240 0.4640
vn -0.2349 -0.9615 0.1426
vt 0.224291 0.072443
vt 0.201769 0.064602
vt 0.221494 0.017029
vt 0.233887 0.018598
vt 0.194785 0.280110
vt 0.239161 0.287759
vt 0.283941 0.283057
vt 0.328533 0.258643
vt 0.374992 0.225499
vt 0.052279 0.187986
vt 0.107695 0.216707
vt 0.151885 0.252817
vt 0.492346 0.220029
vt 0.501723 0.219125
vt 0.501055 0.220531
vt 0.492679 0.221502
vt 0.268034 0.073744
vt 0.246113 0.073989
vt 0.247602 0.021167
vt 0.261190 0.018610
vt 0.178609 0.051060
vt 0.211600 0.009044
vt 0.315165 0.055577
vt 0.291140 0.067457
vt 0.274919 0.018602
vt 0.286472 0.012518
vt 0.158636 0.029692
vt 0.200059 0.000083
vt 0.336398 0.035551
vt 0.296894 0.003432
vt 0.379475 0.081559
vt 0.414533 0.137761
vt 0.361995 0.162925
vt 0.341665 0.107785
vt 0.320285 0.180269
vt 0.307898 0.123025
vt 0.282146 0.190804
vt 0.276337 0.131171
vt 0.242293 0.192247
vt 0.244292 0.131397
vt 0.202614 0.188198
vt 0.212313 0.129080
vt 0.165240 0.175186
vt 0.181347 0.118878
vt 0.124752 0.155145
vt 0.148649 0.101448
vt 0.073978 0.126596
vt 0.112648 0.072815
vt 0.502599 0.247010
vt 0.508559 0.239127
vt 0.510614 0.240094
vt 0.503887 0.249786
vt 0.493174 0.247196
vt 0.492669 0.249668
vt 0.483608 0.243771
vt 0.481297 0.245725
vt 0.482755 0.233702
vt 0.480480 0.233772
vt 0.484002 0.223656
vt 0.481610 0.221831
vt 0.491683 0.217502
vt 0.502937 0.216199
vt 0.508402 0.227514
vt 0.510614 0.226474
vt 0.485136 0.224488
vt 0.484074 0.233661
vt 0.484732 0.242900
vt 0.493546 0.245716
vt 0.501858 0.245663
vt 0.507512 0.238116
vt 0.507549 0.228661
vt 0.495758 0.233507
vt 0.432164 0.200436
s 1
usemtl Banana_color.001
f 91/109/91 92/110/91 124/111/91 123/112/91
f 138/113/92 139/114/93 140/115/94 141/116/95 142/117/96 136/118/97 135/119/98 137/120/99
f 100/121/100 101/122/100 133/123/100 132/124/100
f 89/125/101 90/126/101 122/127/101 121/128/101
f 92/110/102 93/129/102 125/130/102 124/111/102
f 87/131/103 88/132/103 120/133/103 119/134/103
f 90/126/104 91/109/104 123/112/104 122/127/104
f 93/129/105 86/135/105 118/136/105 125/130/105
f 86/137/106 87/131/106 119/134/106 118/138/106
f 88/132/107 89/125/107 121/128/107 120/133/107
f 117/139/108 109/140/108 102/141/108 110/142/108
f 110/142/109 102/141/109 103/143/109 111/144/109
f 111/144/110 103/143/110 104/145/110 112/146/110
f 112/146/111 104/145/111 105/147/111 113/148/111
f 113/148/112 105/147/112 106/149/112 114/150/112
f 114/150/113 106/149/113 107/151/113 115/152/113
f 115/152/114 107/151/114 108/153/114 116/154/114
f 116/154/115 108/153/115 109/155/115 117/156/115
f 93/129/116 116/154/116 117/156/116 86/135/116
f 92/110/117 115/152/117 116/154/117 93/129/117
f 91/109/118 114/150/118 115/152/118 92/110/118
f 90/126/119 113/148/119 114/150/119 91/109/119
f 89/125/120 112/146/120 113/148/120 90/126/120
f 88/132/121 111/144/121 112/146/121 89/125/121
f 87/131/122 110/142/122 111/144/122 88/132/122
f 86/137/123 117/139/123 110/142/123 87/131/123
f 95/157/124 94/158/124 118/159/124 119/160/124
f 96/161/125 95/157/126 119/160/125 120/162/126
f 97/163/127 96/161/127 120/162/127 121/164/127
f 98/165/128 97/163/128 121/164/128 122/166/128
f 99/167/129 98/165/129 122/166/129 123/168/129
f 100/121/130 99/167/130 123/168/130 124/169/130
f 101/122/131 100/121/131 124/169/131 125/170/131
f 94/171/132 101/122/132 125/170/132 118/172/132
f 98/165/133 99/167/133 131/173/133 130/174/133
f 96/161/134 97/163/134 129/175/134 128/176/134
f 94/158/135 95/157/135 127/177/135 126/178/135
f 101/122/136 94/171/136 126/179/136 133/123/136
f 99/167/137 100/121/137 132/124/137 131/173/137
f 97/163/138 98/165/138 130/174/138 129/175/138
f 95/157/139 96/161/139 128/176/139 127/177/139
f 132/124/140 133/123/140 126/179/140 134/180/140
f 126/178/141 127/177/141 128/176/141 134/180/141
f 130/174/142 131/173/142 132/124/142 134/180/142
f 129/175/143 130/174/143 134/180/143 128/176/143
f 102/141/144 142/117/96 141/116/95 103/143/144
f 103/143/145 141/116/95 140/115/94 104/145/145
f 104/145/146 140/115/94 139/114/93 105/147/146
f 105/147/147 139/114/93 138/113/92 106/149/147
f 106/149/148 138/113/92 137/120/99 107/151/148
f 109/140/149 136/181/97 142/117/96 102/141/149
f 108/153/150 135/119/98 136/118/97 109/155/150
f 107/151/151 137/120/99 135/119/98 108/153/151
