# Blender 4.5.3 LTS
# www.blender.org
mtllib Banana.mtl
o Banana_Cylinder
v -0.060259 0.037389 0.108326
v -0.059388 0.045026 0.110993
v -0.055841 0.048498 0.117432
v -0.051696 0.045767 0.123869
v -0.049382 0.038438 0.126535
v -0.050254 0.030801 0.123869
v -0.053801 0.027328 0.117432
v -0.057946 0.030057 0.110993
v -0.119604 0.028478 0.146993
v -0.120274 0.028413 0.145874
v -0.115598 0.028864 0.153698
v -0.111593 0.029250 0.160406
v -0.110926 0.029315 0.161525
v -0.038698 0.060705 0.085793
v -0.023762 0.066208 0.095875
v -0.008050 0.063662 0.105958
v -0.000946 0.043110 0.109298
v -0.003994 0.021580 0.105958
v -0.018929 0.016074 0.095875
v -0.034642 0.018623 0.085793
v -0.048917 0.038483 0.093538
v -0.047218 0.055991 0.097205
v -0.037111 0.059349 0.108499
v -0.026551 0.057983 0.119791
v -0.021538 0.041123 0.123458
v -0.023237 0.023615 0.119791
v -0.033343 0.020255 0.108499
v -0.043906 0.021621 0.097205
v -0.091294 0.028410 0.132516
v -0.099384 0.025842 0.134441
v -0.097394 0.033755 0.130289
v -0.092868 0.034242 0.131042
v -0.099110 0.041200 0.133337
v -0.092438 0.040269 0.132516
v -0.089657 0.042158 0.137683
v -0.093374 0.043826 0.139776
v -0.090686 0.041831 0.148255
v -0.086345 0.040857 0.142718
v -0.085200 0.028998 0.142718
v -0.089162 0.026500 0.148231
v -0.091735 0.024551 0.139906
v -0.088205 0.027088 0.137683
v -0.087650 0.034542 0.149234
v -0.084950 0.035008 0.144300
v -0.034308 0.018606 0.085180
v -0.035975 0.022477 0.085166
v -0.012459 0.015776 0.085361
v 0.009518 0.021728 0.085542
v 0.014750 0.044624 0.085586
v 0.005264 0.066103 0.085507
v -0.017443 0.067745 0.085320
v -0.038356 0.060790 0.085147
v -0.039295 0.056490 0.085139
v -0.043463 0.039009 0.085105
vn -0.7968 0.2229 -0.5616
vn -0.5321 0.8424 0.0852
vn -0.3078 0.8388 0.4491
vn 0.0544 0.2683 0.9618
vn 0.1047 -0.2529 0.9618
vn -0.1418 -0.8821 0.4492
vn -0.4729 -0.4351 -0.7662
vn -0.3613 -0.9285 0.0852
vn -0.7396 -0.3709 -0.5616
vn -0.6172 0.3143 -0.7213
vn -0.3980 0.8773 0.2683
vn -0.0517 -0.9832 0.1753
vn 0.3103 0.4084 0.8585
vn -0.1273 -0.9907 0.0483
vn -0.4688 0.8708 0.1479
vn 0.4583 -0.3383 0.8219
vn -0.3408 -0.6288 -0.6989
vn -0.8247 -0.3565 -0.4390
vn -0.4412 -0.2009 -0.8746
vn 0.1056 -0.7707 -0.6284
vn -0.1281 -0.9905 -0.0503
vn 0.7155 -0.5574 -0.4211
vn 0.2499 -0.9539 0.1661
vn 0.9097 0.0871 -0.4060
vn 0.8214 -0.1939 0.5364
vn 0.5962 0.6832 -0.4216
vn 0.7692 0.3472 0.5364
vn -0.0436 0.7761 -0.6290
vn 0.0629 0.9841 0.1661
vn -0.4545 0.5517 -0.6993
vn -0.3150 0.9478 -0.0501
vn -0.4715 0.1121 -0.8747
vn -0.8776 0.1924 -0.4390
vn -0.2119 -0.9738 0.0821
vn 0.0697 -0.9477 0.3114
vn 0.5617 -0.2119 0.7997
vn 0.5109 0.3153 0.7998
vn -0.1128 0.9436 0.3114
vn -0.3941 0.9154 0.0822
vn -0.5381 -0.0521 -0.8413
vn -0.8255 0.1951 -0.5296
vn 0.4572 -0.2984 0.8378
vn 0.8510 -0.1963 0.4870
vn -0.3106 0.9160 -0.2538
vn 0.1051 0.8983 -0.4266
vn -0.1297 -0.9585 -0.2537
vn 0.2246 -0.8692 -0.4405
vn 0.3917 0.3803 0.8378
vn 0.7814 0.3625 0.5079
vn 0.2055 -0.9261 0.3164
vn 0.2059 -0.9259 0.3168
vn 0.5612 -0.8277 0.0048
vn 0.0252 0.9481 0.3169
vn 0.3653 0.9286 0.0643
vn -0.5586 0.2888 -0.7775
vn 0.0069 0.3188 -0.9478
vn -0.4931 -0.3902 -0.7775
vn 0.0060 -0.3784 -0.9256
vn 0.0061 -0.3784 -0.9256
vn -0.7731 -0.3491 -0.5296
vt 0.378970 0.769438
vt 0.343943 0.823099
vt 0.314949 0.813600
vt 0.332023 0.741730
vt 0.283908 0.808320
vt 0.292479 0.730246
vt 0.252525 0.806260
vt 0.260123 0.718543
vt 0.222307 0.802838
vt 0.225115 0.717347
vt 0.192026 0.804273
vt 0.190114 0.716270
vt 0.160678 0.804341
vt 0.157071 0.725857
vt 0.484148 0.167283
vt 0.485654 0.143925
vt 0.543974 0.125331
vt 0.544915 0.128530
vt 0.129259 0.807639
vt 0.116837 0.734750
vt 0.099619 0.815271
vt 0.068125 0.759354
vt 0.476720 0.019715
vt 0.484254 0.000083
vt 0.544915 0.039003
vt 0.543925 0.042187
vt 0.464855 0.062281
vt 0.464084 0.038988
vt 0.537985 0.061280
vt 0.532142 0.080403
vt 0.469723 0.125632
vt 0.469133 0.102813
vt 0.532803 0.086932
vt 0.538329 0.106149
vt 0.463293 0.082559
vt 0.531882 0.083727
vt 0.106339 0.692825
vt 0.106817 0.694653
vt 0.095703 0.699708
vt 0.146204 0.654078
vt 0.150315 0.681027
vt 0.184702 0.626459
vt 0.187017 0.671856
vt 0.228292 0.619967
vt 0.226623 0.671126
vt 0.271375 0.629205
vt 0.266098 0.674427
vt 0.308001 0.659241
vt 0.302122 0.685963
vt 0.345254 0.700500
vt 0.344625 0.702390
vt 0.355848 0.708411
vt 0.396456 0.741832
vt 0.216894 0.970644
vt 0.191393 0.968917
vt 0.215677 0.990196
vt 0.191587 0.995724
vt 0.292055 0.973402
vt 0.267298 0.972579
vt 0.294761 0.998710
vt 0.266433 0.988553
vt 0.166170 0.969305
vt 0.141594 0.968004
vt 0.165634 0.986350
vt 0.137450 0.999917
vt 0.242255 0.970275
vt 0.238885 0.996398
vt 0.316580 0.973307
vt 0.320569 0.988408
vt 0.117308 0.966599
vt 0.112904 0.981608
vt 0.052478 0.730639
s 1
usemtl Banana_color.001
f 21/1/1 1/2/1 2/3/1 22/4/1
f 22/4/2 2/3/2 3/5/2 23/6/2
f 23/6/3 3/5/3 4/7/3 24/8/3
f 24/8/4 4/7/4 5/9/4 25/10/4
f 25/10/5 5/9/5 6/11/5 26/12/5
f 26/12/6 6/11/6 7/13/6 27/14/6
f 31/15/7 30/16/7 9/17/7 10/18/7
f 27/14/8 7/13/8 8/19/8 28/20/8
f 28/20/9 8/19/9 1/21/9 21/22/9
f 33/23/10 31/24/10 10/25/10 9/26/10
f 37/27/11 36/28/11 11/29/11 12/30/11
f 41/31/12 40/32/12 12/33/12 11/34/12
f 43/35/13 37/27/13 12/30/13 13/36/13
f 30/16/14 41/31/14 11/34/14 9/17/14
f 36/28/15 33/23/15 9/26/15 11/29/15
f 40/32/16 43/35/16 13/36/16 12/33/16
f 45/37/17 20/38/18 46/39/19
f 47/40/20 19/41/21 20/38/21 45/37/17
f 48/42/22 18/43/23 19/41/23 47/40/20
f 49/44/24 17/45/25 18/43/25 48/42/22
f 50/46/26 16/47/27 17/45/27 49/44/24
f 51/48/28 15/49/29 16/47/29 50/46/26
f 52/50/30 14/51/31 15/49/31 51/48/28
f 52/50/30 53/52/32 14/51/33
f 19/41/34 27/14/34 28/20/34 20/38/34
f 18/43/35 26/12/35 27/14/35 19/41/35
f 17/45/36 25/10/36 26/12/36 18/43/36
f 16/47/37 24/8/37 25/10/37 17/45/37
f 15/49/38 23/6/38 24/8/38 16/47/38
f 14/51/39 22/4/39 23/6/39 15/49/39
f 54/53/40 21/1/41 22/4/41 14/51/41 53/52/32
f 6/11/42 5/9/42 44/54/42 39/55/42
f 39/55/43 44/54/43 43/56/43 40/57/43
f 3/5/44 2/3/44 34/58/44 35/59/44
f 35/59/45 34/58/45 33/60/45 36/61/45
f 8/19/46 7/13/46 42/62/46 29/63/46
f 29/63/47 42/62/47 41/64/47 30/65/47
f 5/9/48 4/7/48 38/66/48 44/54/48
f 44/54/49 38/66/49 37/67/49 43/56/49
f 7/13/50 6/11/51 39/55/50 42/62/51
f 42/62/52 39/55/52 40/57/52 41/64/52
f 4/7/53 3/5/53 35/59/53 38/66/53
f 38/66/54 35/59/54 36/61/54 37/67/54
f 2/3/55 1/2/55 32/68/55 34/58/55
f 34/58/56 32/68/56 31/69/56 33/60/56
f 1/21/57 8/19/57 29/63/57 32/70/57
f 32/70/58 29/63/58 30/65/59 31/71/59
f 48/42/22 47/40/20 45/37/17 46/39/19 54/72/40 53/52/32 52/50/30 51/48/28 50/46/26 49/44/24
f 20/38/60 28/20/60 21/22/60 54/72/40 46/39/19
o Banana_Cylinder.001
v -0.028584 0.040444 -0.054110
v -0.030854 0.040226 0.061450
v -0.026719 0.063681 0.063151
v -0.025382 0.062351 -0.055229
v -0.007358 0.070197 0.068472
v -0.005849 0.071930 -0.059539
v 0.012893 0.067502 0.073790
v 0.015156 0.066261 -0.063850
v 0.021432 0.045268 0.075492
v 0.022483 0.045369 -0.064970
v 0.017297 0.021813 0.073790
v 0.019279 0.023462 -0.063850
v -0.002066 0.015297 0.068472
v -0.000252 0.013883 -0.059539
v -0.022315 0.017992 0.063151
v -0.021257 0.019552 -0.055229
v -0.017933 0.041471 0.021612
v -0.014546 0.064854 0.022498
v 0.005815 0.072762 0.025822
v 0.027312 0.068891 0.029146
v 0.035102 0.046588 0.030034
v 0.031716 0.023205 0.029146
v 0.011354 0.015297 0.025822
v -0.010142 0.019166 0.022498
v -0.014366 0.064142 -0.022610
v 0.005710 0.073494 -0.023436
v 0.027204 0.068152 -0.024259
v 0.034934 0.046571 -0.024482
v 0.031469 0.023908 -0.024259
v 0.011390 0.014558 -0.023436
v -0.010102 0.019900 -0.022610
v -0.017834 0.041481 -0.022387
v -0.030459 0.019373 -0.071818
v -0.038248 0.039512 -0.071798
v -0.007813 0.013884 -0.071877
v 0.013963 0.023237 -0.071933
v 0.017915 0.044928 -0.071943
v 0.009901 0.065467 -0.071923
v -0.013261 0.070485 -0.071862
v -0.034443 0.060769 -0.071807
v -0.031198 0.018447 0.079467
v -0.040173 0.039326 0.079415
v -0.008911 0.015612 0.079596
v 0.013369 0.021770 0.079725
v 0.018610 0.044996 0.079755
v 0.009045 0.066797 0.079700
v -0.013999 0.068582 0.079567
v -0.035339 0.061540 0.079443
vn -0.6447 -0.6077 -0.4637
vn -0.8264 -0.3174 0.4651
vn -0.8872 -0.0853 -0.4535
vn -0.8933 -0.3443 -0.2888
vn -0.0211 -0.7719 -0.6354
vn -0.2320 -0.9625 0.1404
vn -0.1433 -0.9880 -0.0580
vn 0.4469 -0.4675 -0.7627
vn 0.3848 -0.8932 -0.2328
vn 0.3230 -0.9423 0.0880
vn 0.5289 0.0510 -0.8472
vn 0.8295 -0.1501 -0.5379
vn 0.9426 -0.1673 0.2888
vn 0.3493 0.5444 -0.7626
vn 0.7856 0.3057 -0.5380
vn 0.8933 0.3443 0.2888
vn -0.1682 0.7538 -0.6352
vn 0.2069 0.9503 -0.2328
vn 0.1370 0.9867 0.0880
vn -0.7489 0.4736 -0.4636
vn -0.4117 0.9005 0.1403
vn -0.3296 0.9423 -0.0580
vn -0.8718 0.1537 0.4651
vn -0.9426 0.1673 -0.2889
vn -0.9891 0.1473 -0.0043
vn -0.3926 0.9197 -0.0001
vn 0.2096 0.9778 -0.0005
vn 0.9428 0.3334 -0.0047
vn 0.9891 -0.1471 -0.0047
vn 0.3925 -0.9197 -0.0005
vn -0.2095 -0.9778 -0.0001
vn -0.9427 -0.3335 -0.0043
vn -0.7163 0.5104 0.4758
vn -0.8867 -0.0851 0.4545
vn -0.6058 -0.6374 0.4762
vn 0.0005 -0.7361 0.6769
vn 0.4025 -0.5286 0.7474
vn 0.5326 0.0515 0.8448
vn 0.2941 0.5961 0.7471
vn -0.1402 0.7229 0.6765
vn -0.8927 -0.3263 0.3109
vn -0.2391 -0.9665 0.0937
vn 0.4157 -0.9019 -0.1175
vn 0.9458 -0.1502 -0.2879
vn 0.8997 0.3281 -0.2879
vn 0.2357 0.9647 -0.1176
vn -0.4194 0.9029 0.0937
vn -0.9386 0.1498 0.3109
vn -0.3106 0.9496 -0.0428
vn 0.0785 0.9801 0.1821
vn 0.7716 0.3387 0.5384
vn 0.8221 -0.1851 0.5384
vn 0.2644 -0.9471 0.1821
vn -0.8767 0.1889 -0.4423
vn -0.8245 -0.3529 -0.4424
vn -0.1234 -0.9914 -0.0429
vt 0.104337 0.228829
vt 0.090873 0.277422
vt 0.026858 0.259906
vt 0.047459 0.201624
vt 0.073951 0.507750
vt 0.089142 0.627110
vt 0.019539 0.648389
vt 0.000083 0.510660
vt 0.150007 0.263732
vt 0.144405 0.296294
vt 0.133843 0.506349
vt 0.139600 0.610790
vt 0.193929 0.290159
vt 0.192255 0.309807
vt 0.184472 0.506772
vt 0.183369 0.600326
vt 0.238839 0.297579
vt 0.238296 0.314144
vt 0.231951 0.507999
vt 0.229003 0.598190
vt 0.284137 0.293141
vt 0.284520 0.312831
vt 0.279405 0.509875
vt 0.274398 0.603295
vt 0.329693 0.269660
vt 0.333147 0.302480
vt 0.329948 0.512762
vt 0.317385 0.616589
vt 0.377550 0.237815
vt 0.387797 0.287152
vt 0.389615 0.518074
vt 0.366662 0.636166
vt 0.436081 0.214359
vt 0.452819 0.273861
vt 0.463127 0.525810
vt 0.434702 0.661950
vt 0.463127 0.381914
vt 0.392306 0.386704
vt 0.333543 0.393441
vt 0.283299 0.398443
vt 0.235524 0.398792
vt 0.187871 0.395318
vt 0.138057 0.387040
vt 0.079859 0.376473
vt 0.009499 0.367060
vt 0.350805 0.683818
vt 0.043506 0.711021
vt 0.101879 0.675783
vt 0.143950 0.639302
vt 0.184042 0.613523
vt 0.228703 0.607388
vt 0.272873 0.616363
vt 0.311205 0.644676
vt 0.406691 0.722854
s 1
usemtl Banana_color.001
f 87/73/61 70/74/62 55/75/62 88/76/63
f 78/77/64 69/78/64 56/79/64 71/80/64
f 89/81/65 68/82/66 70/74/66 87/73/61
f 77/83/67 67/84/67 69/78/67 78/77/67
f 90/85/68 66/86/69 68/82/69 89/81/65
f 76/87/70 65/88/70 67/84/70 77/83/70
f 91/89/71 64/90/72 66/86/72 90/85/68
f 75/91/73 63/92/73 65/88/73 76/87/73
f 92/93/74 62/94/75 64/90/75 91/89/71
f 74/95/76 61/96/76 63/92/76 75/91/76
f 93/97/77 60/98/78 62/94/78 92/93/74
f 73/99/79 59/100/79 61/96/79 74/95/79
f 94/101/80 58/102/81 60/98/81 93/97/77
f 72/103/82 57/104/82 59/100/82 73/99/82
f 88/105/63 55/106/83 58/102/83 94/101/80
f 71/107/84 56/108/84 57/104/84 72/103/84
f 86/109/85 71/107/85 72/103/85 79/110/85
f 79/110/86 72/103/86 73/99/86 80/111/86
f 80/111/87 73/99/87 74/95/87 81/112/87
f 81/112/88 74/95/88 75/91/88 82/113/88
f 82/113/89 75/91/89 76/87/89 83/114/89
f 83/114/90 76/87/90 77/83/90 84/115/90
f 84/115/91 77/83/91 78/77/91 85/116/91
f 85/116/92 78/77/92 71/80/92 86/117/92
f 102/118/93 96/119/94 95/120/95 97/121/96 98/122/97 99/123/98 100/124/99 101/125/100
f 93/97/77 92/93/74 91/89/71 90/85/68 89/81/65 87/73/61 88/76/63 94/101/80
f 70/74/101 85/116/101 86/117/101 55/75/101
f 68/82/102 84/115/102 85/116/102 70/74/102
f 66/86/103 83/114/103 84/115/103 68/82/103
f 64/90/104 82/113/104 83/114/104 66/86/104
f 62/94/105 81/112/105 82/113/105 64/90/105
f 60/98/106 80/111/106 81/112/106 62/94/106
f 58/102/107 79/110/107 80/111/107 60/98/107
f 55/106/108 86/109/108 79/110/108 58/102/108
f 57/104/109 102/118/93 101/125/100 59/100/109
f 59/100/110 101/125/100 100/124/99 61/96/110
f 61/96/111 100/124/99 99/123/98 63/92/111
f 63/92/112 99/123/98 98/122/97 65/88/112
f 65/88/113 98/122/97 97/121/96 67/84/113
f 56/108/114 96/126/94 102/118/93 57/104/114
f 69/78/115 95/120/95 96/119/94 56/79/115
f 67/84/116 97/121/96 95/120/95 69/78/116
o Banana_Cylinder.002
v -0.074556 0.036009 -0.128978
v -0.074215 0.046012 -0.130865
v -0.068962 0.050150 -0.139022
v -0.063014 0.047094 -0.147182
v -0.060768 0.037338 -0.149069
v -0.061109 0.027335 -0.147182
v -0.066362 0.023200 -0.139022
v -0.072310 0.026255 -0.130865
v -0.085200 0.034982 -0.142793
v -0.085692 0.038620 -0.143642
v -0.083844 0.039734 -0.146539
v -0.083309 0.038951 -0.150396
v -0.081574 0.035332 -0.150271
v -0.082394 0.031396 -0.149926
v -0.082961 0.030578 -0.146539
v -0.085411 0.031146 -0.144074
v -0.048197 0.058367 -0.096972
v -0.033449 0.066551 -0.105427
v -0.017410 0.061338 -0.113880
v -0.011134 0.042126 -0.116285
v -0.013625 0.022070 -0.113880
v -0.028373 0.013888 -0.105427
v -0.044412 0.019101 -0.096972
v -0.050688 0.038313 -0.094567
v -0.060614 0.053133 -0.115032
v -0.050683 0.059769 -0.124586
v -0.039670 0.055154 -0.134138
v -0.035302 0.039796 -0.136750
v -0.036655 0.023886 -0.134138
v -0.046586 0.017250 -0.124586
v -0.057600 0.021868 -0.115032
v -0.061968 0.037223 -0.112421
v -0.085632 0.034941 -0.141902
v -0.086150 0.039441 -0.142870
v -0.083950 0.040823 -0.146539
v -0.083016 0.039846 -0.151171
v -0.081142 0.035375 -0.151162
v -0.081936 0.030573 -0.150698
v -0.082855 0.029488 -0.146539
v -0.085704 0.030251 -0.143299
v -0.084761 0.035025 -0.142577
v -0.085152 0.038670 -0.143378
v -0.083357 0.039782 -0.146302
v -0.082769 0.039004 -0.150132
v -0.081134 0.035375 -0.150055
v -0.081852 0.031446 -0.149659
v -0.082476 0.030626 -0.146302
v -0.084871 0.031197 -0.143808
v -0.082879 0.035207 -0.146282
v -0.032754 0.019328 -0.075956
v -0.040509 0.039294 -0.075936
v -0.010347 0.013885 -0.076013
v 0.011244 0.023122 -0.076067
v 0.015206 0.044667 -0.076077
v 0.007210 0.065060 -0.076057
v -0.015749 0.070001 -0.075999
v -0.036705 0.060374 -0.075946
vn -0.1015 -0.8967 -0.4308
vn 0.7533 -0.5019 0.4250
vn 0.9041 0.0869 0.4184
vn 0.6437 0.6363 0.4251
vn -0.0037 0.8004 0.5994
vn -0.4832 0.4842 0.7294
vn -0.5670 -0.0548 0.8219
vn -0.3817 -0.5678 0.7293
vn 0.1493 -0.7865 0.5992
vn 0.0110 0.9768 -0.2138
vn 0.1109 0.1615 -0.9806
vn -0.3505 -0.9356 0.0429
vn -0.5368 0.8419 0.0547
vn 0.1280 -0.1651 -0.9779
vn -0.7102 -0.2560 0.6558
vn -0.7475 0.1195 0.6534
vn -0.2723 0.8660 -0.4195
vn -0.8365 0.1624 0.5233
vn -0.4657 0.8807 0.0866
vn 0.0797 0.9204 -0.3827
vn 0.5996 0.2927 -0.7448
vn 0.6445 -0.1728 -0.7448
vn 0.2542 -0.8882 -0.3826
vn -0.2888 -0.9535 0.0866
vn -0.7901 -0.3192 0.5234
vn -0.7432 -0.3027 0.5967
vn -0.3456 -0.9354 0.0743
vn 0.0954 -0.8847 -0.4562
vn 0.4426 -0.1814 -0.8782
vn 0.3998 0.2626 -0.8782
vn -0.0754 0.8867 -0.4562
vn -0.5180 0.8522 0.0743
vn -0.7873 0.1551 0.5967
vn -0.8998 -0.1984 -0.3885
vn -0.8449 -0.0329 -0.5339
vn -0.8449 -0.0328 -0.5339
vn -0.9842 0.0243 -0.1753
vn -0.7694 -0.3521 -0.5330
vn -0.8538 0.1106 -0.5088
vn -0.9540 -0.1861 -0.2349
vn -0.7413 -0.1824 -0.6460
vn -0.9340 0.1349 -0.3307
vn -0.4468 0.1701 0.8783
vn -0.0026 -0.9801 0.1984
vn 0.4466 -0.1458 -0.8827
vn 0.4030 0.2699 -0.8745
vn -0.1898 0.9612 0.1999
vn -0.4206 -0.1703 0.8911
vn 0.2064 -0.9501 -0.2339
vn -0.8202 0.0561 -0.5694
vn -0.8540 -0.1403 -0.5011
vn -0.9497 0.0213 -0.3126
vn -0.9326 -0.2433 -0.2666
vn -0.4144 0.8988 0.1426
vn 0.1988 0.9535 -0.2268
vn 0.7829 0.3150 -0.5366
vn 0.8286 -0.1597 -0.5365
vn 0.3773 -0.8979 -0.2267
vn -0.8712 0.1606 0.4640
vn -0.8245 -0.3240 0.4640
vn -0.2349 -0.9615 0.1426
vt 0.224291 0.072443
vt 0.201769 0.064602
vt 0.221494 0.017029
vt 0.233887 0.018598
vt 0.194785 0.280110
vt 0.239161 0.287759
vt 0.283941 0.283057
vt 0.328533 0.258643
vt 0.374992 0.225499
vt 0.052279 0.187986
vt 0.107695 0.216707
vt 0.151885 0.252817
vt 0.492346 0.220029
vt 0.501723 0.219125
vt 0.501055 0.220531
vt 0.492679 0.221502
vt 0.268034 0.073744
vt 0.246113 0.073989
vt 0.247602 0.021167
vt 0.261190 0.018610
vt 0.178609 0.051060
vt 0.211600 0.009044
vt 0.315165 0.055577
vt 0.291140 0.067457
vt 0.274919 0.018602
vt 0.286472 0.012518
vt 0.158636 0.029692
vt 0.200059 0.000083
vt 0.336398 0.035551
vt 0.296894 0.003432
vt 0.379475 0.081559
vt 0.414533 0.137761
vt 0.361995 0.162925
vt 0.341665 0.107785
vt 0.320285 0.180269
vt 0.307898 0.123025
vt 0.282146 0.190804
vt 0.276337 0.131171
vt 0.242293 0.192247
vt 0.244292 0.131397
vt 0.202614 0.188198
vt 0.212313 0.129080
vt 0.165240 0.175186
vt 0.181347 0.118878
vt 0.124752 0.155145
vt 0.148649 0.101448
vt 0.073978 0.126596
vt 0.112648 0.072815
vt 0.502599 0.247010
vt 0.508559 0.239127
vt 0.510614 0.240094
vt 0.503887 0.249786
vt 0.493174 0.247196
vt 0.492669 0.249668
vt 0.483608 0.243771
vt 0.481297 0.245725
vt 0.482755 0.233702
vt 0.480480 0.233772
vt 0.484002 0.223656
vt 0.481610 0.221831
vt 0.491683 0.217502
vt 0.502937 0.216199
vt 0.508402 0.227514
vt 0.510614 0.226474
vt 0.485136 0.224488
vt 0.484074 0.233661
vt 0.484732 0.242900
vt 0.493546 0.245716
vt 0.501858 0.245663
vt 0.507512 0.238116
vt 0.507549 0.228661
vt 0.495758 0.233507
vt 0.432164 0.200436
s 1
usemtl Banana_color.001
f 108/127/117 109/128/117 141/129/117 140/130/117
f 155/131/118 156/132/119 157/133/120 158/134/121 159/135/122 153/136/123 152/137/124 154/138/125
f 117/139/126 118/140/126 150/141/126 149/142/126
f 106/143/127 107/144/127 139/145/127 138/146/127
f 109/128/128 110/147/128 142/148/128 141/129/128
f 104/149/129 105/150/129 137/151/129 136/152/129
f 107/144/130 108/127/130 140/130/130 139/145/130
f 110/147/131 103/153/131 135/154/131 142/148/131
f 103/155/132 104/149/132 136/152/132 135/156/132
f 105/150/133 106/143/133 138/146/133 137/151/133
f 134/157/134 126/158/134 119/159/134 127/160/134
f 127/160/135 119/159/135 120/161/135 128/162/135
f 128/162/136 120/161/136 121/163/136 129/164/136
f 129/164/137 121/163/137 122/165/137 130/166/137
f 130/166/138 122/165/138 123/167/138 131/168/138
f 131/168/139 123/167/139 124/169/139 132/170/139
f 132/170/140 124/169/140 125/171/140 133/172/140
f 133/172/141 125/171/141 126/173/141 134/174/141
f 110/147/142 133/172/142 134/174/142 103/153/142
f 109/128/143 132/170/143 133/172/143 110/147/143
f 108/127/144 131/168/144 132/170/144 109/128/144
f 107/144/145 130/166/145 131/168/145 108/127/145
f 106/143/146 129/164/146 130/166/146 107/144/146
f 105/150/147 128/162/147 129/164/147 106/143/147
f 104/149/148 127/160/148 128/162/148 105/150/148
f 103/155/149 134/157/149 127/160/149 104/149/149
f 112/175/150 111/176/150 135/177/150 136/178/150
f 113/179/151 112/175/152 136/178/151 137/180/152
f 114/181/153 113/179/153 137/180/153 138/182/153
f 115/183/154 114/181/154 138/182/154 139/184/154
f 116/185/155 115/183/155 139/184/155 140/186/155
f 117/139/156 116/185/156 140/186/156 141/187/156
f 118/140/157 117/139/157 141/187/157 142/188/157
f 111/189/158 118/140/158 142/188/158 135/190/158
f 115/183/159 116/185/159 148/191/159 147/192/159
f 113/179/160 114/181/160 146/193/160 145/194/160
f 111/176/161 112/175/161 144/195/161 143/196/161
f 118/140/162 111/189/162 143/197/162 150/141/162
f 116/185/163 117/139/163 149/142/163 148/191/163
f 114/181/164 115/183/164 147/192/164 146/193/164
f 112/175/165 113/179/165 145/194/165 144/195/165
f 149/142/166 150/141/166 143/197/166 151/198/166
f 143/196/167 144/195/167 145/194/167 151/198/167
f 147/192/168 148/191/168 149/142/168 151/198/168
f 146/193/169 147/192/169 151/198/169 145/194/169
f 119/159/170 159/135/122 158/134/121 120/161/170
f 120/161/171 158/134/121 157/133/120 121/163/171
f 121/163/172 157/133/120 156/132/119 122/165/172
f 122/165/173 156/132/119 155/131/118 123/167/173
f 123/167/174 155/131/118 154/138/125 124/169/174
f 126/158/175 153/199/123 159/135/122 119/159/175
f 125/171/176 152/137/124 153/136/123 126/173/176
f 124/169/177 154/138/125 152/137/124 125/171/177
