# Blender 4.5.3 LTS
# www.blender.org
mtllib Banana.mtl
o Banana_Cylinder
v -0.074556 0.036009 -0.134044
v -0.074215 0.046012 -0.135931
v -0.068962 0.050150 -0.144088
v -0.063014 0.047094 -0.152248
v -0.060768 0.037338 -0.154135
v -0.061109 0.027335 -0.152248
v -0.066362 0.023200 -0.144088
v -0.072310 0.026255 -0.135931
v -0.028584 0.040444 -0.059176
v -0.025382 0.062351 -0.060295
v -0.005849 0.071930 -0.064605
v 0.015156 0.066261 -0.068916
v 0.022483 0.045369 -0.070036
v 0.019279 0.023462 -0.068916
v -0.000252 0.013883 -0.064605
v -0.021257 0.019552 -0.060295
v -0.085200 0.034982 -0.147859
v -0.085692 0.038620 -0.148708
v -0.083844 0.039734 -0.151605
v -0.083309 0.038951 -0.155462
v -0.081574 0.035332 -0.155337
v -0.082394 0.031396 -0.154992
v -0.082961 0.030578 -0.151605
v -0.085411 0.031146 -0.149140
v -0.048197 0.058367 -0.102038
v -0.033449 0.066551 -0.110493
v -0.017410 0.061338 -0.118946
v -0.011134 0.042126 -0.121351
v -0.013625 0.022070 -0.118946
v -0.028373 0.013888 -0.110493
v -0.044412 0.019101 -0.102038
v -0.050688 0.038313 -0.099633
v -0.014366 0.064142 -0.027676
v 0.005710 0.073494 -0.028502
v 0.027204 0.068152 -0.029325
v 0.034934 0.046571 -0.029548
v 0.031469 0.023908 -0.029325
v 0.011390 0.014558 -0.028502
v -0.010102 0.019900 -0.027676
v -0.017834 0.041481 -0.027453
v -0.060614 0.053133 -0.120098
v -0.050683 0.059769 -0.129652
v -0.039670 0.055154 -0.139204
v -0.035302 0.039796 -0.141816
v -0.036655 0.023886 -0.139204
v -0.046586 0.017250 -0.129652
v -0.057600 0.021868 -0.120098
v -0.061968 0.037223 -0.117487
v -0.085632 0.034941 -0.146968
v -0.086150 0.039441 -0.147936
v -0.083950 0.040823 -0.151605
v -0.083016 0.039846 -0.156237
v -0.081142 0.035375 -0.156228
v -0.081936 0.030573 -0.155764
v -0.082855 0.029488 -0.151605
v -0.085704 0.030251 -0.148365
v -0.084761 0.035025 -0.147643
v -0.085152 0.038670 -0.148444
v -0.083357 0.039782 -0.151368
v -0.082769 0.039004 -0.155198
v -0.081134 0.035375 -0.155121
v -0.081852 0.031446 -0.154725
v -0.082476 0.030626 -0.151368
v -0.084871 0.031197 -0.148874
v -0.082879 0.035207 -0.151348
v -0.017884 0.041476 -0.005107
v -0.014456 0.064498 -0.005099
v 0.005760 0.073146 -0.005053
v 0.027253 0.068489 -0.005003
v 0.035010 0.046579 -0.004986
v 0.031582 0.023588 -0.004993
v 0.011373 0.014910 -0.005040
v -0.010122 0.019532 -0.005089
vn -0.1015 -0.8967 -0.4308
vn -0.8254 -0.3208 0.4645
vn -0.2338 -0.9619 0.1417
vn 0.3795 -0.8966 -0.2285
vn 0.8288 -0.1576 -0.5368
vn 0.7835 0.3129 -0.5369
vn 0.2011 0.9526 -0.2285
vn -0.4133 0.8995 0.1417
vn -0.8715 0.1573 0.4645
vn -0.6298 0.4814 0.6096
vn -0.7529 -0.0725 0.6541
vn -0.5262 -0.5927 0.6097
vn 0.0726 -0.7604 0.6454
vn 0.6287 -0.4809 0.6111
vn 0.7516 0.0726 0.6557
vn 0.5252 0.5923 0.6110
vn -0.0741 0.7604 0.6452
vn 0.0110 0.9768 -0.2138
vn 0.1109 0.1615 -0.9806
vn -0.3505 -0.9356 0.0429
vn -0.5368 0.8419 0.0547
vn 0.1280 -0.1651 -0.9779
vn -0.7102 -0.2560 0.6558
vn -0.7475 0.1195 0.6534
vn -0.2723 0.8660 -0.4195
vn -0.8365 0.1624 0.5233
vn -0.4657 0.8807 0.0866
vn 0.0797 0.9204 -0.3827
vn 0.5996 0.2927 -0.7448
vn 0.6445 -0.1728 -0.7448
vn 0.2542 -0.8882 -0.3826
vn -0.2888 -0.9535 0.0866
vn -0.7901 -0.3192 0.5234
vn -0.8927 -0.3263 0.3109
vn -0.2391 -0.9665 0.0937
vn 0.4157 -0.9019 -0.1175
vn 0.9458 -0.1502 -0.2879
vn 0.8997 0.3281 -0.2879
vn 0.2357 0.9647 -0.1176
vn -0.4194 0.9029 0.0937
vn -0.9386 0.1498 0.3109
vn -0.7432 -0.3027 0.5967
vn -0.3456 -0.9354 0.0743
vn 0.0954 -0.8847 -0.4562
vn 0.4426 -0.1814 -0.8782
vn 0.3998 0.2626 -0.8782
vn -0.0754 0.8867 -0.4562
vn -0.5180 0.8522 0.0743
vn -0.7873 0.1551 0.5967
vn -0.8998 -0.1984 -0.3885
vn -0.8449 -0.0329 -0.5339
vn -0.8449 -0.0328 -0.5339
vn -0.9842 0.0243 -0.1753
vn -0.7694 -0.3521 -0.5330
vn -0.8538 0.1106 -0.5088
vn -0.9541 -0.1859 -0.2349
vn -0.7413 -0.1824 -0.6460
vn -0.9340 0.1349 -0.3307
vn -0.4469 0.1701 0.8783
vn -0.0026 -0.9801 0.1984
vn 0.4466 -0.1458 -0.8827
vn 0.4030 0.2699 -0.8745
vn -0.1898 0.9612 0.1999
vn -0.4207 -0.1703 0.8911
vn 0.2064 -0.9501 -0.2339
vn -0.8202 0.0561 -0.5694
vn -0.8540 -0.1403 -0.5011
vn -0.9497 0.0213 -0.3126
vn -0.9326 -0.2433 -0.2666
vn -0.2258 -0.9742 -0.0005
vn 0.4084 -0.9128 -0.0002
vn 0.9888 -0.1493 -0.0048
vn 0.9420 0.3355 -0.0048
vn 0.2266 0.9740 -0.0002
vn -0.4079 0.9130 -0.0005
vn -0.9888 0.1492 -0.0043
vn -0.9421 -0.3354 -0.0043
vt 0.224291 0.072443
vt 0.201769 0.064602
vt 0.221494 0.017029
vt 0.233887 0.018598
vt 0.124752 0.155145
vt 0.090873 0.277422
vt 0.026858 0.259906
vt 0.073978 0.126596
vt 0.165240 0.175186
vt 0.144405 0.296294
vt 0.202614 0.188198
vt 0.192255 0.309807
vt 0.242293 0.192247
vt 0.238296 0.314144
vt 0.282146 0.190804
vt 0.284520 0.312831
vt 0.320285 0.180269
vt 0.333147 0.302480
vt 0.361995 0.162925
vt 0.387797 0.287152
vt 0.414533 0.137761
vt 0.452819 0.273861
vt 0.390959 0.452457
vt 0.004717 0.439993
vt 0.076901 0.442208
vt 0.136050 0.443869
vt 0.186322 0.446098
vt 0.233914 0.447996
vt 0.281526 0.449192
vt 0.331832 0.450245
vt 0.492346 0.220029
vt 0.501723 0.219125
vt 0.501055 0.220531
vt 0.492679 0.221502
vt 0.268034 0.073744
vt 0.246113 0.073989
vt 0.247602 0.021167
vt 0.261190 0.018610
vt 0.178609 0.051060
vt 0.211600 0.009044
vt 0.315165 0.055577
vt 0.291140 0.067457
vt 0.274919 0.018602
vt 0.286472 0.012518
vt 0.158636 0.029692
vt 0.200059 0.000083
vt 0.336398 0.035551
vt 0.296894 0.003432
vt 0.379475 0.081559
vt 0.341665 0.107785
vt 0.307898 0.123025
vt 0.276337 0.131171
vt 0.244292 0.131397
vt 0.212313 0.129080
vt 0.181347 0.118878
vt 0.148649 0.101448
vt 0.112648 0.072815
vt 0.079859 0.376473
vt 0.009499 0.367060
vt 0.138057 0.387040
vt 0.187871 0.395318
vt 0.235524 0.398792
vt 0.283299 0.398443
vt 0.333543 0.393441
vt 0.392306 0.386704
vt 0.463127 0.381914
vt 0.502599 0.247010
vt 0.508559 0.239127
vt 0.510614 0.240094
vt 0.503887 0.249786
vt 0.493174 0.247196
vt 0.492669 0.249668
vt 0.483608 0.243771
vt 0.481297 0.245725
vt 0.482755 0.233702
vt 0.480480 0.233772
vt 0.484002 0.223656
vt 0.481610 0.221831
vt 0.491683 0.217502
vt 0.502937 0.216199
vt 0.508402 0.227514
vt 0.510614 0.226474
vt 0.485136 0.224488
vt 0.484074 0.233661
vt 0.484732 0.242900
vt 0.493546 0.245716
vt 0.501858 0.245663
vt 0.507512 0.238116
vt 0.507549 0.228661
vt 0.495758 0.233507
vt 0.463127 0.454997
s 1
usemtl Banana_color.001
f 6/1/1 7/2/1 55/3/1 54/4/1
f 31/5/2 16/6/2 9/7/2 32/8/2
f 30/9/3 15/10/3 16/6/3 31/5/3
f 29/11/4 14/12/4 15/10/4 30/9/4
f 28/13/5 13/14/5 14/12/5 29/11/5
f 27/15/6 12/16/6 13/14/6 28/13/6
f 26/17/7 11/18/7 12/16/7 27/15/7
f 25/19/8 10/20/8 11/18/8 26/17/8
f 32/21/9 9/22/9 10/20/9 25/19/9
f 67/23/10 66/24/11 73/25/12 72/26/13 71/27/14 70/28/15 69/29/16 68/30/17
f 23/31/18 24/32/18 64/33/18 63/34/18
f 4/35/19 5/36/19 53/37/19 52/38/19
f 7/2/20 8/39/20 56/40/20 55/3/20
f 2/41/21 3/42/21 51/43/21 50/44/21
f 5/36/22 6/1/22 54/4/22 53/37/22
f 8/39/23 1/45/23 49/46/23 56/40/23
f 1/47/24 2/41/24 50/44/24 49/48/24
f 3/42/25 4/35/25 52/38/25 51/43/25
f 48/49/26 32/21/26 25/19/26 41/50/26
f 41/50/27 25/19/27 26/17/27 42/51/27
f 42/51/28 26/17/28 27/15/28 43/52/28
f 43/52/29 27/15/29 28/13/29 44/53/29
f 44/53/30 28/13/30 29/11/30 45/54/30
f 45/54/31 29/11/31 30/9/31 46/55/31
f 46/55/32 30/9/32 31/5/32 47/56/32
f 47/56/33 31/5/33 32/8/33 48/57/33
f 16/6/34 39/58/34 40/59/34 9/7/34
f 15/10/35 38/60/35 39/58/35 16/6/35
f 14/12/36 37/61/36 38/60/36 15/10/36
f 13/14/37 36/62/37 37/61/37 14/12/37
f 12/16/38 35/63/38 36/62/38 13/14/38
f 11/18/39 34/64/39 35/63/39 12/16/39
f 10/20/40 33/65/40 34/64/40 11/18/40
f 9/22/41 40/66/41 33/65/41 10/20/41
f 8/39/42 47/56/42 48/57/42 1/45/42
f 7/2/43 46/55/43 47/56/43 8/39/43
f 6/1/44 45/54/44 46/55/44 7/2/44
f 5/36/45 44/53/45 45/54/45 6/1/45
f 4/35/46 43/52/46 44/53/46 5/36/46
f 3/42/47 42/51/47 43/52/47 4/35/47
f 2/41/48 41/50/48 42/51/48 3/42/48
f 1/47/49 48/49/49 41/50/49 2/41/49
f 18/67/50 17/68/50 49/69/50 50/70/50
f 19/71/51 18/67/52 50/70/51 51/72/52
f 20/73/53 19/71/53 51/72/53 52/74/53
f 21/75/54 20/73/54 52/74/54 53/76/54
f 22/77/55 21/75/55 53/76/55 54/78/55
f 23/31/56 22/77/56 54/78/56 55/79/56
f 24/32/57 23/31/57 55/79/57 56/80/57
f 17/81/58 24/32/58 56/80/58 49/82/58
f 21/75/59 22/77/59 62/83/59 61/84/59
f 19/71/60 20/73/60 60/85/60 59/86/60
f 17/68/61 18/67/61 58/87/61 57/88/61
f 24/32/62 17/81/62 57/89/62 64/33/62
f 22/77/63 23/31/63 63/34/63 62/83/63
f 20/73/64 21/75/64 61/84/64 60/85/64
f 18/67/65 19/71/65 59/86/65 58/87/65
f 63/34/66 64/33/66 57/89/66 65/90/66
f 57/88/67 58/87/67 59/86/67 65/90/67
f 61/84/68 62/83/68 63/34/68 65/90/68
f 60/85/69 61/84/69 65/90/69 59/86/69
f 38/60/70 72/26/13 73/25/12 39/58/70
f 37/61/71 71/27/14 72/26/13 38/60/71
f 36/62/72 70/28/15 71/27/14 37/61/72
f 35/63/73 69/29/16 70/28/15 36/62/73
f 34/64/74 68/30/17 69/29/16 35/63/74
f 33/65/75 67/23/10 68/30/17 34/64/75
f 40/66/76 66/91/11 67/23/10 33/65/76
f 39/58/77 73/25/12 66/24/11 40/59/77
