# Blender 4.5.3 LTS
# www.blender.org
mtllib Banana.mtl
o Banana_Cylinder.001
v -0.060259 0.037389 0.110167
v -0.059388 0.045026 0.112834
v -0.055841 0.048498 0.119273
v -0.051696 0.045767 0.125710
v -0.049382 0.038438 0.128376
v -0.050254 0.030801 0.125710
v -0.053801 0.027328 0.119273
v -0.057946 0.030057 0.112834
v -0.030854 0.040226 0.063291
v -0.026719 0.063681 0.064992
v -0.007358 0.070197 0.070313
v 0.012893 0.067502 0.075631
v 0.021432 0.045268 0.077333
v 0.017297 0.021813 0.075631
v -0.002066 0.015297 0.070313
v -0.022315 0.017992 0.064992
v -0.017933 0.041471 0.023453
v -0.014546 0.064854 0.024339
v 0.005815 0.072762 0.027663
v 0.027312 0.068891 0.030987
v 0.035102 0.046588 0.031875
v 0.031716 0.023205 0.030987
v 0.011354 0.015297 0.027663
v -0.010142 0.019166 0.024339
v -0.119604 0.028478 0.148834
v -0.120274 0.028413 0.147715
v -0.115598 0.028864 0.155539
v -0.111593 0.029250 0.162247
v -0.110926 0.029315 0.163366
v -0.041748 0.039174 0.084293
v -0.038698 0.060705 0.087634
v -0.023762 0.066208 0.097716
v -0.008050 0.063662 0.107799
v -0.000946 0.043110 0.111139
v -0.003994 0.021580 0.107799
v -0.018929 0.016074 0.097716
v -0.034642 0.018623 0.087634
v -0.048917 0.038483 0.095379
v -0.047218 0.055991 0.099046
v -0.037111 0.059349 0.110340
v -0.026551 0.057983 0.121632
v -0.021538 0.041123 0.125299
v -0.023237 0.023615 0.121632
v -0.033343 0.020255 0.110340
v -0.043906 0.021621 0.099046
v -0.091294 0.028410 0.134357
v -0.099384 0.025842 0.136282
v -0.097394 0.033755 0.132130
v -0.092868 0.034242 0.132883
v -0.099110 0.041200 0.135178
v -0.092438 0.040269 0.134357
v -0.089657 0.042158 0.139524
v -0.093374 0.043826 0.141617
v -0.090686 0.041831 0.150096
v -0.086345 0.040857 0.144559
v -0.085200 0.028998 0.144559
v -0.089162 0.026500 0.150072
v -0.091735 0.024551 0.141747
v -0.088205 0.027088 0.139524
v -0.087650 0.034542 0.151075
v -0.084950 0.035008 0.146141
v -0.017885 0.041476 0.002071
v -0.014457 0.064503 0.002071
v 0.005760 0.073142 0.002071
v 0.027254 0.068491 0.002071
v 0.035010 0.046579 0.002071
v 0.031582 0.023586 0.002071
v 0.011373 0.014913 0.002071
v -0.010122 0.019528 0.002071
vn -0.7968 0.2229 -0.5616
vn -0.5321 0.8424 0.0852
vn -0.3078 0.8388 0.4491
vn 0.0544 0.2683 0.9618
vn 0.1047 -0.2529 0.9618
vn -0.1418 -0.8821 0.4492
vn -0.4729 -0.4351 -0.7662
vn -0.3613 -0.9285 0.0852
vn -0.7396 -0.3709 -0.5616
vn -0.8933 -0.3443 -0.2888
vn -0.1433 -0.9880 -0.0580
vn 0.3230 -0.9423 0.0880
vn 0.9426 -0.1673 0.2888
vn 0.8933 0.3443 0.2888
vn 0.1370 0.9867 0.0880
vn -0.7494 -0.0722 -0.6582
vn -0.6230 0.4851 -0.6137
vn -0.0732 0.7616 -0.6439
vn 0.5182 0.5949 -0.6145
vn 0.7493 0.0722 -0.6582
vn 0.6224 -0.4849 -0.6144
vn 0.0737 -0.7615 -0.6440
vn -0.5188 -0.5952 -0.6136
vn -0.3296 0.9423 -0.0580
vn -0.9426 0.1673 -0.2889
vn -0.9894 0.1454 -0.0043
vn -0.3776 0.9260 0.0003
vn 0.1945 0.9809 -0.0008
vn 0.9434 0.3316 -0.0047
vn 0.9894 -0.1453 -0.0047
vn 0.3784 -0.9257 -0.0007
vn -0.1936 -0.9811 0.0003
vn -0.9434 -0.3317 -0.0043
vn -0.6172 0.3143 -0.7213
vn -0.3980 0.8773 0.2683
vn -0.0517 -0.9832 0.1753
vn 0.3103 0.4084 0.8585
vn -0.1273 -0.9907 0.0483
vn -0.4688 0.8708 0.1479
vn 0.4583 -0.3383 0.8219
vn -0.8244 -0.3535 -0.4420
vn -0.1252 -0.9911 -0.0451
vn 0.2559 -0.9512 0.1726
vn 0.8216 -0.1914 0.5369
vn 0.7700 0.3448 0.5369
vn 0.0693 0.9826 0.1726
vn -0.3123 0.9489 -0.0451
vn -0.8768 0.1896 -0.4420
vn -0.7733 -0.3495 -0.5290
vn -0.2119 -0.9738 0.0821
vn 0.0697 -0.9477 0.3114
vn 0.5617 -0.2119 0.7997
vn 0.5109 0.3153 0.7998
vn -0.1128 0.9436 0.3114
vn -0.3941 0.9154 0.0822
vn -0.8258 0.1954 -0.5290
vn 0.4572 -0.2984 0.8378
vn 0.8510 -0.1963 0.4870
vn -0.3106 0.9160 -0.2538
vn 0.1051 0.8983 -0.4266
vn -0.1297 -0.9585 -0.2537
vn 0.2246 -0.8692 -0.4405
vn 0.3917 0.3803 0.8378
vn 0.7814 0.3625 0.5079
vn 0.2055 -0.9261 0.3164
vn 0.2059 -0.9259 0.3168
vn 0.5612 -0.8277 0.0048
vn 0.0252 0.9481 0.3169
vn 0.3653 0.9286 0.0643
vn -0.5586 0.2888 -0.7775
vn 0.0069 0.3188 -0.9478
vn -0.4931 -0.3902 -0.7775
vn 0.0060 -0.3784 -0.9256
vn 0.0061 -0.3784 -0.9256
vt 0.378970 0.769438
vt 0.343943 0.823099
vt 0.314949 0.813600
vt 0.332023 0.741730
vt 0.283908 0.808320
vt 0.292479 0.730246
vt 0.252525 0.806260
vt 0.260123 0.718543
vt 0.222307 0.802838
vt 0.225115 0.717347
vt 0.192026 0.804273
vt 0.190114 0.716270
vt 0.160678 0.804341
vt 0.157071 0.725857
vt 0.484148 0.167283
vt 0.485654 0.143925
vt 0.543974 0.125331
vt 0.544915 0.128530
vt 0.129259 0.807639
vt 0.116837 0.734750
vt 0.099619 0.815271
vt 0.068125 0.759354
vt 0.073951 0.507750
vt 0.089142 0.627110
vt 0.019539 0.648389
vt 0.000083 0.510660
vt 0.133843 0.506349
vt 0.139600 0.610790
vt 0.184472 0.506772
vt 0.183369 0.600326
vt 0.231951 0.507999
vt 0.229003 0.598190
vt 0.279405 0.509875
vt 0.274398 0.603295
vt 0.329948 0.512762
vt 0.317385 0.616589
vt 0.463127 0.455882
vt 0.390943 0.453223
vt 0.331816 0.450769
vt 0.281513 0.449541
vt 0.233904 0.448296
vt 0.186312 0.446426
vt 0.136032 0.444363
vt 0.076868 0.442944
vt 0.389615 0.518074
vt 0.366662 0.636166
vt 0.463127 0.525810
vt 0.434702 0.661950
vt 0.004659 0.440876
vt 0.476720 0.019715
vt 0.484254 0.000083
vt 0.544915 0.039003
vt 0.543925 0.042187
vt 0.464855 0.062281
vt 0.464084 0.038988
vt 0.537985 0.061280
vt 0.532142 0.080403
vt 0.469723 0.125632
vt 0.469133 0.102813
vt 0.532803 0.086932
vt 0.538329 0.106149
vt 0.463293 0.082559
vt 0.531882 0.083727
vt 0.106817 0.694653
vt 0.047557 0.721608
vt 0.150315 0.681027
vt 0.187017 0.671856
vt 0.226623 0.671126
vt 0.266098 0.674427
vt 0.302122 0.685963
vt 0.344625 0.702390
vt 0.401956 0.733149
vt 0.216894 0.970644
vt 0.191393 0.968917
vt 0.215677 0.990196
vt 0.191587 0.995724
vt 0.292055 0.973402
vt 0.267298 0.972579
vt 0.294761 0.998710
vt 0.266433 0.988553
vt 0.166170 0.969305
vt 0.141594 0.968004
vt 0.165634 0.986350
vt 0.137450 0.999917
vt 0.242255 0.970275
vt 0.238885 0.996398
vt 0.316580 0.973307
vt 0.320569 0.988408
vt 0.117308 0.966599
vt 0.112904 0.981608
s 1
usemtl Banana_color.001
f 38/1/1 1/2/1 2/3/1 39/4/1
f 39/4/2 2/3/2 3/5/2 40/6/2
f 40/6/3 3/5/3 4/7/3 41/8/3
f 41/8/4 4/7/4 5/9/4 42/10/4
f 42/10/5 5/9/5 6/11/5 43/12/5
f 43/12/6 6/11/6 7/13/6 44/14/6
f 48/15/7 47/16/7 25/17/7 26/18/7
f 44/14/8 7/13/8 8/19/8 45/20/8
f 45/20/9 8/19/9 1/21/9 38/22/9
f 24/23/10 16/24/10 9/25/10 17/26/10
f 23/27/11 15/28/11 16/24/11 24/23/11
f 22/29/12 14/30/12 15/28/12 23/27/12
f 21/31/13 13/32/13 14/30/13 22/29/13
f 20/33/14 12/34/14 13/32/14 21/31/14
f 19/35/15 11/36/15 12/34/15 20/33/15
f 62/37/16 63/38/17 64/39/18 65/40/19 66/41/20 67/42/21 68/43/22 69/44/23
f 18/45/24 10/46/24 11/36/24 19/35/24
f 17/47/25 9/48/25 10/46/25 18/45/25
f 62/37/16 17/47/26 18/45/26 63/38/17
f 63/38/17 18/45/27 19/35/27 64/39/18
f 64/39/18 19/35/28 20/33/28 65/40/19
f 65/40/19 20/33/29 21/31/29 66/41/20
f 66/41/20 21/31/30 22/29/30 67/42/21
f 67/42/21 22/29/31 23/27/31 68/43/22
f 68/43/22 23/27/32 24/23/32 69/44/23
f 69/44/23 24/23/33 17/26/33 62/49/16
f 50/50/34 48/51/34 26/52/34 25/53/34
f 54/54/35 53/55/35 27/56/35 28/57/35
f 58/58/36 57/59/36 28/60/36 27/61/36
f 60/62/37 54/54/37 28/57/37 29/63/37
f 47/16/38 58/58/38 27/61/38 25/17/38
f 53/55/39 50/50/39 25/53/39 27/56/39
f 57/59/40 60/62/40 29/63/40 28/60/40
f 16/24/41 37/64/41 30/65/41 9/25/41
f 15/28/42 36/66/42 37/64/42 16/24/42
f 14/30/43 35/67/43 36/66/43 15/28/43
f 13/32/44 34/68/44 35/67/44 14/30/44
f 12/34/45 33/69/45 34/68/45 13/32/45
f 11/36/46 32/70/46 33/69/46 12/34/46
f 10/46/47 31/71/47 32/70/47 11/36/47
f 9/48/48 30/72/48 31/71/48 10/46/48
f 37/64/49 45/20/49 38/22/49 30/65/49
f 36/66/50 44/14/50 45/20/50 37/64/50
f 35/67/51 43/12/51 44/14/51 36/66/51
f 34/68/52 42/10/52 43/12/52 35/67/52
f 33/69/53 41/8/53 42/10/53 34/68/53
f 32/70/54 40/6/54 41/8/54 33/69/54
f 31/71/55 39/4/55 40/6/55 32/70/55
f 30/72/56 38/1/56 39/4/56 31/71/56
f 6/11/57 5/9/57 61/73/57 56/74/57
f 56/74/58 61/73/58 60/75/58 57/76/58
f 3/5/59 2/3/59 51/77/59 52/78/59
f 52/78/60 51/77/60 50/79/60 53/80/60
f 8/19/61 7/13/61 59/81/61 46/82/61
f 46/82/62 59/81/62 58/83/62 47/84/62
f 5/9/63 4/7/63 55/85/63 61/73/63
f 61/73/64 55/85/64 54/86/64 60/75/64
f 7/13/65 6/11/66 56/74/65 59/81/66
f 59/81/67 56/74/67 57/76/67 58/83/67
f 4/7/68 3/5/68 52/78/68 55/85/68
f 55/85/69 52/78/69 53/80/69 54/86/69
f 2/3/70 1/2/70 49/87/70 51/77/70
f 51/77/71 49/87/71 48/88/71 50/79/71
f 1/21/72 8/19/72 46/82/72 49/89/72
f 49/89/73 46/82/73 47/84/74 48/90/74
