# Blender 4.5.3 LTS
# www.blender.org
mtllib apple.mtl
o Apple
v -0.073281 0.016386 -0.022656
v -0.069165 0.013340 0.012721
v -0.054118 0.011561 -0.007934
v -0.058328 0.011343 0.017169
v -0.064883 0.016249 0.022741
v -0.045333 0.013053 0.004120
v -0.098566 0.058544 -0.020151
v -0.062652 0.041904 -0.052230
v -0.066672 0.074694 -0.061964
v -0.066247 0.085805 0.054341
v -0.068887 0.070429 0.055412
v -0.041416 0.039592 0.050675
v -0.076953 0.099364 0.038888
v -0.083986 0.085242 0.040747
v -0.098125 0.073526 0.026113
v -0.055718 0.103215 -0.052397
v -0.093059 0.101650 -0.007279
v -0.039641 0.112561 -0.027710
v -0.052383 0.092489 -0.060752
v -0.087338 0.102713 0.018806
v -0.093877 0.100569 0.006924
v -0.063216 0.112404 0.003343
v -0.094296 0.089778 -0.030918
v -0.063916 0.015644 -0.029637
v -0.046539 0.011734 -0.020679
v -0.050216 0.023598 0.037954
v -0.094487 0.091278 0.023309
v -0.058370 0.111838 -0.035884
v -0.040235 0.016902 -0.003016
v -0.078038 0.035082 0.029310
v -0.099239 0.093091 -0.009090
v -0.040363 0.105701 -0.002616
v -0.085666 0.029236 0.000898
v -0.071937 0.063719 -0.057635
v -0.075181 0.112286 -0.000199
v -0.056207 0.112405 0.029408
v -0.058706 0.009383 0.003678
v -0.087844 0.032282 -0.009658
v -0.103368 0.075883 0.014051
v -0.105069 0.076329 -0.006529
v -0.085375 0.054402 -0.040403
v -0.047970 0.072167 -0.064939
v -0.050169 0.075647 0.061121
v -0.077331 0.100994 -0.043210
v -0.049483 0.096591 0.054466
v -0.065475 0.098902 0.047545
v -0.071729 0.014359 -0.015244
v -0.065458 0.011746 -0.003098
v -0.095765 0.047679 -0.003604
v -0.103280 0.061089 -0.005074
v -0.064157 0.054420 0.051599
v -0.091936 0.070365 -0.041390
v -0.078867 0.085032 -0.052617
v -0.069270 0.108850 -0.038008
v -0.066305 0.108441 0.034629
v -0.059132 0.010239 -0.020684
v -0.050526 0.032385 -0.050177
v -0.085550 0.033190 0.013154
v -0.087611 0.039346 -0.028320
v -0.060884 0.033723 0.043466
v -0.094881 0.055100 0.018862
v -0.102047 0.087430 0.004060
v -0.103802 0.069338 -0.014807
v -0.079973 0.057326 -0.048829
v -0.066596 0.088997 -0.058581
v -0.077921 0.075777 0.048906
v -0.044174 0.108536 -0.001621
v -0.053413 0.064850 0.059476
v -0.085218 0.072217 -0.049493
v -0.087488 0.091917 -0.040451
v -0.084336 0.105356 -0.024319
v -0.045090 0.109978 0.040563
v -0.082156 0.109405 0.004838
v -0.076235 0.038280 -0.042236
v -0.042178 0.012840 0.020463
v -0.100008 0.057398 0.008150
v -0.052804 0.058052 -0.061957
v -0.079672 0.062523 0.044886
v -0.039988 0.015589 -0.035649
v -0.040012 0.014667 -0.032470
v -0.039953 0.018235 -0.038368
v -0.040085 0.011187 -0.023946
v -0.040111 0.011520 -0.018950
v -0.040338 0.023116 0.037719
v -0.040310 0.032282 0.044936
v -0.040289 0.038834 0.049832
v -0.040285 0.039866 0.050609
v -0.040330 0.018617 0.030211
v -0.040314 0.012361 0.018877
v -0.040255 0.011998 0.007758
v -0.040218 0.012975 0.002374
v -0.039662 0.044119 -0.056441
v -0.039728 0.037483 -0.053348
v -0.040270 0.042839 0.051794
v -0.039253 0.108262 -0.044546
v -0.039246 0.106148 -0.048530
v -0.039269 0.096281 -0.057547
v -0.039259 0.099791 -0.054793
v -0.039716 0.109134 0.040551
v -0.039773 0.105355 0.045732
v -0.039557 0.112497 0.016374
v -0.039524 0.110097 0.006986
v -0.039596 0.112488 0.023135
v -0.039561 0.112484 0.016889
v -0.039860 0.025651 -0.045333
v -0.040321 0.012765 0.020890
v -0.039506 0.060317 -0.062939
v -0.039459 0.065888 -0.064040
v -0.040165 0.061892 0.058390
v -0.040136 0.066247 0.059111
v -0.039365 0.079249 -0.063222
v -0.039400 0.073601 -0.064327
v -0.039298 0.089999 -0.060945
v -0.040011 0.083279 0.059276
v -0.039917 0.093452 0.055751
v -0.040057 0.078300 0.060864
v -0.039855 0.099164 0.052265
v -0.039471 0.108535 -0.004712
v -0.039490 0.106717 -0.003731
v -0.039340 0.111854 -0.023849
v -0.039313 0.112559 -0.027770
v -0.039282 0.112109 -0.033992
v -0.039315 0.112571 -0.027446
v -0.039502 0.106579 -0.001707
v -0.039689 0.110512 0.037451
v -0.039615 0.112604 0.027019
v -0.039495 0.108763 -0.000076
vn -0.1661 -0.5685 -0.8057
vn -0.2885 -0.7810 -0.5539
vn -0.5667 -0.4856 -0.6656
vn 0.6527 -0.7255 -0.2181
vn 0.0024 -0.9977 -0.0675
vn 0.6038 -0.6782 -0.4189
vn 0.5832 -0.7930 -0.1759
vn 0.7206 -0.6890 -0.0769
vn 0.6430 -0.7476 0.1664
vn -0.8393 -0.5373 -0.0835
vn -0.8070 -0.4421 -0.3915
vn -0.5948 -0.7398 -0.3145
vn -0.5467 -0.8357 -0.0522
vn -0.5294 -0.8159 0.2326
vn -0.2704 -0.9622 -0.0328
vn -0.0445 -0.9987 -0.0238
vn -0.0700 -0.9687 -0.2383
vn 0.7687 -0.3850 0.5107
vn 0.0025 -0.4844 0.8748
vn 0.6998 -0.4427 0.5606
vn -0.3729 -0.5257 0.7646
vn -0.6830 -0.4944 0.5377
vn -0.4152 -0.7450 0.5220
vn -0.8832 -0.3470 -0.3154
vn -0.9454 -0.3247 -0.0273
vn -0.9603 -0.0769 -0.2680
vn -0.9609 0.0315 0.2751
vn -0.9237 0.3675 0.1087
vn -0.9909 0.1062 -0.0833
vn -0.9014 -0.3697 0.2252
vn -0.8011 -0.5925 0.0853
vn -0.7986 -0.5177 0.3069
vn 0.6765 -0.3519 -0.6469
vn -0.1705 -0.3047 -0.9371
vn 0.6827 -0.3059 -0.6635
vn -0.3446 0.0212 -0.9385
vn -0.0889 0.4138 -0.9060
vn -0.0550 0.0100 -0.9984
vn -0.6691 -0.2804 0.6883
vn -0.1146 0.0663 0.9912
vn -0.1233 0.5339 0.8365
vn -0.4093 0.2970 0.8627
vn -0.4593 -0.0966 0.8830
vn -0.1642 -0.2407 0.9566
vn -0.8407 0.3754 -0.3902
vn -0.8724 0.4664 -0.1462
vn -0.8350 -0.0895 -0.5430
vn -0.7273 0.4224 -0.5409
vn -0.6970 -0.0301 -0.7164
vn -0.3612 0.3847 -0.8495
vn -0.5962 0.2776 -0.7533
vn -0.5225 0.6397 -0.5636
vn -0.4437 -0.3270 -0.8344
vn -0.6974 0.2752 0.6617
vn -0.5637 0.5933 0.5746
vn -0.7402 0.6576 0.1402
vn -0.7985 0.4271 0.4241
vn -0.8579 -0.0542 0.5110
vn -0.8226 -0.4084 0.3956
vn -0.0999 0.9617 -0.2551
vn -0.1541 0.7270 -0.6692
vn -0.3224 0.8715 -0.3695
vn -0.5697 0.7862 -0.2393
vn -0.2354 0.9719 -0.0051
vn -0.0103 0.9999 0.0089
vn 0.0314 0.9995 -0.0035
vn 0.2236 0.9741 -0.0339
vn 0.6740 0.6045 -0.4247
vn 0.6867 0.6586 -0.3077
vn -0.0348 0.8804 0.4729
vn -0.1165 0.9767 0.1804
vn -0.3268 0.8553 0.4020
vn -0.3628 0.6024 0.7110
vn -0.6925 0.7147 -0.0977
vn -0.4496 0.8887 0.0895
vn -0.3488 -0.4457 -0.8244
vn 0.6656 -0.4897 -0.5631
vn 0.6414 -0.5498 -0.5351
vn 0.1620 -0.9868 0.0084
vn -0.1168 -0.9379 0.3266
vn 0.1387 -0.9769 -0.1624
vn -0.1290 -0.7287 0.6726
vn -0.0592 -0.9484 0.3116
vn 0.6176 -0.7236 0.3083
vn 0.6883 -0.6215 0.3741
vn 0.6347 0.7658 0.1035
vn 0.7431 0.6584 0.1197
vn 0.7274 0.6078 0.3185
vn 0.7424 0.4163 0.5249
vn 0.5725 0.6084 -0.5496
vn 0.6780 0.6499 -0.3435
vn 0.7434 0.6503 -0.1566
vn 0.6929 0.7195 -0.0470
vn 0.7031 0.7110 0.0097
vn 0.7030 0.7112 -0.0046
vn 0.6845 0.7267 0.0575
vn 0.7063 0.6807 0.1943
vn 0.7333 0.5839 0.3484
vn 0.6927 0.5325 0.4864
vn 0.6785 0.4736 0.5615
vn 0.6868 0.2895 0.6668
vn 0.6857 0.2188 0.6942
vn 0.6556 0.0853 0.7503
vn 0.7198 -0.1145 0.6846
vn 0.6937 -0.1897 0.6949
vn 0.7057 -0.2384 0.6672
vn 0.7341 -0.3261 0.5956
vn 0.6572 -0.5689 0.4944
vn 0.6148 -0.7860 0.0646
vn 0.6125 -0.7901 -0.0220
vn 0.5992 -0.7250 -0.3397
vn 0.6790 -0.2065 -0.7045
vn 0.6897 -0.1124 -0.7154
vn 0.7045 0.0597 -0.7072
vn 0.7178 0.1370 -0.6827
vn 0.6967 0.2331 -0.6784
vn 0.7055 0.3985 -0.5861
vn 0.7071 0.4613 -0.5359
vn 0.6826 0.7164 -0.1443
vn 0.7045 0.7087 -0.0366
vn -0.8869 -0.4615 -0.0225
vn -0.6102 -0.3419 -0.7147
vn -0.7691 -0.3359 -0.5437
vn -0.3919 -0.3768 0.8393
vn -0.6501 0.0599 0.7575
vn -0.6017 0.7339 0.3152
vn 0.1021 0.9922 0.0718
vt 0.538268 0.308388
vt 0.600410 0.203313
vt 0.616447 0.344977
vt 0.510412 0.168757
vt 0.566655 0.097128
vt 0.501192 0.192087
vt 0.515151 0.117932
vt 0.491332 0.014526
vt 0.498779 0.093774
vt 0.724758 0.303468
vt 0.671884 0.357446
vt 0.656272 0.219342
vt 0.691752 0.185485
vt 0.820894 0.176812
vt 0.739347 0.132124
vt 0.818965 0.105140
vt 0.631074 0.135343
vt 0.019014 0.344500
vt 0.015999 0.349637
vt 0.019157 0.292957
vt 0.930227 0.315072
vt 0.863594 0.316306
vt 0.878000 0.196176
vt 0.705292 0.451301
vt 0.747307 0.471552
vt 0.720391 0.519155
vt 0.787239 0.553374
vt 0.767324 0.616023
vt 0.744515 0.561234
vt 0.775639 0.447077
vt 0.764090 0.279051
vt 0.804200 0.306381
vt 0.500405 0.334766
vt 0.533605 0.453068
vt 0.497048 0.372033
vt 0.567550 0.545415
vt 0.536377 0.645049
vt 0.515786 0.535275
vt 0.883824 0.469410
vt 0.975248 0.552471
vt 0.975294 0.666175
vt 0.933979 0.609656
vt 0.930151 0.523766
vt 0.968613 0.488904
vt 0.675926 0.625428
vt 0.733319 0.642659
vt 0.653409 0.522052
vt 0.638852 0.636705
vt 0.622463 0.533270
vt 0.570272 0.621636
vt 0.605272 0.600081
vt 0.619462 0.695034
vt 0.581293 0.486459
vt 0.874799 0.604063
vt 0.882940 0.683062
vt 0.777830 0.695884
vt 0.824276 0.641375
vt 0.826444 0.541493
vt 0.814180 0.442520
vt 0.579497 0.795689
vt 0.546740 0.715105
vt 0.612506 0.750067
vt 0.679307 0.733610
vt 0.761852 0.824438
vt 0.501092 0.885540
vt 0.796627 0.893212
vt 0.786040 0.974989
vt 0.496498 0.744567
vt 0.502255 0.764402
vt 0.986910 0.772406
vt 0.932009 0.812144
vt 0.903384 0.757046
vt 0.928503 0.680303
vt 0.736342 0.699395
vt 0.783655 0.767506
vt 0.568618 0.364699
vt 0.495958 0.269437
vt 0.500004 0.209643
vt 0.694521 0.074120
vt 0.883174 0.140818
vt 0.879996 0.039243
vt 0.998562 0.335449
vt 0.953579 0.243820
vt 0.987528 0.118677
vt 0.026774 0.136398
vt 0.022086 0.183713
vt 0.020701 0.134633
vt 0.498367 0.885291
vt 0.485541 0.901188
vt 0.504824 0.974719
vt 0.554460 0.982458
vt 0.825432 0.984770
vt 1.007284 0.977817
vt 0.872394 0.939808
vt 0.957360 0.886988
vt 0.965225 0.874796
vt 0.063493 0.879283
vt 0.081031 0.838869
vt 0.043622 0.789676
vt 0.035773 0.775364
vt 0.999451 0.735864
vt 0.998801 0.686776
vt 0.994145 0.652975
vt 0.993759 0.596955
vt 0.993967 0.569961
vt 0.993416 0.506110
vt 0.993124 0.481366
vt 0.016320 0.368024
vt 0.018154 0.350909
vt 1.002450 0.291187
vt 1.000580 0.236338
vt 0.997449 0.118312
vt 1.000392 0.109787
vt 0.950894 0.054546
vt 0.936062 0.035739
vt 0.498311 0.467081
vt 0.496097 0.499401
vt 0.495658 0.542043
vt 0.495520 0.574402
vt 0.499917 0.632681
vt 0.498009 0.672729
vt 0.498159 0.695880
vt 0.494371 0.804314
vt 0.499555 0.884496
vt 0.749545 0.404511
vt 0.609580 0.459323
vt 0.640504 0.433273
vt 0.933678 0.439657
vt 0.900955 0.555267
vt 0.995806 0.359110
vt 0.997152 0.377533
vt 0.818638 0.714594
vt 0.633765 0.986832
vt 0.495574 0.983401
vt 0.025170 0.785129
vt 0.050001 0.858821
vt 0.715241 0.986913
vt 0.606727 0.982510
vt 0.983913 0.862799
vt 0.023811 0.744261
vt 0.998755 0.184668
s 1
usemtl Material.002
f 57/1/1 24/2/2 74/3/3
f 80/4/4 25/5/5 24/2/2 79/6/6
f 82/7/7 25/5/5 80/4/4
f 29/8/8 25/5/5 83/9/9
f 38/10/10 59/11/11 1/12/12
f 38/10/10 1/12/12 47/13/13
f 2/14/14 48/15/15 37/16/16
f 48/15/15 47/13/13 56/17/17
f 86/18/18 12/19/19 85/20/20
f 60/21/21 30/22/22 5/23/23
f 5/23/23 30/22/22 2/14/14
f 7/24/24 50/25/25 63/26/26
f 39/27/27 62/28/28 40/29/29
f 76/30/30 33/31/31 58/32/32
f 93/33/33 57/1/1 77/34/34 92/35/35
f 9/36/36 19/37/37 42/38/38
f 30/22/22 60/21/21 78/39/39
f 43/40/40 45/41/41 10/42/42
f 11/43/43 68/44/44 43/40/40
f 63/26/26 40/29/29 23/45/45
f 31/46/46 23/45/45 40/29/29
f 52/47/47 63/26/26 23/45/45
f 52/47/47 70/48/48 69/49/49
f 65/50/50 53/51/51 44/52/52
f 9/36/36 34/53/53 69/49/49
f 53/51/51 9/36/36 69/49/49
f 14/54/54 10/42/42 13/55/55
f 62/28/28 21/56/56 31/46/46
f 27/57/57 62/28/28 39/27/27
f 39/27/27 15/58/58 27/57/57
f 15/58/58 39/27/27 61/59/59
f 28/60/60 16/61/61 54/62/62
f 16/61/61 65/50/50 44/52/52
f 65/50/50 16/61/61 19/37/37
f 54/62/62 71/63/63 35/64/64
f 18/65/65 22/66/66 67/67/67
f 18/65/65 28/60/60 22/66/66
f 96/68/68 16/61/61 28/60/60 95/69/69
f 72/70/70 36/71/71 55/72/72
f 72/70/70 46/73/73 45/41/41
f 17/74/74 31/46/46 21/56/56
f 21/56/56 73/75/75 17/74/74
f 55/72/72 36/71/71 73/75/75
f 74/3/3 8/76/76 57/1/1
f 1/12/12 74/3/3 24/2/2
f 74/3/3 1/12/12 59/11/11
f 56/17/17 24/2/2 25/5/5
f 56/17/17 1/12/12 24/2/2
f 105/77/77 81/78/78 57/1/1
f 93/33/33 105/77/77 57/1/1
f 83/9/9 25/5/5 82/7/7
f 3/79/79 25/5/5 29/8/8
f 56/17/17 25/5/5 3/79/79
f 47/13/13 1/12/12 56/17/17
f 47/13/13 48/15/15 2/14/14
f 2/14/14 33/31/31 47/13/13
f 47/13/13 33/31/31 38/10/10
f 30/22/22 58/32/32 2/14/14
f 58/32/32 33/31/31 2/14/14
f 2/14/14 37/16/16 4/80/80
f 3/79/79 37/16/16 48/15/15
f 29/8/8 6/81/81 3/79/79
f 37/16/16 3/79/79 6/81/81
f 3/79/79 48/15/15 56/17/17
f 12/82/19 60/21/21 26/83/82
f 75/84/83 26/83/82 4/80/80
f 106/85/84 88/86/85 75/87/83
f 26/83/82 60/21/21 5/23/23
f 4/80/80 26/83/82 5/23/23
f 5/23/23 2/14/14 4/80/80
f 37/16/16 75/84/83 4/80/80
f 37/16/16 6/81/81 75/84/83
f 123/88/86 120/89/87 118/90/88 119/91/89 124/92/90 127/93/91 102/94/92 101/95/93 104/96/94 103/97/95 126/98/96 125/99/97 99/100/98 100/101/99 117/102/100 115/103/101 114/104/102 116/105/103 110/106/104 109/107/105 94/108/106 87/109/107 86/18/18 85/110/20 84/111/108 88/86/85 106/112/84 89/113/109 90/114/110 91/115/111 29/8/8 83/9/9 82/7/7 80/4/4 79/6/6 81/78/78 105/77/77 93/33/33 92/35/35 107/116/112 108/117/113 112/118/114 111/119/115 113/120/116 97/121/117 98/122/118 96/68/68 95/69/69 122/123/119 121/124/120
f 106/112/84 75/84/83 89/113/109
f 59/11/11 38/10/10 7/24/24
f 7/24/24 38/10/10 49/125/121
f 38/10/10 33/31/31 49/125/121
f 49/125/121 33/31/31 76/30/30
f 50/25/25 49/125/121 76/30/30
f 7/24/24 49/125/121 50/25/25
f 76/30/30 61/59/59 39/27/27
f 62/28/28 31/46/46 40/29/29
f 50/25/25 76/30/30 39/27/27
f 50/25/25 39/27/27 40/29/29
f 63/26/26 50/25/25 40/29/29
f 30/22/22 61/59/59 76/30/30
f 76/30/30 58/32/32 30/22/22
f 107/116/112 77/34/34 42/38/38 108/117/113
f 8/76/76 77/34/34 57/1/1
f 77/34/34 8/76/76 64/126/122
f 77/34/34 64/126/122 34/53/53
f 65/50/50 19/37/37 9/36/36
f 9/36/36 42/38/38 77/34/34
f 77/34/34 34/53/53 9/36/36
f 64/126/122 8/76/76 74/3/3
f 74/3/3 41/127/123 64/126/122
f 60/21/21 51/128/124 78/39/39
f 60/21/21 12/82/19 51/128/124
f 51/128/124 12/82/19 68/44/44
f 51/128/124 68/44/44 11/43/43
f 11/43/43 78/39/39 51/128/124
f 11/43/43 43/40/40 10/42/42
f 66/129/125 78/39/39 11/43/43
f 109/107/105 68/44/44 12/130/19 94/131/106
f 23/45/45 70/48/48 52/47/47
f 70/48/48 53/51/51 69/49/49
f 9/36/36 53/51/51 65/50/50
f 44/52/52 53/51/51 70/48/48
f 52/47/47 69/49/49 64/126/122
f 69/49/49 34/53/53 64/126/122
f 52/47/47 64/126/122 41/127/123
f 41/127/123 7/24/24 52/47/47
f 74/3/3 59/11/11 41/127/123
f 41/127/123 59/11/11 7/24/24
f 7/24/24 63/26/26 52/47/47
f 111/119/115 112/118/114 42/38/38
f 108/117/113 42/38/38 112/118/114
f 114/104/102 115/103/101 45/41/41
f 114/104/102 45/41/41 43/40/40 116/105/103
f 116/105/103 43/40/40 110/106/104
f 115/103/101 117/102/100 45/41/41
f 13/55/55 10/42/42 46/73/73
f 14/54/54 66/129/125 10/42/42
f 66/129/125 11/43/43 10/42/42
f 46/73/73 10/42/42 45/41/41
f 14/54/54 15/58/58 66/129/125
f 78/39/39 66/129/125 15/58/58
f 14/54/54 13/55/55 27/57/57
f 27/57/57 15/58/58 14/54/54
f 21/56/56 62/28/28 27/57/57
f 27/57/57 13/55/55 20/132/126
f 27/57/57 20/132/126 21/56/56
f 61/59/59 78/39/39 15/58/58
f 78/39/39 61/59/59 30/22/22
f 54/62/62 16/61/61 44/52/52
f 44/52/52 71/63/63 54/62/62
f 54/62/62 35/64/64 28/60/60
f 22/66/66 28/60/60 35/64/64
f 35/64/64 71/63/63 73/75/75
f 17/74/74 73/75/75 71/63/63
f 17/74/74 71/63/63 31/46/46
f 71/63/63 23/45/45 31/46/46
f 122/123/119 28/60/60 18/65/65 121/124/120
f 95/69/69 28/60/60 122/123/119
f 120/89/87 123/88/86 18/65/65
f 98/122/118 16/61/61 96/68/68
f 119/91/89 32/133/127 124/134/90
f 125/99/97 72/135/70 99/100/98
f 23/45/45 71/63/63 44/52/52 70/48/48
f 126/98/96 36/136/71 72/135/70 125/99/97
f 124/92/90 32/137/127 67/67/67 127/93/91
f 103/97/95 36/136/71 126/98/96
f 21/56/56 20/132/126 73/75/75
f 20/132/126 55/72/72 73/75/75
f 55/72/72 20/132/126 13/55/55
f 73/75/75 36/71/71 35/64/64
f 55/72/72 13/55/55 46/73/73
f 46/73/73 72/70/70 55/72/72
f 18/65/65 123/88/86 121/124/120
f 67/67/67 32/137/127 119/138/89 118/90/88
f 18/65/65 67/67/67 118/90/88 120/89/87
f 19/37/37 113/120/116 111/119/115 42/38/38
f 68/44/44 109/107/105 110/106/104 43/40/40
f 36/71/71 103/139/95 104/96/94 35/64/64
f 67/67/67 102/94/92 127/93/91
f 22/66/66 101/95/93 102/94/92 67/67/67
f 35/64/64 104/96/94 101/95/93 22/66/66
f 45/41/41 117/102/100 100/101/99 72/70/70
f 72/135/70 100/140/99 99/100/98
f 19/37/37 16/61/61 98/122/118 97/121/117
f 19/37/37 97/121/117 113/120/116
f 77/34/34 107/116/112 92/35/35
f 6/81/81 91/115/111 90/114/110
f 75/84/83 6/81/81 90/114/110 89/113/109
f 12/19/19 87/109/107 94/108/106
f 12/19/19 86/18/18 87/109/107
f 26/83/82 84/111/108 85/110/20 12/82/19
f 75/84/83 88/141/85 84/111/108 26/83/82
f 6/81/81 29/8/8 91/115/111
f 24/2/2 57/1/1 81/78/78 79/6/6
