# Blender 4.5.3 LTS
# www.blender.org
mtllib peach.mtl
o peach
v 0.005216 0.020002 0.000938
v 0.007132 0.020865 -0.008725
v -0.008378 0.016775 -0.004216
v -0.009328 0.021202 -0.024284
v -0.027119 0.016977 -0.004630
v -0.005664 0.027355 -0.033394
v -0.035948 0.024507 -0.023782
v -0.042919 0.020607 -0.001401
v 0.025420 0.035054 -0.005050
v 0.012164 0.029459 -0.024976
v -0.017211 0.030509 -0.038193
v -0.035832 0.035922 -0.039004
v -0.062872 0.038481 -0.016620
v 0.028670 0.038612 -0.015364
v 0.012577 0.051331 -0.046537
v -0.052146 0.041993 -0.034466
v -0.070518 0.039215 0.001658
v 0.035885 0.053332 -0.021349
v 0.022938 0.047673 -0.035347
v -0.001277 0.045641 -0.048448
v -0.037989 0.052116 -0.049528
v -0.024706 0.043137 -0.048145
v -0.005642 0.057510 -0.054935
v -0.071047 0.049790 -0.014669
v 0.042089 0.077919 -0.009469
v 0.041219 0.072753 -0.021818
v -0.020583 0.071246 -0.058037
v -0.042468 0.077523 -0.052542
v -0.058701 0.060078 -0.037724
v -0.069719 0.078371 -0.026856
v 0.028784 0.068070 -0.040269
v 0.030084 0.088739 -0.038764
v 0.017843 0.084108 -0.050458
v 0.003123 0.077436 -0.056924
v -0.012316 0.087369 -0.058873
v -0.077170 0.076381 -0.008747
v 0.039726 0.093955 -0.021438
v 0.001375 0.097281 -0.055299
v -0.059797 0.090157 -0.040004
v 0.020767 0.110922 -0.037862
v -0.024355 0.107267 -0.053101
v -0.029180 0.092234 -0.056595
v -0.044378 0.097784 -0.049522
v -0.073231 0.096975 -0.017309
v 0.027890 0.116971 -0.007203
v 0.034328 0.107437 -0.022804
v 0.004418 0.111417 -0.047540
v -0.012243 0.112877 -0.050153
v -0.055897 0.108263 -0.036613
v -0.070267 0.113220 -0.003577
v 0.021162 0.125465 -0.013744
v -0.029653 0.124989 -0.037451
v -0.042917 0.118620 -0.038282
v -0.058984 0.117792 -0.023874
v 0.010076 0.127185 -0.027328
v -0.008251 0.126252 -0.036611
v -0.048364 0.129539 -0.017610
v -0.062268 0.124315 -0.000427
v -0.047528 0.134384 -0.001960
v -0.022034 0.127360 -0.000255
v -0.021447 0.141902 0.001166
v -0.013020 0.125842 0.001021
v -0.013968 0.141490 -0.003015
v -0.017179 0.126490 -0.002017
v -0.018006 0.139495 -0.002516
v -0.019506 0.145417 0.000480
v -0.011948 0.141039 -0.002227
v -0.011149 0.141604 0.000554
v 0.006250 0.132016 -0.001724
v -0.019589 0.135033 -0.020441
v -0.008233 0.135155 -0.016604
v -0.033734 0.136705 -0.011939
v 0.004195 0.134986 -0.005915
v 0.001533 0.132085 -0.022508
v -0.007437 0.131580 0.000941
v -0.021084 0.133408 -0.007742
v -0.012920 0.132877 -0.007317
v -0.026945 0.134384 -0.003019
v -0.006932 0.133333 -0.001834
v -0.023044 0.127045 -0.000821
v -0.016767 0.126287 -0.003059
v -0.080432 0.074528 -0.008676
v -0.086529 0.072062 -0.015725
v -0.074376 0.063623 -0.015653
v -0.078166 0.061295 -0.019203
v -0.082870 0.066399 -0.017182
v -0.073967 0.060553 -0.018079
v -0.075861 0.060812 -0.018176
v -0.021079 0.137925 0.001006
v -0.019461 0.136929 0.001293
v -0.025621 0.139220 -0.002703
v -0.036096 0.138295 -0.001560
v -0.050531 0.134846 -0.020202
v -0.046614 0.138013 0.001620
v -0.055122 0.131876 -0.001954
v -0.057942 0.132106 -0.002923
v -0.077974 0.060698 -0.018485
v -0.074677 0.060747 -0.019614
v -0.046975 0.135813 -0.000048
v -0.083830 0.076794 -0.012826
v -0.030890 0.140795 -0.004906
v -0.023130 0.139033 0.000701
v -0.086219 0.070916 -0.014900
v -0.042885 0.139566 -0.010981
v -0.030647 0.140251 -0.005841
v -0.042219 0.139081 -0.015077
v -0.050624 0.135949 -0.018872
v -0.074566 0.118422 -0.009896
v -0.074800 0.060810 -0.017044
v -0.081293 0.072986 -0.013722
v -0.077084 0.107698 -0.009920
v -0.072430 0.118052 -0.008842
v -0.072339 0.116997 -0.024787
v -0.082804 0.073424 -0.011485
v -0.088367 0.077242 -0.014687
v -0.088342 0.078150 -0.015719
v -0.078654 0.075726 -0.007906
v -0.090556 0.079282 -0.017034
v -0.087768 0.091938 -0.002528
v -0.089116 0.086701 -0.009687
v -0.090819 0.084668 -0.017950
v -0.086073 0.095570 0.000840
v -0.086546 0.086522 -0.010572
v -0.087820 0.088068 -0.020160
v -0.088798 0.092742 -0.006354
v -0.085223 0.092681 -0.010130
v -0.073688 0.117319 -0.022625
v -0.063041 0.124102 -0.025115
v -0.026483 0.016847 0.001666
v -0.014637 0.016724 0.001666
v -0.010102 0.016870 0.001666
v 0.004297 0.019867 0.001666
v -0.038873 0.019687 0.001666
v 0.005751 0.020357 0.001666
v 0.010140 0.022634 0.001666
v -0.041446 0.020559 0.001666
v -0.044766 0.021822 0.001666
v 0.033794 0.043765 0.001666
v 0.035845 0.045922 0.001666
v -0.075203 0.055004 0.001666
v 0.043824 0.068997 0.001666
v 0.041506 0.060835 0.001666
v -0.077665 0.084010 0.001666
v -0.077446 0.067006 0.001666
v -0.076592 0.092176 0.001666
v -0.073287 0.104253 0.001666
v 0.041938 0.094696 0.001666
v 0.044544 0.088140 0.001666
v 0.035102 0.112050 0.001666
v -0.070314 0.112538 0.001666
v -0.063314 0.122570 0.001666
v -0.061296 0.124923 0.001666
v 0.026302 0.121570 0.001666
v 0.009434 0.132158 0.001666
v -0.048915 0.133347 0.001666
v -0.022405 0.127258 0.001666
v -0.021682 0.139525 0.001666
v -0.021218 0.142518 0.001666
v -0.011696 0.139100 0.001666
v -0.013164 0.125941 0.001666
v -0.011829 0.141199 0.001666
v -0.018654 0.145456 0.001666
v -0.012321 0.142546 0.001666
v -0.019582 0.145680 0.001666
v -0.003342 0.132619 0.001666
v 0.006079 0.134013 0.001666
v -0.043948 0.135607 0.001666
v -0.036178 0.137475 0.001666
v -0.046784 0.134428 0.001666
v -0.006757 0.132230 0.001666
v -0.031252 0.135816 0.001666
v -0.027491 0.134645 0.001666
v -0.022978 0.127081 0.001666
v -0.023074 0.127150 0.001666
v -0.007471 0.131768 0.001666
v -0.008211 0.130801 0.001666
v -0.012971 0.125907 0.001666
v -0.021172 0.137853 0.001666
v -0.019775 0.137041 0.001666
v -0.022826 0.138182 0.001666
v -0.022480 0.138116 0.001666
v -0.035921 0.138170 0.001666
v -0.028156 0.137558 0.001666
v -0.024088 0.137761 0.001666
v -0.019581 0.137089 0.001666
v -0.019694 0.137279 0.001666
v -0.024890 0.137758 0.001666
v -0.022115 0.138874 0.001666
v -0.020928 0.138148 0.001666
v -0.041487 0.136940 0.001666
v -0.067549 0.126967 0.001666
v -0.058916 0.132910 0.001666
v -0.057398 0.131746 0.001666
v -0.048972 0.135357 0.001666
v -0.047510 0.135992 0.001666
v -0.079248 0.113755 0.001666
v -0.075503 0.120211 0.001666
v -0.079851 0.116141 0.001666
v -0.077525 0.120750 0.001666
v -0.081166 0.109887 0.001666
v -0.085835 0.102909 0.001666
v -0.086068 0.099478 0.001666
v -0.062251 0.128721 0.001666
v 0.004979 0.020012 0.001666
v 0.023861 0.030930 0.001666
v -0.024874 0.129948 0.001666
v -0.022978 0.139153 0.001666
v -0.023765 0.138895 0.001666
v -0.025558 0.139045 0.001666
v -0.039949 0.139804 0.001666
v -0.085775 0.097329 0.001666
v -0.084075 0.104583 0.001666
vn -0.0027 -0.7128 0.7014
vn 0.1116 -0.9897 -0.0899
vn 0.0763 -0.7066 0.7035
vn 0.3766 -0.9260 0.0261
vn 0.1429 -0.6654 0.7327
vn 0.4299 -0.8916 -0.1426
vn 0.0716 -0.9076 -0.4136
vn -0.1368 -0.9803 -0.1425
vn 0.3027 -0.5989 0.7414
vn 0.4320 -0.7044 0.5633
vn 0.6796 -0.7232 -0.1232
vn 0.4701 -0.7550 -0.4571
vn -0.3101 -0.8528 -0.4203
vn 0.1889 -0.7728 -0.6059
vn -0.4048 -0.9103 -0.0866
vn -0.2177 -0.6208 0.7531
vn -0.1697 -0.6875 0.7061
vn 0.7537 -0.6154 -0.2308
vn -0.0373 -0.7572 -0.6521
vn -0.3125 -0.6725 -0.6709
vn -0.6596 -0.6480 -0.3808
vn 0.4577 -0.4190 -0.7842
vn 0.2139 -0.5427 -0.8122
vn 0.6271 -0.5036 -0.5942
vn -0.1137 -0.5120 -0.8514
vn -0.5723 -0.5414 -0.6159
vn -0.6705 -0.4917 0.5556
vn -0.3564 -0.6225 0.6968
vn 0.8991 -0.3926 -0.1938
vn 0.1399 -0.2966 -0.9447
vn -0.3590 -0.3463 -0.8667
vn -0.8742 -0.3188 -0.3663
vn -0.6971 -0.2247 -0.6809
vn 0.7884 -0.2331 0.5694
vn 0.6989 -0.3794 0.6063
vn 0.9540 -0.1230 -0.2735
vn 0.9889 -0.0040 -0.1485
vn 0.7087 -0.1747 -0.6835
vn -0.1062 -0.1446 -0.9838
vn -0.4460 -0.0569 -0.8932
vn -0.8605 -0.0397 -0.5079
vn 0.7468 0.1575 -0.6461
vn 0.2742 -0.0721 -0.9590
vn -0.7127 0.1084 -0.6930
vn -0.9740 -0.0330 -0.2240
vn 0.9523 0.2488 -0.1767
vn 0.5247 0.0671 -0.8486
vn 0.2723 0.2834 -0.9195
vn 0.0284 0.0982 -0.9948
vn -0.2316 0.1477 -0.9615
vn -0.4584 0.2701 -0.8467
vn -0.9087 0.2338 -0.3459
vn -0.7497 0.1397 0.6469
vn -0.7574 0.0638 0.6498
vn 0.8446 0.4727 -0.2513
vn 0.5800 0.5110 -0.6344
vn -0.1531 0.4404 -0.8846
vn 0.5196 -0.6652 0.5363
vn 0.5379 -0.4992 0.6793
vn 0.8082 -0.1721 0.5632
vn 0.8416 0.2155 0.4952
vn 0.8025 0.3154 0.5065
vn 0.7695 0.3999 0.4979
vn 0.5086 0.6496 0.5652
vn 0.4222 0.7377 0.5268
vn 0.1478 0.8878 0.4358
vn -0.1178 0.8697 0.4793
vn -0.2044 0.8771 0.4347
vn -0.5401 0.6067 0.5832
vn -0.5294 0.5087 0.6790
vn -0.2641 0.7713 0.5791
vn 0.6500 0.3794 0.6584
vn 0.9907 -0.0875 0.1046
vn 0.0086 -0.0185 0.9998
vn 0.0143 -0.0600 0.9981
vn -0.6272 0.5704 0.5304
vn 0.1398 0.7856 0.6028
vn 0.5621 0.5122 0.6494
vn 0.6090 0.3397 0.7167
vn 0.4671 0.6087 0.6413
vn 0.2247 0.6735 0.7042
vn 0.0130 0.7771 0.6292
vn -0.1988 0.7165 0.6687
vn -0.2822 0.6296 0.7238
vn -0.3667 0.6051 0.7067
vn -0.4479 0.5531 0.7024
vn -0.5500 0.4093 0.7280
vn -0.6404 0.3254 0.6957
vn -0.7146 0.2077 0.6680
vn -0.7654 -0.1044 0.6350
vn -0.7554 -0.1692 0.6330
vn -0.0842 -0.7282 0.6802
vn 0.1972 -0.6619 0.7232
vn 0.7755 0.6213 -0.1125
vn 0.3343 0.5298 -0.7794
vn 0.0563 0.5606 -0.8262
vn -0.6457 0.4178 -0.6391
vn -0.4031 0.6282 -0.6655
vn -0.6801 0.5887 -0.4369
vn 0.6202 0.7828 -0.0503
vn -0.1770 0.7700 -0.6129
vn 0.4117 0.7920 -0.4508
vn 0.1061 0.7960 -0.5959
vn -0.4523 0.8123 -0.3683
vn -0.7006 0.7102 -0.0688
vn -0.8726 0.4697 -0.1340
vn 0.2541 0.9508 0.1771
vn 0.3456 0.9365 -0.0592
vn 0.2355 0.9120 -0.3358
vn -0.0070 0.9704 -0.2413
vn -0.4259 0.8989 -0.1033
vn -0.9334 0.2251 -0.2793
vn -0.4066 0.1240 -0.9051
vn -0.4991 0.6827 -0.5337
vn -0.6609 0.0306 -0.7499
vn 0.9210 0.3759 -0.1023
vn 0.9184 0.1678 -0.3584
vn 0.3358 0.3630 -0.8692
vn 0.1352 0.9896 0.0501
vn 0.1786 0.6966 -0.6949
vn -0.3539 0.7723 -0.5276
vn 0.7061 -0.4510 -0.5459
vn 0.0375 0.9948 -0.0944
vn -0.0705 0.9796 -0.1884
vn -0.2247 0.8839 0.4102
vn -0.1898 0.8825 0.4302
vn 0.2430 0.8680 0.4331
vn 0.5055 0.8431 0.1835
vn -0.0375 0.8837 0.4666
vn 0.4475 0.8633 0.2332
vn -0.8664 -0.4167 0.2751
vn -0.5657 -0.0464 -0.8233
vn -0.7897 -0.5219 0.3224
vn -0.6790 -0.2817 -0.6780
vn -0.4309 -0.3166 -0.8450
vn -0.3719 -0.9127 0.1696
vn -0.1949 -0.9103 0.3651
vn 0.4664 -0.3732 -0.8020
vn 0.7936 -0.6066 -0.0476
vn 0.4611 0.4900 -0.7398
vn 0.9112 0.0960 0.4007
vn 0.5392 0.2238 -0.8119
vn 0.3966 -0.0709 -0.9153
vn -0.3377 0.8600 -0.3827
vn 0.4951 -0.8584 0.1342
vn -0.2222 0.9739 -0.0470
vn -0.3344 0.9419 -0.0326
vn -0.5369 -0.4770 0.6959
vn 0.1725 -0.9123 -0.3715
vn 0.5748 -0.0707 -0.8152
vn -0.0253 -0.9748 -0.2216
vn 0.2788 0.9494 -0.1448
vn 0.1570 0.9784 -0.1343
vn 0.3586 -0.2053 -0.9106
vn 0.3095 -0.9498 0.0451
vn 0.5321 -0.0385 -0.8458
vn 0.2092 -0.9774 -0.0313
vn 0.1293 -0.9781 -0.1630
vn 0.0642 -0.9970 -0.0436
vn -0.7533 0.5849 -0.3008
vn -0.5157 0.8433 -0.1511
vn 0.0543 -0.7799 0.6236
vn -0.2938 -0.5277 0.7970
vn 0.8268 -0.4329 0.3591
vn 0.7433 -0.6397 0.1956
vn 0.6854 -0.6518 0.3247
vn 0.8235 -0.4300 0.3699
vn 0.8729 -0.4521 0.1834
vn 0.2694 0.2769 -0.9224
vn 0.8545 0.0524 0.5169
vn 0.9467 0.0779 -0.3127
vn 0.1495 -0.3981 0.9051
vn -0.8049 -0.2448 0.5406
vn 0.2933 -0.1406 -0.9456
vn -0.9006 -0.2344 0.3659
vn -0.5293 -0.5957 -0.6041
vn -0.9782 0.2006 0.0534
vn -0.8991 0.0351 -0.4363
vn 0.1713 -0.1103 -0.9790
vn 0.1316 -0.0027 -0.9913
vn 0.9380 -0.3388 0.0729
vn -0.8544 0.4273 -0.2955
vn -0.9355 0.3415 -0.0909
vn -0.7413 0.6414 -0.1976
vn 0.5158 -0.8027 0.2994
vn -0.7032 0.6395 -0.3109
vn -0.5366 0.8005 -0.2668
vn 0.1800 -0.1184 -0.9765
vn 0.4175 0.6000 -0.6824
vn 0.2264 0.5682 -0.7911
vn -0.2736 0.6326 -0.7246
vn -0.6479 0.2835 -0.7070
vn 0.0010 -0.0016 -1.0000
vn 0.0004 -0.0019 -1.0000
vn -0.0003 -0.0001 -1.0000
vn -0.0005 -0.0001 -1.0000
vn -0.0099 0.0028 -0.9999
vn 0.0036 -0.0055 -1.0000
vn 0.0019 -0.0068 -1.0000
vn 0.0018 -0.0069 -1.0000
vn 0.0018 -0.0064 -1.0000
vn 0.0017 -0.0065 -1.0000
vn 0.0027 -0.0073 -1.0000
vn -0.0010 -0.0058 -1.0000
vn 0.0040 0.0095 -0.9999
vn 0.0108 -0.0031 -0.9999
vn 0.0067 -0.0083 -0.9999
vn 0.0064 -0.0091 -0.9999
vn 0.0036 -0.0074 -1.0000
vn 0.0035 -0.0075 -1.0000
vn 0.0033 -0.0082 -1.0000
vn 0.0049 -0.0131 -0.9999
vn 0.0040 -0.0133 -0.9999
vn 0.0038 -0.0108 -0.9999
vn 0.0032 -0.0109 -0.9999
vn 0.0016 -0.0108 -0.9999
vn 0.0026 -0.0131 -0.9999
vn -0.0000 -0.0143 -0.9999
vn -0.5378 0.8416 0.0497
vn -0.3112 -0.9503 0.0117
vn 0.6625 -0.5127 -0.5461
vn 0.9049 -0.2104 0.3699
vn 0.0284 0.9909 -0.1314
vn -0.0423 0.9928 0.1118
vn 0.0745 0.9775 0.1972
vn 0.4421 0.8332 -0.3321
vn -0.1930 0.9731 -0.1256
vn 0.4677 -0.8463 0.2552
vn 0.8642 -0.3950 0.3116
vn 0.2111 -0.4539 0.8657
vn -0.9468 0.0332 0.3200
vn 0.2930 -0.9374 0.1884
vn 0.3844 -0.9005 0.2031
vn -0.4687 0.8475 -0.2490
vn 0.5087 0.7710 -0.3831
vn 0.6312 0.7192 -0.2904
vn 0.0153 -0.9415 -0.3367
vn 0.0410 -0.9469 -0.3189
vn -0.1886 -0.9746 -0.1209
vn -0.3406 -0.9272 -0.1561
vt 0.267003 0.037928
vt 0.296466 0.042544
vt 0.277516 0.048883
vt 0.304473 0.086654
vt 0.300979 0.085637
vt 0.339677 0.078713
vt 0.740377 0.019596
vt 0.675757 0.066621
vt 0.658684 0.038332
vt 0.762812 0.055725
vt 0.303421 0.089037
vt 0.307499 0.101342
vt 0.338604 0.141268
vt 0.396452 0.101913
vt 0.381700 0.066200
vt 0.738283 0.121462
vt 0.649925 0.102239
vt 0.801157 0.098475
vt 0.809851 0.093670
vt 0.802403 0.083161
vt 0.368679 0.157740
vt 0.606894 0.075024
vt 0.673249 0.130290
vt 0.711459 0.159084
vt 0.786948 0.175651
vt 0.567516 0.164540
vt 0.613195 0.160995
vt 0.573300 0.103900
vt 0.674835 0.172955
vt 0.744682 0.181239
vt 0.833074 0.173240
vt 0.810932 0.101464
vt 0.436440 0.168969
vt 0.396424 0.200106
vt 0.620031 0.203335
vt 0.698807 0.204167
vt 0.801635 0.206384
vt 0.749475 0.222072
vt 0.332165 0.224686
vt 0.332668 0.188643
vt 0.395201 0.251217
vt 0.361238 0.265177
vt 0.457924 0.236281
vt 0.519558 0.218497
vt 0.535075 0.165970
vt 0.650549 0.239813
vt 0.700799 0.254159
vt 0.778081 0.260600
vt 0.448699 0.298706
vt 0.590209 0.250869
vt 0.744516 0.282230
vt 0.819728 0.255674
vt 0.391931 0.307033
vt 0.481158 0.295878
vt 0.595849 0.303918
vt 0.543259 0.271902
vt 0.629724 0.277387
vt 0.670794 0.288699
vt 0.708167 0.298721
vt 0.798054 0.297940
vt 0.840661 0.291464
vt 0.841746 0.274030
vt 0.394470 0.351304
vt 0.549969 0.365718
vt 0.523880 0.310609
vt 0.664779 0.320440
vt 0.320839 0.140996
vt 0.330436 0.179140
vt 0.333508 0.246442
vt 0.335317 0.287969
vt 0.332720 0.306156
vt 0.324200 0.347742
vt 0.316818 0.377798
vt 0.296121 0.432503
vt 0.292499 0.446497
vt 0.277650 0.481552
vt 0.271910 0.493134
vt 0.270343 0.496702
vt 0.268514 0.501162
vt 0.259088 0.527750
vt 0.258547 0.528582
vt 0.245360 0.588607
vt 0.403706 0.689380
vt 0.404153 0.689478
vt 0.756277 0.522240
vt 0.757652 0.516994
vt 0.756753 0.514571
vt 0.763105 0.505485
vt 0.772969 0.486685
vt 0.778554 0.470154
vt 0.792037 0.450390
vt 0.802772 0.431858
vt 0.807924 0.422610
vt 0.809514 0.415048
vt 0.823748 0.378498
vt 0.825224 0.370173
vt 0.835037 0.338626
vt 0.836682 0.318478
vt 0.842167 0.237237
vt 0.840163 0.214761
vt 0.779530 0.046799
vt 0.302352 0.087151
vt 0.341320 0.372389
vt 0.591342 0.351483
vt 0.637247 0.343853
vt 0.742486 0.321135
vt 0.719585 0.350679
vt 0.767978 0.348454
vt 0.355075 0.407371
vt 0.440257 0.378225
vt 0.691030 0.379428
vt 0.395920 0.432564
vt 0.637700 0.397187
vt 0.592501 0.410879
vt 0.760793 0.388020
vt 0.818736 0.374298
vt 0.822392 0.337360
vt 0.318097 0.463323
vt 0.302345 0.452230
vt 0.374227 0.467246
vt 0.624855 0.448266
vt 0.697586 0.433304
vt 0.797300 0.416838
vt 0.748744 0.577386
vt 0.732715 0.579971
vt 0.747397 0.522074
vt 0.751894 0.568554
vt 0.248348 0.601856
vt 0.243839 0.599676
vt 0.718587 0.589164
vt 0.712376 0.527078
vt 0.722951 0.521697
vt 0.745433 0.597721
vt 0.710332 0.590717
vt 0.263904 0.592350
vt 0.261689 0.603578
vt 0.340963 0.493363
vt 0.749570 0.431897
vt 0.660685 0.465553
vt 0.286860 0.497153
vt 0.298608 0.510913
vt 0.721903 0.482307
vt 0.696556 0.497561
vt 0.754445 0.477692
vt 0.719578 0.515710
vt 0.747466 0.511777
vt 0.261835 0.529188
vt 0.270543 0.530594
vt 0.287882 0.520413
vt 0.069830 0.880050
vt 0.043149 0.857294
vt 0.045420 0.850103
vt 0.025558 0.812949
vt 0.025056 0.783802
vt 0.028482 0.781921
vt 0.037117 0.776556
vt 0.034447 0.770877
vt 0.043538 0.772812
vt 0.896841 0.725448
vt 0.925973 0.716472
vt 0.936756 0.720908
vt 0.423427 0.923342
vt 0.382216 0.945083
vt 0.378347 0.937664
vt 0.577596 0.700641
vt 0.573606 0.791377
vt 0.522705 0.769267
vt 0.418113 0.910387
vt 0.402992 0.863829
vt 0.938129 0.725223
vt 0.935431 0.728641
vt 0.068610 0.842673
vt 0.916385 0.738947
vt 0.427968 0.692961
vt 0.435541 0.713807
vt 0.418950 0.690930
vt 0.511290 0.858784
vt 0.498826 0.880097
vt 0.473738 0.888416
vt 0.525961 0.861387
vt 0.523990 0.690744
vt 0.457228 0.728315
vt 0.496661 0.683286
vt 0.479547 0.702805
vt 0.472385 0.685226
vt 0.472852 0.895168
vt 0.255590 0.950423
vt 0.345701 0.874561
vt 0.047598 0.779897
vt 0.049712 0.781973
vt 0.078614 0.830937
vt 0.937195 0.719381
vt 0.711248 0.673729
vt 0.682942 0.721750
vt 0.679609 0.670756
vt 0.730238 0.673954
vt 0.733035 0.727304
vt 0.897705 0.747351
vt 0.883135 0.734212
vt 0.903533 0.711235
vt 0.083890 0.829538
vt 0.839881 0.729452
vt 0.811245 0.684610
vt 0.143508 0.851910
vt 0.151850 0.844828
vt 0.874567 0.752815
vt 0.117676 0.872149
vt 0.083269 0.896972
vt 0.066576 0.883222
vt 0.152714 0.877515
vt 0.103332 0.906669
vt 0.126180 0.922685
vt 0.681092 0.796190
vt 0.807458 0.730186
vt 0.242227 0.849607
vt 0.189745 0.850332
vt 0.257254 0.897206
vt 0.824031 0.771030
vt 0.253319 0.964011
vt 0.608859 0.679205
vt 0.260662 0.850550
vt 0.302524 0.851335
vt 0.623778 0.797113
vt 0.241517 0.604212
vt 0.749245 0.600969
vt 0.749740 0.599545
vt 0.750446 0.581101
vt 0.408224 0.690194
vt 0.416691 0.690722
vt 0.431287 0.692866
vt 0.445169 0.690886
vt 0.525734 0.683093
vt 0.531949 0.681999
vt 0.582706 0.682137
vt 0.756580 0.674632
vt 0.159520 0.842969
vt 0.173441 0.842665
vt 0.345120 0.854832
vt 0.441589 0.850683
vt 0.498714 0.855550
vt 0.507786 0.854662
vt 0.511838 0.854346
vt 0.516813 0.855005
vt 0.525683 0.857612
vt 0.534715 0.852694
vt 0.536030 0.852015
vt 0.273243 0.498150
vt 0.237267 0.620827
vt 0.317011 0.965378
vt 0.268458 0.531948
vt 0.402875 0.690973
vt 0.882023 0.704917
vt 0.865027 0.762561
vt 0.801900 0.680032
vt 0.537203 0.853557
vt 0.407312 0.693078
vt 0.232856 0.618575
vt 0.764620 0.024282
s 1
usemtl Peach_color.001
f 130/1/1 3/2/2 131/3/3
f 131/3/3 3/2/2 1/4/4 132/5/5
f 3/2/2 2/6/6 1/4/4
f 3/7/2 4/8/7 2/9/6
f 3/7/2 5/10/8 4/8/7
f 134/11/9 1/4/4 135/12/10
f 9/13/11 1/4/4 2/6/6
f 10/14/12 2/6/6 4/15/7
f 4/8/7 7/16/13 6/17/14
f 4/8/7 5/10/8 7/16/13
f 8/18/15 7/16/13 5/10/8
f 136/19/16 8/18/15 133/20/17
f 2/6/6 10/14/12 14/21/18
f 14/21/18 9/13/11 2/6/6
f 4/8/7 6/17/14 10/22/12
f 7/16/13 11/23/19 6/17/14
f 11/23/19 7/16/13 12/24/20
f 7/16/13 8/18/15 13/25/21
f 15/26/22 6/17/14 20/27/23
f 10/22/12 6/17/14 15/26/22
f 15/26/22 19/28/24 10/22/12
f 20/27/23 11/23/19 22/29/25
f 6/17/14 11/23/19 20/27/23
f 12/24/20 22/29/25 11/23/19
f 16/30/26 12/24/20 7/16/13
f 16/30/26 7/16/13 13/25/21
f 17/31/27 8/18/15 137/32/28
f 10/14/12 19/33/24 14/21/18
f 19/33/24 18/34/29 14/21/18
f 23/35/30 20/27/23 22/29/25
f 22/29/25 12/24/20 21/36/31
f 12/24/20 16/30/26 21/36/31
f 23/35/30 22/29/25 21/36/31
f 13/25/21 24/37/32 16/30/26
f 16/30/26 24/37/32 29/38/33
f 24/37/32 13/25/21 17/31/27
f 142/39/34 139/40/35 14/21/18
f 18/34/29 26/41/36 25/42/37
f 25/42/37 14/21/18 18/34/29
f 19/33/24 31/43/38 18/34/29
f 18/34/29 31/43/38 26/41/36
f 15/26/22 31/44/38 19/45/24
f 27/46/39 21/36/31 28/47/40
f 28/47/40 21/36/31 29/38/33
f 24/37/32 30/48/41 29/38/33
f 31/43/38 32/49/42 26/41/36
f 27/46/39 34/50/43 23/35/30
f 28/47/40 29/38/33 39/51/44
f 30/48/41 24/37/32 36/52/45
f 25/42/37 26/41/36 37/53/46
f 26/41/36 32/49/42 37/53/46
f 33/54/47 32/49/42 31/43/38
f 38/55/48 33/56/47 34/50/43
f 34/50/43 35/57/49 38/55/48
f 27/46/39 42/58/50 35/57/49
f 27/46/39 28/47/40 42/58/50
f 28/47/40 39/51/44 43/59/51
f 30/48/41 44/60/52 39/51/44
f 44/60/52 30/48/41 36/52/45
f 145/61/53 44/60/52 36/52/45 143/62/54
f 37/53/46 32/49/42 46/63/55
f 40/64/56 32/65/42 33/56/47
f 38/55/48 35/57/49 41/66/57
f 35/57/49 42/58/50 41/66/57
f 134/11/9 135/12/10 205/67/58 138/68/59 139/40/35 142/39/34 141/69/60 148/70/61 147/71/62 149/72/63 153/73/64 154/74/65 166/75/66 165/76/67 170/77/68 175/78/69 176/79/70 177/80/71 160/81/72 159/82/73 185/83/74 179/84/75 156/85/76 173/86/77 174/87/78 206/88/79 172/89/80 171/90/81 168/91/82 167/92/83 169/93/84 155/94/85 152/95/86 151/96/87 150/97/88 146/98/89 145/61/53 143/62/54 144/99/90 140/100/91 17/31/27 137/32/28 136/19/16 133/20/17 129/101/92 130/1/1 131/3/3 132/5/5 204/102/93
f 147/71/62 45/103/94 149/72/63
f 45/103/94 25/42/37 37/53/46
f 46/63/55 45/103/94 37/53/46
f 47/104/95 33/56/47 38/55/48
f 38/55/48 48/105/96 47/104/95
f 41/66/57 42/58/50 43/59/51
f 49/106/97 43/59/51 39/51/44
f 43/59/51 53/107/98 41/66/57
f 49/106/97 39/51/44 44/60/52
f 44/60/52 54/108/99 49/106/97
f 45/103/94 46/63/55 51/109/100
f 40/110/56 51/109/100 46/63/55
f 52/111/101 41/66/57 53/107/98
f 49/106/97 54/108/99 53/107/98
f 40/110/56 55/112/102 51/109/100
f 56/113/103 55/114/102 47/104/95
f 48/105/96 56/113/103 47/104/95
f 56/113/103 48/105/96 52/111/101
f 54/108/99 57/115/104 53/107/98
f 151/96/87 58/116/105 50/117/106 150/97/88
f 152/95/86 58/116/105 151/96/87
f 51/109/100 55/112/102 73/118/107
f 73/118/107 69/119/108 45/103/94
f 73/118/107 55/112/102 74/120/109
f 74/121/109 55/114/102 56/113/103
f 70/122/110 74/121/109 56/113/103
f 70/122/110 56/113/103 52/111/101
f 52/111/101 53/107/98 57/115/104
f 155/94/85 59/123/111 58/116/105 152/95/86
f 61/124/112 65/125/113 60/126/114
f 157/127/115 61/124/112 60/126/114 156/85/76
f 159/82/73 68/128/116 161/129/117
f 63/130/118 62/131/119 64/132/120
f 63/130/118 64/132/120 65/125/113
f 66/133/121 67/134/122 63/130/118
f 65/125/113 66/133/121 63/130/118
f 68/128/116 63/135/118 67/136/122
f 61/124/112 66/133/121 65/125/113
f 73/118/107 74/120/109 71/137/123
f 168/91/82 72/138/124 59/123/111 167/92/83
f 71/139/123 74/121/109 70/122/110
f 72/138/124 52/111/101 57/115/104
f 72/138/124 57/115/104 59/123/111
f 169/93/84 59/123/111 155/94/85
f 79/140/125 71/137/123 77/141/126
f 79/140/125 73/118/107 71/137/123
f 71/139/123 76/142/127 77/143/126
f 71/139/123 70/122/110 76/142/127
f 78/144/128 76/142/127 70/122/110
f 78/144/128 70/122/110 72/138/124
f 171/90/81 172/89/80 78/144/128
f 81/145/129 80/146/130 64/132/120
f 62/147/119 79/140/125 81/148/129
f 79/140/125 77/149/126 81/148/129
f 76/142/127 81/145/129 77/143/126
f 80/146/130 81/145/129 76/142/127
f 76/142/127 78/144/128 80/146/130
f 60/126/114 64/132/120 80/146/130
f 160/81/72 177/80/71 62/147/119
f 115/150/131 83/151/132 103/152/133
f 83/151/132 86/153/134 103/152/133
f 86/153/134 85/154/135 97/155/136
f 88/156/137 98/157/138 87/158/139
f 110/159/140 84/160/141 98/161/138
f 106/162/142 93/163/143 107/164/144
f 95/165/145 93/166/143 106/167/142
f 104/168/146 107/164/144 94/169/147
f 97/170/136 85/171/135 98/161/138
f 114/172/148 97/155/136 88/156/137
f 85/171/135 86/173/134 98/161/138
f 184/174/149 91/175/150 180/176/151
f 97/155/136 103/152/133 86/153/134
f 102/177/152 91/178/150 101/179/153
f 106/162/142 107/164/144 104/168/146
f 89/180/154 91/178/150 102/177/152
f 106/162/142 104/168/146 101/179/153
f 99/181/155 106/167/142 105/182/156
f 190/183/157 99/181/155 92/184/158 182/185/159
f 99/181/155 105/182/156 92/184/158
f 101/179/153 105/186/156 106/162/142
f 104/168/146 94/169/147 101/179/153
f 127/187/160 96/188/161 107/164/144
f 109/189/162 84/190/141 82/191/163
f 98/161/138 84/160/141 87/192/139
f 196/193/164 112/194/165 197/195/166
f 200/196/167 111/197/168 112/194/165 196/193/164
f 83/198/132 100/199/169 86/173/134
f 110/159/140 86/173/134 100/199/169
f 110/159/140 117/200/170 84/160/141
f 98/161/138 86/173/134 110/159/140
f 88/156/137 109/189/162 114/172/148
f 109/189/162 82/191/163 114/172/148
f 82/191/163 84/190/141 117/201/170
f 110/159/140 100/199/169 123/202/171
f 123/202/171 122/203/172 110/159/140
f 119/204/173 82/191/163 122/205/172
f 119/204/173 114/172/148 82/191/163
f 100/199/169 83/198/132 116/206/174
f 82/191/163 117/201/170 122/205/172
f 114/172/148 115/150/131 103/152/133
f 119/204/173 120/207/175 114/172/148
f 115/150/131 118/208/176 116/209/174
f 125/210/177 120/207/175 119/204/173
f 121/211/178 120/207/175 125/210/177
f 120/207/175 121/211/178 118/208/176
f 121/211/178 124/212/179 118/208/176
f 113/213/180 111/197/168 126/214/181
f 198/215/182 125/210/177 201/216/183
f 108/217/184 121/211/178 125/210/177
f 108/217/184 127/187/160 121/211/178
f 126/214/181 124/218/179 113/213/180
f 124/212/179 121/211/178 127/187/160
f 127/187/160 113/219/180 124/212/179
f 197/195/166 112/194/165 95/165/145 203/220/185
f 199/221/186 191/222/187 108/217/184
f 96/188/161 127/187/160 108/217/184
f 128/223/188 95/165/145 112/194/165
f 204/102/93 1/4/4 134/11/9
f 137/32/28 8/18/15 136/19/16
f 17/31/27 13/25/21 8/18/15
f 161/129/117 163/224/189 162/225/190 164/226/191 158/227/192 157/127/115 156/85/76 179/84/75 178/228/193 181/229/194 180/176/195 184/174/196 187/230/197 183/231/198 182/185/198 190/183/199 195/232/200 194/233/200 193/234/201 203/220/202 197/195/203 196/193/203 200/196/203 212/235/204 211/236/205 202/237/206 201/216/207 198/215/208 199/221/209 191/222/210 192/238/211 94/169/203 210/239/212 209/240/213 208/241/214 207/242/215 188/243/216 189/244/217 186/245/218 185/246/74 159/82/73
f 20/27/23 23/35/30 15/26/22
f 33/56/47 31/44/38 15/26/22
f 23/35/30 21/36/31 27/46/39
f 16/30/26 29/38/33 21/36/31
f 35/57/49 34/50/43 27/46/39
f 39/51/44 29/38/33 30/48/41
f 43/59/51 42/58/50 28/47/40
f 40/110/56 46/63/55 32/49/42
f 73/118/107 79/140/125 75/247/219 69/119/108
f 33/56/47 47/104/95 40/64/56
f 48/105/96 38/55/48 41/66/57
f 53/107/98 43/59/51 49/106/97
f 44/60/52 50/117/106 54/108/99
f 146/98/89 150/97/88 50/117/106
f 41/66/57 52/111/101 48/105/96
f 58/116/105 54/108/99 50/117/106
f 149/72/63 45/103/94 153/73/64
f 47/104/95 55/114/102 40/64/56
f 57/115/104 54/108/99 58/116/105
f 154/74/65 45/103/94 69/119/108 166/75/66
f 73/118/107 45/103/94 51/109/100
f 59/123/111 57/115/104 58/116/105
f 68/128/116 62/147/119 63/135/118
f 65/125/113 64/132/120 60/126/114
f 66/248/121 68/128/116 67/136/122
f 161/129/117 68/128/116 163/224/189
f 107/164/144 128/249/188 113/219/180 127/187/160
f 70/122/110 52/111/101 72/138/124
f 175/78/69 170/77/68 75/247/219
f 15/26/22 23/35/30 34/50/43 33/56/47
f 79/140/125 62/147/119 75/247/219
f 206/88/79 80/146/130 78/144/128 172/89/80
f 206/88/79 174/87/78 80/146/130
f 81/148/129 64/250/120 62/147/119
f 156/85/76 60/126/114 80/146/130 173/86/77
f 179/84/220 90/251/221 185/83/222
f 207/242/223 102/177/152 208/241/224
f 105/186/156 101/179/153 91/178/150
f 107/164/144 96/188/161 94/169/147
f 88/156/137 97/155/136 98/157/138
f 95/165/145 106/167/142 99/181/155
f 103/152/133 97/155/136 114/172/148
f 208/241/224 102/177/152 101/179/153 209/240/225
f 87/158/139 109/189/162 88/156/137
f 188/243/226 102/177/152 207/242/223
f 210/239/227 209/240/225 101/179/153
f 210/239/227 101/179/153 94/169/147
f 93/163/143 128/249/188 107/164/144
f 128/223/188 93/166/143 95/165/145
f 203/220/185 95/165/145 193/234/228
f 109/189/162 87/158/139 84/190/141
f 111/197/168 113/213/180 112/194/165
f 100/199/169 116/206/174 123/202/171
f 110/159/140 122/203/172 117/252/170
f 120/207/175 115/150/131 114/172/148
f 115/150/131 116/209/174 83/151/132
f 122/203/172 123/202/171 126/214/181
f 123/202/171 124/218/179 126/214/181
f 123/202/171 118/253/176 124/218/179
f 123/202/171 116/206/174 118/253/176
f 118/208/176 115/150/131 120/207/175
f 113/213/180 128/223/188 112/194/165
f 126/214/181 212/235/229 211/254/230 122/203/172
f 122/205/172 211/236/230 202/237/231 119/204/173
f 125/210/177 119/204/173 202/237/231 201/216/183
f 111/197/168 200/196/167 212/235/229 126/214/181
f 125/210/177 198/215/182 199/221/186 108/217/184
f 99/181/155 195/232/232 194/233/233
f 95/165/145 99/181/155 194/233/233 193/234/228
f 108/217/184 191/222/187 192/238/234 96/188/161
f 99/181/155 190/183/157 195/232/232
f 102/177/152 188/243/226 189/244/235 89/180/154
f 89/180/154 189/244/235 186/245/236 90/255/221
f 90/255/221 186/245/236 185/246/222
f 91/175/150 184/174/149 187/230/237 105/182/156
f 96/188/161 192/238/234 94/169/147
f 105/182/156 187/230/237 183/231/238 92/184/158
f 92/184/158 183/231/238 182/185/159
f 91/175/150 89/256/154 181/229/239 180/176/151
f 89/256/154 90/251/221 179/84/220 178/228/240
f 89/256/154 178/228/240 181/229/239
f 62/147/119 177/80/71 176/79/70 75/247/219
f 75/247/219 176/79/70 175/78/69
f 80/146/130 174/87/78 173/86/77
f 72/138/124 168/91/82 171/90/81 78/144/128
f 59/123/111 169/93/84 167/92/83
f 75/247/219 165/76/67 166/75/66 69/119/108
f 75/247/219 170/77/68 165/76/67
f 66/248/121 162/257/190 163/224/189 68/128/116
f 66/133/121 164/226/191 162/225/190
f 68/128/116 159/82/73 160/81/72 62/147/119
f 66/133/121 61/124/112 158/227/192 164/226/191
f 61/124/112 157/127/115 158/227/192
f 45/103/94 154/74/65 153/73/64
f 45/103/94 147/71/62 148/70/61 25/42/37
f 44/60/52 145/61/53 146/98/89 50/117/106
f 36/52/45 144/99/90 143/62/54
f 25/42/37 141/69/60 142/39/34 14/21/18
f 25/42/37 148/70/61 141/69/60
f 36/52/45 24/37/32 140/100/91 144/99/90
f 9/13/11 14/21/18 139/40/35 138/68/59
f 9/13/11 138/68/59 205/67/58
f 24/37/32 17/31/27 140/100/91
f 9/13/11 205/67/58 135/12/10 1/4/4
f 1/4/4 204/102/93 132/5/5
f 5/10/8 3/7/2 130/258/1 129/101/92
f 8/18/15 5/10/8 129/101/92 133/20/17
