# Blender 4.5.3 LTS
# www.blender.org
mtllib cucumber.mtl
o cucumber.001
v -0.059367 0.057974 -0.082595
v 0.005782 0.056265 -0.110820
v -0.007132 0.102347 -0.121574
v -0.004171 0.095471 -0.118213
v 0.002188 0.088381 -0.113924
v 0.005382 0.067665 -0.120263
v -0.055994 0.082287 -0.128336
v -0.014929 0.044912 -0.129573
v -0.059766 0.072170 -0.112359
v -0.050693 0.083665 -0.088492
v -0.042606 0.083134 -0.077597
v -0.039154 0.086487 -0.074561
v -0.003337 0.074793 -0.073676
v 0.002784 0.071019 -0.080527
v 0.003843 0.051908 -0.097358
v -0.002550 0.034329 -0.084163
v -0.058019 0.043842 -0.088874
v -0.057607 0.050225 -0.108945
v -0.048061 0.095434 -0.132703
v -0.011207 0.089831 -0.142473
v -0.015969 0.078677 -0.147255
v -0.032617 0.070707 -0.148144
v -0.045648 0.072632 -0.142644
v -0.037618 0.104992 -0.128798
v -0.061187 0.080753 -0.115327
v 0.006880 0.057975 -0.088821
v -0.005558 0.045575 -0.120645
v -0.034723 0.034948 -0.117017
v -0.045942 0.042727 -0.121211
v -0.056986 0.064215 -0.123480
v -0.032401 0.050137 -0.135678
v -0.029572 0.107024 -0.113017
v -0.017286 0.106247 -0.118679
v -0.051221 0.095057 -0.122790
v -0.039767 0.105519 -0.117660
v -0.000488 0.091179 -0.125167
v 0.002573 0.075011 -0.130396
v -0.051745 0.091688 -0.108150
v -0.056159 0.084578 -0.114642
v -0.054110 0.076864 -0.088051
v 0.003124 0.066131 -0.085093
v 0.003826 0.059864 -0.072457
v 0.002138 0.042087 -0.077089
v -0.058606 0.065392 -0.089473
v -0.016685 0.085879 -0.075679
v -0.015574 0.027437 -0.096266
v -0.035485 0.022322 -0.083107
v -0.024129 0.108461 -0.126241
v -0.035649 0.097122 -0.144106
v -0.033251 0.091968 -0.147841
v -0.006646 0.084478 -0.075407
v -0.013104 0.103684 -0.131361
v -0.032741 0.100388 -0.103541
v -0.048030 0.029288 -0.083415
v -0.061252 0.064310 -0.073945
v -0.030054 0.099644 -0.143806
v 0.001844 0.071599 -0.079475
v 0.004772 0.071620 -0.119053
v 0.002894 0.071606 -0.092188
v -0.047518 0.071244 -0.139483
v -0.056604 0.071178 -0.125351
v 0.004395 0.071617 -0.121087
v -0.015747 0.071472 -0.143482
v 0.000584 0.071590 -0.130302
v 0.001630 0.071597 -0.129265
v 0.003872 0.071613 -0.125709
v -0.056338 0.071180 -0.088756
v -0.059666 0.071156 -0.112201
v -0.059695 0.071156 -0.110897
v -0.032636 0.071351 -0.148135
v -0.036773 0.071321 -0.146390
v 0.002764 0.071605 -0.081655
v -0.059593 0.071157 -0.108938
v -0.059737 0.071156 -0.110233
v -0.059575 0.071157 -0.099176
v -0.059412 0.071158 -0.113774
v -0.045662 0.071257 -0.141659
v -0.044842 0.071263 -0.142220
v -0.031252 0.071361 -0.148071
v -0.001872 0.033888 -0.072985
v -0.005771 0.029033 -0.072960
v -0.034212 0.020496 -0.072781
v -0.036351 0.021369 -0.072767
v -0.046413 0.026913 -0.072704
v -0.055505 0.038114 -0.072647
v -0.057468 0.041019 -0.072634
v -0.057767 0.043150 -0.072632
v -0.058033 0.045805 -0.072631
v -0.059504 0.055823 -0.072622
v -0.057725 0.043473 -0.072633
v -0.019888 0.021331 -0.072871
v -0.029620 0.020381 -0.072810
v 0.003665 0.051697 -0.073019
v 0.003826 0.059684 -0.073020
v -0.003265 0.074665 -0.072976
v 0.001636 0.071058 -0.073007
v -0.038871 0.086163 -0.072752
v -0.036890 0.085784 -0.072764
v -0.054627 0.069595 -0.072652
v -0.059759 0.065567 -0.072620
v -0.060100 0.057451 -0.072618
v -0.025682 0.086175 -0.072835
v -0.028256 0.086324 -0.072818
v -0.019426 0.085056 -0.072874
v -0.057841 0.044617 -0.072632
v 0.001987 0.041175 -0.073009
v 0.002372 0.043684 -0.073011
v 0.002056 0.065661 -0.073009
v 0.003795 0.060143 -0.073020
v -0.003484 0.074753 -0.072974
v -0.016558 0.085425 -0.072892
v -0.017643 0.085214 -0.072885
v -0.061117 0.064051 -0.072611
v -0.061024 0.064335 -0.072612
v -0.042680 0.082041 -0.072728
v 0.002194 0.041873 -0.073010
v -0.048303 0.028175 -0.072692
v -0.010926 0.025085 -0.072928
v 0.003931 0.059799 -0.073021
v 0.001417 0.068074 -0.073005
v -0.006804 0.083409 -0.072954
v -0.015770 0.084527 -0.072897
v -0.046233 0.081211 -0.072705
v -0.047777 0.078268 -0.072695
v -0.059296 0.058768 -0.072623
v -0.053489 0.072641 -0.072659
v -0.054028 0.071197 -0.072656
v 0.000911 0.071592 -0.073002
v -0.001816 0.033852 -0.072053
v -0.006034 0.028600 -0.072045
v -0.055396 0.037867 -0.071949
v -0.057756 0.043121 -0.071944
v -0.057942 0.044967 -0.071944
v -0.059513 0.055676 -0.071941
v -0.057727 0.043345 -0.071945
v 0.003820 0.059696 -0.072064
v -0.038750 0.086025 -0.071981
v -0.035911 0.085480 -0.071987
v -0.054461 0.069771 -0.071951
v -0.060150 0.057415 -0.071940
v -0.057808 0.044140 -0.071944
v 0.003885 0.059893 -0.072064
v 0.001972 0.065624 -0.072060
v 0.003760 0.059947 -0.072064
v -0.042692 0.081871 -0.071974
v -0.010748 0.024995 -0.072036
v -0.046024 0.081097 -0.071967
v -0.047476 0.078335 -0.071964
v -0.053460 0.072447 -0.071953
v 0.000775 0.071591 -0.072058
v -0.034115 0.020356 -0.071990
v -0.036416 0.021297 -0.071986
v -0.046301 0.026750 -0.071967
v -0.057445 0.040900 -0.071945
v -0.020046 0.021108 -0.072018
v -0.029159 0.020228 -0.072000
v 0.003658 0.051689 -0.072064
v -0.003170 0.074496 -0.072050
v 0.001492 0.071063 -0.072059
v -0.058995 0.066211 -0.071942
v -0.025834 0.085813 -0.072006
v -0.028137 0.085950 -0.072002
v -0.020264 0.084805 -0.072017
v 0.001952 0.040962 -0.072060
v 0.002426 0.044056 -0.072061
v -0.003678 0.074700 -0.072049
v -0.016518 0.085283 -0.072024
v -0.017940 0.085009 -0.072022
v -0.061048 0.063921 -0.071938
v -0.060908 0.064348 -0.071938
v 0.002207 0.041823 -0.072061
v -0.048322 0.028099 -0.071963
v 0.001284 0.068226 -0.072059
v -0.006862 0.083012 -0.072043
v -0.015484 0.084104 -0.072026
v -0.059291 0.058822 -0.071942
v -0.053927 0.071198 -0.071952
vn 0.8441 -0.5302 -0.0799
vn 0.6781 -0.7284 -0.0984
vn 0.7918 -0.5924 -0.1488
vn -0.1297 -0.9813 -0.1419
vn -0.4021 -0.9083 -0.1152
vn -0.2689 -0.9391 -0.2139
vn -0.8023 -0.5953 -0.0451
vn -0.9182 -0.3959 0.0148
vn -0.9736 -0.2151 -0.0759
vn -0.9825 -0.1755 -0.0617
vn -0.9654 -0.2585 -0.0338
vn -0.9906 -0.1286 -0.0456
vn 0.0719 -0.9838 -0.1640
vn 0.3667 -0.8871 -0.2802
vn 0.2249 -0.9616 -0.1574
vn 0.9546 -0.2916 -0.0614
vn 0.9063 -0.4207 -0.0398
vn 0.9948 -0.0900 0.0487
vn 0.9207 -0.3546 0.1631
vn 0.6177 0.7748 0.1348
vn 0.6431 0.7553 0.1263
vn 0.7345 0.6484 0.2004
vn 0.4681 0.8699 0.1557
vn -0.3363 0.9124 0.2334
vn 0.1098 0.9623 0.2487
vn -0.5184 0.8077 0.2809
vn -0.9920 0.0592 -0.1115
vn -0.9367 0.3475 -0.0415
vn -0.8463 0.4741 0.2428
vn -0.8226 0.5675 0.0349
vn -0.7434 0.6088 0.2770
vn -0.7943 0.5785 0.1854
vn -0.5482 0.7998 0.2443
vn -0.4835 0.8753 0.0105
vn 0.9848 0.1608 0.0650
vn 0.9120 0.4100 0.0147
vn 0.9901 0.0950 0.1038
vn 0.9666 -0.2188 -0.1332
vn 0.9806 0.1751 0.0885
vn 0.9769 -0.1640 -0.1367
vn 0.7275 -0.5810 -0.3649
vn 0.3632 -0.7038 -0.6105
vn -0.7484 -0.2000 -0.6324
vn -0.9349 -0.1807 -0.3054
vn -0.9339 0.0641 -0.3518
vn 0.9453 0.1830 -0.2701
vn -0.3227 0.9220 -0.2138
vn -0.1158 0.9756 0.1863
vn 0.0754 0.9881 -0.1344
vn -0.8336 0.0141 -0.5522
vn -0.8020 0.5937 -0.0659
vn 0.4150 0.8727 -0.2572
vn 0.3338 0.9384 0.0894
vn 0.6984 0.7139 -0.0515
vn 0.6209 0.3950 -0.6771
vn 0.9196 0.3566 -0.1646
vn 0.9511 0.1093 -0.2888
vn 0.3881 -0.3860 -0.8369
vn 0.5091 -0.3509 -0.7859
vn -0.1336 -0.3025 -0.9438
vn -0.1725 -0.6310 -0.7564
vn -0.6524 -0.0901 -0.7525
vn -0.7009 0.6374 -0.3202
vn -0.2047 -0.8744 -0.4398
vn -0.6090 -0.6684 -0.4270
vn 0.8852 -0.2689 -0.3796
vn 0.6979 -0.5262 -0.4858
vn -0.9599 0.2800 0.0108
vn -0.9193 0.3709 0.1320
vn 0.9935 -0.0940 0.0647
vn -0.9971 -0.0455 -0.0610
vn -0.9896 -0.1409 -0.0286
vn -0.9850 -0.1356 -0.1071
vn 0.9212 -0.3834 -0.0667
vn 0.9948 -0.1012 -0.0132
vn 0.7571 0.3798 0.5315
vn 0.7251 -0.0792 0.6841
vn 0.9834 0.1813 0.0115
vn 0.9365 0.3433 0.0715
vn 0.9504 0.2888 0.1157
vn 0.3821 0.9146 0.1327
vn 0.1337 0.9201 0.3682
vn -0.1685 0.9640 0.2055
vn -0.9935 -0.0251 0.1111
vn -0.8417 0.5193 0.1480
vn -0.2583 0.2816 -0.9241
vn -0.4648 0.6404 -0.6114
vn -0.4289 -0.2127 -0.8779
vn -0.1873 0.0424 -0.9814
vn -0.0498 0.8008 -0.5969
vn 0.3490 -0.0652 -0.9348
vn -0.5319 0.8269 0.1825
vn 0.9855 -0.1674 -0.0276
vn 0.5300 -0.8294 -0.1768
vn 0.9768 -0.1401 0.1617
vn 0.9838 0.0837 0.1584
vn 0.9604 0.2717 0.0621
vn 0.8666 0.4876 0.1063
vn 0.6936 0.6773 0.2454
vn 0.6989 0.6689 0.2531
vn 0.6225 0.7448 0.2403
vn 0.0620 0.9341 0.3517
vn 0.9398 0.3237 0.1095
vn 0.1357 0.5711 0.8096
vn -0.0035 0.5908 0.8068
vn 0.0068 0.6170 0.7869
vn -0.2056 0.7341 0.6472
vn -0.2676 0.5530 0.7890
vn -0.3129 0.5412 0.7805
vn -0.4327 0.3700 0.8221
vn -0.5612 0.4180 0.7144
vn -0.5823 0.2928 0.7584
vn -0.5969 0.3419 0.7258
vn -0.4395 0.5258 0.7283
vn -0.5815 0.3953 0.7111
vn -0.7523 -0.0349 0.6579
vn -0.7856 0.0868 0.6126
vn -0.7492 0.0411 0.6611
vn -0.7614 -0.1774 0.6235
vn -0.7361 -0.1104 0.6678
vn -0.7347 -0.0922 0.6721
vn -0.7577 0.0288 0.6520
vn -0.7525 -0.0072 0.6586
vn -0.7310 -0.2414 0.6383
vn -0.6008 -0.4449 0.6641
vn -0.5241 -0.5749 0.6283
vn -0.3907 -0.6355 0.6659
vn -0.3296 -0.6726 0.6625
vn -0.1696 -0.8333 0.5262
vn 0.0059 -0.8224 0.5689
vn 0.1979 -0.8178 0.5405
vn 0.3711 -0.6628 0.6503
vn 0.4901 -0.5674 0.6617
vn 0.6248 -0.4036 0.6684
vn 0.6872 -0.2807 0.6701
vn 0.7114 -0.1252 0.6915
vn 0.6873 -0.0890 0.7209
vn 0.6910 -0.0772 0.7187
vn 0.5941 0.4195 0.6863
vn 0.5765 0.1446 0.8042
vn 0.6826 0.0139 0.7307
vn 0.6985 0.2736 0.6613
vn 0.4523 0.5407 0.7093
vn 0.3889 0.6153 0.6857
vn 0.4853 0.4064 0.7742
vn 0.4609 0.3981 0.7932
vn 0.2517 0.5086 0.8234
vn 0.3001 0.7364 0.6064
vn -0.0509 0.6220 0.7813
vn 0.0588 0.6106 0.7898
vn -0.9986 0.0261 0.0455
vn -0.9974 -0.0494 0.0534
vn -0.9687 0.1221 0.2163
vn -0.0405 0.9033 0.4271
vn 0.7758 0.5887 0.2272
vn -0.8549 -0.4951 -0.1551
vn -0.5995 -0.7756 -0.1974
vn -0.9786 -0.1285 -0.1610
vn -0.6470 -0.4218 -0.6352
vn -0.4806 -0.4858 -0.7301
vn 0.1254 -0.2185 -0.9677
vn -0.8891 0.3581 0.2850
vn 0.5083 0.8118 0.2875
vn -0.9510 0.2787 0.1339
vn -0.8026 0.5504 0.2301
vn -0.7405 0.5905 0.3209
vn -0.6436 0.7035 0.3014
vn -0.9959 0.0893 -0.0129
vn 0.0064 0.8960 0.4440
vn 0.0815 0.8710 0.4845
vn -0.6627 0.7461 0.0643
vn -0.8487 0.5240 0.0716
vn -0.9984 -0.0559 0.0110
vn -0.9921 -0.1228 -0.0254
vn -0.9983 -0.0505 0.0302
vn -0.6870 -0.7236 -0.0662
vn -0.5005 -0.8563 -0.1273
vt 0.158680 0.376893
vt 0.136113 0.388494
vt 0.155764 0.363915
vt 0.010929 0.408127
vt 0.006488 0.403906
vt 0.007936 0.390530
vt 0.740719 0.384561
vt 0.754718 0.391997
vt 0.761559 0.416502
vt 0.329099 0.299170
vt 0.372657 0.323143
vt 0.381404 0.340614
vt 0.031285 0.408924
vt 0.092004 0.361959
vt 0.071740 0.407009
vt 0.194002 0.346732
vt 0.213684 0.293883
vt 0.228356 0.320010
vt 0.259500 0.288880
vt 0.850687 0.219727
vt 0.848724 0.211175
vt 0.876176 0.212659
vt 0.875366 0.213830
vt 0.550085 0.408735
vt 0.557736 0.406739
vt 0.549888 0.412492
vt 0.379781 0.327597
vt 0.443974 0.433456
vt 0.455170 0.398537
vt 0.461239 0.442234
vt 0.485385 0.417353
vt 0.486110 0.457656
vt 0.525682 0.402719
vt 0.529597 0.505297
vt 0.857262 0.153152
vt 0.883419 0.126317
vt 0.843516 0.189982
vt 0.246210 0.207248
vt 0.265660 0.251739
vt 0.227831 0.261314
vt 0.160790 0.280182
vt 0.105906 0.256178
vt 0.761734 0.589839
vt 0.782074 0.536145
vt 0.784030 0.558449
vt 0.249725 0.192108
vt 0.251090 0.196049
vt 0.526859 0.517769
vt 0.560091 0.520876
vt 0.565982 0.544404
vt 0.449729 0.453709
vt 0.487910 0.475243
vt 0.951334 0.073690
vt 0.971323 0.076358
vt 0.935473 0.087916
vt 0.219657 0.070901
vt 0.267121 0.117171
vt 0.243509 0.161211
vt 0.159315 0.136657
vt 0.227868 0.172006
vt 0.114678 0.116475
vt 0.056370 0.212656
vt 0.447956 0.490244
vt 0.488027 0.489872
vt 0.671337 0.524885
vt 0.649880 0.432518
vt 0.709070 0.460497
vt 0.026345 0.299494
vt 0.244758 0.182504
vt 0.233916 0.175008
vt 0.401941 0.346819
vt 0.407829 0.372117
vt 0.241972 0.274003
vt 0.637132 0.358510
vt 0.417262 0.411421
vt 0.416273 0.409103
vt 0.419845 0.413407
vt 0.191663 0.353844
vt 0.201858 0.345849
vt 0.260777 0.289183
vt 0.260154 0.289829
vt 0.260561 0.288764
vt 0.830835 0.230969
vt 0.813030 0.252229
vt 0.830492 0.210762
vt 0.946341 0.186709
vt 0.947209 0.181889
vt 0.951768 0.189218
vt 0.401710 0.344613
vt 0.402809 0.345258
vt 0.733843 0.686991
vt 0.757717 0.600445
vt 0.757848 0.670933
vt 0.893346 0.108346
vt 0.507711 0.532332
vt 0.728005 0.630165
vt 0.714689 0.645382
vt 0.526829 0.548009
vt 0.135676 0.025774
vt 0.173803 0.104236
vt 0.521145 0.391110
vt 0.194490 0.352028
vt 0.109557 0.396234
vt 0.259920 0.288255
vt 0.260788 0.287114
vt 0.839264 0.224333
vt 0.843741 0.210906
vt 0.846401 0.220751
vt 0.876804 0.213899
vt 0.908256 0.184632
vt 0.907193 0.191387
vt 0.957495 0.187195
vt 0.845081 0.208049
vt 0.995822 0.108314
vt 0.584555 0.400142
vt 0.561130 0.404250
vt 0.550169 0.407136
vt 0.520443 0.389313
vt 0.500071 0.384719
vt 0.487520 0.377353
vt 0.447968 0.366097
vt 0.442916 0.363011
vt 0.437145 0.359487
vt 0.414284 0.349356
vt 0.403248 0.344469
vt 0.401593 0.343500
vt 0.387573 0.330457
vt 0.379671 0.326712
vt 0.372060 0.321951
vt 0.325494 0.296314
vt 0.321100 0.294412
vt 0.319168 0.293074
vt 0.755985 0.396498
vt 0.754428 0.390956
vt 0.739823 0.383188
vt 0.690191 0.358599
vt 0.679721 0.355236
vt 0.006379 0.404917
vt 0.011158 0.409475
vt 0.033122 0.410370
vt 0.071001 0.408653
vt 0.110228 0.397544
vt 0.134508 0.390502
vt 0.158923 0.377974
vt 0.191119 0.355497
vt 0.194603 0.353261
vt 0.203689 0.345643
vt 0.228933 0.321036
vt 0.812032 0.254598
vt 0.812544 0.254441
vt 0.830862 0.232556
vt 0.839951 0.225395
vt 0.846736 0.221992
vt 0.850974 0.220975
vt 0.874295 0.215378
vt 0.877632 0.215533
vt 0.906798 0.193894
vt 0.940082 0.192230
vt 0.946071 0.188209
vt 0.953177 0.191483
vt 0.965149 0.158290
vt 0.417099 0.408206
vt 0.418049 0.407235
vt 0.421394 0.395137
vt 0.552715 0.482384
vt 0.917418 0.105828
vt 0.764119 0.466998
vt 0.690403 0.373954
vt 0.417790 0.414357
vt 0.421430 0.433526
vt 0.403691 0.420875
vt 0.755480 0.594010
vt 0.752460 0.595846
vt 0.987829 0.057799
vt 0.992666 0.069859
vt 0.119527 0.115471
vt 0.592278 0.509796
vt 0.431715 0.385447
vt 0.812215 0.254164
vt 0.941781 0.189765
vt 0.916686 0.068504
vt 0.978357 0.022676
vt 0.115314 0.113729
vt 0.946388 0.035053
vt 0.151837 0.003737
vt 0.486151 0.533997
vt 0.714091 0.644083
vt 0.363923 0.370413
vt 0.787151 0.594032
vt 0.851090 0.159484
vt 0.271771 0.148587
vt 0.442446 0.363951
vt 0.448284 0.367521
vt 0.486050 0.378316
vt 0.499415 0.386176
vt 0.387179 0.331106
vt 0.960638 0.188815
vt 0.583731 0.402272
vt 0.591714 0.400555
vt 0.995388 0.107747
vt 0.960951 0.163812
vt 0.410107 0.348497
vt 0.435971 0.359992
vt 0.320000 0.294513
vt 0.322780 0.296437
vt 0.318689 0.307128
vt 0.317446 0.291912
vt 0.756211 0.397311
vt 0.690205 0.359577
vt 0.680409 0.356441
vt 0.637772 0.344505
vt 0.591704 0.398581
vt 0.637820 0.343447
vt 0.317393 0.291268
s 1
usemtl Material.003
f 80/1/1 81/2/2 16/3/3
f 82/4/4 83/5/5 47/6/6
f 85/7/7 86/8/8 17/9/9
f 88/10/10 89/11/11 1/12/12
f 92/13/13 47/6/6 46/14/14 91/15/15
f 43/16/16 16/3/3 15/17/17
f 93/18/18 15/17/17 94/19/19
f 128/20/20 57/21/21 13/22/22 95/23/23
f 97/24/24 98/25/25 12/26/26
f 89/11/11 101/27/27 1/12/12
f 25/28/28 40/29/29 39/30/30
f 39/30/30 10/31/31 38/32/32
f 11/33/33 12/26/26 35/34/34
f 58/35/35 5/36/36 59/37/37
f 6/38/38 41/39/39 2/40/40
f 27/41/41 2/40/40 15/17/17
f 27/41/41 15/17/17 16/3/3
f 8/42/42 27/41/41 46/14/14
f 60/43/43 30/44/44 61/45/45
f 62/46/46 58/47/35 6/38/38
f 24/48/47 32/49/48 48/50/49
f 35/34/34 32/49/48 24/48/47
f 7/51/50 39/30/30 34/52/51
f 52/53/52 33/54/53 3/55/54
f 20/56/55 36/57/56 37/58/57
f 63/59/58 64/60/59 8/42/42
f 22/61/60 8/42/42 31/62/61
f 23/63/62 7/51/50 19/64/63
f 31/65/61 28/66/64 29/67/65
f 31/62/61 8/42/42 28/68/64
f 66/69/66 6/38/38 27/41/41 65/70/67
f 38/32/32 11/33/33 35/34/34
f 1/12/12 55/71/68 44/72/69
f 26/73/70 2/40/40 41/39/39
f 16/3/3 46/14/14 27/41/41
f 28/66/64 47/74/6 29/67/65
f 68/75/71 69/76/72 9/77/73
f 80/1/1 16/3/3 43/16/16 106/78/74
f 107/79/75 43/16/16 15/17/17 93/18/18
f 142/80/76 136/81/77 42/82/78
f 108/83/79 109/84/80 41/85/39
f 111/86/81 45/87/82 112/88/83
f 113/89/84 114/90/85 55/71/68
f 50/91/86 23/92/62 49/93/87
f 52/53/52 3/55/54 36/94/56
f 49/95/87 19/64/63 24/48/47
f 71/96/88 23/92/62 50/91/86 70/97/89
f 49/95/87 24/48/47 56/98/90
f 50/99/86 20/56/55 21/100/91
f 97/24/24 12/26/26 11/33/33 115/101/92
f 107/79/75 116/102/93 43/16/16
f 116/102/93 106/78/74 43/16/16
f 118/103/94 91/15/15 46/14/14
f 94/19/19 15/17/17 26/73/70 119/104/95
f 109/105/80 42/82/78 119/104/95
f 120/106/96 41/85/39 14/107/97 96/108/98
f 110/109/99 13/22/22 51/110/100 121/111/101
f 104/112/102 112/88/83 45/87/82
f 57/21/21 14/107/97 72/113/103
f 161/114/104 162/115/105 138/116/106 137/117/107 145/118/108 147/119/109 148/120/110 149/121/111 177/122/112 139/123/113 160/124/114 170/125/115 169/126/116 176/127/117 140/128/118 134/129/119 133/130/120 141/131/121 135/132/122 132/133/123 154/134/124 131/135/125 172/136/126 153/137/127 152/138/128 151/139/129 156/140/130 155/141/131 146/142/132 130/143/133 129/144/134 164/145/135 171/146/136 165/147/137 157/148/138 136/81/77 142/149/76 144/150/139 143/151/140 173/152/141 159/153/142 150/154/143 158/155/144 166/156/145 174/157/146 175/158/147 167/159/148 168/160/149 163/161/150
f 74/162/151 1/12/12 44/72/69 73/163/152
f 73/163/152 44/72/69 75/164/153
f 38/32/32 10/31/31 11/33/33
f 35/34/34 12/26/26 53/165/154
f 3/55/54 33/54/53 45/87/82
f 4/166/155 3/55/54 45/87/82
f 17/9/9 18/167/156 29/67/65 54/168/157
f 59/37/37 5/36/36 72/113/103
f 28/68/64 8/42/42 46/14/14
f 76/169/158 61/170/45 30/171/44
f 35/34/34 24/48/47 19/64/63 34/52/51
f 77/172/159 29/67/65 30/44/44 60/43/43
f 78/173/160 31/65/61 29/67/65 77/172/159
f 64/60/59 37/58/57 65/70/67
f 66/69/66 62/46/46 6/38/38
f 36/94/56 4/166/155 5/36/36
f 33/54/53 48/174/49 32/175/48
f 35/34/34 53/165/154 32/49/48
f 34/52/51 38/32/32 35/34/34
f 7/51/50 25/28/28 39/30/30
f 19/64/63 7/51/50 34/52/51
f 52/53/52 48/174/49 33/54/53
f 36/94/56 3/55/54 4/166/155
f 21/100/91 20/56/55 37/58/57
f 79/176/161 21/100/91 63/59/58
f 71/96/88 78/173/160 23/92/62
f 76/169/158 68/75/71 9/77/73
f 30/44/44 29/67/65 18/167/156
f 27/41/41 6/38/38 2/40/40
f 33/177/53 32/49/48 53/165/154
f 34/52/51 39/30/30 38/32/32
f 75/164/153 44/72/69 67/178/162
f 39/30/30 40/29/29 10/31/31
f 45/87/82 51/110/100 4/166/155
f 51/110/100 13/22/22 4/166/155
f 26/73/70 15/17/17 2/40/40
f 46/14/14 47/6/6 28/68/64
f 29/67/65 47/74/6 54/168/157
f 92/13/13 82/4/4 47/6/6
f 120/106/96 108/83/79 41/85/39
f 144/150/139 142/149/76 42/179/78
f 111/86/81 122/180/163 45/87/82
f 49/95/87 23/63/62 19/64/63
f 20/181/55 52/53/52 36/94/56
f 52/53/52 56/182/90 48/174/49
f 56/98/90 24/48/47 48/50/49
f 70/183/89 79/176/161 22/61/60
f 20/184/55 56/182/90 52/53/52
f 50/99/86 56/185/90 20/56/55
f 50/186/86 49/95/87 56/98/90
f 23/92/62 78/173/160 77/172/159
f 9/77/73 74/162/151 73/163/152
f 9/77/73 73/163/152 75/164/153 25/28/28
f 22/187/60 31/65/61 78/173/160 71/96/88
f 22/187/60 71/96/88 70/97/89
f 50/99/86 21/100/91 79/176/161 70/183/89
f 9/77/73 69/76/72 74/162/151
f 30/171/44 18/188/156 68/75/71 76/169/158
f 25/28/28 75/164/153 67/178/162 40/29/29
f 37/58/57 66/69/66 65/70/67
f 8/42/42 64/60/59 65/70/67 27/41/41
f 21/100/91 37/58/57 64/60/59 63/59/58
f 22/61/60 79/176/161 63/59/58 8/42/42
f 37/58/57 36/57/56 62/46/46 66/69/66
f 9/77/73 25/28/28 7/51/50 61/170/45 76/169/158
f 23/92/62 60/43/43 61/45/45 7/189/50
f 23/92/62 77/172/159 60/43/43
f 41/85/39 59/37/37 72/113/103 14/107/97
f 6/190/38 58/35/35 59/37/37 41/85/39
f 36/57/56 5/191/36 58/47/35 62/46/46
f 13/22/22 57/21/21 72/113/103 5/36/36 4/166/155
f 96/108/98 14/107/97 57/21/21 128/20/20
f 110/109/99 95/23/23 13/22/22
f 67/178/162 127/192/164 126/193/165 40/29/29
f 40/29/29 126/193/165 124/194/166
f 10/31/31 40/29/29 124/194/166 123/195/167
f 45/87/82 122/180/163 121/111/101 51/110/100
f 10/31/31 123/195/167 115/101/92 11/33/33
f 169/126/116 170/125/115 114/90/85 113/89/84
f 55/71/68 1/12/12 125/196/168 113/89/84
f 167/159/148 111/86/81 112/88/83 168/160/149
f 167/159/148 175/158/147 122/180/163 111/86/81
f 166/156/145 110/109/99 121/111/101 174/157/146
f 41/39/39 109/105/80 119/104/95 26/73/70
f 144/150/139 42/179/78 109/84/80 108/83/79 143/151/140
f 173/152/141 143/151/140 108/83/79 120/106/96
f 165/147/137 171/146/136 116/102/93 107/79/75
f 171/146/136 164/145/135 106/78/74 116/102/93
f 163/197/150 168/160/149 112/88/83 104/112/102
f 33/177/53 53/165/154 103/198/169 102/199/170
f 33/54/53 102/200/170 104/201/102 45/87/82
f 1/12/12 101/27/27 125/196/168
f 55/71/68 114/90/85 100/202/171
f 44/72/69 55/71/68 100/202/171 99/203/172
f 44/72/69 99/203/172 127/192/164 67/178/162
f 12/26/26 98/25/25 103/198/169 53/165/154
f 137/117/107 138/116/106 98/25/25 97/24/24
f 137/117/107 97/24/24 115/101/92 145/118/108
f 173/152/141 120/106/96 96/108/98 159/153/142
f 159/153/142 96/108/98 128/20/20 150/154/143
f 150/154/143 128/20/20 95/23/23 158/155/144
f 166/156/145 158/155/144 95/23/23 110/109/99
f 42/82/78 94/19/19 119/104/95
f 157/148/138 93/18/18 94/19/19 42/82/78 136/81/77
f 165/147/137 107/79/75 93/18/18 157/148/138
f 156/140/130 92/13/13 91/15/15 155/141/131
f 146/142/132 155/141/131 91/15/15 118/103/94
f 18/188/156 90/204/173 105/205/174 69/76/72 68/75/71
f 134/129/119 140/128/118 101/27/27 89/11/11
f 133/130/120 134/129/119 89/11/11 88/10/10
f 69/76/72 105/205/174 88/10/10 1/12/12 74/162/151
f 17/206/9 87/207/175 90/204/173 18/188/156
f 17/9/9 86/8/8 87/208/175
f 131/135/125 154/134/124 86/8/8 85/7/7
f 54/168/157 117/209/176 85/7/7 17/9/9
f 54/168/157 84/210/177 117/209/176
f 47/74/6 83/211/5 84/210/177 54/168/157
f 151/139/129 152/138/128 83/5/5 82/4/4
f 156/140/130 151/139/129 82/4/4 92/13/13
f 16/3/3 81/2/2 118/103/94 46/14/14
f 129/144/134 130/143/133 81/2/2 80/1/1
f 129/144/134 80/1/1 106/78/74 164/145/135
f 122/180/163 175/158/147 174/157/146 121/111/101
f 113/89/84 125/196/168 176/127/117 169/126/116
f 102/199/170 103/198/169 162/115/105 161/212/104
f 102/200/170 161/114/104 163/161/150 104/201/102
f 114/90/85 170/125/115 160/124/114 100/202/171
f 84/210/177 153/137/127 172/136/126 117/209/176
f 83/211/5 152/213/128 153/137/127 84/210/177
f 127/192/164 177/122/112 149/121/111 126/193/165
f 126/193/165 149/121/111 148/120/110 124/194/166
f 123/195/167 124/194/166 148/120/110 147/119/109
f 123/195/167 147/119/109 145/118/108 115/101/92
f 101/27/27 140/128/118 176/127/117 125/196/168
f 99/203/172 100/202/171 160/124/114 139/123/113
f 99/203/172 139/123/113 177/122/112 127/192/164
f 98/25/25 138/116/106 162/115/105 103/198/169
f 90/204/173 135/132/122 141/131/121 105/205/174
f 105/205/174 141/131/121 133/130/120 88/10/10
f 86/8/8 154/134/124 132/133/123 87/208/175
f 87/207/175 132/214/123 135/132/122 90/204/173
f 117/209/176 172/136/126 131/135/125 85/7/7
f 81/2/2 130/143/133 146/142/132 118/103/94
o cucumber
v -0.061976 0.048506 0.080064
v 0.003411 0.045470 0.057236
v -0.059158 0.060306 -0.053313
v -0.049316 0.071230 -0.046995
v -0.046450 0.076691 -0.040367
v -0.014963 0.079739 -0.038011
v -0.022277 0.017950 -0.059917
v -0.008274 0.073446 -0.050095
v -0.001292 0.071159 -0.053815
v 0.003519 0.051523 -0.052990
v -0.057916 0.054109 0.003348
v -0.048788 0.068772 0.021139
v -0.046973 0.071870 -0.008311
v -0.039292 0.076833 -0.019892
v -0.028723 0.080182 -0.023815
v -0.020596 0.080118 -0.002931
v -0.009769 0.078099 -0.019870
v -0.008355 0.074392 0.001156
v -0.001394 0.063671 -0.015420
v 0.005880 0.055217 -0.018565
v 0.003070 0.038521 -0.009112
v -0.006336 0.022778 0.000588
v -0.012061 0.018979 -0.033347
v -0.022485 0.014884 0.004619
v -0.024140 0.011674 -0.012807
v -0.030298 0.014881 -0.041023
v -0.039943 0.017414 -0.029854
v -0.056012 0.033554 -0.029684
v -0.058665 0.051102 0.035781
v -0.061498 0.060535 0.050813
v -0.045300 0.078525 0.067587
v -0.044017 0.077635 0.049316
v -0.030504 0.080407 0.065716
v -0.022352 0.081026 0.080096
v 0.006069 0.039237 0.038447
v -0.010006 0.022885 0.059756
v -0.015925 0.018345 0.035068
v -0.027997 0.015706 0.066363
v -0.033284 0.017792 0.057462
v -0.054337 0.025545 0.056241
v -0.027116 0.082748 -0.065006
v -0.059935 0.049028 -0.041125
v -0.028852 0.080866 0.027824
v -0.021840 0.078868 0.027010
v -0.008729 0.071921 0.026680
v -0.002589 0.064627 0.018228
v 0.006871 0.060148 0.039893
v -0.008420 0.018269 0.029126
v -0.042687 0.073599 -0.003987
v -0.048984 0.073394 0.009472
v -0.052204 0.065306 -0.021114
v -0.052573 0.068547 0.072160
v -0.034744 0.083578 0.082906
v -0.057626 0.043905 0.084206
v -0.056865 0.055814 0.079801
v -0.062558 0.055698 -0.039175
v -0.018673 0.077087 -0.022501
v -0.003247 0.069827 -0.000756
v 0.000525 0.032330 -0.033461
v -0.007343 0.018694 -0.040901
v -0.026500 0.012157 -0.044022
v -0.062230 0.042091 -0.036083
v -0.035318 0.082101 -0.050062
v 0.007916 0.061896 -0.045055
v -0.023187 0.081368 -0.056726
v -0.034939 0.076497 0.014829
v -0.016499 0.079373 0.012558
v 0.004770 0.056532 0.014505
v -0.057447 0.040190 0.002557
v -0.051254 0.077787 0.070840
v -0.013567 0.077433 0.065018
v 0.001769 0.060283 0.066681
v 0.002945 0.051836 0.040356
v -0.061600 0.047035 0.036494
v -0.033871 0.081583 0.050734
v 0.000229 0.036211 0.067558
v -0.002682 0.030521 0.061455
v -0.047546 0.023469 0.040227
v -0.052253 0.028751 0.028668
v -0.000027 0.064745 -0.049431
v -0.042863 0.079358 -0.060779
v -0.053254 0.071046 -0.066847
v -0.049321 0.024026 -0.032740
v -0.030978 0.077195 -0.013563
v -0.052767 0.065829 0.037459
v -0.011401 0.074951 0.013942
v -0.008820 0.024019 -0.062354
v -0.051314 0.071216 0.080193
v -0.047339 0.071245 -0.002369
v -0.048892 0.071234 0.014925
v -0.049591 0.071229 0.050273
v -0.052086 0.071211 0.052482
v -0.005633 0.071545 -0.024178
v -0.002538 0.071567 -0.053151
v -0.001526 0.071575 -0.056086
v -0.047905 0.071241 0.032897
v -0.047457 0.071244 0.028998
v -0.008396 0.071525 0.026221
v -0.053277 0.071202 -0.067416
v -0.005173 0.071548 -0.000035
v -0.052193 0.071210 0.071780
v -0.053057 0.071204 -0.066732
v -0.047472 0.071244 -0.009532
v -0.001563 0.033687 -0.067889
v -0.007243 0.026612 -0.067839
v -0.054695 0.036269 -0.067420
v -0.057606 0.042358 -0.067395
v -0.057957 0.043664 -0.067392
v -0.059575 0.054691 -0.067377
v 0.003755 0.057927 -0.067936
v -0.038059 0.085235 -0.067567
v -0.030427 0.083776 -0.067634
v -0.053392 0.070900 -0.067432
v -0.060486 0.057176 -0.067369
v -0.058124 0.042970 -0.067390
v 0.004500 0.060199 -0.067942
v 0.001606 0.065463 -0.067917
v 0.003068 0.060824 -0.067930
v -0.042760 0.080873 -0.067526
v -0.009908 0.024569 -0.067815
v -0.044764 0.080404 -0.067508
v -0.045635 0.078743 -0.067500
v 0.000177 0.071587 -0.067904
v -0.033575 0.019581 -0.067607
v -0.036785 0.020891 -0.067578
v -0.045627 0.025760 -0.067500
v -0.057291 0.040109 -0.067397
v -0.020838 0.019986 -0.067719
v -0.026691 0.019411 -0.067667
v 0.003628 0.051653 -0.067935
v -0.002740 0.073732 -0.067878
v 0.000859 0.071085 -0.067910
v -0.053908 0.070495 -0.067427
v -0.026628 0.083913 -0.067668
v -0.027503 0.083963 -0.067660
v -0.024496 0.083534 -0.067687
v 0.001799 0.040036 -0.067919
v 0.002663 0.045675 -0.067926
v -0.004554 0.074461 -0.067862
v -0.016323 0.084588 -0.067759
v -0.019411 0.083987 -0.067731
v -0.060585 0.063034 -0.067368
v -0.060126 0.064434 -0.067372
v 0.002264 0.041606 -0.067923
v -0.048436 0.027633 -0.067476
v 0.000698 0.068893 -0.067909
v -0.007133 0.081180 -0.067840
v -0.014088 0.082040 -0.067778
v -0.059258 0.059186 -0.067380
v -0.051625 0.070357 0.085877
v -0.050423 0.073104 0.085874
v -0.057438 0.034909 0.085896
v -0.057767 0.043516 0.085897
v -0.049257 0.029790 0.085870
v -0.049425 0.029786 0.085871
v -0.036580 0.022353 0.085830
v -0.040983 0.024641 0.085844
v -0.019973 0.020555 0.085778
v -0.024558 0.018639 0.085793
v 0.001218 0.062193 0.085712
v 0.001384 0.059874 0.085711
v -0.055704 0.067734 0.085890
v -0.053663 0.069106 0.085884
v -0.000403 0.033625 0.085717
v -0.004711 0.032243 0.085730
v -0.009055 0.027873 0.085744
v 0.002133 0.053976 0.085709
v 0.002578 0.049828 0.085708
v 0.000124 0.064198 0.085715
v -0.011275 0.077082 0.085751
v -0.013213 0.079123 0.085757
v -0.041748 0.079882 0.085846
v -0.035395 0.083165 0.085827
v -0.034643 0.083810 0.085824
v -0.049590 0.078388 0.085871
v -0.046450 0.078819 0.085861
v -0.061810 0.049685 0.085909
v -0.057586 0.055756 0.085896
v -0.017884 0.083323 0.085772
v -0.017329 0.082836 0.085770
v -0.006785 0.074033 0.085737
v -0.057436 0.060358 0.085896
v -0.057717 0.061366 0.085897
v -0.028123 0.019552 0.085804
v -0.031026 0.021643 0.085813
v -0.016759 0.021966 0.085768
v 0.000282 0.035064 0.085715
v -0.016722 0.081911 0.085768
v -0.057558 0.044225 0.085896
v -0.011959 0.025701 0.085753
v -0.034192 0.084008 0.085823
v -0.023347 0.082207 0.085789
v -0.020653 0.082119 0.085780
v -0.056542 0.056682 0.085893
v -0.003823 0.070805 0.085728
v -0.004509 0.071553 0.085730
v -0.051249 0.071217 0.085876
vn -0.5985 0.2678 0.7550
vn -0.9647 0.2512 0.0787
vn -0.8066 0.5904 -0.0291
vn -0.6323 0.4408 0.6371
vn -0.9621 -0.2717 0.0216
vn -0.9928 0.1140 -0.0377
vn -0.9802 0.1981 -0.0029
vn -0.9962 -0.0874 -0.0058
vn -0.7029 -0.7103 -0.0375
vn -0.8770 -0.4800 -0.0218
vn -0.8511 -0.5249 -0.0096
vn -0.4235 -0.9054 -0.0289
vn -0.4686 -0.8827 0.0361
vn 0.1516 -0.9882 0.0240
vn -0.3692 -0.9266 -0.0706
vn -0.0784 -0.9915 0.1034
vn 0.2718 -0.9608 0.0553
vn 0.2193 -0.9750 -0.0367
vn 0.4998 -0.8642 0.0571
vn 0.8051 -0.5930 -0.0089
vn 0.7904 -0.6107 0.0487
vn 0.8681 -0.4955 -0.0280
vn 0.9793 0.2005 -0.0264
vn 0.9968 -0.0738 0.0317
vn 0.8683 0.4932 0.0537
vn 0.7788 0.6273 -0.0004
vn 0.8614 0.5050 0.0543
vn -0.3375 0.9395 -0.0583
vn -0.1064 0.9940 -0.0246
vn -0.5026 0.8638 0.0340
vn -0.2061 0.9764 0.0645
vn -0.3262 0.9453 0.0036
vn -0.3086 0.9466 0.0935
vn -0.9986 -0.0021 0.0537
vn -0.8686 0.4911 -0.0663
vn -0.6825 0.7308 -0.0060
vn -0.9910 0.1313 -0.0249
vn -0.7727 0.6308 -0.0709
vn -0.8037 0.5929 0.0507
vn 0.1029 -0.6971 0.7096
vn -0.1592 -0.9827 0.0945
vn 0.2838 -0.6529 0.7023
vn 0.6789 0.1000 0.7274
vn 0.9949 -0.0964 0.0288
vn 0.9559 0.2916 0.0346
vn 0.7392 0.2065 0.6411
vn 0.9502 0.3110 0.0184
vn 0.7125 0.7012 -0.0280
vn 0.7039 0.7102 0.0120
vn 0.6453 0.7626 0.0455
vn -0.1946 0.9784 -0.0703
vn 0.2330 0.9701 -0.0676
vn -0.1004 0.9928 -0.0656
vn -0.5201 0.8511 -0.0714
vn -0.7216 0.6700 -0.1745
vn -0.6798 0.7284 -0.0858
vn -0.4019 0.9121 -0.0806
vn -0.5007 0.8479 -0.1742
vn 0.5117 -0.5403 0.6680
vn 0.3600 -0.5739 0.7355
vn 0.7238 0.0560 0.6877
vn 0.6721 0.3437 0.6559
vn -0.3118 0.6759 0.6678
vn -0.3979 0.5986 0.6952
vn -0.1671 0.6970 0.6974
vn -0.5283 0.6113 0.5893
vn 0.3084 0.9513 0.0030
vn 0.2984 0.9504 0.0874
vn 0.0362 0.9926 0.1162
vn 0.5182 0.8531 0.0615
vn 0.4001 0.9101 0.1078
vn 0.6211 0.7814 0.0603
vn 0.9120 0.4091 -0.0295
vn 0.8346 0.5499 0.0332
vn 0.9773 -0.2114 -0.0169
vn 0.6988 -0.7127 -0.0608
vn 0.5587 -0.8234 -0.0992
vn 0.0364 -0.9938 -0.1050
vn 0.2580 -0.9538 -0.1540
vn -0.3078 -0.5989 -0.7393
vn -0.3726 -0.5784 -0.7257
vn -0.6702 -0.2265 -0.7068
vn -0.6390 -0.3186 -0.7001
vn -0.6343 0.5043 -0.5860
vn -0.4663 0.5428 -0.6985
vn -0.7449 0.6564 0.1196
vn -0.9776 0.1689 0.1257
vn -0.9149 0.3993 0.0587
vn -0.7648 0.6403 0.0706
vn -0.6934 0.7204 0.0157
vn -0.2361 0.9678 0.0869
vn 0.1792 0.9837 -0.0134
vn 0.6383 0.7697 -0.0063
vn 0.9753 -0.2208 -0.0047
vn -0.9932 -0.1163 0.0040
vn -0.9652 0.2611 -0.0165
vn -0.8374 0.5459 -0.0274
vn -0.7744 0.6171 -0.1396
vn -0.8920 0.4503 -0.0409
vn -0.0503 0.9986 -0.0139
vn 0.5066 0.5007 0.7019
vn 0.2540 0.9672 -0.0062
vn 0.0857 0.8173 0.5698
vn 0.5826 0.3923 0.7118
vn 0.7271 0.6864 -0.0146
vn 0.4832 0.5319 0.6954
vn 0.5740 -0.8102 0.1185
vn -0.4343 -0.9002 0.0321
vn -0.9550 -0.2939 0.0391
vn -0.9954 0.0723 -0.0626
vn 0.1298 0.8078 -0.5750
vn -0.0571 0.8576 -0.5112
vn 0.0963 0.9688 0.2282
vn -0.0383 0.8078 -0.5882
vn 0.0844 0.8353 -0.5433
vn -0.7076 -0.1744 -0.6848
vn -0.6922 0.0185 -0.7214
vn 0.7421 0.6563 0.1361
vn 0.4704 0.8797 0.0691
vn 0.7214 0.6920 0.0271
vn 0.6718 0.7391 0.0499
vn 0.9252 -0.3786 0.0262
vn 0.9618 -0.2732 0.0151
vn 0.9996 0.0259 0.0125
vn -0.9997 0.0242 0.0036
vn -0.7047 0.0272 0.7090
vn -0.9930 0.1146 -0.0278
vn -0.5941 -0.2480 0.7652
vn -0.6579 -0.7516 0.0473
vn -0.2144 -0.6194 0.7552
vn -0.2383 -0.6592 0.7132
vn 0.5439 0.5143 0.6631
vn -0.9850 0.1723 0.0092
vn -0.8015 0.1012 0.5894
vn -0.7037 -0.2353 0.6704
vn 0.6876 -0.2830 0.6687
vn 0.7070 -0.0026 0.7072
vn -0.7714 0.0314 0.6355
vn -0.3191 -0.5698 0.7573
vn -0.7335 -0.2853 0.6168
vn -0.1741 -0.7043 0.6882
vn -0.2098 -0.6904 0.6923
vn -0.3583 -0.5903 0.7233
vn 0.3297 -0.5966 0.7316
vn 0.3576 -0.5717 0.7384
vn 0.4138 -0.5018 0.7596
vn 0.4765 0.4983 0.7243
vn 0.4366 0.5508 0.7113
vn 0.5000 0.5415 0.6759
vn -0.1086 0.7962 0.5953
vn 0.1079 0.7771 0.6201
vn -0.0399 0.7848 0.6185
vn -0.2420 0.7134 0.6577
vn -0.6624 0.1832 0.7264
vn -0.3641 0.6620 0.6551
vn -0.6048 0.5190 0.6041
vn -0.7392 0.2555 0.6232
vn -0.5764 0.5378 0.6152
vn -0.0679 0.9921 -0.1054
vn -0.5622 0.8127 0.1533
vn -0.4854 -0.5114 -0.7091
vn 0.4506 -0.4814 -0.7518
vn 0.3359 -0.6209 -0.7082
vn 0.4678 0.6732 -0.5727
vn 0.5244 0.7764 -0.3497
vn -0.4531 0.7036 -0.5474
vn -0.3604 0.7992 -0.4811
vn -0.6218 0.4649 -0.6303
vn -0.7229 0.6665 0.1823
vn -0.6052 0.5072 -0.6136
vn -0.7871 0.0348 -0.6158
vn -0.7710 0.0801 -0.6317
vn -0.7998 0.5963 0.0692
vn -0.5472 -0.3951 -0.7379
vn -0.6726 0.4117 -0.6149
vn -0.7804 0.1612 -0.6042
vn -0.7100 -0.1939 -0.6770
vn -0.2534 0.8307 -0.4958
vn -0.1494 0.7512 -0.6430
vn 0.2322 0.8359 -0.4974
vn 0.5347 0.6220 -0.5721
vn 0.3477 0.7170 -0.6041
vn 0.4120 0.6408 -0.6478
vn 0.7277 0.3870 -0.5663
vn 0.7721 0.1250 -0.6231
vn 0.6320 0.2076 -0.7466
vn 0.4640 0.5349 -0.7061
vn 0.7136 0.3266 -0.6198
vn 0.6698 -0.1217 -0.7325
vn 0.6943 -0.0484 -0.7180
vn 0.6787 -0.0888 -0.7290
vn 0.6864 -0.1486 -0.7119
vn 0.6514 -0.2677 -0.7099
vn 0.5721 -0.3868 -0.7232
vn 0.1739 -0.6899 -0.7027
vn 0.0437 -0.6868 -0.7255
vn -0.1666 -0.7455 -0.6453
vt 0.465608 0.162648
vt 0.466304 0.168136
vt 0.455271 0.172382
vt 0.461735 0.161515
vt 0.320286 0.186606
vt 0.375960 0.169162
vt 0.382663 0.221885
vt 0.345033 0.267969
vt 0.689467 0.306011
vt 0.718841 0.245552
vt 0.736625 0.327185
vt 0.640429 0.286380
vt 0.685844 0.220466
vt 0.061372 0.504592
vt 0.020135 0.462248
vt 0.050145 0.492649
vt 0.098017 0.524741
vt 0.098928 0.452764
vt 0.120853 0.510577
vt 0.130982 0.474652
vt 0.162942 0.522897
vt 0.168990 0.422778
vt 0.799329 0.371247
vt 0.794356 0.327585
vt 0.830580 0.312671
vt 0.847948 0.352499
vt 0.865390 0.310276
vt 0.549134 0.263316
vt 0.585162 0.254344
vt 0.566746 0.302004
vt 0.582183 0.325521
vt 0.508033 0.281232
vt 0.526449 0.307966
vt 0.473571 0.248902
vt 0.478233 0.258061
vt 0.487010 0.284590
vt 0.483227 0.275284
vt 0.440590 0.207881
vt 0.436349 0.284951
vt 0.086705 0.582758
vt 0.066471 0.574043
vt 0.103396 0.573565
vt 0.277240 0.515246
vt 0.257410 0.460964
vt 0.286591 0.494601
vt 0.288073 0.516553
vt 0.296846 0.453001
vt 0.929057 0.387737
vt 0.889295 0.350385
vt 0.916063 0.330858
vt 0.561112 0.188292
vt 0.586553 0.205818
vt 0.561559 0.226934
vt 0.511472 0.230895
vt 0.460225 0.198060
vt 0.484217 0.186059
vt 0.505543 0.197863
vt 0.468215 0.203620
vt 0.177788 0.538800
vt 0.166421 0.545568
vt 0.252109 0.511077
vt 0.844996 0.440407
vt 0.837436 0.445324
vt 0.826752 0.427616
vt 0.561463 0.185157
vt 0.557010 0.184475
vt 0.502221 0.176613
vt 0.490897 0.172221
vt 0.955627 0.278139
vt 0.935477 0.247034
vt 0.978135 0.231609
vt 0.880533 0.283715
vt 0.861062 0.247385
vt 0.897288 0.254324
vt 0.799465 0.284397
vt 0.831505 0.270397
vt 0.263798 0.377278
vt 0.240431 0.341511
vt 0.275624 0.317956
vt 0.117541 0.447232
vt 0.117510 0.411763
vt 0.037740 0.462911
vt 0.060520 0.431954
vt 0.638093 0.337477
vt 0.675554 0.347933
vt 0.752512 0.384094
vt 0.754088 0.389701
vt 0.444706 0.356230
vt 0.442108 0.355073
vt 0.445684 0.355808
vt 0.374340 0.283963
vt 0.398361 0.312696
vt 0.465944 0.328030
vt 0.495157 0.336975
vt 0.552555 0.361624
vt 0.969431 0.296186
vt 0.913912 0.275068
vt 0.202127 0.434996
vt 0.755265 0.300288
vt 0.758206 0.336166
vt 0.406948 0.175000
vt 0.468259 0.238464
vt 0.477697 0.228186
vt 0.480312 0.236353
vt 0.610763 0.257515
vt 0.961879 0.399508
vt 0.943205 0.320552
vt 0.964864 0.398553
vt 0.876229 0.420771
vt 0.887051 0.350500
vt 0.880564 0.419550
vt 0.805281 0.399868
vt 0.279111 0.420770
vt 0.131120 0.537449
vt 0.037167 0.580294
vt 0.613812 0.263517
vt 0.629354 0.184245
vt 0.765136 0.240970
vt 0.353846 0.158321
vt 0.591651 0.388243
vt 0.588939 0.388821
vt 0.591618 0.381900
vt 0.998100 0.111284
vt 0.999497 0.113107
vt 0.986364 0.130382
vt 0.580139 0.390315
vt 0.317469 0.285893
vt 0.319524 0.244958
vt 0.320107 0.287571
vt 0.853190 0.245877
vt 0.855819 0.242078
vt 0.877019 0.310341
vt 0.896231 0.310449
vt 0.188030 0.517156
vt 0.207797 0.483516
vt 0.225377 0.495365
vt 0.972470 0.329048
vt 0.610253 0.298926
vt 0.365221 0.115916
vt 0.349848 0.097609
vt 0.417316 0.139538
vt 0.396500 0.131127
vt 0.413771 0.136823
vt 0.718211 0.212109
vt 0.061826 0.602115
vt 0.048723 0.602151
vt 0.956079 0.401893
vt 0.463614 0.176324
vt 0.370193 0.112318
vt 0.351481 0.096346
vt 0.184045 0.535943
vt 0.234702 0.520196
vt 0.350150 0.094580
vt 0.075497 0.593797
vt 0.765140 0.235392
vt 0.748874 0.193340
vt 0.706313 0.181339
vt 0.705623 0.181193
vt 0.671476 0.168250
vt 0.115810 0.569051
vt 0.135430 0.560206
vt 0.148057 0.554967
vt 0.894942 0.415503
vt 0.921515 0.411896
vt 0.931991 0.407982
vt 0.976446 0.394507
vt 0.603620 0.182630
vt 0.563837 0.185061
vt 0.521947 0.179701
vt 0.474105 0.165133
vt 0.451334 0.156554
vt 0.440873 0.152320
vt 0.401105 0.126572
vt 0.396178 0.124745
vt 0.605900 0.188465
vt 0.510014 0.362624
vt 0.606791 0.365668
vt 0.690109 0.352583
vt 0.315910 0.286819
vt 0.298688 0.249138
vt 0.127131 0.399730
vt 0.113402 0.403742
vt 0.931793 0.204258
vt 0.904977 0.205467
vt 0.504034 0.375913
vt 0.516299 0.378708
vt 0.445939 0.356955
vt 0.446905 0.355937
vt 0.496498 0.371475
vt 0.400800 0.335942
vt 0.390215 0.326108
vt 0.482179 0.284624
vt 0.982316 0.385806
vt 0.985963 0.359267
vt 0.734006 0.374274
vt 0.406222 0.339122
vt 0.378927 0.320749
vt 0.368057 0.313956
vt 0.550649 0.397970
vt 0.960177 0.202738
vt 0.944742 0.195587
vt 0.881381 0.222931
vt 0.869466 0.222355
vt 0.852234 0.226463
vt 0.848204 0.227424
vt 0.842962 0.230054
vt 0.830980 0.239485
vt 0.816008 0.257356
vt 0.810114 0.259145
vt 0.255886 0.301015
vt 0.231422 0.325468
vt 0.211655 0.344747
vt 0.195098 0.358634
vt 0.188745 0.362717
vt 0.160009 0.382809
vt 0.067278 0.416930
vt 0.042946 0.418110
vt 0.012429 0.416945
vt 0.005761 0.410619
vt 0.986349 0.202077
vt 0.976519 0.197007
vt 0.000478 0.459421
vt 0.263043 0.293574
vt 0.983909 0.391737
vt 0.652390 0.162100
s 1
usemtl Material.003
f 374/215/178 265/216/179 229/217/180 327/218/181
f 246/219/182 206/220/183 188/221/184
f 246/219/182 188/221/184 219/222/185
f 260/223/186 256/224/187 205/225/188
f 204/226/189 255/227/190 260/223/186
f 201/228/191 203/229/192 202/230/193
f 214/231/194 201/228/191 200/232/195
f 225/233/196 200/232/195 199/234/197
f 254/235/198 199/234/197 236/236/199
f 245/237/200 197/238/201 196/239/202
f 223/240/203 196/239/202 235/241/204
f 243/242/205 220/243/206 261/244/207
f 261/244/207 220/243/206 192/245/208
f 226/246/209 243/242/205 191/247/210
f 267/248/211 227/249/212 190/250/213 266/251/214
f 188/221/184 262/252/215 228/253/216
f 336/254/217 215/255/218 214/231/194 335/256/219
f 338/257/220 250/258/221 249/259/222 337/260/223
f 249/259/222 250/258/221 224/261/224
f 248/262/225 222/263/226 263/264/227
f 230/265/228 210/266/229 252/267/230
f 209/268/231 230/265/228 252/267/230
f 269/269/232 247/270/233 208/271/234 268/272/235
f 341/273/236 342/274/237 254/235/198
f 338/257/220 344/275/238 250/258/221
f 346/276/239 337/277/223 249/278/222
f 351/279/240 230/265/228 350/280/241
f 353/281/242 208/271/234 247/270/233 352/282/243
f 234/283/244 183/284/245 242/285/246
f 270/286/247 271/287/248 185/288/249
f 196/239/202 241/289/250 257/290/251
f 197/291/201 187/292/252 241/293/250
f 199/234/197 237/294/253 264/295/254
f 238/296/255 203/229/192 184/297/256
f 302/298/257 204/226/189 303/299/258
f 304/300/259 205/225/188 284/301/260
f 290/302/261 310/303/262 259/304/263
f 219/222/185 188/221/184 233/305/264
f 233/305/264 188/221/184 180/306/265
f 181/307/266 190/250/213 182/308/267
f 191/247/210 261/244/207 240/309/268
f 193/310/269 234/283/244 242/285/246
f 234/283/244 194/311/270 183/284/245
f 196/239/202 197/238/201 241/289/250
f 250/258/221 198/312/271 187/292/252
f 201/228/191 184/297/256 200/232/195
f 205/225/188 246/313/182 239/314/272
f 207/315/273 229/217/180 262/252/215
f 228/253/216 262/252/215 189/316/274
f 268/272/235 208/271/234 273/317/275
f 273/317/275 208/271/234 209/268/231 274/318/276
f 227/249/212 209/268/231 226/246/209
f 252/267/230 220/243/206 243/242/205
f 210/266/229 221/319/277 220/243/206
f 357/320/278 263/264/227 244/321/279 356/322/280
f 372/323/281 223/240/203 275/324/282 373/325/283
f 249/278/222 224/326/224 223/240/203
f 224/326/224 245/237/200 223/240/203
f 224/261/224 250/258/221 245/327/200
f 254/235/198 225/233/196 199/234/197
f 213/328/284 214/231/194 225/233/196
f 201/228/191 216/329/285 203/229/192
f 203/330/192 216/331/285 204/226/189
f 256/224/187 231/332/286 246/313/182
f 246/219/182 251/333/287 206/220/183
f 311/334/288 312/335/289 218/336/290
f 311/337/288 218/338/290 313/339/291
f 289/340/292 218/336/290 312/335/289
f 292/341/293 239/342/272 219/222/185 285/343/294
f 200/232/195 184/297/256 264/295/254
f 271/287/248 186/344/295 272/345/296
f 240/309/268 192/245/208 218/336/290
f 277/346/297 195/347/298 222/263/226 275/324/282
f 205/225/188 256/224/187 246/313/182
f 260/223/186 255/227/190 256/224/187
f 200/232/195 225/233/196 214/231/194
f 198/312/271 253/348/299 236/236/199
f 253/348/299 254/235/198 236/236/199
f 212/349/300 253/348/299 198/312/271
f 250/258/221 179/350/301 198/312/271
f 179/350/301 212/349/300 198/312/271
f 245/327/200 250/258/221 197/291/201
f 223/240/203 245/237/200 196/239/202
f 195/347/298 263/264/227 222/263/226
f 195/347/298 194/311/270 244/321/279 263/264/227
f 244/321/279 194/311/270 234/283/244 193/310/269
f 193/310/269 221/351/277 244/321/279
f 193/352/269 192/245/208 220/243/206 221/319/277
f 178/353/302 251/333/287 246/219/182 231/354/286
f 191/247/210 243/242/205 261/244/207
f 190/250/213 227/249/212 226/246/209
f 188/221/184 207/315/273 262/252/215
f 360/355/303 207/315/273 206/220/183 232/356/304 359/357/305
f 256/224/187 217/358/306 231/332/286
f 362/359/307 333/360/308 216/329/285
f 179/350/301 253/348/299 212/349/300
f 365/361/309 248/262/225 263/264/227 357/320/278
f 209/268/231 208/271/234 230/265/228
f 269/269/232 278/362/310 247/270/233
f 232/356/304 206/220/183 251/333/287 178/353/302
f 354/363/311 178/353/302 231/354/286 366/364/312
f 364/365/313 253/348/299 179/350/301 345/366/314
f 330/367/315 366/364/312 231/354/286
f 336/254/217 361/368/316 215/255/218
f 366/364/312 330/369/315 329/370/317 332/371/318 331/372/319 334/373/320 333/360/308 362/359/307 361/368/316 336/254/217 335/256/219 363/374/321 367/375/322 343/376/323 342/274/237 341/273/236 364/365/313 345/366/314 344/275/238 338/257/220 337/277/223 346/276/239 372/323/281 373/325/283 358/377/324 347/378/325 348/379/326 365/361/309 357/320/278 356/322/280 370/380/327 369/381/328 368/382/329 351/279/240 350/280/241 349/383/330 353/281/242 352/282/243 328/384/331 374/215/178 327/218/181 340/385/332 339/386/333 360/355/303 359/357/305 371/387/334 355/388/335 354/363/311
f 369/381/328 211/389/336 210/266/229 230/265/228 368/382/329
f 365/361/309 348/379/326 248/262/225
f 351/279/240 368/382/329 230/265/228
f 359/357/305 232/356/304 371/387/334
f 278/362/310 229/217/180 265/216/179
f 353/281/242 349/383/330 208/271/234
f 257/290/251 186/344/295 235/241/204 196/239/202
f 355/388/335 371/387/334 232/356/304
f 259/304/263 228/253/216 181/307/266
f 258/390/337 182/308/267 191/247/210
f 258/390/337 191/247/210 240/309/268
f 240/309/268 261/244/207 192/245/208
f 218/336/290 192/245/208 242/391/246
f 183/284/245 194/311/270 185/288/249
f 236/236/199 199/234/197 264/295/254
f 264/295/254 237/294/253 200/232/195
f 303/299/258 204/226/189 260/223/186 322/392/338
f 284/393/260 205/394/188 239/342/272 292/341/293
f 282/395/339 264/295/254 297/396/340
f 325/397/341 185/288/249 324/398/342
f 191/247/210 182/308/267 190/250/213 226/246/209
f 298/399/343 258/390/337 296/400/344
f 276/401/345 259/304/263 279/402/346
f 298/399/343 299/403/347 258/390/337
f 319/404/348 326/405/349 180/306/265
f 180/306/265 188/221/184 228/253/216
f 181/307/266 228/253/216 280/406/350
f 280/406/350 266/251/214 190/250/213
f 238/296/255 184/297/256 201/228/191 202/230/193
f 192/245/208 193/352/269 242/391/246
f 194/311/270 195/347/298 185/288/249
f 277/346/297 235/241/204 270/286/247
f 197/291/201 250/258/221 187/292/252
f 199/234/197 200/232/195 237/294/253
f 356/322/280 244/321/279 221/351/277 211/407/336 370/380/327
f 238/296/255 202/230/193 203/229/192
f 239/342/272 246/219/182 219/222/185
f 188/221/184 206/220/183 207/315/273
f 267/248/211 189/316/274 274/318/276
f 226/246/209 209/268/231 243/242/205
f 243/242/205 209/268/231 252/267/230
f 252/267/230 210/266/229 220/243/206
f 210/408/229 211/407/336 221/351/277
f 254/235/198 213/328/284 225/233/196
f 214/231/194 215/255/218 201/228/191
f 201/228/191 215/255/218 216/329/285
f 204/226/189 216/331/285 255/227/190
f 255/227/190 217/358/306 256/224/187
f 322/392/338 260/223/186 283/409/351
f 181/307/266 258/390/337 279/402/346
f 258/390/337 181/307/266 182/308/267
f 320/410/352 228/253/216 259/304/263 310/303/262
f 291/411/353 233/305/264 180/306/265 326/405/349
f 284/393/260 292/341/293 285/343/294 286/412/354 291/411/353 326/405/349 319/404/348 320/410/352 310/303/262 290/302/261 276/401/345 299/403/347 298/399/343 296/400/344 288/413/355 289/340/292 312/335/289 311/334/288 313/339/291 318/414/356 317/415/357 325/397/341 324/398/342 316/416/358 308/417/359 300/418/360 309/419/361 323/420/362 294/421/363 295/422/364 293/423/365 287/424/366 307/425/367 315/426/368 321/427/369 314/428/370 281/429/371 282/395/339 297/396/340 305/430/372 306/431/373 301/432/374 302/433/257 303/299/258 322/392/338 283/409/351 304/300/259
f 276/401/345 279/402/346 258/390/337 299/403/347
f 290/302/261 259/304/263 276/401/345
f 235/241/204 277/346/297 275/324/282 223/240/203
f 358/377/324 373/325/283 275/324/282 222/263/226
f 189/316/274 273/317/275 274/318/276
f 259/304/263 181/307/266 279/402/346
f 190/250/213 181/307/266 280/406/350
f 235/241/204 186/344/295 271/287/248 270/286/247
f 195/347/298 277/346/297 270/286/247 185/288/249
f 262/252/215 229/217/180 278/362/310 269/269/232
f 262/252/215 269/269/232 268/272/235
f 262/252/215 268/272/235 273/317/275 189/316/274
f 227/249/212 267/248/211 274/318/276 209/268/231
f 189/316/274 267/248/211 266/251/214
f 228/253/216 189/316/274 266/251/214 280/406/350
f 374/215/178 328/384/331 265/216/179
f 340/385/332 327/218/181 229/217/180
f 285/343/294 219/222/185 286/412/354
f 180/306/265 228/253/216 320/410/352 319/404/348
f 183/284/245 317/415/357 318/414/356 242/285/246
f 183/284/245 185/288/249 325/397/341 317/415/357
f 185/288/249 316/416/358 324/398/342
f 187/292/252 198/312/271 321/427/369 315/426/368
f 198/312/271 236/236/199 314/428/370 321/427/369
f 218/434/290 242/285/246 318/414/356 313/435/291
f 186/344/295 323/420/362 309/419/361
f 185/288/249 271/287/248 272/345/296 308/417/359 316/416/358
f 187/292/252 315/426/368 307/425/367
f 184/297/256 306/431/373 305/430/372
f 203/229/192 204/436/189 302/433/257 301/432/374
f 184/297/256 203/229/192 301/432/374 306/431/373
f 186/344/295 309/419/361 300/418/360 272/345/296
f 272/345/296 300/418/360 308/417/359
f 264/295/254 184/297/256 305/430/372 297/396/340
f 257/290/251 295/422/364 294/421/363
f 186/344/295 257/290/251 294/421/363 323/420/362
f 257/290/251 241/289/250 293/423/365 295/422/364
f 240/309/268 218/336/290 289/340/292 288/413/355
f 240/309/268 288/413/355 296/400/344 258/390/337
f 241/293/250 187/292/252 287/424/366 293/437/365
f 187/292/252 307/425/367 287/424/366
f 219/222/185 233/305/264 291/411/353 286/412/354
f 260/223/186 205/225/188 304/300/259 283/409/351
f 236/236/199 264/295/254 282/395/339 281/429/371
f 236/236/199 281/429/371 314/428/370
f 211/407/336 369/438/328 370/380/327
f 213/328/284 367/375/322 363/374/321
f 215/255/218 361/368/316 362/359/307 216/329/285
f 178/353/302 354/363/311 355/388/335 232/356/304
f 208/271/234 349/383/330 350/280/241 230/265/228
f 248/262/225 348/379/326 347/378/325
f 248/262/225 347/378/325 358/377/324 222/263/226
f 223/240/203 372/323/281 346/276/239 249/278/222
f 250/258/221 344/275/238 345/366/314 179/350/301
f 213/328/284 343/376/323 367/375/322
f 254/235/198 342/274/237 343/376/323 213/328/284
f 253/348/299 364/365/313 341/273/236 254/235/198
f 207/315/273 339/386/333 340/385/332 229/217/180
f 207/315/273 360/355/303 339/386/333
f 213/328/284 363/374/321 335/256/219 214/231/194
f 216/331/285 333/439/308 334/373/320 255/227/190
f 255/227/190 331/372/319 332/371/318 217/358/306
f 255/227/190 334/373/320 331/372/319
f 217/358/306 329/370/317 330/369/315 231/332/286
f 217/358/306 332/371/318 329/370/317
f 247/270/233 278/362/310 265/216/179 328/384/331 352/282/243
o cucumber.002
v -0.048105 0.077074 0.136796
v -0.045464 0.035449 0.129816
v -0.051505 0.042318 0.130650
v -0.057382 0.047422 0.131106
v -0.055759 0.052720 0.130805
v -0.003635 0.070109 0.144327
v -0.044965 0.052270 0.156433
v -0.018044 0.058801 0.168564
v -0.030405 0.065790 0.170352
v -0.027326 0.059517 0.170545
v -0.054326 0.069446 0.094231
v -0.038548 0.025076 0.102770
v -0.045199 0.082155 0.133445
v -0.032917 0.087778 0.135762
v -0.025080 0.088477 0.133288
v -0.012449 0.082775 0.130572
v 0.001432 0.055825 0.124881
v -0.003088 0.048297 0.139363
v -0.007732 0.034806 0.121869
v -0.014783 0.029775 0.123360
v -0.049989 0.038215 0.137250
v -0.028245 0.082990 0.153825
v -0.012888 0.080383 0.148864
v -0.004493 0.064664 0.152888
v -0.015935 0.043036 0.156853
v -0.027572 0.038486 0.152903
v -0.046278 0.044532 0.153708
v -0.024118 0.064854 0.170471
v -0.036125 0.061048 0.169000
v -0.034035 0.050854 0.165014
v -0.013992 0.072023 0.162683
v -0.029996 0.070368 0.169498
v -0.040413 0.077640 0.156543
v -0.038789 0.081013 0.101060
v 0.000304 0.034588 0.093242
v -0.021399 0.021334 0.103640
v -0.059087 0.039889 0.101667
v -0.053721 0.064268 0.139138
v -0.056456 0.067721 0.121129
v -0.028557 0.088395 0.115614
v 0.000346 0.065218 0.115861
v -0.028341 0.026224 0.119534
v -0.040011 0.037548 0.146277
v -0.018049 0.083794 0.094496
v -0.060992 0.055484 0.114671
v -0.004880 0.076102 0.143596
v -0.047589 0.079111 0.103951
v -0.047646 0.055444 0.157138
v -0.051174 0.071217 0.092402
v -0.002702 0.071566 0.132037
v -0.003936 0.071557 0.144150
v -0.042486 0.071280 0.156714
v -0.046773 0.071249 0.148225
v -0.019585 0.071445 0.165065
v -0.028264 0.071382 0.167408
v -0.011189 0.071505 0.157716
v -0.013304 0.071490 0.161973
v -0.035086 0.071333 0.163893
v -0.038776 0.071307 0.161298
v -0.031416 0.071360 0.167732
v -0.014760 0.071479 0.163274
v -0.002973 0.071564 0.121532
v -0.003973 0.071557 0.093940
v -0.050672 0.071221 0.137866
v -0.053348 0.071202 0.126959
v -0.052891 0.071205 0.104046
v -0.029857 0.071371 0.168253
v -0.051196 0.071175 0.092081
v -0.049450 0.075166 0.092078
v -0.049363 0.030789 0.092078
v -0.048811 0.030596 0.092077
v -0.049559 0.031424 0.092078
v -0.058086 0.036866 0.092093
v -0.058286 0.042091 0.092094
v -0.037303 0.023354 0.092056
v -0.040089 0.024801 0.092061
v -0.020472 0.020828 0.092027
v -0.023454 0.019581 0.092032
v 0.001037 0.062823 0.091989
v 0.001168 0.060987 0.091988
v -0.054680 0.069006 0.092087
v -0.054156 0.069359 0.092086
v 0.000186 0.034428 0.091990
v -0.005235 0.032687 0.092000
v -0.008825 0.029075 0.092006
v 0.002021 0.054273 0.091987
v 0.002394 0.050790 0.091986
v -0.000419 0.065489 0.091991
v -0.010583 0.076976 0.092009
v -0.013107 0.079633 0.092014
v -0.040539 0.080344 0.092062
v -0.036783 0.082285 0.092056
v -0.034428 0.084305 0.092051
v -0.048903 0.078636 0.092077
v -0.046841 0.078920 0.092073
v -0.057409 0.062296 0.092092
v -0.055327 0.066961 0.092088
v -0.061634 0.050933 0.092100
v -0.058320 0.055698 0.092094
v -0.018002 0.083661 0.092022
v -0.017845 0.083522 0.092022
v -0.006579 0.074257 0.092002
v -0.045696 0.028289 0.092071
v -0.028163 0.020785 0.092040
v -0.030530 0.022490 0.092044
v -0.018383 0.021745 0.092023
v 0.000300 0.034667 0.091990
v -0.017673 0.083260 0.092022
v -0.057310 0.045397 0.092092
v -0.052815 0.033498 0.092084
v -0.012429 0.026379 0.092012
v -0.033015 0.084925 0.092049
v -0.024438 0.083503 0.092034
v -0.018788 0.083319 0.092024
v -0.056214 0.057565 0.092090
v -0.003937 0.071379 0.091997
v -0.004099 0.071556 0.091998
v -0.051177 0.071217 0.092081
vn 0.9542 0.2035 0.2193
vn 0.9469 0.2454 0.2077
vn 0.9579 0.2856 0.0292
vn 0.9558 0.2916 0.0368
vn 0.9938 -0.0266 0.1075
vn 0.4777 -0.8452 0.2396
vn 0.0084 -0.8852 0.4652
vn -0.1344 -0.9564 0.2591
vn -0.9739 -0.1450 0.1745
vn -0.9809 -0.0150 0.1939
vn -0.9450 -0.3191 0.0720
vn -0.6238 0.6547 0.4269
vn -0.3377 0.9392 0.0628
vn -0.5983 0.7998 0.0492
vn 0.0143 0.9112 0.4116
vn 0.2414 0.9694 0.0439
vn 0.4638 0.8440 0.2694
vn 0.5708 0.8211 0.0046
vn 0.9353 0.0632 0.3482
vn 0.8828 -0.3768 0.2806
vn 0.4978 -0.7212 0.4818
vn 0.6482 -0.7323 0.2086
vn -0.7965 -0.4268 0.4284
vn -0.3774 -0.8909 0.2528
vn -0.3360 -0.8695 0.3621
vn -0.8292 -0.2438 0.5030
vn -0.8362 0.3291 0.4387
vn -0.9512 0.2169 0.2195
vn -0.8527 0.2476 0.4601
vn 0.2633 0.7027 0.6610
vn 0.2407 0.8192 0.5205
vn -0.2348 0.5327 0.8131
vn 0.6103 0.4486 0.6529
vn 0.8478 0.4503 0.2801
vn 0.8002 0.3637 0.4768
vn 0.7093 0.1917 0.6784
vn 0.6025 -0.1950 0.7739
vn -0.2557 -0.5955 0.7616
vn -0.6625 0.3176 0.6784
vn -0.6308 0.4082 0.6599
vn -0.5484 0.4860 0.6805
vn 0.5591 0.1892 0.8072
vn 0.2565 0.1599 0.9532
vn 0.0132 -0.3427 0.9393
vn -0.3011 0.1396 0.9433
vn -0.5555 0.0193 0.8313
vn -0.6987 -0.4305 0.5714
vn -0.6379 -0.4651 -0.6138
vn -0.7222 0.1542 -0.6743
vn -0.2011 -0.7538 -0.6256
vn -0.3718 -0.9139 0.1630
vn -0.3898 -0.6299 -0.6718
vn -0.6671 0.3912 -0.6340
vn -0.7168 0.6961 -0.0404
vn -0.3183 0.5871 -0.7443
vn 0.3957 -0.6588 -0.6398
vn 0.4992 -0.6135 -0.6119
vn 0.7239 0.1136 -0.6805
vn 0.7211 -0.0382 -0.6917
vn 0.4810 0.5025 -0.7184
vn 0.4850 0.5809 -0.6537
vn -0.2722 0.6682 -0.6924
vn -0.4333 0.9000 -0.0472
vn -0.4018 0.5900 -0.7003
vn -0.8144 -0.1463 -0.5616
vn -0.9883 0.1335 0.0744
vn -0.4812 0.4721 -0.7387
vn -0.8438 -0.4975 0.2013
vn -0.6286 -0.6442 0.4357
vn -0.8373 0.4359 0.3301
vn -0.8569 0.4968 0.1375
vn -0.8363 0.5329 0.1291
vn -0.6698 0.7425 -0.0111
vn -0.6326 0.7739 -0.0306
vn -0.0121 0.9966 -0.0816
vn 0.3681 0.9169 -0.1542
vn 0.1801 -0.9639 0.1961
vn 0.1025 0.7495 0.6540
vn -0.4406 -0.6124 -0.6564
vn -0.2800 -0.7212 -0.6336
vn -0.3165 -0.7275 -0.6088
vn 0.3799 -0.6546 -0.6536
vn 0.2966 -0.6996 -0.6501
vn 0.7293 -0.1635 -0.6644
vn 0.7488 -0.6561 0.0937
vn 0.4814 -0.5940 -0.6445
vn 0.7926 0.6001 -0.1078
vn 0.8365 0.5457 -0.0492
vn -0.6979 0.2496 -0.6713
vn -0.3843 -0.6567 -0.6489
vn -0.6653 -0.4710 -0.5792
vn 0.4415 -0.5551 -0.7049
vn 0.0584 0.6301 -0.7743
vn -0.0682 0.6744 -0.7352
vn -0.7576 0.0399 -0.6515
vn -0.7242 0.2259 -0.6516
vn -0.9661 0.2495 0.0663
vn -0.7760 0.6251 -0.0839
vn 0.5193 0.5733 -0.6338
vn 0.5187 0.4279 -0.7402
vn 0.6207 0.3943 -0.6777
vn -0.6189 0.5607 -0.5500
vn -0.6969 0.2431 -0.6747
vn -0.5844 0.4515 -0.6742
vn -0.6789 0.2268 -0.6983
vn -0.1396 0.6616 -0.7368
vn -0.4333 0.6483 -0.6261
vn -0.1411 0.6994 -0.7007
vn 0.0738 0.8039 -0.5902
vn 0.5110 0.4993 -0.6997
vn 0.4959 0.4951 -0.7134
vn 0.4672 0.5197 -0.7153
vn 0.7054 0.1838 -0.6846
vn 0.6913 0.1092 -0.7143
vn 0.0653 -0.8005 -0.5958
vn -0.3468 -0.6900 -0.6353
vn -0.6486 -0.5457 -0.5306
vn -0.7603 -0.1102 -0.6402
vt 0.887074 0.492709
vt 0.882804 0.496982
vt 0.854363 0.473377
vt 0.881257 0.476832
vt 0.290422 0.551330
vt 0.292798 0.579628
vt 0.247531 0.554361
vt 0.141664 0.593125
vt 0.137876 0.653916
vt 0.091156 0.628070
vt 0.378753 0.051006
vt 0.394869 0.062796
vt 0.352971 0.066324
vt 0.515944 0.089302
vt 0.567467 0.131512
vt 0.512678 0.131298
vt 0.574612 0.095276
vt 0.605051 0.130125
vt 0.985923 0.486506
vt 0.940016 0.481405
vt 0.996627 0.442628
vt 0.938330 0.451729
vt 0.272568 0.599051
vt 0.214124 0.581878
vt 0.173962 0.621436
vt 0.171601 0.579317
vt 0.739382 0.112441
vt 0.714069 0.135866
vt 0.703094 0.108922
vt 0.433448 0.036342
vt 0.480295 0.088088
vt 0.441355 0.086761
vt 0.492305 0.074127
vt 0.940873 0.527393
vt 0.964333 0.532793
vt 0.967073 0.538583
vt 0.926798 0.521381
vt 0.900474 0.479301
vt 0.914892 0.514778
vt 0.270927 0.644180
vt 0.275247 0.639055
vt 0.270799 0.647705
vt 0.227466 0.649456
vt 0.727233 0.057741
vt 0.689900 0.071883
vt 0.522894 0.049657
vt 0.506531 0.060711
vt 0.535649 0.041684
vt 0.929000 0.524730
vt 0.239012 0.683949
vt 0.213784 0.690285
vt 0.760757 0.014472
vt 0.767179 0.041114
vt 0.744248 0.015367
vt 0.760260 0.094952
vt 0.184068 0.691780
vt 0.755282 0.189417
vt 0.765181 0.183358
vt 0.765156 0.214945
vt 0.657445 0.157239
vt 0.666145 0.148876
vt 0.669518 0.161134
vt 0.446867 0.148313
vt 0.448940 0.146927
vt 0.449555 0.149400
vt 0.167320 0.551422
vt 0.152138 0.559188
vt 0.251376 0.518014
vt 0.236758 0.525672
vt 0.932876 0.414089
vt 0.919239 0.419189
vt 0.527532 0.173518
vt 0.535615 0.164568
vt 0.548262 0.176335
vt 0.375459 0.108507
vt 0.394659 0.094613
vt 0.395851 0.118255
vt 0.748698 0.142745
vt 0.730497 0.136582
vt 0.465449 0.105447
vt 0.485731 0.121176
vt 0.458798 0.118136
vt 0.457424 0.140989
vt 0.498933 0.155577
vt 0.591675 0.152059
vt 0.967445 0.407848
vt 0.992257 0.422813
vt 0.105291 0.590763
vt 0.658957 0.115191
vt 0.780268 0.151110
vt 0.112079 0.665577
vt 0.780034 0.105638
vt 0.968571 0.534446
vt 0.529002 0.014814
vt 0.544741 0.011903
vt 0.538760 0.034167
vt 0.536517 0.000158
vt 0.268389 0.650454
vt 0.541608 0.039022
vt 0.692659 0.169912
vt 0.078392 0.600134
vt 0.067246 0.606912
vt 0.112128 0.576650
vt 0.104059 0.579581
vt 0.182668 0.542436
vt 0.182393 0.543732
vt 0.181627 0.542911
vt 0.879669 0.429077
vt 0.879326 0.464475
vt 0.439303 0.144210
vt 0.727287 0.181517
vt 0.711212 0.175861
vt 0.136467 0.565685
vt 0.985657 0.398244
vt 0.969998 0.404064
vt 0.421290 0.135036
vt 0.405790 0.121939
vt 0.442834 0.116334
vt 0.464810 0.156346
vt 0.895541 0.422412
vt 0.878856 0.427112
vt 0.851011 0.444624
vt 0.491285 0.014401
vt 0.287234 0.615740
vt 0.955833 0.565540
vt 0.493656 0.166508
vt 0.482627 0.161853
vt 0.464659 0.156600
vt 0.464849 0.156656
vt 0.501092 0.169389
vt 0.562212 0.178468
vt 0.569655 0.178164
vt 0.601119 0.176229
vt 0.966713 0.405213
vt 0.965867 0.405483
vt 0.964223 0.406160
vt 0.879881 0.426823
vt 0.840960 0.451164
vt 0.279984 0.522759
vt 0.093202 0.585556
vt 0.051260 0.606948
vt 0.706990 0.174914
vt 0.708591 0.175808
vt 0.357467 0.091718
vt 0.288562 0.523793
vt 0.055624 0.615203
vt 0.351259 0.083477
s 1
usemtl Material.003
f 425/440/375 380/441/376 415/442/377 424/443/378
f 415/444/377 380/445/376 391/446/379
f 394/447/380 400/448/381 416/449/382
f 378/450/383 379/451/384 411/452/385
f 407/453/386 388/454/387 387/455/388
f 396/456/389 389/457/390 388/454/387
f 396/458/389 397/459/391 389/460/390
f 397/459/391 390/461/392 389/460/390
f 398/462/393 391/446/379 380/445/376
f 392/463/394 391/446/379 398/462/393
f 399/464/395 394/447/380 393/465/396
f 400/448/381 394/447/380 399/464/395
f 401/466/397 376/467/398 417/468/399
f 422/469/400 379/451/384 378/450/383
f 427/470/401 412/471/402 422/469/400 426/472/403
f 428/473/404 429/474/405 406/475/406
f 405/476/407 420/477/408 397/459/391
f 430/478/409 380/441/376 425/440/375
f 431/479/410 430/480/409 405/481/407
f 399/464/395 392/463/394 382/482/411
f 404/483/412 417/468/399 400/484/381
f 432/485/413 407/453/386 433/486/414
f 434/487/415 407/453/386 432/485/413
f 435/488/416 405/476/407 428/473/404
f 402/489/417 384/490/418 382/482/411
f 383/491/419 403/492/420 384/493/418
f 403/492/420 381/494/421 404/483/412
f 404/495/412 400/448/381 399/464/395
f 433/486/414 407/453/386 426/472/403
f 447/496/422 411/497/385 448/498/423
f 449/499/424 386/500/425 450/501/426
f 455/502/427 385/503/428 456/504/429
f 458/505/430 393/465/396 459/506/431
f 460/507/432 391/446/379 461/508/433
f 464/509/434 390/461/392 420/477/408 463/510/435
f 465/511/436 408/512/437 466/513/438
f 472/514/439 419/515/440 473/516/441
f 377/517/442 395/518/443 401/466/397 381/494/421
f 438/519/444 375/520/445 439/521/446
f 439/521/446 375/520/445 440/522/447
f 375/520/445 387/455/388 421/523/448
f 421/523/448 387/455/388 408/512/437
f 388/454/387 389/457/390 414/524/449
f 418/525/450 414/526/449 390/461/392
f 414/526/449 389/460/390 390/461/392
f 394/447/380 416/449/382 410/527/451
f 416/528/382 417/468/399 386/500/425
f 417/468/399 376/467/398 386/500/425
f 411/497/385 377/517/442 378/529/383
f 379/451/384 412/471/402 419/515/440
f 427/470/401 407/453/386 375/520/445 438/519/444
f 407/453/386 387/455/388 375/520/445
f 407/453/386 396/456/389 388/454/387
f 397/459/391 420/477/408 390/461/392
f 399/464/395 393/465/396 392/463/394
f 400/448/381 417/530/399 416/449/382
f 401/466/397 395/518/443 376/467/398
f 377/517/442 381/494/421 422/531/400 378/529/383
f 422/469/400 412/471/402 379/451/384
f 441/532/452 406/475/406 429/474/405
f 398/462/393 382/482/411 392/463/394
f 404/483/412 401/466/397 417/468/399
f 404/483/412 381/494/421 401/466/397
f 384/493/418 403/492/420 404/483/412
f 383/533/419 402/534/417 406/535/406
f 383/533/419 384/536/418 402/534/417
f 403/492/420 422/531/400 381/494/421
f 384/490/418 404/495/412 399/464/395
f 382/482/411 384/490/418 399/464/395
f 402/489/417 382/482/411 398/462/393
f 435/537/416 402/489/417 398/462/393 431/479/410
f 434/487/415 406/535/406 441/538/452
f 450/501/426 386/500/425 477/539/453
f 478/540/454 416/449/382 479/541/455
f 480/542/456 410/527/451 451/543/457
f 481/544/458 409/545/459 457/546/460
f 437/547/461 420/477/408 436/548/462
f 455/502/427 471/549/463 385/503/428
f 447/496/422 484/550/464 411/497/385
f 446/551/465 377/517/442 411/497/385 484/550/464
f 485/552/466 394/447/380 410/527/451 480/542/456
f 459/506/431 393/465/396 394/447/380 485/552/466
f 409/545/459 392/463/394 393/465/396
f 409/545/459 391/446/379 392/463/394
f 487/553/467 414/526/449 418/525/450 488/554/468
f 470/555/469 489/556/470 412/471/402 413/557/471
f 387/455/388 388/454/387 408/512/437
f 440/522/447 375/520/445 423/558/472
f 463/510/435 420/477/408 476/559/473
f 413/557/471 439/521/446 440/522/447 385/503/428
f 412/471/402 438/519/444 439/521/446 413/557/471
f 490/560/474 437/547/461 436/548/462 462/561/475
f 407/453/386 434/487/415 441/538/452 396/456/389
f 383/533/419 432/485/413 433/486/414 403/562/420
f 406/535/406 434/487/415 432/485/413 383/533/419
f 405/481/407 435/537/416 431/479/410
f 398/462/393 380/563/376 430/480/409 431/479/410
f 396/458/389 441/532/452 429/474/405 397/459/391
f 405/476/407 397/459/391 429/474/405 428/473/404
f 402/564/417 435/488/416 428/473/404 406/475/406
f 412/471/402 427/470/401 438/519/444
f 407/453/386 427/470/401 426/472/403
f 403/562/420 433/486/414 426/472/403 422/469/400
f 405/476/407 430/478/409 425/440/375 420/477/408
f 420/477/408 425/440/375 424/443/378
f 420/477/408 424/443/378 436/548/462
f 468/565/476 443/566/477 421/523/448
f 471/549/463 455/502/427 456/504/429 442/567/478 492/568/479 443/566/477 468/565/476 469/569/480 465/511/436 466/513/438 467/570/481 486/571/482 487/572/467 488/554/468 474/573/483 475/574/484 482/575/485 464/509/434 463/510/435 476/559/473 491/576/486 490/560/474 462/561/475 453/577/487 454/578/488 460/507/432 461/508/433 481/544/458 457/546/460 458/505/430 459/506/431 485/552/466 480/542/456 451/543/457 452/579/489 478/540/454 479/541/455 449/580/424 450/501/426 477/539/453 445/581/490 444/582/491 446/551/465 484/550/464 447/496/422 448/498/423 483/583/492 472/514/439 473/516/441 489/556/470 470/555/469
f 437/547/461 490/560/474 491/576/486
f 414/524/449 487/572/467 486/571/482
f 420/477/408 437/547/461 491/576/486 476/559/473
f 418/525/450 482/575/485 475/574/484
f 418/525/450 475/574/484 474/573/483
f 418/525/450 474/573/483 488/554/468
f 419/515/440 412/471/402 489/556/470 473/516/441
f 419/515/440 472/514/439 483/583/492 379/451/384
f 413/557/471 385/503/428 471/549/463 470/555/469
f 421/523/448 469/569/480 468/565/476
f 388/454/387 414/524/449 486/571/482 467/570/481
f 388/454/387 467/570/481 466/513/438 408/512/437
f 421/523/448 408/512/437 465/511/436 469/569/480
f 418/525/450 390/461/392 464/509/434 482/575/485
f 409/545/459 481/544/458 461/508/433 391/446/379
f 409/545/459 393/465/396 458/505/430 457/546/460
f 415/444/377 391/446/379 460/507/432 454/578/488
f 415/444/377 454/578/488 453/584/487
f 424/443/378 415/442/377 453/577/487 462/561/475 436/548/462
f 410/527/451 416/449/382 478/540/454 452/579/489
f 410/527/451 452/579/489 451/543/457
f 416/449/382 386/585/425 449/580/424 479/541/455
f 411/452/385 379/451/384 483/583/492 448/586/423
f 386/500/425 376/467/398 445/581/490 477/539/453
f 395/518/443 444/582/491 445/581/490 376/467/398
f 395/518/443 377/517/442 446/551/465 444/582/491
f 375/520/445 421/523/448 443/566/477 492/568/479 423/558/472
f 423/558/472 492/568/479 442/567/478
f 385/503/428 440/522/447 423/558/472 442/567/478 456/504/429
