# generated
mtllib lemon.mtl
o fruit_half
v 0.155917 -2.431812 1.923606
v 0.155917 -2.431812 1.923606
v -1.232746 -0.796653 0.654887
v 1.795736 -0.796653 2.273646
v -1.455883 -0.796653 0.926780
v 1.830213 -0.796653 1.923608
v 1.830213 -0.796653 1.923608
v -1.621688 -0.796653 1.236980
v 1.795737 -0.796653 1.573569
v -1.723790 -0.796653 1.573567
v 1.693634 -0.796653 1.236981
v -1.758266 -0.796653 1.923606
v -1.758266 -0.796653 1.923606
v 1.527829 -0.796653 0.926781
v -1.723790 -0.796653 2.273644
v 1.304692 -0.796653 0.654888
v -1.621688 -0.796653 2.610231
v 1.032800 -0.796653 0.431751
v -1.455883 -0.796653 2.920432
v 0.722600 -0.796653 0.265945
v 0.386009 -0.796654 3.683370
v -1.232746 -0.796653 3.192324
v 0.386012 -0.796653 0.163842
v 0.722596 -0.796654 3.581268
v -0.960853 -0.796654 3.415461
v 0.035974 -0.796653 0.129367
v 1.032797 -0.796654 3.415463
v -0.650653 -0.796654 3.581266
v -0.314066 -0.796653 0.163842
v 1.304690 -0.796653 3.192326
v -0.314066 -0.796654 3.683369
v 0.035973 -0.796654 3.717845
v -0.650653 -0.796653 0.265945
v -0.960853 -0.796653 0.431750
v 1.527828 -0.796653 2.920434
v 1.693633 -0.796653 2.610233
v 0.389634 -0.317643 3.818701
v 0.748510 -0.317643 3.708747
v 1.079252 -0.317643 3.530191
v 1.369150 -0.317643 3.289895
v 1.607064 -0.317643 2.997092
v 1.783849 -0.317643 2.663037
v 1.892713 -0.317643 2.300565
v 1.929473 -0.317643 1.923608
v 1.929473 -0.317643 1.923608
v 1.892714 -0.317643 1.546650
v 1.783850 -0.317643 1.184178
v 1.607065 -0.317643 0.850122
v 1.369153 -0.317643 0.557320
v 1.079255 -0.317643 0.317023
v 0.748514 -0.317643 0.138466
v 0.389638 -0.317643 0.028511
v 0.016420 -0.317643 -0.008616
v -0.356799 -0.317643 0.028511
v -0.715675 -0.317643 0.138466
v -1.046417 -0.317643 0.317022
v -1.336314 -0.317643 0.557319
v -1.574227 -0.317643 0.850121
v -1.751012 -0.317643 1.184177
v -1.859875 -0.317643 1.546648
v -1.896634 -0.317643 1.923606
v -1.896634 -0.317643 1.923606
v -1.859875 -0.317643 2.300564
v -1.751012 -0.317643 2.663035
v -1.574227 -0.317643 2.997091
v -1.336314 -0.317643 3.289892
v -1.046417 -0.317643 3.530189
v -0.715675 -0.317643 3.708745
v -0.356799 -0.317643 3.818700
v 0.016419 -0.317643 3.855828
v 0.360764 -1.275664 3.465580
v 0.655695 -1.275664 3.376114
v 0.927505 -1.275664 3.230829
v 1.165749 -1.275664 3.035308
v 1.361270 -1.275664 2.797065
v 1.506556 -1.275664 2.525256
v 1.596022 -1.275664 2.230325
v 1.626232 -1.275664 1.923607
v 1.626232 -1.275664 1.923607
v 1.596023 -1.275664 1.616890
v 1.506557 -1.275664 1.321959
v 1.361272 -1.275664 1.050149
v 1.165750 -1.275664 0.811905
v 0.927507 -1.275664 0.616384
v 0.655698 -1.275664 0.471099
v 0.360767 -1.275664 0.381632
v 0.054049 -1.275664 0.351423
v -0.252669 -1.275664 0.381632
v -0.547599 -1.275664 0.471098
v -0.819409 -1.275664 0.616384
v -1.057652 -1.275664 0.811905
v -1.253174 -1.275664 1.050148
v -1.398459 -1.275664 1.321958
v -1.487924 -1.275664 1.616889
v -1.518133 -1.275664 1.923606
v -1.518133 -1.275664 1.923606
v -1.487924 -1.275664 2.230324
v -1.398459 -1.275664 2.525254
v -1.253174 -1.275664 2.797064
v -1.057652 -1.275664 3.035306
v -0.819409 -1.275664 3.230828
v -0.547599 -1.275664 3.376113
v -0.252669 -1.275664 3.465579
v 0.054049 -1.275664 3.495789
v 0.348418 -1.568560 3.272040
v 0.606331 -1.568560 3.193803
v 0.844025 -1.568560 3.066753
v 1.052365 -1.568560 2.895774
v 1.223346 -1.568560 2.687433
v 1.350396 -1.568560 2.449740
v 1.428634 -1.568560 2.191828
v 1.455052 -1.568560 1.923607
v 1.455052 -1.568560 1.923607
v 1.428634 -1.568560 1.655387
v 1.350397 -1.568560 1.397474
v 1.223348 -1.568560 1.159780
v 1.052367 -1.568560 0.951440
v 0.844027 -1.568560 0.780460
v 0.606334 -1.568560 0.653409
v 0.348421 -1.568560 0.575172
v 0.080201 -1.568560 0.548755
v -0.188020 -1.568560 0.575172
v -0.445932 -1.568560 0.653409
v -0.683626 -1.568560 0.780459
v -0.891966 -1.568560 0.951439
v -1.062947 -1.568560 1.159780
v -1.189997 -1.568560 1.397474
v -1.268233 -1.568560 1.655386
v -1.294650 -1.568560 1.923606
v -1.294650 -1.568560 1.923606
v -1.268233 -1.568560 2.191826
v -1.189996 -1.568560 2.449739
v -1.062947 -1.568560 2.687432
v -0.891966 -1.568560 2.895772
v -0.683626 -1.568560 3.066752
v -0.445932 -1.568560 3.193802
v -0.188020 -1.568560 3.272039
v 0.080200 -1.568560 3.298457
v 0.963394 -2.024381 1.923607
v 0.963394 -2.024381 1.923607
v -0.670122 -2.024381 1.598680
v 0.947079 -2.024381 1.757961
v -0.718439 -2.024381 1.757960
v 0.898762 -2.024381 1.598680
v -0.734754 -2.024381 1.923606
v -0.734754 -2.024381 1.923606
v 0.820299 -2.024381 1.451886
v -0.718439 -2.024381 2.089252
v 0.714706 -2.024381 1.323221
v -0.670122 -2.024381 2.248533
v 0.586040 -2.024381 1.217627
v -0.591659 -2.024381 2.395326
v 0.439247 -2.024381 1.139164
v 0.279965 -2.024381 2.756365
v -0.486066 -2.024381 2.523992
v 0.279966 -2.024381 1.090847
v 0.439245 -2.024381 2.708048
v -0.357400 -2.024381 2.629585
v 0.114320 -2.024381 1.074533
v 0.586039 -2.024381 2.629586
v -0.210606 -2.024381 2.708048
v -0.051326 -2.024381 1.090847
v 0.714705 -2.024381 2.523993
v -0.051326 -2.024381 2.756365
v 0.114320 -2.024381 2.772680
v -0.210606 -2.024381 1.139164
v 0.820298 -2.024381 2.395327
v -0.357400 -2.024381 1.217627
v 0.898761 -2.024381 2.248533
v 0.947079 -2.024381 2.089253
v -0.486066 -2.024381 1.323220
v -0.591659 -2.024381 1.451886
v 0.302542 -1.840535 3.041404
v 0.516342 -1.840535 2.976549
v 0.713381 -1.840535 2.871230
v 0.886087 -1.840535 2.729495
v 1.027823 -1.840535 2.556789
v 1.133142 -1.840535 2.359750
v 1.197998 -1.840535 2.145951
v 1.219897 -1.840535 1.923607
v 1.219897 -1.840535 1.923607
v 1.197998 -1.840535 1.701263
v 1.133143 -1.840535 1.487464
v 1.027824 -1.840535 1.290425
v 0.886088 -1.840535 1.117719
v 0.713382 -1.840535 0.975983
v 0.516344 -1.840535 0.870663
v 0.302545 -1.840535 0.805808
v 0.080201 -1.840535 0.783909
v -0.142143 -1.840535 0.805808
v -0.355943 -1.840535 0.870663
v -0.552981 -1.840535 0.975983
v -0.725687 -1.840535 1.117718
v -0.867423 -1.840535 1.290424
v -0.972742 -1.840535 1.487463
v -1.037598 -1.840535 1.701262
v -1.059497 -1.840535 1.923606
v -1.059497 -1.840535 1.923606
v -1.037598 -1.840535 2.145950
v -0.972742 -1.840535 2.359749
v -0.867423 -1.840535 2.556787
v -0.725687 -1.840535 2.729493
v -0.552981 -1.840535 2.871229
v -0.355943 -1.840535 2.976548
v -0.142144 -1.840535 3.041404
v 0.080200 -1.840535 3.063303
v 0.327469 -2.234304 1.526575
v 0.246851 -2.234304 2.345092
v -0.140861 -2.234304 2.227480
v 0.246852 -2.234304 1.502120
v 0.327468 -2.234304 2.320637
v -0.075739 -2.234304 2.280924
v 0.163013 -2.234304 1.493863
v 0.401765 -2.234304 2.280925
v -0.001442 -2.234304 2.320637
v 0.079174 -2.234304 1.502120
v 0.466887 -2.234304 2.227481
v 0.079174 -2.234304 2.345092
v 0.163013 -2.234304 2.353349
v -0.001442 -2.234304 1.526575
v 0.520331 -2.234304 2.162359
v -0.075739 -2.234304 1.566288
v 0.560044 -2.234304 2.088062
v -0.140861 -2.234304 1.619732
v 0.584499 -2.234304 2.007445
v -0.194305 -2.234304 1.684854
v 0.592756 -2.234304 1.923607
v 0.592756 -2.234304 1.923607
v -0.234018 -2.234304 1.759151
v 0.584499 -2.234304 1.839768
v -0.258473 -2.234304 1.839767
v 0.560044 -2.234304 1.759151
v -0.266730 -2.234304 1.923606
v -0.266730 -2.234304 1.923606
v 0.520332 -2.234304 1.684854
v -0.258473 -2.234304 2.007445
v 0.466888 -2.234304 1.619732
v 0.401766 -2.234304 1.566288
v -0.234018 -2.234304 2.088062
v -0.194305 -2.234304 2.162359
v 0.280791 -2.154352 2.515719
v 0.394043 -2.154352 2.481365
v 0.498418 -2.154352 2.425576
v 0.589902 -2.154352 2.350497
v 0.664982 -2.154352 2.259012
v 0.720771 -2.154352 2.154638
v 0.755126 -2.154352 2.041385
v 0.766727 -2.154352 1.923607
v 0.766727 -2.154352 1.923607
v 0.755126 -2.154352 1.805828
v 0.720772 -2.154352 1.692575
v 0.664983 -2.154352 1.588201
v 0.589903 -2.154352 1.496716
v 0.498419 -2.154352 1.421637
v 0.394044 -2.154352 1.365848
v 0.280792 -2.154352 1.331493
v 0.163013 -2.154352 1.319893
v 0.045235 -2.154352 1.331493
v -0.068018 -2.154352 1.365848
v -0.172392 -2.154352 1.421637
v -0.263877 -2.154352 1.496716
v -0.338956 -2.154352 1.588201
v -0.394745 -2.154352 1.692575
v -0.429100 -2.154352 1.805827
v -0.440700 -2.154352 1.923606
v -0.440700 -2.154352 1.923606
v -0.429100 -2.154352 2.041385
v -0.394745 -2.154352 2.154637
v -0.338956 -2.154352 2.259011
v -0.263877 -2.154352 2.350496
v -0.172392 -2.154352 2.425575
v -0.068018 -2.154352 2.481364
v 0.045234 -2.154352 2.515719
v 0.163013 -2.154352 2.527319
v 0.136137 -2.391291 1.702918
v 0.339141 -2.391291 2.082714
v 0.136137 -2.391291 2.144295
v 0.093926 -2.391291 1.715722
v 0.367125 -2.391291 2.048616
v 0.055024 -2.391291 1.736516
v 0.387918 -2.391291 2.009715
v 0.020927 -2.391291 1.764499
v 0.400722 -2.391291 1.967504
v -0.007056 -2.391291 1.798596
v 0.405046 -2.391291 1.923606
v 0.405046 -2.391291 1.923606
v -0.027850 -2.391291 1.837498
v 0.400723 -2.391291 1.879709
v -0.040654 -2.391291 1.879709
v 0.387918 -2.391291 1.837498
v -0.044978 -2.391291 1.923606
v -0.044978 -2.391291 1.923606
v 0.367125 -2.391291 1.798597
v -0.040654 -2.391291 1.967504
v 0.339142 -2.391291 1.764499
v -0.027850 -2.391291 2.009715
v 0.305044 -2.391291 1.736516
v 0.180034 -2.391291 2.148618
v -0.007056 -2.391291 2.048616
v 0.266143 -2.391291 1.715722
v 0.223932 -2.391291 2.144295
v 0.020927 -2.391291 2.082714
v 0.223932 -2.391291 1.702918
v 0.180034 -2.391291 1.698594
v 0.266142 -2.391291 2.131490
v 0.305044 -2.391291 2.110697
v 0.055024 -2.391291 2.110697
v 0.093926 -2.391291 2.131490
v 0.217300 -2.355787 2.196527
v 0.269501 -2.355787 2.180693
v 0.317610 -2.355787 2.154978
v 0.359778 -2.355787 2.120372
v 0.394384 -2.355787 2.078204
v 0.420099 -2.355787 2.030095
v 0.435934 -2.355787 1.977894
v 0.441281 -2.355787 1.923607
v 0.441281 -2.355787 1.923607
v 0.435934 -2.355787 1.869319
v 0.420099 -2.355787 1.817118
v 0.394385 -2.355787 1.769009
v 0.359779 -2.355787 1.726841
v 0.317611 -2.355787 1.692235
v 0.269502 -2.355787 1.666520
v 0.217301 -2.355787 1.650685
v 0.163013 -2.355787 1.645338
v 0.108726 -2.355787 1.650685
v 0.056525 -2.355787 1.666520
v 0.008416 -2.355787 1.692235
v -0.033752 -2.355787 1.726841
v -0.068358 -2.355787 1.769009
v -0.094073 -2.355787 1.817118
v -0.109908 -2.355787 1.869319
v -0.115255 -2.355787 1.923606
v -0.115255 -2.355787 1.923606
v -0.109908 -2.355787 1.977894
v -0.094073 -2.355787 2.030095
v -0.068358 -2.355787 2.078204
v -0.033752 -2.355787 2.120372
v 0.008416 -2.355787 2.154978
v 0.056524 -2.355787 2.180692
v 0.108726 -2.355787 2.196527
v 0.163013 -2.355787 2.201874
v 0.221844 -2.407484 2.096807
v 0.254972 -2.407484 2.086758
v 0.285503 -2.407484 2.070439
v 0.312263 -2.407484 2.048477
v 0.334225 -2.407484 2.021717
v 0.350544 -2.407484 1.991186
v 0.360593 -2.407484 1.958058
v 0.363987 -2.407484 1.923606
v 0.363987 -2.407484 1.923606
v 0.360593 -2.407484 1.889155
v 0.350544 -2.407484 1.856027
v 0.334225 -2.407484 1.825496
v 0.312264 -2.407484 1.798735
v 0.285503 -2.407484 1.776774
v 0.254972 -2.407484 1.760455
v 0.221845 -2.407484 1.750405
v 0.187393 -2.407484 1.747012
v 0.152941 -2.407484 1.750405
v 0.119813 -2.407484 1.760455
v 0.089282 -2.407484 1.776774
v 0.062522 -2.407484 1.798735
v 0.040560 -2.407484 1.825496
v 0.024241 -2.407484 1.856027
v 0.014192 -2.407484 1.889154
v 0.010799 -2.407484 1.923606
v 0.010799 -2.407484 1.923606
v 0.014192 -2.407484 1.958058
v 0.024241 -2.407484 1.991186
v 0.040560 -2.407484 2.021717
v 0.062522 -2.407484 2.048477
v 0.089282 -2.407484 2.070439
v 0.119813 -2.407484 2.086758
v 0.152941 -2.407484 2.096807
v 0.187393 -2.407484 2.100200
v 0.163268 -2.431812 1.960562
v 0.170337 -2.431812 1.958418
v 0.176851 -2.431812 1.954936
v 0.182561 -2.431812 1.950250
v 0.187247 -2.431812 1.944540
v 0.190729 -2.431812 1.938026
v 0.192873 -2.431812 1.930957
v 0.193597 -2.431812 1.923606
v 0.193597 -2.431812 1.923606
v 0.192873 -2.431812 1.916255
v 0.190729 -2.431812 1.909187
v 0.187247 -2.431812 1.902673
v 0.182561 -2.431812 1.896963
v 0.176851 -2.431812 1.892277
v 0.170337 -2.431812 1.888795
v 0.163268 -2.431812 1.886651
v 0.155917 -2.431812 1.885927
v 0.148567 -2.431812 1.886651
v 0.141498 -2.431812 1.888795
v 0.134984 -2.431812 1.892277
v 0.129274 -2.431812 1.896963
v 0.124588 -2.431812 1.902673
v 0.121106 -2.431812 1.909187
v 0.118962 -2.431812 1.916255
v 0.118238 -2.431812 1.923606
v 0.118238 -2.431812 1.923606
v 0.118962 -2.431812 1.930957
v 0.121106 -2.431812 1.938026
v 0.124588 -2.431812 1.944540
v 0.129274 -2.431812 1.950250
v 0.134984 -2.431812 1.954936
v 0.141498 -2.431812 1.958418
v 0.148567 -2.431812 1.960562
v 0.155917 -2.431812 1.961286
v 0.802727 0.100797 3.720016
v 0.762122 0.100797 3.741938
v 0.350757 0.100797 -0.011282
v 0.396577 0.100797 -0.006724
v -1.325875 0.100797 3.344797
v -1.361466 0.100797 3.315296
v 0.440633 0.100797 3.840437
v 0.396574 0.100797 3.853936
v 0.718066 0.100797 0.091776
v 0.762126 0.100797 0.105275
v -1.574593 0.100797 3.052997
v -1.603802 0.100797 3.017050
v 0.062239 0.100797 3.887195
v 0.016419 0.100797 3.891753
v 1.058411 0.100797 0.265230
v 1.099016 0.100797 0.287152
v -1.762170 0.100797 2.717795
v -1.783874 0.100797 2.676783
v 1.358713 0.100797 0.502415
v 1.394304 0.100797 0.531916
v -1.881396 0.100797 2.352073
v -1.894762 0.100797 2.307572
v 1.607431 0.100797 0.794215
v 1.636640 0.100797 0.830162
v -1.927691 0.100797 1.969885
v -1.932204 0.100797 1.923606
v 1.795008 0.100797 1.129418
v 1.816712 0.100797 1.170430
v -1.899274 0.100797 1.585919
v -1.894762 0.100797 1.539640
v 1.914234 0.100797 1.495140
v 1.927600 0.100797 1.539641
v -1.797239 0.100797 1.214930
v -1.783874 0.100797 1.170429
v 1.960529 0.100797 1.877329
v 1.965042 0.100797 1.923608
v -1.625506 0.100797 0.871175
v -1.603802 0.100797 0.830162
v 1.932113 0.100797 2.261295
v 1.927600 0.100797 2.307574
v -1.390675 0.100797 0.567863
v -1.361466 0.100797 0.531915
v 1.830076 0.100797 2.632284
v 1.816711 0.100797 2.676785
v -1.101769 0.100797 0.316652
v -1.066178 0.100797 0.287151
v 1.658343 0.100797 2.976039
v 1.636639 0.100797 3.017052
v -0.769892 0.100797 0.127197
v -0.729287 0.100797 0.105275
v -0.317918 0.100797 3.858494
v -0.363739 0.100797 3.853936
v 1.423511 0.100797 3.279350
v 1.394302 0.100797 3.315298
v -0.407797 0.100797 0.006775
v -0.363738 0.100797 -0.006725
v -0.685227 0.100797 3.755436
v -0.729287 0.100797 3.741937
v 1.134604 0.100797 3.530560
v 1.099013 0.100797 3.560061
v -0.029400 0.100797 -0.039983
v 0.016420 0.100797 -0.044541
v -1.025573 0.100797 3.581982
v -1.066178 0.100797 3.560061
v 1.099013 0.100797 3.560061
v 0.802727 0.100797 3.720016
v 0.016420 0.100797 -0.044541
v 0.350757 0.100797 -0.011282
v -1.066178 0.100797 3.560061
v -1.325875 0.100797 3.344797
v 0.762122 0.100797 3.741938
v 0.440633 0.100797 3.840437
v 0.396577 0.100797 -0.006724
v 0.718066 0.100797 0.091776
v -1.361466 0.100797 3.315296
v -1.574593 0.100797 3.052997
v 0.396574 0.100797 3.853936
v 0.062239 0.100797 3.887195
v 0.762126 0.100797 0.105275
v 1.058411 0.100797 0.265230
v -1.603802 0.100797 3.017050
v -1.762170 0.100797 2.717795
v 1.099016 0.100797 0.287152
v 1.358713 0.100797 0.502415
v -1.783874 0.100797 2.676783
v -1.881396 0.100797 2.352073
v 1.394304 0.100797 0.531916
v 1.607431 0.100797 0.794215
v -1.894762 0.100797 2.307572
v -1.927691 0.100797 1.969885
v 1.636640 0.100797 0.830162
v 1.795008 0.100797 1.129418
v -1.932204 0.100797 1.923606
v -1.899274 0.100797 1.585919
v 1.816712 0.100797 1.170430
v 1.914234 0.100797 1.495140
v -1.894762 0.100797 1.539640
v -1.797239 0.100797 1.214930
v 1.927600 0.100797 1.539641
v 1.960529 0.100797 1.877329
v -1.783874 0.100797 1.170429
v -1.625506 0.100797 0.871175
v 1.965042 0.100797 1.923608
v 1.932113 0.100797 2.261295
v -1.603802 0.100797 0.830162
v -1.390675 0.100797 0.567863
v 1.927600 0.100797 2.307574
v 1.830076 0.100797 2.632284
v -1.361466 0.100797 0.531915
v -1.101769 0.100797 0.316652
v 1.816711 0.100797 2.676785
v 1.658343 0.100797 2.976039
v -1.066178 0.100797 0.287151
v -0.769892 0.100797 0.127197
v 0.016419 0.100797 3.891753
v -0.317918 0.100797 3.858494
v 1.636639 0.100797 3.017052
v 1.423511 0.100797 3.279350
v -0.729287 0.100797 0.105275
v -0.407797 0.100797 0.006775
v -0.363739 0.100797 3.853936
v -0.685227 0.100797 3.755436
v 1.394302 0.100797 3.315298
v 1.134604 0.100797 3.530560
v -0.363738 0.100797 -0.006725
v -0.029400 0.100797 -0.039983
v -0.729287 0.100797 3.741937
v -1.025573 0.100797 3.581982
v 1.394304 0.100797 0.531916
v -0.685227 0.100797 3.755436
v 0.016420 0.100797 -0.044541
v 1.636639 0.100797 3.017052
v 1.816712 0.100797 1.170430
v -1.066178 0.100797 0.287151
v -1.066178 0.100797 3.560061
v 1.099013 0.100797 3.560061
v -1.325875 0.100797 3.344797
v 0.062239 0.100797 3.887195
v -0.317918 0.100797 3.858494
v -0.407797 0.100797 0.006775
v 1.394302 0.100797 3.315298
v 1.658343 0.100797 2.976039
v 1.358713 0.100797 0.502415
v 1.099016 0.100797 0.287152
v -1.783874 0.100797 2.676783
v -1.783874 0.100797 1.170429
v 0.350757 0.100797 -0.011282
v -0.729287 0.100797 3.741937
v -0.729287 0.100797 0.105275
v -1.101769 0.100797 0.316652
v -1.361466 0.100797 3.315296
v -1.361466 0.100797 0.531915
v 0.440633 0.100797 3.840437
v -1.762170 0.100797 2.717795
v 0.802727 0.100797 3.720016
v -0.029400 0.100797 -0.039983
v 0.762126 0.100797 0.105275
v 1.636640 0.100797 0.830162
v 1.932113 0.100797 2.261295
v -1.797239 0.100797 1.214930
v 1.830076 0.100797 2.632284
v 1.965042 0.100797 1.923608
v -0.363739 0.100797 3.853936
v 1.927600 0.100797 2.307574
v -1.881396 0.100797 2.352073
v -1.574593 0.100797 3.052997
v 1.927600 0.100797 1.539641
v -1.025573 0.100797 3.581982
v 0.396574 0.100797 3.853936
v 1.960529 0.100797 1.877329
v 0.016419 0.100797 3.891753
v 1.816711 0.100797 2.676785
v -1.390675 0.100797 0.567863
v 0.718066 0.100797 0.091776
v -1.927691 0.100797 1.969885
v -1.625506 0.100797 0.871175
v -0.769892 0.100797 0.127197
v 1.058411 0.100797 0.265230
v 1.914234 0.100797 1.495140
v -1.894762 0.100797 2.307572
v -1.894762 0.100797 1.539640
v 1.607431 0.100797 0.794215
v 0.396577 0.100797 -0.006724
v 1.134604 0.100797 3.530560
v -1.932204 0.100797 1.923606
v -1.603802 0.100797 3.017050
v -1.603802 0.100797 0.830162
v 0.762122 0.100797 3.741938
v -0.363738 0.100797 -0.006725
v -1.899274 0.100797 1.585919
v 1.423511 0.100797 3.279350
v 1.795008 0.100797 1.129418
vt 0.896784 0.486071
vt 0.397093 0.031724
vt 0.699854 0.367153
vt 0.462027 0.270908
vt 0.678372 0.385620
vt 0.500022 0.276288
vt 0.999898 0.241868
vt 0.655983 0.406958
vt 0.962122 0.247173
vt 0.632386 0.432113
vt 0.929029 0.253969
vt 0.108476 0.056731
vt 0.608151 0.461593
vt 0.899549 0.261790
vt 0.132413 0.085982
vt 0.872838 0.270365
vt 0.155820 0.110957
vt 0.848234 0.279572
vt 0.178088 0.132179
vt 0.825211 0.289387
vt 0.302840 0.217910
vt 0.199491 0.150579
vt 0.803336 0.299851
vt 0.324722 0.228414
vt 0.220293 0.166809
vt 0.782245 0.311060
vt 0.347766 0.238274
vt 0.240759 0.181345
vt 0.761631 0.323162
vt 0.372410 0.247533
vt 0.261154 0.194543
vt 0.281754 0.206668
vt 0.741211 0.336349
vt 0.720710 0.350892
vt 0.399188 0.256163
vt 0.428775 0.264044
vt 0.286053 0.246740
vt 0.308370 0.258339
vt 0.331764 0.269901
vt 0.356748 0.281596
vt 0.383953 0.293584
vt 0.414182 0.306002
vt 0.448502 0.318943
vt 0.488290 0.332391
vt 0.988382 0.186085
vt 0.948766 0.199345
vt 0.914567 0.212144
vt 0.884417 0.224451
vt 0.857261 0.236349
vt 0.832303 0.247969
vt 0.808920 0.259467
vt 0.786599 0.271012
vt 0.764885 0.282797
vt 0.743427 0.295037
vt 0.721861 0.307920
vt 0.699783 0.321735
vt 0.676777 0.336829
vt 0.652383 0.353646
vt 0.626082 0.372774
vt 0.597370 0.395001
vt 0.065622 0.095597
vt 0.565096 0.422221
vt 0.097556 0.122740
vt 0.126036 0.144914
vt 0.152175 0.164005
vt 0.176455 0.180803
vt 0.199379 0.195896
vt 0.221399 0.209725
vt 0.242925 0.222634
vt 0.264357 0.234910
vt 0.320204 0.185578
vt 0.340516 0.194497
vt 0.361994 0.202236
vt 0.384951 0.208729
vt 0.409760 0.213816
vt 0.436872 0.217205
vt 0.466807 0.218434
vt 0.500022 0.216852
vt 0.999898 0.300882
vt 0.966844 0.299377
vt 0.937086 0.300642
vt 0.910084 0.304035
vt 0.885340 0.309107
vt 0.862421 0.315576
vt 0.840965 0.323285
vt 0.820666 0.332176
vt 0.801269 0.342265
vt 0.782562 0.353640
vt 0.764369 0.366458
vt 0.746549 0.380952
vt 0.728995 0.397452
vt 0.711651 0.416401
vt 0.694520 0.438399
vt 0.677694 0.464224
vt 0.661393 0.494796
vt 0.161123 0.024057
vt 0.177292 0.054116
vt 0.194077 0.079626
vt 0.211194 0.101451
vt 0.228532 0.120311
vt 0.246082 0.136768
vt 0.263900 0.151249
vt 0.282092 0.164072
vt 0.300801 0.175464
vt 0.332765 0.163377
vt 0.351398 0.171102
vt 0.371110 0.177364
vt 0.392097 0.182053
vt 0.414593 0.184956
vt 0.438873 0.185734
vt 0.465285 0.183891
vt 0.993643 0.338635
vt 0.493547 0.178870
vt 0.965336 0.333755
vt 0.939142 0.332022
vt 0.914942 0.332841
vt 0.892487 0.335749
vt 0.871524 0.340425
vt 0.851829 0.346665
vt 0.833208 0.354364
vt 0.815503 0.363497
vt 0.798591 0.374110
vt 0.782386 0.386317
vt 0.766849 0.400305
vt 0.751997 0.416340
vt 0.737923 0.434783
vt 0.724832 0.456116
vt 0.713083 0.480999
vt 0.202077 0.008556
vt 0.703246 0.510449
vt 0.212189 0.037177
vt 0.224122 0.061771
vt 0.237321 0.082981
vt 0.251458 0.101368
vt 0.266348 0.117382
vt 0.281907 0.131369
vt 0.298126 0.143588
vt 0.315050 0.154221
vt 0.464819 0.108187
vt 0.965182 0.409735
vt 0.792228 0.480812
vt 0.948685 0.401714
vt 0.789235 0.498141
vt 0.932234 0.396654
vt 0.789074 0.516942
vt 0.288419 0.000102
vt 0.916161 0.394115
vt 0.288637 0.019139
vt 0.900631 0.393756
vt 0.291713 0.036605
vt 0.885742 0.395326
vt 0.297032 0.052419
vt 0.871555 0.398640
vt 0.357816 0.114169
vt 0.304142 0.066587
vt 0.858118 0.403572
vt 0.371262 0.119137
vt 0.312716 0.079151
vt 0.845478 0.410041
vt 0.385457 0.122485
vt 0.322516 0.090161
vt 0.833695 0.418009
vt 0.400353 0.124082
vt 0.333372 0.099657
vt 0.345167 0.107662
vt 0.822854 0.427469
vt 0.415883 0.123742
vt 0.813077 0.438442
vt 0.431941 0.121213
vt 0.448356 0.116175
vt 0.804537 0.450964
vt 0.797477 0.465079
vt 0.344134 0.138477
vt 0.360529 0.144808
vt 0.377874 0.149513
vt 0.396238 0.152451
vt 0.415697 0.153392
vt 0.436308 0.151993
vt 0.458073 0.147760
vt 0.981844 0.377803
vt 0.481368 0.139930
vt 0.958486 0.370058
vt 0.936591 0.365861
vt 0.915971 0.364470
vt 0.896532 0.365398
vt 0.878190 0.368310
vt 0.860864 0.372983
vt 0.844483 0.379280
vt 0.828993 0.387138
vt 0.814365 0.396555
vt 0.800604 0.407589
vt 0.787762 0.420346
vt 0.775954 0.434990
vt 0.765386 0.451732
vt 0.756391 0.470827
vt 0.749503 0.492555
vt 0.745589 0.517123
vt 0.244078 0.000138
vt 0.248564 0.025057
vt 0.255734 0.046846
vt 0.264869 0.065940
vt 0.275510 0.082674
vt 0.287356 0.097318
vt 0.300219 0.110087
vt 0.313994 0.121141
vt 0.328633 0.130587
vt 0.886965 0.438055
vt 0.378808 0.076931
vt 0.349911 0.047438
vt 0.879078 0.440766
vt 0.386687 0.079711
vt 0.353864 0.055163
vt 0.871719 0.444612
vt 0.394974 0.081289
vt 0.358864 0.062060
vt 0.865011 0.449525
vt 0.403532 0.081599
vt 0.364773 0.068037
vt 0.371462 0.073017
vt 0.859077 0.455438
vt 0.412206 0.080574
vt 0.854048 0.462273
vt 0.420814 0.078158
vt 0.850061 0.469938
vt 0.429135 0.074313
vt 0.847263 0.478320
vt 0.937124 0.449092
vt 0.436881 0.069042
vt 0.845805 0.487267
vt 0.929363 0.443776
vt 0.845840 0.496574
vt 0.921060 0.439875
vt 0.347470 0.011207
vt 0.847506 0.505956
vt 0.912469 0.437396
vt 0.345801 0.020640
vt 0.903806 0.436304
vt 0.895253 0.436545
vt 0.345732 0.029999
vt 0.347150 0.038999
vt 0.371414 0.093807
vt 0.381769 0.097598
vt 0.392677 0.099943
vt 0.404016 0.100748
vt 0.415645 0.099897
vt 0.427384 0.097251
vt 0.439000 0.092659
vt 0.950460 0.431954
vt 0.450180 0.085962
vt 0.939265 0.425258
vt 0.927638 0.420654
vt 0.915889 0.417988
vt 0.904256 0.417108
vt 0.892917 0.417879
vt 0.882010 0.420186
vt 0.871655 0.423934
vt 0.861964 0.429047
vt 0.853049 0.435463
vt 0.845034 0.443130
vt 0.838064 0.451999
vt 0.832309 0.462014
vt 0.827974 0.473101
vt 0.825301 0.485148
vt 0.824569 0.497984
vt 0.325780 0.005842
vt 0.826091 0.511367
vt 0.324269 0.019297
vt 0.325015 0.032210
vt 0.327701 0.044327
vt 0.332047 0.055478
vt 0.337810 0.065550
vt 0.344785 0.074471
vt 0.352803 0.082187
vt 0.361721 0.088650
vt 0.883030 0.467680
vt 0.402870 0.056397
vt 0.383052 0.050013
vt 0.880096 0.470815
vt 0.407177 0.055511
vt 0.877723 0.474445
vt 0.411349 0.053863
vt 0.875992 0.478489
vt 0.415278 0.051453
vt 0.874976 0.482853
vt 0.418891 0.048269
vt 0.918873 0.469898
vt 0.874739 0.487431
vt 0.915285 0.466632
vt 0.875336 0.492108
vt 0.911366 0.464157
vt 0.876813 0.496765
vt 0.377112 0.020629
vt 0.907199 0.462454
vt 0.375561 0.025333
vt 0.902892 0.461518
vt 0.374910 0.030057
vt 0.898557 0.461338
vt 0.386443 0.052624
vt 0.375105 0.034678
vt 0.894300 0.461897
vt 0.390219 0.054611
vt 0.376087 0.039083
vt 0.890227 0.463168
vt 0.886438 0.465111
vt 0.394284 0.055926
vt 0.398536 0.056530
vt 0.377790 0.043167
vt 0.380139 0.046838
vt 0.386409 0.059436
vt 0.391468 0.061123
vt 0.396780 0.061960
vt 0.402228 0.061907
vt 0.407687 0.060931
vt 0.413027 0.059018
vt 0.418122 0.056174
vt 0.422872 0.052427
vt 0.922970 0.465760
vt 0.918213 0.461913
vt 0.913110 0.458995
vt 0.907765 0.457024
vt 0.902304 0.455996
vt 0.896854 0.455891
vt 0.891537 0.456678
vt 0.886469 0.458314
vt 0.881760 0.460750
vt 0.877513 0.463928
vt 0.873829 0.467781
vt 0.870803 0.472234
vt 0.868530 0.477199
vt 0.867095 0.482573
vt 0.866574 0.488237
vt 0.867026 0.494058
vt 0.368665 0.017353
vt 0.868483 0.499897
vt 0.367154 0.023280
vt 0.366665 0.029175
vt 0.367158 0.034898
vt 0.368568 0.040320
vt 0.370817 0.045330
vt 0.373820 0.049827
vt 0.377483 0.053726
vt 0.381713 0.056951
vt 0.392744 0.050435
vt 0.395988 0.051478
vt 0.399380 0.051936
vt 0.402829 0.051786
vt 0.406238 0.051018
vt 0.409508 0.049629
vt 0.412532 0.047622
vt 0.415181 0.045007
vt 0.915079 0.473110
vt 0.912466 0.470441
vt 0.909462 0.468383
vt 0.906203 0.466946
vt 0.902798 0.466134
vt 0.899350 0.465943
vt 0.895954 0.466360
vt 0.892702 0.467364
vt 0.889684 0.468922
vt 0.886983 0.470991
vt 0.884678 0.473520
vt 0.882844 0.476443
vt 0.881547 0.479688
vt 0.880846 0.483169
vt 0.880793 0.486790
vt 0.881429 0.490444
vt 0.882787 0.494012
vt 0.383124 0.023508
vt 0.381701 0.027093
vt 0.381013 0.030773
vt 0.381024 0.034423
vt 0.381690 0.037935
vt 0.382958 0.041212
vt 0.384768 0.044170
vt 0.387052 0.046733
vt 0.389738 0.048839
vt 0.395604 0.035394
vt 0.396333 0.035611
vt 0.397091 0.035689
vt 0.397852 0.035622
vt 0.398590 0.035412
vt 0.399280 0.035064
vt 0.399895 0.034586
vt 0.900126 0.483858
vt 0.400412 0.033994
vt 0.899620 0.483259
vt 0.899013 0.482774
vt 0.898329 0.482416
vt 0.897596 0.482197
vt 0.896838 0.482120
vt 0.896081 0.482187
vt 0.895353 0.482395
vt 0.894675 0.482735
vt 0.894073 0.483197
vt 0.893567 0.483766
vt 0.893175 0.484424
vt 0.892912 0.485148
vt 0.892792 0.485914
vt 0.892822 0.486696
vt 0.893004 0.487464
vt 0.393659 0.029545
vt 0.893337 0.488189
vt 0.393312 0.030269
vt 0.393118 0.031039
vt 0.393077 0.031825
vt 0.393188 0.032598
vt 0.393442 0.033329
vt 0.393828 0.033994
vt 0.394330 0.034572
vt 0.394929 0.035044
vt 0.297757 0.284678
vt 0.294885 0.283258
vt 0.770663 0.248281
vt 0.773329 0.246834
vt 0.163078 0.209514
vt 0.160263 0.207661
vt 0.275465 0.272326
vt 0.272725 0.270902
vt 0.792762 0.235960
vt 0.795503 0.234542
vt 0.137260 0.194987
vt 0.134279 0.192925
vt 0.253670 0.260244
vt 0.251006 0.258792
vt 0.815657 0.223212
vt 0.818528 0.221800
vt 0.108928 0.178998
vt 0.105719 0.176654
vt 0.839827 0.209775
vt 0.842891 0.208349
vt 0.077041 0.160911
vt 0.073544 0.158189
vt 0.865857 0.195341
vt 0.869191 0.193880
vt 0.039711 0.139529
vt 0.035790 0.136197
vt 0.894496 0.179527
vt 0.898198 0.178016
vt 0.569394 0.362604
vt 0.573357 0.359262
vt 0.926774 0.161853
vt 0.930972 0.160282
vt 0.602239 0.343554
vt 0.605765 0.340825
vt 0.964150 0.141684
vt 0.969014 0.140056
vt 0.631263 0.326925
vt 0.634492 0.324576
vt 0.435385 0.359768
vt 0.430500 0.358117
vt 0.657604 0.311929
vt 0.660599 0.309864
vt 0.401871 0.341790
vt 0.397658 0.340202
vt 0.682009 0.298100
vt 0.684833 0.296247
vt 0.372317 0.325724
vt 0.368606 0.324199
vt 0.705060 0.285087
vt 0.707771 0.283391
vt 0.231976 0.248117
vt 0.229345 0.246610
vt 0.345621 0.311092
vt 0.342281 0.309620
vt 0.727240 0.272602
vt 0.729888 0.271020
vt 0.209920 0.235782
vt 0.207277 0.234197
vt 0.320975 0.297513
vt 0.317907 0.296078
vt 0.748952 0.260390
vt 0.751586 0.258887
vt 0.187110 0.223004
vt 0.184406 0.221307
vt 0.317907 0.296078
vt 0.297757 0.284678
vt 0.751586 0.258887
vt 0.770663 0.248281
vt 0.184406 0.221307
vt 0.163078 0.209514
vt 0.294885 0.283258
vt 0.275465 0.272326
vt 0.773329 0.246834
vt 0.792762 0.235960
vt 0.160263 0.207661
vt 0.137260 0.194987
vt 0.272725 0.270902
vt 0.253670 0.260244
vt 0.795503 0.234542
vt 0.815657 0.223212
vt 0.134279 0.192925
vt 0.108928 0.178998
vt 0.818528 0.221800
vt 0.839827 0.209775
vt 0.105719 0.176654
vt 0.077041 0.160911
vt 0.842891 0.208349
vt 0.865857 0.195341
vt 0.073544 0.158189
vt 0.039711 0.139529
vt 0.869191 0.193880
vt 0.894496 0.179527
vt 0.535275 0.381211
vt 0.569394 0.362604
vt 0.898198 0.178016
vt 0.926774 0.161853
vt 0.573357 0.359262
vt 0.602239 0.343554
vt 0.930972 0.160282
vt 0.964150 0.141684
vt 0.605765 0.340825
vt 0.631263 0.326925
vt 0.468640 0.378584
vt 0.435385 0.359768
vt 0.634492 0.324576
vt 0.657604 0.311929
vt 0.430500 0.358117
vt 0.401871 0.341790
vt 0.660599 0.309864
vt 0.682009 0.298100
vt 0.397658 0.340202
vt 0.372317 0.325724
vt 0.684833 0.296247
vt 0.705060 0.285087
vt 0.251006 0.258792
vt 0.231976 0.248117
vt 0.368606 0.324199
vt 0.345621 0.311092
vt 0.707771 0.283391
vt 0.727240 0.272602
vt 0.229345 0.246610
vt 0.209920 0.235782
vt 0.342281 0.309620
vt 0.320975 0.297513
vt 0.729888 0.271020
vt 0.748952 0.260390
vt 0.207277 0.234197
vt 0.187110 0.223004
vt 0.853554 0.146447
vt 0.319964 0.965369
vt 0.500000 0.000000
vt 0.915735 0.777786
vt 0.961940 0.308659
vt 0.222215 0.084265
vt 0.222215 0.915735
vt 0.777784 0.915735
vt 0.155579 0.861048
vt 0.511757 0.998842
vt 0.414212 0.991551
vt 0.391150 0.013037
vt 0.853553 0.853554
vt 0.921304 0.767367
vt 0.844421 0.138952
vt 0.777785 0.084265
vt 0.038060 0.691342
vt 0.038060 0.308658
vt 0.585788 0.008449
vt 0.308658 0.961940
vt 0.308658 0.038060
vt 0.213082 0.091760
vt 0.146446 0.853553
vt 0.146446 0.146446
vt 0.608850 0.986963
vt 0.043629 0.701761
vt 0.701760 0.956371
vt 0.488243 0.001158
vt 0.691342 0.038060
vt 0.915735 0.222215
vt 0.991551 0.585788
vt 0.034631 0.319964
vt 0.965369 0.680037
vt 1.000000 0.500000
vt 0.402455 0.990393
vt 0.990393 0.597546
vt 0.013037 0.608850
vt 0.091760 0.786917
vt 0.990393 0.402455
vt 0.232634 0.921304
vt 0.597544 0.990393
vt 0.998842 0.488243
vt 0.500000 1.000000
vt 0.961940 0.691342
vt 0.138952 0.155579
vt 0.680037 0.034631
vt 0.001158 0.511757
vt 0.078696 0.232634
vt 0.298239 0.043629
vt 0.767366 0.078696
vt 0.986963 0.391150
vt 0.009607 0.597545
vt 0.009607 0.402455
vt 0.908240 0.213083
vt 0.597545 0.009607
vt 0.786917 0.908240
vt 0.000000 0.500000
vt 0.084265 0.777785
vt 0.084265 0.222215
vt 0.691341 0.961940
vt 0.402455 0.009607
vt 0.008449 0.414212
vt 0.861048 0.844421
vt 0.956371 0.298240
usemtl lemon_skin
f 405/405 404/404 2/2
f 391/391 390/390 1/1
f 377/377 410/410 2/2
f 406/406 405/405 2/2
f 392/392 391/391 1/1
f 378/378 377/377 2/2
f 407/407 406/406 2/2
f 393/393 392/392 1/1
f 379/379 378/378 2/2
f 408/408 407/407 2/2
f 394/394 393/393 1/1
f 380/380 379/379 2/2
f 409/409 408/408 2/2
f 395/395 394/394 1/1
f 381/381 380/380 2/2
f 410/410 409/409 2/2
f 396/396 395/395 1/1
f 382/382 381/381 2/2
f 397/397 396/396 1/1
f 383/383 382/382 2/2
f 398/398 397/397 1/1
f 385/385 383/383 2/2
f 399/399 398/398 1/1
f 386/386 384/384 1/1
f 400/400 399/399 1/1
f 387/387 386/386 1/1
f 402/402 400/400 1/1
f 388/388 387/387 1/1
f 403/403 401/401 2/2
f 389/389 388/388 1/1
f 404/404 403/403 2/2
f 390/390 389/389 1/1
f 76/76 36/36 35/35
f 76/76 35/35 75/75
f 90/90 34/34 33/33
f 90/90 33/33 89/89
f 104/104 32/32 31/31
f 104/104 31/31 103/103
f 75/75 35/35 30/30
f 75/75 30/30 74/74
f 89/89 33/33 29/29
f 89/89 29/29 88/88
f 103/103 31/31 28/28
f 103/103 28/28 102/102
f 74/74 30/30 27/27
f 74/74 27/27 73/73
f 88/88 29/29 26/26
f 88/88 26/26 87/87
f 102/102 28/28 25/25
f 102/102 25/25 101/101
f 73/73 27/27 24/24
f 73/73 24/24 72/72
f 87/87 26/26 23/23
f 87/87 23/23 86/86
f 101/101 25/25 22/22
f 101/101 22/22 100/100
f 72/72 24/24 21/21
f 72/72 21/21 71/71
f 86/86 23/23 20/20
f 86/86 20/20 85/85
f 100/100 22/22 19/19
f 100/100 19/19 99/99
f 71/71 21/21 32/32
f 71/71 32/32 104/104
f 85/85 20/20 18/18
f 85/85 18/18 84/84
f 99/99 19/19 17/17
f 99/99 17/17 98/98
f 84/84 18/18 16/16
f 84/84 16/16 83/83
f 98/98 17/17 15/15
f 98/98 15/15 97/97
f 83/83 16/16 14/14
f 83/83 14/14 82/82
f 97/97 15/15 12/12
f 97/97 12/12 96/96
f 82/82 14/14 11/11
f 82/82 11/11 81/81
f 95/95 13/13 10/10
f 95/95 10/10 94/94
f 81/81 11/11 9/9
f 81/81 9/9 80/80
f 94/94 10/10 8/8
f 94/94 8/8 93/93
f 80/80 9/9 7/7
f 80/80 7/7 79/79
f 93/93 8/8 5/5
f 93/93 5/5 92/92
f 78/78 6/6 4/4
f 78/78 4/4 77/77
f 92/92 5/5 3/3
f 92/92 3/3 91/91
f 77/77 4/4 36/36
f 77/77 36/36 76/76
f 91/91 3/3 34/34
f 91/91 34/34 90/90
f 3/3 57/57 56/56
f 3/3 56/56 34/34
f 4/4 43/43 42/42
f 4/4 42/42 36/36
f 5/5 58/58 57/57
f 5/5 57/57 3/3
f 6/6 44/44 43/43
f 6/6 43/43 4/4
f 8/8 59/59 58/58
f 8/8 58/58 5/5
f 9/9 46/46 45/45
f 9/9 45/45 7/7
f 10/10 60/60 59/59
f 10/10 59/59 8/8
f 11/11 47/47 46/46
f 11/11 46/46 9/9
f 13/13 62/62 60/60
f 13/13 60/60 10/10
f 14/14 48/48 47/47
f 14/14 47/47 11/11
f 15/15 63/63 61/61
f 15/15 61/61 12/12
f 16/16 49/49 48/48
f 16/16 48/48 14/14
f 17/17 64/64 63/63
f 17/17 63/63 15/15
f 18/18 50/50 49/49
f 18/18 49/49 16/16
f 19/19 65/65 64/64
f 19/19 64/64 17/17
f 20/20 51/51 50/50
f 20/20 50/50 18/18
f 21/21 37/37 70/70
f 21/21 70/70 32/32
f 22/22 66/66 65/65
f 22/22 65/65 19/19
f 23/23 52/52 51/51
f 23/23 51/51 20/20
f 24/24 38/38 37/37
f 24/24 37/37 21/21
f 25/25 67/67 66/66
f 25/25 66/66 22/22
f 26/26 53/53 52/52
f 26/26 52/52 23/23
f 27/27 39/39 38/38
f 27/27 38/38 24/24
f 28/28 68/68 67/67
f 28/28 67/67 25/25
f 29/29 54/54 53/53
f 29/29 53/53 26/26
f 30/30 40/40 39/39
f 30/30 39/39 27/27
f 31/31 69/69 68/68
f 31/31 68/68 28/28
f 33/33 55/55 54/54
f 33/33 54/54 29/29
f 35/35 41/41 40/40
f 35/35 40/40 30/30
f 32/32 70/70 69/69
f 32/32 69/69 31/31
f 34/34 56/56 55/55
f 34/34 55/55 33/33
f 36/36 42/42 41/41
f 36/36 41/41 35/35
f 128/128 94/94 93/93
f 128/128 93/93 127/127
f 115/115 81/81 80/80
f 115/115 80/80 114/114
f 130/130 95/95 94/94
f 130/130 94/94 128/128
f 116/116 82/82 81/81
f 116/116 81/81 115/115
f 131/131 97/97 96/96
f 131/131 96/96 129/129
f 117/117 83/83 82/82
f 117/117 82/82 116/116
f 132/132 98/98 97/97
f 132/132 97/97 131/131
f 118/118 84/84 83/83
f 118/118 83/83 117/117
f 133/133 99/99 98/98
f 133/133 98/98 132/132
f 119/119 85/85 84/84
f 119/119 84/84 118/118
f 105/105 71/71 104/104
f 105/105 104/104 138/138
f 134/134 100/100 99/99
f 134/134 99/99 133/133
f 120/120 86/86 85/85
f 120/120 85/85 119/119
f 106/106 72/72 71/71
f 106/106 71/71 105/105
f 135/135 101/101 100/100
f 135/135 100/100 134/134
f 121/121 87/87 86/86
f 121/121 86/86 120/120
f 107/107 73/73 72/72
f 107/107 72/72 106/106
f 136/136 102/102 101/101
f 136/136 101/101 135/135
f 122/122 88/88 87/87
f 122/122 87/87 121/121
f 108/108 74/74 73/73
f 108/108 73/73 107/107
f 137/137 103/103 102/102
f 137/137 102/102 136/136
f 123/123 89/89 88/88
f 123/123 88/88 122/122
f 109/109 75/75 74/74
f 109/109 74/74 108/108
f 138/138 104/104 103/103
f 138/138 103/103 137/137
f 124/124 90/90 89/89
f 124/124 89/89 123/123
f 110/110 76/76 75/75
f 110/110 75/75 109/109
f 125/125 91/91 90/90
f 125/125 90/90 124/124
f 111/111 77/77 76/76
f 111/111 76/76 110/110
f 126/126 92/92 91/91
f 126/126 91/91 125/125
f 113/113 78/78 77/77
f 113/113 77/77 111/111
f 127/127 93/93 92/92
f 127/127 92/92 126/126
f 114/114 80/80 79/79
f 114/114 79/79 112/112
f 174/174 106/106 105/105
f 174/174 105/105 173/173
f 203/203 135/135 134/134
f 203/203 134/134 202/202
f 189/189 121/121 120/120
f 189/189 120/120 188/188
f 175/175 107/107 106/106
f 175/175 106/106 174/174
f 204/204 136/136 135/135
f 204/204 135/135 203/203
f 190/190 122/122 121/121
f 190/190 121/121 189/189
f 176/176 108/108 107/107
f 176/176 107/107 175/175
f 205/205 137/137 136/136
f 205/205 136/136 204/204
f 191/191 123/123 122/122
f 191/191 122/122 190/190
f 177/177 109/109 108/108
f 177/177 108/108 176/176
f 206/206 138/138 137/137
f 206/206 137/137 205/205
f 192/192 124/124 123/123
f 192/192 123/123 191/191
f 178/178 110/110 109/109
f 178/178 109/109 177/177
f 193/193 125/125 124/124
f 193/193 124/124 192/192
f 179/179 111/111 110/110
f 179/179 110/110 178/178
f 194/194 126/126 125/125
f 194/194 125/125 193/193
f 181/181 113/113 111/111
f 181/181 111/111 179/179
f 195/195 127/127 126/126
f 195/195 126/126 194/194
f 182/182 114/114 112/112
f 182/182 112/112 180/180
f 196/196 128/128 127/127
f 196/196 127/127 195/195
f 183/183 115/115 114/114
f 183/183 114/114 182/182
f 197/197 130/130 128/128
f 197/197 128/128 196/196
f 184/184 116/116 115/115
f 184/184 115/115 183/183
f 199/199 131/131 129/129
f 199/199 129/129 198/198
f 185/185 117/117 116/116
f 185/185 116/116 184/184
f 200/200 132/132 131/131
f 200/200 131/131 199/199
f 186/186 118/118 117/117
f 186/186 117/117 185/185
f 201/201 133/133 132/132
f 201/201 132/132 200/200
f 187/187 119/119 118/118
f 187/187 118/118 186/186
f 173/173 105/105 138/138
f 173/173 138/138 206/206
f 202/202 134/134 133/133
f 202/202 133/133 201/201
f 188/188 120/120 119/119
f 188/188 119/119 187/187
f 262/262 172/172 171/171
f 262/262 171/171 261/261
f 247/247 170/170 169/169
f 247/247 169/169 246/246
f 261/261 171/171 168/168
f 261/261 168/168 260/260
f 246/246 169/169 167/167
f 246/246 167/167 245/245
f 260/260 168/168 166/166
f 260/260 166/166 259/259
f 274/274 165/165 164/164
f 274/274 164/164 273/273
f 245/245 167/167 163/163
f 245/245 163/163 244/244
f 259/259 166/166 162/162
f 259/259 162/162 258/258
f 273/273 164/164 161/161
f 273/273 161/161 272/272
f 244/244 163/163 160/160
f 244/244 160/160 243/243
f 258/258 162/162 159/159
f 258/258 159/159 257/257
f 272/272 161/161 158/158
f 272/272 158/158 271/271
f 243/243 160/160 157/157
f 243/243 157/157 242/242
f 257/257 159/159 156/156
f 257/257 156/156 256/256
f 271/271 158/158 155/155
f 271/271 155/155 270/270
f 242/242 157/157 154/154
f 242/242 154/154 241/241
f 256/256 156/156 153/153
f 256/256 153/153 255/255
f 270/270 155/155 152/152
f 270/270 152/152 269/269
f 241/241 154/154 165/165
f 241/241 165/165 274/274
f 255/255 153/153 151/151
f 255/255 151/151 254/254
f 269/269 152/152 150/150
f 269/269 150/150 268/268
f 254/254 151/151 149/149
f 254/254 149/149 253/253
f 268/268 150/150 148/148
f 268/268 148/148 267/267
f 253/253 149/149 147/147
f 253/253 147/147 252/252
f 267/267 148/148 146/146
f 267/267 146/146 265/265
f 252/252 147/147 144/144
f 252/252 144/144 251/251
f 266/266 145/145 143/143
f 266/266 143/143 264/264
f 251/251 144/144 142/142
f 251/251 142/142 250/250
f 264/264 143/143 141/141
f 264/264 141/141 263/263
f 250/250 142/142 140/140
f 250/250 140/140 248/248
f 263/263 141/141 172/172
f 263/263 172/172 262/262
f 249/249 139/139 170/170
f 249/249 170/170 247/247
f 139/139 181/181 179/179
f 139/139 179/179 170/170
f 141/141 195/195 194/194
f 141/141 194/194 172/172
f 142/142 182/182 180/180
f 142/142 180/180 140/140
f 143/143 196/196 195/195
f 143/143 195/195 141/141
f 144/144 183/183 182/182
f 144/144 182/182 142/142
f 145/145 197/197 196/196
f 145/145 196/196 143/143
f 147/147 184/184 183/183
f 147/147 183/183 144/144
f 148/148 199/199 198/198
f 148/148 198/198 146/146
f 149/149 185/185 184/184
f 149/149 184/184 147/147
f 150/150 200/200 199/199
f 150/150 199/199 148/148
f 151/151 186/186 185/185
f 151/151 185/185 149/149
f 152/152 201/201 200/200
f 152/152 200/200 150/150
f 153/153 187/187 186/186
f 153/153 186/186 151/151
f 154/154 173/173 206/206
f 154/154 206/206 165/165
f 155/155 202/202 201/201
f 155/155 201/201 152/152
f 156/156 188/188 187/187
f 156/156 187/187 153/153
f 157/157 174/174 173/173
f 157/157 173/173 154/154
f 158/158 203/203 202/202
f 158/158 202/202 155/155
f 159/159 189/189 188/188
f 159/159 188/188 156/156
f 160/160 175/175 174/174
f 160/160 174/174 157/157
f 161/161 204/204 203/203
f 161/161 203/203 158/158
f 162/162 190/190 189/189
f 162/162 189/189 159/159
f 163/163 176/176 175/175
f 163/163 175/175 160/160
f 164/164 205/205 204/204
f 164/164 204/204 161/161
f 166/166 191/191 190/190
f 166/166 190/190 162/162
f 167/167 177/177 176/176
f 167/167 176/176 163/163
f 165/165 206/206 205/205
f 165/165 205/205 164/164
f 168/168 192/192 191/191
f 168/168 191/191 166/166
f 169/169 178/178 177/177
f 169/169 177/177 167/167
f 171/171 193/193 192/192
f 171/171 192/192 168/168
f 170/170 179/179 178/178
f 170/170 178/178 169/169
f 172/172 194/194 193/193
f 172/172 193/193 171/171
f 337/337 240/240 239/239
f 337/337 239/239 336/336
f 322/322 238/238 237/237
f 322/322 237/237 321/321
f 336/336 239/239 236/236
f 336/336 236/236 335/335
f 321/321 237/237 235/235
f 321/321 235/235 320/320
f 335/335 236/236 233/233
f 335/335 233/233 333/333
f 320/320 235/235 232/232
f 320/320 232/232 319/319
f 334/334 234/234 231/231
f 334/334 231/231 332/332
f 319/319 232/232 230/230
f 319/319 230/230 318/318
f 332/332 231/231 229/229
f 332/332 229/229 331/331
f 318/318 230/230 227/227
f 318/318 227/227 317/317
f 331/331 229/229 226/226
f 331/331 226/226 330/330
f 316/316 228/228 225/225
f 316/316 225/225 315/315
f 330/330 226/226 224/224
f 330/330 224/224 329/329
f 315/315 225/225 223/223
f 315/315 223/223 314/314
f 329/329 224/224 222/222
f 329/329 222/222 328/328
f 314/314 223/223 221/221
f 314/314 221/221 313/313
f 328/328 222/222 220/220
f 328/328 220/220 327/327
f 342/342 219/219 218/218
f 342/342 218/218 341/341
f 313/313 221/221 217/217
f 313/313 217/217 312/312
f 327/327 220/220 216/216
f 327/327 216/216 326/326
f 341/341 218/218 215/215
f 341/341 215/215 340/340
f 312/312 217/217 214/214
f 312/312 214/214 311/311
f 326/326 216/216 213/213
f 326/326 213/213 325/325
f 340/340 215/215 212/212
f 340/340 212/212 339/339
f 311/311 214/214 211/211
f 311/311 211/211 310/310
f 325/325 213/213 210/210
f 325/325 210/210 324/324
f 339/339 212/212 209/209
f 339/339 209/209 338/338
f 310/310 211/211 208/208
f 310/310 208/208 309/309
f 324/324 210/210 207/207
f 324/324 207/207 323/323
f 338/338 209/209 240/240
f 338/338 240/240 337/337
f 309/309 208/208 219/219
f 309/309 219/219 342/342
f 323/323 207/207 238/238
f 323/323 238/238 322/322
f 207/207 255/255 254/254
f 207/207 254/254 238/238
f 208/208 241/241 274/274
f 208/208 274/274 219/219
f 209/209 270/270 269/269
f 209/209 269/269 240/240
f 210/210 256/256 255/255
f 210/210 255/255 207/207
f 211/211 242/242 241/241
f 211/211 241/241 208/208
f 212/212 271/271 270/270
f 212/212 270/270 209/209
f 213/213 257/257 256/256
f 213/213 256/256 210/210
f 214/214 243/243 242/242
f 214/214 242/242 211/211
f 215/215 272/272 271/271
f 215/215 271/271 212/212
f 216/216 258/258 257/257
f 216/216 257/257 213/213
f 217/217 244/244 243/243
f 217/217 243/243 214/214
f 218/218 273/273 272/272
f 218/218 272/272 215/215
f 220/220 259/259 258/258
f 220/220 258/258 216/216
f 221/221 245/245 244/244
f 221/221 244/244 217/217
f 219/219 274/274 273/273
f 219/219 273/273 218/218
f 222/222 260/260 259/259
f 222/222 259/259 220/220
f 223/223 246/246 245/245
f 223/223 245/245 221/221
f 224/224 261/261 260/260
f 224/224 260/260 222/222
f 225/225 247/247 246/246
f 225/225 246/246 223/223
f 226/226 262/262 261/261
f 226/226 261/261 224/224
f 228/228 249/249 247/247
f 228/228 247/247 225/225
f 229/229 263/263 262/262
f 229/229 262/262 226/226
f 230/230 250/250 248/248
f 230/230 248/248 227/227
f 231/231 264/264 263/263
f 231/231 263/263 229/229
f 232/232 251/251 250/250
f 232/232 250/250 230/230
f 234/234 266/266 264/264
f 234/234 264/264 231/231
f 235/235 252/252 251/251
f 235/235 251/251 232/232
f 236/236 267/267 265/265
f 236/236 265/265 233/233
f 237/237 253/253 252/252
f 237/237 252/252 235/235
f 239/239 268/268 267/267
f 239/239 267/267 236/236
f 238/238 254/254 253/253
f 238/238 253/253 237/237
f 240/240 269/269 268/268
f 240/240 268/268 239/239
f 374/374 308/308 307/307
f 374/374 307/307 373/373
f 345/345 306/306 305/305
f 345/345 305/305 344/344
f 359/359 304/304 303/303
f 359/359 303/303 358/358
f 373/373 307/307 302/302
f 373/373 302/302 372/372
f 344/344 305/305 301/301
f 344/344 301/301 343/343
f 358/358 303/303 300/300
f 358/358 300/300 357/357
f 372/372 302/302 299/299
f 372/372 299/299 371/371
f 343/343 301/301 298/298
f 343/343 298/298 376/376
f 357/357 300/300 297/297
f 357/357 297/297 356/356
f 371/371 299/299 296/296
f 371/371 296/296 370/370
f 356/356 297/297 295/295
f 356/356 295/295 355/355
f 370/370 296/296 294/294
f 370/370 294/294 369/369
f 355/355 295/295 293/293
f 355/355 293/293 354/354
f 369/369 294/294 292/292
f 369/369 292/292 368/368
f 354/354 293/293 290/290
f 354/354 290/290 353/353
f 367/367 291/291 289/289
f 367/367 289/289 366/366
f 353/353 290/290 288/288
f 353/353 288/288 352/352
f 366/366 289/289 287/287
f 366/366 287/287 365/365
f 352/352 288/288 286/286
f 352/352 286/286 351/351
f 365/365 287/287 284/284
f 365/365 284/284 364/364
f 350/350 285/285 283/283
f 350/350 283/283 349/349
f 364/364 284/284 282/282
f 364/364 282/282 363/363
f 349/349 283/283 281/281
f 349/349 281/281 348/348
f 363/363 282/282 280/280
f 363/363 280/280 362/362
f 348/348 281/281 279/279
f 348/348 279/279 347/347
f 362/362 280/280 278/278
f 362/362 278/278 361/361
f 376/376 298/298 277/277
f 376/376 277/277 375/375
f 347/347 279/279 276/276
f 347/347 276/276 346/346
f 361/361 278/278 275/275
f 361/361 275/275 360/360
f 375/375 277/277 308/308
f 375/375 308/308 374/374
f 346/346 276/276 306/306
f 346/346 306/306 345/345
f 360/360 275/275 304/304
f 360/360 304/304 359/359
f 275/275 326/326 325/325
f 275/275 325/325 304/304
f 276/276 312/312 311/311
f 276/276 311/311 306/306
f 277/277 341/341 340/340
f 277/277 340/340 308/308
f 278/278 327/327 326/326
f 278/278 326/326 275/275
f 279/279 313/313 312/312
f 279/279 312/312 276/276
f 298/298 342/342 341/341
f 298/298 341/341 277/277
f 280/280 328/328 327/327
f 280/280 327/327 278/278
f 281/281 314/314 313/313
f 281/281 313/313 279/279
f 282/282 329/329 328/328
f 282/282 328/328 280/280
f 283/283 315/315 314/314
f 283/283 314/314 281/281
f 284/284 330/330 329/329
f 284/284 329/329 282/282
f 285/285 316/316 315/315
f 285/285 315/315 283/283
f 287/287 331/331 330/330
f 287/287 330/330 284/284
f 288/288 318/318 317/317
f 288/288 317/317 286/286
f 289/289 332/332 331/331
f 289/289 331/331 287/287
f 290/290 319/319 318/318
f 290/290 318/318 288/288
f 291/291 334/334 332/332
f 291/291 332/332 289/289
f 293/293 320/320 319/319
f 293/293 319/319 290/290
f 294/294 335/335 333/333
f 294/294 333/333 292/292
f 295/295 321/321 320/320
f 295/295 320/320 293/293
f 296/296 336/336 335/335
f 296/296 335/335 294/294
f 297/297 322/322 321/321
f 297/297 321/321 295/295
f 299/299 337/337 336/336
f 299/299 336/336 296/296
f 300/300 323/323 322/322
f 300/300 322/322 297/297
f 301/301 309/309 342/342
f 301/301 342/342 298/298
f 302/302 338/338 337/337
f 302/302 337/337 299/299
f 303/303 324/324 323/323
f 303/303 323/323 300/300
f 305/305 310/310 309/309
f 305/305 309/309 301/301
f 307/307 339/339 338/338
f 307/307 338/338 302/302
f 304/304 325/325 324/324
f 304/304 324/324 303/303
f 306/306 311/311 310/310
f 306/306 310/310 305/305
f 308/308 340/340 339/339
f 308/308 339/339 307/307
f 403/403 369/369 368/368
f 403/403 368/368 401/401
f 389/389 355/355 354/354
f 389/389 354/354 388/388
f 404/404 370/370 369/369
f 404/404 369/369 403/403
f 390/390 356/356 355/355
f 390/390 355/355 389/389
f 405/405 371/371 370/370
f 405/405 370/370 404/404
f 391/391 357/357 356/356
f 391/391 356/356 390/390
f 377/377 343/343 376/376
f 377/377 376/376 410/410
f 406/406 372/372 371/371
f 406/406 371/371 405/405
f 392/392 358/358 357/357
f 392/392 357/357 391/391
f 378/378 344/344 343/343
f 378/378 343/343 377/377
f 407/407 373/373 372/372
f 407/407 372/372 406/406
f 393/393 359/359 358/358
f 393/393 358/358 392/392
f 379/379 345/345 344/344
f 379/379 344/344 378/378
f 408/408 374/374 373/373
f 408/408 373/373 407/407
f 394/394 360/360 359/359
f 394/394 359/359 393/393
f 380/380 346/346 345/345
f 380/380 345/345 379/379
f 409/409 375/375 374/374
f 409/409 374/374 408/408
f 395/395 361/361 360/360
f 395/395 360/360 394/394
f 381/381 347/347 346/346
f 381/381 346/346 380/380
f 410/410 376/376 375/375
f 410/410 375/375 409/409
f 396/396 362/362 361/361
f 396/396 361/361 395/395
f 382/382 348/348 347/347
f 382/382 347/347 381/381
f 397/397 363/363 362/362
f 397/397 362/362 396/396
f 383/383 349/349 348/348
f 383/383 348/348 382/382
f 398/398 364/364 363/363
f 398/398 363/363 397/397
f 385/385 350/350 349/349
f 385/385 349/349 383/383
f 399/399 365/365 364/364
f 399/399 364/364 398/398
f 386/386 352/352 351/351
f 386/386 351/351 384/384
f 400/400 366/366 365/365
f 400/400 365/365 399/399
f 387/387 353/353 352/352
f 387/387 352/352 386/386
f 402/402 367/367 366/366
f 402/402 366/366 400/400
f 388/388 354/354 353/353
f 388/388 353/353 387/387
f 38/38 39/39 411/411
f 52/52 53/53 413/413
f 66/66 67/67 415/415
f 37/37 38/38 417/417
f 51/51 52/52 419/419
f 65/65 66/66 421/421
f 70/70 37/37 423/423
f 50/50 51/51 425/425
f 64/64 65/65 427/427
f 49/49 50/50 429/429
f 63/63 64/64 431/431
f 48/48 49/49 433/433
f 61/61 63/63 435/435
f 47/47 48/48 437/437
f 60/60 62/62 439/439
f 46/46 47/47 441/441
f 59/59 60/60 443/443
f 45/45 46/46 445/445
f 58/58 59/59 447/447
f 43/43 44/44 449/449
f 57/57 58/58 451/451
f 42/42 43/43 453/453
f 56/56 57/57 455/455
f 41/41 42/42 457/457
f 55/55 56/56 459/459
f 69/69 70/70 461/461
f 40/40 41/41 463/463
f 54/54 55/55 465/465
f 68/68 69/69 467/467
f 39/39 40/40 469/469
f 53/53 54/54 471/471
f 67/67 68/68 473/473
f 411/411 412/412 38/38
f 413/413 414/414 52/52
f 415/415 416/416 66/66
f 417/417 418/418 37/37
f 419/419 420/420 51/51
f 421/421 422/422 65/65
f 423/423 424/424 70/70
f 425/425 426/426 50/50
f 427/427 428/428 64/64
f 429/429 430/430 49/49
f 431/431 432/432 63/63
f 433/433 434/434 48/48
f 435/435 436/436 61/61
f 437/437 438/438 47/47
f 439/439 440/440 60/60
f 441/441 442/442 46/46
f 443/443 444/444 59/59
f 445/445 446/446 45/45
f 447/447 448/448 58/58
f 449/449 450/450 43/43
f 451/451 452/452 57/57
f 453/453 454/454 42/42
f 455/455 456/456 56/56
f 457/457 458/458 41/41
f 459/459 460/460 55/55
f 461/461 462/462 69/69
f 463/463 464/464 40/40
f 465/465 466/466 54/54
f 467/467 468/468 68/68
f 469/469 470/470 39/39
f 471/471 472/472 53/53
f 473/473 474/474 67/67
f 39/39 475/475 476/476
f 53/53 477/477 478/478
f 67/67 479/479 480/480
f 38/38 481/481 482/482
f 52/52 483/483 484/484
f 66/66 485/485 486/486
f 37/37 487/487 488/488
f 51/51 489/489 490/490
f 65/65 491/491 492/492
f 50/50 493/493 494/494
f 64/64 495/495 496/496
f 49/49 497/497 498/498
f 63/63 499/499 500/500
f 48/48 501/501 502/502
f 62/62 503/503 504/504
f 47/47 505/505 506/506
f 60/60 507/507 508/508
f 46/46 509/509 510/510
f 59/59 511/511 512/512
f 44/44 513/513 514/514
f 58/58 515/515 516/516
f 43/43 517/517 518/518
f 57/57 519/519 520/520
f 42/42 521/521 522/522
f 56/56 523/523 524/524
f 70/70 525/525 526/526
f 41/41 527/527 528/528
f 55/55 529/529 530/530
f 69/69 531/531 532/532
f 40/40 533/533 534/534
f 54/54 535/535 536/536
f 68/68 537/537 538/538
usemtl lemon_cut
f 592/592 539/539 553/553
f 553/553 554/554 588/588
f 588/588 567/567 584/584
f 584/584 593/593 557/557
f 557/557 541/541 566/566
f 566/566 599/599 550/550
f 550/550 559/559 587/587
f 587/587 544/544 560/560
f 560/560 562/562 583/583
f 583/583 597/597 586/586
f 586/586 556/556 570/570
f 570/570 591/591 600/600
f 600/600 595/595 585/585
f 585/585 590/590 575/575
f 575/575 555/555 564/564
f 564/564 596/596 576/576
f 576/576 561/561 547/547
f 547/547 545/545 578/578
f 578/578 558/558 540/540
f 540/540 573/573 549/549
f 549/549 581/581 548/548
f 548/548 579/579 563/563
f 563/563 598/598 565/565
f 565/565 546/546 594/594
f 594/594 551/551 601/601
f 601/601 542/542 552/552
f 552/552 582/582 571/571
f 571/571 574/574 569/569
f 569/569 572/572 580/580
f 580/580 577/577 589/589
f 589/589 543/543 602/602
f 602/602 568/568 592/592
f 592/592 553/553 588/588
f 588/588 584/584 557/557
f 557/557 566/566 550/550
f 550/550 587/587 560/560
f 560/560 583/583 586/586
f 586/586 570/570 600/600
f 600/600 585/585 575/575
f 575/575 564/564 576/576
f 576/576 547/547 578/578
f 578/578 540/540 549/549
f 549/549 548/548 563/563
f 563/563 565/565 594/594
f 594/594 601/601 552/552
f 552/552 571/571 569/569
f 569/569 580/580 589/589
f 589/589 602/602 592/592
f 592/592 588/588 557/557
f 557/557 550/550 560/560
f 560/560 586/586 600/600
f 600/600 575/575 576/576
f 576/576 578/578 549/549
f 549/549 563/563 594/594
f 594/594 552/552 569/569
f 569/569 589/589 592/592
f 592/592 557/557 560/560
f 560/560 600/600 576/576
f 576/576 549/549 594/594
f 594/594 569/569 592/592
f 592/592 560/560 576/576
f 576/576 594/594 592/592
