# generated
mtllib kiwi.mtl
o fruit_half
v 0.258751 -2.316779 0.560815
v 0.267673 -1.965155 0.298968
v 0.275979 -1.588751 0.096794
v 0.281355 -1.179705 -0.034781
v -0.423348 -2.303699 0.592149
v -0.417551 -1.947609 0.336527
v -0.414494 -1.571197 0.148426
v -0.413512 -1.170432 0.015285
v -1.058421 -2.232780 0.667776
v -1.056585 -1.890480 0.419497
v -1.058498 -1.527809 0.236341
v -1.062609 -1.141397 0.106061
v -1.608449 -2.119770 0.763160
v -1.609947 -1.796429 0.528456
v -1.619802 -1.454373 0.353546
v -1.633221 -1.090031 0.228056
v -2.032772 -1.960665 0.889654
v -2.038720 -1.663557 0.673971
v -2.057803 -1.347717 0.513960
v -2.085373 -1.012147 0.397587
v -2.383138 -1.814136 1.008097
v -2.394435 -1.542118 0.814568
v -2.424198 -1.249951 0.675555
v -2.464654 -0.940413 0.577374
v -2.654142 -1.687181 1.111632
v -2.673168 -1.439825 0.944926
v -2.718915 -1.167446 0.836461
v -2.775548 -0.880162 0.768124
v -2.822187 -1.594194 1.188098
v -2.924617 -1.338883 1.099921
v -2.995646 -1.086508 1.039399
v -3.049486 -0.825522 0.994340
v -3.108614 0.002194 0.940687
v -3.108614 0.002194 0.940687
v 0.291134 -2.199861 4.361495
v 0.296540 -1.875511 4.612515
v 0.299213 -1.527731 4.819053
v 0.299335 -1.162913 4.981762
v 0.297754 -0.786185 5.104116
v -0.347358 -2.182273 4.345460
v -0.342286 -1.859619 4.592224
v -0.346485 -1.514439 4.796311
v -0.358850 -1.152705 4.959355
v -0.376980 -0.779352 5.084321
v -0.967799 -2.142270 4.302136
v -0.961641 -1.824224 4.540026
v -0.970289 -1.483552 4.738184
v -0.995535 -1.127737 4.901489
v -1.028843 -0.759976 5.021161
v -1.531576 -2.069409 4.227509
v -1.528480 -1.766202 4.454035
v -1.537396 -1.434966 4.634778
v -1.555177 -1.084936 4.771911
v -1.578888 -0.725777 4.869286
v -1.987003 -1.951073 4.114378
v -1.984551 -1.671692 4.318665
v -1.997051 -1.361821 4.480849
v -2.019452 -1.031627 4.604056
v -2.048235 -0.690631 4.692986
v -2.359018 -1.827576 4.003524
v -2.360499 -1.576433 4.179953
v -2.379612 -1.289033 4.317878
v -2.408356 -0.978299 4.422626
v -2.442098 -0.655545 4.499072
v -2.643567 -1.710797 3.901647
v -2.657656 -1.494226 4.036999
v -2.690465 -1.228070 4.143302
v -2.729474 -0.933279 4.226398
v -2.769874 -0.625339 4.288984
v -2.819576 -1.621867 3.823272
v -2.876360 -1.445970 3.880979
v -2.936777 -1.192779 3.948127
v -2.991822 -0.905619 4.009169
v -3.041360 -0.605646 4.059332
v -3.319450 0.001559 1.208724
v -3.319450 0.001559 1.208724
v -3.241528 -0.854628 1.254771
v -3.169372 -1.142561 1.311736
v -3.063692 -1.418186 1.361739
v -2.904552 -1.671596 1.378695
v -2.680133 -1.847513 1.311883
v -2.398717 -2.018820 1.233916
v -2.044311 -2.197854 1.139419
v -1.619999 -2.385570 1.034019
v -1.065065 -2.513033 0.957837
v -0.431489 -2.598868 0.893699
v 0.250058 -2.617982 0.866551
v -3.484997 0.001024 1.509558
v -3.484997 0.001024 1.509558
v -3.386358 -0.886370 1.537332
v -3.284585 -1.182257 1.562096
v -3.147067 -1.462655 1.577705
v -2.962779 -1.728468 1.576359
v -2.730470 -1.961664 1.548932
v -2.434036 -2.177028 1.498506
v -2.071324 -2.385614 1.430392
v -1.636666 -2.591324 1.351789
v -1.073990 -2.730234 1.297627
v -0.440034 -2.828509 1.247549
v 0.242240 -2.862079 1.219572
v -3.609384 0.001319 1.845789
v -3.609384 0.001319 1.845789
v -3.502125 -0.903908 1.849935
v -3.393140 -1.220348 1.866514
v -3.242498 -1.518921 1.877542
v -3.042888 -1.803527 1.877005
v -2.793155 -2.068273 1.856570
v -2.483418 -2.309517 1.820505
v -2.112093 -2.536989 1.772193
v -1.651965 -2.738071 1.720568
v -1.082293 -2.883483 1.682844
v -0.446853 -2.989601 1.645501
v 0.236017 -3.036349 1.618579
v -3.570651 -0.909010 2.175610
v -3.461532 -1.244743 2.181794
v -3.306673 -1.560228 2.185706
v -3.101481 -1.857897 2.184644
v -2.843201 -2.137222 2.175737
v -2.527830 -2.393327 2.158805
v -2.147914 -2.630148 2.134193
v -1.664935 -2.821928 2.111298
v -1.088336 -2.968449 2.090600
v -0.449972 -3.078109 2.067376
v 0.234478 -3.125187 2.048313
v -3.624737 0.001501 2.527562
v -3.586697 -0.905769 2.526124
v -3.586697 -0.905769 2.526124
v -3.481924 -1.252294 2.526325
v -3.481924 -1.252294 2.526325
v -3.328125 -1.577355 2.526651
v -3.328125 -1.577355 2.526651
v -3.121120 -1.881465 2.526856
v -3.121120 -1.881465 2.526856
v -2.864293 -2.168039 2.527272
v -2.864293 -2.168039 2.527272
v -2.553389 -2.433854 2.527622
v -2.553389 -2.433854 2.527622
v -2.163398 -2.667205 2.527296
v -2.163398 -2.667205 2.527296
v -1.673695 -2.855643 2.525035
v -1.673695 -2.855643 2.525035
v -1.091825 -2.998150 2.519335
v -1.091825 -2.998150 2.519335
v -0.448000 -3.104992 2.512239
v -0.448000 -3.104992 2.512239
v 0.237853 -3.152991 2.502142
v 0.237853 -3.152991 2.502142
v -3.552258 -0.913007 2.872479
v -3.440671 -1.248877 2.862199
v -3.288513 -1.565832 2.855875
v -3.088364 -1.864387 2.857188
v -2.834212 -2.142966 2.868515
v -2.521176 -2.398413 2.887499
v -2.141775 -2.631822 2.913573
v -1.666118 -2.824697 2.936944
v -1.078704 -2.954494 2.947514
v -0.433972 -3.053060 2.954096
v 0.246580 -3.104173 2.953890
v -3.474778 -0.920142 3.186399
v -3.371756 -1.238631 3.166595
v -3.228610 -1.542256 3.152737
v -3.034770 -1.825033 3.154636
v -2.784308 -2.083704 3.177272
v -2.472003 -2.318438 3.214071
v -2.089801 -2.531427 3.259638
v -1.626479 -2.719280 3.307963
v -1.061275 -2.859526 3.346420
v -0.411777 -2.931114 3.361727
v 0.260593 -2.956326 3.361345
v -3.362107 -0.913635 3.485875
v -3.269427 -1.216276 3.454223
v -3.142500 -1.503924 3.430499
v -2.967527 -1.764171 3.429079
v -2.729828 -1.992288 3.461088
v -2.423731 -2.197382 3.514698
v -2.043275 -2.384088 3.580138
v -1.581623 -2.550443 3.650202
v -1.027048 -2.678994 3.710714
v -0.384370 -2.726670 3.729187
v 0.272776 -2.747571 3.733506
v -3.204178 -0.900492 3.763685
v -3.129152 -1.193425 3.719353
v -3.028495 -1.463117 3.679252
v -2.890855 -1.688933 3.664301
v -2.677764 -1.868178 3.708016
v -2.383027 -2.033873 3.780774
v -2.007409 -2.190105 3.867115
v -1.549557 -2.333324 3.958606
v -0.991389 -2.432572 4.027760
v -0.361892 -2.474353 4.057539
v 0.283103 -2.493059 4.067731
v -3.686255 -0.109079 2.432000
v -3.677818 -0.141300 2.526625
v -3.680717 -0.107181 2.620157
v -3.675866 0.001495 2.646055
v -3.688947 -0.339471 2.526163
v -3.688947 -0.339471 2.526163
v -3.688947 -0.339471 2.526163
v 0.284491 -0.782111 -0.116254
v -0.413865 -0.779327 -0.068573
v -1.066921 -0.762797 0.022687
v -1.644391 -0.730166 0.146970
v -2.114490 -0.678895 0.316431
v -2.502254 -0.631274 0.508754
v -2.820786 -0.590988 0.720261
v -3.090540 -0.558541 0.958489
v -3.298482 -0.574416 1.221183
v -3.458203 -0.595752 1.513758
v -3.575355 -0.578875 1.834574
v -3.640150 -0.553867 2.169978
v -3.652839 -0.552677 2.526318
v -3.652839 -0.552677 2.526318
v -3.623252 -0.555757 2.880172
v -3.547774 -0.597613 3.201621
v -3.427145 -0.609738 3.512743
v -3.260939 -0.601540 3.801236
v 0.286379 -0.378841 -0.157111
v -0.414511 -0.382038 -0.112315
v -1.070379 -0.377806 -0.022230
v -1.649898 -0.363270 0.104699
v -2.126683 -0.338677 0.275663
v -2.519825 -0.315582 0.475063
v -2.843741 -0.295947 0.697121
v -3.110268 -0.281787 0.939998
v 0.295770 -0.399534 5.192478
v -0.401022 -0.397347 5.180984
v -1.047980 -0.381365 5.080663
v -1.606547 -0.362070 4.931245
v -2.081594 -0.344794 4.752350
v -2.478859 -0.328069 4.551631
v -2.810139 -0.313117 4.333920
v -3.082758 -0.303023 4.096563
v -3.321501 -0.288005 1.207492
v -3.486844 -0.296365 1.506809
v -3.611375 -0.287464 1.852064
v -3.677227 -0.262722 2.237993
v -3.677227 -0.262722 2.237993
v -3.663250 -0.263049 2.812670
v -3.663250 -0.263049 2.812670
v -3.595259 -0.297070 3.192532
v -3.470035 -0.308553 3.530853
v -3.303210 -0.301766 3.829660
v -1.059106 0.001685 5.098505
v -1.059106 0.001685 5.098505
v -2.514404 -0.001459 4.581734
v -2.514404 -0.001459 4.581734
v -3.681393 0.000758 2.897948
v -3.681393 0.000758 2.897948
v -3.681393 0.000758 2.897948
v 0.287667 0.001609 -0.159890
v 0.287667 0.001609 -0.159890
v -0.414735 0.001609 -0.118602
v -0.414735 0.001609 -0.118602
v -1.072074 0.001609 -0.030971
v -1.072074 0.001609 -0.030971
v -2.124258 0.001613 0.269407
v -2.124258 0.001613 0.269407
v -2.519664 0.001682 0.471259
v -2.519664 0.001682 0.471259
v -2.846248 0.001802 0.698679
v -2.846248 0.001802 0.698679
v -3.322434 -0.003305 3.844675
v -3.322434 -0.003305 3.844675
v 0.266365 2.289876 0.587134
v 0.272122 1.956407 0.317944
v 0.276436 1.588418 0.104243
v 0.281358 1.182931 -0.034781
v 0.284491 0.785329 -0.116254
v 0.286379 0.382059 -0.157111
v -0.393563 2.251011 0.636040
v -0.396750 1.925559 0.373862
v -0.407304 1.567424 0.160856
v -0.412768 1.173472 0.016615
v -0.413865 0.782545 -0.068573
v -0.414511 0.385256 -0.112315
v -1.004510 2.174616 0.711893
v -1.014936 1.863123 0.460911
v -1.032777 1.516047 0.261254
v -1.043679 1.140146 0.123975
v -1.053154 0.762370 0.035107
v -1.063482 0.380462 -0.015974
v -1.548566 2.071445 0.801541
v -1.554409 1.769798 0.572795
v -1.566383 1.435599 0.395616
v -1.585413 1.083748 0.264534
v -1.608022 0.726515 0.173899
v -1.628827 0.364630 0.120076
v -1.987913 1.930509 0.914976
v -1.993620 1.651764 0.708784
v -2.013117 1.342371 0.547380
v -2.041387 1.015125 0.427605
v -2.073512 0.680634 0.343323
v -2.105805 0.341803 0.289369
v -2.342584 1.786763 1.028574
v -2.354458 1.536548 0.848503
v -2.383931 1.251686 0.709391
v -2.422385 0.947845 0.606651
v -2.462866 0.635796 0.534010
v -2.499683 0.319361 0.487797
v -2.617224 1.657497 1.131109
v -2.643020 1.439829 0.991548
v -2.688577 1.176873 0.883476
v -2.739030 0.892129 0.802581
v -2.787006 0.598432 0.744626
v -2.827070 0.300477 0.708363
v -2.790622 1.562208 1.209553
v -2.858051 1.383564 1.149458
v -2.932030 1.134520 1.082126
v -2.998442 0.859715 1.023856
v -3.054035 0.575935 0.978783
v -3.093097 0.289009 0.949997
v 0.295140 1.926203 4.680934
v 0.287930 2.238109 4.399853
v 0.298286 1.576640 4.906187
v 0.298963 1.195686 5.064305
v 0.298918 0.807718 5.169692
v 0.298099 0.411067 5.228961
v 0.296123 0.001616 5.239023
v 0.296123 0.001616 5.239023
v -0.375043 1.914492 4.668481
v -0.371860 2.238041 4.399453
v -0.383133 1.560370 4.880877
v -0.392306 1.180663 5.035765
v -0.401065 0.796356 5.139297
v -0.407145 0.402414 5.193393
v -0.409210 0.001609 5.199338
v -0.409210 0.001609 5.199338
v -1.015992 1.863016 4.614558
v -1.006174 2.185202 4.356730
v -1.034931 1.517537 4.816581
v -1.051196 1.143271 4.959978
v -1.060572 0.768848 5.049586
v -1.063118 0.385828 5.094073
v -1.552284 1.763035 4.493699
v -1.541347 2.065947 4.256528
v -1.576845 1.434719 4.681278
v -1.609029 1.085534 4.821737
v -1.635530 0.730728 4.914100
v -1.639313 0.366214 4.954757
v -1.997055 1.649490 4.355907
v -1.986682 1.929849 4.142684
v -2.022878 1.341293 4.521982
v -2.057817 1.015040 4.644886
v -2.094155 0.682202 4.730334
v -2.126686 0.343223 4.782978
v -2.361886 1.540128 4.215344
v -2.349541 1.794300 4.029852
v -2.391679 1.252985 4.355729
v -2.430735 0.947793 4.457093
v -2.471288 0.636012 4.527919
v -2.504735 0.319721 4.571435
v -2.651400 1.449773 4.070239
v -2.629003 1.671757 3.925133
v -2.692637 1.182187 4.179425
v -2.739832 0.893747 4.257767
v -2.785732 0.599010 4.312732
v -2.822582 0.300502 4.347323
v -2.867233 1.399355 3.904534
v -2.804854 1.580451 3.841106
v -2.933563 1.144650 3.974810
v -2.993287 0.864386 4.033103
v -3.044771 0.579073 4.076154
v -3.084417 0.290161 4.105019
v -3.304412 0.290927 1.218159
v -3.112021 1.142346 1.317001
v -3.199233 0.863225 1.275704
v -2.999398 1.403526 1.354267
v -2.853080 1.628274 1.369021
v -3.468371 0.295063 1.518460
v -3.244389 1.171716 1.580795
v -3.351079 0.882286 1.553903
v -3.103781 1.447635 1.600380
v -2.921211 1.701428 1.601396
v -3.589293 0.288195 1.857434
v -3.345189 1.200767 1.874337
v -3.459457 0.895193 1.860662
v -3.187078 1.491461 1.884504
v -2.985376 1.765218 1.882614
v -3.663850 0.262763 2.233369
v -3.663850 0.262763 2.233369
v -3.682982 0.001419 2.161857
v -3.682982 0.001419 2.161857
v -3.682982 0.001419 2.161857
v -3.405585 1.217322 2.192308
v -3.524910 0.897769 2.187264
v -3.241623 1.521110 2.196720
v -3.032501 1.808691 2.195484
v -3.679407 0.001765 2.405442
v -3.417929 1.219678 2.526530
v -3.417929 1.219678 2.526530
v -3.542414 0.896668 2.526770
v -3.542414 0.896668 2.526770
v -3.251035 1.527390 2.526322
v -3.251035 1.527390 2.526322
v -3.039929 1.819115 2.526647
v -3.039929 1.819115 2.526647
v -3.389167 1.212807 2.855752
v -3.513405 0.893617 2.864812
v -3.227340 1.516706 2.849796
v -3.020843 1.804599 2.851655
v -3.331765 1.200352 3.165683
v -3.445272 0.894590 3.184831
v -3.180817 1.493708 3.152211
v -2.983715 1.770022 3.154405
v -3.243092 1.177340 3.457871
v -3.340554 0.884863 3.489000
v -3.110993 1.458157 3.433246
v -2.932130 1.716030 3.431527
v -3.115249 1.149849 3.730464
v -3.193488 0.865319 3.774338
v -3.011255 1.417689 3.688434
v -2.868957 1.646666 3.671876
v -2.641283 1.811040 1.326083
v -2.356503 1.987288 1.253076
v -1.998722 2.163597 1.163953
v -1.546499 2.318048 1.078623
v -1.006213 2.441177 1.003328
v -0.397641 2.530065 0.939953
v 0.259035 2.574248 0.898709
v -2.684857 1.929328 1.572575
v -2.387224 2.142794 1.521215
v -2.022248 2.347656 1.455004
v -1.561011 2.518832 1.392711
v -1.016901 2.655879 1.335169
v -0.405680 2.753027 1.286061
v 0.251716 2.800280 1.253285
v -2.733733 2.020032 1.863961
v -2.425487 2.259017 1.830390
v -2.052834 2.484428 1.785712
v -1.586120 2.671713 1.742568
v -1.032717 2.815122 1.703902
v -0.415007 2.915758 1.669422
v 0.246252 2.964757 1.645072
v -2.772919 2.079005 2.186528
v -2.461849 2.335502 2.169115
v -2.084117 2.573170 2.145564
v -1.614007 2.772389 2.121933
v -1.050042 2.917716 2.101604
v -0.423465 3.017704 2.081185
v 0.243556 3.067043 2.064710
v -2.779902 2.094848 2.527597
v -2.779902 2.094848 2.527597
v -2.466917 2.355292 2.528153
v -2.466917 2.355292 2.528153
v -2.095320 2.602389 2.527818
v -2.095320 2.602389 2.527818
v -1.634169 2.815584 2.525166
v -1.634169 2.815584 2.525166
v -1.065473 2.964887 2.520355
v -1.065473 2.964887 2.520355
v -0.429093 3.060982 2.512870
v -0.429093 3.060982 2.512870
v 0.244327 3.110477 2.504344
v 0.244327 3.110477 2.504344
v -2.763767 2.075570 2.863636
v -2.451743 2.329648 2.882921
v -2.077163 2.567557 2.906890
v -1.630239 2.786812 2.933450
v -1.066353 2.941807 2.946529
v -0.426740 3.038049 2.949730
v 0.248758 3.086308 2.948876
v -2.732702 2.026031 3.178046
v -2.424230 2.263622 3.216071
v -2.050592 2.485841 3.262179
v -1.600785 2.689694 3.310388
v -1.049236 2.847543 3.347006
v -0.414040 2.941785 3.364684
v 0.259801 2.964490 3.363850
v -2.693026 1.944627 3.466588
v -2.391001 2.153993 3.523421
v -2.020015 2.351602 3.591365
v -1.570530 2.534825 3.662360
v -1.029327 2.687182 3.724267
v -0.392481 2.755295 3.744831
v 0.270796 2.761388 3.741015
v -2.653477 1.828445 3.720369
v -2.362452 1.998666 3.797333
v -1.995793 2.165850 3.886723
v -1.548344 2.325618 3.979073
v -1.011368 2.461929 4.060886
v -0.377907 2.519841 4.090942
v 0.279739 2.517461 4.086136
v -3.607780 0.574074 2.191642
v -3.626373 0.575638 2.526901
v -3.626373 0.575638 2.526901
v -3.674003 0.324611 2.526103
v -3.674003 0.324611 2.526103
v -3.674003 0.324611 2.526103
v -3.602970 0.562128 2.867374
v -3.657035 0.261101 2.815523
v -3.657035 0.261101 2.815523
v -3.683598 0.117814 2.422020
v -3.674478 0.142660 2.526610
v -3.678669 0.113278 2.626160
v -3.265773 0.578083 1.239882
v -3.424177 0.588117 1.531571
v -3.539398 0.586122 1.852009
v -3.529637 0.585510 3.199065
v -3.412704 0.592854 3.514748
v -3.253979 0.579766 3.808696
v -1.641629 0.001490 0.102156
v -1.641629 0.001490 0.102156
v -1.632048 0.001836 4.958460
v -1.632048 0.001836 4.958460
v -2.115680 0.000998 4.784367
v -2.115680 0.000998 4.784367
v -2.843143 -0.003233 4.359667
v -2.843143 -0.003233 4.359667
v -3.108901 -0.003651 4.118736
v -3.108901 -0.003651 4.118736
v -3.587040 0.291745 3.192342
v -3.464205 0.301458 3.533621
v -3.298642 0.291163 3.833090
v -3.608217 -0.000625 3.190927
v -3.608217 -0.000625 3.190927
v -3.484985 -0.002243 3.543252
v -3.484985 -0.002243 3.543252
v 0.630833 -3.120451 2.749489
v 0.630833 -3.098814 2.950251
v 0.630833 0.780344 -0.107625
v 0.630833 0.577111 -0.128241
v 0.630833 -2.607019 3.906397
v 0.630833 -2.488558 4.062120
v 0.630833 1.960825 0.309997
v 0.630833 1.783185 0.206897
v 0.630833 -1.870219 4.606109
v 0.630833 -1.701698 4.706226
v 0.630833 -2.333367 4.216676
v 0.630833 -2.195035 4.355397
v 0.630833 2.297611 0.579218
v 0.630833 2.141150 0.453020
v 0.630833 -2.928725 1.453931
v 0.630833 -3.002879 1.624266
v 0.630833 2.738173 3.730012
v 0.630833 2.827317 3.563741
v 0.630833 -1.770077 0.226759
v 0.630833 -1.943902 0.320472
v 0.630833 -2.720690 1.080465
v 0.630833 -2.825119 1.232064
v 0.630833 -0.208149 5.202626
v 0.630833 0.001610 5.226970
v 0.630833 0.410105 5.217973
v 0.630833 0.618421 5.186860
v 0.630833 -0.183784 -0.144334
v 0.630833 -0.375130 -0.142909
v 0.630833 -3.131216 2.300756
v 0.630833 -3.143348 2.498213
v 0.630833 2.966774 1.639412
v 0.630833 2.894928 1.468338
v 0.630833 -2.453598 0.748453
v 0.630833 -2.584759 0.882079
v 0.630833 2.218715 4.385567
v 0.630833 2.347387 4.240668
v 0.630833 3.111268 2.500195
v 0.630833 3.092309 2.308287
v 0.630833 2.581477 0.891344
v 0.630833 2.451568 0.749146
v 0.630833 3.066781 2.059447
v 0.630833 3.022425 1.877484
v 0.630833 -3.018903 3.173505
v 0.630833 -2.952223 3.357530
v 0.630833 2.805093 1.246820
v 0.630833 2.704511 1.089158
v 0.630833 1.739608 4.775349
v 0.630833 1.910279 4.665252
v 0.630833 1.178650 -0.027801
v 0.630833 0.979647 -0.068614
v 0.630833 3.083612 2.946597
v 0.630833 3.094268 2.750338
v 0.630833 2.495762 4.073365
v 0.630833 2.604853 3.918520
v 0.630833 -0.574714 -0.118525
v 0.630833 -0.774353 -0.098248
v 0.630833 -1.376165 0.058388
v 0.630833 -1.570672 0.121171
v 0.630833 2.071520 4.518530
v 0.630833 2.218715 4.385567
v 0.630833 -0.973544 5.033935
v 0.630833 -0.783417 5.095662
v 0.630833 1.586837 0.106134
v 0.630833 1.386425 0.037405
v 0.630833 -0.597424 5.136735
v 0.630833 -0.398507 5.182162
v 0.630833 -1.522228 4.812253
v 0.630833 -1.344207 4.891653
v 0.630833 -2.131690 0.460375
v 0.630833 -2.289076 0.577984
v 0.630833 0.804538 5.158803
v 0.630833 1.006477 5.103949
v 0.630833 -2.195035 4.355397
v 0.630833 -2.038795 4.476390
v 0.630833 -3.068079 1.863401
v 0.630833 -3.106110 2.047523
v 0.630833 0.377475 -0.146670
v 0.630833 0.184898 -0.148097
v 0.630833 2.941667 3.355374
v 0.630833 2.994697 3.173601
v 0.630833 1.375168 4.975348
v 0.630833 1.567862 4.895354
v 0.630833 -2.838938 3.557729
v 0.630833 -2.743170 3.728658
v 0.630833 -0.976386 -0.052640
v 0.630833 -1.169586 -0.012947
v 0.630833 0.001610 5.226970
v 0.630833 0.216421 5.221729
v 0.630833 -3.143348 2.498213
v 0.630833 -3.120451 2.749489
v 0.630833 0.577111 -0.128241
v 0.630833 0.377475 -0.146670
v 0.630833 -2.743170 3.728658
v 0.630833 -2.607019 3.906397
v 0.630833 1.783185 0.206897
v 0.630833 1.586837 0.106134
v 0.630833 -1.701698 4.706226
v 0.630833 -1.522228 4.812253
v 0.630833 -2.488558 4.062120
v 0.630833 -2.333367 4.216676
v 0.630833 2.141150 0.453020
v 0.630833 1.960825 0.309997
v 0.630833 -2.825119 1.232064
v 0.630833 -2.928725 1.453931
v 0.630833 2.827317 3.563741
v 0.630833 2.941667 3.355374
v 0.630833 -1.570672 0.121171
v 0.630833 -1.770077 0.226759
v 0.630833 -2.584759 0.882079
v 0.630833 -2.720690 1.080465
v 0.630833 -0.398507 5.182162
v 0.630833 -0.208149 5.202626
v 0.630833 0.618421 5.186860
v 0.630833 0.804538 5.158803
v 0.630833 0.001583 -0.147842
v 0.630833 -0.183784 -0.144334
v 0.630833 -3.106110 2.047523
v 0.630833 -3.131216 2.300756
v 0.630833 2.894928 1.468338
v 0.630833 2.805093 1.246820
v 0.630833 -2.289076 0.577984
v 0.630833 -2.453598 0.748453
v 0.630833 2.347387 4.240668
v 0.630833 2.495762 4.073365
v 0.630833 3.092309 2.308287
v 0.630833 3.066781 2.059447
v 0.630833 2.451568 0.749146
v 0.630833 2.297611 0.579218
v 0.630833 3.022425 1.877484
v 0.630833 2.966774 1.639412
v 0.630833 -3.098814 2.950251
v 0.630833 -3.018903 3.173505
v 0.630833 2.704511 1.089158
v 0.630833 2.581477 0.891344
v 0.630833 1.567862 4.895354
v 0.630833 1.739608 4.775349
v 0.630833 0.979647 -0.068614
v 0.630833 0.780344 -0.107625
v 0.630833 3.094268 2.750338
v 0.630833 3.111268 2.500195
v 0.630833 2.604853 3.918520
v 0.630833 2.738173 3.730012
v 0.630833 -0.375130 -0.142909
v 0.630833 -0.574714 -0.118525
v 0.630833 -1.169586 -0.012947
v 0.630833 -1.376165 0.058388
v 0.630833 1.910279 4.665252
v 0.630833 2.071520 4.518530
v 0.630833 -1.158158 4.974291
v 0.630833 -0.973544 5.033935
v 0.630833 1.386425 0.037405
v 0.630833 1.178650 -0.027801
v 0.630833 -0.783417 5.095662
v 0.630833 -0.597424 5.136735
v 0.630833 -1.344207 4.891653
v 0.630833 -1.158158 4.974291
v 0.630833 -1.943902 0.320472
v 0.630833 -2.131690 0.460375
v 0.630833 1.006477 5.103949
v 0.630833 1.190086 5.053714
v 0.630833 -2.038795 4.476390
v 0.630833 -1.870219 4.606109
v 0.630833 -3.002879 1.624266
v 0.630833 -3.068079 1.863401
v 0.630833 0.184898 -0.148097
v 0.630833 0.001583 -0.147842
v 0.630833 2.994697 3.173601
v 0.630833 3.083612 2.946597
v 0.630833 1.190086 5.053714
v 0.630833 1.375168 4.975348
v 0.630833 -2.952223 3.357530
v 0.630833 -2.838938 3.557729
v 0.630833 -0.774353 -0.098248
v 0.630833 -0.976386 -0.052640
v 0.630833 0.216421 5.221729
v 0.630833 0.410105 5.217973
v 0.630833 0.780344 -0.107625
v 0.630833 -2.607019 3.906397
v 0.630833 -1.701698 4.706226
v 0.630833 2.495762 4.073365
v 0.630833 2.894928 1.468338
v 0.630833 0.377475 -0.146670
v 0.630833 -2.952223 3.357530
v 0.630833 -1.344207 4.891653
v 0.630833 3.092309 2.308287
v 0.630833 1.386425 0.037405
v 0.630833 -2.488558 4.062120
v 0.630833 2.347387 4.240668
v 0.630833 -2.743170 3.728658
v 0.630833 1.586837 0.106134
v 0.630833 -2.453598 0.748453
v 0.630833 1.739608 4.775349
v 0.630833 -0.976386 -0.052640
v 0.630833 -1.943902 0.320472
v 0.630833 -0.597424 5.136735
v 0.630833 -0.398507 5.182162
v 0.630833 -2.195035 4.355397
v 0.630833 -0.183784 -0.144334
v 0.630833 0.001583 -0.147842
v 0.630833 2.805093 1.246820
v 0.630833 1.190086 5.053714
v 0.630833 -2.333367 4.216676
v 0.630833 0.410105 5.217973
v 0.630833 -0.774353 -0.098248
v 0.630833 3.066781 2.059447
v 0.630833 -2.584759 0.882079
v 0.630833 3.094268 2.750338
v 0.630833 2.297611 0.579218
v 0.630833 1.960825 0.309997
v 0.630833 -2.720690 1.080465
v 0.630833 -1.570672 0.121171
v 0.630833 -1.169586 -0.012947
v 0.630833 -3.002879 1.624266
v 0.630833 -0.973544 5.033935
v 0.630833 0.979647 -0.068614
v 0.630833 -1.158158 4.974291
v 0.630833 -0.574714 -0.118525
v 0.630833 2.071520 4.518530
v 0.630833 1.783185 0.206897
v 0.630833 2.141150 0.453020
v 0.630833 0.618421 5.186860
v 0.630833 2.941667 3.355374
v 0.630833 2.581477 0.891344
v 0.630833 -1.522228 4.812253
v 0.630833 -2.928725 1.453931
v 0.630833 0.216421 5.221729
v 0.630833 -0.783417 5.095662
v 0.630833 2.218715 4.385567
v 0.630833 2.704511 1.089158
v 0.630833 -3.106110 2.047523
v 0.630833 -3.120451 2.749489
v 0.630833 2.994697 3.173601
v 0.630833 -1.376165 0.058388
v 0.630833 2.827317 3.563741
v 0.630833 -2.289076 0.577984
v 0.630833 -3.098814 2.950251
v 0.630833 -2.825119 1.232064
v 0.630833 3.022425 1.877484
v 0.630833 -1.770077 0.226759
v 0.630833 -3.143348 2.498213
v 0.630833 2.604853 3.918520
v 0.630833 0.804538 5.158803
v 0.630833 2.738173 3.730012
v 0.630833 -3.068079 1.863401
v 0.630833 -2.131690 0.460375
v 0.630833 -2.038795 4.476390
v 0.630833 1.375168 4.975348
v 0.630833 0.001610 5.226970
v 0.630833 -1.870219 4.606109
v 0.630833 1.910279 4.665252
v 0.630833 3.111268 2.500195
v 0.630833 3.083612 2.946597
v 0.630833 -0.208149 5.202626
v 0.630833 2.451568 0.749146
v 0.630833 0.577111 -0.128241
v 0.630833 2.966774 1.639412
v 0.630833 -2.838938 3.557729
v 0.630833 1.006477 5.103949
v 0.630833 0.184898 -0.148097
v 0.630833 -3.131216 2.300756
v 0.630833 1.567862 4.895354
v 0.630833 -3.018903 3.173505
v 0.630833 1.178650 -0.027801
v 0.630833 -0.375130 -0.142909
vt 0.762304 0.385413
vt 0.761793 0.364915
vt 0.761246 0.344907
vt 0.760566 0.324750
vt 0.732705 0.386665
vt 0.731996 0.366250
vt 0.730875 0.346524
vt 0.729375 0.326668
vt 0.704744 0.387330
vt 0.703850 0.367620
vt 0.702233 0.348618
vt 0.699964 0.329534
vt 0.679865 0.387130
vt 0.678823 0.368571
vt 0.676667 0.350722
vt 0.673594 0.332878
vt 0.659135 0.386239
vt 0.657956 0.369050
vt 0.655265 0.352570
vt 0.651350 0.336223
vt 0.641497 0.385369
vt 0.640094 0.369789
vt 0.636734 0.354892
vt 0.631977 0.340213
vt 0.627377 0.384577
vt 0.625576 0.370868
vt 0.621145 0.357760
vt 0.615250 0.344919
vt 0.618129 0.383969
vt 0.611745 0.372935
vt 0.605667 0.362132
vt 0.599465 0.350928
vt 0.939014 0.058319
vt 0.579570 0.315371
vt 0.244172 0.371915
vt 0.245545 0.391555
vt 0.246772 0.410973
vt 0.247866 0.430220
vt 0.248864 0.449407
vt 0.216209 0.373754
vt 0.217511 0.393171
vt 0.218158 0.412388
vt 0.218212 0.431469
vt 0.217768 0.450501
vt 0.188947 0.375715
vt 0.190178 0.394500
vt 0.190315 0.413200
vt 0.189343 0.431817
vt 0.187552 0.450279
vt 0.163833 0.377766
vt 0.164811 0.395498
vt 0.164532 0.413229
vt 0.163178 0.430946
vt 0.160922 0.448568
vt 0.142553 0.379957
vt 0.143302 0.396209
vt 0.142489 0.412640
vt 0.140426 0.429176
vt 0.137349 0.445714
vt 0.124599 0.382143
vt 0.124926 0.396521
vt 0.123388 0.411393
vt 0.120515 0.426609
vt 0.116644 0.441966
vt 0.110295 0.384103
vt 0.109680 0.395983
vt 0.106990 0.409114
vt 0.103094 0.423044
vt 0.098379 0.437310
vt 0.100935 0.385466
vt 0.097517 0.393623
vt 0.092890 0.405159
vt 0.087664 0.418108
vt 0.082018 0.431573
vt 0.953863 0.068033
vt 0.564330 0.324818
vt 0.586958 0.360140
vt 0.594304 0.372280
vt 0.602500 0.383472
vt 0.612714 0.392551
vt 0.625369 0.396586
vt 0.640327 0.399823
vt 0.658436 0.402568
vt 0.679483 0.404916
vt 0.704735 0.406305
vt 0.732889 0.406455
vt 0.762733 0.405572
vt 0.549580 0.335117
vt 0.968132 0.078598
vt 0.575346 0.370265
vt 0.584838 0.381772
vt 0.595240 0.392231
vt 0.607254 0.401390
vt 0.620874 0.408574
vt 0.637028 0.414281
vt 0.655948 0.418925
vt 0.677810 0.422690
vt 0.703851 0.425390
vt 0.732622 0.426411
vt 0.763154 0.425766
vt 0.982155 0.090275
vt 0.535068 0.346518
vt 0.563353 0.381082
vt 0.574122 0.393081
vt 0.585837 0.404162
vt 0.599159 0.414243
vt 0.614359 0.422892
vt 0.631755 0.430170
vt 0.651687 0.436284
vt 0.674945 0.441276
vt 0.702145 0.445088
vt 0.732029 0.446883
vt 0.763688 0.446387
vt 0.551390 0.392161
vt 0.563440 0.404672
vt 0.576393 0.416356
vt 0.590768 0.427200
vt 0.606959 0.437095
vt 0.625248 0.445889
vt 0.646203 0.453541
vt 0.670974 0.460110
vt 0.699642 0.465075
vt 0.731088 0.467683
vt 0.764383 0.467508
vt 0.027770 0.022529
vt 0.538763 0.403909
vt 0.021150 0.375093
vt 0.032945 0.360928
vt 0.551937 0.417102
vt 0.565999 0.429512
vt 0.045661 0.347479
vt 0.059731 0.334572
vt 0.581404 0.441205
vt 0.075510 0.322149
vt 0.598469 0.452210
vt 0.617519 0.462411
vt 0.093341 0.310322
vt 0.114222 0.299065
vt 0.639586 0.471726
vt 0.139294 0.288552
vt 0.665825 0.479806
vt 0.696284 0.485919
vt 0.168591 0.279453
vt 0.729770 0.489521
vt 0.200927 0.272459
vt 0.235325 0.267933
vt 0.765226 0.489793
vt 0.034901 0.385199
vt 0.045618 0.371602
vt 0.057304 0.358789
vt 0.070446 0.346796
vt 0.085465 0.335669
vt 0.102674 0.325420
vt 0.122591 0.316089
vt 0.146133 0.307532
vt 0.174079 0.299832
vt 0.204850 0.293943
vt 0.237313 0.290162
vt 0.047851 0.394354
vt 0.057311 0.381355
vt 0.067796 0.369164
vt 0.079906 0.358137
vt 0.094086 0.348413
vt 0.110607 0.339786
vt 0.129889 0.332059
vt 0.152375 0.325157
vt 0.178727 0.319135
vt 0.208440 0.314312
vt 0.239277 0.311271
vt 0.060595 0.403260
vt 0.068732 0.390629
vt 0.077789 0.378962
vt 0.088417 0.368958
vt 0.101401 0.360845
vt 0.117091 0.353995
vt 0.135746 0.347985
vt 0.157622 0.342686
vt 0.182997 0.338119
vt 0.211618 0.334358
vt 0.241010 0.331930
vt 0.073622 0.411494
vt 0.080360 0.398896
vt 0.087518 0.387545
vt 0.095727 0.378626
vt 0.107066 0.372783
vt 0.121882 0.368083
vt 0.140021 0.363914
vt 0.161448 0.360179
vt 0.186512 0.356914
vt 0.214221 0.354152
vt 0.242654 0.352079
vt 0.033101 0.027773
vt 0.028078 0.029307
vt 0.023008 0.028052
vt 0.021605 0.022767
vt 0.028451 0.038573
vt 0.519508 0.382012
vt 0.004102 0.398482
vt 0.759852 0.305441
vt 0.727662 0.307619
vt 0.697311 0.311194
vt 0.670040 0.315670
vt 0.646749 0.320459
vt 0.626643 0.325961
vt 0.609112 0.332172
vt 0.593150 0.339386
vt 0.579533 0.348538
vt 0.566683 0.358711
vt 0.553161 0.368674
vt 0.539782 0.378952
vt 0.526542 0.390319
vt 0.010329 0.389635
vt 0.024602 0.399466
vt 0.038901 0.407527
vt 0.052979 0.416069
vt 0.067028 0.424466
vt 0.759144 0.285948
vt 0.725701 0.288411
vt 0.694179 0.292726
vt 0.665944 0.298348
vt 0.641796 0.304659
vt 0.620974 0.311675
vt 0.602769 0.319280
vt 0.586561 0.327501
vt 0.249826 0.468754
vt 0.216825 0.469655
vt 0.185643 0.468722
vt 0.157844 0.466145
vt 0.133359 0.462215
vt 0.111921 0.457321
vt 0.092992 0.451638
vt 0.076054 0.445134
vt 0.572044 0.336768
vt 0.558126 0.346931
vt 0.543560 0.357926
vt 0.042205 0.034695
vt 0.527894 0.369636
vt 0.014487 0.035723
vt 0.013618 0.409872
vt 0.030245 0.419560
vt 0.045590 0.428827
vt 0.060403 0.437541
vt 0.315806 0.217093
vt 0.183392 0.487414
vt 0.106445 0.472531
vt 0.391462 0.193029
vt 0.009837 0.023184
vt 0.481449 0.131689
vt 0.009674 0.423230
vt 0.761720 0.006687
vt 0.758554 0.267204
vt 0.723565 0.269622
vt 0.796750 0.009929
vt 0.829639 0.015493
vt 0.690577 0.274396
vt 0.636365 0.288844
vt 0.883291 0.030951
vt 0.614847 0.297345
vt 0.904460 0.039765
vt 0.596004 0.306306
vt 0.922938 0.048994
vt 0.053704 0.450598
vt 0.441522 0.164751
vt 0.756397 0.124672
vt 0.757093 0.104490
vt 0.757901 0.084460
vt 0.758781 0.064273
vt 0.759727 0.044927
vt 0.760744 0.025424
vt 0.785201 0.126098
vt 0.786280 0.106298
vt 0.787976 0.086638
vt 0.789902 0.066874
vt 0.791912 0.047836
vt 0.794207 0.028668
vt 0.812256 0.126795
vt 0.813630 0.107879
vt 0.815919 0.089053
vt 0.818620 0.070269
vt 0.821730 0.051952
vt 0.825402 0.033672
vt 0.836830 0.126923
vt 0.838137 0.109121
vt 0.840563 0.091420
vt 0.843984 0.073928
vt 0.848174 0.056782
vt 0.853022 0.039740
vt 0.857789 0.126450
vt 0.859134 0.110145
vt 0.862034 0.093909
vt 0.866144 0.077868
vt 0.871155 0.062100
vt 0.876964 0.046495
vt 0.875512 0.125795
vt 0.877104 0.111360
vt 0.880610 0.096808
vt 0.885439 0.082329
vt 0.891159 0.068021
vt 0.897580 0.053849
vt 0.889798 0.125144
vt 0.892091 0.113232
vt 0.896583 0.100580
vt 0.902269 0.087638
vt 0.908670 0.074674
vt 0.915617 0.061778
vt 0.899291 0.124685
vt 0.903957 0.116827
vt 0.910189 0.106065
vt 0.917008 0.094341
vt 0.924141 0.082340
vt 0.931489 0.070304
vt 0.243463 0.127128
vt 0.242884 0.107176
vt 0.244236 0.146900
vt 0.245139 0.166580
vt 0.246072 0.185935
vt 0.247048 0.205426
vt 0.250909 0.488588
vt 0.248094 0.225532
vt 0.272684 0.125944
vt 0.271696 0.106143
vt 0.274196 0.145422
vt 0.276085 0.164826
vt 0.278224 0.183824
vt 0.280594 0.202968
vt 0.216043 0.489242
vt 0.283230 0.222492
vt 0.300838 0.124819
vt 0.299552 0.105631
vt 0.303039 0.143443
vt 0.305782 0.162111
vt 0.308753 0.180253
vt 0.312079 0.198593
vt 0.325375 0.123666
vt 0.324018 0.105701
vt 0.328033 0.141236
vt 0.331728 0.158613
vt 0.335905 0.175572
vt 0.340154 0.192720
vt 0.346558 0.122551
vt 0.345167 0.106070
vt 0.349558 0.138766
vt 0.353783 0.154734
vt 0.358801 0.170377
vt 0.364499 0.185929
vt 0.364592 0.121245
vt 0.363045 0.106594
vt 0.368087 0.135859
vt 0.372930 0.150322
vt 0.378603 0.164571
vt 0.384845 0.178738
vt 0.379525 0.119232
vt 0.377389 0.107082
vt 0.383914 0.132044
vt 0.389577 0.145054
vt 0.395938 0.158008
vt 0.402758 0.170945
vt 0.391429 0.115342
vt 0.386949 0.107331
vt 0.397479 0.126360
vt 0.404201 0.138285
vt 0.411263 0.150325
vt 0.418624 0.162447
vt 0.945777 0.079770
vt 0.921529 0.114112
vt 0.929770 0.102933
vt 0.912899 0.124233
vt 0.903465 0.132142
vt 0.959394 0.090141
vt 0.931705 0.123891
vt 0.941397 0.112855
vt 0.921178 0.133997
vt 0.909364 0.142566
vt 0.973285 0.101340
vt 0.941855 0.134874
vt 0.952868 0.123649
vt 0.929886 0.145339
vt 0.916552 0.154706
vt 0.988284 0.113148
vt 0.041432 0.009479
vt 0.994318 0.100957
vt 0.045506 0.021878
vt 0.522530 0.356870
vt 0.952264 0.146644
vt 0.964448 0.135016
vt 0.939136 0.157644
vt 0.924676 0.167823
vt 0.034124 0.022309
vt 0.963034 0.159022
vt 0.450282 0.073827
vt 0.463356 0.085793
vt 0.976177 0.146890
vt 0.436242 0.062376
vt 0.948859 0.170573
vt 0.420939 0.051464
vt 0.933428 0.181522
vt 0.439587 0.085990
vt 0.451727 0.097692
vt 0.426547 0.074965
vt 0.412147 0.064775
vt 0.429379 0.097424
vt 0.440259 0.108813
vt 0.417566 0.086804
vt 0.404288 0.077366
vt 0.419412 0.108223
vt 0.428884 0.119484
vt 0.409089 0.097842
vt 0.397320 0.089136
vt 0.409117 0.118170
vt 0.417188 0.129610
vt 0.400681 0.107725
vt 0.391339 0.099650
vt 0.891493 0.136781
vt 0.876397 0.140036
vt 0.858257 0.142590
vt 0.836725 0.144495
vt 0.811988 0.145588
vt 0.784719 0.145729
vt 0.755747 0.144651
vt 0.895607 0.149245
vt 0.879400 0.154542
vt 0.860467 0.158825
vt 0.838181 0.162195
vt 0.812788 0.164457
vt 0.784863 0.165393
vt 0.755255 0.164702
vt 0.901443 0.162796
vt 0.884141 0.169705
vt 0.864260 0.175525
vt 0.841064 0.180273
vt 0.814576 0.183678
vt 0.785514 0.185406
vt 0.754785 0.185134
vt 0.908501 0.177098
vt 0.890273 0.185401
vt 0.869452 0.192683
vt 0.845213 0.198825
vt 0.817291 0.203417
vt 0.786653 0.205945
vt 0.754312 0.206124
vt 0.916386 0.191885
vt 0.403967 0.041093
vt 0.384916 0.031313
vt 0.897305 0.201577
vt 0.363294 0.022256
vt 0.875689 0.210424
vt 0.850476 0.218056
vt 0.337993 0.014181
vt 0.820890 0.223844
vt 0.308200 0.007901
vt 0.275372 0.004154
vt 0.788268 0.227219
vt 0.241124 0.003643
vt 0.753925 0.227862
vt 0.395976 0.055514
vt 0.377715 0.047173
vt 0.356923 0.039781
vt 0.333147 0.033572
vt 0.305179 0.028591
vt 0.274147 0.025640
vt 0.241613 0.025451
vt 0.389088 0.069327
vt 0.371731 0.062489
vt 0.351839 0.056671
vt 0.328996 0.051886
vt 0.302495 0.048279
vt 0.272941 0.046323
vt 0.241863 0.046340
vt 0.383388 0.082551
vt 0.367045 0.077417
vt 0.348000 0.073258
vt 0.325939 0.069968
vt 0.300531 0.067656
vt 0.271797 0.066572
vt 0.242015 0.066911
vt 0.379222 0.095135
vt 0.363992 0.092058
vt 0.345680 0.089665
vt 0.324213 0.087842
vt 0.299458 0.086684
vt 0.271414 0.086407
vt 0.242415 0.087160
vt 0.976086 0.123393
vt 0.475181 0.097740
vt 0.987995 0.134810
vt 0.996722 0.125469
vt 0.483962 0.106987
vt 0.027316 0.007378
vt 0.463475 0.109662
vt 0.013513 0.010526
vt 0.475685 0.119220
vt 0.033065 0.016741
vt 0.027589 0.015877
vt 0.022398 0.017302
vt 0.937820 0.091388
vt 0.950541 0.101506
vt 0.963312 0.112234
vt 0.450653 0.120347
vt 0.437885 0.130867
vt 0.425130 0.141179
vt 0.661523 0.280989
vt 0.858453 0.022693
vt 0.154058 0.483685
vt 0.344855 0.209971
vt 0.128521 0.478619
vt 0.369955 0.201772
vt 0.410076 0.183972
vt 0.087096 0.465783
vt 0.426375 0.174689
vt 0.069909 0.458570
vt 0.460695 0.131005
vt 0.446696 0.142272
vt 0.433180 0.152878
vt 0.470245 0.141771
vt 0.022182 0.431653
vt 0.038228 0.441900
vt 0.455754 0.154108
vt 0.254956 0.279526
vt 0.255654 0.289411
vt 0.743735 0.044330
vt 0.744291 0.034502
vt 0.257432 0.341790
vt 0.257986 0.351186
vt 0.741529 0.103721
vt 0.742009 0.094058
vt 0.260191 0.390653
vt 0.260729 0.400066
vt 0.258486 0.361653
vt 0.259037 0.371026
vt 0.740583 0.123888
vt 0.741026 0.114428
vt 0.781606 0.436101
vt 0.781957 0.444892
vt 0.225793 0.067943
vt 0.225508 0.058897
vt 0.777211 0.354952
vt 0.777631 0.364196
vt 0.780274 0.415782
vt 0.780605 0.424436
vt 0.266780 0.476788
vt 0.267338 0.487159
vt 0.231191 0.205617
vt 0.230699 0.195381
vt 0.775254 0.276394
vt 0.775582 0.285821
vt 0.785119 0.478233
vt 0.785410 0.487936
vt 0.737027 0.184029
vt 0.737343 0.175112
vt 0.779122 0.395598
vt 0.779476 0.404387
vt 0.227835 0.107980
vt 0.227453 0.098754
vt 0.734254 0.226627
vt 0.734406 0.217137
vt 0.739480 0.143774
vt 0.739923 0.134659
vt 0.735627 0.204902
vt 0.735888 0.195803
vt 0.255670 0.300951
vt 0.256267 0.310494
vt 0.738309 0.163721
vt 0.738673 0.154811
vt 0.229209 0.137442
vt 0.228764 0.127788
vt 0.743101 0.063634
vt 0.743644 0.053953
vt 0.223339 0.026565
vt 0.223030 0.016943
vt 0.226856 0.088074
vt 0.226499 0.079008
vt 0.775453 0.295496
vt 0.775847 0.305146
vt 0.776456 0.334725
vt 0.776892 0.344312
vt 0.228258 0.117401
vt 0.227835 0.107980
vt 0.263636 0.438569
vt 0.264176 0.448250
vt 0.742355 0.083780
vt 0.742896 0.073806
vt 0.265138 0.457497
vt 0.265681 0.467446
vt 0.261438 0.410038
vt 0.261970 0.419430
vt 0.778099 0.375226
vt 0.778502 0.384408
vt 0.230796 0.186226
vt 0.230311 0.176151
vt 0.259037 0.371026
vt 0.259584 0.380495
vt 0.783217 0.456808
vt 0.783547 0.465855
vt 0.744254 0.024887
vt 0.744779 0.015403
vt 0.224683 0.047471
vt 0.224350 0.038341
vt 0.230073 0.157379
vt 0.229601 0.147425
vt 0.256493 0.321572
vt 0.257038 0.331069
vt 0.775878 0.315015
vt 0.776294 0.324398
vt 0.231386 0.225679
vt 0.230889 0.215131
vt 0.255198 0.267122
vt 0.254956 0.279526
vt 0.744291 0.034502
vt 0.744254 0.024887
vt 0.257038 0.331069
vt 0.257432 0.341790
vt 0.742009 0.094058
vt 0.742355 0.083780
vt 0.260729 0.400066
vt 0.261438 0.410038
vt 0.257986 0.351186
vt 0.258486 0.361653
vt 0.741026 0.114428
vt 0.741529 0.103721
vt 0.780605 0.424436
vt 0.781606 0.436101
vt 0.225508 0.058897
vt 0.224683 0.047471
vt 0.776892 0.344312
vt 0.777211 0.354952
vt 0.779476 0.404387
vt 0.780274 0.415782
vt 0.265681 0.467446
vt 0.266780 0.476788
vt 0.230699 0.195381
vt 0.230796 0.186226
vt 0.775611 0.267270
vt 0.775254 0.276394
vt 0.783547 0.465855
vt 0.785119 0.478233
vt 0.737343 0.175112
vt 0.738309 0.163721
vt 0.778502 0.384408
vt 0.779122 0.395598
vt 0.227453 0.098754
vt 0.226856 0.088074
vt 0.734406 0.217137
vt 0.735627 0.204902
vt 0.739923 0.134659
vt 0.740583 0.123888
vt 0.735888 0.195803
vt 0.737027 0.184029
vt 0.255654 0.289411
vt 0.255670 0.300951
vt 0.738673 0.154811
vt 0.739480 0.143774
vt 0.229601 0.147425
vt 0.229209 0.137442
vt 0.743644 0.053953
vt 0.743735 0.044330
vt 0.223030 0.016943
vt 0.221659 0.004718
vt 0.226499 0.079008
vt 0.225793 0.067943
vt 0.775582 0.285821
vt 0.775453 0.295496
vt 0.776294 0.324398
vt 0.776456 0.334725
vt 0.228764 0.127788
vt 0.228258 0.117401
vt 0.262769 0.429204
vt 0.263636 0.438569
vt 0.742896 0.073806
vt 0.743101 0.063634
vt 0.264176 0.448250
vt 0.265138 0.457497
vt 0.261970 0.419430
vt 0.262769 0.429204
vt 0.777631 0.364196
vt 0.778099 0.375226
vt 0.230311 0.176151
vt 0.230263 0.166980
vt 0.259584 0.380495
vt 0.260191 0.390653
vt 0.781957 0.444892
vt 0.783217 0.456808
vt 0.744779 0.015403
vt 0.744574 0.006368
vt 0.224350 0.038341
vt 0.223339 0.026565
vt 0.230263 0.166980
vt 0.230073 0.157379
vt 0.256267 0.310494
vt 0.256493 0.321572
vt 0.775847 0.305146
vt 0.775878 0.315015
vt 0.230889 0.215131
vt 0.231191 0.205617
vt 0.627327 0.007529
vt 0.085749 0.754315
vt 0.230494 0.903119
vt 0.901592 0.785378
vt 0.965411 0.300728
vt 0.562916 0.000265
vt 0.030557 0.652202
vt 0.287650 0.937616
vt 0.996969 0.456996
vt 0.724229 0.034511
vt 0.104689 0.783286
vt 0.877869 0.816504
vt 0.063981 0.721248
vt 0.756271 0.047298
vt 0.110279 0.166798
vt 0.780696 0.915979
vt 0.346458 0.017759
vt 0.191770 0.087175
vt 0.407047 0.983212
vt 0.438850 0.991664
vt 0.151618 0.837849
vt 0.473181 0.000700
vt 0.502818 0.000047
vt 0.951048 0.259516
vt 0.692838 0.967767
vt 0.129501 0.812041
vt 0.568133 0.998326
vt 0.378759 0.009274
vt 0.992887 0.410701
vt 0.089308 0.191658
vt 0.997282 0.539237
vt 0.869911 0.135313
vt 0.816065 0.085226
vt 0.067575 0.228567
vt 0.251443 0.050096
vt 0.315569 0.025144
vt 0.022458 0.329738
vt 0.346912 0.964087
vt 0.659192 0.014787
vt 0.317396 0.952990
vt 0.410678 0.005502
vt 0.833763 0.868199
vt 0.787664 0.066045
vt 0.844896 0.111834
vt 0.601439 0.992538
vt 0.972884 0.651800
vt 0.915296 0.193382
vt 0.259188 0.922844
vt 0.034314 0.298048
vt 0.537166 0.999025
vt 0.377310 0.975571
vt 0.857297 0.843462
vt 0.934967 0.230184
vt 0.005954 0.408482
vt 0.003661 0.539079
vt 0.981362 0.617983
vt 0.282541 0.038415
vt 0.954601 0.690566
vt 0.136583 0.135083
vt 0.007120 0.576430
vt 0.050879 0.256771
vt 0.985796 0.376847
vt 0.219561 0.069740
vt 0.000000 0.492331
vt 0.919033 0.756571
vt 0.631196 0.987318
vt 0.940349 0.721500
vt 0.012034 0.374227
vt 0.161746 0.113203
vt 0.176598 0.860359
vt 0.722429 0.953187
vt 0.502822 1.000000
vt 0.203550 0.884492
vt 0.807984 0.895496
vt 1.000000 0.492699
vt 0.995578 0.575750
vt 0.469285 0.995471
vt 0.894526 0.166927
vt 0.594834 0.003694
vt 0.976898 0.332556
vt 0.048670 0.689447
vt 0.663482 0.977113
vt 0.532126 0.000000
vt 0.001940 0.455595
vt 0.753237 0.938305
vt 0.019896 0.617965
vt 0.691009 0.022380
vt 0.442588 0.000965
usemtl kiwi_skin
f 272/272 273/273 279/279
f 272/272 279/279 278/278
f 9/9 13/13 14/14
f 9/9 14/14 10/10
f 173/173 174/174 185/185
f 173/173 185/185 184/184
f 299/299 305/305 304/304
f 299/299 304/304 298/298
f 287/287 293/293 292/292
f 287/287 292/292 286/286
f 407/407 411/411 412/412
f 407/407 412/412 408/408
f 290/290 291/291 297/297
f 290/290 297/297 296/296
f 13/13 17/17 18/18
f 13/13 18/18 14/14
f 361/361 362/362 356/356
f 361/361 356/356 355/355
f 354/354 360/360 361/361
f 354/354 361/361 355/355
f 165/165 166/166 177/177
f 165/165 177/177 176/176
f 241/241 240/240 214/214
f 241/241 214/214 215/215
f 463/463 470/470 471/471
f 463/463 471/471 464/464
f 241/241 516/516 515/515
f 241/241 515/515 240/240
f 460/460 467/467 468/468
f 460/460 468/468 461/461
f 429/429 436/436 437/437
f 429/429 437/437 430/430
f 321/321 329/329 328/328
f 321/321 328/328 320/320
f 116/116 117/117 133/133
f 116/116 133/133 130/130
f 275/275 274/274 268/268
f 275/275 268/268 269/269
f 390/390 397/397 399/399
f 390/390 399/399 393/393
f 339/339 504/504 243/243
f 339/339 243/243 333/333
f 274/274 273/273 267/267
f 274/274 267/267 268/268
f 329/329 335/335 334/334
f 329/329 334/334 328/328
f 138/138 140/140 155/155
f 138/138 155/155 154/154
f 375/375 384/384 386/386
f 375/375 386/386 377/377
f 349/349 350/350 344/344
f 349/349 344/344 343/343
f 68/68 63/63 64/64
f 68/68 64/64 69/69
f 307/307 367/367 368/368
f 307/307 368/368 306/306
f 288/288 289/289 295/295
f 288/288 295/295 294/294
f 131/131 132/132 151/151
f 131/131 151/151 150/150
f 275/275 253/253 254/254
f 275/275 254/254 281/281
f 115/115 116/116 130/130
f 115/115 130/130 129/129
f 335/335 341/341 340/340
f 335/335 340/340 334/334
f 107/107 108/108 119/119
f 107/107 119/119 118/118
f 118/118 119/119 136/136
f 118/118 136/136 135/135
f 332/332 333/333 325/325
f 332/332 325/325 324/324
f 288/288 415/415 416/416
f 288/288 416/416 282/282
f 276/276 417/417 418/418
f 276/276 418/418 270/270
f 35/35 36/36 41/41
f 35/35 41/41 40/40
f 393/393 399/399 400/400
f 393/393 400/400 395/395
f 327/327 325/325 333/333
f 327/327 333/333 243/243
f 112/112 113/113 124/124
f 112/112 124/124 123/123
f 76/76 34/34 224/224
f 76/76 224/224 233/233
f 269/269 250/250 253/253
f 269/269 253/253 275/275
f 159/159 160/160 171/171
f 159/159 171/171 170/170
f 86/86 87/87 100/100
f 86/86 100/100 99/99
f 9/9 5/5 86/86
f 9/9 86/86 85/85
f 37/37 38/38 43/43
f 37/37 43/43 42/42
f 502/502 257/257 293/293
f 502/502 293/293 287/287
f 402/402 398/398 489/489
f 402/402 489/489 498/498
f 166/166 167/167 178/178
f 166/166 178/178 177/177
f 467/467 474/474 475/475
f 467/467 475/475 468/468
f 74/74 69/69 231/231
f 74/74 231/231 232/232
f 404/404 408/408 469/469
f 404/404 469/469 462/462
f 208/208 207/207 77/77
f 208/208 77/77 90/90
f 47/47 48/48 53/53
f 47/47 53/53 52/52
f 96/96 97/97 110/110
f 96/96 110/110 109/109
f 341/341 347/347 346/346
f 341/341 346/346 340/340
f 337/337 338/338 332/332
f 337/337 332/332 331/331
f 152/152 153/153 164/164
f 152/152 164/164 163/163
f 11/11 15/15 16/16
f 11/11 16/16 12/12
f 348/348 354/354 355/355
f 348/348 355/355 349/349
f 201/201 12/12 16/16
f 201/201 16/16 202/202
f 410/410 406/406 499/499
f 410/410 499/499 500/500
f 470/470 477/477 478/478
f 470/470 478/478 471/471
f 151/151 152/152 163/163
f 151/151 163/163 162/162
f 88/88 76/76 233/233
f 88/88 233/233 234/234
f 336/336 342/342 343/343
f 336/336 343/343 337/337
f 282/282 283/283 289/289
f 282/282 289/289 288/288
f 85/85 86/86 99/99
f 85/85 99/99 98/98
f 370/370 375/375 377/377
f 370/370 377/377 372/372
f 104/104 105/105 116/116
f 104/104 116/116 115/115
f 400/400 404/404 462/462
f 400/400 462/462 455/455
f 95/95 96/96 109/109
f 95/95 109/109 108/108
f 232/232 242/242 216/216
f 232/232 216/216 74/74
f 385/385 392/392 389/389
f 385/385 389/389 384/384
f 488/488 493/493 494/494
f 488/488 494/494 490/490
f 181/181 216/216 215/215
f 181/181 215/215 170/170
f 179/179 180/180 191/191
f 179/179 191/191 190/190
f 219/219 201/201 202/202
f 219/219 202/202 220/220
f 378/378 387/387 434/434
f 378/378 434/434 427/427
f 207/207 233/233 224/224
f 207/207 224/224 206/206
f 309/309 366/366 365/365
f 309/309 365/365 308/308
f 374/374 497/497 496/496
f 374/374 496/496 369/369
f 277/277 278/278 284/284
f 277/277 284/284 283/283
f 114/114 115/115 129/129
f 114/114 129/129 126/126
f 7/7 11/11 12/12
f 7/7 12/12 8/8
f 132/132 134/134 152/152
f 132/132 152/152 151/151
f 410/410 361/361 360/360
f 410/410 360/360 409/409
f 55/55 56/56 61/61
f 55/55 61/61 60/60
f 351/351 246/246 506/506
f 351/351 506/506 345/345
f 284/284 285/285 291/291
f 284/284 291/291 290/290
f 185/185 186/186 60/60
f 185/185 60/60 65/65
f 108/108 109/109 120/120
f 108/108 120/120 119/119
f 428/428 435/435 436/436
f 428/428 436/436 429/429
f 432/432 439/439 440/440
f 432/432 440/440 433/433
f 181/181 182/182 72/72
f 181/181 72/72 73/73
f 265/265 266/266 272/272
f 265/265 272/272 271/271
f 202/202 16/16 20/20
f 202/202 20/20 203/203
f 223/223 205/205 206/206
f 223/223 206/206 224/224
f 308/308 365/365 367/367
f 308/308 367/367 307/307
f 281/281 287/287 286/286
f 281/281 286/286 280/280
f 42/42 43/43 48/48
f 42/42 48/48 47/47
f 77/77 207/207 206/206
f 77/77 206/206 32/32
f 41/41 42/42 47/47
f 41/41 47/47 46/46
f 160/160 161/161 172/172
f 160/160 172/172 171/171
f 150/150 151/151 162/162
f 150/150 162/162 161/161
f 264/264 265/265 271/271
f 264/264 271/271 270/270
f 232/232 231/231 508/508
f 232/232 508/508 510/510
f 64/64 59/59 229/229
f 64/64 229/229 230/230
f 345/345 506/506 504/504
f 345/345 504/504 339/339
f 324/324 325/325 317/317
f 324/324 317/317 316/316
f 300/300 413/413 414/414
f 300/300 414/414 294/294
f 157/157 158/158 169/169
f 157/157 169/169 168/168
f 170/170 215/215 214/214
f 170/170 214/214 159/159
f 456/456 463/463 464/464
f 456/456 464/464 457/457
f 260/260 223/223 224/224
f 260/260 224/224 34/34
f 399/399 403/403 404/404
f 399/399 404/404 400/400
f 143/143 145/145 157/157
f 143/143 157/157 156/156
f 313/313 321/321 320/320
f 313/313 320/320 312/312
f 188/188 189/189 45/45
f 188/188 45/45 50/50
f 134/134 137/137 153/153
f 134/134 153/153 152/152
f 415/415 422/422 423/423
f 415/415 423/423 416/416
f 443/443 456/456 457/457
f 443/443 457/457 445/445
f 472/472 479/479 480/480
f 472/472 480/480 473/473
f 483/483 385/385 376/376
f 483/483 376/376 497/497
f 280/280 286/286 285/285
f 280/280 285/285 279/279
f 420/420 427/427 428/428
f 420/420 428/428 421/421
f 6/6 10/10 11/11
f 6/6 11/11 7/7
f 455/455 462/462 463/463
f 455/455 463/463 456/456
f 178/178 179/179 190/190
f 178/178 190/190 189/189
f 438/438 449/449 452/452
f 438/438 452/452 439/439
f 74/74 216/216 181/181
f 74/74 181/181 73/73
f 496/496 371/371 366/366
f 496/496 366/366 495/495
f 56/56 57/57 62/62
f 56/56 62/62 61/61
f 162/162 163/163 174/174
f 162/162 174/174 173/173
f 187/187 188/188 50/50
f 187/187 50/50 55/55
f 81/81 82/82 95/95
f 81/81 95/95 94/94
f 220/220 202/202 203/203
f 220/220 203/203 221/221
f 226/226 225/225 318/318
f 226/226 318/318 326/326
f 398/398 402/402 401/401
f 398/398 401/401 397/397
f 480/480 329/329 321/321
f 480/480 321/321 481/481
f 230/230 229/229 505/505
f 230/230 505/505 245/245
f 73/73 68/68 69/69
f 73/73 69/69 74/74
f 408/408 412/412 476/476
f 408/408 476/476 469/469
f 411/411 358/358 359/359
f 411/411 359/359 412/412
f 466/466 473/473 474/474
f 466/466 474/474 467/467
f 258/258 222/222 223/223
f 258/258 223/223 260/260
f 218/218 200/200 201/201
f 218/218 201/201 219/219
f 376/376 385/385 384/384
f 376/376 384/384 375/375
f 457/457 464/464 465/465
f 457/457 465/465 458/458
f 195/195 125/125 193/193
f 195/195 193/193 194/194
f 514/514 511/511 491/491
f 514/514 491/491 248/248
f 295/295 296/296 302/302
f 295/295 302/302 301/301
f 289/289 290/290 296/296
f 289/289 296/296 295/295
f 293/293 299/299 298/298
f 293/293 298/298 292/292
f 30/30 29/29 80/80
f 30/30 80/80 79/79
f 79/79 80/80 93/93
f 79/79 93/93 92/92
f 365/365 370/370 372/372
f 365/365 372/372 367/367
f 413/413 420/420 421/421
f 413/413 421/421 414/414
f 46/46 47/47 52/52
f 46/46 52/52 51/51
f 366/366 309/309 310/310
f 366/366 310/310 495/495
f 77/77 78/78 91/91
f 77/77 91/91 90/90
f 270/270 271/271 277/277
f 270/270 277/277 276/276
f 474/474 481/481 482/482
f 474/474 482/482 475/475
f 422/422 429/429 430/430
f 422/422 430/430 423/423
f 257/257 259/259 299/299
f 257/257 299/299 293/293
f 2/2 6/6 7/7
f 2/2 7/7 3/3
f 102/102 88/88 234/234
f 102/102 234/234 235/235
f 89/89 369/369 364/364
f 89/89 364/364 75/75
f 275/275 281/281 280/280
f 275/275 280/280 274/274
f 84/84 85/85 98/98
f 84/84 98/98 97/97
f 5/5 1/1 87/87
f 5/5 87/87 86/86
f 140/140 143/143 156/156
f 140/140 156/156 155/155
f 227/227 226/226 326/326
f 227/227 326/326 244/244
f 242/242 262/262 516/516
f 242/242 516/516 241/241
f 156/156 157/157 168/168
f 156/156 168/168 167/167
f 93/93 94/94 107/107
f 93/93 107/107 106/106
f 513/513 512/512 517/517
f 513/513 517/517 263/263
f 82/82 83/83 96/96
f 82/82 96/96 95/95
f 221/221 203/203 204/204
f 221/221 204/204 222/222
f 294/294 414/414 415/415
f 294/294 415/415 288/288
f 465/465 472/472 473/473
f 465/465 473/473 466/466
f 343/343 344/344 338/338
f 343/343 338/338 337/337
f 10/10 14/14 15/15
f 10/10 15/15 11/11
f 402/402 406/406 405/405
f 402/402 405/405 401/401
f 501/501 220/220 221/221
f 501/501 221/221 256/256
f 120/120 121/121 141/141
f 120/120 141/141 139/139
f 174/174 175/175 186/186
f 174/174 186/186 185/185
f 328/328 334/334 336/336
f 328/328 336/336 330/330
f 397/397 401/401 403/403
f 397/397 403/403 399/399
f 342/342 348/348 349/349
f 342/342 349/349 343/343
f 14/14 18/18 19/19
f 14/14 19/19 15/15
f 203/203 20/20 24/24
f 203/203 24/24 204/204
f 31/31 30/30 79/79
f 31/31 79/79 78/78
f 80/80 81/81 94/94
f 80/80 94/94 93/93
f 154/154 155/155 166/166
f 154/154 166/166 165/165
f 498/498 489/489 491/491
f 498/498 491/491 511/511
f 50/50 51/51 56/56
f 50/50 56/56 55/55
f 512/512 511/511 514/514
f 512/512 514/514 517/517
f 266/266 267/267 273/273
f 266/266 273/273 272/272
f 368/368 373/373 420/420
f 368/368 420/420 413/413
f 229/229 228/228 503/503
f 229/229 503/503 505/505
f 494/494 195/195 247/247
f 494/494 247/247 490/490
f 92/92 93/93 106/106
f 92/92 106/106 105/105
f 377/377 386/386 387/387
f 377/377 387/387 378/378
f 283/283 284/284 290/290
f 283/283 290/290 289/289
f 210/210 209/209 103/103
f 210/210 103/103 114/114
f 90/90 91/91 104/104
f 90/90 104/104 103/103
f 200/200 199/199 4/4
f 200/200 4/4 8/8
f 450/450 459/459 460/460
f 450/450 460/460 451/451
f 13/13 9/9 85/85
f 13/13 85/85 84/84
f 427/427 434/434 435/435
f 427/427 435/435 428/428
f 425/425 432/432 433/433
f 425/425 433/433 426/426
f 473/473 480/480 481/481
f 473/473 481/481 474/474
f 325/325 327/327 319/319
f 325/325 319/319 317/317
f 255/255 219/219 220/220
f 255/255 220/220 501/501
f 98/98 99/99 112/112
f 98/98 112/112 111/111
f 510/510 262/262 242/242
f 510/510 242/242 232/232
f 110/110 111/111 122/122
f 110/110 122/122 121/121
f 242/242 241/241 215/215
f 242/242 215/215 216/216
f 168/168 169/169 180/180
f 168/168 180/180 179/179
f 54/54 49/49 227/227
f 54/54 227/227 228/228
f 357/357 507/507 246/246
f 357/357 246/246 351/351
f 305/305 311/311 310/310
f 305/305 310/310 304/304
f 356/356 357/357 351/351
f 356/356 351/351 350/350
f 182/182 183/183 71/71
f 182/182 71/71 72/72
f 350/350 351/351 345/345
f 350/350 345/345 344/344
f 18/18 22/22 23/23
f 18/18 23/23 19/19
f 355/355 356/356 350/350
f 355/355 350/350 349/349
f 409/409 360/360 358/358
f 409/409 358/358 411/411
f 109/109 110/110 121/121
f 109/109 121/121 120/120
f 304/304 310/310 309/309
f 304/304 309/309 303/303
f 170/170 171/171 182/182
f 170/170 182/182 181/181
f 330/330 336/336 337/337
f 330/330 337/337 331/331
f 320/320 328/328 330/330
f 320/320 330/330 322/322
f 424/424 431/431 432/432
f 424/424 432/432 425/425
f 167/167 168/168 179/179
f 167/167 179/179 178/178
f 59/59 54/54 228/228
f 59/59 228/228 229/229
f 60/60 61/61 66/66
f 60/60 66/66 65/65
f 352/352 358/358 360/360
f 352/352 360/360 354/354
f 159/159 214/214 213/213
f 159/159 213/213 148/148
f 155/155 156/156 167/167
f 155/155 167/167 166/166
f 209/209 208/208 90/90
f 209/209 90/90 103/103
f 401/401 405/405 407/407
f 401/401 407/407 403/403
f 103/103 104/104 115/115
f 103/103 115/115 114/114
f 149/149 150/150 161/161
f 149/149 161/161 160/160
f 391/391 398/398 397/397
f 391/391 397/397 390/390
f 338/338 339/339 333/333
f 338/338 333/333 332/332
f 417/417 424/424 425/425
f 417/417 425/425 418/418
f 122/122 123/123 144/144
f 122/122 144/144 142/142
f 94/94 95/95 108/108
f 94/94 108/108 107/107
f 1/1 5/5 6/6
f 1/1 6/6 2/2
f 63/63 58/58 59/59
f 63/63 59/59 64/64
f 61/61 62/62 67/67
f 61/61 67/67 66/66
f 25/25 21/21 82/82
f 25/25 82/82 81/81
f 379/379 486/486 485/485
f 379/379 485/485 483/483
f 294/294 295/295 301/301
f 294/294 301/301 300/300
f 21/21 25/25 26/26
f 21/21 26/26 22/22
f 222/222 204/204 205/205
f 222/222 205/205 223/223
f 383/383 102/102 235/235
f 383/383 235/235 237/237
f 379/379 483/483 497/497
f 379/379 497/497 374/374
f 22/22 26/26 27/27
f 22/22 27/27 23/23
f 231/231 230/230 245/245
f 231/231 245/245 508/508
f 331/331 332/332 324/324
f 331/331 324/324 323/323
f 214/214 240/240 239/239
f 214/214 239/239 213/213
f 270/270 418/418 419/419
f 270/270 419/419 264/264
f 211/211 210/210 114/114
f 211/211 114/114 126/126
f 323/323 324/324 316/316
f 323/323 316/316 315/315
f 282/282 416/416 417/417
f 282/282 417/417 276/276
f 161/161 162/162 173/173
f 161/161 173/173 172/172
f 462/462 469/469 470/470
f 462/462 470/470 463/463
f 366/366 371/371 370/370
f 366/366 370/370 365/365
f 286/286 292/292 291/291
f 286/286 291/291 285/285
f 204/204 24/24 28/28
f 204/204 28/28 205/205
f 451/451 460/460 461/461
f 451/451 461/461 453/453
f 189/189 190/190 40/40
f 189/189 40/40 45/45
f 367/367 372/372 373/373
f 367/367 373/373 368/368
f 459/459 466/466 467/467
f 459/459 467/467 460/460
f 99/99 100/100 113/113
f 99/99 113/113 112/112
f 256/256 221/221 222/222
f 256/256 222/222 258/258
f 190/190 191/191 35/35
f 190/190 35/35 40/40
f 128/128 131/131 150/150
f 128/128 150/150 149/149
f 439/439 452/452 454/454
f 439/439 454/454 440/440
f 36/36 37/37 42/42
f 36/36 42/42 41/41
f 384/384 389/389 394/394
f 384/384 394/394 386/386
f 218/218 217/217 199/199
f 218/218 199/199 200/200
f 148/148 213/213 212/212
f 148/148 212/212 127/127
f 448/448 458/458 459/459
f 448/448 459/459 450/450
f 176/176 177/177 188/188
f 176/176 188/188 187/187
f 476/476 353/353 347/347
f 476/476 347/347 477/477
f 26/26 30/30 31/31
f 26/26 31/31 27/27
f 153/153 154/154 165/165
f 153/153 165/165 164/164
f 371/371 376/376 375/375
f 371/371 375/375 370/370
f 200/200 8/8 12/12
f 200/200 12/12 201/201
f 117/117 118/118 135/135
f 117/117 135/135 133/133
f 421/421 428/428 429/429
f 421/421 429/429 422/422
f 458/458 465/465 466/466
f 458/458 466/466 459/459
f 372/372 377/377 378/378
f 372/372 378/378 373/373
f 497/497 376/376 371/371
f 497/497 371/371 496/496
f 51/51 52/52 57/57
f 51/51 57/57 56/56
f 414/414 421/421 422/422
f 414/414 422/422 415/415
f 57/57 58/58 63/63
f 57/57 63/63 62/62
f 373/373 378/378 427/427
f 373/373 427/427 420/420
f 254/254 502/502 287/287
f 254/254 287/287 281/281
f 437/437 447/447 449/449
f 437/437 449/449 438/438
f 17/17 13/13 84/84
f 17/17 84/84 83/83
f 322/322 330/330 331/331
f 322/322 331/331 323/323
f 477/477 347/347 341/341
f 477/477 341/341 478/478
f 69/69 64/64 230/230
f 69/69 230/230 231/231
f 58/58 53/53 54/54
f 58/58 54/54 59/59
f 148/148 149/149 160/160
f 148/148 160/160 159/159
f 430/430 437/437 438/438
f 430/430 438/438 431/431
f 261/261 33/33 311/311
f 261/261 311/311 305/305
f 44/44 39/39 225/225
f 44/44 225/225 226/226
f 464/464 471/471 472/472
f 464/464 472/472 465/465
f 406/406 402/402 498/498
f 406/406 498/498 499/499
f 105/105 106/106 117/117
f 105/105 117/117 116/116
f 431/431 438/438 439/439
f 431/431 439/439 432/432
f 314/314 322/322 323/323
f 314/314 323/323 315/315
f 271/271 272/272 278/278
f 271/271 278/278 277/277
f 478/478 341/341 335/335
f 478/478 335/335 479/479
f 40/40 41/41 46/46
f 40/40 46/46 45/45
f 386/386 394/394 396/396
f 386/386 396/396 387/387
f 234/234 233/233 207/207
f 234/234 207/207 208/208
f 398/398 391/391 484/484
f 398/398 484/484 489/489
f 177/177 178/178 189/189
f 177/177 189/189 188/188
f 435/435 444/444 446/446
f 435/435 446/446 436/436
f 97/97 98/98 111/111
f 97/97 111/111 110/110
f 363/363 509/509 507/507
f 363/363 507/507 357/357
f 513/513 500/500 499/499
f 513/513 499/499 512/512
f 218/218 219/219 255/255
f 218/218 255/255 252/252
f 123/123 124/124 147/147
f 123/123 147/147 144/144
f 312/312 320/320 322/322
f 312/312 322/322 314/314
f 17/17 21/21 22/22
f 17/17 22/22 18/18
f 111/111 112/112 123/123
f 111/111 123/123 122/122
f 445/445 457/457 458/458
f 445/445 458/458 448/448
f 403/403 407/407 408/408
f 403/403 408/408 404/404
f 495/495 310/310 311/311
f 495/495 311/311 364/364
f 406/406 410/410 409/409
f 406/406 409/409 405/405
f 52/52 53/53 58/58
f 52/52 58/58 57/57
f 127/127 128/128 149/149
f 127/127 149/149 148/148
f 479/479 335/335 329/329
f 479/479 329/329 480/480
f 276/276 277/277 283/283
f 276/276 283/283 282/282
f 485/485 392/392 385/385
f 485/485 385/385 483/483
f 416/416 423/423 424/424
f 416/416 424/424 417/417
f 259/259 261/261 305/305
f 259/259 305/305 299/299
f 362/362 361/361 410/410
f 362/362 410/410 500/500
f 45/45 46/46 51/51
f 45/45 51/51 50/50
f 91/91 92/92 105/105
f 91/91 105/105 104/104
f 306/306 368/368 413/413
f 306/306 413/413 300/300
f 346/346 352/352 354/354
f 346/346 354/354 348/348
f 340/340 346/346 348/348
f 340/340 348/348 342/342
f 175/175 176/176 187/187
f 175/175 187/187 186/186
f 239/239 198/198 212/212
f 239/239 212/212 213/213
f 436/436 446/446 447/447
f 436/436 447/447 437/437
f 334/334 340/340 342/342
f 334/334 342/342 336/336
f 488/488 380/380 492/492
f 492/492 493/493 488/488
f 106/106 107/107 118/118
f 106/106 118/118 117/117
f 423/423 430/430 431/431
f 423/423 431/431 424/424
f 481/481 321/321 313/313
f 481/481 313/313 482/482
f 228/228 227/227 244/244
f 228/228 244/244 503/503
f 274/274 280/280 279/279
f 274/274 279/279 273/273
f 363/363 362/362 500/500
f 363/363 500/500 513/513
f 3/3 7/7 8/8
f 3/3 8/8 4/4
f 5/5 9/9 10/10
f 5/5 10/10 6/6
f 217/217 218/218 252/252
f 217/217 252/252 251/251
f 121/121 122/122 142/142
f 121/121 142/142 141/141
f 186/186 187/187 55/55
f 186/186 55/55 60/60
f 471/471 478/478 479/479
f 471/471 479/479 472/472
f 83/83 84/84 97/97
f 83/83 97/97 96/96
f 78/78 79/79 92/92
f 78/78 92/92 91/91
f 434/434 441/441 444/444
f 434/434 444/444 435/435
f 75/75 364/364 311/311
f 75/75 311/311 33/33
f 145/145 146/146 158/158
f 145/145 158/158 157/157
f 21/21 17/17 83/83
f 21/21 83/83 82/82
f 418/418 425/425 426/426
f 418/418 426/426 419/419
f 395/395 400/400 455/455
f 395/395 455/455 442/442
f 137/137 138/138 154/154
f 137/137 154/154 153/153
f 278/278 279/279 285/285
f 278/278 285/285 284/284
f 369/369 496/496 495/495
f 369/369 495/495 364/364
f 27/27 31/31 32/32
f 27/27 32/32 28/28
f 301/301 302/302 308/308
f 301/301 308/308 307/307
f 298/298 304/304 303/303
f 298/298 303/303 297/297
f 53/53 48/48 49/49
f 53/53 49/49 54/54
f 300/300 301/301 307/307
f 300/300 307/307 306/306
f 32/32 31/31 78/78
f 32/32 78/78 77/77
f 205/205 28/28 32/32
f 205/205 32/32 206/206
f 43/43 38/38 39/39
f 43/43 39/39 44/44
f 67/67 68/68 73/73
f 67/67 73/73 72/72
f 405/405 409/409 411/411
f 405/405 411/411 407/407
f 512/512 499/499 498/498
f 512/512 498/498 511/511
f 25/25 29/29 30/30
f 25/25 30/30 26/26
f 235/235 234/234 208/208
f 235/235 208/208 209/209
f 171/171 172/172 183/183
f 171/171 183/183 182/182
f 19/19 23/23 24/24
f 19/19 24/24 20/20
f 492/492 380/380 382/382
f 492/492 382/382 388/388
f 515/515 249/249 239/239
f 515/515 239/239 240/240
f 184/184 185/185 65/65
f 184/184 65/65 70/70
f 196/196 238/238 194/194
f 196/196 194/194 193/193
f 491/491 489/489 484/484
f 491/491 484/484 487/487
f 164/164 165/165 176/176
f 164/164 176/176 175/175
f 65/65 66/66 71/71
f 65/65 71/71 70/70
f 29/29 25/25 81/81
f 29/29 81/81 80/80
f 237/237 235/235 209/209
f 237/237 209/209 210/210
f 192/192 236/236 196/196
f 192/192 196/196 193/193
f 48/48 43/43 44/44
f 48/48 44/44 49/49
f 163/163 164/164 175/175
f 163/163 175/175 174/174
f 412/412 359/359 353/353
f 412/412 353/353 476/476
f 15/15 19/19 20/20
f 15/15 20/20 16/16
f 247/247 195/195 194/194
f 247/247 194/194 238/238
f 119/119 120/120 139/139
f 119/119 139/139 136/136
f 344/344 345/345 339/339
f 344/344 339/339 338/338
f 23/23 27/27 28/28
f 23/23 28/28 24/24
f 362/362 363/363 357/357
f 362/362 357/357 356/356
f 353/353 359/359 358/358
f 353/353 358/358 352/352
f 302/302 303/303 309/309
f 302/302 309/309 308/308
f 49/49 44/44 226/226
f 49/49 226/226 227/227
f 183/183 184/184 70/70
f 183/183 70/70 71/71
f 382/382 236/236 192/192
f 382/382 192/192 388/388
f 193/193 125/125 388/388
f 193/193 388/388 192/192
f 493/493 492/492 388/388
f 493/493 388/388 125/125
f 347/347 353/353 352/352
f 347/347 352/352 346/346
f 62/62 63/63 68/68
f 62/62 68/68 67/67
f 66/66 67/67 72/72
f 66/66 72/72 71/71
f 493/493 125/125 195/195
f 493/493 195/195 494/494
f 296/296 297/297 303/303
f 296/296 303/303 302/302
f 509/509 363/363 513/513
f 509/509 513/513 263/263
f 387/387 396/396 441/441
f 387/387 441/441 434/434
f 381/381 379/379 374/374
f 381/381 374/374 101/101
f 172/172 173/173 184/184
f 172/172 184/184 183/183
f 469/469 476/476 477/477
f 469/469 477/477 470/470
f 101/101 374/374 369/369
f 101/101 369/369 89/89
f 292/292 298/298 297/297
f 292/292 297/297 291/291
f 442/442 455/455 456/456
f 442/442 456/456 443/443
f 237/237 210/210 211/211
f 237/237 211/211 197/197
f 158/158 146/146 518/518
f 269/269 268/268 520/520
f 191/191 180/180 522/522
f 266/266 265/265 524/524
f 37/37 36/36 526/526
f 35/35 191/191 528/528
f 265/265 264/264 530/530
f 113/113 100/100 532/532
f 468/468 475/475 534/534
f 2/2 3/3 536/536
f 100/100 87/87 538/538
f 318/318 225/225 540/540
f 316/316 317/317 542/542
f 217/217 251/251 544/544
f 147/147 124/124 546/546
f 426/426 433/433 548/548
f 87/87 1/1 550/550
f 482/482 313/313 552/552
f 440/440 454/454 554/554
f 264/264 419/419 556/556
f 433/433 440/440 558/558
f 169/169 158/158 560/560
f 419/419 426/426 562/562
f 312/312 314/314 564/564
f 268/268 267/267 566/566
f 453/453 461/461 568/568
f 475/475 482/482 570/570
f 199/199 217/217 572/572
f 3/3 4/4 574/574
f 313/313 312/312 576/576
f 39/39 38/38 578/578
f 267/267 266/266 580/580
f 225/225 39/39 582/582
f 38/38 37/37 584/584
f 1/1 2/2 586/586
f 315/315 316/316 588/588
f 36/36 35/35 590/590
f 124/124 113/113 592/592
f 250/250 269/269 594/594
f 461/461 468/468 596/596
f 314/314 315/315 598/598
f 180/180 169/169 600/600
f 4/4 199/199 602/602
f 317/317 319/319 604/604
f 518/518 519/519 158/158
f 520/520 521/521 269/269
f 522/522 523/523 191/191
f 524/524 525/525 266/266
f 526/526 527/527 37/37
f 528/528 529/529 35/35
f 530/530 531/531 265/265
f 532/532 533/533 113/113
f 534/534 535/535 468/468
f 536/536 537/537 2/2
f 538/538 539/539 100/100
f 540/540 541/541 318/318
f 542/542 543/543 316/316
f 544/544 545/545 217/217
f 546/546 547/547 147/147
f 548/548 549/549 426/426
f 550/550 551/551 87/87
f 552/552 553/553 482/482
f 554/554 555/555 440/440
f 556/556 557/557 264/264
f 558/558 559/559 433/433
f 560/560 561/561 169/169
f 562/562 563/563 419/419
f 564/564 565/565 312/312
f 566/566 567/567 268/268
f 568/568 569/569 453/453
f 570/570 571/571 475/475
f 572/572 573/573 199/199
f 574/574 575/575 3/3
f 576/576 577/577 313/313
f 578/578 579/579 39/39
f 580/580 581/581 267/267
f 582/582 583/583 225/225
f 584/584 585/585 38/38
f 586/586 587/587 1/1
f 588/588 589/589 315/315
f 590/590 591/591 36/36
f 592/592 593/593 124/124
f 594/594 595/595 250/250
f 596/596 597/597 461/461
f 598/598 599/599 314/314
f 600/600 601/601 180/180
f 602/602 603/603 4/4
f 604/604 605/605 317/317
f 146/146 606/606 607/607
f 269/269 608/608 609/609
f 180/180 610/610 611/611
f 266/266 612/612 613/613
f 37/37 614/614 615/615
f 191/191 616/616 617/617
f 265/265 618/618 619/619
f 100/100 620/620 621/621
f 468/468 622/622 623/623
f 3/3 624/624 625/625
f 87/87 626/626 627/627
f 225/225 628/628 629/629
f 316/316 630/630 631/631
f 251/251 632/632 633/633
f 124/124 634/634 635/635
f 426/426 636/636 637/637
f 1/1 638/638 639/639
f 482/482 640/640 641/641
f 440/440 642/642 643/643
f 264/264 644/644 645/645
f 433/433 646/646 647/647
f 158/158 648/648 649/649
f 419/419 650/650 651/651
f 314/314 652/652 653/653
f 268/268 654/654 655/655
f 453/453 656/656 657/657
f 475/475 658/658 659/659
f 217/217 660/660 661/661
f 4/4 662/662 663/663
f 312/312 664/664 665/665
f 38/38 666/666 667/667
f 267/267 668/668 669/669
f 39/39 670/670 671/671
f 38/38 672/672 673/673
f 2/2 674/674 675/675
f 315/315 676/676 677/677
f 36/36 678/678 679/679
f 113/113 680/680 681/681
f 250/250 682/682 683/683
f 461/461 684/684 685/685
f 315/315 686/686 687/687
f 169/169 688/688 689/689
f 199/199 690/690 691/691
f 317/317 692/692 693/693
usemtl kiwi_cut
f 772/772 694/694 732/732
f 732/732 780/780 703/703
f 703/703 707/707 736/736
f 736/736 726/726 737/737
f 737/737 725/725 771/771
f 771/771 740/740 746/746
f 746/746 717/717 698/698
f 698/698 773/773 755/755
f 755/755 722/722 702/702
f 702/702 768/768 724/724
f 724/724 769/769 749/749
f 749/749 739/739 751/751
f 751/751 760/760 758/758
f 758/758 697/697 705/705
f 705/705 745/745 735/735
f 735/735 767/767 709/709
f 709/709 778/778 764/764
f 764/764 718/718 775/775
f 775/775 759/759 738/738
f 738/738 720/720 743/743
f 743/743 765/765 770/770
f 770/770 713/713 712/712
f 712/712 744/744 731/731
f 731/731 733/733 701/701
f 701/701 741/741 696/696
f 696/696 766/766 763/763
f 763/763 714/714 719/719
f 719/719 704/704 695/695
f 695/695 706/706 774/774
f 774/774 700/700 779/779
f 779/779 753/753 748/748
f 748/748 757/757 777/777
f 777/777 747/747 761/761
f 761/761 730/730 742/742
f 742/742 754/754 727/727
f 727/727 723/723 708/708
f 708/708 752/752 762/762
f 762/762 711/711 756/756
f 756/756 728/728 750/750
f 750/750 729/729 710/710
f 710/710 721/721 734/734
f 734/734 781/781 715/715
f 715/715 716/716 776/776
f 776/776 699/699 772/772
f 772/772 732/732 703/703
f 703/703 736/736 737/737
f 737/737 771/771 746/746
f 746/746 698/698 755/755
f 755/755 702/702 724/724
f 724/724 749/749 751/751
f 751/751 758/758 705/705
f 705/705 735/735 709/709
f 709/709 764/764 775/775
f 775/775 738/738 743/743
f 743/743 770/770 712/712
f 712/712 731/731 701/701
f 701/701 696/696 763/763
f 763/763 719/719 695/695
f 695/695 774/774 779/779
f 779/779 748/748 777/777
f 777/777 761/761 742/742
f 742/742 727/727 708/708
f 708/708 762/762 756/756
f 756/756 750/750 710/710
f 710/710 734/734 715/715
f 715/715 776/776 772/772
f 772/772 703/703 737/737
f 737/737 746/746 755/755
f 755/755 724/724 751/751
f 751/751 705/705 709/709
f 709/709 775/775 743/743
f 743/743 712/712 701/701
f 701/701 763/763 695/695
f 695/695 779/779 777/777
f 777/777 742/742 708/708
f 708/708 756/756 710/710
f 710/710 715/715 772/772
f 772/772 737/737 755/755
f 755/755 751/751 709/709
f 709/709 743/743 701/701
f 701/701 695/695 777/777
f 777/777 708/708 710/710
f 710/710 772/772 755/755
f 755/755 709/709 701/701
f 701/701 777/777 710/710
f 710/710 755/755 701/701
