# generated
mtllib lemon.mtl
o fruit_half
v -0.220495 2.633406 1.923606
v -0.220495 2.633406 1.923606
v -0.220495 2.633406 1.950187
v -0.225629 2.633406 1.949677
v -0.230566 2.633406 1.948164
v -0.235116 2.633406 1.945708
v -0.239104 2.633406 1.942402
v -0.242376 2.633406 1.938374
v -0.244808 2.633406 1.933779
v -0.246306 2.633406 1.928792
v -0.246812 2.633406 1.923606
v -0.246812 2.633406 1.923606
v -0.246306 2.633406 1.918421
v -0.244808 2.633406 1.913434
v -0.242376 2.633406 1.908839
v -0.239104 2.633406 1.904811
v -0.235116 2.633406 1.901505
v -0.230566 2.633406 1.899049
v -0.225629 2.633406 1.897536
v -0.220494 2.633406 1.897026
v -0.215360 2.633406 1.897536
v -0.210423 2.633406 1.899049
v -0.205873 2.633406 1.901505
v -0.201885 2.633406 1.904811
v -0.198613 2.633406 1.908839
v -0.196181 2.633406 1.913434
v -0.194683 2.633406 1.918421
v -0.194177 2.633406 1.923606
v -0.194177 2.633406 1.923606
v -0.194683 2.633406 1.928792
v -0.196181 2.633406 1.933779
v -0.198613 2.633406 1.938374
v -0.201886 2.633406 1.942402
v -0.205873 2.633406 1.945708
v -0.210423 2.633406 1.948164
v -0.215360 2.633406 1.949677
v 0.000499 2.513823 1.972538
v 0.171102 2.377483 1.996472
v 0.425958 2.256441 2.028956
v 0.690722 2.155075 2.073973
v 0.005271 2.513823 1.923607
v 0.005271 2.513823 1.923607
v 0.178207 2.377483 1.923607
v 0.178207 2.377483 1.923607
v 0.436231 2.256441 1.923607
v 0.436231 2.256441 1.923607
v 0.705386 2.155075 1.923607
v 0.705386 2.155075 1.923607
v 0.000499 2.513823 1.874676
v 0.171102 2.377483 1.850741
v 0.425958 2.256441 1.818258
v 0.690723 2.155075 1.773241
v -0.013632 2.513823 1.827625
v 0.150059 2.377483 1.780675
v 0.395533 2.256441 1.716957
v 0.647298 2.155075 1.628653
v -0.036579 2.513823 1.784263
v 0.115886 2.377483 1.716102
v 0.346127 2.256441 1.623598
v 0.576779 2.155075 1.495400
v -0.067462 2.513823 1.746255
v 0.069898 2.377483 1.659504
v 0.279637 2.256441 1.541768
v 0.481877 2.155075 1.378603
v -0.105092 2.513823 1.715064
v 0.013861 2.377483 1.613054
v 0.198619 2.256441 1.474612
v 0.366239 2.155075 1.282750
v -0.148024 2.513823 1.691886
v -0.050071 2.377483 1.578539
v 0.106186 2.256441 1.424710
v 0.234308 2.155075 1.211525
v -1.453163 1.638406 1.923606
v -1.453163 1.638406 1.923606
v 1.190738 1.638406 1.113552
v -1.425425 1.638406 2.208059
v 1.011208 1.638406 0.892603
v -1.343276 1.638406 2.481581
v 0.792451 1.638406 0.711274
v -1.209873 1.638406 2.733660
v 0.542873 1.638406 0.576535
v 0.272061 1.638406 3.353649
v -1.030344 1.638406 2.954609
v 0.272064 1.638406 0.493563
v 0.542870 1.638406 3.270678
v -0.811586 1.638406 3.135938
v -0.009567 1.638406 0.465547
v 0.792449 1.638406 3.135939
v -0.562008 1.638406 3.270677
v -0.291199 1.638406 0.493563
v 1.011206 1.638406 2.954611
v -0.291199 1.638406 3.353649
v -0.009568 1.638406 3.381666
v -0.562008 1.638406 0.576535
v 1.190736 1.638406 2.733662
v -0.811586 1.638406 0.711274
v 1.324139 1.638406 2.481583
v -1.030344 1.638406 0.892602
v 1.406289 1.638406 2.208061
v -1.209873 1.638406 1.113552
v 1.434027 1.638406 1.923607
v 1.434027 1.638406 1.923607
v -1.343276 1.638406 1.365631
v -1.425425 1.638406 1.639153
v 1.406289 1.638406 1.639154
v 1.324140 1.638406 1.365632
v -0.418645 2.513823 2.100957
v -0.453068 2.377483 2.187709
v -0.476464 2.256441 2.305445
v -0.597317 2.155075 2.468610
v -0.148024 2.513823 2.155327
v -0.050072 2.377483 2.268673
v 0.106185 2.256441 2.422503
v 0.234307 2.155075 2.635688
v -0.243053 2.513823 1.672794
v -0.191585 2.377483 1.550109
v -0.098413 2.256441 1.383605
v -0.057720 2.155075 1.152855
v -0.338083 2.513823 2.155327
v -0.333099 2.377483 2.268673
v -0.303013 2.256441 2.422502
v -0.349748 2.155075 2.635687
v -0.067462 2.513823 2.100958
v 0.069897 2.377483 2.187709
v 0.279637 2.256441 2.305445
v 0.481876 2.155075 2.468610
v -0.057720 2.155075 2.694358
v -0.098413 2.256441 2.463607
v -0.191585 2.377483 2.297104
v -0.243054 2.513823 2.174418
v -0.481678 2.155075 1.282750
v -0.395446 2.256441 1.474612
v -0.397031 2.377483 1.613054
v -0.381015 2.513823 1.715064
v -0.036580 2.513823 2.062950
v 0.115886 2.377483 2.131111
v 0.346127 2.256441 2.223615
v 0.576779 2.155075 2.351814
v 0.647297 2.155075 2.218561
v 0.395533 2.256441 2.130256
v 0.150058 2.377483 2.066538
v -0.013632 2.513823 2.019588
v -0.418645 2.513823 1.746255
v -0.453068 2.377483 1.659503
v -0.476464 2.256441 1.541768
v -0.597317 2.155075 1.378603
v -0.449528 2.513823 1.784263
v -0.499057 2.377483 1.716102
v -0.542954 2.256441 1.623598
v -0.692219 2.155075 1.495400
v -0.472475 2.513823 1.827625
v -0.533229 2.377483 1.780675
v -0.592360 2.256441 1.716957
v -0.762737 2.155075 1.628653
v -0.486606 2.513823 1.874675
v -0.554272 2.377483 1.850741
v -0.622785 2.256441 1.818257
v -0.806162 2.155075 1.773240
v -0.491378 2.513823 1.923606
v -0.491378 2.513823 1.923606
v -0.561378 2.377483 1.923606
v -0.561378 2.377483 1.923606
v -0.633058 2.256441 1.923606
v -0.633058 2.256441 1.923606
v -0.820825 2.155075 1.923606
v -0.820825 2.155075 1.923606
v -0.486606 2.513823 1.972537
v -0.554272 2.377483 1.996472
v -0.622785 2.256441 2.028955
v -0.806162 2.155075 2.073972
v -0.472475 2.513823 2.019588
v -0.533229 2.377483 2.066538
v -0.592360 2.256441 2.130256
v -0.762737 2.155075 2.218560
v -0.449528 2.513823 2.062950
v -0.499057 2.377483 2.131111
v -0.542954 2.256441 2.223615
v -0.692219 2.155075 2.351813
v -0.194608 2.513823 2.169599
v -0.119443 2.377483 2.289927
v 0.005890 2.256441 2.453232
v 0.091154 2.155075 2.679548
v -0.194608 2.513823 1.677613
v -0.119442 2.377483 1.557285
v 0.005891 2.256441 1.393981
v 0.091155 2.155075 1.167665
v -0.381015 2.513823 2.132149
v -0.397031 2.377483 2.234158
v -0.395446 2.256441 2.372601
v -0.481678 2.155075 2.564462
v -0.105092 2.513823 2.132149
v 0.013860 2.377483 2.234159
v 0.198618 2.256441 2.372601
v 0.366238 2.155075 2.564463
v -0.291499 2.513823 1.677613
v -0.263728 2.377483 1.557285
v -0.202717 2.256441 1.393981
v -0.206594 2.155075 1.167664
v -0.291499 2.513823 2.169599
v -0.263728 2.377483 2.289927
v -0.202717 2.256441 2.453231
v -0.206594 2.155075 2.679548
v -0.338083 2.513823 1.691886
v -0.333099 2.377483 1.578539
v -0.303013 2.256441 1.424710
v -0.349748 2.155075 1.211525
v -0.040838 2.443084 1.660093
v -0.153949 2.443084 1.612772
v -0.389492 2.443084 2.187119
v -0.040838 2.443084 2.187119
v -0.276380 2.443084 1.612772
v -0.276381 2.443084 2.234441
v -0.476064 2.443084 2.099680
v -0.335244 2.443084 1.630806
v -0.153950 2.443084 2.234441
v -0.505060 2.443084 2.044888
v 0.074730 2.443084 2.044888
v -0.437041 2.443084 1.699507
v -0.476064 2.443084 1.747533
v -0.505060 2.443084 1.802325
v -0.522916 2.443084 1.861778
v -0.528945 2.443084 1.923606
v -0.528945 2.443084 1.923606
v -0.522916 2.443084 1.985435
v -0.389492 2.443084 1.660093
v 0.045734 2.443084 2.099680
v -0.437041 2.443084 2.147706
v -0.095087 2.443084 2.216406
v -0.215165 2.443084 1.606682
v -0.335244 2.443084 2.216406
v 0.006711 2.443084 2.147706
v -0.215165 2.443084 2.240531
v -0.095086 2.443084 1.630806
v 0.006711 2.443084 1.699507
v 0.045734 2.443084 1.747533
v 0.074730 2.443084 1.802325
v 0.092586 2.443084 1.861778
v 0.098615 2.443084 1.923607
v 0.098615 2.443084 1.923607
v 0.092586 2.443084 1.985435
v -0.164302 2.573615 1.759084
v -0.107103 2.573615 1.797686
v -0.085176 2.573615 1.824671
v -0.068883 2.573615 1.855459
v -0.058850 2.573615 1.888865
v -0.055462 2.573615 1.923607
v -0.055462 2.573615 1.923607
v -0.058850 2.573615 1.958348
v -0.231774 2.573615 2.101685
v -0.197378 2.573615 2.098263
v -0.197377 2.573615 1.748950
v -0.329728 2.573615 2.071673
v -0.133821 2.573615 2.071673
v -0.266171 2.573615 1.748950
v -0.266171 2.573615 2.098263
v -0.299246 2.573615 1.759083
v -0.378372 2.573615 2.022542
v -0.356445 2.573615 1.797686
v -0.378372 2.573615 1.824671
v -0.394665 2.573615 1.855459
v -0.404698 2.573615 1.888865
v -0.408086 2.573615 1.923606
v -0.408086 2.573615 1.923606
v -0.404698 2.573615 1.958348
v -0.394665 2.573615 1.991754
v -0.356445 2.573615 2.049527
v -0.164303 2.573615 2.088129
v -0.231774 2.573615 1.745528
v -0.299246 2.573615 2.088129
v -0.107103 2.573615 2.049527
v -0.085176 2.573615 2.022542
v -0.329728 2.573615 1.775540
v -0.068883 2.573615 1.991754
v -0.133820 2.573615 1.775540
v 0.175555 2.323726 1.603520
v 0.231292 2.323726 1.672116
v 0.272708 2.323726 1.750377
v 0.298212 2.323726 1.835295
v 0.306824 2.323726 1.923607
v 0.306824 2.323726 1.923607
v 0.298212 2.323726 2.011919
v -0.514005 2.323726 2.175097
v -0.053922 2.323726 2.367579
v -0.053921 2.323726 1.479633
v -0.390352 2.323726 2.299988
v 0.107638 2.323726 2.299989
v -0.228792 2.323726 1.479633
v -0.228792 2.323726 2.367579
v -0.312868 2.323726 1.505393
v 0.272708 2.323726 2.096836
v -0.458268 2.323726 1.603519
v -0.514005 2.323726 1.672116
v -0.555422 2.323726 1.750377
v -0.580925 2.323726 1.835295
v -0.580925 2.323726 2.011918
v -0.589537 2.323726 1.923606
v -0.589537 2.323726 1.923606
v -0.555422 2.323726 2.096836
v -0.458268 2.323726 2.243693
v 0.030154 2.323726 2.341820
v -0.141357 2.323726 1.470935
v -0.312868 2.323726 2.341820
v 0.175554 2.323726 2.243693
v -0.141357 2.323726 2.376277
v -0.390352 2.323726 1.547224
v 0.231291 2.323726 2.175097
v 0.030155 2.323726 1.505393
v 0.107639 2.323726 1.547224
v -0.016218 1.946634 3.035526
v -1.095954 1.946634 1.706681
v 1.000871 1.946634 1.498094
v -1.117108 1.946634 1.923606
v -1.117108 1.946634 1.923606
v 0.899138 1.946634 1.305857
v -1.095954 1.946634 2.140531
v 0.762229 1.946634 1.137360
v -1.033308 1.946634 2.349119
v 0.595404 1.946634 0.999079
v -0.931575 1.946634 2.541356
v 0.405075 1.946634 0.896326
v 0.198553 1.946634 3.014161
v -0.794665 1.946634 2.709852
v 0.198555 1.946634 0.833051
v 0.405073 1.946634 2.950887
v -0.627840 1.946634 2.848134
v -0.016218 1.946634 0.811686
v 0.595402 1.946634 2.848135
v -0.437510 1.946634 2.950886
v -0.230991 1.946634 0.833051
v 0.762227 1.946634 2.709853
v -0.230991 1.946634 3.014161
v -0.437510 1.946634 0.896326
v 0.899137 1.946634 2.541357
v -0.627840 1.946634 0.999078
v 1.000871 1.946634 2.349121
v -0.794665 1.946634 1.137360
v 1.063518 1.946634 2.140532
v -0.931575 1.946634 1.305856
v 1.084671 1.946634 1.923607
v 1.084671 1.946634 1.923607
v -1.033308 1.946634 1.498093
v 1.063518 1.946634 1.706682
v -1.276458 1.816313 1.923606
v -1.276458 1.816313 1.923606
v -1.565630 1.460498 1.923606
v -1.565630 1.460498 1.923606
v -1.698077 1.251443 1.923606
v -1.698077 1.251443 1.923606
v -1.810280 0.969007 1.923606
v -1.810280 0.969007 1.923606
v 1.029334 1.816313 1.217144
v 1.298730 1.460498 1.046006
v 1.387944 1.251443 0.978093
v 1.507676 0.969008 0.907031
v -1.252267 1.816313 2.171683
v -1.535579 1.460498 2.231778
v -1.665700 1.251443 2.255626
v -1.775470 0.969007 2.280580
v 0.872764 1.816313 1.024450
v 1.104230 1.460498 0.806633
v 1.178393 1.251443 0.720195
v 1.282376 0.969008 0.629751
v -1.180624 1.816313 2.410226
v -1.446581 1.460498 2.528107
v -1.569814 1.251443 2.574887
v -1.672377 0.969007 2.623835
v 0.681982 1.816313 0.866310
v 0.867232 1.460498 0.610185
v 0.923055 1.251443 0.508545
v 1.007847 0.969008 0.402193
v -1.064281 1.816313 2.630069
v -1.302054 1.460498 2.801206
v -1.414104 1.251443 2.869120
v -1.504965 0.969007 2.940181
v 0.464320 1.816313 0.748801
v 0.596843 1.460498 0.464211
v 0.631741 1.251443 0.351274
v 0.694640 0.969008 0.233103
v 0.228140 1.816313 3.170772
v 0.303450 1.460498 3.472892
v 0.315644 1.251443 3.592785
v 0.354785 0.969007 3.718235
v -0.907710 1.816313 2.822762
v -1.107555 1.460498 3.040579
v -1.204553 1.251443 3.127017
v -1.279664 0.969007 3.217461
v 0.228143 1.816313 0.676440
v 0.303453 1.460498 0.374320
v 0.315647 1.251443 0.254427
v 0.354789 0.969008 0.128977
v 0.464318 1.816313 3.098412
v 0.596840 1.460498 3.383002
v 0.631738 1.251443 3.495939
v 0.694636 0.969007 3.614110
v -0.716928 1.816313 2.980902
v -0.870557 1.460498 3.237027
v -0.949214 1.251443 3.338667
v -1.005135 0.969007 3.445018
v -0.017473 1.816313 0.652007
v -0.001662 1.460498 0.343968
v -0.013079 1.251443 0.221726
v 0.001356 0.969008 0.093818
v 0.681979 1.816313 2.980903
v 0.867229 1.460498 3.237028
v 0.923052 1.251443 3.338669
v 1.007844 0.969007 3.445020
v -0.499266 1.816313 3.098411
v -0.600167 1.460498 3.383001
v -0.657900 1.251443 3.495938
v -0.691927 0.969007 3.614109
v -0.263089 1.816313 0.676440
v -0.306777 1.460498 0.374320
v -0.341806 1.251443 0.254427
v -0.352077 0.969008 0.128977
v 0.872762 1.816313 2.822764
v 1.104228 1.460498 3.040580
v 1.178391 1.251443 3.127018
v 1.282374 0.969007 3.217463
v -0.263089 1.816313 3.170772
v -0.306778 1.460498 3.472892
v -0.341807 1.251443 3.592785
v -0.352077 0.969007 3.718235
v 0.001356 0.969007 3.753394
v -0.013080 1.251443 3.625486
v -0.001663 1.460498 3.503244
v -0.017473 1.816313 3.195206
v -0.499266 1.816313 0.748801
v -0.600167 1.460498 0.464210
v -0.657900 1.251443 0.351274
v -0.691927 0.969008 0.233103
v 1.029333 1.816313 2.630070
v 1.298728 1.460498 2.801208
v 1.387943 1.251443 2.869122
v 1.507675 0.969007 2.940183
v -0.716928 1.816313 0.866310
v -0.870557 1.460498 0.610185
v -0.949214 1.251443 0.508544
v -1.005135 0.969008 0.402193
v 1.145676 1.816313 2.410228
v 1.443255 1.460498 2.528109
v 1.543653 1.251443 2.574889
v 1.675088 0.969007 2.623837
v -0.907710 1.816313 1.024449
v -1.107555 1.460498 0.806633
v -1.204553 1.251443 0.720195
v -1.279664 0.969008 0.629750
v 1.217320 1.816313 2.171684
v 1.532254 1.460498 2.231780
v 1.639540 1.251443 2.255628
v 1.778181 0.969007 2.280581
v -1.064281 1.816313 1.217143
v -1.302054 1.460498 1.046006
v -1.414104 1.251443 0.978092
v -1.504965 0.969008 0.907031
v 1.241512 1.816313 1.923607
v 1.241512 1.816313 1.923607
v 1.562306 1.460498 1.923608
v 1.562306 1.460498 1.923608
v 1.671917 1.251443 1.923608
v 1.671917 1.251443 1.923608
v 1.812992 0.969007 1.923608
v 1.812992 0.969007 1.923608
v -1.180624 1.816313 1.436986
v -1.446581 1.460498 1.319105
v -1.569814 1.251443 1.272325
v -1.672378 0.969008 1.223377
v -1.775470 0.969007 1.566632
v -1.665700 1.251443 1.591586
v -1.535579 1.460498 1.615434
v -1.252267 1.816313 1.675530
v 1.217321 1.816313 1.675530
v 1.532255 1.460498 1.615435
v 1.639541 1.251443 1.591587
v 1.778182 0.969007 1.566634
v 1.675089 0.969008 1.223378
v 1.543654 1.251443 1.272326
v 1.443255 1.460498 1.319106
v 1.145677 1.816313 1.436987
v 0.167782 2.035492 2.862016
v 0.345490 2.035492 2.807569
v 0.509266 2.035492 2.719152
v 0.652817 2.035492 2.600163
v 0.770626 2.035492 2.455173
v 0.858167 2.035492 2.289756
v 0.912074 2.035492 2.110268
v 0.930276 2.035492 1.923607
v 0.930276 2.035492 1.923607
v 0.912074 2.035492 1.736946
v 0.858167 2.035492 1.557458
v 0.770627 2.035492 1.392040
v 0.652818 2.035492 1.247051
v 0.509267 2.035492 1.128061
v 0.345491 2.035492 1.039644
v 0.167784 2.035492 0.985197
v -0.017026 2.035492 0.966812
v -0.201836 2.035492 0.985197
v -0.379543 2.035492 1.039644
v -0.543319 2.035492 1.128061
v -0.686870 2.035492 1.247050
v -0.804680 2.035492 1.392040
v -0.892220 2.035492 1.557457
v -0.946126 2.035492 1.736945
v -0.964329 2.035492 1.923606
v -0.964329 2.035492 1.923606
v -0.946126 2.035492 2.110267
v -0.892220 2.035492 2.289755
v -0.804680 2.035492 2.455173
v -0.686870 2.035492 2.600162
v -0.543319 2.035492 2.719151
v -0.379543 2.035492 2.807568
v -0.201836 2.035492 2.862015
v -0.017026 2.035492 2.880400
v -0.731192 0.159359 3.746582
v -0.364709 0.159359 -0.011656
v 1.397822 0.159359 3.318853
v -0.364710 0.159359 3.858867
v -0.731192 0.159359 0.100630
v 1.640778 0.159359 3.019845
v -1.068944 0.159359 0.282970
v 1.821310 0.159359 2.678709
v -1.364986 0.159359 0.528360
v 1.932482 0.159359 2.308555
v -1.607941 0.159359 0.827369
v 1.970020 0.159359 1.923608
v 1.970020 0.159359 1.923608
v -1.788473 0.159359 1.168505
v 1.932482 0.159359 1.538660
v -1.899644 0.159359 1.538659
v 1.821311 0.159359 1.168506
v -1.937182 0.159359 1.923606
v -1.937182 0.159359 1.923606
v 1.640779 0.159359 0.827369
v -1.899644 0.159359 2.308553
v 1.397824 0.159359 0.528361
v -1.788473 0.159359 2.678707
v 1.101782 0.159359 0.282971
v 0.016419 0.159359 3.896781
v -1.607941 0.159359 3.019843
v 0.764031 0.159359 0.100630
v 0.397545 0.159359 3.858867
v -1.364986 0.159359 3.318851
v -1.068944 0.159359 3.564241
v 0.397548 0.159359 -0.011655
v 0.016420 0.159359 -0.049569
v 0.764027 0.159359 3.746583
v 1.101779 0.159359 3.564242
v 0.370900 0.686572 3.800060
v 0.726246 0.686572 3.691188
v 1.053735 0.686572 3.514388
v 1.340781 0.686572 3.276455
v 1.576354 0.686572 2.986533
v 1.751401 0.686572 2.655764
v 1.859194 0.686572 2.296858
v 1.895592 0.686572 1.923608
v 1.895592 0.686572 1.923608
v 1.859195 0.686572 1.550358
v 1.751402 0.686572 1.191451
v 1.576356 0.686572 0.860681
v 1.340783 0.686572 0.570759
v 1.053738 0.686572 0.332826
v 0.726250 0.686572 0.156025
v 0.370904 0.686572 0.047152
v 0.001356 0.686572 0.010390
v -0.368191 0.686572 0.047152
v -0.723537 0.686572 0.156025
v -1.051026 0.686572 0.332825
v -1.338072 0.686572 0.570758
v -1.573645 0.686572 0.860680
v -1.748691 0.686572 1.191450
v -1.856483 0.686572 1.550356
v -1.892880 0.686572 1.923606
v -1.892880 0.686572 1.923606
v -1.856483 0.686572 2.296856
v -1.748690 0.686572 2.655762
v -1.573645 0.686572 2.986531
v -1.338072 0.686572 3.276453
v -1.051026 0.686572 3.514386
v -0.723537 0.686572 3.691186
v -0.368191 0.686572 3.800059
v 0.001356 0.686572 3.836822
v 0.802727 0.100797 3.720016
v 1.099013 0.100797 3.560061
v 0.350757 0.100797 -0.011282
v 0.016420 0.100797 -0.044541
v -1.325875 0.100797 3.344797
v -1.066178 0.100797 3.560061
v 0.440633 0.100797 3.840437
v 0.762122 0.100797 3.741938
v 0.718066 0.100797 0.091776
v 0.396577 0.100797 -0.006724
v -1.574593 0.100797 3.052997
v -1.361466 0.100797 3.315296
v 0.062239 0.100797 3.887195
v 0.396574 0.100797 3.853936
v 1.058411 0.100797 0.265230
v 0.762126 0.100797 0.105275
v -1.762170 0.100797 2.717795
v -1.603802 0.100797 3.017050
v 1.358713 0.100797 0.502415
v 1.099016 0.100797 0.287152
v -1.881396 0.100797 2.352073
v -1.783874 0.100797 2.676783
v 1.607431 0.100797 0.794215
v 1.394304 0.100797 0.531916
v -1.927691 0.100797 1.969885
v -1.894762 0.100797 2.307572
v 1.795008 0.100797 1.129418
v 1.636640 0.100797 0.830162
v -1.899274 0.100797 1.585919
v -1.932204 0.100797 1.923606
v 1.914234 0.100797 1.495140
v 1.816712 0.100797 1.170430
v -1.797239 0.100797 1.214930
v -1.894762 0.100797 1.539640
v 1.960529 0.100797 1.877329
v 1.927600 0.100797 1.539641
v -1.625506 0.100797 0.871175
v -1.783874 0.100797 1.170429
v 1.932113 0.100797 2.261295
v 1.965042 0.100797 1.923608
v -1.390675 0.100797 0.567863
v -1.603802 0.100797 0.830162
v 1.830076 0.100797 2.632284
v 1.927600 0.100797 2.307574
v -1.101769 0.100797 0.316652
v -1.361466 0.100797 0.531915
v 1.658343 0.100797 2.976039
v 1.816711 0.100797 2.676785
v -0.769892 0.100797 0.127197
v -1.066178 0.100797 0.287151
v -0.317918 0.100797 3.858494
v 0.016419 0.100797 3.891753
v 1.423511 0.100797 3.279350
v 1.636639 0.100797 3.017052
v -0.407797 0.100797 0.006775
v -0.729287 0.100797 0.105275
v -0.685227 0.100797 3.755436
v -0.363739 0.100797 3.853936
v 1.134604 0.100797 3.530560
v 1.394302 0.100797 3.315298
v -0.029400 0.100797 -0.039983
v -0.363738 0.100797 -0.006725
v -1.025573 0.100797 3.581982
v -0.729287 0.100797 3.741937
v 0.762122 0.100797 3.741938
v 0.802727 0.100797 3.720016
v 0.396577 0.100797 -0.006724
v 0.350757 0.100797 -0.011282
v -1.361466 0.100797 3.315296
v -1.325875 0.100797 3.344797
v 0.396574 0.100797 3.853936
v 0.440633 0.100797 3.840437
v 0.762126 0.100797 0.105275
v 0.718066 0.100797 0.091776
v -1.603802 0.100797 3.017050
v -1.574593 0.100797 3.052997
v 0.016419 0.100797 3.891753
v 0.062239 0.100797 3.887195
v 1.099016 0.100797 0.287152
v 1.058411 0.100797 0.265230
v -1.783874 0.100797 2.676783
v -1.762170 0.100797 2.717795
v 1.394304 0.100797 0.531916
v 1.358713 0.100797 0.502415
v -1.894762 0.100797 2.307572
v -1.881396 0.100797 2.352073
v 1.636640 0.100797 0.830162
v 1.607431 0.100797 0.794215
v -1.932204 0.100797 1.923606
v -1.927691 0.100797 1.969885
v 1.816712 0.100797 1.170430
v 1.795008 0.100797 1.129418
v -1.894762 0.100797 1.539640
v -1.899274 0.100797 1.585919
v 1.927600 0.100797 1.539641
v 1.914234 0.100797 1.495140
v -1.783874 0.100797 1.170429
v -1.797239 0.100797 1.214930
v 1.965042 0.100797 1.923608
v 1.960529 0.100797 1.877329
v -1.603802 0.100797 0.830162
v -1.625506 0.100797 0.871175
v 1.927600 0.100797 2.307574
v 1.932113 0.100797 2.261295
v -1.361466 0.100797 0.531915
v -1.390675 0.100797 0.567863
v 1.816711 0.100797 2.676785
v 1.830076 0.100797 2.632284
v -1.066178 0.100797 0.287151
v -1.101769 0.100797 0.316652
v 1.636639 0.100797 3.017052
v 1.658343 0.100797 2.976039
v -0.729287 0.100797 0.105275
v -0.769892 0.100797 0.127197
v -0.363739 0.100797 3.853936
v -0.317918 0.100797 3.858494
v 1.394302 0.100797 3.315298
v 1.423511 0.100797 3.279350
v -0.363738 0.100797 -0.006725
v -0.407797 0.100797 0.006775
v -0.729287 0.100797 3.741937
v -0.685227 0.100797 3.755436
v 1.099013 0.100797 3.560061
v 1.134604 0.100797 3.530560
v 0.016420 0.100797 -0.044541
v -0.029400 0.100797 -0.039983
v -1.066178 0.100797 3.560061
v -1.025573 0.100797 3.581982
v 1.394304 0.100797 0.531916
v -0.685227 0.100797 3.755436
v 0.016420 0.100797 -0.044541
v 1.636639 0.100797 3.017052
v 1.816712 0.100797 1.170430
v -1.066178 0.100797 0.287151
v -1.066178 0.100797 3.560061
v 1.099013 0.100797 3.560061
v -1.325875 0.100797 3.344797
v 0.062239 0.100797 3.887195
v -0.317918 0.100797 3.858494
v -0.407797 0.100797 0.006775
v 1.394302 0.100797 3.315298
v 1.658343 0.100797 2.976039
v 1.358713 0.100797 0.502415
v 1.099016 0.100797 0.287152
v -1.783874 0.100797 2.676783
v -1.783874 0.100797 1.170429
v 0.350757 0.100797 -0.011282
v -0.729287 0.100797 3.741937
v -0.729287 0.100797 0.105275
v -1.101769 0.100797 0.316652
v -1.361466 0.100797 3.315296
v -1.361466 0.100797 0.531915
v 0.440633 0.100797 3.840437
v -1.762170 0.100797 2.717795
v 0.802727 0.100797 3.720016
v -0.029400 0.100797 -0.039983
v 0.762126 0.100797 0.105275
v 1.636640 0.100797 0.830162
v 1.932113 0.100797 2.261295
v -1.797239 0.100797 1.214930
v 1.830076 0.100797 2.632284
v 1.965042 0.100797 1.923608
v -0.363739 0.100797 3.853936
v 1.927600 0.100797 2.307574
v -1.881396 0.100797 2.352073
v -1.574593 0.100797 3.052997
v 1.927600 0.100797 1.539641
v -1.025573 0.100797 3.581982
v 0.396574 0.100797 3.853936
v 1.960529 0.100797 1.877329
v 0.016419 0.100797 3.891753
v 1.816711 0.100797 2.676785
v -1.390675 0.100797 0.567863
v 0.718066 0.100797 0.091776
v -1.927691 0.100797 1.969885
v -1.625506 0.100797 0.871175
v -0.769892 0.100797 0.127197
v 1.058411 0.100797 0.265230
v 1.914234 0.100797 1.495140
v -1.894762 0.100797 2.307572
v -1.894762 0.100797 1.539640
v 1.607431 0.100797 0.794215
v 0.396577 0.100797 -0.006724
v 1.134604 0.100797 3.530560
v -1.932204 0.100797 1.923606
v -1.603802 0.100797 3.017050
v -1.603802 0.100797 0.830162
v 0.762122 0.100797 3.741938
v -0.363738 0.100797 -0.006725
v -1.899274 0.100797 1.585919
v 1.423511 0.100797 3.279350
v 1.795008 0.100797 1.129418
vt 0.092103 0.485362
vt 0.593747 0.031517
vt 0.093614 0.483064
vt 0.093157 0.482823
vt 0.092662 0.482670
vt 0.092146 0.482610
vt 0.091623 0.482648
vt 0.091111 0.482782
vt 0.090627 0.483010
vt 0.090187 0.483329
vt 0.591442 0.033134
vt 0.089808 0.483731
vt 0.591819 0.033538
vt 0.592256 0.033860
vt 0.592739 0.034092
vt 0.593250 0.034229
vt 0.593773 0.034270
vt 0.594290 0.034214
vt 0.594785 0.034064
vt 0.595244 0.033825
vt 0.595651 0.033506
vt 0.595993 0.033115
vt 0.596258 0.032664
vt 0.596437 0.032167
vt 0.596521 0.031640
vt 0.596505 0.031100
vt 0.596387 0.030564
vt 0.094513 0.486841
vt 0.596168 0.030054
vt 0.094736 0.486332
vt 0.094858 0.485798
vt 0.094877 0.485257
vt 0.094796 0.484730
vt 0.094621 0.484232
vt 0.094358 0.483779
vt 0.094019 0.483386
vt 0.119470 0.491672
vt 0.144375 0.495428
vt 0.177131 0.499028
vt 0.209925 0.498924
vt 0.118198 0.497145
vt 0.619918 0.019906
vt 0.644725 0.013323
vt 0.142968 0.503891
vt 0.677778 0.006068
vt 0.175993 0.511365
vt 0.209823 0.516454
vt 0.711612 0.001198
vt 0.621155 0.025386
vt 0.646077 0.021792
vt 0.678837 0.018403
vt 0.711604 0.018711
vt 0.621485 0.030854
vt 0.646024 0.030263
vt 0.677851 0.030361
vt 0.708858 0.035049
vt 0.620926 0.036171
vt 0.644628 0.038475
vt 0.675048 0.041658
vt 0.703880 0.050018
vt 0.619524 0.041206
vt 0.641993 0.046223
vt 0.670660 0.052102
vt 0.697082 0.063525
vt 0.617349 0.045841
vt 0.638241 0.053346
vt 0.664901 0.061567
vt 0.688782 0.075545
vt 0.614488 0.049974
vt 0.633501 0.059716
vt 0.657954 0.069965
vt 0.679222 0.086087
vt 0.505414 0.192299
vt 0.004925 0.324173
vt 0.778453 0.090023
vt 0.036277 0.319763
vt 0.762947 0.108777
vt 0.064583 0.318959
vt 0.746899 0.125033
vt 0.090395 0.320799
vt 0.730345 0.139218
vt 0.212288 0.365910
vt 0.114130 0.324662
vt 0.713247 0.151646
vt 0.229337 0.378421
vt 0.136142 0.330167
vt 0.695511 0.162536
vt 0.245837 0.392694
vt 0.156734 0.337097
vt 0.677003 0.172034
vt 0.261826 0.409045
vt 0.176142 0.345358
vt 0.194601 0.354938
vt 0.657546 0.180209
vt 0.277260 0.427902
vt 0.636901 0.187047
vt 0.291987 0.449831
vt 0.614834 0.192449
vt 0.305697 0.475573
vt 0.591040 0.196194
vt 0.819419 0.012219
vt 0.317875 0.506084
vt 0.565170 0.197894
vt 0.536809 0.196920
vt 0.807091 0.042592
vt 0.793268 0.068208
vt 0.087185 0.456043
vt 0.090388 0.439208
vt 0.097649 0.422091
vt 0.101423 0.398589
vt 0.112962 0.467041
vt 0.132035 0.457418
vt 0.156552 0.447315
vt 0.177919 0.431312
vt 0.607105 0.056414
vt 0.621583 0.069807
vt 0.641099 0.083327
vt 0.656979 0.102830
vt 0.096754 0.456830
vt 0.105938 0.441072
vt 0.119842 0.425291
vt 0.130084 0.403394
vt 0.117941 0.475840
vt 0.140444 0.470965
vt 0.169157 0.465259
vt 0.195659 0.453987
vt 0.155767 0.414442
vt 0.139775 0.433853
vt 0.120180 0.447254
vt 0.105620 0.460554
vt 0.617210 0.116887
vt 0.610221 0.094011
vt 0.599610 0.077336
vt 0.593465 0.060814
vt 0.119311 0.480885
vt 0.143032 0.478731
vt 0.173483 0.475736
vt 0.202384 0.467543
vt 0.207277 0.482555
vt 0.176218 0.487056
vt 0.144376 0.486954
vt 0.119836 0.486206
vt 0.588638 0.060807
vt 0.591734 0.077668
vt 0.598890 0.094837
vt 0.602524 0.118376
vt 0.583816 0.060066
vt 0.583799 0.076905
vt 0.587263 0.094179
vt 0.587273 0.118055
vt 0.579066 0.058598
vt 0.575916 0.075072
vt 0.575520 0.091972
vt 0.571621 0.115738
vt 0.574443 0.056400
vt 0.568175 0.072222
vt 0.563892 0.088192
vt 0.555827 0.111199
vt 0.569993 0.053457
vt 0.068496 0.463269
vt 0.059230 0.448227
vt 0.560623 0.068440
vt 0.051464 0.433740
vt 0.552754 0.082883
vt 0.540259 0.104193
vt 0.039123 0.412363
vt 0.072964 0.460356
vt 0.066804 0.444498
vt 0.062629 0.428509
vt 0.054722 0.405468
vt 0.077600 0.458189
vt 0.074561 0.441700
vt 0.074274 0.424807
vt 0.070530 0.401035
vt 0.082359 0.456752
vt 0.082451 0.439920
vt 0.086024 0.422677
vt 0.086182 0.398817
vt 0.109535 0.463473
vt 0.126472 0.451869
vt 0.148616 0.439997
vt 0.167325 0.422161
vt 0.611039 0.053520
vt 0.627904 0.065230
vt 0.649975 0.077235
vt 0.668579 0.095177
vt 0.092010 0.456067
vt 0.098259 0.439590
vt 0.108969 0.422987
vt 0.116091 0.400163
vt 0.115796 0.471191
vt 0.136736 0.463818
vt 0.163451 0.455757
vt 0.187424 0.441913
vt 0.602795 0.058611
vt 0.614670 0.073381
vt 0.631441 0.088190
vt 0.644506 0.109028
vt 0.101325 0.458330
vt 0.113290 0.443637
vt 0.130148 0.428933
vt 0.143331 0.408175
vt 0.598215 0.060082
vt 0.607300 0.075902
vt 0.621112 0.091772
vt 0.631228 0.113736
vt 0.628330 0.049616
vt 0.619877 0.059528
vt 0.095226 0.447602
vt 0.126801 0.467486
vt 0.608979 0.066216
vt 0.107555 0.450765
vt 0.082349 0.448138
vt 0.602923 0.068222
vt 0.118411 0.457521
vt 0.075943 0.449768
vt 0.132735 0.486809
vt 0.590202 0.069453
vt 0.583749 0.068683
vt 0.577352 0.067010
vt 0.571068 0.064461
vt 0.564908 0.061069
vt 0.063463 0.455625
vt 0.069644 0.452275
vt 0.596627 0.069302
vt 0.131780 0.479955
vt 0.088804 0.447410
vt 0.122975 0.462138
vt 0.614672 0.063306
vt 0.101514 0.448722
vt 0.129772 0.473465
vt 0.113229 0.453711
vt 0.624471 0.054939
vt 0.631338 0.043656
vt 0.633387 0.037180
vt 0.634385 0.030334
vt 0.634265 0.023288
vt 0.131255 0.500911
vt 0.632996 0.016227
vt 0.132570 0.493856
vt 0.608110 0.043461
vt 0.611310 0.037363
vt 0.612097 0.033914
vt 0.612281 0.030312
vt 0.611826 0.026648
vt 0.109007 0.493974
vt 0.610708 0.023016
vt 0.110149 0.490350
vt 0.101601 0.468915
vt 0.104260 0.470993
vt 0.605812 0.045966
vt 0.092104 0.465744
vt 0.108376 0.476414
vt 0.600165 0.049598
vt 0.098637 0.467325
vt 0.596966 0.050643
vt 0.085288 0.466423
vt 0.590209 0.051064
vt 0.586809 0.050413
vt 0.583500 0.049179
vt 0.580365 0.047357
vt 0.075941 0.471832
vt 0.577497 0.044942
vt 0.078825 0.469437
vt 0.081972 0.467636
vt 0.088692 0.465794
vt 0.106542 0.473512
vt 0.603139 0.048027
vt 0.095445 0.466260
vt 0.109703 0.479631
vt 0.110468 0.483085
vt 0.593621 0.051137
vt 0.110628 0.486689
vt 0.609963 0.040571
vt 0.656229 0.048511
vt 0.659666 0.039481
vt 0.661680 0.029814
vt 0.662101 0.019711
vt 0.158995 0.507913
vt 0.660770 0.009408
vt 0.160393 0.497613
vt 0.084511 0.432343
vt 0.137583 0.446715
vt 0.638984 0.070452
vt 0.103771 0.432247
vt 0.150051 0.460489
vt 0.623154 0.079922
vt 0.121813 0.437150
vt 0.614333 0.082927
vt 0.160035 0.487502
vt 0.595524 0.085249
vt 0.585810 0.084498
vt 0.576085 0.082452
vt 0.566501 0.079137
vt 0.065177 0.437576
vt 0.055865 0.441988
vt 0.557214 0.074660
vt 0.074777 0.434325
vt 0.094224 0.431654
vt 0.144297 0.453110
vt 0.631413 0.075747
vt 0.113012 0.434092
vt 0.154698 0.468764
vt 0.130045 0.441375
vt 0.605078 0.084716
vt 0.158081 0.477819
vt 0.645736 0.064098
vt 0.651533 0.056755
vt 0.176350 0.385899
vt 0.544833 0.149479
vt 0.752021 0.047537
vt 0.521828 0.141811
vt 0.020970 0.374670
vt 0.742688 0.066724
vt 0.043989 0.367165
vt 0.731780 0.083520
vt 0.066188 0.363238
vt 0.719641 0.098195
vt 0.087302 0.362150
vt 0.706475 0.110977
vt 0.191287 0.395404
vt 0.107255 0.363376
vt 0.692393 0.122057
vt 0.205316 0.406560
vt 0.126065 0.366561
vt 0.677409 0.131485
vt 0.218424 0.419418
vt 0.143774 0.371484
vt 0.661549 0.139385
vt 0.230495 0.434170
vt 0.160533 0.377919
vt 0.644749 0.145735
vt 0.241324 0.451042
vt 0.627002 0.150567
vt 0.250561 0.470306
vt 0.608157 0.153652
vt 0.257639 0.492262
vt 0.588174 0.154766
vt 0.261611 0.517198
vt 0.763334 0.000784
vt 0.567039 0.153551
vt 0.759216 0.025655
vt 0.012628 0.352384
vt 0.513322 0.164080
vt 0.001095 0.299656
vt 0.501413 0.216853
vt 0.000102 0.270595
vt 0.500226 0.245988
vt 0.502224 0.281502
vt 0.002322 0.235220
vt 0.758915 0.076753
vt 0.793660 0.101748
vt 0.808371 0.115948
vt 0.827213 0.134736
vt 0.039450 0.345797
vt 0.035559 0.297882
vt 0.036425 0.272365
vt 0.041184 0.241660
vt 0.745944 0.094685
vt 0.776165 0.120767
vt 0.788768 0.135013
vt 0.805258 0.153155
vt 0.064546 0.343008
vt 0.066046 0.299204
vt 0.068525 0.276443
vt 0.074875 0.249425
vt 0.732011 0.110276
vt 0.758505 0.137265
vt 0.769445 0.151595
vt 0.784124 0.169321
vt 0.087931 0.343087
vt 0.093486 0.302775
vt 0.097170 0.282179
vt 0.104633 0.257987
vt 0.717261 0.123854
vt 0.740618 0.151721
vt 0.750225 0.166218
vt 0.763483 0.183756
vt 0.200703 0.381838
vt 0.221488 0.353103
vt 0.230068 0.338358
vt 0.242259 0.320817
vt 0.109736 0.345423
vt 0.118497 0.308049
vt 0.123114 0.289153
vt 0.131431 0.267107
vt 0.701739 0.135667
vt 0.722386 0.164489
vt 0.730903 0.179265
vt 0.743024 0.196847
vt 0.216173 0.393731
vt 0.239673 0.365957
vt 0.249347 0.351490
vt 0.262683 0.333991
vt 0.130134 0.349620
vt 0.141567 0.314697
vt 0.146968 0.297130
vt 0.156010 0.276703
vt 0.685432 0.145864
vt 0.703650 0.175823
vt 0.711247 0.191020
vt 0.722423 0.208889
vt 0.230866 0.407391
vt 0.257511 0.380504
vt 0.268525 0.366206
vt 0.283292 0.348518
vt 0.149306 0.355429
vt 0.163099 0.322546
vt 0.169221 0.306010
vt 0.178948 0.286778
vt 0.668283 0.154569
vt 0.684216 0.185895
vt 0.691011 0.201682
vt 0.701387 0.220116
vt 0.244732 0.423067
vt 0.275118 0.397102
vt 0.287803 0.382892
vt 0.304395 0.364790
vt 0.167341 0.362774
vt 0.183413 0.331535
vt 0.190270 0.315785
vt 0.200710 0.297400
vt 0.221700 0.308699
vt 0.210457 0.326524
vt 0.202798 0.341688
vt 0.184445 0.371561
vt 0.650202 0.161829
vt 0.663849 0.194800
vt 0.669906 0.211378
vt 0.679568 0.230667
vt 0.257625 0.441089
vt 0.292551 0.416233
vt 0.307354 0.402077
vt 0.326318 0.383335
vt 0.630985 0.167544
vt 0.642260 0.202560
vt 0.647589 0.220175
vt 0.656561 0.240669
vt 0.269261 0.461879
vt 0.309781 0.438549
vt 0.327309 0.424484
vt 0.349412 0.404883
vt 0.610543 0.171638
vt 0.619124 0.209109
vt 0.623661 0.228060
vt 0.631898 0.250184
vt 0.279156 0.485993
vt 0.326630 0.464903
vt 0.347706 0.451122
vt 0.374037 0.430473
vt 0.588695 0.173858
vt 0.594042 0.214268
vt 0.597630 0.234925
vt 0.604998 0.259211
vt 0.788181 0.003829
vt 0.286522 0.514301
vt 0.844015 0.022169
vt 0.342588 0.496257
vt 0.368445 0.483525
vt 0.869725 0.035016
vt 0.400302 0.461490
vt 0.901359 0.057160
vt 0.565274 0.173802
vt 0.566524 0.217699
vt 0.568885 0.240530
vt 0.575114 0.267657
vt 0.541269 0.275270
vt 0.536671 0.244439
vt 0.535955 0.218848
vt 0.540151 0.170854
vt 0.780661 0.032040
vt 0.827919 0.053355
vt 0.848869 0.067214
vt 0.875019 0.087940
vt 0.850345 0.113340
vt 0.828388 0.093682
vt 0.810968 0.079561
vt 0.770646 0.056057
vt 0.182365 0.407796
vt 0.195019 0.418035
vt 0.206636 0.429946
vt 0.217077 0.443607
vt 0.226110 0.459137
vt 0.233375 0.476660
vt 0.238338 0.496244
vt 0.741968 0.000102
vt 0.240208 0.517746
vt 0.739967 0.021563
vt 0.734894 0.041092
vt 0.727536 0.058553
vt 0.718425 0.074018
vt 0.707917 0.087612
vt 0.696242 0.099453
vt 0.683538 0.109621
vt 0.669954 0.118326
vt 0.655448 0.125474
vt 0.640035 0.131071
vt 0.623734 0.135071
vt 0.606523 0.137326
vt 0.588426 0.137625
vt 0.569531 0.135675
vt 0.550045 0.131086
vt 0.029416 0.393132
vt 0.530410 0.123380
vt 0.049076 0.385566
vt 0.068567 0.381105
vt 0.087452 0.379272
vt 0.105530 0.379678
vt 0.122715 0.382028
vt 0.138984 0.386116
vt 0.154360 0.391794
vt 0.168827 0.399018
vt 0.205301 0.237622
vt 0.727993 0.267659
vt 0.340256 0.313542
vt 0.227444 0.249965
vt 0.705799 0.279958
vt 0.366458 0.328484
vt 0.682741 0.292680
vt 0.395345 0.344988
vt 0.658335 0.306090
vt 0.427981 0.363600
vt 0.631988 0.320508
vt 0.465890 0.385049
vt 0.966303 0.133614
vt 0.602921 0.336354
vt 0.928482 0.154815
vt 0.569996 0.354260
vt 0.895907 0.173240
vt 0.031615 0.141879
vt 0.531102 0.375472
vt 0.867060 0.189602
vt 0.070184 0.163150
vt 0.840880 0.204430
vt 0.102876 0.181096
vt 0.816600 0.218138
vt 0.249138 0.262134
vt 0.131774 0.196972
vt 0.793625 0.231054
vt 0.270860 0.274283
vt 0.157997 0.211420
vt 0.182311 0.224863
vt 0.771472 0.243450
vt 0.749725 0.255541
vt 0.292998 0.286746
vt 0.315968 0.299741
vt 0.252426 0.303925
vt 0.273670 0.316992
vt 0.295370 0.331149
vt 0.317912 0.346769
vt 0.341745 0.364340
vt 0.367421 0.384538
vt 0.395667 0.408374
vt 0.928452 0.081054
vt 0.427626 0.437652
vt 0.896474 0.110069
vt 0.868217 0.133707
vt 0.842530 0.153750
vt 0.818684 0.171195
vt 0.796125 0.186710
vt 0.774402 0.200779
vt 0.753129 0.213768
vt 0.731962 0.225981
vt 0.710477 0.237574
vt 0.688309 0.248838
vt 0.665039 0.259905
vt 0.640166 0.270909
vt 0.613071 0.281963
vt 0.582935 0.293153
vt 0.548617 0.304488
vt 0.008742 0.201095
vt 0.508456 0.315811
vt 0.048661 0.212594
vt 0.082791 0.224050
vt 0.112780 0.235331
vt 0.139761 0.246460
vt 0.164544 0.257529
vt 0.187744 0.268658
vt 0.209855 0.279984
vt 0.231294 0.291642
vt 0.297757 0.284678
vt 0.317907 0.296078
vt 0.770663 0.248281
vt 0.751586 0.258887
vt 0.163078 0.209514
vt 0.184406 0.221307
vt 0.275465 0.272326
vt 0.294885 0.283258
vt 0.792762 0.235960
vt 0.773329 0.246834
vt 0.137260 0.194987
vt 0.160263 0.207661
vt 0.253670 0.260244
vt 0.272725 0.270902
vt 0.815657 0.223212
vt 0.795503 0.234542
vt 0.108928 0.178998
vt 0.134279 0.192925
vt 0.839827 0.209775
vt 0.818528 0.221800
vt 0.077041 0.160911
vt 0.105719 0.176654
vt 0.865857 0.195341
vt 0.842891 0.208349
vt 0.039711 0.139529
vt 0.073544 0.158189
vt 0.894496 0.179527
vt 0.869191 0.193880
vt 0.569394 0.362604
vt 0.535275 0.381211
vt 0.926774 0.161853
vt 0.898198 0.178016
vt 0.602239 0.343554
vt 0.573357 0.359262
vt 0.964150 0.141684
vt 0.930972 0.160282
vt 0.631263 0.326925
vt 0.605765 0.340825
vt 0.435385 0.359768
vt 0.468640 0.378584
vt 0.657604 0.311929
vt 0.634492 0.324576
vt 0.401871 0.341790
vt 0.430500 0.358117
vt 0.682009 0.298100
vt 0.660599 0.309864
vt 0.372317 0.325724
vt 0.397658 0.340202
vt 0.705060 0.285087
vt 0.684833 0.296247
vt 0.231976 0.248117
vt 0.251006 0.258792
vt 0.345621 0.311092
vt 0.368606 0.324199
vt 0.727240 0.272602
vt 0.707771 0.283391
vt 0.209920 0.235782
vt 0.229345 0.246610
vt 0.320975 0.297513
vt 0.342281 0.309620
vt 0.748952 0.260390
vt 0.729888 0.271020
vt 0.187110 0.223004
vt 0.207277 0.234197
vt 0.294885 0.283258
vt 0.297757 0.284678
vt 0.773329 0.246834
vt 0.770663 0.248281
vt 0.160263 0.207661
vt 0.163078 0.209514
vt 0.272725 0.270902
vt 0.275465 0.272326
vt 0.795503 0.234542
vt 0.792762 0.235960
vt 0.134279 0.192925
vt 0.137260 0.194987
vt 0.251006 0.258792
vt 0.253670 0.260244
vt 0.818528 0.221800
vt 0.815657 0.223212
vt 0.105719 0.176654
vt 0.108928 0.178998
vt 0.842891 0.208349
vt 0.839827 0.209775
vt 0.073544 0.158189
vt 0.077041 0.160911
vt 0.869191 0.193880
vt 0.865857 0.195341
vt 0.035790 0.136197
vt 0.039711 0.139529
vt 0.898198 0.178016
vt 0.894496 0.179527
vt 0.573357 0.359262
vt 0.569394 0.362604
vt 0.930972 0.160282
vt 0.926774 0.161853
vt 0.605765 0.340825
vt 0.602239 0.343554
vt 0.969014 0.140056
vt 0.964150 0.141684
vt 0.634492 0.324576
vt 0.631263 0.326925
vt 0.430500 0.358117
vt 0.435385 0.359768
vt 0.660599 0.309864
vt 0.657604 0.311929
vt 0.397658 0.340202
vt 0.401871 0.341790
vt 0.684833 0.296247
vt 0.682009 0.298100
vt 0.368606 0.324199
vt 0.372317 0.325724
vt 0.707771 0.283391
vt 0.705060 0.285087
vt 0.229345 0.246610
vt 0.231976 0.248117
vt 0.342281 0.309620
vt 0.345621 0.311092
vt 0.729888 0.271020
vt 0.727240 0.272602
vt 0.207277 0.234197
vt 0.209920 0.235782
vt 0.317907 0.296078
vt 0.320975 0.297513
vt 0.751586 0.258887
vt 0.748952 0.260390
vt 0.184406 0.221307
vt 0.187110 0.223004
vt 0.853554 0.146447
vt 0.319964 0.965369
vt 0.500000 0.000000
vt 0.915735 0.777786
vt 0.961940 0.308659
vt 0.222215 0.084265
vt 0.222215 0.915735
vt 0.777784 0.915735
vt 0.155579 0.861048
vt 0.511757 0.998842
vt 0.414212 0.991551
vt 0.391150 0.013037
vt 0.853553 0.853554
vt 0.921304 0.767367
vt 0.844421 0.138952
vt 0.777785 0.084265
vt 0.038060 0.691342
vt 0.038060 0.308658
vt 0.585788 0.008449
vt 0.308658 0.961940
vt 0.308658 0.038060
vt 0.213082 0.091760
vt 0.146446 0.853553
vt 0.146446 0.146446
vt 0.608850 0.986963
vt 0.043629 0.701761
vt 0.701760 0.956371
vt 0.488243 0.001158
vt 0.691342 0.038060
vt 0.915735 0.222215
vt 0.991551 0.585788
vt 0.034631 0.319964
vt 0.965369 0.680037
vt 1.000000 0.500000
vt 0.402455 0.990393
vt 0.990393 0.597546
vt 0.013037 0.608850
vt 0.091760 0.786917
vt 0.990393 0.402455
vt 0.232634 0.921304
vt 0.597544 0.990393
vt 0.998842 0.488243
vt 0.500000 1.000000
vt 0.961940 0.691342
vt 0.138952 0.155579
vt 0.680037 0.034631
vt 0.001158 0.511757
vt 0.078696 0.232634
vt 0.298239 0.043629
vt 0.767366 0.078696
vt 0.986963 0.391150
vt 0.009607 0.597545
vt 0.009607 0.402455
vt 0.908240 0.213083
vt 0.597545 0.009607
vt 0.786917 0.908240
vt 0.000000 0.500000
vt 0.084265 0.777785
vt 0.084265 0.222215
vt 0.691341 0.961940
vt 0.402455 0.009607
vt 0.008449 0.414212
vt 0.861048 0.844421
vt 0.956371 0.298240
usemtl lemon_skin
f 21/21 20/20 2/2
f 7/7 6/6 1/1
f 35/35 34/34 1/1
f 22/22 21/21 2/2
f 8/8 7/7 1/1
f 3/3 36/36 1/1
f 23/23 22/22 2/2
f 9/9 8/8 1/1
f 24/24 23/23 2/2
f 10/10 9/9 1/1
f 26/26 25/25 2/2
f 12/12 10/10 1/1
f 27/27 26/26 2/2
f 13/13 11/11 2/2
f 25/25 24/24 2/2
f 14/14 13/13 2/2
f 29/29 27/27 2/2
f 15/15 14/14 2/2
f 30/30 28/28 1/1
f 16/16 15/15 2/2
f 31/31 30/30 1/1
f 17/17 16/16 2/2
f 32/32 31/31 1/1
f 18/18 17/17 2/2
f 4/4 3/3 1/1
f 33/33 32/32 1/1
f 19/19 18/18 2/2
f 5/5 4/4 1/1
f 34/34 33/33 1/1
f 20/20 19/19 2/2
f 6/6 5/5 1/1
f 36/36 35/35 1/1
f 271/271 273/273 31/31
f 271/271 31/31 32/32
f 256/256 272/272 17/17
f 256/256 17/17 18/18
f 242/242 274/274 23/23
f 242/242 23/23 24/24
f 255/255 249/249 3/3
f 255/255 3/3 4/4
f 270/270 271/271 32/32
f 270/270 32/32 33/33
f 254/254 256/256 18/18
f 254/254 18/18 19/19
f 269/269 255/255 4/4
f 269/269 4/4 5/5
f 253/253 270/270 33/33
f 253/253 33/33 34/34
f 268/268 254/254 19/19
f 268/268 19/19 20/20
f 252/252 269/269 5/5
f 252/252 5/5 6/6
f 267/267 253/253 34/34
f 267/267 34/34 35/35
f 251/251 268/268 20/20
f 251/251 20/20 21/21
f 266/266 252/252 6/6
f 266/266 6/6 7/7
f 250/250 267/267 35/35
f 250/250 35/35 36/36
f 241/241 251/251 21/21
f 241/241 21/21 22/22
f 257/257 266/266 7/7
f 257/257 7/7 8/8
f 249/249 250/250 36/36
f 249/249 36/36 3/3
f 274/274 241/241 22/22
f 274/274 22/22 23/23
f 265/265 257/257 8/8
f 265/265 8/8 9/9
f 264/264 265/265 9/9
f 264/264 9/9 10/10
f 243/243 242/242 24/24
f 243/243 24/24 25/25
f 262/262 264/264 10/10
f 262/262 10/10 12/12
f 244/244 243/243 25/25
f 244/244 25/25 26/26
f 261/261 263/263 11/11
f 261/261 11/11 13/13
f 245/245 244/244 26/26
f 245/245 26/26 27/27
f 260/260 261/261 13/13
f 260/260 13/13 14/14
f 259/259 260/260 14/14
f 259/259 14/14 15/15
f 258/258 259/259 15/15
f 258/258 15/15 16/16
f 272/272 258/258 16/16
f 272/272 16/16 17/17
f 247/247 245/245 27/27
f 247/247 27/27 29/29
f 248/248 246/246 28/28
f 248/248 28/28 30/30
f 273/273 248/248 30/30
f 273/273 30/30 31/31
f 346/346 73/73 104/104
f 346/346 104/104 469/469
f 352/352 75/75 106/106
f 352/352 106/106 477/477
f 356/356 76/76 74/74
f 356/356 74/74 345/345
f 360/360 77/77 75/75
f 360/360 75/75 352/352
f 364/364 78/78 76/76
f 364/364 76/76 356/356
f 368/368 79/79 77/77
f 368/368 77/77 360/360
f 372/372 80/80 78/78
f 372/372 78/78 364/364
f 376/376 81/81 79/79
f 376/376 79/79 368/368
f 380/380 82/82 93/93
f 380/380 93/93 425/425
f 384/384 83/83 80/80
f 384/384 80/80 372/372
f 388/388 84/84 81/81
f 388/388 81/81 376/376
f 392/392 85/85 82/82
f 392/392 82/82 380/380
f 396/396 86/86 83/83
f 396/396 83/83 384/384
f 400/400 87/87 84/84
f 400/400 84/84 388/388
f 404/404 88/88 85/85
f 404/404 85/85 392/392
f 408/408 89/89 86/86
f 408/408 86/86 396/396
f 412/412 90/90 87/87
f 412/412 87/87 400/400
f 416/416 91/91 88/88
f 416/416 88/88 404/404
f 420/420 92/92 89/89
f 420/420 89/89 408/408
f 428/428 94/94 90/90
f 428/428 90/90 412/412
f 432/432 95/95 91/91
f 432/432 91/91 416/416
f 425/425 93/93 92/92
f 425/425 92/92 420/420
f 436/436 96/96 94/94
f 436/436 94/94 428/428
f 440/440 97/97 95/95
f 440/440 95/95 432/432
f 444/444 98/98 96/96
f 444/444 96/96 436/436
f 448/448 99/99 97/97
f 448/448 97/97 440/440
f 452/452 100/100 98/98
f 452/452 98/98 444/444
f 458/458 102/102 99/99
f 458/458 99/99 448/448
f 464/464 103/103 100/100
f 464/464 100/100 452/452
f 472/472 105/105 101/101
f 472/472 101/101 457/457
f 469/469 104/104 103/103
f 469/469 103/103 464/464
f 477/477 106/106 105/105
f 477/477 105/105 472/472
f 142/142 37/37 248/248
f 142/142 248/248 273/273
f 151/151 155/155 261/261
f 151/151 261/261 260/260
f 37/37 41/41 246/246
f 37/37 246/246 248/248
f 49/49 53/53 244/244
f 49/49 244/244 245/245
f 167/167 171/171 265/265
f 167/167 265/265 264/264
f 65/65 69/69 241/241
f 65/65 241/241 274/274
f 175/175 107/107 266/266
f 175/175 266/266 257/257
f 179/179 111/111 267/267
f 179/179 267/267 250/250
f 183/183 115/115 268/268
f 183/183 268/268 251/251
f 195/195 203/203 256/256
f 195/195 256/256 254/254
f 187/187 119/119 269/269
f 187/187 269/269 252/252
f 191/191 123/123 270/270
f 191/191 270/270 253/253
f 123/123 135/135 271/271
f 123/123 271/271 270/270
f 172/172 176/176 213/213
f 172/172 213/213 216/216
f 141/141 38/38 240/240
f 141/141 240/240 217/217
f 38/38 44/44 238/238
f 38/38 238/238 240/240
f 129/129 180/180 215/215
f 129/129 215/215 232/232
f 54/54 58/58 235/235
f 54/54 235/235 236/236
f 161/161 168/168 224/224
f 161/161 224/224 223/223
f 58/58 62/62 234/234
f 58/58 234/234 235/235
f 168/168 172/172 216/216
f 168/168 216/216 224/224
f 176/176 108/108 227/227
f 176/176 227/227 213/213
f 135/135 142/142 273/273
f 135/135 273/273 271/271
f 116/116 196/196 211/211
f 116/116 211/211 229/229
f 180/180 112/112 228/228
f 180/180 228/228 215/215
f 70/70 184/184 208/208
f 70/70 208/208 233/233
f 124/124 136/136 226/226
f 124/124 226/226 231/231
f 196/196 204/204 214/214
f 196/196 214/214 211/211
f 192/192 124/124 231/231
f 192/192 231/231 210/210
f 200/200 129/129 232/232
f 200/200 232/232 212/212
f 147/147 151/151 260/260
f 147/147 260/260 259/259
f 57/57 61/61 242/242
f 57/57 242/242 243/243
f 226/226 217/217 142/142
f 226/226 142/142 135/135
f 482/482 483/483 138/138
f 482/482 138/138 126/126
f 194/194 126/126 125/125
f 194/194 125/125 193/193
f 306/306 290/290 141/141
f 306/306 141/141 136/136
f 212/212 232/232 130/130
f 212/212 130/130 199/199
f 481/481 482/482 126/126
f 481/481 126/126 194/194
f 138/138 139/139 140/140
f 138/138 140/140 137/137
f 288/288 304/304 129/129
f 288/288 129/129 200/200
f 230/230 212/212 199/199
f 230/230 199/199 119/119
f 483/483 484/484 139/139
f 483/483 139/139 138/138
f 202/202 127/127 128/128
f 202/202 128/128 201/201
f 302/302 288/288 200/200
f 302/302 200/200 120/120
f 210/210 231/231 123/123
f 210/210 123/123 191/191
f 511/511 512/512 127/127
f 511/511 127/127 202/202
f 122/122 202/202 201/201
f 122/122 201/201 121/121
f 234/234 207/207 65/65
f 234/234 65/65 61/61
f 510/510 511/511 202/202
f 510/510 202/202 122/122
f 275/275 308/308 66/66
f 275/275 66/66 62/62
f 211/211 214/214 203/203
f 211/211 203/203 195/195
f 64/64 68/68 67/67
f 64/64 67/67 63/63
f 287/287 289/289 204/204
f 287/287 204/204 196/196
f 491/491 492/492 68/68
f 491/491 68/68 64/64
f 198/198 206/206 205/205
f 198/198 205/205 197/197
f 214/214 225/225 134/134
f 214/214 134/134 203/203
f 496/496 497/497 206/206
f 496/496 206/206 198/198
f 289/289 305/305 133/133
f 289/289 133/133 204/204
f 231/231 226/226 135/135
f 231/231 135/135 123/123
f 206/206 131/131 132/132
f 206/206 132/132 205/205
f 303/303 306/306 136/136
f 303/303 136/136 124/124
f 497/497 498/498 131/131
f 497/497 131/131 206/206
f 126/126 138/138 137/137
f 126/126 137/137 125/125
f 286/286 303/303 124/124
f 286/286 124/124 192/192
f 285/285 302/302 120/120
f 285/285 120/120 188/188
f 299/299 285/285 188/188
f 299/299 188/188 108/108
f 110/110 190/190 189/189
f 110/110 189/189 109/109
f 114/114 194/194 193/193
f 114/114 193/193 113/113
f 301/301 287/287 196/196
f 301/301 196/196 116/116
f 208/208 229/229 115/115
f 208/208 115/115 183/183
f 507/507 508/508 110/110
f 507/507 110/110 178/178
f 118/118 198/198 197/197
f 118/118 197/197 117/117
f 284/284 301/301 116/116
f 284/284 116/116 184/184
f 233/233 208/208 183/183
f 233/233 183/183 69/69
f 495/495 496/496 198/198
f 495/495 198/198 118/118
f 186/186 118/118 117/117
f 186/186 117/117 185/185
f 307/307 284/284 184/184
f 307/307 184/184 70/70
f 282/282 299/299 108/108
f 282/282 108/108 176/176
f 494/494 495/495 118/118
f 494/494 118/118 186/186
f 72/72 186/186 185/185
f 72/72 185/185 71/71
f 228/228 210/210 191/191
f 228/228 191/191 111/111
f 493/493 494/494 186/186
f 493/493 186/186 72/72
f 300/300 286/286 192/192
f 300/300 192/192 112/112
f 215/215 228/228 111/111
f 215/215 111/111 179/179
f 283/283 300/300 112/112
f 283/283 112/112 180/180
f 480/480 481/481 194/194
f 480/480 194/194 114/114
f 182/182 114/114 113/113
f 182/182 113/113 181/181
f 209/209 230/230 119/119
f 209/209 119/119 187/187
f 178/178 110/110 109/109
f 178/178 109/109 177/177
f 479/479 480/480 114/114
f 479/479 114/114 182/182
f 190/190 122/122 121/121
f 190/190 121/121 189/189
f 508/508 509/509 190/190
f 508/508 190/190 110/110
f 229/229 211/211 195/195
f 229/229 195/195 115/115
f 227/227 209/209 187/187
f 227/227 187/187 107/107
f 509/509 510/510 122/122
f 509/509 122/122 190/190
f 213/213 227/227 107/107
f 213/213 107/107 175/175
f 220/220 221/221 155/155
f 220/220 155/155 151/151
f 170/170 174/174 173/173
f 170/170 173/173 169/169
f 150/150 154/154 153/153
f 150/150 153/153 149/149
f 224/224 216/216 171/171
f 224/224 171/171 167/167
f 219/219 220/220 151/151
f 219/219 151/151 147/147
f 60/60 64/64 63/63
f 60/60 63/63 59/59
f 146/146 150/150 149/149
f 146/146 149/149 145/145
f 235/235 234/234 61/61
f 235/235 61/61 57/57
f 218/218 219/219 147/147
f 218/218 147/147 143/143
f 166/166 170/170 169/169
f 166/166 169/169 163/163
f 131/131 146/146 145/145
f 131/131 145/145 132/132
f 223/223 224/224 167/167
f 223/223 167/167 160/160
f 225/225 218/218 143/143
f 225/225 143/143 134/134
f 56/56 60/60 59/59
f 56/56 59/59 55/55
f 139/139 40/40 39/39
f 139/139 39/39 140/140
f 48/48 52/52 51/51
f 48/48 51/51 45/45
f 236/236 235/235 57/57
f 236/236 57/57 53/53
f 127/127 182/182 181/181
f 127/127 181/181 128/128
f 239/239 237/237 49/49
f 239/239 49/49 42/42
f 158/158 165/165 164/164
f 158/158 164/164 157/157
f 232/232 215/215 179/179
f 232/232 179/179 130/130
f 40/40 47/47 46/46
f 40/40 46/46 39/39
f 221/221 222/222 159/159
f 221/221 159/159 155/155
f 68/68 72/72 71/71
f 68/68 71/71 67/67
f 240/240 238/238 41/41
f 240/240 41/41 37/37
f 52/52 56/56 55/55
f 52/52 55/55 51/51
f 207/207 233/233 69/69
f 207/207 69/69 65/65
f 217/217 240/240 37/37
f 217/217 37/37 142/142
f 237/237 236/236 53/53
f 237/237 53/53 49/49
f 174/174 178/178 177/177
f 174/174 177/177 173/173
f 154/154 158/158 157/157
f 154/154 157/157 153/153
f 216/216 213/213 175/175
f 216/216 175/175 171/171
f 153/153 157/157 294/294
f 153/153 294/294 293/293
f 51/51 55/55 277/277
f 51/51 277/277 278/278
f 67/67 71/71 307/307
f 67/67 307/307 308/308
f 157/157 164/164 297/297
f 157/157 297/297 294/294
f 45/45 51/51 278/278
f 45/45 278/278 280/280
f 181/181 113/113 300/300
f 181/181 300/300 283/283
f 177/177 109/109 299/299
f 177/177 299/299 282/282
f 185/185 117/117 301/301
f 185/185 301/301 284/284
f 109/109 189/189 285/285
f 109/109 285/285 299/299
f 193/193 125/125 303/303
f 193/193 303/303 286/286
f 205/205 132/132 305/305
f 205/205 305/305 289/289
f 132/132 145/145 291/291
f 132/132 291/291 305/305
f 63/63 67/67 308/308
f 63/63 308/308 275/275
f 145/145 149/149 292/292
f 145/145 292/292 291/291
f 201/201 128/128 304/304
f 201/201 304/304 288/288
f 149/149 153/153 293/293
f 149/149 293/293 292/292
f 484/484 485/485 40/40
f 484/484 40/40 139/139
f 486/486 488/488 52/52
f 486/486 52/52 48/48
f 277/277 276/276 58/58
f 277/277 58/58 54/54
f 512/512 479/479 182/182
f 512/512 182/182 127/127
f 280/280 278/278 50/50
f 280/280 50/50 43/43
f 502/502 504/504 165/165
f 502/502 165/165 158/158
f 304/304 283/283 180/180
f 304/304 180/180 129/129
f 485/485 487/487 47/47
f 485/485 47/47 40/40
f 294/294 297/297 162/162
f 294/294 162/162 156/156
f 492/492 493/493 72/72
f 492/492 72/72 68/68
f 281/281 279/279 44/44
f 281/281 44/44 38/38
f 488/488 489/489 56/56
f 488/488 56/56 52/52
f 308/308 307/307 70/70
f 308/308 70/70 66/66
f 290/290 281/281 38/38
f 290/290 38/38 141/141
f 278/278 277/277 54/54
f 278/278 54/54 50/50
f 506/506 507/507 178/178
f 506/506 178/178 174/174
f 501/501 502/502 158/158
f 501/501 158/158 154/154
f 298/298 282/282 176/176
f 298/298 176/176 172/172
f 293/293 294/294 156/156
f 293/293 156/156 152/152
f 505/505 506/506 174/174
f 505/505 174/174 170/170
f 500/500 501/501 154/154
f 500/500 154/154 150/150
f 295/295 298/298 172/172
f 295/295 172/172 168/168
f 292/292 293/293 152/152
f 292/292 152/152 148/148
f 490/490 491/491 64/64
f 490/490 64/64 60/60
f 499/499 500/500 150/150
f 499/499 150/150 146/146
f 276/276 275/275 62/62
f 276/276 62/62 58/58
f 291/291 292/292 148/148
f 291/291 148/148 144/144
f 503/503 505/505 170/170
f 503/503 170/170 166/166
f 498/498 499/499 146/146
f 498/498 146/146 131/131
f 296/296 295/295 168/168
f 296/296 168/168 161/161
f 305/305 291/291 144/144
f 305/305 144/144 133/133
f 489/489 490/490 60/60
f 489/489 60/60 56/56
f 134/134 143/143 258/258
f 134/134 258/258 272/272
f 53/53 57/57 243/243
f 53/53 243/243 244/244
f 42/42 49/49 245/245
f 42/42 245/245 247/247
f 155/155 159/159 263/263
f 155/155 263/263 261/261
f 171/171 175/175 257/257
f 171/171 257/257 265/265
f 130/130 179/179 250/250
f 130/130 250/250 249/249
f 69/69 183/183 251/251
f 69/69 251/251 241/241
f 107/107 187/187 252/252
f 107/107 252/252 266/266
f 111/111 191/191 253/253
f 111/111 253/253 267/267
f 61/61 65/65 274/274
f 61/61 274/274 242/242
f 115/115 195/195 254/254
f 115/115 254/254 268/268
f 119/119 199/199 255/255
f 119/119 255/255 269/269
f 199/199 130/130 249/249
f 199/199 249/249 255/255
f 50/50 54/54 236/236
f 50/50 236/236 237/237
f 66/66 70/70 233/233
f 66/66 233/233 207/207
f 156/156 162/162 222/222
f 156/156 222/222 221/221
f 43/43 50/50 237/237
f 43/43 237/237 239/239
f 133/133 144/144 218/218
f 133/133 218/218 225/225
f 144/144 148/148 219/219
f 144/144 219/219 218/218
f 148/148 152/152 220/220
f 148/148 220/220 219/219
f 152/152 156/156 221/221
f 152/152 221/221 220/220
f 108/108 188/188 209/209
f 108/108 209/209 227/227
f 203/203 134/134 272/272
f 203/203 272/272 256/256
f 188/188 120/120 230/230
f 188/188 230/230 209/209
f 112/112 192/192 210/210
f 112/112 210/210 228/228
f 184/184 116/116 229/229
f 184/184 229/229 208/208
f 204/204 133/133 225/225
f 204/204 225/225 214/214
f 62/62 66/66 207/207
f 62/62 207/207 234/234
f 120/120 200/200 212/212
f 120/120 212/212 230/230
f 136/136 141/141 217/217
f 136/136 217/217 226/226
f 143/143 147/147 259/259
f 143/143 259/259 258/258
f 160/160 167/167 264/264
f 160/160 264/264 262/262
f 55/55 59/59 276/276
f 55/55 276/276 277/277
f 128/128 181/181 283/283
f 128/128 283/283 304/304
f 39/39 46/46 279/279
f 39/39 279/279 281/281
f 140/140 39/39 281/281
f 140/140 281/281 290/290
f 173/173 177/177 282/282
f 173/173 282/282 298/298
f 169/169 173/173 298/298
f 169/169 298/298 295/295
f 137/137 140/140 290/290
f 137/137 290/290 306/306
f 59/59 63/63 275/275
f 59/59 275/275 276/276
f 121/121 201/201 288/288
f 121/121 288/288 302/302
f 163/163 169/169 295/295
f 163/163 295/295 296/296
f 197/197 205/205 289/289
f 197/197 289/289 287/287
f 125/125 137/137 306/306
f 125/125 306/306 303/303
f 189/189 121/121 302/302
f 189/189 302/302 285/285
f 117/117 197/197 287/287
f 117/117 287/287 301/301
f 71/71 185/185 284/284
f 71/71 284/284 307/307
f 113/113 193/193 286/286
f 113/113 286/286 300/300
f 478/478 311/311 342/342
f 478/478 342/342 471/471
f 470/470 310/310 341/341
f 470/470 341/341 463/463
f 471/471 342/342 340/340
f 471/471 340/340 455/455
f 463/463 341/341 338/338
f 463/463 338/338 451/451
f 456/456 339/339 337/337
f 456/456 337/337 447/447
f 451/451 338/338 336/336
f 451/451 336/336 443/443
f 447/447 337/337 335/335
f 447/447 335/335 439/439
f 443/443 336/336 334/334
f 443/443 334/334 435/435
f 439/439 335/335 333/333
f 439/439 333/333 431/431
f 435/435 334/334 332/332
f 435/435 332/332 427/427
f 426/426 309/309 331/331
f 426/426 331/331 419/419
f 431/431 333/333 330/330
f 431/431 330/330 415/415
f 427/427 332/332 329/329
f 427/427 329/329 411/411
f 419/419 331/331 328/328
f 419/419 328/328 407/407
f 415/415 330/330 327/327
f 415/415 327/327 403/403
f 411/411 329/329 326/326
f 411/411 326/326 399/399
f 407/407 328/328 325/325
f 407/407 325/325 395/395
f 403/403 327/327 324/324
f 403/403 324/324 391/391
f 399/399 326/326 323/323
f 399/399 323/323 387/387
f 395/395 325/325 322/322
f 395/395 322/322 383/383
f 391/391 324/324 321/321
f 391/391 321/321 379/379
f 387/387 323/323 320/320
f 387/387 320/320 375/375
f 383/383 322/322 319/319
f 383/383 319/319 371/371
f 379/379 321/321 309/309
f 379/379 309/309 426/426
f 375/375 320/320 318/318
f 375/375 318/318 367/367
f 371/371 319/319 317/317
f 371/371 317/317 363/363
f 367/367 318/318 316/316
f 367/367 316/316 359/359
f 363/363 317/317 315/315
f 363/363 315/315 355/355
f 359/359 316/316 314/314
f 359/359 314/314 351/351
f 355/355 315/315 313/313
f 355/355 313/313 343/343
f 351/351 314/314 311/311
f 351/351 311/311 478/478
f 344/344 312/312 310/310
f 344/344 310/310 470/470
f 106/106 478/478 471/471
f 106/106 471/471 105/105
f 476/476 477/477 472/472
f 476/476 472/472 473/473
f 475/475 476/476 473/473
f 475/475 473/473 474/474
f 557/557 475/475 474/474
f 557/557 474/474 556/556
f 104/104 470/470 463/463
f 104/104 463/463 103/103
f 468/468 469/469 464/464
f 468/468 464/464 465/465
f 467/467 468/468 465/465
f 467/467 465/465 466/466
f 570/570 467/467 466/466
f 570/570 466/466 569/569
f 105/105 471/471 455/455
f 105/105 455/455 101/101
f 473/473 472/472 457/457
f 473/473 457/457 460/460
f 474/474 473/473 460/460
f 474/474 460/460 462/462
f 556/556 474/474 462/462
f 556/556 462/462 554/554
f 103/103 463/463 451/451
f 103/103 451/451 100/100
f 465/465 464/464 452/452
f 465/465 452/452 453/453
f 466/466 465/465 453/453
f 466/466 453/453 454/454
f 569/569 466/466 454/454
f 569/569 454/454 568/568
f 102/102 456/456 447/447
f 102/102 447/447 99/99
f 459/459 458/458 448/448
f 459/459 448/448 449/449
f 461/461 459/459 449/449
f 461/461 449/449 450/450
f 555/555 461/461 450/450
f 555/555 450/450 553/553
f 100/100 451/451 443/443
f 100/100 443/443 98/98
f 453/453 452/452 444/444
f 453/453 444/444 445/445
f 454/454 453/453 445/445
f 454/454 445/445 446/446
f 568/568 454/454 446/446
f 568/568 446/446 567/567
f 99/99 447/447 439/439
f 99/99 439/439 97/97
f 449/449 448/448 440/440
f 449/449 440/440 441/441
f 450/450 449/449 441/441
f 450/450 441/441 442/442
f 553/553 450/450 442/442
f 553/553 442/442 552/552
f 98/98 443/443 435/435
f 98/98 435/435 96/96
f 445/445 444/444 436/436
f 445/445 436/436 437/437
f 446/446 445/445 437/437
f 446/446 437/437 438/438
f 567/567 446/446 438/438
f 567/567 438/438 566/566
f 97/97 439/439 431/431
f 97/97 431/431 95/95
f 441/441 440/440 432/432
f 441/441 432/432 433/433
f 442/442 441/441 433/433
f 442/442 433/433 434/434
f 552/552 442/442 434/434
f 552/552 434/434 551/551
f 96/96 435/435 427/427
f 96/96 427/427 94/94
f 437/437 436/436 428/428
f 437/437 428/428 429/429
f 438/438 437/437 429/429
f 438/438 429/429 430/430
f 566/566 438/438 430/430
f 566/566 430/430 565/565
f 93/93 426/426 419/419
f 93/93 419/419 92/92
f 424/424 425/425 420/420
f 424/424 420/420 421/421
f 423/423 424/424 421/421
f 423/423 421/421 422/422
f 580/580 423/423 422/422
f 580/580 422/422 579/579
f 95/95 431/431 415/415
f 95/95 415/415 91/91
f 433/433 432/432 416/416
f 433/433 416/416 417/417
f 434/434 433/433 417/417
f 434/434 417/417 418/418
f 551/551 434/434 418/418
f 551/551 418/418 550/550
f 94/94 427/427 411/411
f 94/94 411/411 90/90
f 429/429 428/428 412/412
f 429/429 412/412 413/413
f 430/430 429/429 413/413
f 430/430 413/413 414/414
f 565/565 430/430 414/414
f 565/565 414/414 564/564
f 92/92 419/419 407/407
f 92/92 407/407 89/89
f 421/421 420/420 408/408
f 421/421 408/408 409/409
f 422/422 421/421 409/409
f 422/422 409/409 410/410
f 579/579 422/422 410/410
f 579/579 410/410 578/578
f 91/91 415/415 403/403
f 91/91 403/403 88/88
f 417/417 416/416 404/404
f 417/417 404/404 405/405
f 418/418 417/417 405/405
f 418/418 405/405 406/406
f 550/550 418/418 406/406
f 550/550 406/406 549/549
f 90/90 411/411 399/399
f 90/90 399/399 87/87
f 413/413 412/412 400/400
f 413/413 400/400 401/401
f 414/414 413/413 401/401
f 414/414 401/401 402/402
f 564/564 414/414 402/402
f 564/564 402/402 563/563
f 89/89 407/407 395/395
f 89/89 395/395 86/86
f 409/409 408/408 396/396
f 409/409 396/396 397/397
f 410/410 409/409 397/397
f 410/410 397/397 398/398
f 578/578 410/410 398/398
f 578/578 398/398 577/577
f 88/88 403/403 391/391
f 88/88 391/391 85/85
f 405/405 404/404 392/392
f 405/405 392/392 393/393
f 406/406 405/405 393/393
f 406/406 393/393 394/394
f 549/549 406/406 394/394
f 549/549 394/394 548/548
f 87/87 399/399 387/387
f 87/87 387/387 84/84
f 401/401 400/400 388/388
f 401/401 388/388 389/389
f 402/402 401/401 389/389
f 402/402 389/389 390/390
f 563/563 402/402 390/390
f 563/563 390/390 562/562
f 86/86 395/395 383/383
f 86/86 383/383 83/83
f 397/397 396/396 384/384
f 397/397 384/384 385/385
f 398/398 397/397 385/385
f 398/398 385/385 386/386
f 577/577 398/398 386/386
f 577/577 386/386 576/576
f 85/85 391/391 379/379
f 85/85 379/379 82/82
f 393/393 392/392 380/380
f 393/393 380/380 381/381
f 394/394 393/393 381/381
f 394/394 381/381 382/382
f 548/548 394/394 382/382
f 548/548 382/382 547/547
f 84/84 387/387 375/375
f 84/84 375/375 81/81
f 389/389 388/388 376/376
f 389/389 376/376 377/377
f 390/390 389/389 377/377
f 390/390 377/377 378/378
f 562/562 390/390 378/378
f 562/562 378/378 561/561
f 83/83 383/383 371/371
f 83/83 371/371 80/80
f 385/385 384/384 372/372
f 385/385 372/372 373/373
f 386/386 385/385 373/373
f 386/386 373/373 374/374
f 576/576 386/386 374/374
f 576/576 374/374 575/575
f 82/82 379/379 426/426
f 82/82 426/426 93/93
f 381/381 380/380 425/425
f 381/381 425/425 424/424
f 382/382 381/381 424/424
f 382/382 424/424 423/423
f 547/547 382/382 423/423
f 547/547 423/423 580/580
f 81/81 375/375 367/367
f 81/81 367/367 79/79
f 377/377 376/376 368/368
f 377/377 368/368 369/369
f 378/378 377/377 369/369
f 378/378 369/369 370/370
f 561/561 378/378 370/370
f 561/561 370/370 560/560
f 80/80 371/371 363/363
f 80/80 363/363 78/78
f 373/373 372/372 364/364
f 373/373 364/364 365/365
f 374/374 373/373 365/365
f 374/374 365/365 366/366
f 575/575 374/374 366/366
f 575/575 366/366 574/574
f 79/79 367/367 359/359
f 79/79 359/359 77/77
f 369/369 368/368 360/360
f 369/369 360/360 361/361
f 370/370 369/369 361/361
f 370/370 361/361 362/362
f 560/560 370/370 362/362
f 560/560 362/362 559/559
f 78/78 363/363 355/355
f 78/78 355/355 76/76
f 365/365 364/364 356/356
f 365/365 356/356 357/357
f 366/366 365/365 357/357
f 366/366 357/357 358/358
f 574/574 366/366 358/358
f 574/574 358/358 573/573
f 77/77 359/359 351/351
f 77/77 351/351 75/75
f 361/361 360/360 352/352
f 361/361 352/352 353/353
f 362/362 361/361 353/353
f 362/362 353/353 354/354
f 559/559 362/362 354/354
f 559/559 354/354 558/558
f 76/76 355/355 343/343
f 76/76 343/343 74/74
f 357/357 356/356 345/345
f 357/357 345/345 347/347
f 358/358 357/357 347/347
f 358/358 347/347 350/350
f 573/573 358/358 350/350
f 573/573 350/350 571/571
f 75/75 351/351 478/478
f 75/75 478/478 106/106
f 353/353 352/352 477/477
f 353/353 477/477 476/476
f 354/354 353/353 476/476
f 354/354 476/476 475/475
f 558/558 354/354 475/475
f 558/558 475/475 557/557
f 73/73 344/344 470/470
f 73/73 470/470 104/104
f 348/348 346/346 469/469
f 348/348 469/469 468/468
f 349/349 348/348 468/468
f 349/349 468/468 467/467
f 572/572 349/349 467/467
f 572/572 467/467 570/570
f 312/312 504/504 502/502
f 312/312 502/502 310/310
f 314/314 490/490 489/489
f 314/314 489/489 311/311
f 315/315 505/505 503/503
f 315/315 503/503 313/313
f 316/316 491/491 490/490
f 316/316 490/490 314/314
f 317/317 506/506 505/505
f 317/317 505/505 315/315
f 318/318 492/492 491/491
f 318/318 491/491 316/316
f 319/319 507/507 506/506
f 319/319 506/506 317/317
f 320/320 493/493 492/492
f 320/320 492/492 318/318
f 321/321 479/479 512/512
f 321/321 512/512 309/309
f 322/322 508/508 507/507
f 322/322 507/507 319/319
f 323/323 494/494 493/493
f 323/323 493/493 320/320
f 324/324 480/480 479/479
f 324/324 479/479 321/321
f 325/325 509/509 508/508
f 325/325 508/508 322/322
f 326/326 495/495 494/494
f 326/326 494/494 323/323
f 327/327 481/481 480/480
f 327/327 480/480 324/324
f 328/328 510/510 509/509
f 328/328 509/509 325/325
f 329/329 496/496 495/495
f 329/329 495/495 326/326
f 330/330 482/482 481/481
f 330/330 481/481 327/327
f 331/331 511/511 510/510
f 331/331 510/510 328/328
f 332/332 497/497 496/496
f 332/332 496/496 329/329
f 333/333 483/483 482/482
f 333/333 482/482 330/330
f 309/309 512/512 511/511
f 309/309 511/511 331/331
f 334/334 498/498 497/497
f 334/334 497/497 332/332
f 335/335 484/484 483/483
f 335/335 483/483 333/333
f 336/336 499/499 498/498
f 336/336 498/498 334/334
f 337/337 485/485 484/484
f 337/337 484/484 335/335
f 338/338 500/500 499/499
f 338/338 499/499 336/336
f 339/339 487/487 485/485
f 339/339 485/485 337/337
f 341/341 501/501 500/500
f 341/341 500/500 338/338
f 342/342 488/488 486/486
f 342/342 486/486 340/340
f 310/310 502/502 501/501
f 310/310 501/501 341/341
f 311/311 489/489 488/488
f 311/311 488/488 342/342
f 513/513 578/578 577/577
f 513/513 577/577 542/542
f 514/514 564/564 563/563
f 514/514 563/563 544/544
f 515/515 550/550 549/549
f 515/515 549/549 546/546
f 516/516 579/579 578/578
f 516/516 578/578 513/513
f 517/517 565/565 564/564
f 517/517 564/564 514/514
f 518/518 551/551 550/550
f 518/518 550/550 515/515
f 537/537 580/580 579/579
f 537/537 579/579 516/516
f 519/519 566/566 565/565
f 519/519 565/565 517/517
f 520/520 552/552 551/551
f 520/520 551/551 518/518
f 521/521 567/567 566/566
f 521/521 566/566 519/519
f 522/522 553/553 552/552
f 522/522 552/552 520/520
f 523/523 568/568 567/567
f 523/523 567/567 521/521
f 524/524 555/555 553/553
f 524/524 553/553 522/522
f 526/526 569/569 568/568
f 526/526 568/568 523/523
f 527/527 556/556 554/554
f 527/527 554/554 525/525
f 528/528 570/570 569/569
f 528/528 569/569 526/526
f 529/529 557/557 556/556
f 529/529 556/556 527/527
f 531/531 572/572 570/570
f 531/531 570/570 528/528
f 532/532 558/558 557/557
f 532/532 557/557 529/529
f 533/533 573/573 571/571
f 533/533 571/571 530/530
f 534/534 559/559 558/558
f 534/534 558/558 532/532
f 535/535 574/574 573/573
f 535/535 573/573 533/533
f 536/536 560/560 559/559
f 536/536 559/559 534/534
f 538/538 575/575 574/574
f 538/538 574/574 535/535
f 539/539 561/561 560/560
f 539/539 560/560 536/536
f 540/540 547/547 580/580
f 540/540 580/580 537/537
f 541/541 576/576 575/575
f 541/541 575/575 538/538
f 543/543 562/562 561/561
f 543/543 561/561 539/539
f 545/545 548/548 547/547
f 545/545 547/547 540/540
f 542/542 577/577 576/576
f 542/542 576/576 541/541
f 544/544 563/563 562/562
f 544/544 562/562 543/543
f 546/546 549/549 548/548
f 546/546 548/548 545/545
f 546/546 545/545 581/581
f 544/544 543/543 583/583
f 542/542 541/541 585/585
f 545/545 540/540 587/587
f 543/543 539/539 589/589
f 541/541 538/538 591/591
f 540/540 537/537 593/593
f 539/539 536/536 595/595
f 538/538 535/535 597/597
f 536/536 534/534 599/599
f 535/535 533/533 601/601
f 534/534 532/532 603/603
f 533/533 530/530 605/605
f 532/532 529/529 607/607
f 531/531 528/528 609/609
f 529/529 527/527 611/611
f 528/528 526/526 613/613
f 527/527 525/525 615/615
f 526/526 523/523 617/617
f 524/524 522/522 619/619
f 523/523 521/521 621/621
f 522/522 520/520 623/623
f 521/521 519/519 625/625
f 520/520 518/518 627/627
f 519/519 517/517 629/629
f 537/537 516/516 631/631
f 518/518 515/515 633/633
f 517/517 514/514 635/635
f 516/516 513/513 637/637
f 515/515 546/546 639/639
f 514/514 544/544 641/641
f 513/513 542/542 643/643
f 581/581 582/582 546/546
f 583/583 584/584 544/544
f 585/585 586/586 542/542
f 587/587 588/588 545/545
f 589/589 590/590 543/543
f 591/591 592/592 541/541
f 593/593 594/594 540/540
f 595/595 596/596 539/539
f 597/597 598/598 538/538
f 599/599 600/600 536/536
f 601/601 602/602 535/535
f 603/603 604/604 534/534
f 605/605 606/606 533/533
f 607/607 608/608 532/532
f 609/609 610/610 531/531
f 611/611 612/612 529/529
f 613/613 614/614 528/528
f 615/615 616/616 527/527
f 617/617 618/618 526/526
f 619/619 620/620 524/524
f 621/621 622/622 523/523
f 623/623 624/624 522/522
f 625/625 626/626 521/521
f 627/627 628/628 520/520
f 629/629 630/630 519/519
f 631/631 632/632 537/537
f 633/633 634/634 518/518
f 635/635 636/636 517/517
f 637/637 638/638 516/516
f 639/639 640/640 515/515
f 641/641 642/642 514/514
f 643/643 644/644 513/513
f 545/545 645/645 646/646
f 543/543 647/647 648/648
f 541/541 649/649 650/650
f 540/540 651/651 652/652
f 539/539 653/653 654/654
f 538/538 655/655 656/656
f 537/537 657/657 658/658
f 536/536 659/659 660/660
f 535/535 661/661 662/662
f 534/534 663/663 664/664
f 533/533 665/665 666/666
f 532/532 667/667 668/668
f 530/530 669/669 670/670
f 529/529 671/671 672/672
f 528/528 673/673 674/674
f 527/527 675/675 676/676
f 526/526 677/677 678/678
f 525/525 679/679 680/680
f 523/523 681/681 682/682
f 522/522 683/683 684/684
f 521/521 685/685 686/686
f 520/520 687/687 688/688
f 519/519 689/689 690/690
f 518/518 691/691 692/692
f 517/517 693/693 694/694
f 516/516 695/695 696/696
f 515/515 697/697 698/698
f 514/514 699/699 700/700
f 513/513 701/701 702/702
f 546/546 703/703 704/704
f 544/544 705/705 706/706
f 542/542 707/707 708/708
usemtl lemon_cut
f 723/723 709/709 762/762
f 762/762 738/738 772/772
f 772/772 713/713 759/759
f 759/759 747/747 750/750
f 750/750 742/742 739/739
f 739/739 744/744 741/741
f 741/741 752/752 722/722
f 722/722 712/712 771/771
f 771/771 721/721 764/764
f 764/764 716/716 735/735
f 735/735 768/768 733/733
f 733/733 749/749 718/718
f 718/718 751/751 719/719
f 719/719 743/743 710/710
f 710/710 728/728 748/748
f 748/748 715/715 717/717
f 717/717 731/731 746/746
f 746/746 766/766 734/734
f 734/734 725/725 745/745
f 745/745 760/760 755/755
f 755/755 765/765 770/770
f 770/770 761/761 740/740
f 740/740 726/726 756/756
f 756/756 767/767 753/753
f 753/753 732/732 730/730
f 730/730 714/714 757/757
f 757/757 729/729 720/720
f 720/720 769/769 736/736
f 736/736 711/711 727/727
f 727/727 763/763 754/754
f 754/754 737/737 758/758
f 758/758 724/724 723/723
f 723/723 762/762 772/772
f 772/772 759/759 750/750
f 750/750 739/739 741/741
f 741/741 722/722 771/771
f 771/771 764/764 735/735
f 735/735 733/733 718/718
f 718/718 719/719 710/710
f 710/710 748/748 717/717
f 717/717 746/746 734/734
f 734/734 745/745 755/755
f 755/755 770/770 740/740
f 740/740 756/756 753/753
f 753/753 730/730 757/757
f 757/757 720/720 736/736
f 736/736 727/727 754/754
f 754/754 758/758 723/723
f 723/723 772/772 750/750
f 750/750 741/741 771/771
f 771/771 735/735 718/718
f 718/718 710/710 717/717
f 717/717 734/734 755/755
f 755/755 740/740 753/753
f 753/753 757/757 736/736
f 736/736 754/754 723/723
f 723/723 750/750 771/771
f 771/771 718/718 717/717
f 717/717 755/755 753/753
f 753/753 736/736 723/723
f 723/723 771/771 717/717
f 717/717 753/753 723/723
